<svg xmlns="http://www.w3.org/2000/svg" xmlns:xlink="http://www.w3.org/1999/xlink" width="276.704" height="366.286" viewBox="0 0 276.704 366.286">
  <defs>
    <filter id="Rectangle_Copy" x="28.412" y="196.282" width="191.311" height="170.005" filterUnits="userSpaceOnUse">
      <feOffset dy="20" input="SourceAlpha"/>
      <feGaussianBlur stdDeviation="20" result="blur"/>
      <feFlood flood-opacity="0.251"/>
      <feComposite operator="in" in2="blur"/>
      <feComposite in="SourceGraphic"/>
    </filter>
    <filter id="Rectangle_Copy-2" x="28.412" y="196.282" width="191.311" height="170.005" filterUnits="userSpaceOnUse">
      <feOffset dy="20" input="SourceAlpha"/>
      <feGaussianBlur stdDeviation="20" result="blur-2"/>
      <feFlood flood-opacity="0.251"/>
      <feComposite operator="in" in2="blur-2"/>
      <feComposite in="SourceGraphic"/>
    </filter>
    <linearGradient id="linear-gradient" x1="0.5" x2="0.5" y2="1" gradientUnits="objectBoundingBox">
      <stop offset="0" stop-color="#e09b3d"/>
      <stop offset="0.3" stop-color="#c74c4d"/>
      <stop offset="0.6" stop-color="#c21975"/>
      <stop offset="1" stop-color="#7024c4"/>
    </linearGradient>
    <linearGradient id="linear-gradient-2" x1="1" x2="0.5" y2="1" gradientUnits="objectBoundingBox">
      <stop offset="0" stop-color="#fff"/>
      <stop offset="1" stop-color="#fff"/>
    </linearGradient>
    <filter id="last" x="0" y="0" width="276.704" height="276.704" filterUnits="userSpaceOnUse">
      <feOffset dy="20" input="SourceAlpha"/>
      <feGaussianBlur stdDeviation="20" result="blur-3"/>
      <feFlood flood-opacity="0.102"/>
      <feComposite operator="in" in2="blur-3"/>
      <feComposite in="SourceGraphic"/>
    </filter>
    <linearGradient id="linear-gradient-3" x1="1" x2="0" xlink:href="#linear-gradient"/>
    <filter id="back" x="18.012" y="1.576" width="240.68" height="273.552" filterUnits="userSpaceOnUse">
      <feOffset dy="20" input="SourceAlpha"/>
      <feGaussianBlur stdDeviation="20" result="blur-4"/>
      <feFlood flood-opacity="0.102"/>
      <feComposite operator="in" in2="blur-4"/>
      <feComposite in="SourceGraphic"/>
    </filter>
    <filter id="mid" x="36.024" y="3.152" width="203.018" height="270.258" filterUnits="userSpaceOnUse">
      <feOffset dy="20" input="SourceAlpha"/>
      <feGaussianBlur stdDeviation="20" result="blur-5"/>
      <feFlood flood-opacity="0.349"/>
      <feComposite operator="in" in2="blur-5"/>
      <feComposite in="SourceGraphic"/>
    </filter>
    <filter id="Rectangle" x="41.552" y="190.683" width="171.335" height="130.991" filterUnits="userSpaceOnUse">
      <feOffset dy="20" input="SourceAlpha"/>
      <feGaussianBlur stdDeviation="20" result="blur-6"/>
      <feFlood flood-opacity="0.502"/>
      <feComposite operator="in" in2="blur-6"/>
      <feComposite in="SourceGraphic"/>
    </filter>
    <linearGradient id="linear-gradient-6" x1="0.5" x2="0.5" y2="0.621" gradientUnits="objectBoundingBox">
      <stop offset="0" stop-color="#fa8461" stop-opacity="0"/>
      <stop offset="1" stop-color="#ffd033"/>
    </linearGradient>
    <linearGradient id="linear-gradient-7" x1="0.5" x2="0.5" y2="0.521" gradientUnits="objectBoundingBox">
      <stop offset="0" stop-color="#ea8e3f" stop-opacity="0"/>
      <stop offset="1" stop-color="#fff"/>
    </linearGradient>
  </defs>
  <g id="Component_23_1" data-name="Component 23 – 1" transform="translate(55.702 40)">
    <g id="Component_16_1" data-name="Component 16 – 1">
      <g id="Group_6043" data-name="Group 6043" transform="translate(-361.766 -42.422)">
        <g id="Group_5818" data-name="Group 5818" transform="translate(394.476 238.704)">
          <g transform="matrix(1, 0, 0, 1, -88.41, -236.28)" filter="url(#Rectangle_Copy)">
            <path id="Rectangle_Copy-3" data-name="Rectangle Copy" d="M0,0H67.71a0,0,0,0,1,0,0V43.272a1,1,0,0,1-1,1H1a1,1,0,0,1-1-1V0A0,0,0,0,1,0,0Z" transform="matrix(1, 0.09, -0.09, 1, 92.27, 236.28)" fill="#fff"/>
          </g>
          <g transform="matrix(1, 0, 0, 1, -88.41, -236.28)" filter="url(#Rectangle_Copy-2)">
            <path id="Rectangle_Copy-4" data-name="Rectangle Copy" d="M0,0,67.71,41.668h0a2.6,2.6,0,0,1-2.6,2.6H2.6a2.6,2.6,0,0,1-2.6-2.6Z" transform="matrix(1, 0.09, -0.09, 1, 92.27, 236.28)" fill="#fff"/>
          </g>
          <path id="Path_1966" data-name="Path 1966" d="M0,0H67.71L35.077,22.055Z" transform="matrix(0.996, 0.087, -0.087, 0.996, 3.859, 0)" fill="url(#linear-gradient)"/>
        </g>
        <g id="Group_6035" data-name="Group 6035" transform="matrix(0.996, 0.087, -0.087, 0.996, 378.671, 42.422)">
          <g id="string" transform="translate(36.007 122.422)">
            <path id="Path_2" data-name="Path 2" d="M7.2,21.6,0,0" transform="translate(21.604 14.403)" fill="none" stroke="#e6e6e6" stroke-linecap="round" stroke-miterlimit="10" stroke-width="1"/>
            <path id="Path_3" data-name="Path 3" d="M0,21.6,7.2,0" transform="translate(43.208 14.403)" fill="none" stroke="#e6e6e6" stroke-linecap="round" stroke-miterlimit="10" stroke-width="1"/>
            <path id="Path_4" data-name="Path 4" d="M21.6,64.812,0,0" transform="translate(0 0)" fill="none" stroke="#fff" stroke-linecap="round" stroke-miterlimit="10" stroke-width="2"/>
            <path id="Path_4-2" data-name="Path 4" d="M0,64.812,21.6,0" transform="translate(50.409 0)" fill="none" stroke="#fff" stroke-linecap="round" stroke-miterlimit="10" stroke-width="2"/>
          </g>
          <g id="balloon" transform="translate(0 0)">
            <g transform="matrix(1, -0.09, 0.09, 1, -75.82, -33.52)" filter="url(#last)">
              <circle id="last-2" data-name="last" cx="72.324" cy="72.324" r="72.324" transform="matrix(1, 0.09, -0.09, 1, 72.61, 40)" fill="url(#linear-gradient-2)"/>
            </g>
            <g transform="matrix(1, -0.09, 0.09, 1, -75.82, -33.52)" filter="url(#back)">
              <ellipse id="back-2" data-name="back" cx="54.243" cy="72.324" rx="54.243" ry="72.324" transform="matrix(1, 0.09, -0.09, 1, 90.62, 41.58)" fill="url(#linear-gradient-3)"/>
            </g>
            <g transform="matrix(1, -0.09, 0.09, 1, -75.82, -33.52)" filter="url(#mid)">
              <ellipse id="mid-2" data-name="mid" cx="35.34" cy="72.324" rx="35.34" ry="72.324" transform="matrix(1, 0.09, -0.09, 1, 108.63, 43.15)" fill="url(#linear-gradient-2)"/>
            </g>
            <g id="top" transform="translate(54.01 0)">
              <ellipse id="Oval" cx="17.259" cy="72.324" rx="17.259" ry="72.324" transform="translate(0.233 0)" fill="url(#linear-gradient-3)"/>
              <path id="Oval-2" data-name="Oval" d="M18,0C8.06,0,0,32.241,0,72.013s8.06,72.013,18,72.013Z" transform="translate(0 0)" fill="#f5f5f5" opacity="0.1"/>
            </g>
          </g>
          <g transform="matrix(1, -0.09, 0.09, 1, -75.82, -33.52)" filter="url(#Rectangle)">
            <rect id="Rectangle-2" data-name="Rectangle" width="50.956" height="6.575" rx="1" transform="matrix(1, 0.09, -0.09, 1, 102.12, 230.68)" fill="#fff"/>
          </g>
          <g id="fire" transform="translate(64.105 150.508)">
            <g id="flame" transform="translate(3.587 0)">
              <path id="Oval_2" data-name="Oval 2" d="M4.321,14.4a4.288,4.288,0,0,0,4.321-4.255C8.642,7.8,6.481,0,4.321,0S0,7.8,0,10.147A4.288,4.288,0,0,0,4.321,14.4Z" transform="translate(0)" fill="url(#linear-gradient-6)"/>
              <path id="Oval_2-2" data-name="Oval 2" d="M2.881,9.362A2.825,2.825,0,0,0,5.761,6.6c0-1.528-1.44-6.6-2.881-6.6S0,5.068,0,6.6A2.825,2.825,0,0,0,2.881,9.362Z" transform="translate(1.44 4.321)" fill="url(#linear-gradient-7)"/>
            </g>
            <rect id="Rectangle_2" data-name="Rectangle 2" width="16.437" height="4.931" transform="translate(0 7.29)" fill="#e7e7e7"/>
            <path id="Rectangle_3" data-name="Rectangle 3" d="M0,0H11.506a0,0,0,0,1,0,0V0A3.287,3.287,0,0,1,8.219,3.287H3.287A3.287,3.287,0,0,1,0,0V0A0,0,0,0,1,0,0Z" transform="translate(1.644 12.221)" fill="#fff"/>
          </g>
        </g>
      </g>
    </g>
    <g id="check_2_" data-name="check (2)" transform="translate(93.851 187.578)">
      <path id="Path_1948" data-name="Path 1948" d="M11,0A11,11,0,1,0,22,11,11.012,11.012,0,0,0,11,0Zm0,0" transform="translate(0.383)" fill="#00875a"/>
      <path id="Path_1996" data-name="Path 1996" d="M.782-4.57H2.439V0H3.2V-6.381H2.619a1.378,1.378,0,0,1-.233.593,1.281,1.281,0,0,1-.42.369,1.691,1.691,0,0,1-.554.185,4.029,4.029,0,0,1-.631.048Z" transform="translate(8.336 13.977)" fill="#fff"/>
    </g>
  </g>
</svg>
