<svg id="undraw_report_mx0a" xmlns="http://www.w3.org/2000/svg" xmlns:xlink="http://www.w3.org/1999/xlink" width="296.04" height="229.149" viewBox="0 0 296.04 229.149">
  <defs>
    <linearGradient id="linear-gradient" x1="0.5" y1="1" x2="0.5" gradientUnits="objectBoundingBox">
      <stop offset="0" stop-color="gray" stop-opacity="0.251"/>
      <stop offset="0.54" stop-color="gray" stop-opacity="0.122"/>
      <stop offset="1" stop-color="gray" stop-opacity="0.102"/>
    </linearGradient>
    <linearGradient id="linear-gradient-2" x1="0.5" y1="1" x2="0.5" y2="0" xlink:href="#linear-gradient"/>
  </defs>
  <path id="Path_1963" data-name="Path 1963" d="M123.718,31.808c-9.519-.351-19.463-.6-28.07,3.483S80.385,49.258,83.272,58.347c.942,2.963,2.777,5.546,4.324,8.243a47.532,47.532,0,0,1,.923,44.726C83,121.939,73.64,130.023,66.9,139.921s-10.565,23.615-3.938,33.586c4.538,6.827,12.959,10.149,21.117,10.954s16.363-.463,24.557-.789a105.777,105.777,0,0,1,46.441,8.783c20.126,8.824,37.464,23.919,58.655,29.744a17.722,17.722,0,0,0,7.8.789c4.614-.841,7.969-4.656,11.581-7.668,11.532-9.549,27.5-11.332,42.467-11.776s30.56-.1,44.091-6.529c11.814-5.611,20.909-16.051,26.564-27.843s8.112-24.9,9.037-37.946c.548-7.767.529-15.785-2.251-23.056C349.9,100,343.567,93.486,336.92,87.795c-6.945-5.948-14.514-11.338-23.089-14.547-10.242-3.834-21.361-4.382-32.266-5.291A443.236,443.236,0,0,1,215.194,57.3c-20.712-4.951-43.453-10.36-62.316-20.446C143.411,31.788,134.39,32.191,123.718,31.808Z" transform="translate(-59.52 -31.629)" fill="#6c63ff" opacity="0.1"/>
  <g id="Group_6069" data-name="Group 6069" transform="translate(190.488 124.963)" opacity="0.1">
    <path id="Path_1964" data-name="Path 1964" d="M773.4,558.251s.969-13.586,8.616-20.994a20.63,20.63,0,0,0,6.1-11.543,34.877,34.877,0,0,0,.411-6.334" transform="translate(-768.388 -510.769)" fill="#6c63ff"/>
    <path id="Path_1965" data-name="Path 1965" d="M831.279,491.852c-.561,1.5-4.9,4.836-4.9,4.836s-1.1-5.365-.529-6.866a2.9,2.9,0,1,1,5.431,2.029Z" transform="translate(-806.354 -487.937)" fill="#6c63ff"/>
    <path id="Path_1966" data-name="Path 1966" d="M833.292,524.954c-1.287.953-6.742,1.394-6.742,1.394s2-5.1,3.286-6.052a2.9,2.9,0,0,1,3.456,4.656Z" transform="translate(-806.982 -511.053)" fill="#6c63ff"/>
    <path id="Path_1967" data-name="Path 1967" d="M813.776,575.009c-1.594.175-6.526-2.191-6.526-2.191s4.3-3.39,5.891-3.56a2.9,2.9,0,0,1,.635,5.751Z" transform="translate(-792.968 -546.985)" fill="#6c63ff"/>
    <path id="Path_1968" data-name="Path 1968" d="M789.053,610.731c-1.539.441-6.8-1.065-6.8-1.065s3.664-4.067,5.2-4.508a2.9,2.9,0,1,1,1.6,5.573Z" transform="translate(-774.814 -572.957)" fill="#6c63ff"/>
    <path id="Path_1969" data-name="Path 1969" d="M804.679,526.285c.685,1.446,5.291,4.4,5.291,4.4s.635-5.436-.052-6.885a2.9,2.9,0,0,0-5.239,2.484Z" transform="translate(-790.922 -512.83)" fill="#6c63ff"/>
    <path id="Path_1970" data-name="Path 1970" d="M775.756,566.149c1.1,1.175,6.367,2.618,6.367,2.618s-1.021-5.379-2.109-6.556a2.9,2.9,0,1,0-4.258,3.938Z" transform="translate(-769.539 -541.195)" fill="#6c63ff"/>
    <path id="Path_1971" data-name="Path 1971" d="M755.522,611.842c.871,1.342,5.833,3.656,5.833,3.656s-.1-5.477-.972-6.816a2.9,2.9,0,0,0-4.861,3.16Z" transform="translate(-755.097 -574.706)" fill="#6c63ff"/>
    <path id="Path_1972" data-name="Path 1972" d="M831.279,491.852c-.561,1.5-4.9,4.836-4.9,4.836s-1.1-5.365-.529-6.866a2.9,2.9,0,1,1,5.431,2.029Z" transform="translate(-806.354 -487.937)" fill="#6c63ff"/>
    <path id="Path_1973" data-name="Path 1973" d="M833.292,524.954c-1.287.953-6.742,1.394-6.742,1.394s2-5.1,3.286-6.052a2.9,2.9,0,0,1,3.456,4.656Z" transform="translate(-806.982 -511.053)" fill="#6c63ff"/>
    <path id="Path_1974" data-name="Path 1974" d="M813.776,575.009c-1.594.175-6.526-2.191-6.526-2.191s4.3-3.39,5.891-3.56a2.9,2.9,0,0,1,.635,5.751Z" transform="translate(-792.968 -546.985)" fill="#6c63ff"/>
    <path id="Path_1975" data-name="Path 1975" d="M789.053,610.731c-1.539.441-6.8-1.065-6.8-1.065s3.664-4.067,5.2-4.508a2.9,2.9,0,1,1,1.6,5.573Z" transform="translate(-774.814 -572.957)" fill="#6c63ff"/>
    <path id="Path_1976" data-name="Path 1976" d="M804.679,526.285c.685,1.446,5.291,4.4,5.291,4.4s.635-5.436-.052-6.885a2.9,2.9,0,0,0-5.239,2.484Z" transform="translate(-790.922 -512.83)" fill="#6c63ff"/>
    <path id="Path_1977" data-name="Path 1977" d="M775.756,566.149c1.1,1.175,6.367,2.618,6.367,2.618s-1.021-5.379-2.109-6.556a2.9,2.9,0,1,0-4.258,3.938Z" transform="translate(-769.539 -541.195)" fill="#6c63ff"/>
    <path id="Path_1978" data-name="Path 1978" d="M755.522,611.842c.871,1.342,5.833,3.656,5.833,3.656s-.1-5.477-.972-6.816a2.9,2.9,0,0,0-4.861,3.16Z" transform="translate(-755.097 -574.706)" fill="#6c63ff"/>
  </g>
  <g id="Group_6070" data-name="Group 6070" transform="translate(193.083 73.538)" opacity="0.1">
    <path id="Path_1979" data-name="Path 1979" d="M783.2,370.471s.969-13.586,8.616-20.994a20.65,20.65,0,0,0,6.1-11.543,34.416,34.416,0,0,0,.411-6.334" transform="translate(-778.099 -322.989)" fill="#6c63ff"/>
    <path id="Path_1980" data-name="Path 1980" d="M841.082,304.072c-.548,1.5-4.9,4.834-4.9,4.834s-1.1-5.365-.531-6.863a2.9,2.9,0,1,1,5.431,2.029Z" transform="translate(-816.069 -300.157)" fill="#6c63ff"/>
    <path id="Path_1981" data-name="Path 1981" d="M843.122,336.924c-1.284.956-6.742,1.394-6.742,1.394s2-5.094,3.286-6.049a2.9,2.9,0,1,1,3.456,4.656Z" transform="translate(-816.715 -323.025)" fill="#6c63ff"/>
    <path id="Path_1982" data-name="Path 1982" d="M823.583,387.194c-1.591.175-6.523-2.191-6.523-2.191s4.3-3.388,5.891-3.56a2.9,2.9,0,1,1,.633,5.765Z" transform="translate(-802.686 -359.17)" fill="#6c63ff"/>
    <path id="Path_1983" data-name="Path 1983" d="M798.853,423.006c-1.539.441-6.8-1.065-6.8-1.065s3.667-4.067,5.2-4.51a2.9,2.9,0,1,1,1.6,5.576Z" transform="translate(-784.525 -385.233)" fill="#6c63ff"/>
    <path id="Path_1984" data-name="Path 1984" d="M814.388,338.3c.685,1.449,5.294,4.4,5.294,4.4s.633-5.439-.052-6.885a2.9,2.9,0,1,0-5.242,2.481Z" transform="translate(-800.542 -324.846)" fill="#6c63ff"/>
    <path id="Path_1985" data-name="Path 1985" d="M785.69,378.508c1.1,1.178,6.37,2.618,6.37,2.618s-1.024-5.379-2.111-6.553a2.9,2.9,0,0,0-4.258,3.935Z" transform="translate(-779.383 -353.556)" fill="#6c63ff"/>
    <path id="Path_1986" data-name="Path 1986" d="M765.086,423.7c.874,1.342,5.833,3.656,5.833,3.656s-.1-5.477-.972-6.816a2.9,2.9,0,1,0-4.861,3.16Z" transform="translate(-764.572 -386.562)" fill="#6c63ff"/>
    <path id="Path_1987" data-name="Path 1987" d="M841.082,304.072c-.548,1.5-4.9,4.834-4.9,4.834s-1.1-5.365-.531-6.863a2.9,2.9,0,1,1,5.431,2.029Z" transform="translate(-816.069 -300.157)" fill="#6c63ff"/>
    <path id="Path_1988" data-name="Path 1988" d="M843.122,336.924c-1.284.956-6.742,1.394-6.742,1.394s2-5.094,3.286-6.049a2.9,2.9,0,1,1,3.456,4.656Z" transform="translate(-816.715 -323.025)" fill="#6c63ff"/>
    <path id="Path_1989" data-name="Path 1989" d="M823.583,387.194c-1.591.175-6.523-2.191-6.523-2.191s4.3-3.388,5.891-3.56a2.9,2.9,0,1,1,.633,5.765Z" transform="translate(-802.686 -359.17)" fill="#6c63ff"/>
    <path id="Path_1990" data-name="Path 1990" d="M798.853,423.006c-1.539.441-6.8-1.065-6.8-1.065s3.667-4.067,5.2-4.51a2.9,2.9,0,1,1,1.6,5.576Z" transform="translate(-784.525 -385.233)" fill="#6c63ff"/>
    <path id="Path_1991" data-name="Path 1991" d="M814.388,338.3c.685,1.449,5.294,4.4,5.294,4.4s.633-5.439-.052-6.885a2.9,2.9,0,1,0-5.242,2.481Z" transform="translate(-800.542 -324.846)" fill="#6c63ff"/>
    <path id="Path_1992" data-name="Path 1992" d="M785.69,378.508c1.1,1.178,6.37,2.618,6.37,2.618s-1.024-5.379-2.111-6.553a2.9,2.9,0,0,0-4.258,3.935Z" transform="translate(-779.383 -353.556)" fill="#6c63ff"/>
    <path id="Path_1993" data-name="Path 1993" d="M765.086,423.7c.874,1.342,5.833,3.656,5.833,3.656s-.1-5.477-.972-6.816a2.9,2.9,0,1,0-4.861,3.16Z" transform="translate(-764.572 -386.562)" fill="#6c63ff"/>
  </g>
  <g id="Group_6071" data-name="Group 6071" transform="translate(17.966 100.576)" opacity="0.1">
    <path id="Path_1994" data-name="Path 1994" d="M178.658,456.406s-11.7-6.972-14.881-17.127a20.611,20.611,0,0,0-7.569-10.634,34.537,34.537,0,0,0-5.477-3.215" transform="translate(-143.717 -418.161)" fill="#6c63ff"/>
    <path id="Path_1995" data-name="Path 1995" d="M130.1,399.76c1.1,1.175,2.117,6.553,2.117,6.553s-5.283-1.438-6.37-2.613a2.9,2.9,0,0,1,4.253-3.941Z" transform="translate(-125.123 -398.889)" fill="#6c63ff"/>
    <path id="Path_1996" data-name="Path 1996" d="M162.834,407.44c.274,1.577-1.786,6.649-1.786,6.649s-3.653-4.078-3.927-5.655a2.9,2.9,0,1,1,5.713-.994Z" transform="translate(-148.317 -403.302)" fill="#6c63ff"/>
    <path id="Path_1997" data-name="Path 1997" d="M200.339,444.5c-.548,1.5-4.9,4.839-4.9,4.839s-1.1-5.365-.534-6.863a2.9,2.9,0,1,1,5.433,2.024Z" transform="translate(-175.679 -429.116)" fill="#6c63ff"/>
    <path id="Path_1998" data-name="Path 1998" d="M221,483.433c-.3,1.575-4.009,5.611-4.009,5.611s-1.985-5.1-1.687-6.674a2.9,2.9,0,0,1,5.7,1.076Z" transform="translate(-190.581 -457.794)" fill="#6c63ff"/>
    <path id="Path_1999" data-name="Path 1999" d="M148.562,438.807c1.6.038,6.312-2.739,6.312-2.739s-4.573-3.012-6.175-3.051a2.9,2.9,0,1,0-.137,5.8Z" transform="translate(-140.087 -423.671)" fill="#6c63ff"/>
    <path id="Path_2000" data-name="Path 2000" d="M171.565,482.636c1.539-.444,5.2-4.513,5.2-4.513s-5.264-1.5-6.8-1.06a2.9,2.9,0,0,0,1.6,5.573Z" transform="translate(-156.208 -455.595)" fill="#6c63ff"/>
    <path id="Path_2001" data-name="Path 2001" d="M202.474,521.245c1.594-.175,5.891-3.56,5.891-3.56s-4.929-2.372-6.526-2.191a2.9,2.9,0,1,0,.635,5.751Z" transform="translate(-178.84 -483.554)" fill="#6c63ff"/>
    <path id="Path_2002" data-name="Path 2002" d="M130.1,399.76c1.1,1.175,2.117,6.553,2.117,6.553s-5.283-1.438-6.37-2.613a2.9,2.9,0,0,1,4.253-3.941Z" transform="translate(-125.123 -398.889)" fill="#6c63ff"/>
    <path id="Path_2003" data-name="Path 2003" d="M162.834,407.44c.274,1.577-1.786,6.649-1.786,6.649s-3.653-4.078-3.927-5.655a2.9,2.9,0,1,1,5.713-.994Z" transform="translate(-148.317 -403.302)" fill="#6c63ff"/>
    <path id="Path_2004" data-name="Path 2004" d="M200.339,444.5c-.548,1.5-4.9,4.839-4.9,4.839s-1.1-5.365-.534-6.863a2.9,2.9,0,1,1,5.433,2.024Z" transform="translate(-175.679 -429.116)" fill="#6c63ff"/>
    <path id="Path_2005" data-name="Path 2005" d="M221,483.433c-.3,1.575-4.009,5.611-4.009,5.611s-1.985-5.1-1.687-6.674a2.9,2.9,0,0,1,5.7,1.076Z" transform="translate(-190.581 -457.794)" fill="#6c63ff"/>
    <path id="Path_2006" data-name="Path 2006" d="M148.562,438.807c1.6.038,6.312-2.739,6.312-2.739s-4.573-3.012-6.175-3.051a2.9,2.9,0,1,0-.137,5.8Z" transform="translate(-140.087 -423.671)" fill="#6c63ff"/>
    <path id="Path_2007" data-name="Path 2007" d="M171.565,482.636c1.539-.444,5.2-4.513,5.2-4.513s-5.264-1.5-6.8-1.06a2.9,2.9,0,0,0,1.6,5.573Z" transform="translate(-156.208 -455.595)" fill="#6c63ff"/>
    <path id="Path_2008" data-name="Path 2008" d="M202.474,521.245c1.594-.175,5.891-3.56,5.891-3.56s-4.929-2.372-6.526-2.191a2.9,2.9,0,1,0,.635,5.751Z" transform="translate(-178.84 -483.554)" fill="#6c63ff"/>
  </g>
  <path id="Path_2009" data-name="Path 2009" d="M776.25,810.2c7.862,3.42,17.456,1.339,26.378,1.58a7.22,7.22,0,0,1,3.492.726,8.94,8.94,0,0,1,2.133,2.369c2.5,3.051,7.624,4.031,12.1,3.514s8.583-2.232,12.808-3.536c7.3-2.257,15.651-3.286,22.856-.822a4.719,4.719,0,0,0,2.065.394c1.58-.2,2.051-1.838,3.155-2.771,1.994-1.69,6.326-1.23,7.2-3.456.512-1.3-.668-2.64-1.955-3.53-4.929-3.407-11.968-3.968-18.411-3.442s-12.778,1.974-19.255,1.98c-8.071,0-15.867-2.224-23.858-3.136-5.535-.63-11.576-.548-16.766,1.306C782.571,803.382,781.333,807.9,776.25,810.2Z" transform="translate(-579.969 -589.371)" fill="#6c63ff" opacity="0.1"/>
  <path id="Path_2010" data-name="Path 2010" d="M232.93,768.28c13.419,3.864,29.8,1.512,45.022,1.786a17.8,17.8,0,0,1,5.965.822c1.673.671,2.495,1.753,3.642,2.678,4.267,3.448,13.011,4.557,20.651,3.971s14.651-2.522,21.865-4c12.466-2.55,26.717-3.711,39.014-.931a11.657,11.657,0,0,0,3.527.446c2.695-.227,3.5-2.076,5.384-3.133,3.4-1.917,10.8-1.388,12.291-3.9.876-1.473-1.139-2.985-3.336-3.99-8.4-3.848-20.424-4.483-31.425-3.889s-21.813,2.229-32.863,2.237c-13.775,0-27.084-2.511-40.725-3.544-9.448-.712-19.759-.625-28.618,1.479C243.72,760.584,241.6,765.686,232.93,768.28Z" transform="translate(-185.441 -557.941)" fill="#6c63ff" opacity="0.1"/>
  <path id="Path_2011" data-name="Path 2011" d="M101.77,815.485c3.834,2.306,8.49.9,12.833,1.065a2.728,2.728,0,0,1,1.7.487,5.775,5.775,0,0,1,1.038,1.6,5.662,5.662,0,0,0,5.885,2.369c2.177-.35,4.176-1.5,6.233-2.385,3.56-1.52,7.616-2.213,11.119-.548a1.748,1.748,0,0,0,1.008.274c.767-.137,1-1.241,1.534-1.87.969-1.139,3.078-.822,3.5-2.331a2.564,2.564,0,0,0-.95-2.38c-2.394-2.3-5.822-2.676-8.958-2.322s-6.217,1.312-9.369,1.312c-3.924,0-7.717-1.5-11.606-2.114a13.6,13.6,0,0,0-8.158.882C104.845,810.893,104.243,813.938,101.77,815.485Z" transform="translate(-90.2 -595.677)" fill="#6c63ff" opacity="0.1"/>
  <path id="Path_2012" data-name="Path 2012" d="M386.671,67.32H259.432A11.653,11.653,0,0,0,247.76,78.956v176.29a11.653,11.653,0,0,0,11.672,11.628H386.671a11.653,11.653,0,0,0,11.672-11.636V78.956A11.653,11.653,0,0,0,386.671,67.32Z" transform="translate(-196.209 -57.546)" fill="url(#linear-gradient)"/>
  <rect id="Rectangle_3204" data-name="Rectangle 3204" width="146.984" height="195.38" rx="20" transform="translate(53.344 12.165)" fill="#535461"/>
  <rect id="Rectangle_3205" data-name="Rectangle 3205" width="132.048" height="158.418" transform="translate(60.812 30.645)" fill="#f6f7f9"/>
  <circle id="Ellipse_326" data-name="Ellipse 326" cx="1.794" cy="1.794" r="1.794" transform="translate(124.446 19.332)" fill="#f6f7f9"/>
  <circle id="Ellipse_327" data-name="Ellipse 327" cx="5.379" cy="5.379" r="5.379" transform="translate(120.861 192.606)" fill="#f6f7f9"/>
  <g id="Group_6072" data-name="Group 6072" transform="translate(60.812 30.645)" opacity="0.2">
    <rect id="Rectangle_3206" data-name="Rectangle 3206" width="132.048" height="7.895" fill="#6c63ff"/>
  </g>
  <circle id="Ellipse_328" data-name="Ellipse 328" cx="1.684" cy="1.684" r="1.684" transform="translate(63.258 32.909)" fill="#f6f7f9"/>
  <circle id="Ellipse_329" data-name="Ellipse 329" cx="1.684" cy="1.684" r="1.684" transform="translate(67.549 32.909)" fill="#f6f7f9"/>
  <circle id="Ellipse_330" data-name="Ellipse 330" cx="1.684" cy="1.684" r="1.684" transform="translate(71.838 32.909)" fill="#f6f7f9"/>
  <rect id="Rectangle_3207" data-name="Rectangle 3207" width="122.964" height="0.411" transform="translate(64.756 77.214)" fill="#dce0ed"/>
  <rect id="Rectangle_3208" data-name="Rectangle 3208" width="122.964" height="0.411" transform="translate(64.756 86.752)" fill="#dce0ed"/>
  <rect id="Rectangle_3209" data-name="Rectangle 3209" width="122.964" height="0.411" transform="translate(64.756 96.294)" fill="#dce0ed"/>
  <rect id="Rectangle_3210" data-name="Rectangle 3210" width="122.964" height="0.411" transform="translate(64.756 105.832)" fill="#dce0ed"/>
  <rect id="Rectangle_3211" data-name="Rectangle 3211" width="122.964" height="0.411" transform="translate(64.756 115.37)" fill="#dce0ed"/>
  <g id="Group_6073" data-name="Group 6073" transform="translate(64.605 83.033)" opacity="0.2">
    <path id="Path_2013" data-name="Path 2013" d="M359.025,335.928H235.91V317.169l11.291,5.565,11.685,1.586,10.253-3.092,12.37-9.593,6.222-3.593,4.549-.876,4.352.233,7.156,3.536,9.73,6.2,7.635.98,6.052-2.087,12.833-10.508,6.551-2.336,6.855,1.06,5.581,3.223Z" transform="translate(-235.91 -303.18)" fill="#6c63ff"/>
  </g>
  <path id="Path_2014" data-name="Path 2014" d="M316.882,355.779c-11.088,0-21.333-6.781-21.462-6.868l.307-.455c.159.107,15.927,10.538,29.327,5.313,4.886-1.917,8.364-4.869,11.729-7.736,3.514-2.993,6.83-5.82,11.354-7.046a16.983,16.983,0,0,1,15.164,3.407c3.683,3.026,11.017,7.884,18.765,6.433,3.949-.742,7.276-3.626,10.8-6.679,6.756-5.855,13.745-11.91,25.833-3.223l-.32.444c-11.737-8.435-18.557-2.522-25.154,3.193-3.582,3.1-6.964,6.025-11.058,6.8-7.969,1.5-15.456-3.462-19.214-6.548a16.45,16.45,0,0,0-14.673-3.3c-4.4,1.194-7.668,3.982-11.143,6.934-3.4,2.9-6.912,5.891-11.883,7.83a22.927,22.927,0,0,1-8.372,1.5Z" transform="translate(-230.817 -251.612)" fill="#6c63ff"/>
  <circle id="Ellipse_331" data-name="Ellipse 331" cx="3.048" cy="3.048" r="3.048" transform="translate(120.877 83.943)" fill="#6c63ff"/>
  <g id="Group_6074" data-name="Group 6074" transform="translate(124.61 46.657)" opacity="0.2">
    <path id="Path_2015" data-name="Path 2015" d="M553.614,202H515.164a.624.624,0,0,0-.624.624v26a.624.624,0,0,0,1.079.427l6.663-7.107a.622.622,0,0,1,.455-.2h30.877a.624.624,0,0,0,.624-.624V202.619A.624.624,0,0,0,553.614,202Z" transform="translate(-514.54 -202)" fill="#6c63ff"/>
  </g>
  <rect id="Rectangle_3212" data-name="Rectangle 3212" width="21.895" height="2.739" transform="translate(133.51 51.471)" fill="#f6f7f9"/>
  <rect id="Rectangle_3213" data-name="Rectangle 3213" width="6.011" height="2.739" transform="translate(133.51 57.54)" fill="#f6f7f9"/>
  <g id="Group_6075" data-name="Group 6075" transform="translate(75.141 135.378)" opacity="0.2">
    <rect id="Rectangle_3214" data-name="Rectangle 3214" width="6.011" height="2.739" fill="#6c63ff"/>
  </g>
  <g id="Group_6076" data-name="Group 6076" transform="translate(75.141 140.672)" opacity="0.2">
    <rect id="Rectangle_3215" data-name="Rectangle 3215" width="6.011" height="2.739" fill="#6c63ff"/>
  </g>
  <g id="Group_6077" data-name="Group 6077" transform="translate(75.141 145.966)" opacity="0.2">
    <rect id="Rectangle_3216" data-name="Rectangle 3216" width="6.011" height="2.739" fill="#6c63ff"/>
  </g>
  <g id="Group_6078" data-name="Group 6078" transform="translate(75.141 151.262)" opacity="0.2">
    <rect id="Rectangle_3217" data-name="Rectangle 3217" width="6.011" height="2.739" fill="#6c63ff"/>
  </g>
  <g id="Group_6079" data-name="Group 6079" transform="translate(75.141 156.556)" opacity="0.2">
    <rect id="Rectangle_3218" data-name="Rectangle 3218" width="6.011" height="2.739" fill="#6c63ff"/>
  </g>
  <g id="Group_6080" data-name="Group 6080" transform="translate(75.141 161.849)" opacity="0.2">
    <rect id="Rectangle_3219" data-name="Rectangle 3219" width="6.011" height="2.739" fill="#6c63ff"/>
  </g>
  <g id="Group_6081" data-name="Group 6081" transform="translate(75.141 167.146)" opacity="0.2">
    <rect id="Rectangle_3220" data-name="Rectangle 3220" width="6.011" height="2.739" fill="#6c63ff"/>
  </g>
  <g id="Group_6082" data-name="Group 6082" transform="translate(75.141 172.439)" opacity="0.2">
    <rect id="Rectangle_3221" data-name="Rectangle 3221" width="6.011" height="2.739" fill="#6c63ff"/>
  </g>
  <g id="Group_6083" data-name="Group 6083" transform="translate(86.459 175.178)" opacity="0.2">
    <rect id="Rectangle_3222" data-name="Rectangle 3222" width="6.011" height="2.739" fill="#6c63ff"/>
  </g>
  <g id="Group_6084" data-name="Group 6084" transform="translate(97.049 175.178)" opacity="0.2">
    <rect id="Rectangle_3223" data-name="Rectangle 3223" width="6.011" height="2.739" fill="#6c63ff"/>
  </g>
  <g id="Group_6085" data-name="Group 6085" transform="translate(107.639 175.178)" opacity="0.2">
    <rect id="Rectangle_3224" data-name="Rectangle 3224" width="6.011" height="2.739" fill="#6c63ff"/>
  </g>
  <g id="Group_6086" data-name="Group 6086" transform="translate(118.226 175.178)" opacity="0.2">
    <rect id="Rectangle_3225" data-name="Rectangle 3225" width="6.011" height="2.739" fill="#6c63ff"/>
  </g>
  <g id="Group_6087" data-name="Group 6087" transform="translate(128.816 175.178)" opacity="0.2">
    <rect id="Rectangle_3226" data-name="Rectangle 3226" width="6.011" height="2.739" fill="#6c63ff"/>
  </g>
  <g id="Group_6088" data-name="Group 6088" transform="translate(139.406 175.178)" opacity="0.2">
    <rect id="Rectangle_3227" data-name="Rectangle 3227" width="6.011" height="2.739" fill="#6c63ff"/>
  </g>
  <g id="Group_6089" data-name="Group 6089" transform="translate(149.994 175.178)" opacity="0.2">
    <rect id="Rectangle_3228" data-name="Rectangle 3228" width="6.011" height="2.739" fill="#6c63ff"/>
  </g>
  <g id="Group_6090" data-name="Group 6090" transform="translate(160.584 175.178)" opacity="0.2">
    <rect id="Rectangle_3229" data-name="Rectangle 3229" width="6.011" height="2.739" fill="#6c63ff"/>
  </g>
  <g id="Group_6091" data-name="Group 6091" transform="translate(171.174 175.178)" opacity="0.2">
    <rect id="Rectangle_3230" data-name="Rectangle 3230" width="6.011" height="2.739" fill="#6c63ff"/>
  </g>
  <rect id="Rectangle_3231" data-name="Rectangle 3231" width="9.128" height="2.739" transform="translate(146.278 57.54)" fill="#f6f7f9"/>
  <rect id="Rectangle_3232" data-name="Rectangle 3232" width="6.011" height="17.163" transform="translate(86.459 155.277)" fill="#6c63ff"/>
  <rect id="Rectangle_3233" data-name="Rectangle 3233" width="6.011" height="25.104" transform="translate(97.049 147.335)" fill="#6c63ff"/>
  <rect id="Rectangle_3234" data-name="Rectangle 3234" width="6.011" height="31.767" transform="translate(107.639 140.672)" fill="#6c63ff"/>
  <rect id="Rectangle_3235" data-name="Rectangle 3235" width="6.011" height="28.311" transform="translate(118.226 144.125)" fill="#6c63ff"/>
  <rect id="Rectangle_3236" data-name="Rectangle 3236" width="6.011" height="34.322" transform="translate(128.816 138.117)" fill="#6c63ff"/>
  <g id="Group_6092" data-name="Group 6092" transform="translate(139.406 151.262)" opacity="0.2">
    <rect id="Rectangle_3237" data-name="Rectangle 3237" width="6.011" height="21.177" fill="#6c63ff"/>
  </g>
  <g id="Group_6093" data-name="Group 6093" transform="translate(149.994 151.262)" opacity="0.2">
    <rect id="Rectangle_3238" data-name="Rectangle 3238" width="6.011" height="21.177" fill="#6c63ff"/>
  </g>
  <g id="Group_6094" data-name="Group 6094" transform="translate(160.584 151.262)" opacity="0.2">
    <rect id="Rectangle_3239" data-name="Rectangle 3239" width="6.011" height="21.177" fill="#6c63ff"/>
  </g>
  <g id="Group_6095" data-name="Group 6095" transform="translate(171.174 151.262)" opacity="0.2">
    <rect id="Rectangle_3240" data-name="Rectangle 3240" width="6.011" height="21.177" fill="#6c63ff"/>
  </g>
  <path id="Path_2016" data-name="Path 2016" d="M892.836,212.453a75.194,75.194,0,0,0-8.982-4.677l-.131-.1a5.439,5.439,0,0,1-1.643-2.073v-.4c.1-1.983,1.514-3.787,2.854-5.362l3.42-4.026a3.907,3.907,0,0,0,.882-1.4,3.12,3.12,0,0,0,.093-.857v-.351c-.016-1-.047-2-.082-3.012-.033-.874-.257-1.974-1.131-2.155-.455-.093-1.054.071-1.3-.32a.745.745,0,0,1-.057-.518.225.225,0,0,0,0,.041V187.2a11.6,11.6,0,0,0,.326-2.057,2.86,2.86,0,0,0-.142-1.041c-.507-1.451-2.248-2.046-3.79-2.32s-3.267-.509-4.234-1.714a12.612,12.612,0,0,0-.841-1.158,3.338,3.338,0,0,0-1.575-.778,8.9,8.9,0,0,0-5.729.5,5.156,5.156,0,0,1-2.309.731c-.816-.049-1.575-.638-2.413-.78a3.441,3.441,0,0,0-3.314,1.939,4.734,4.734,0,0,0-.613,2.289c0,.044,0,.09,0,.134h0a3.339,3.339,0,0,0,.879,2.336c.583.605,1.454,1.021,1.7,1.818.1.323.074.674.162,1a.386.386,0,0,0,.038.12l-.044.058a10.147,10.147,0,0,0-2.147,6.266A10.379,10.379,0,0,0,870,204.386v.307a4.407,4.407,0,0,1-1.416,3.445l-9.218,3.708s-5.557-.66-7.561,7.463a13.727,13.727,0,0,0-.345,4.122,12.082,12.082,0,0,1-1.52,6.173c-2.281,4.464-1.761,14.712,2.9,15.728,4.4.958,6.123.548,6.3.512v.178c-.071,1.917-.769,18.51-3.308,20.517-.7.548-.57.931,0,1.183,0,0,0,.107-.016.3-.077,1.213-.468,5.833-2.166,8.462-1.969,3.043-1.764,20.6-1.764,20.6l-1.323,10.36s.822,6.392,0,7.509c-.739.994-1.725,24.647-1.917,29.771h-.088a2.489,2.489,0,0,0-1.991,1.213c-1.1,1.769-4.9,5.036-4.9,5.036-.822,1.175-3.886,2.3-5.5,2.829a3.342,3.342,0,0,0-.624.274,3.287,3.287,0,0,0-1.388,1.462,1.583,1.583,0,0,0-.151,1.221c.416,1.013,9.015,1.723,11.19.709,1.712-.8,8.49-1.849,11.3-2.259a2.325,2.325,0,0,0,2.013-2.01,1.329,1.329,0,0,0-.274-1.008h0a8.857,8.857,0,0,1-.939-3.678,2.429,2.429,0,0,0,.633-.375,26.983,26.983,0,0,1,1.553-10.856c2.073-5.477,2.695-15.629,2.191-22.223,0,0,6.321-27.194,11.294-29.733h0c.077.1,2.489,3.2,2.8,12.784a38.8,38.8,0,0,0,3.834,16.133s-1.555,16.541,0,22.73l-2.035,9.766c-.148-.129-.244-.227-.244-.227s.06.274.145.707l-.044.205.088.022a19.255,19.255,0,0,1,.433,4.6c-.082.709-.274,1.684-.416,2.64-.214,1.5-.274,2.96.518,3.286,1.3.52,8.911,1.232,10.207-.441a2.4,2.4,0,0,0,.378-2.509,2.564,2.564,0,0,0-.378-.638s-2.021-3.305-1.451-5.636a1.7,1.7,0,0,0-.241-1.339,68.156,68.156,0,0,1,1.744-10.935c1.3-4.883,4.031-15.588,2.018-22.629h0c-.077-.274-.164-.548-.257-.822a30.337,30.337,0,0,1-1.139-11.872,24.179,24.179,0,0,1,0-10.352c1.243-5.682,2.111-11.264,2.111-11.264a71.093,71.093,0,0,0,.088-12.11l-.041-.3.329-.074s-1.761-7.813-2.383-12.784c-.148-1.175-.34-2.662-.548-4.25a10.3,10.3,0,0,0,1.69-.419c5.576-1.936,7.328-19.386,7.328-19.386v-5.532S899.365,216.208,892.836,212.453ZM851.155,347.21c-.172-.088-.274-.145-.274-.145h0Z" transform="translate(-621.861 -137.822)" fill="url(#linear-gradient-2)"/>
  <path id="Path_2017" data-name="Path 2017" d="M929.44,540.409c2.426,6.978-.405,18.3-1.72,23.357A70.708,70.708,0,0,0,926,574.893a23.407,23.407,0,0,1-8.9-.205l2.122-10.407c-1.517-6.167,0-22.651,0-22.651a39.292,39.292,0,0,1-3.741-16.078c-.3-9.558-2.654-12.644-2.739-12.74h0c-4.853,2.528-11.023,29.631-11.023,29.631.507,6.573-.1,16.683-2.122,22.144a27.441,27.441,0,0,0-1.517,10.82,3.338,3.338,0,0,1-2.752.529c-2.878-.479-6.332-2.966-6.332-2.966s1.1-29.524,1.917-30.639,0-7.485,0-7.485l1.312-10.313s-.2-17.5,1.72-20.539c1.66-2.621,2.04-7.224,2.114-8.432a2.173,2.173,0,0,1,.016-.3L899,491.759s28.317-2.122,30.439,0a6.055,6.055,0,0,1,1.035,3.2,72.612,72.612,0,0,1-.085,12.069s-.849,5.562-2.062,11.228a24.531,24.531,0,0,0,0,10.313A30.816,30.816,0,0,0,929.44,540.409Z" transform="translate(-661.842 -365.065)" fill="#65617d"/>
  <path id="Path_2018" data-name="Path 2018" d="M1001.919,800.678c-1.265,1.668-8.7.958-9.963.441-.772-.32-.712-1.772-.5-3.27.131-.953.326-1.917.405-2.632a24.157,24.157,0,0,0-.608-5.513s1.671,1.769,2.073,0a1.931,1.931,0,0,1,1.443-1.369,3.793,3.793,0,0,1,2.626.164c1.312.57,3.505,1.786,3.111,3.429-.548,2.322,1.416,5.617,1.416,5.617a2.565,2.565,0,0,1,.367.635A2.432,2.432,0,0,1,1001.919,800.678Z" transform="translate(-736.09 -580.99)" fill="#a27772"/>
  <path id="Path_2019" data-name="Path 2019" d="M1002.1,826.329c-1.265,1.668-8.7.959-9.963.441-.772-.32-.712-1.772-.5-3.27a8.6,8.6,0,0,0,4.417.474,12.868,12.868,0,0,1,1.591-.049,36.715,36.715,0,0,0,4.825-.1A2.432,2.432,0,0,1,1002.1,826.329Z" transform="translate(-736.268 -606.641)" opacity="0.1"/>
  <path id="Path_2020" data-name="Path 2020" d="M918.542,595.576c.507,6.573-.1,16.683-2.122,22.144a27.445,27.445,0,0,0-1.517,10.82,3.337,3.337,0,0,1-2.752.529c.611-4.272,3.21-22.643,4.888-37.16A60.682,60.682,0,0,1,927.8,564l1.769,1.947C924.706,568.472,918.542,595.576,918.542,595.576Z" transform="translate(-678.652 -418.207)" opacity="0.1"/>
  <path id="Path_2021" data-name="Path 2021" d="M964.493,259l-1.235,6.066-6.047,10.163-7.457-3.185s-10.133-10.617-3.766-12.135a5.584,5.584,0,0,0,2.114-.942,4.344,4.344,0,0,0,1.643-3.656,11.433,11.433,0,0,0-1.035-4.352l13.044-4.108a20.832,20.832,0,0,0-.937,5.285c-.1,3.56,1.221,5.3,2.3,6.137A3.955,3.955,0,0,0,964.493,259Z" transform="translate(-701.697 -187.91)" fill="#fbbebe"/>
  <path id="Path_2022" data-name="Path 2022" d="M974.574,246.9a20.837,20.837,0,0,0-.937,5.285,9.549,9.549,0,0,1-.759.805,10.316,10.316,0,0,1-10.313,2.355,11.433,11.433,0,0,0-1.035-4.352Z" transform="translate(-714.509 -187.947)" opacity="0.1"/>
  <path id="Path_2023" data-name="Path 2023" d="M959.927,213.456a10.27,10.27,0,1,1-3-7.3A10.313,10.313,0,0,1,959.927,213.456Z" transform="translate(-698.367 -156.171)" fill="#fbbebe"/>
  <path id="Path_2024" data-name="Path 2024" d="M964.493,289.322l-1.235,6.066-6.047,10.163-7.457-3.185s-10.133-10.617-3.766-12.135a5.583,5.583,0,0,0,2.114-.942c-1.15,3.163,3.6,9.741,3.6,9.741.548.822,1.821.3,1.821.3,3.056-.46,8.689-9.259,9.607-10.721A3.954,3.954,0,0,0,964.493,289.322Z" transform="translate(-701.697 -218.234)" opacity="0.1"/>
  <path id="Path_2025" data-name="Path 2025" d="M949.2,495.018c-1.794.408-11.729,2.61-15.5,2.059-4.143-.608-12.206-1.011-12.206-1.011s-5.132.274-6.712-.444a2.181,2.181,0,0,1,.016-.3l2.925-3.505s28.317-2.122,30.439,0A6.02,6.02,0,0,1,949.2,495.018Z" transform="translate(-680.562 -365.108)" opacity="0.1"/>
  <path id="Path_2026" data-name="Path 2026" d="M911.872,299.615s-5.335-7.394-3.325-10.267l-9.013,3.694s-5.425-.657-7.394,7.438a14,14,0,0,0-.337,4.108,12.242,12.242,0,0,1-1.484,6.151c-2.226,4.45-1.72,14.662,2.832,15.676s6.167.5,6.167.5-.605,18.507-3.234,20.63,6.7,1.618,6.7,1.618,8.062.405,12.209,1.011,15.774-2.122,15.774-2.122-1.72-7.788-2.325-12.743-2.024-15.506-2.024-15.506l10.316-13.967s1.818-8.443-4.552-12.184A71.861,71.861,0,0,0,923.42,289s-6.392,10.407-9.727,10.919C913.693,299.919,912.425,300.428,911.872,299.615Z" transform="translate(-661.868 -218.517)" fill="#7c7cdd"/>
  <path id="Path_2027" data-name="Path 2027" d="M924.66,338.47s-.1,3.338.5,4.656,2.832,8.6,2.832,8.6H922.94s2.739-2.933,2.528-4.349S924.66,338.47,924.66,338.47Z" transform="translate(-686.487 -254.44)" opacity="0.1"/>
  <path id="Path_2028" data-name="Path 2028" d="M941.122,392.835s-11.168-2.739-12.209-5.058S925,380.248,925,380.248l1.178-1.588,5.433,4.264s6.471,5.157,9.506,5.663S941.122,392.835,941.122,392.835Z" transform="translate(-687.983 -283.624)" fill="#fbbebe"/>
  <path id="Path_2029" data-name="Path 2029" d="M941.122,392.835s-11.168-2.739-12.209-5.058S925,380.248,925,380.248l1.178-1.588,5.433,4.264s6.471,5.157,9.506,5.663S941.122,392.835,941.122,392.835Z" transform="translate(-687.983 -283.624)" opacity="0.05"/>
  <path id="Path_2030" data-name="Path 2030" d="M965.635,382.283v6.058h-.975a28.35,28.35,0,0,0-13.746,3.557l-1.829,1.016-.49.274-3.136-7.06,2.933-2.629h.151c.717.068,3.82.329,5.135-.115,1.249-.424,2.8-1.769,6.477-.822,1.813.463,3.36,2.495,5.118,1.859Z" transform="translate(-702.84 -286.217)" fill="#fbbebe"/>
  <path id="Path_2031" data-name="Path 2031" d="M996.375,323.925,998.4,326.2v5.513s-1.72,17.393-7.18,19.315-15.207-1.115-15.207-1.115-2.519-6.674-1.342-7.076,10.406-2.843,10.406-2.843-.129-10.2,1.892-13.238c0,0-1.314-9.5,3.237-9.705S996.375,323.925,996.375,323.925Z" transform="translate(-723.822 -238.882)" opacity="0.1"/>
  <path id="Path_2032" data-name="Path 2032" d="M997.455,323.925l2.024,2.273v5.513s-1.714,17.393-7.191,19.315-15.21-1.115-15.21-1.115-2.517-6.674-1.339-7.076,10.407-2.843,10.407-2.843-.131-10.2,1.892-13.238c0,0-1.315-9.5,3.237-9.705S997.455,323.925,997.455,323.925Z" transform="translate(-724.598 -238.882)" fill="#7c7cdd"/>
  <path id="Path_2033" data-name="Path 2033" d="M962.689,217.843a4.014,4.014,0,0,0-.23-1.969,1.525,1.525,0,0,0-1.6-.926c-.865.2-1.238,1.328-2.087,1.6a1.643,1.643,0,0,1-1.835-.948,4.851,4.851,0,0,1-.353-2.191v-2.533a4.18,4.18,0,0,0-.6-2.634,4.645,4.645,0,0,0-3.467-1.257,2.936,2.936,0,0,0-1.98.8,2.555,2.555,0,0,1-2.084.739A1.8,1.8,0,0,1,947,207.269v-.033a10.313,10.313,0,1,1,15.336,13.693A27.552,27.552,0,0,0,962.689,217.843Z" transform="translate(-703.958 -156.176)" opacity="0.1"/>
  <path id="Path_2034" data-name="Path 2034" d="M941.372,191.511a1.8,1.8,0,0,1-1.452-1.257c-.085-.326-.063-.674-.159-1-.235-.794-1.1-1.208-1.643-1.81a4.067,4.067,0,0,1-.257-4.656,3.355,3.355,0,0,1,3.234-1.933c.822.142,1.525.726,2.355.778a4.8,4.8,0,0,0,2.254-.728,8.49,8.49,0,0,1,5.589-.5,3.251,3.251,0,0,1,1.539.775,13.7,13.7,0,0,1,.822,1.153c.945,1.2,2.632,1.438,4.135,1.709s3.2.865,3.7,2.311a6.089,6.089,0,0,1-.178,3,.865.865,0,0,0,.038.616c.235.389.822.227,1.265.32.854.178,1.073,1.276,1.1,2.147q.055,1.5.082,2.991a2.939,2.939,0,0,1-.95,2.5L959.5,201.94c-1.482,1.78-3.054,3.853-2.755,6.148a1.427,1.427,0,0,1-1.764-1.027,4.6,4.6,0,0,1,.11-2.276,27.879,27.879,0,0,0,.529-3.949,4.012,4.012,0,0,0-.23-1.969,1.51,1.51,0,0,0-1.6-.928c-.865.2-1.238,1.328-2.087,1.6a1.644,1.644,0,0,1-1.835-.948,4.851,4.851,0,0,1-.353-2.191v-2.536a4.184,4.184,0,0,0-.6-2.635,4.645,4.645,0,0,0-3.467-1.257,2.941,2.941,0,0,0-1.98.8A2.6,2.6,0,0,1,941.372,191.511Z" transform="translate(-696.884 -139.476)" fill="#7c5c5c"/>
  <path id="Path_2035" data-name="Path 2035" d="M960.79,337.55l3.166,13.008S966.453,350.544,960.79,337.55Z" transform="translate(-713.972 -253.772)" opacity="0.1"/>
  <path id="Path_2036" data-name="Path 2036" d="M992.6,329.61s-4.146,6.792-2.528,13.811l.772.057S989.468,340.227,992.6,329.61Z" transform="translate(-734.965 -248.006)" opacity="0.1"/>
  <path id="Path_2037" data-name="Path 2037" d="M1009.9,468.973s5.091-1.684,5.461,2.224C1015.361,471.2,1014.4,468.518,1009.9,468.973Z" transform="translate(-749.633 -348.942)" opacity="0.1"/>
  <path id="Path_2038" data-name="Path 2038" d="M933.115,388s-1.01,7.079.822,9.911a22.2,22.2,0,0,1-8.9,1.213L924.42,388Z" transform="translate(-687.562 -290.406)" opacity="0.1"/>
  <path id="Path_2039" data-name="Path 2039" d="M949.086,396.265l-.49.274-3.136-7.06,2.933-2.629h.151C948.5,387.19,947.681,393.269,949.086,396.265Z" transform="translate(-702.84 -289.571)" opacity="0.1"/>
  <path id="Path_2040" data-name="Path 2040" d="M925.367,386.85s-1.01,7.076.822,9.908a22.2,22.2,0,0,1-8.9,1.213L913.75,386.85Z" transform="translate(-679.814 -289.571)" fill="#7c7cdd"/>
  <path id="Path_2041" data-name="Path 2041" d="M860.659,795.695a2.287,2.287,0,0,1-1.964,2c-2.739.411-9.36,1.457-11.031,2.251-2.122,1.011-10.516.3-10.921-.707a1.6,1.6,0,0,1,.145-1.216,3.262,3.262,0,0,1,1.369-1.46,3.363,3.363,0,0,1,.608-.274c1.58-.529,4.565-1.643,5.373-2.821,0,0,3.722-3.256,4.782-5.017a2.435,2.435,0,0,1,1.944-1.21c.887-.041,1.873.405,2.276,2.347,0,0,4.853,2.769,6.165.34,0,0,.2,3.73,1.008,4.749h0A1.353,1.353,0,0,1,860.659,795.695Z" transform="translate(-623.852 -580.312)" fill="#a27772"/>
  <path id="Path_2042" data-name="Path 2042" d="M860.659,815.431a2.287,2.287,0,0,1-1.964,2c-2.739.411-9.36,1.457-11.031,2.251-2.122,1.011-10.516.3-10.921-.707a1.6,1.6,0,0,1,.145-1.216,3.262,3.262,0,0,1,1.369-1.46c1.369.909,4.406,1.8,11.088.753,6.373-.994,9.527-1.969,11.066-2.634h0a1.352,1.352,0,0,1,.246,1.01Z" transform="translate(-623.852 -600.048)" opacity="0.1"/>
  <g id="Group_6096" data-name="Group 6096" transform="translate(240.374 45.477)" opacity="0.1">
    <path id="Path_2043" data-name="Path 2043" d="M1024.924,208.077v-.049a9.36,9.36,0,0,0,.312-2.3,14.737,14.737,0,0,1-.312,1.843A1.122,1.122,0,0,0,1024.924,208.077Z" transform="translate(-1000.895 -203.528)"/>
    <path id="Path_2044" data-name="Path 2044" d="M955.383,211.7a2.979,2.979,0,0,1,.249,1.156,3.446,3.446,0,0,0-.249-1.61,1.509,1.509,0,0,0-1.6-.928c-.865.2-1.238,1.328-2.087,1.6a1.648,1.648,0,0,1-1.838-.948,4.811,4.811,0,0,1-.351-2.191v-2.536a4.184,4.184,0,0,0-.6-2.634,4.649,4.649,0,0,0-3.467-1.257,2.936,2.936,0,0,0-1.98.8,2.56,2.56,0,0,1-2.084.742,1.8,1.8,0,0,1-1.451-1.257c-.085-.326-.063-.674-.159-1-.238-.794-1.1-1.208-1.643-1.81a3.286,3.286,0,0,1-.852-2.139,3.445,3.445,0,0,0,.852,2.593c.57.6,1.416,1.019,1.643,1.813.1.323.074.671.159,1a1.8,1.8,0,0,0,1.451,1.257,2.544,2.544,0,0,0,2.084-.742,2.936,2.936,0,0,1,1.98-.8,4.671,4.671,0,0,1,3.467,1.257,4.21,4.21,0,0,1,.6,2.635v2.536a4.62,4.62,0,0,0,.351,2.191,1.669,1.669,0,0,0,1.838.948c.849-.274,1.221-1.4,2.087-1.6A1.513,1.513,0,0,1,955.383,211.7Z" transform="translate(-937.259 -197.69)"/>
    <path id="Path_2045" data-name="Path 2045" d="M1015.258,236.991a3.879,3.879,0,0,1-.86,1.391q-1.668,2.007-3.338,4.012c-1.4,1.69-2.895,3.645-2.785,5.8.1-1.977,1.479-3.776,2.785-5.346l3.338-4.009a3.916,3.916,0,0,0,.86-1.394,3.762,3.762,0,0,0,.088-1.1,2.633,2.633,0,0,1-.088.641Z" transform="translate(-988.823 -225.763)"/>
    <path id="Path_2046" data-name="Path 2046" d="M1001.712,275.668a2.4,2.4,0,0,1-.1-.548,2.739,2.739,0,0,0,.1,1,1.428,1.428,0,0,0,1.766,1.024c-.019-.148-.03-.3-.036-.444A1.414,1.414,0,0,1,1001.712,275.668Z" transform="translate(-983.982 -253.915)"/>
  </g>
  <path id="Path_2047" data-name="Path 2047" d="M879.26,795s1.057,1.859,4.886.222" transform="translate(-654.769 -585.946)" opacity="0.1"/>
  <path id="Path_2048" data-name="Path 2048" d="M997.5,796.67s3.3,3.889,7.465,1.273" transform="translate(-740.628 -587.159)" opacity="0.1"/>
  <path id="Path_2049" data-name="Path 2049" d="M1026.212,628.7s-2.336,1.46-2.41,2.295,1.2-.608,1.2-.608Z" transform="translate(-759.725 -465.189)" opacity="0.1"/>
  <path id="Path_2050" data-name="Path 2050" d="M1024.89,669.53a4.877,4.877,0,0,1-2.875,1.123c-1.745.077-1.6,2.352-.46,1.668A29.092,29.092,0,0,0,1024.89,669.53Z" transform="translate(-757.474 -494.837)" opacity="0.1"/>
  <path id="Path_2051" data-name="Path 2051" d="M1032.209,674.86s-1.12,5.5-2.029,4.442" transform="translate(-764.359 -498.707)" opacity="0.1"/>
  <path id="Path_2052" data-name="Path 2052" d="M185.291,768.36s1.5,1.966-.7,4.929-4.012,5.477-3.286,7.328c0,0,3.316-5.515,6.025-5.592S188.262,771.676,185.291,768.36Z" transform="translate(-147.838 -566.602)" fill="#6c63ff"/>
  <path id="Path_2053" data-name="Path 2053" d="M185.533,768.36a2.363,2.363,0,0,1,.307.616c2.634,3.095,4.039,5.984,1.506,6.058-2.358.066-5.2,4.286-5.866,5.351a2.479,2.479,0,0,0,.079.241s3.316-5.516,6.025-5.592S188.5,771.676,185.533,768.36Z" transform="translate(-148.081 -566.602)" opacity="0.1"/>
  <path id="Path_2054" data-name="Path 2054" d="M205.568,776.338c0,.693-.077,1.254-.173,1.254s-.175-.561-.175-1.254.1-.364.194-.364S205.568,775.65,205.568,776.338Z" transform="translate(-165.319 -572.074)" fill="#ffd037"/>
  <path id="Path_2055" data-name="Path 2055" d="M206.847,779.275c-.608.331-1.139.531-1.186.449s.411-.422,1.019-.753.367-.09.414,0S207.455,778.943,206.847,779.275Z" transform="translate(-165.637 -574.183)" fill="#ffd037"/>
  <path id="Path_2056" data-name="Path 2056" d="M158.3,768.36s-1.5,1.966.7,4.929,4.012,5.477,3.286,7.328c0,0-3.316-5.515-6.025-5.592S155.334,771.676,158.3,768.36Z" transform="translate(-128.797 -566.602)" fill="#6c63ff"/>
  <path id="Path_2057" data-name="Path 2057" d="M158.287,768.36a2.464,2.464,0,0,0-.307.616c-2.635,3.095-4.039,5.984-1.506,6.058,2.361.066,5.2,4.286,5.866,5.351a1.916,1.916,0,0,1-.079.241s-3.316-5.516-6.025-5.592S155.318,771.676,158.287,768.36Z" transform="translate(-128.782 -566.602)" opacity="0.1"/>
  <path id="Path_2058" data-name="Path 2058" d="M157.05,776.338c0,.693.077,1.254.173,1.254s.175-.561.175-1.254-.1-.364-.194-.364S157.05,775.65,157.05,776.338Z" transform="translate(-130.341 -572.074)" fill="#ffd037"/>
  <path id="Path_2059" data-name="Path 2059" d="M152.567,779.275c.608.331,1.137.531,1.183.449s-.411-.422-1.019-.753-.367-.09-.414,0S151.959,778.943,152.567,779.275Z" transform="translate(-126.817 -574.183)" fill="#ffd037"/>
  <path id="Path_2060" data-name="Path 2060" d="M158.8,806.184s4.206-.129,5.477-1.032,6.468-1.98,6.783-.531,6.321,7.2,1.572,7.238-11.034-.739-12.3-1.512S158.8,806.184,158.8,806.184Z" transform="translate(-131.612 -592.417)" fill="#a8a8a8"/>
  <path id="Path_2061" data-name="Path 2061" d="M172.715,817.366c-4.749.038-11.034-.739-12.3-1.512-.964-.586-1.347-2.692-1.476-3.664h-.14s.274,3.393,1.531,4.163,7.55,1.55,12.3,1.512c1.369,0,1.846-.5,1.818-1.221C174.259,817.084,173.736,817.358,172.715,817.366Z" transform="translate(-131.612 -598.429)" opacity="0.2"/>
</svg>
