<svg id="_006-statistics" data-name="006-statistics" xmlns="http://www.w3.org/2000/svg" width="31.781" height="31.634" viewBox="0 0 31.781 31.634">
  <g id="Group_6049" data-name="Group 6049">
    <path id="Path_1908" data-name="Path 1908" d="M31.536,28.113l-.453-.451a.467.467,0,0,0-.658,0,.462.462,0,0,0,0,.655l.388.386-1.975,1.966-3.358-3.342,1.975-1.966L29.02,26.92a.467.467,0,0,0,.658,0,.462.462,0,0,0,0-.655l-1.895-1.886h0l-1.317-1.311h0L25.3,21.909a.841.841,0,0,0-1.185,0l-.066.066-1.666-1.659a12.446,12.446,0,0,0,2.468-5.153h3.28a.463.463,0,1,0,0-.927H25.019q.062-.442.092-.893h5.243a.463.463,0,1,0,0-.927H25.138q0-.45-.038-.894h3.034a.463.463,0,1,0,0-.927h-3.14a12.332,12.332,0,0,0-2.564-5.844.467.467,0,0,0-.654-.076.462.462,0,0,0-.076.651,11.43,11.43,0,0,1,2.508,7.184A11.613,11.613,0,1,1,20.4,3.936a.467.467,0,0,0,.658-.031.462.462,0,0,0-.031-.655A12.537,12.537,0,1,0,10.195,24.8v3.126a.466.466,0,0,0,.931,0V24.94q.444.051.9.07V30.1a.466.466,0,0,0,.931,0V25.017q.453-.014.9-.058v2.966a.466.466,0,0,0,.931,0v-3.1a12.547,12.547,0,0,0,5.627-2.546l1.666,1.658-.066.065a.831.831,0,0,0,0,1.18l1.162,1.157h0l1.317,1.311h0l3.752,3.734a.841.841,0,0,0,1.185,0l2.107-2.1a.831.831,0,0,0,0-1.18ZM21.776,21.02l1.617,1.61-.658.655-1.618-1.61q.341-.316.659-.656Zm3.044,5.651-.658-.655,1.975-1.966.658.655Zm-.11-4.041.768.765L23.5,25.361l-.768-.765Z" transform="translate(0)" fill="#f15928"/>
    <path id="Path_1909" data-name="Path 1909" d="M34.215,49.23A10.92,10.92,0,0,0,40.7,51.415,10.708,10.708,0,0,0,40.7,30a10.581,10.581,0,0,0-7.546,3.14A10.818,10.818,0,0,0,29.991,40.7a10.465,10.465,0,0,0,2.694,7.126.466.466,0,0,0,.692-.623,9.536,9.536,0,0,1-2.455-6.494,9.891,9.891,0,0,1,2.89-6.915A9.656,9.656,0,0,1,40.7,30.931,9.777,9.777,0,0,1,40.7,50.484a9.992,9.992,0,0,1-5.929-2,.466.466,0,0,0-.559.744Z" transform="translate(-28.129 -28.138)" fill="#f15928"/>
    <path id="Path_1910" data-name="Path 1910" d="M98.717,68.5H95.489a.715.715,0,0,0-.714.714v1.645H91.764a.715.715,0,0,0-.714.714v5h-.623a.466.466,0,1,0,0,.931h13.35a.466.466,0,1,0,0-.931h-.623V73.931a.715.715,0,0,0-.714-.714H99.43v-4A.715.715,0,0,0,98.717,68.5Zm-6.735,3.29h2.793v4.78H91.982Zm3.724-2.359H98.5v7.138H95.706Zm6.518,4.718v2.421H99.43V74.149Z" transform="translate(-84.378 -64.248)" fill="#f15928"/>
    <path id="Path_1911" data-name="Path 1911" d="M126.123,234.123h-2.192l-1-2.545a.466.466,0,0,0-.87.008l-1.361,3.669-.951-2.7a.466.466,0,0,0-.846-.072L118,234.123H115.81a.466.466,0,1,0,0,.931h2.459a.466.466,0,0,0,.407-.239l.544-.974,1.036,2.937a.466.466,0,0,0,.435.311h0a.465.465,0,0,0,.436-.3l1.383-3.73.666,1.7a.466.466,0,0,0,.434.3h2.51a.466.466,0,1,0,0-.931Z" transform="translate(-108.184 -217.007)" fill="#f15928"/>
  </g>
</svg>
