<svg id="_002-three" data-name="002-three" xmlns="http://www.w3.org/2000/svg" width="37.396" height="35.828" viewBox="0 0 37.396 35.828">
  <g id="Group_6048" data-name="Group 6048">
    <path id="Path_1901" data-name="Path 1901" d="M18.769,12.087A12.052,12.052,0,1,0,30.821,24.14,12.066,12.066,0,0,0,18.769,12.087Zm0,21.978a9.924,9.924,0,1,1,9.924-9.924A9.935,9.935,0,0,1,18.769,34.065Z" transform="translate(-0.069 -0.364)" fill="#f15928"/>
    <path id="Path_1902" data-name="Path 1902" d="M23.749,16.831A8.775,8.775,0,0,0,21.8,15.85,9.883,9.883,0,0,1,9.992,23.225a9.164,9.164,0,0,0-.054.953,8.446,8.446,0,0,0,.1,1.225,12.038,12.038,0,0,0,13.714-8.573Z" transform="translate(-0.102 -0.867)" fill="#f15928"/>
    <path id="Path_1903" data-name="Path 1903" d="M2.128,13.4a9.922,9.922,0,0,1,19.615-2.12,13.07,13.07,0,0,1,2.287.775A12.052,12.052,0,1,0,5.594,23.564,12.893,12.893,0,0,1,5.9,21.17,9.91,9.91,0,0,1,2.128,13.4Z" transform="translate(0 -1.344)" fill="#f15928"/>
    <path id="Path_1904" data-name="Path 1904" d="M15.794,11.318a9.9,9.9,0,0,1,2.287-4.472,8.928,8.928,0,0,0-1.748-1.22,12.021,12.021,0,0,0-2.824,6.468A13.041,13.041,0,0,1,15.794,11.318Z" transform="translate(-0.139 -1.388)" fill="#f15928"/>
    <path id="Path_1905" data-name="Path 1905" d="M25.55,1.344a11.959,11.959,0,0,0-5.63,1.409,13.057,13.057,0,0,1,1.753,1.515,9.833,9.833,0,0,1,3.878-.8,9.915,9.915,0,0,1,6.149,17.7,13.074,13.074,0,0,1,.309,2.394A12.046,12.046,0,0,0,25.55,1.344Z" transform="translate(-0.205 -1.344)" fill="#f15928"/>
    <path id="Path_1906" data-name="Path 1906" d="M18.1,20.15a9.934,9.934,0,0,1-2.254-4.3,9.012,9.012,0,0,0-1.949.98,12.031,12.031,0,0,0,2.453,4.544A8.907,8.907,0,0,0,18.1,20.15Z" transform="translate(-0.143 -0.957)" fill="#f15928"/>
    <path id="Path_1907" data-name="Path 1907" d="M21.66,22.736a13.132,13.132,0,0,1-1.767,1.513,11.987,11.987,0,0,0,7.78,1.227,8.184,8.184,0,0,0,.1-1.224,8.429,8.429,0,0,0-.056-.954,9.76,9.76,0,0,1-6.056-.562Z" transform="translate(-0.205 -0.838)" fill="#f15928"/>
  </g>
</svg>
