<svg xmlns="http://www.w3.org/2000/svg" width="35.816" height="42.779" viewBox="0 0 35.816 42.779">
  <g id="point" transform="translate(-42.166 0.5)">
    <g id="Group_5261" data-name="Group 5261" transform="translate(42.666)">
      <path id="Path_3537" data-name="Path 3537" d="M74,15.667a3.461,3.461,0,0,0-1.763.48,3.476,3.476,0,0,0-5.7-2.271,3.478,3.478,0,0,0-4.725-1.223V3.482a3.482,3.482,0,1,0-6.963,0v23.3a.871.871,0,0,1-1.26.779L48,24.761a3.687,3.687,0,0,0-5.336,3.3v.665a.873.873,0,0,0,.276.637l10.046,9.376a11.283,11.283,0,0,0,7.721,3.043h5.458A11.328,11.328,0,0,0,77.482,30.464V19.149A3.485,3.485,0,0,0,74,15.667Z" transform="translate(-42.666)" fill="#ff9c39" stroke="#42526e" stroke-width="1"/>
    </g>
  </g>
</svg>
