<svg xmlns="http://www.w3.org/2000/svg" width="305.357" height="309.593" viewBox="0 0 305.357 309.593"><defs><style>.a{opacity:0.093;}.b{fill:#121f8d;}</style></defs><g class="a" transform="translate(37.69 -0.753) rotate(9)"><g transform="translate(4.809 0)"><path class="b" d="M270.064,18.455a3.993,3.993,0,0,0-2.715-1.406l-59.042-5.043L207.238,3.5A4,4,0,0,0,202.776.032L148.006,6.918a3.975,3.975,0,0,0-.667-.118L72.058.37a4.033,4.033,0,0,0-4.32,3.64L66.616,17.15,8.3,24.481a4.035,4.035,0,0,0-3.465,4.461L34.6,265.69c.135,1.08-.1,2.117.345,3.162a4.032,4.032,0,0,0,3.681,2.439h196a3.994,3.994,0,0,0,3.995-3.995v-5.2l7.737.661a4.034,4.034,0,0,0,4.32-3.64L270.989,21.37A3.993,3.993,0,0,0,270.064,18.455ZM34.635,201.891,13.265,31.909l21.37-2.686ZM75.358,8.67l34.96,2.986-35.6,4.476Zm124.451-.212,2.041,16.233H70.682Zm43.253,246-4.437-.379V137.339a3.995,3.995,0,1,0-7.989,0V263.3H42.624V32.68H230.638V118.7a3.995,3.995,0,1,0,7.989,0V28.685a3.994,3.994,0,0,0-3.995-3.995H209.9l-.576-4.58,53.362,4.558Z" transform="translate(-4.809 0)"/></g><g transform="translate(141.158 45.996)"><path class="b" d="M334.306,86.806H313a3.992,3.992,0,0,0-3.323,1.779l-9.042,13.562a59.062,59.062,0,0,0-34.5-11.081,3.994,3.994,0,0,0-3.995,3.995v55.392a3.994,3.994,0,0,0,3.995,3.995h55.392a3.994,3.994,0,0,0,3.995-3.995,59.228,59.228,0,0,0-18.683-43.2l8.3-12.457h19.167a3.995,3.995,0,1,0,0-7.989Zm-16.931,59.653H270.126V99.21A51.094,51.094,0,0,1,296.2,108.8l-3.564,5.347a3.995,3.995,0,1,0,6.647,4.432l3.05-4.576A51.261,51.261,0,0,1,317.375,146.459Z" transform="translate(-262.137 -86.806)"/></g><g transform="translate(68.722 67.3)"><g transform="translate(0)"><path class="b" d="M270.036,237.8H233.9l-6.367-10.187A59.183,59.183,0,0,0,244.2,186.4a3.994,3.994,0,0,0-3.995-3.995h-51.4v-51.4a3.994,3.994,0,0,0-3.995-3.995,59.387,59.387,0,1,0,36.7,106.045l6.782,10.852a4,4,0,0,0,3.387,1.877h38.348a3.995,3.995,0,0,0,0-7.99Zm-56.265-32.209A3.995,3.995,0,0,0,207,209.821l10.26,16.416a51.388,51.388,0,1,1-36.433-91.081V186.4a3.994,3.994,0,0,0,3.995,3.995h51.244a51.2,51.2,0,0,1-12.909,30.2Z" transform="translate(-125.43 -127.013)"/></g></g><g transform="translate(55.939 199.388)"><g transform="translate(0)"><path class="b" d="M139.388,376.3H105.3a3.995,3.995,0,1,0,0,7.989h34.087a3.995,3.995,0,1,0,0-7.989Z" transform="translate(-101.306 -376.3)"/></g></g><g transform="translate(107.071 199.388)"><path class="b" d="M235.887,376.3H201.8a3.995,3.995,0,1,0,0,7.989h34.087a3.995,3.995,0,1,0,0-7.989Z" transform="translate(-197.805 -376.3)"/></g><g transform="translate(55.939 220.693)"><path class="b" d="M160.693,416.508H105.3a3.995,3.995,0,0,0,0,7.989h55.392a3.995,3.995,0,1,0,0-7.989Z" transform="translate(-101.306 -416.508)"/></g><g transform="translate(128.375 220.693)"><path class="b" d="M254.79,416.508H242.007a3.995,3.995,0,0,0,0,7.989H254.79a3.995,3.995,0,1,0,0-7.989Z" transform="translate(-238.012 -416.508)"/></g><g transform="translate(55.939 241.998)"><g transform="translate(0)"><path class="b" d="M122.344,456.715H105.3a3.995,3.995,0,0,0,0,7.989h17.044a3.995,3.995,0,0,0,0-7.989Z" transform="translate(-101.306 -456.715)"/></g></g><g transform="translate(90.027 241.998)"><path class="b" d="M220.765,456.715H169.634a3.995,3.995,0,0,0,0,7.989h51.131a3.995,3.995,0,0,0,0-7.989Z" transform="translate(-165.639 -456.715)"/></g></g></svg>