<svg xmlns="http://www.w3.org/2000/svg" width="119.403" height="115.624" viewBox="0 0 119.403 115.624"><g transform="translate(0 0)" opacity="0.157"><path d="M3.608,1.809A1.8,1.8,0,1,1,1.8,0a1.806,1.806,0,0,1,1.8,1.809" fill="#fff"/><path d="M3.608,1.809A1.8,1.8,0,1,1,1.8,0a1.806,1.806,0,0,1,1.8,1.809" transform="translate(10.824)" fill="#fff"/><path d="M3.608,1.809A1.8,1.8,0,1,1,1.8,0a1.806,1.806,0,0,1,1.8,1.809" transform="translate(20.746)" fill="#fff"/><path d="M3.608,1.809A1.8,1.8,0,1,1,1.8,0a1.806,1.806,0,0,1,1.8,1.809" transform="translate(31.569)" fill="#fff"/><path d="M3.608,1.809A1.8,1.8,0,1,1,1.8,0a1.806,1.806,0,0,1,1.8,1.809" transform="translate(41.491)" fill="#fff"/><path d="M3.608,1.809A1.8,1.8,0,1,1,1.8,0a1.806,1.806,0,0,1,1.8,1.809" transform="translate(0 9.948)" fill="#fff"/><path d="M3.608,1.809A1.8,1.8,0,1,1,1.8,0a1.806,1.806,0,0,1,1.8,1.809" transform="translate(10.824 9.948)" fill="#fff"/><path d="M3.608,1.809A1.8,1.8,0,1,1,1.8,0a1.806,1.806,0,0,1,1.8,1.809" transform="translate(20.746 9.948)" fill="#fff"/><path d="M3.608,1.809A1.8,1.8,0,1,1,1.8,0a1.806,1.806,0,0,1,1.8,1.809" transform="translate(31.569 9.948)" fill="#fff"/><path d="M3.608,1.809A1.8,1.8,0,1,1,1.8,0a1.806,1.806,0,0,1,1.8,1.809" transform="translate(41.491 9.948)" fill="#fff"/><path d="M3.608,2.261A2.072,2.072,0,0,1,1.8,4.522,2.072,2.072,0,0,1,0,2.261,2.072,2.072,0,0,1,1.8,0a2.072,2.072,0,0,1,1.8,2.261" transform="translate(0 20.801)" fill="#fff"/><path d="M3.608,2.261A2.072,2.072,0,0,1,1.8,4.522,2.072,2.072,0,0,1,0,2.261,2.072,2.072,0,0,1,1.8,0a2.072,2.072,0,0,1,1.8,2.261" transform="translate(10.824 20.801)" fill="#fff"/><path d="M3.608,2.261A2.072,2.072,0,0,1,1.8,4.522,2.071,2.071,0,0,1,0,2.261,2.072,2.072,0,0,1,1.8,0a2.072,2.072,0,0,1,1.8,2.261" transform="translate(20.746 20.801)" fill="#fff"/><path d="M3.608,2.261A2.072,2.072,0,0,1,1.8,4.522,2.071,2.071,0,0,1,0,2.261,2.071,2.071,0,0,1,1.8,0a2.072,2.072,0,0,1,1.8,2.261" transform="translate(31.569 20.801)" fill="#fff"/><path d="M3.608,2.261A2.071,2.071,0,0,1,1.8,4.522,2.072,2.072,0,0,1,0,2.261,2.072,2.072,0,0,1,1.8,0a2.071,2.071,0,0,1,1.8,2.261" transform="translate(41.491 20.801)" fill="#fff"/><path d="M3.608,2.261A2.072,2.072,0,0,1,1.8,4.522,2.072,2.072,0,0,1,0,2.261,2.072,2.072,0,0,1,1.8,0a2.072,2.072,0,0,1,1.8,2.261" transform="translate(0 30.749)" fill="#fff"/><path d="M3.608,2.261A2.072,2.072,0,0,1,1.8,4.522,2.072,2.072,0,0,1,0,2.261,2.072,2.072,0,0,1,1.8,0a2.072,2.072,0,0,1,1.8,2.261" transform="translate(10.824 30.749)" fill="#fff"/><path d="M3.608,2.261A2.072,2.072,0,0,1,1.8,4.522,2.072,2.072,0,0,1,0,2.261,2.071,2.071,0,0,1,1.8,0a2.072,2.072,0,0,1,1.8,2.261" transform="translate(20.746 30.749)" fill="#fff"/><path d="M3.608,2.261A2.072,2.072,0,0,1,1.8,4.522,2.071,2.071,0,0,1,0,2.261,2.071,2.071,0,0,1,1.8,0a2.072,2.072,0,0,1,1.8,2.261" transform="translate(31.569 30.749)" fill="#fff"/><path d="M3.608,2.261A2.071,2.071,0,0,1,1.8,4.522,2.072,2.072,0,0,1,0,2.261,2.072,2.072,0,0,1,1.8,0a2.071,2.071,0,0,1,1.8,2.261" transform="translate(41.491 30.749)" fill="#fff"/><path d="M3.608,1.809A1.8,1.8,0,1,1,1.8,0a1.807,1.807,0,0,1,1.8,1.809" transform="translate(0 41.601)" fill="#fff"/><path d="M3.608,1.809A1.8,1.8,0,1,1,1.8,0a1.807,1.807,0,0,1,1.8,1.809" transform="translate(10.824 41.601)" fill="#fff"/><path d="M3.608,1.809A1.8,1.8,0,1,1,1.8,0a1.807,1.807,0,0,1,1.8,1.809" transform="translate(20.746 41.601)" fill="#fff"/><path d="M3.608,1.809A1.8,1.8,0,1,1,1.8,0a1.807,1.807,0,0,1,1.8,1.809" transform="translate(31.569 41.601)" fill="#fff"/><path d="M3.608,1.809A1.8,1.8,0,1,1,1.8,0a1.806,1.806,0,0,1,1.8,1.809" transform="translate(41.491 41.601)" fill="#fff"/><path d="M3.608,1.809A1.8,1.8,0,1,1,1.8,0a1.806,1.806,0,0,1,1.8,1.809" transform="translate(0 51.55)" fill="#fff"/><path d="M3.608,1.809A1.8,1.8,0,1,1,1.8,0a1.806,1.806,0,0,1,1.8,1.809" transform="translate(10.824 51.55)" fill="#fff"/><path d="M3.608,1.809A1.8,1.8,0,1,1,1.8,0a1.806,1.806,0,0,1,1.8,1.809" transform="translate(20.746 51.55)" fill="#fff"/><path d="M3.608,1.809A1.8,1.8,0,1,1,1.8,0a1.806,1.806,0,0,1,1.8,1.809" transform="translate(31.569 51.55)" fill="#fff"/><path d="M3.608,1.809A1.8,1.8,0,1,1,1.8,0a1.806,1.806,0,0,1,1.8,1.809" transform="translate(41.491 51.55)" fill="#fff"/><path d="M3.608,1.809A1.8,1.8,0,1,1,1.8,0a1.806,1.806,0,0,1,1.8,1.809" transform="translate(52.315)" fill="#fff"/><path d="M3.608,1.809A1.8,1.8,0,1,1,1.8,0a1.806,1.806,0,0,1,1.8,1.809" transform="translate(52.315 9.948)" fill="#fff"/><path d="M3.608,2.261A2.071,2.071,0,0,1,1.8,4.522,2.072,2.072,0,0,1,0,2.261,2.072,2.072,0,0,1,1.8,0a2.071,2.071,0,0,1,1.8,2.261" transform="translate(52.315 20.801)" fill="#fff"/><path d="M3.608,2.261A2.071,2.071,0,0,1,1.8,4.522,2.072,2.072,0,0,1,0,2.261,2.072,2.072,0,0,1,1.8,0a2.071,2.071,0,0,1,1.8,2.261" transform="translate(52.315 30.749)" fill="#fff"/><path d="M3.608,1.809A1.8,1.8,0,1,1,1.8,0a1.806,1.806,0,0,1,1.8,1.809" transform="translate(52.315 41.601)" fill="#fff"/><path d="M3.608,1.809A1.8,1.8,0,1,1,1.8,0a1.806,1.806,0,0,1,1.8,1.809" transform="translate(52.315 51.55)" fill="#fff"/><g transform="translate(0 60.457)"><path d="M3.608,1.809A1.8,1.8,0,1,1,1.8,0a1.806,1.806,0,0,1,1.8,1.809" fill="#fff"/><path d="M3.608,1.809A1.8,1.8,0,1,1,1.8,0a1.806,1.806,0,0,1,1.8,1.809" transform="translate(10.824)" fill="#fff"/><path d="M3.608,1.809A1.8,1.8,0,1,1,1.8,0a1.806,1.806,0,0,1,1.8,1.809" transform="translate(20.746)" fill="#fff"/><path d="M3.608,1.809A1.8,1.8,0,1,1,1.8,0a1.806,1.806,0,0,1,1.8,1.809" transform="translate(31.569)" fill="#fff"/><path d="M3.608,1.809A1.8,1.8,0,1,1,1.8,0a1.806,1.806,0,0,1,1.8,1.809" transform="translate(41.491)" fill="#fff"/><path d="M3.608,1.809A1.8,1.8,0,1,1,1.8,0a1.806,1.806,0,0,1,1.8,1.809" transform="translate(0 9.948)" fill="#fff"/><path d="M3.608,1.809A1.8,1.8,0,1,1,1.8,0a1.806,1.806,0,0,1,1.8,1.809" transform="translate(10.824 9.948)" fill="#fff"/><path d="M3.608,1.809A1.8,1.8,0,1,1,1.8,0a1.806,1.806,0,0,1,1.8,1.809" transform="translate(20.746 9.948)" fill="#fff"/><path d="M3.608,1.809A1.8,1.8,0,1,1,1.8,0a1.806,1.806,0,0,1,1.8,1.809" transform="translate(31.569 9.948)" fill="#fff"/><path d="M3.608,1.809A1.8,1.8,0,1,1,1.8,0a1.806,1.806,0,0,1,1.8,1.809" transform="translate(41.491 9.948)" fill="#fff"/><path d="M3.608,2.261A2.072,2.072,0,0,1,1.8,4.522,2.072,2.072,0,0,1,0,2.261,2.072,2.072,0,0,1,1.8,0a2.072,2.072,0,0,1,1.8,2.261" transform="translate(0 20.801)" fill="#fff"/><path d="M3.608,2.261A2.072,2.072,0,0,1,1.8,4.522,2.072,2.072,0,0,1,0,2.261,2.072,2.072,0,0,1,1.8,0a2.072,2.072,0,0,1,1.8,2.261" transform="translate(10.824 20.801)" fill="#fff"/><path d="M3.608,2.261A2.072,2.072,0,0,1,1.8,4.522,2.071,2.071,0,0,1,0,2.261,2.072,2.072,0,0,1,1.8,0a2.072,2.072,0,0,1,1.8,2.261" transform="translate(20.746 20.801)" fill="#fff"/><path d="M3.608,2.261A2.072,2.072,0,0,1,1.8,4.522,2.071,2.071,0,0,1,0,2.261,2.071,2.071,0,0,1,1.8,0a2.072,2.072,0,0,1,1.8,2.261" transform="translate(31.569 20.801)" fill="#fff"/><path d="M3.608,2.261A2.071,2.071,0,0,1,1.8,4.522,2.072,2.072,0,0,1,0,2.261,2.072,2.072,0,0,1,1.8,0a2.071,2.071,0,0,1,1.8,2.261" transform="translate(41.491 20.801)" fill="#fff"/><path d="M3.608,2.261A2.072,2.072,0,0,1,1.8,4.522,2.072,2.072,0,0,1,0,2.261,2.072,2.072,0,0,1,1.8,0a2.072,2.072,0,0,1,1.8,2.261" transform="translate(0 30.749)" fill="#fff"/><path d="M3.608,2.261A2.072,2.072,0,0,1,1.8,4.522,2.072,2.072,0,0,1,0,2.261,2.072,2.072,0,0,1,1.8,0a2.072,2.072,0,0,1,1.8,2.261" transform="translate(10.824 30.749)" fill="#fff"/><path d="M3.608,2.261A2.072,2.072,0,0,1,1.8,4.522,2.072,2.072,0,0,1,0,2.261,2.071,2.071,0,0,1,1.8,0a2.072,2.072,0,0,1,1.8,2.261" transform="translate(20.746 30.749)" fill="#fff"/><path d="M3.608,2.261A2.072,2.072,0,0,1,1.8,4.522,2.071,2.071,0,0,1,0,2.261,2.071,2.071,0,0,1,1.8,0a2.072,2.072,0,0,1,1.8,2.261" transform="translate(31.569 30.749)" fill="#fff"/><path d="M3.608,2.261A2.071,2.071,0,0,1,1.8,4.522,2.072,2.072,0,0,1,0,2.261,2.072,2.072,0,0,1,1.8,0a2.071,2.071,0,0,1,1.8,2.261" transform="translate(41.491 30.749)" fill="#fff"/><path d="M3.608,1.809A1.8,1.8,0,1,1,1.8,0a1.807,1.807,0,0,1,1.8,1.809" transform="translate(0 41.601)" fill="#fff"/><path d="M3.608,1.809A1.8,1.8,0,1,1,1.8,0a1.807,1.807,0,0,1,1.8,1.809" transform="translate(10.824 41.601)" fill="#fff"/><path d="M3.608,1.809A1.8,1.8,0,1,1,1.8,0a1.807,1.807,0,0,1,1.8,1.809" transform="translate(20.746 41.601)" fill="#fff"/><path d="M3.608,1.809A1.8,1.8,0,1,1,1.8,0a1.807,1.807,0,0,1,1.8,1.809" transform="translate(31.569 41.601)" fill="#fff"/><path d="M3.608,1.809A1.8,1.8,0,1,1,1.8,0a1.806,1.806,0,0,1,1.8,1.809" transform="translate(41.491 41.601)" fill="#fff"/><path d="M3.608,1.809A1.8,1.8,0,1,1,1.8,0a1.806,1.806,0,0,1,1.8,1.809" transform="translate(0 51.55)" fill="#fff"/><path d="M3.608,1.809A1.8,1.8,0,1,1,1.8,0a1.806,1.806,0,0,1,1.8,1.809" transform="translate(10.824 51.55)" fill="#fff"/><path d="M3.608,1.809A1.8,1.8,0,1,1,1.8,0a1.806,1.806,0,0,1,1.8,1.809" transform="translate(20.746 51.55)" fill="#fff"/><path d="M3.608,1.809A1.8,1.8,0,1,1,1.8,0a1.806,1.806,0,0,1,1.8,1.809" transform="translate(31.569 51.55)" fill="#fff"/><path d="M3.608,1.809A1.8,1.8,0,1,1,1.8,0a1.806,1.806,0,0,1,1.8,1.809" transform="translate(41.491 51.55)" fill="#fff"/><path d="M3.608,1.809A1.8,1.8,0,1,1,1.8,0a1.806,1.806,0,0,1,1.8,1.809" transform="translate(52.315)" fill="#fff"/><path d="M3.608,1.809A1.8,1.8,0,1,1,1.8,0a1.806,1.806,0,0,1,1.8,1.809" transform="translate(52.315 9.948)" fill="#fff"/><path d="M3.608,2.261A2.071,2.071,0,0,1,1.8,4.522,2.072,2.072,0,0,1,0,2.261,2.072,2.072,0,0,1,1.8,0a2.071,2.071,0,0,1,1.8,2.261" transform="translate(52.315 20.801)" fill="#fff"/><path d="M3.608,2.261A2.071,2.071,0,0,1,1.8,4.522,2.072,2.072,0,0,1,0,2.261,2.072,2.072,0,0,1,1.8,0a2.071,2.071,0,0,1,1.8,2.261" transform="translate(52.315 30.749)" fill="#fff"/><path d="M3.608,1.809A1.8,1.8,0,1,1,1.8,0a1.806,1.806,0,0,1,1.8,1.809" transform="translate(52.315 41.601)" fill="#fff"/><path d="M3.608,1.809A1.8,1.8,0,1,1,1.8,0a1.806,1.806,0,0,1,1.8,1.809" transform="translate(52.315 51.55)" fill="#fff"/></g><g transform="translate(63.48)"><path d="M3.608,1.809A1.8,1.8,0,1,1,1.8,0a1.806,1.806,0,0,1,1.8,1.809" fill="#fff"/><path d="M3.608,1.809A1.8,1.8,0,1,1,1.8,0a1.806,1.806,0,0,1,1.8,1.809" transform="translate(10.824)" fill="#fff"/><path d="M3.608,1.809A1.8,1.8,0,1,1,1.8,0a1.806,1.806,0,0,1,1.8,1.809" transform="translate(20.746)" fill="#fff"/><path d="M3.608,1.809A1.8,1.8,0,1,1,1.8,0a1.806,1.806,0,0,1,1.8,1.809" transform="translate(31.569)" fill="#fff"/><path d="M3.608,1.809A1.8,1.8,0,1,1,1.8,0a1.806,1.806,0,0,1,1.8,1.809" transform="translate(41.491)" fill="#fff"/><path d="M3.608,1.809A1.8,1.8,0,1,1,1.8,0a1.806,1.806,0,0,1,1.8,1.809" transform="translate(0 9.948)" fill="#fff"/><path d="M3.608,1.809A1.8,1.8,0,1,1,1.8,0a1.806,1.806,0,0,1,1.8,1.809" transform="translate(10.824 9.948)" fill="#fff"/><path d="M3.608,1.809A1.8,1.8,0,1,1,1.8,0a1.806,1.806,0,0,1,1.8,1.809" transform="translate(20.746 9.948)" fill="#fff"/><path d="M3.608,1.809A1.8,1.8,0,1,1,1.8,0a1.806,1.806,0,0,1,1.8,1.809" transform="translate(31.569 9.948)" fill="#fff"/><path d="M3.608,1.809A1.8,1.8,0,1,1,1.8,0a1.806,1.806,0,0,1,1.8,1.809" transform="translate(41.491 9.948)" fill="#fff"/><path d="M3.608,2.261A2.072,2.072,0,0,1,1.8,4.522,2.072,2.072,0,0,1,0,2.261,2.072,2.072,0,0,1,1.8,0a2.072,2.072,0,0,1,1.8,2.261" transform="translate(0 20.801)" fill="#fff"/><path d="M3.608,2.261A2.072,2.072,0,0,1,1.8,4.522,2.072,2.072,0,0,1,0,2.261,2.072,2.072,0,0,1,1.8,0a2.072,2.072,0,0,1,1.8,2.261" transform="translate(10.824 20.801)" fill="#fff"/><path d="M3.608,2.261A2.072,2.072,0,0,1,1.8,4.522,2.071,2.071,0,0,1,0,2.261,2.072,2.072,0,0,1,1.8,0a2.072,2.072,0,0,1,1.8,2.261" transform="translate(20.746 20.801)" fill="#fff"/><path d="M3.608,2.261A2.072,2.072,0,0,1,1.8,4.522,2.071,2.071,0,0,1,0,2.261,2.071,2.071,0,0,1,1.8,0a2.072,2.072,0,0,1,1.8,2.261" transform="translate(31.569 20.801)" fill="#fff"/><path d="M3.608,2.261A2.071,2.071,0,0,1,1.8,4.522,2.072,2.072,0,0,1,0,2.261,2.072,2.072,0,0,1,1.8,0a2.071,2.071,0,0,1,1.8,2.261" transform="translate(41.491 20.801)" fill="#fff"/><path d="M3.608,2.261A2.072,2.072,0,0,1,1.8,4.522,2.072,2.072,0,0,1,0,2.261,2.072,2.072,0,0,1,1.8,0a2.072,2.072,0,0,1,1.8,2.261" transform="translate(0 30.749)" fill="#fff"/><path d="M3.608,2.261A2.072,2.072,0,0,1,1.8,4.522,2.072,2.072,0,0,1,0,2.261,2.072,2.072,0,0,1,1.8,0a2.072,2.072,0,0,1,1.8,2.261" transform="translate(10.824 30.749)" fill="#fff"/><path d="M3.608,2.261A2.072,2.072,0,0,1,1.8,4.522,2.072,2.072,0,0,1,0,2.261,2.071,2.071,0,0,1,1.8,0a2.072,2.072,0,0,1,1.8,2.261" transform="translate(20.746 30.749)" fill="#fff"/><path d="M3.608,2.261A2.072,2.072,0,0,1,1.8,4.522,2.071,2.071,0,0,1,0,2.261,2.071,2.071,0,0,1,1.8,0a2.072,2.072,0,0,1,1.8,2.261" transform="translate(31.569 30.749)" fill="#fff"/><path d="M3.608,2.261A2.071,2.071,0,0,1,1.8,4.522,2.072,2.072,0,0,1,0,2.261,2.072,2.072,0,0,1,1.8,0a2.071,2.071,0,0,1,1.8,2.261" transform="translate(41.491 30.749)" fill="#fff"/><path d="M3.608,1.809A1.8,1.8,0,1,1,1.8,0a1.807,1.807,0,0,1,1.8,1.809" transform="translate(0 41.601)" fill="#fff"/><path d="M3.608,1.809A1.8,1.8,0,1,1,1.8,0a1.807,1.807,0,0,1,1.8,1.809" transform="translate(10.824 41.601)" fill="#fff"/><path d="M3.608,1.809A1.8,1.8,0,1,1,1.8,0a1.807,1.807,0,0,1,1.8,1.809" transform="translate(20.746 41.601)" fill="#fff"/><path d="M3.608,1.809A1.8,1.8,0,1,1,1.8,0a1.807,1.807,0,0,1,1.8,1.809" transform="translate(31.569 41.601)" fill="#fff"/><path d="M3.608,1.809A1.8,1.8,0,1,1,1.8,0a1.806,1.806,0,0,1,1.8,1.809" transform="translate(41.491 41.601)" fill="#fff"/><path d="M3.608,1.809A1.8,1.8,0,1,1,1.8,0a1.806,1.806,0,0,1,1.8,1.809" transform="translate(0 51.55)" fill="#fff"/><path d="M3.608,1.809A1.8,1.8,0,1,1,1.8,0a1.806,1.806,0,0,1,1.8,1.809" transform="translate(10.824 51.55)" fill="#fff"/><path d="M3.608,1.809A1.8,1.8,0,1,1,1.8,0a1.806,1.806,0,0,1,1.8,1.809" transform="translate(20.746 51.55)" fill="#fff"/><path d="M3.608,1.809A1.8,1.8,0,1,1,1.8,0a1.806,1.806,0,0,1,1.8,1.809" transform="translate(31.569 51.55)" fill="#fff"/><path d="M3.608,1.809A1.8,1.8,0,1,1,1.8,0a1.806,1.806,0,0,1,1.8,1.809" transform="translate(41.491 51.55)" fill="#fff"/><path d="M3.608,1.809A1.8,1.8,0,1,1,1.8,0a1.806,1.806,0,0,1,1.8,1.809" transform="translate(52.315)" fill="#fff"/><path d="M3.608,1.809A1.8,1.8,0,1,1,1.8,0a1.806,1.806,0,0,1,1.8,1.809" transform="translate(52.315 9.948)" fill="#fff"/><path d="M3.608,2.261A2.071,2.071,0,0,1,1.8,4.522,2.072,2.072,0,0,1,0,2.261,2.072,2.072,0,0,1,1.8,0a2.071,2.071,0,0,1,1.8,2.261" transform="translate(52.315 20.801)" fill="#fff"/><path d="M3.608,2.261A2.071,2.071,0,0,1,1.8,4.522,2.072,2.072,0,0,1,0,2.261,2.072,2.072,0,0,1,1.8,0a2.071,2.071,0,0,1,1.8,2.261" transform="translate(52.315 30.749)" fill="#fff"/><path d="M3.608,1.809A1.8,1.8,0,1,1,1.8,0a1.806,1.806,0,0,1,1.8,1.809" transform="translate(52.315 41.601)" fill="#fff"/><path d="M3.608,1.809A1.8,1.8,0,1,1,1.8,0a1.806,1.806,0,0,1,1.8,1.809" transform="translate(52.315 51.55)" fill="#fff"/></g><g transform="translate(63.48 60.457)"><path d="M3.608,1.809A1.8,1.8,0,1,1,1.8,0a1.806,1.806,0,0,1,1.8,1.809" fill="#fff"/><path d="M3.608,1.809A1.8,1.8,0,1,1,1.8,0a1.806,1.806,0,0,1,1.8,1.809" transform="translate(10.824)" fill="#fff"/><path d="M3.608,1.809A1.8,1.8,0,1,1,1.8,0a1.806,1.806,0,0,1,1.8,1.809" transform="translate(20.746)" fill="#fff"/><path d="M3.608,1.809A1.8,1.8,0,1,1,1.8,0a1.806,1.806,0,0,1,1.8,1.809" transform="translate(31.569)" fill="#fff"/><path d="M3.608,1.809A1.8,1.8,0,1,1,1.8,0a1.806,1.806,0,0,1,1.8,1.809" transform="translate(41.491)" fill="#fff"/><path d="M3.608,1.809A1.8,1.8,0,1,1,1.8,0a1.806,1.806,0,0,1,1.8,1.809" transform="translate(0 9.948)" fill="#fff"/><path d="M3.608,1.809A1.8,1.8,0,1,1,1.8,0a1.806,1.806,0,0,1,1.8,1.809" transform="translate(10.824 9.948)" fill="#fff"/><path d="M3.608,1.809A1.8,1.8,0,1,1,1.8,0a1.806,1.806,0,0,1,1.8,1.809" transform="translate(20.746 9.948)" fill="#fff"/><path d="M3.608,1.809A1.8,1.8,0,1,1,1.8,0a1.806,1.806,0,0,1,1.8,1.809" transform="translate(31.569 9.948)" fill="#fff"/><path d="M3.608,1.809A1.8,1.8,0,1,1,1.8,0a1.806,1.806,0,0,1,1.8,1.809" transform="translate(41.491 9.948)" fill="#fff"/><path d="M3.608,2.261A2.072,2.072,0,0,1,1.8,4.522,2.072,2.072,0,0,1,0,2.261,2.072,2.072,0,0,1,1.8,0a2.072,2.072,0,0,1,1.8,2.261" transform="translate(0 20.801)" fill="#fff"/><path d="M3.608,2.261A2.072,2.072,0,0,1,1.8,4.522,2.072,2.072,0,0,1,0,2.261,2.072,2.072,0,0,1,1.8,0a2.072,2.072,0,0,1,1.8,2.261" transform="translate(10.824 20.801)" fill="#fff"/><path d="M3.608,2.261A2.072,2.072,0,0,1,1.8,4.522,2.071,2.071,0,0,1,0,2.261,2.072,2.072,0,0,1,1.8,0a2.072,2.072,0,0,1,1.8,2.261" transform="translate(20.746 20.801)" fill="#fff"/><path d="M3.608,2.261A2.072,2.072,0,0,1,1.8,4.522,2.071,2.071,0,0,1,0,2.261,2.071,2.071,0,0,1,1.8,0a2.072,2.072,0,0,1,1.8,2.261" transform="translate(31.569 20.801)" fill="#fff"/><path d="M3.608,2.261A2.071,2.071,0,0,1,1.8,4.522,2.072,2.072,0,0,1,0,2.261,2.072,2.072,0,0,1,1.8,0a2.071,2.071,0,0,1,1.8,2.261" transform="translate(41.491 20.801)" fill="#fff"/><path d="M3.608,2.261A2.072,2.072,0,0,1,1.8,4.522,2.072,2.072,0,0,1,0,2.261,2.072,2.072,0,0,1,1.8,0a2.072,2.072,0,0,1,1.8,2.261" transform="translate(0 30.749)" fill="#fff"/><path d="M3.608,2.261A2.072,2.072,0,0,1,1.8,4.522,2.072,2.072,0,0,1,0,2.261,2.072,2.072,0,0,1,1.8,0a2.072,2.072,0,0,1,1.8,2.261" transform="translate(10.824 30.749)" fill="#fff"/><path d="M3.608,2.261A2.072,2.072,0,0,1,1.8,4.522,2.072,2.072,0,0,1,0,2.261,2.071,2.071,0,0,1,1.8,0a2.072,2.072,0,0,1,1.8,2.261" transform="translate(20.746 30.749)" fill="#fff"/><path d="M3.608,2.261A2.072,2.072,0,0,1,1.8,4.522,2.071,2.071,0,0,1,0,2.261,2.071,2.071,0,0,1,1.8,0a2.072,2.072,0,0,1,1.8,2.261" transform="translate(31.569 30.749)" fill="#fff"/><path d="M3.608,2.261A2.071,2.071,0,0,1,1.8,4.522,2.072,2.072,0,0,1,0,2.261,2.072,2.072,0,0,1,1.8,0a2.071,2.071,0,0,1,1.8,2.261" transform="translate(41.491 30.749)" fill="#fff"/><path d="M3.608,1.809A1.8,1.8,0,1,1,1.8,0a1.807,1.807,0,0,1,1.8,1.809" transform="translate(0 41.601)" fill="#fff"/><path d="M3.608,1.809A1.8,1.8,0,1,1,1.8,0a1.807,1.807,0,0,1,1.8,1.809" transform="translate(10.824 41.601)" fill="#fff"/><path d="M3.608,1.809A1.8,1.8,0,1,1,1.8,0a1.807,1.807,0,0,1,1.8,1.809" transform="translate(20.746 41.601)" fill="#fff"/><path d="M3.608,1.809A1.8,1.8,0,1,1,1.8,0a1.807,1.807,0,0,1,1.8,1.809" transform="translate(31.569 41.601)" fill="#fff"/><path d="M3.608,1.809A1.8,1.8,0,1,1,1.8,0a1.806,1.806,0,0,1,1.8,1.809" transform="translate(41.491 41.601)" fill="#fff"/><path d="M3.608,1.809A1.8,1.8,0,1,1,1.8,0a1.806,1.806,0,0,1,1.8,1.809" transform="translate(0 51.55)" fill="#fff"/><path d="M3.608,1.809A1.8,1.8,0,1,1,1.8,0a1.806,1.806,0,0,1,1.8,1.809" transform="translate(10.824 51.55)" fill="#fff"/><path d="M3.608,1.809A1.8,1.8,0,1,1,1.8,0a1.806,1.806,0,0,1,1.8,1.809" transform="translate(20.746 51.55)" fill="#fff"/><path d="M3.608,1.809A1.8,1.8,0,1,1,1.8,0a1.806,1.806,0,0,1,1.8,1.809" transform="translate(31.569 51.55)" fill="#fff"/><path d="M3.608,1.809A1.8,1.8,0,1,1,1.8,0a1.806,1.806,0,0,1,1.8,1.809" transform="translate(41.491 51.55)" fill="#fff"/><path d="M3.608,1.809A1.8,1.8,0,1,1,1.8,0a1.806,1.806,0,0,1,1.8,1.809" transform="translate(52.315)" fill="#fff"/><path d="M3.608,1.809A1.8,1.8,0,1,1,1.8,0a1.806,1.806,0,0,1,1.8,1.809" transform="translate(52.315 9.948)" fill="#fff"/><path d="M3.608,2.261A2.071,2.071,0,0,1,1.8,4.522,2.072,2.072,0,0,1,0,2.261,2.072,2.072,0,0,1,1.8,0a2.071,2.071,0,0,1,1.8,2.261" transform="translate(52.315 20.801)" fill="#fff"/><path d="M3.608,2.261A2.071,2.071,0,0,1,1.8,4.522,2.072,2.072,0,0,1,0,2.261,2.072,2.072,0,0,1,1.8,0a2.071,2.071,0,0,1,1.8,2.261" transform="translate(52.315 30.749)" fill="#fff"/><path d="M3.608,1.809A1.8,1.8,0,1,1,1.8,0a1.806,1.806,0,0,1,1.8,1.809" transform="translate(52.315 41.601)" fill="#fff"/><path d="M3.608,1.809A1.8,1.8,0,1,1,1.8,0a1.806,1.806,0,0,1,1.8,1.809" transform="translate(52.315 51.55)" fill="#fff"/></g></g></svg>