<svg id="close-blue-bg" xmlns="http://www.w3.org/2000/svg" width="50.912" height="50.912" viewBox="0 0 50.912 50.912">
  <g id="close-blue-bg-2" data-name="close-blue-bg" transform="translate(0 25.456) rotate(-45)">
    <path id="Path_7049" data-name="Path 7049" d="M0,0H36V36H0Z" fill="none"/>
    <path id="Path_7050" data-name="Path 7050" d="M18,2A16,16,0,1,0,34,18,16,16,0,0,0,18,2Zm6.4,17.6H19.6v4.8a1.6,1.6,0,1,1-3.2,0V19.6H11.6a1.6,1.6,0,1,1,0-3.2h4.8V11.6a1.6,1.6,0,1,1,3.2,0v4.8h4.8a1.6,1.6,0,1,1,0,3.2Z" fill="#f15928"/>
  </g>
</svg>
