<svg xmlns="http://www.w3.org/2000/svg" width="206.793" height="118.502" viewBox="0 0 206.793 118.502">
  <g id="Group_5789" data-name="Group 5789" transform="translate(-775 -1005)">
    <g id="Group_5702" data-name="Group 5702" transform="translate(-359 643)">
      <rect id="Rectangle_2919" data-name="Rectangle 2919" width="83.793" height="39.502" rx="12" transform="translate(1134 400)" fill="#fff"/>
      <g id="Group_5694" data-name="Group 5694" transform="translate(1131.968 417)">
        <path id="Path_1632" data-name="Path 1632" d="M2.737-8.841v3.367H6.769v1.211H2.737V0h-1.5V-10.052h6.23v1.211ZM12-5.208a3.322,3.322,0,0,0,1.012-.14,2.053,2.053,0,0,0,.731-.4,1.623,1.623,0,0,0,.441-.609,2.014,2.014,0,0,0,.147-.781,1.552,1.552,0,0,0-.571-1.309,2.773,2.773,0,0,0-1.712-.441H10.647v3.675ZM16.695,0h-1.33a.621.621,0,0,1-.581-.315L12.3-3.8a.741.741,0,0,0-.259-.249.934.934,0,0,0-.42-.074h-.973V0H9.156V-10.052h2.9a6.2,6.2,0,0,1,1.676.2,3.257,3.257,0,0,1,1.162.567,2.255,2.255,0,0,1,.679.885,2.939,2.939,0,0,1,.22,1.162,2.978,2.978,0,0,1-.161.987,2.589,2.589,0,0,1-.472.829,2.977,2.977,0,0,1-.759.634,3.724,3.724,0,0,1-1.015.406,1.538,1.538,0,0,1,.483.469ZM24.22-1.211,24.213,0h-6.23V-10.052h6.23v1.211H19.481v3.185h3.808v1.169H19.481v3.276Zm8.078,0L32.291,0h-6.23V-10.052h6.23v1.211H27.559v3.185h3.808v1.169H27.559v3.276Z" transform="translate(29.032 8)" fill="#375674"/>
      </g>
    </g>
    <g id="Group_5703" data-name="Group 5703" transform="translate(-236 684)">
      <rect id="Rectangle_2919-2" data-name="Rectangle 2919" width="83.793" height="39.502" rx="12" transform="translate(1134 400)" fill="#f2f3c9"/>
      <g id="Group_5694-2" data-name="Group 5694" transform="translate(1131.968 417)">
        <path id="Path_1633" data-name="Path 1633" d="M2.737-8.841v3.367H6.769v1.211H2.737V0h-1.5V-10.052h6.23v1.211ZM12-5.208a3.322,3.322,0,0,0,1.012-.14,2.053,2.053,0,0,0,.731-.4,1.623,1.623,0,0,0,.441-.609,2.014,2.014,0,0,0,.147-.781,1.552,1.552,0,0,0-.571-1.309,2.773,2.773,0,0,0-1.712-.441H10.647v3.675ZM16.695,0h-1.33a.621.621,0,0,1-.581-.315L12.3-3.8a.741.741,0,0,0-.259-.249.934.934,0,0,0-.42-.074h-.973V0H9.156V-10.052h2.9a6.2,6.2,0,0,1,1.676.2,3.257,3.257,0,0,1,1.162.567,2.255,2.255,0,0,1,.679.885,2.939,2.939,0,0,1,.22,1.162,2.978,2.978,0,0,1-.161.987,2.589,2.589,0,0,1-.472.829,2.977,2.977,0,0,1-.759.634,3.724,3.724,0,0,1-1.015.406,1.538,1.538,0,0,1,.483.469ZM24.22-1.211,24.213,0h-6.23V-10.052h6.23v1.211H19.481v3.185h3.808v1.169H19.481v3.276Zm8.078,0L32.291,0h-6.23V-10.052h6.23v1.211H27.559v3.185h3.808v1.169H27.559v3.276Z" transform="translate(29.032 8)" fill="#375674"/>
      </g>
    </g>
    <g id="Group_5704" data-name="Group 5704" transform="translate(-259 605)">
      <rect id="Rectangle_2919-3" data-name="Rectangle 2919" width="83.793" height="39.502" rx="12" transform="translate(1134 400)" fill="#fdb178"/>
      <g id="Group_5694-3" data-name="Group 5694" transform="translate(1131.968 417)">
        <path id="Path_1631" data-name="Path 1631" d="M2.737-8.841v3.367H6.769v1.211H2.737V0h-1.5V-10.052h6.23v1.211ZM12-5.208a3.322,3.322,0,0,0,1.012-.14,2.053,2.053,0,0,0,.731-.4,1.623,1.623,0,0,0,.441-.609,2.014,2.014,0,0,0,.147-.781,1.552,1.552,0,0,0-.571-1.309,2.773,2.773,0,0,0-1.712-.441H10.647v3.675ZM16.695,0h-1.33a.621.621,0,0,1-.581-.315L12.3-3.8a.741.741,0,0,0-.259-.249.934.934,0,0,0-.42-.074h-.973V0H9.156V-10.052h2.9a6.2,6.2,0,0,1,1.676.2,3.257,3.257,0,0,1,1.162.567,2.255,2.255,0,0,1,.679.885,2.939,2.939,0,0,1,.22,1.162,2.978,2.978,0,0,1-.161.987,2.589,2.589,0,0,1-.472.829,2.977,2.977,0,0,1-.759.634,3.724,3.724,0,0,1-1.015.406,1.538,1.538,0,0,1,.483.469ZM24.22-1.211,24.213,0h-6.23V-10.052h6.23v1.211H19.481v3.185h3.808v1.169H19.481v3.276Zm8.078,0L32.291,0h-6.23V-10.052h6.23v1.211H27.559v3.185h3.808v1.169H27.559v3.276Z" transform="translate(29.032 8)" fill="#375674"/>
      </g>
    </g>
  </g>
</svg>
