<svg id="business_1_" data-name="business (1)" xmlns="http://www.w3.org/2000/svg" width="120.936" height="120.936" viewBox="0 0 120.936 120.936">
  <path id="Path_1591" data-name="Path 1591" d="M120.936,60.468q0,2.124-.146,4.213a60.227,60.227,0,0,1-16.054,36.98l-.035.034c-.481.519-.974,1.03-1.475,1.531a60.467,60.467,0,0,1-84.475,1.014q-.541-.515-1.067-1.042c-.333-.333-.662-.669-.987-1.012a60.468,60.468,0,0,1-.5-82.91l.032-.034q.725-.778,1.478-1.531A60.467,60.467,0,0,1,120.936,60.468Zm0,0" fill="#5d5860"/>
  <path id="Path_1592" data-name="Path 1592" d="M120.936,60.468q0,2.124-.146,4.213a60.227,60.227,0,0,1-16.054,36.98l-.035.034c-.481.519-.974,1.03-1.475,1.531a60.467,60.467,0,0,1-84.475,1.014L16.7,102.185a60.468,60.468,0,0,1-.5-82.91l.032-.034q.725-.778,1.478-1.531A60.467,60.467,0,0,1,120.936,60.468Zm0,0" fill="#713775"/>
  <path id="Path_1593" data-name="Path 1593" d="M177.973,169.408a60.227,60.227,0,0,1-16.054,36.98l-.035.034c-.481.519-.974,1.03-1.475,1.531a60.467,60.467,0,0,1-84.475,1.014q-.541-.515-1.067-1.042l70.491-70.491.321-.32Zm0,0" transform="translate(-57.183 -104.727)" fill="#66baed"/>
  <path id="Path_1594" data-name="Path 1594" d="M57.96,157.372a14.636,14.636,0,0,1-25.273-11.753L17.7,160.593l-.012.012c-.333-.333-.662-.669-.987-1.012a60.468,60.468,0,0,1-.5-82.91l.032-.034,1.491-1.488L32.418,89.872A14.639,14.639,0,1,0,45.731,103.2L60.4,117.89l.028.027-15.018,15A14.634,14.634,0,0,1,57.96,157.372Zm0,0" transform="translate(0 -57.407)" fill="#f74f4f"/>
  <path id="Path_1595" data-name="Path 1595" d="M311.8,113.333q0,2.124-.146,4.213a60.227,60.227,0,0,1-16.054,36.98l-.035.034-1.572,1.572L279.3,141.417a14.636,14.636,0,1,0-13.313-13.33l-14.694-14.713,15.02-15-.084.01a14.639,14.639,0,1,1,12.812-12.812c0,.032,0,.067-.01.1l.376-.375,14.643-14.623,2.443,2.446A60.237,60.237,0,0,1,311.8,113.333Zm0,0" transform="translate(-190.866 -52.865)" fill="#ffe152"/>
</svg>
