<svg xmlns="http://www.w3.org/2000/svg" width="169" height="50" viewBox="0 0 169 50">
  <g id="Group_5787" data-name="Group 5787" transform="translate(-100 -445)">
    <g id="Group_4255" data-name="Group 4255" transform="translate(-19)">
      <rect id="Rectangle_2692" data-name="Rectangle 2692" width="169" height="50" rx="4" transform="translate(119 445)"/>
      <g id="social-media" transform="translate(125.075 445.561)">
        <path id="Path_2" data-name="Path 2" d="M184.879,139.952v20.066a1.347,1.347,0,0,0,2.052,1.148l16.458-10.1a1.347,1.347,0,0,0-.007-2.3L186.924,138.8A1.347,1.347,0,0,0,184.879,139.952Z" transform="translate(-166.953 -125.164)" fill="#ffc100"/>
        <path id="Path_3" data-name="Path 3" d="M185.9,161.325l13.733-14.834L186.922,138.8a1.347,1.347,0,0,0-2.045,1.153v20.066A1.344,1.344,0,0,0,185.9,161.325Z" transform="translate(-166.952 -125.163)" fill="#d8e86d"/>
        <path id="Path_4" data-name="Path 4" d="M186.929,161.574l11.3-6.935,1.4-.86-13.739-14.725a1.343,1.343,0,0,0-1.012,1.306v20.066A1.348,1.348,0,0,0,186.929,161.574Z" transform="translate(-166.952 -125.572)" fill="#f52b2b"/>
        <path id="Path_5" data-name="Path 5" d="M185.9,161.734l10.536-11.381-10.542-11.3a1.344,1.344,0,0,0-1.012,1.306v20.066A1.344,1.344,0,0,0,185.9,161.734Z" transform="translate(-166.951 -125.572)" fill="#00b7ad"/>
      </g>
      <g id="Group_4254" data-name="Group 4254" transform="translate(6 3)">
        <path id="Path_1626" data-name="Path 1626" d="M6.272-11.264a5.562,5.562,0,0,0-5.68,5.68A5.553,5.553,0,0,0,6.272.1a5.483,5.483,0,0,0,5.5-4.768V-6.1H5.648V-4.64H9.824A3.367,3.367,0,0,1,6.272-1.552,3.733,3.733,0,0,1,2.464-5.584,3.72,3.72,0,0,1,6.272-9.6,3.161,3.161,0,0,1,9.248-7.92H11.44A5.3,5.3,0,0,0,6.272-11.264Zm15.7,6.848a4.348,4.348,0,0,0-4.5-4.544,4.348,4.348,0,0,0-4.5,4.544A4.3,4.3,0,0,0,17.392.144,4.416,4.416,0,0,0,21.968-4.416Zm-7.136,0c0-2,1.232-2.96,2.608-2.96A2.668,2.668,0,0,1,20.1-4.416a2.716,2.716,0,0,1-2.7,2.976C16.016-1.44,14.832-2.416,14.832-4.416Zm17.344,0a4.348,4.348,0,0,0-4.5-4.544,4.348,4.348,0,0,0-4.5,4.544A4.3,4.3,0,0,0,27.6.144,4.416,4.416,0,0,0,32.176-4.416Zm-7.136,0c0-2,1.232-2.96,2.608-2.96A2.668,2.668,0,0,1,30.3-4.416,2.716,2.716,0,0,1,27.6-1.44C26.224-1.44,25.04-2.416,25.04-4.416Zm8.336-.032A4.267,4.267,0,0,0,37.536.144a3.784,3.784,0,0,0,3.056-1.472V.144a2.349,2.349,0,0,1-2.464,2.624,2.458,2.458,0,0,1-2.512-1.536H33.808c.224,1.952,1.968,3.12,4.32,3.12a4,4,0,0,0,4.3-4.208v-8.96h-1.84v1.28A3.734,3.734,0,0,0,37.536-8.96,4.2,4.2,0,0,0,33.376-4.448Zm7.216.032A2.739,2.739,0,0,1,37.92-1.44a2.778,2.778,0,0,1-2.672-3.008A2.7,2.7,0,0,1,37.92-7.376,2.734,2.734,0,0,1,40.592-4.416ZM44.832,0h1.824V-11.84H44.832Zm7.936-7.424A2.289,2.289,0,0,1,55.232-5.2h-4.88A2.4,2.4,0,0,1,52.768-7.424Zm4.128,4.8H54.928a2.134,2.134,0,0,1-2.08,1.232,2.425,2.425,0,0,1-2.512-2.336h6.736a5.627,5.627,0,0,0,.064-.9A4.111,4.111,0,0,0,52.848-8.96a4.222,4.222,0,0,0-4.4,4.544,4.277,4.277,0,0,0,4.4,4.56A4.028,4.028,0,0,0,56.9-2.624ZM64.912-6V-9.632h2.016c1.424,0,2.064.672,2.064,1.824,0,1.12-.64,1.808-2.064,1.808Zm5.952-1.808c0-1.808-1.3-3.312-3.936-3.312h-3.84V0h1.824V-4.512h2.016C69.824-4.512,70.864-6.224,70.864-7.808ZM72.608,0h1.824V-11.84H72.608Zm3.616-4.448c0,2.72,1.84,4.592,4.128,4.592A3.8,3.8,0,0,0,83.44-1.312V0h1.84V-8.816H83.44v1.28A3.753,3.753,0,0,0,80.384-8.96,4.2,4.2,0,0,0,76.224-4.448Zm7.216.032A2.739,2.739,0,0,1,80.768-1.44,2.778,2.778,0,0,1,78.1-4.448a2.7,2.7,0,0,1,2.672-2.928A2.734,2.734,0,0,1,83.44-4.416ZM91.152-2.1l-2.48-6.72H86.64L90.112-.144,88.32,4.144h1.888l5.408-12.96H93.728Z" transform="translate(162 477)" fill="#fff"/>
        <path id="Path_1625" data-name="Path 1625" d="M3.537-6.345a3.094,3.094,0,0,0-3.15,3.2,3.087,3.087,0,0,0,3.15,3.2A3.042,3.042,0,0,0,6.615-2.754v-.63H3.24v.666h2.5a2.115,2.115,0,0,1-2.2,2.034A2.276,2.276,0,0,1,1.224-3.141,2.278,2.278,0,0,1,3.537-5.607,2,2,0,0,1,5.445-4.455h.981A2.966,2.966,0,0,0,3.537-6.345Zm7.533.063H7.695V0H11.07V-.675H8.514v-2.16H10.8V-3.51H8.514v-2.1H11.07Zm.855.675h1.719V0h.819V-5.607h1.71v-.666H11.925ZM19.584,0H20.4V-6.273h-.819Zm1.827-5.607H23.13V0h.819V-5.607h1.71v-.666H21.411ZM35.064-3.141a3.089,3.089,0,0,0-3.15-3.2,3.094,3.094,0,0,0-3.15,3.2,3.094,3.094,0,0,0,3.15,3.2A3.089,3.089,0,0,0,35.064-3.141Zm-5.463,0a2.286,2.286,0,0,1,2.313-2.493,2.287,2.287,0,0,1,2.313,2.493A2.291,2.291,0,0,1,31.914-.648,2.291,2.291,0,0,1,29.6-3.141ZM40.257-6.282V-1.3L36.963-6.282h-.819V0h.819V-4.995L40.257,0h.819V-6.282Z" transform="translate(162 460)" fill="#fff"/>
      </g>
    </g>
  </g>
</svg>
