<svg xmlns="http://www.w3.org/2000/svg" width="126.062" height="100.114" viewBox="0 0 126.062 100.114">
  <g id="Group_5712" data-name="Group 5712" transform="translate(-204 -1044)">
    <g id="Group_5522" data-name="Group 5522" transform="translate(98 902)">
      <path id="Path_1571" data-name="Path 1571" d="M50.057,0A50.057,50.057,0,1,1,0,50.057,50.057,50.057,0,0,1,50.057,0Z" transform="translate(106 142)"/>
      <g id="Group_5521" data-name="Group 5521" transform="translate(125.617 171.764)">
        <path id="Path_1627" data-name="Path 1627" d="M-37.034-4.8a3.188,3.188,0,0,0,.965-.133,1.977,1.977,0,0,0,.7-.377,1.564,1.564,0,0,0,.426-.582,1.9,1.9,0,0,0,.143-.747A1.488,1.488,0,0,0-35.344-7.9a2.652,2.652,0,0,0-1.638-.422H-38.36V-4.8Zm4.3,4.8h-1.118a.551.551,0,0,1-.507-.266l-2.418-3.328a.717.717,0,0,0-.237-.224.864.864,0,0,0-.393-.068h-.955V0h-1.255V-9.314h2.632a5.752,5.752,0,0,1,1.528.179,2.915,2.915,0,0,1,1.063.517,2.069,2.069,0,0,1,.621.816,2.726,2.726,0,0,1,.2,1.069,2.68,2.68,0,0,1-.156.923,2.438,2.438,0,0,1-.452.77,2.7,2.7,0,0,1-.722.582,3.572,3.572,0,0,1-.965.364,1.246,1.246,0,0,1,.416.4Zm4.973-4.01a2.281,2.281,0,0,0-.114-.738,1.657,1.657,0,0,0-.332-.579,1.479,1.479,0,0,0-.53-.377,1.788,1.788,0,0,0-.708-.133,1.779,1.779,0,0,0-1.316.484,2.269,2.269,0,0,0-.6,1.342Zm.936,3.087a2.2,2.2,0,0,1-.514.452,3.2,3.2,0,0,1-.64.315,4.067,4.067,0,0,1-.705.185A4.308,4.308,0,0,1-29.4.091,3.348,3.348,0,0,1-30.66-.14a2.76,2.76,0,0,1-.994-.676,3.1,3.1,0,0,1-.653-1.1,4.48,4.48,0,0,1-.234-1.508,3.837,3.837,0,0,1,.211-1.287,3.034,3.034,0,0,1,.608-1.037,2.8,2.8,0,0,1,.969-.689,3.179,3.179,0,0,1,1.287-.25,2.965,2.965,0,0,1,1.1.2,2.477,2.477,0,0,1,.871.572A2.62,2.62,0,0,1-26.926-5a3.516,3.516,0,0,1,.208,1.251.755.755,0,0,1-.058.364A.243.243,0,0,1-27-3.289h-4.4A3.85,3.85,0,0,0-31.226-2.2a2.18,2.18,0,0,0,.426.77,1.719,1.719,0,0,0,.65.462,2.232,2.232,0,0,0,.845.153,2.479,2.479,0,0,0,.751-.1,3.572,3.572,0,0,0,.543-.218,4.14,4.14,0,0,0,.38-.218.5.5,0,0,1,.263-.1.255.255,0,0,1,.221.111Zm10.536-5.662L-18.418,0h-.917q-.169,0-.234-.221l-1.456-4.466a2.508,2.508,0,0,1-.084-.3q-.032-.153-.065-.3-.033.149-.065.3a2.855,2.855,0,0,1-.085.309L-22.805-.221a.255.255,0,0,1-.26.221h-.871l-2.132-6.585h.91a.371.371,0,0,1,.231.072.351.351,0,0,1,.127.169l1.261,4.238q.111.468.175.884.058-.215.12-.436t.133-.448L-21.72-6.37a.343.343,0,0,1,.114-.162.307.307,0,0,1,.2-.065h.507a.342.342,0,0,1,.215.065.335.335,0,0,1,.117.162l1.358,4.264q.071.227.13.448t.111.436q.032-.215.081-.432t.107-.452l1.287-4.238a.337.337,0,0,1,.123-.172.347.347,0,0,1,.215-.068Zm4.622,3.621a9.644,9.644,0,0,0-1.362.127,3.872,3.872,0,0,0-.917.263,1.265,1.265,0,0,0-.514.383.825.825,0,0,0-.159.494,1.09,1.09,0,0,0,.084.449.833.833,0,0,0,.231.309.927.927,0,0,0,.345.175,1.58,1.58,0,0,0,.426.055,2.362,2.362,0,0,0,.559-.062,2.106,2.106,0,0,0,.478-.179,2.694,2.694,0,0,0,.429-.28,3.717,3.717,0,0,0,.4-.371ZM-15.4-5.655a3.76,3.76,0,0,1,1.176-.786,3.633,3.633,0,0,1,1.4-.26,2.493,2.493,0,0,1,.981.182,2.013,2.013,0,0,1,.722.507,2.147,2.147,0,0,1,.442.786,3.276,3.276,0,0,1,.149,1.014V0h-.514a.5.5,0,0,1-.26-.055.376.376,0,0,1-.143-.218L-11.58-.9a6.452,6.452,0,0,1-.507.426,2.9,2.9,0,0,1-.52.312,2.824,2.824,0,0,1-.582.195A3.183,3.183,0,0,1-13.874.1,2.372,2.372,0,0,1-14.6,0a1.667,1.667,0,0,1-.588-.322,1.513,1.513,0,0,1-.4-.543,1.9,1.9,0,0,1-.146-.777,1.449,1.449,0,0,1,.215-.751,1.88,1.88,0,0,1,.7-.64,4.562,4.562,0,0,1,1.254-.458,9.566,9.566,0,0,1,1.9-.2v-.513A1.76,1.76,0,0,0-12-5.372a1.2,1.2,0,0,0-.969-.393,2.082,2.082,0,0,0-.718.107,2.694,2.694,0,0,0-.5.24q-.211.133-.364.24a.525.525,0,0,1-.3.107.332.332,0,0,1-.2-.062.567.567,0,0,1-.143-.153Zm7.729.39a2.969,2.969,0,0,1,.767-1.056A1.675,1.675,0,0,1-5.795-6.7a1.726,1.726,0,0,1,.4.045,1.072,1.072,0,0,1,.341.143l-.085.865a.186.186,0,0,1-.195.162A1.342,1.342,0,0,1-5.6-5.525,1.835,1.835,0,0,0-6-5.564a1.582,1.582,0,0,0-.556.091,1.3,1.3,0,0,0-.436.27,1.906,1.906,0,0,0-.345.442,3.789,3.789,0,0,0-.276.6V0H-8.772V-6.585h.663a.366.366,0,0,1,.26.072.439.439,0,0,1,.1.247ZM0-5.018a1.87,1.87,0,0,0-.7-.608A2.01,2.01,0,0,0-1.55-5.8a1.66,1.66,0,0,0-1.411.657A3.066,3.066,0,0,0-3.455-3.27a4.76,4.76,0,0,0,.11,1.1,2.12,2.12,0,0,0,.325.754,1.277,1.277,0,0,0,.526.432,1.751,1.751,0,0,0,.709.137,1.876,1.876,0,0,0,1-.26A2.857,2.857,0,0,0,0-1.839ZM1.154-9.575V0H.465A.3.3,0,0,1,.153-.241l-.1-.8a3.585,3.585,0,0,1-.962.819A2.448,2.448,0,0,1-2.161.091,2.377,2.377,0,0,1-3.188-.127a2.13,2.13,0,0,1-.786-.64,3.05,3.05,0,0,1-.5-1.053,5.421,5.421,0,0,1-.175-1.45,4.543,4.543,0,0,1,.195-1.355A3.339,3.339,0,0,1-3.9-5.714,2.594,2.594,0,0,1-3-6.438,2.644,2.644,0,0,1-1.81-6.7a2.4,2.4,0,0,1,1.037.2A2.513,2.513,0,0,1,0-5.928V-9.575ZM9.337-4.485a2.9,2.9,0,0,0,.952-.143,1.987,1.987,0,0,0,.7-.4,1.643,1.643,0,0,0,.426-.614,2.1,2.1,0,0,0,.143-.787A1.787,1.787,0,0,0,11-7.819a2.408,2.408,0,0,0-1.667-.5H7.842v3.835Zm0-4.829a5.159,5.159,0,0,1,1.537.2,2.953,2.953,0,0,1,1.082.582,2.344,2.344,0,0,1,.64.91,3.2,3.2,0,0,1,.211,1.19,3.031,3.031,0,0,1-.227,1.19,2.559,2.559,0,0,1-.666.93,3.1,3.1,0,0,1-1.086.608,4.672,4.672,0,0,1-1.492.218H7.842V0H6.588V-9.314Zm7.215,2.626a3.358,3.358,0,0,1,1.3.241,2.786,2.786,0,0,1,.988.682A3,3,0,0,1,19.468-4.7a4.252,4.252,0,0,1,.218,1.4,4.244,4.244,0,0,1-.218,1.4A3,3,0,0,1,18.84-.826a2.751,2.751,0,0,1-.988.679,3.4,3.4,0,0,1-1.3.237,3.441,3.441,0,0,1-1.31-.237,2.744,2.744,0,0,1-.991-.679,3,3,0,0,1-.627-1.066,4.244,4.244,0,0,1-.218-1.4,4.252,4.252,0,0,1,.218-1.4,3,3,0,0,1,.627-1.069,2.779,2.779,0,0,1,.991-.682A3.4,3.4,0,0,1,16.552-6.689Zm0,5.876a1.69,1.69,0,0,0,1.456-.653,3.025,3.025,0,0,0,.481-1.823,3.052,3.052,0,0,0-.481-1.833,1.687,1.687,0,0,0-1.456-.657,2.043,2.043,0,0,0-.861.169,1.6,1.6,0,0,0-.611.488,2.165,2.165,0,0,0-.364.783,4.2,4.2,0,0,0-.12,1.05,3.01,3.01,0,0,0,.484,1.823A1.713,1.713,0,0,0,16.552-.812ZM22.37-6.585V0H21.213V-6.585Zm.247-2.067a.736.736,0,0,1-.068.315.908.908,0,0,1-.182.26A.835.835,0,0,1,22.1-7.9a.813.813,0,0,1-.322.065.767.767,0,0,1-.315-.065.817.817,0,0,1-.257-.179.887.887,0,0,1-.176-.26.767.767,0,0,1-.065-.315.813.813,0,0,1,.065-.322.864.864,0,0,1,.176-.267.817.817,0,0,1,.257-.179.767.767,0,0,1,.315-.065.813.813,0,0,1,.322.065.835.835,0,0,1,.267.179.881.881,0,0,1,.182.267A.78.78,0,0,1,22.617-8.651ZM25.36-5.629a3.907,3.907,0,0,1,.455-.436,3,3,0,0,1,.51-.335,2.591,2.591,0,0,1,.572-.215,2.716,2.716,0,0,1,.653-.075,2.378,2.378,0,0,1,.952.179A1.842,1.842,0,0,1,29.191-6a2.239,2.239,0,0,1,.419.79,3.437,3.437,0,0,1,.143,1.02V0H28.59V-4.193a1.772,1.772,0,0,0-.341-1.16,1.268,1.268,0,0,0-1.037-.413,1.945,1.945,0,0,0-.959.247,3.157,3.157,0,0,0-.822.669V0H24.268V-6.585h.7a.286.286,0,0,1,.306.241ZM33.452.1a1.587,1.587,0,0,1-1.2-.435,1.738,1.738,0,0,1-.419-1.254v-4.03h-.793a.259.259,0,0,1-.176-.062.24.24,0,0,1-.072-.192v-.461l1.079-.137L32.139-8.5a.283.283,0,0,1,.088-.159.256.256,0,0,1,.179-.062h.585v2.268h1.9v.838h-1.9v3.952a.841.841,0,0,0,.2.618.7.7,0,0,0,.52.2.918.918,0,0,0,.315-.049A1.353,1.353,0,0,0,34.258-1q.1-.058.166-.107a.217.217,0,0,1,.12-.049.2.2,0,0,1,.163.111l.338.552a2.156,2.156,0,0,1-.722.439A2.45,2.45,0,0,1,33.452.1Zm6.474-5.6a.256.256,0,0,1-.24.143.453.453,0,0,1-.221-.071q-.123-.072-.3-.159a2.839,2.839,0,0,0-.426-.163,2.031,2.031,0,0,0-.585-.075,1.726,1.726,0,0,0-.527.075,1.264,1.264,0,0,0-.4.2.906.906,0,0,0-.254.3.811.811,0,0,0-.088.374.623.623,0,0,0,.146.423,1.271,1.271,0,0,0,.387.293,3.372,3.372,0,0,0,.546.218q.306.094.627.2t.627.237a2.276,2.276,0,0,1,.546.325,1.486,1.486,0,0,1,.387.478,1.462,1.462,0,0,1,.146.679,2.151,2.151,0,0,1-.163.842,1.837,1.837,0,0,1-.481.669,2.319,2.319,0,0,1-.78.445A3.2,3.2,0,0,1,37.807.1,3.325,3.325,0,0,1,36.559-.12,3.162,3.162,0,0,1,35.61-.7l.273-.442a.4.4,0,0,1,.124-.13.333.333,0,0,1,.182-.046.436.436,0,0,1,.247.091q.13.091.315.2a2.4,2.4,0,0,0,.452.2,2.075,2.075,0,0,0,.663.091,1.808,1.808,0,0,0,.591-.088,1.242,1.242,0,0,0,.423-.237.939.939,0,0,0,.25-.345,1.071,1.071,0,0,0,.081-.416.69.69,0,0,0-.146-.452,1.234,1.234,0,0,0-.387-.305,3.152,3.152,0,0,0-.549-.221q-.309-.094-.631-.2t-.631-.237a2.216,2.216,0,0,1-.549-.335,1.516,1.516,0,0,1-.387-.5,1.608,1.608,0,0,1-.146-.718,1.752,1.752,0,0,1,.156-.725,1.777,1.777,0,0,1,.455-.611,2.241,2.241,0,0,1,.735-.419,2.939,2.939,0,0,1,.994-.156,3.145,3.145,0,0,1,1.167.2,2.761,2.761,0,0,1,.894.562Z" transform="translate(29.383 13.236)" fill="#fff"/>
        <g id="Group_5519" data-name="Group 5519" transform="translate(0 20.293)">
          <g id="Group_5495" data-name="Group 5495">
            <path id="Path_1628" data-name="Path 1628" d="M-15.312-7.368a7.213,7.213,0,0,1,.736-.116,6.687,6.687,0,0,1,.68-.036,4.4,4.4,0,0,1,1.608.272A3.293,3.293,0,0,1-11.12-6.5a3.155,3.155,0,0,1,.712,1.124,3.943,3.943,0,0,1,.24,1.388,4.241,4.241,0,0,1-.324,1.68,3.8,3.8,0,0,1-.9,1.3,4.053,4.053,0,0,1-1.364.836,4.842,4.842,0,0,1-1.716.3A4.6,4.6,0,0,1-15.5.016a5.12,5.12,0,0,1-.916-.3,5.108,5.108,0,0,1-.792-.432,5.007,5.007,0,0,1-.652-.516l.608-.84a.59.59,0,0,1,.5-.272.776.776,0,0,1,.408.128q.208.128.476.28a3.923,3.923,0,0,0,.632.28,2.652,2.652,0,0,0,.876.128A2.447,2.447,0,0,0-13.4-1.7a1.87,1.87,0,0,0,.692-.492,2.106,2.106,0,0,0,.416-.752,3.085,3.085,0,0,0,.14-.948A1.962,1.962,0,0,0-12.7-5.372,2.238,2.238,0,0,0-14.32-5.9a5.068,5.068,0,0,0-1.688.3l-1.232-.352.96-5.616h5.712v.84a.931.931,0,0,1-.264.688,1.241,1.241,0,0,1-.9.264H-14.9ZM-3.584-4.36V-8.144a10.794,10.794,0,0,1,.072-1.184L-7.1-4.36Zm3.176,0v1.144a.4.4,0,0,1-.1.276.377.377,0,0,1-.3.116H-1.864V0h-1.72V-2.824h-4.88a.541.541,0,0,1-.352-.124.535.535,0,0,1-.192-.308l-.208-1,5.48-7.32h1.872V-4.36ZM.864-8.344A4.29,4.29,0,0,1,1.328-9.8a3.5,3.5,0,0,1,.86-1.048,3.562,3.562,0,0,1,1.184-.632A4.722,4.722,0,0,1,4.808-11.7a4.306,4.306,0,0,1,1.444.228,3.3,3.3,0,0,1,1.1.632,2.768,2.768,0,0,1,.7.948A2.84,2.84,0,0,1,8.3-8.712a3.442,3.442,0,0,1-.124.972,2.311,2.311,0,0,1-.356.732,2.1,2.1,0,0,1-.576.528,3.585,3.585,0,0,1-.776.36,3.021,3.021,0,0,1,1.552,1,2.7,2.7,0,0,1,.512,1.688A3.479,3.479,0,0,1,8.208-1.9,3.283,3.283,0,0,1,7.344-.788,3.765,3.765,0,0,1,6.084-.1,4.888,4.888,0,0,1,4.568.128a5.173,5.173,0,0,1-1.52-.2A3.3,3.3,0,0,1,1.92-.664a3.575,3.575,0,0,1-.816-.96A6.479,6.479,0,0,1,.528-2.936L1.4-3.3a1.047,1.047,0,0,1,.644-.076.624.624,0,0,1,.436.324q.144.28.316.552a2.239,2.239,0,0,0,.412.484,1.961,1.961,0,0,0,.564.344,2.042,2.042,0,0,0,.772.132,2.186,2.186,0,0,0,.88-.164,1.911,1.911,0,0,0,.628-.428,1.755,1.755,0,0,0,.376-.588,1.812,1.812,0,0,0,.124-.652,3.017,3.017,0,0,0-.088-.756A1.121,1.121,0,0,0,6.1-4.7a2,2,0,0,0-.8-.376,5.8,5.8,0,0,0-1.4-.136V-6.624A5,5,0,0,0,5.1-6.76a2.057,2.057,0,0,0,.764-.356,1.206,1.206,0,0,0,.4-.548,2.119,2.119,0,0,0,.112-.7,1.611,1.611,0,0,0-.456-1.24A1.714,1.714,0,0,0,4.7-10.032a2.014,2.014,0,0,0-.648.1,1.842,1.842,0,0,0-.532.28,1.739,1.739,0,0,0-.4.42,1.826,1.826,0,0,0-.24.528.867.867,0,0,1-.356.488.981.981,0,0,1-.62.056Zm16.264,6.5a.7.7,0,0,1,.508.18.629.629,0,0,1,.188.476V0H9.888V-.656a1.177,1.177,0,0,1,.084-.42,1.077,1.077,0,0,1,.268-.4l3.512-3.52q.44-.448.788-.856a5.526,5.526,0,0,0,.58-.808,3.8,3.8,0,0,0,.356-.812,3,3,0,0,0,.124-.868,2.055,2.055,0,0,0-.12-.732,1.46,1.46,0,0,0-.34-.532,1.407,1.407,0,0,0-.528-.324,2.082,2.082,0,0,0-.692-.108,2.05,2.05,0,0,0-.652.1,1.776,1.776,0,0,0-.532.28,1.775,1.775,0,0,0-.392.42,1.826,1.826,0,0,0-.24.528.875.875,0,0,1-.352.488.986.986,0,0,1-.624.056l-1.04-.184a4.29,4.29,0,0,1,.464-1.46,3.5,3.5,0,0,1,.86-1.048,3.562,3.562,0,0,1,1.184-.632,4.722,4.722,0,0,1,1.436-.212,4.345,4.345,0,0,1,1.464.236,3.292,3.292,0,0,1,1.136.668,3.024,3.024,0,0,1,.736,1.04A3.36,3.36,0,0,1,17.632-8.4a3.6,3.6,0,0,1-.188,1.184,4.923,4.923,0,0,1-.5,1.04,7,7,0,0,1-.74.96q-.424.464-.888.944L12.7-1.608a5.922,5.922,0,0,1,.748-.172,4.452,4.452,0,0,1,.708-.06Z" transform="translate(19.383 15.943)" fill="#ffc400"/>
          </g>
          <g id="reward" transform="translate(45.897 3.716)">
            <g id="Group_5509" data-name="Group 5509" transform="translate(0 0)">
              <path id="Path_1555" data-name="Path 1555" d="M128.174,73.291h-1.635a6.539,6.539,0,0,1,0-13.079h1.635a6.539,6.539,0,0,1,0,13.079Z" transform="translate(-120 -60.212)" fill="#eab14d"/>
            </g>
            <g id="Group_5516" data-name="Group 5516" transform="translate(0 0)">
              <circle id="Ellipse_4" data-name="Ellipse 4" cx="6.539" cy="6.539" r="6.539" transform="translate(0 0)" fill="#ffc400"/>
            </g>
            <g id="Group_5517" data-name="Group 5517" transform="translate(1.635 1.635)">
              <circle id="Ellipse_5" data-name="Ellipse 5" cx="4.905" cy="4.905" r="4.905" transform="translate(0 0)" fill="#ffeba8"/>
            </g>
            <g id="Group_5518" data-name="Group 5518" transform="translate(3.059 2.902)">
              <path id="Path_1561" data-name="Path 1561" d="M183.728,117.237l.854,1.73,1.909.277a.409.409,0,0,1,.227.7l-1.382,1.347.326,1.9a.409.409,0,0,1-.593.431l-1.708-.9-1.708.9a.409.409,0,0,1-.593-.431l.326-1.9-1.382-1.347a.409.409,0,0,1,.227-.7l1.909-.277.854-1.73A.409.409,0,0,1,183.728,117.237Z" transform="translate(-179.881 -117.009)" fill="#eab14d"/>
            </g>
          </g>
        </g>
      </g>
    </g>
    <g id="reward-2" data-name="reward" transform="translate(299.515 1103.773)">
      <g id="Group_5509-2" data-name="Group 5509" transform="translate(0 0)">
        <path id="Path_1555-2" data-name="Path 1555" d="M136.97,87.365h-3.394a13.576,13.576,0,0,1,0-27.153h3.394a13.576,13.576,0,1,1,0,27.153Z" transform="translate(-120 -60.212)" fill="#eab14d"/>
      </g>
      <g id="Group_5516-2" data-name="Group 5516" transform="translate(0 0)">
        <circle id="Ellipse_4-2" data-name="Ellipse 4" cx="13.576" cy="13.576" r="13.576" transform="translate(0 0)" fill="#ffc400"/>
      </g>
      <g id="Group_5517-2" data-name="Group 5517" transform="translate(3.394 3.394)">
        <circle id="Ellipse_5-2" data-name="Ellipse 5" cx="10.182" cy="10.182" r="10.182" transform="translate(0 0)" fill="#ffeba8"/>
      </g>
      <g id="Group_5518-2" data-name="Group 5518" transform="translate(6.351 6.024)">
        <path id="Path_1561-2" data-name="Path 1561" d="M187.867,117.482l1.773,3.592,3.964.576a.849.849,0,0,1,.47,1.447l-2.868,2.8.677,3.948a.849.849,0,0,1-1.231.894l-3.545-1.864-3.545,1.864a.849.849,0,0,1-1.231-.894l.677-3.948-2.868-2.8a.849.849,0,0,1,.47-1.447l3.964-.576,1.773-3.592A.849.849,0,0,1,187.867,117.482Z" transform="translate(-179.881 -117.009)" fill="#eab14d"/>
      </g>
    </g>
    <g id="reward-3" data-name="reward" transform="translate(284.515 1113.773)">
      <g id="Group_5509-3" data-name="Group 5509" transform="translate(0 0)">
        <path id="Path_1555-3" data-name="Path 1555" d="M136.97,87.365h-3.394a13.576,13.576,0,0,1,0-27.153h3.394a13.576,13.576,0,1,1,0,27.153Z" transform="translate(-120 -60.212)" fill="#eab14d"/>
      </g>
      <g id="Group_5516-3" data-name="Group 5516" transform="translate(0 0)">
        <circle id="Ellipse_4-3" data-name="Ellipse 4" cx="13.576" cy="13.576" r="13.576" transform="translate(0 0)" fill="#ffc400"/>
      </g>
      <g id="Group_5517-3" data-name="Group 5517" transform="translate(3.394 3.394)">
        <circle id="Ellipse_5-3" data-name="Ellipse 5" cx="10.182" cy="10.182" r="10.182" transform="translate(0 0)" fill="#ffeba8"/>
      </g>
      <g id="Group_5518-3" data-name="Group 5518" transform="translate(6.351 6.024)">
        <path id="Path_1561-3" data-name="Path 1561" d="M187.867,117.482l1.773,3.592,3.964.576a.849.849,0,0,1,.47,1.447l-2.868,2.8.677,3.948a.849.849,0,0,1-1.231.894l-3.545-1.864-3.545,1.864a.849.849,0,0,1-1.231-.894l.677-3.948-2.868-2.8a.849.849,0,0,1,.47-1.447l3.964-.576,1.773-3.592A.849.849,0,0,1,187.867,117.482Z" transform="translate(-179.881 -117.009)" fill="#eab14d"/>
      </g>
    </g>
  </g>
</svg>
