<svg xmlns="http://www.w3.org/2000/svg" width="209.793" height="125.502" viewBox="0 0 209.793 125.502">
  <g id="Group_5790" data-name="Group 5790" transform="translate(-1090 -994)">
    <g id="Group_5700" data-name="Group 5700" transform="translate(-44 663)">
      <rect id="Rectangle_2919" data-name="Rectangle 2919" width="209.793" height="56.502" rx="12" transform="translate(1134 400)" fill="#fff"/>
      <g id="Group_5694" data-name="Group 5694" transform="translate(1131.968 417)">
        <path id="Path_1634" data-name="Path 1634" d="M5.152-3.976V0H3.668V-3.976L-.014-10.052H1.3a.492.492,0,0,1,.315.094.725.725,0,0,1,.2.249L3.99-5.95q.133.259.242.49T4.424-5Q4.5-5.229,4.6-5.46t.234-.49L7.014-9.709a.9.9,0,0,1,.193-.235.452.452,0,0,1,.312-.108H8.834Zm6.111-3.248a3.759,3.759,0,0,1,1.418.255,2.956,2.956,0,0,1,1.078.735,3.276,3.276,0,0,1,.682,1.155,4.54,4.54,0,0,1,.238,1.515,4.571,4.571,0,0,1-.238,1.519,3.235,3.235,0,0,1-.682,1.155,2.976,2.976,0,0,1-1.078.732A3.759,3.759,0,0,1,11.263.1,3.779,3.779,0,0,1,9.839-.157,3.01,3.01,0,0,1,8.757-.889a3.249,3.249,0,0,1-.689-1.155,4.51,4.51,0,0,1-.242-1.519,4.48,4.48,0,0,1,.242-1.515,3.29,3.29,0,0,1,.689-1.155,2.989,2.989,0,0,1,1.082-.735A3.779,3.779,0,0,1,11.263-7.224Zm0,6.258a1.743,1.743,0,0,0,1.505-.679,3.189,3.189,0,0,0,.5-1.911,3.205,3.205,0,0,0-.5-1.914,1.74,1.74,0,0,0-1.505-.682A1.764,1.764,0,0,0,9.74-5.47a3.188,3.188,0,0,0-.5,1.914,3.172,3.172,0,0,0,.5,1.911A1.768,1.768,0,0,0,11.263-.966Zm10.85-6.146V0h-.819a.35.35,0,0,1-.364-.273l-.1-.714a4.82,4.82,0,0,1-.483.448,2.985,2.985,0,0,1-.539.346A2.965,2.965,0,0,1,19.2.031a2.851,2.851,0,0,1-.693.081,2.539,2.539,0,0,1-1.032-.2,2.05,2.05,0,0,1-.746-.549,2.38,2.38,0,0,1-.455-.85,3.7,3.7,0,0,1-.154-1.1V-7.112h1.372v4.529a1.812,1.812,0,0,0,.35,1.186,1.309,1.309,0,0,0,1.071.424,2.013,2.013,0,0,0,.98-.249,3.341,3.341,0,0,0,.854-.683V-7.112Zm6.811.9a3.888,3.888,0,0,1,.991-.735,2.686,2.686,0,0,1,1.25-.28,2.539,2.539,0,0,1,1.032.2,2.05,2.05,0,0,1,.746.549,2.38,2.38,0,0,1,.455.85,3.7,3.7,0,0,1,.154,1.1V0H32.179V-4.529a1.812,1.812,0,0,0-.35-1.186,1.309,1.309,0,0,0-1.071-.424,2.032,2.032,0,0,0-.983.248,3.277,3.277,0,0,0-.851.675V0H27.559V-10.332h1.365Zm10.29,3.052a10.416,10.416,0,0,0-1.414.129,3.89,3.89,0,0,0-.945.27,1.283,1.283,0,0,0-.525.4.858.858,0,0,0-.161.508,1.1,1.1,0,0,0,.088.458.854.854,0,0,0,.238.315.954.954,0,0,0,.354.178,1.654,1.654,0,0,0,.441.056,2.475,2.475,0,0,0,.577-.063,2.3,2.3,0,0,0,.494-.179,2.482,2.482,0,0,0,.441-.283,3.927,3.927,0,0,0,.413-.385Zm-4-2.961A4.069,4.069,0,0,1,36.5-6.965a4.064,4.064,0,0,1,1.529-.28,2.733,2.733,0,0,1,1.078.2,2.218,2.218,0,0,1,.791.556,2.368,2.368,0,0,1,.486.854,3.482,3.482,0,0,1,.165,1.1V0h-.609a.581.581,0,0,1-.308-.067.458.458,0,0,1-.168-.248l-.147-.623a5.888,5.888,0,0,1-.539.445,3.451,3.451,0,0,1-.556.329A2.842,2.842,0,0,1,37.6.042a3.5,3.5,0,0,1-.728.07A2.612,2.612,0,0,1,36.088,0a1.769,1.769,0,0,1-.64-.353,1.671,1.671,0,0,1-.431-.6,2.049,2.049,0,0,1-.158-.833,1.578,1.578,0,0,1,.228-.808,2.05,2.05,0,0,1,.742-.7,4.77,4.77,0,0,1,1.344-.5,10.047,10.047,0,0,1,2.04-.224v-.518a1.808,1.808,0,0,0-.343-1.2,1.256,1.256,0,0,0-1.008-.4,2.2,2.2,0,0,0-.752.112,2.9,2.9,0,0,0-.525.248q-.22.137-.385.248a.6.6,0,0,1-.34.112.388.388,0,0,1-.242-.077.642.642,0,0,1-.165-.182ZM48.4-7.112,45.521,0H44.289L41.4-7.112h1.127a.438.438,0,0,1,.266.077.367.367,0,0,1,.14.2l1.7,4.368q.091.273.158.543t.122.535q.056-.266.126-.532t.168-.546l1.722-4.368a.406.406,0,0,1,.147-.2.414.414,0,0,1,.252-.077ZM54-4.347a2.334,2.334,0,0,0-.115-.749,1.7,1.7,0,0,0-.34-.6A1.543,1.543,0,0,0,53-6.083a1.846,1.846,0,0,0-.742-.14,1.823,1.823,0,0,0-1.355.5,2.4,2.4,0,0,0-.626,1.379Zm1.127,3.332a2.688,2.688,0,0,1-.581.507,3.372,3.372,0,0,1-.7.346,4.245,4.245,0,0,1-.766.2A4.956,4.956,0,0,1,52.3.1,3.66,3.66,0,0,1,50.942-.15a3.026,3.026,0,0,1-1.085-.728,3.32,3.32,0,0,1-.714-1.19A4.818,4.818,0,0,1,48.888-3.7a4.045,4.045,0,0,1,.231-1.382A3.327,3.327,0,0,1,49.78-6.2a3.05,3.05,0,0,1,1.054-.749,3.453,3.453,0,0,1,1.4-.273,3.287,3.287,0,0,1,1.2.213,2.666,2.666,0,0,1,.949.62,2.867,2.867,0,0,1,.626,1,3.783,3.783,0,0,1,.228,1.358.866.866,0,0,1-.07.423.285.285,0,0,1-.259.109H50.246a3.842,3.842,0,0,0,.182,1.109,2.24,2.24,0,0,0,.444.788,1.766,1.766,0,0,0,.676.469,2.375,2.375,0,0,0,.875.154,2.627,2.627,0,0,0,.787-.105,3.819,3.819,0,0,0,.574-.227q.241-.122.406-.227a.56.56,0,0,1,.291-.105.3.3,0,0,1,.259.126Zm6.475-.735a1.922,1.922,0,0,0,.728.616,2.071,2.071,0,0,0,.854.175,1.731,1.731,0,0,0,1.466-.679,3.379,3.379,0,0,0,.514-2.051,3.054,3.054,0,0,0-.455-1.859,1.53,1.53,0,0,0-1.288-.591,1.9,1.9,0,0,0-1.019.266,3,3,0,0,0-.8.756Zm0-4.382a3.692,3.692,0,0,1,1-.791,2.648,2.648,0,0,1,1.274-.3,2.552,2.552,0,0,1,1.124.241,2.366,2.366,0,0,1,.851.693,3.272,3.272,0,0,1,.539,1.1,5.17,5.17,0,0,1,.189,1.456A5.41,5.41,0,0,1,66.37-2.17a3.647,3.647,0,0,1-.609,1.211,2.732,2.732,0,0,1-.962.78A2.868,2.868,0,0,1,63.525.1,2.791,2.791,0,0,1,62.9.031a2.221,2.221,0,0,1-.528-.192,2.16,2.16,0,0,1-.444-.308,3.273,3.273,0,0,1-.385-.413l-.063.6a.321.321,0,0,1-.35.287h-.882V-10.332h1.365ZM72.821-4.347a2.334,2.334,0,0,0-.116-.749,1.7,1.7,0,0,0-.34-.6,1.543,1.543,0,0,0-.546-.392,1.846,1.846,0,0,0-.742-.14,1.823,1.823,0,0,0-1.354.5A2.4,2.4,0,0,0,69.1-4.347Zm1.127,3.332a2.688,2.688,0,0,1-.581.507,3.372,3.372,0,0,1-.7.346,4.245,4.245,0,0,1-.767.2A4.956,4.956,0,0,1,71.12.1,3.66,3.66,0,0,1,69.758-.15a3.026,3.026,0,0,1-1.085-.728,3.32,3.32,0,0,1-.714-1.19A4.818,4.818,0,0,1,67.7-3.7a4.045,4.045,0,0,1,.231-1.382A3.327,3.327,0,0,1,68.6-6.2a3.05,3.05,0,0,1,1.053-.749,3.453,3.453,0,0,1,1.4-.273,3.287,3.287,0,0,1,1.2.213,2.666,2.666,0,0,1,.949.62,2.867,2.867,0,0,1,.626,1,3.783,3.783,0,0,1,.228,1.358.866.866,0,0,1-.07.423.285.285,0,0,1-.259.109H69.062a3.842,3.842,0,0,0,.182,1.109,2.24,2.24,0,0,0,.444.788,1.766,1.766,0,0,0,.675.469,2.375,2.375,0,0,0,.875.154,2.627,2.627,0,0,0,.788-.105,3.819,3.819,0,0,0,.574-.227q.242-.122.406-.227a.56.56,0,0,1,.29-.105.3.3,0,0,1,.259.126Zm6.286-3.332a2.334,2.334,0,0,0-.116-.749,1.7,1.7,0,0,0-.339-.6,1.543,1.543,0,0,0-.546-.392,1.846,1.846,0,0,0-.742-.14,1.823,1.823,0,0,0-1.354.5,2.4,2.4,0,0,0-.627,1.379Zm1.127,3.332a2.688,2.688,0,0,1-.581.507,3.372,3.372,0,0,1-.7.346,4.245,4.245,0,0,1-.767.2,4.956,4.956,0,0,1-.78.063A3.66,3.66,0,0,1,77.172-.15a3.026,3.026,0,0,1-1.085-.728,3.32,3.32,0,0,1-.714-1.19A4.818,4.818,0,0,1,75.117-3.7a4.045,4.045,0,0,1,.231-1.382A3.327,3.327,0,0,1,76.01-6.2a3.05,3.05,0,0,1,1.053-.749,3.453,3.453,0,0,1,1.4-.273,3.287,3.287,0,0,1,1.2.213,2.666,2.666,0,0,1,.948.62,2.867,2.867,0,0,1,.627,1,3.783,3.783,0,0,1,.228,1.358.866.866,0,0,1-.07.423.285.285,0,0,1-.259.109H76.475a3.842,3.842,0,0,0,.182,1.109A2.24,2.24,0,0,0,77.1-1.6a1.766,1.766,0,0,0,.675.469,2.375,2.375,0,0,0,.875.154,2.627,2.627,0,0,0,.788-.105,3.819,3.819,0,0,0,.574-.227q.242-.122.406-.227a.56.56,0,0,1,.291-.105.3.3,0,0,1,.259.126Zm2.856-5.11a4.819,4.819,0,0,1,.483-.448,3.041,3.041,0,0,1,.535-.346,2.868,2.868,0,0,1,.609-.224,2.894,2.894,0,0,1,.7-.081,2.539,2.539,0,0,1,1.032.2,2.05,2.05,0,0,1,.746.549,2.38,2.38,0,0,1,.455.85,3.7,3.7,0,0,1,.154,1.1V0H87.556V-4.529a1.812,1.812,0,0,0-.35-1.186,1.309,1.309,0,0,0-1.071-.424,2.032,2.032,0,0,0-.983.248,3.277,3.277,0,0,0-.851.675V0H82.936V-7.112h.819a.333.333,0,0,1,.357.273Zm11.375.378a3.254,3.254,0,0,1,.826-1.1,1.766,1.766,0,0,1,1.162-.4,1.77,1.77,0,0,1,.438.052,1.127,1.127,0,0,1,.36.158l-.091,1.029a.222.222,0,0,1-.231.189,1.679,1.679,0,0,1-.294-.038,2.178,2.178,0,0,0-.42-.039,1.649,1.649,0,0,0-.581.095,1.357,1.357,0,0,0-.451.28,1.907,1.907,0,0,0-.354.455,4.555,4.555,0,0,0-.287.613V0H94.3V-7.112h.784a.433.433,0,0,1,.3.081.529.529,0,0,1,.116.284Zm8.288,1.4a2.334,2.334,0,0,0-.116-.749,1.7,1.7,0,0,0-.339-.6,1.543,1.543,0,0,0-.546-.392,1.846,1.846,0,0,0-.742-.14,1.823,1.823,0,0,0-1.354.5,2.4,2.4,0,0,0-.627,1.379Zm1.127,3.332a2.688,2.688,0,0,1-.581.507,3.372,3.372,0,0,1-.7.346,4.245,4.245,0,0,1-.767.2,4.956,4.956,0,0,1-.78.063,3.66,3.66,0,0,1-1.362-.249,3.026,3.026,0,0,1-1.085-.728,3.32,3.32,0,0,1-.714-1.19A4.818,4.818,0,0,1,98.763-3.7a4.045,4.045,0,0,1,.231-1.382A3.327,3.327,0,0,1,99.656-6.2a3.05,3.05,0,0,1,1.053-.749,3.453,3.453,0,0,1,1.4-.273,3.287,3.287,0,0,1,1.2.213,2.666,2.666,0,0,1,.948.62,2.867,2.867,0,0,1,.627,1,3.783,3.783,0,0,1,.228,1.358.866.866,0,0,1-.07.423.285.285,0,0,1-.259.109h-4.662a3.842,3.842,0,0,0,.182,1.109,2.24,2.24,0,0,0,.444.788,1.766,1.766,0,0,0,.675.469,2.375,2.375,0,0,0,.875.154,2.627,2.627,0,0,0,.788-.105,3.819,3.819,0,0,0,.574-.227q.242-.122.406-.227a.56.56,0,0,1,.291-.105.3.3,0,0,1,.259.126Zm11.389-6.1L114.107,0h-1.092q-.2,0-.266-.259l-1.5-4.634q-.056-.175-.1-.346t-.077-.346a5.048,5.048,0,0,1-.175.707l-1.519,4.62a.3.3,0,0,1-.3.259h-1.036l-2.3-7.112h1.078a.454.454,0,0,1,.27.077.361.361,0,0,1,.144.2l1.281,4.368q.063.266.112.518t.091.5q.063-.252.136-.5l.151-.518,1.421-4.4a.362.362,0,0,1,.133-.192.385.385,0,0,1,.238-.074h.6a.424.424,0,0,1,.256.074.356.356,0,0,1,.137.192l1.386,4.4q.077.266.147.521t.126.515q.042-.252.1-.508t.126-.528l1.3-4.368a.361.361,0,0,1,.144-.2.419.419,0,0,1,.248-.077Zm4.9,3.955a10.416,10.416,0,0,0-1.414.129,3.89,3.89,0,0,0-.945.27,1.283,1.283,0,0,0-.525.4.858.858,0,0,0-.161.508,1.1,1.1,0,0,0,.088.458.854.854,0,0,0,.238.315.954.954,0,0,0,.354.178,1.654,1.654,0,0,0,.441.056,2.475,2.475,0,0,0,.577-.063,2.3,2.3,0,0,0,.493-.179,2.482,2.482,0,0,0,.441-.283,3.926,3.926,0,0,0,.413-.385Zm-4-2.961a4.069,4.069,0,0,1,1.291-.847,4.064,4.064,0,0,1,1.53-.28,2.733,2.733,0,0,1,1.078.2,2.218,2.218,0,0,1,.791.556,2.368,2.368,0,0,1,.486.854,3.482,3.482,0,0,1,.164,1.1V0h-.609a.581.581,0,0,1-.308-.067.458.458,0,0,1-.168-.248L121.4-.938a5.888,5.888,0,0,1-.539.445,3.451,3.451,0,0,1-.557.329,2.842,2.842,0,0,1-.619.206,3.5,3.5,0,0,1-.728.07A2.613,2.613,0,0,1,118.171,0a1.769,1.769,0,0,1-.641-.353,1.671,1.671,0,0,1-.43-.6,2.048,2.048,0,0,1-.158-.833,1.578,1.578,0,0,1,.228-.808,2.05,2.05,0,0,1,.742-.7,4.77,4.77,0,0,1,1.344-.5,10.047,10.047,0,0,1,2.04-.224v-.518a1.808,1.808,0,0,0-.343-1.2,1.256,1.256,0,0,0-1.008-.4,2.2,2.2,0,0,0-.753.112,2.9,2.9,0,0,0-.525.248q-.22.137-.385.248a.6.6,0,0,1-.34.112A.388.388,0,0,1,117.7-5.5a.642.642,0,0,1-.164-.182Zm8.463.371a3.254,3.254,0,0,1,.826-1.1,1.766,1.766,0,0,1,1.162-.4,1.77,1.77,0,0,1,.437.052,1.127,1.127,0,0,1,.361.158l-.091,1.029a.222.222,0,0,1-.231.189,1.679,1.679,0,0,1-.294-.038,2.178,2.178,0,0,0-.42-.039,1.649,1.649,0,0,0-.581.095,1.357,1.357,0,0,0-.451.28,1.907,1.907,0,0,0-.354.455,4.555,4.555,0,0,0-.287.613V0h-1.365V-7.112h.784a.433.433,0,0,1,.3.081.529.529,0,0,1,.116.284Zm8.176.357a1.931,1.931,0,0,0-.725-.616,2.1,2.1,0,0,0-.872-.175,1.719,1.719,0,0,0-1.452.676,3.211,3.211,0,0,0-.514,1.97,5.015,5.015,0,0,0,.115,1.158,2.209,2.209,0,0,0,.336.784,1.334,1.334,0,0,0,.543.448A1.77,1.77,0,0,0,132.09-1a1.93,1.93,0,0,0,1.029-.266,3.108,3.108,0,0,0,.812-.749Zm1.372-4.942V0h-.826a.333.333,0,0,1-.357-.273L134-1.092a3.771,3.771,0,0,1-1.033.865A2.669,2.669,0,0,1,131.635.1a2.505,2.505,0,0,1-1.1-.238,2.321,2.321,0,0,1-.843-.7,3.323,3.323,0,0,1-.539-1.137,5.839,5.839,0,0,1-.189-1.561,4.952,4.952,0,0,1,.21-1.47,3.515,3.515,0,0,1,.609-1.176,2.873,2.873,0,0,1,.966-.78,2.825,2.825,0,0,1,1.281-.284,2.585,2.585,0,0,1,1.1.21,2.582,2.582,0,0,1,.809.595v-3.892Zm6.622,5.985a2.334,2.334,0,0,0-.115-.749,1.7,1.7,0,0,0-.34-.6,1.543,1.543,0,0,0-.546-.392,1.846,1.846,0,0,0-.742-.14,1.823,1.823,0,0,0-1.355.5,2.4,2.4,0,0,0-.626,1.379Zm1.127,3.332a2.688,2.688,0,0,1-.581.507,3.372,3.372,0,0,1-.7.346,4.245,4.245,0,0,1-.767.2,4.956,4.956,0,0,1-.781.063,3.66,3.66,0,0,1-1.361-.249,3.026,3.026,0,0,1-1.085-.728,3.32,3.32,0,0,1-.714-1.19,4.818,4.818,0,0,1-.256-1.634,4.045,4.045,0,0,1,.231-1.382A3.327,3.327,0,0,1,137.7-6.2a3.05,3.05,0,0,1,1.053-.749,3.453,3.453,0,0,1,1.4-.273,3.287,3.287,0,0,1,1.2.213,2.666,2.666,0,0,1,.949.62,2.867,2.867,0,0,1,.626,1,3.784,3.784,0,0,1,.227,1.358.866.866,0,0,1-.07.423.285.285,0,0,1-.259.109h-4.662a3.842,3.842,0,0,0,.182,1.109,2.24,2.24,0,0,0,.445.788,1.766,1.766,0,0,0,.675.469,2.375,2.375,0,0,0,.875.154,2.627,2.627,0,0,0,.788-.105,3.818,3.818,0,0,0,.574-.227q.241-.122.406-.227a.56.56,0,0,1,.29-.105.3.3,0,0,1,.259.126Zm6.16-4.375a1.931,1.931,0,0,0-.725-.616,2.1,2.1,0,0,0-.872-.175,1.719,1.719,0,0,0-1.452.676,3.211,3.211,0,0,0-.514,1.97,5.015,5.015,0,0,0,.115,1.158,2.209,2.209,0,0,0,.336.784,1.334,1.334,0,0,0,.543.448,1.77,1.77,0,0,0,.728.143,1.93,1.93,0,0,0,1.029-.266,3.108,3.108,0,0,0,.812-.749Zm1.372-4.942V0h-.826a.333.333,0,0,1-.357-.273l-.119-.819a3.771,3.771,0,0,1-1.033.865A2.669,2.669,0,0,1,146.916.1a2.505,2.505,0,0,1-1.1-.238,2.321,2.321,0,0,1-.843-.7,3.323,3.323,0,0,1-.539-1.137,5.839,5.839,0,0,1-.189-1.561,4.952,4.952,0,0,1,.21-1.47,3.515,3.515,0,0,1,.609-1.176,2.873,2.873,0,0,1,.966-.78,2.825,2.825,0,0,1,1.281-.284,2.585,2.585,0,0,1,1.1.21,2.582,2.582,0,0,1,.809.595v-3.892ZM5.124,9.594l-.329.574L3.612,9.475a2.654,2.654,0,0,1-.231-.157A.841.841,0,0,1,3.2,9.125,1.319,1.319,0,0,1,3.3,9.65v1.358H2.639V9.657a1.859,1.859,0,0,1,.018-.262.846.846,0,0,1,.073-.241,1.035,1.035,0,0,1-.175.175,1.955,1.955,0,0,1-.217.147l-1.176.686L.833,9.587,2.009,8.9a1.913,1.913,0,0,1,.245-.115.994.994,0,0,1,.252-.06,1.21,1.21,0,0,1-.5-.182L.826,7.851l.329-.574,1.183.693a1.956,1.956,0,0,1,.228.161.955.955,0,0,1,.178.2,1.025,1.025,0,0,1-.081-.252A1.5,1.5,0,0,1,2.639,7.8V6.437H3.3V7.788a2.012,2.012,0,0,1-.017.269,1,1,0,0,1-.066.248.927.927,0,0,1,.175-.182q.1-.077.217-.154l1.176-.679.329.574-1.176.679a2.018,2.018,0,0,1-.235.119.857.857,0,0,1-.241.063,1.164,1.164,0,0,1,.476.175Zm5.95,0-.329.574L9.562,9.475a2.655,2.655,0,0,1-.231-.157.841.841,0,0,1-.182-.193,1.319,1.319,0,0,1,.1.525v1.358H8.589V9.657a1.859,1.859,0,0,1,.017-.262.846.846,0,0,1,.074-.241,1.035,1.035,0,0,1-.175.175,1.955,1.955,0,0,1-.217.147l-1.176.686-.329-.574L7.959,8.9A1.913,1.913,0,0,1,8.2,8.786a.994.994,0,0,1,.252-.06,1.21,1.21,0,0,1-.5-.182L6.776,7.851l.329-.574,1.183.693a1.956,1.956,0,0,1,.227.161.955.955,0,0,1,.179.2,1.025,1.025,0,0,1-.081-.252A1.5,1.5,0,0,1,8.589,7.8V6.437h.665V7.788a2.012,2.012,0,0,1-.017.269,1,1,0,0,1-.066.248.927.927,0,0,1,.175-.182q.1-.077.217-.154l1.176-.679.329.574-1.176.679a2.018,2.018,0,0,1-.234.119.857.857,0,0,1-.241.063,1.164,1.164,0,0,1,.476.175Zm5.95,0-.329.574-1.183-.693a2.654,2.654,0,0,1-.231-.157.841.841,0,0,1-.182-.193,1.319,1.319,0,0,1,.105.525v1.358h-.665V9.657a1.859,1.859,0,0,1,.017-.262.846.846,0,0,1,.073-.241,1.035,1.035,0,0,1-.175.175,1.955,1.955,0,0,1-.217.147l-1.176.686-.329-.574L13.909,8.9a1.913,1.913,0,0,1,.245-.115.994.994,0,0,1,.252-.06,1.21,1.21,0,0,1-.5-.182l-1.183-.693.329-.574,1.183.693a1.956,1.956,0,0,1,.228.161.955.955,0,0,1,.178.2,1.025,1.025,0,0,1-.08-.252,1.5,1.5,0,0,1-.024-.273V6.437H15.2V7.788a2.012,2.012,0,0,1-.017.269,1,1,0,0,1-.066.248.927.927,0,0,1,.175-.182q.1-.077.217-.154l1.176-.679.329.574-1.176.679a2.018,2.018,0,0,1-.234.119.857.857,0,0,1-.241.063,1.164,1.164,0,0,1,.476.175Zm5.95,0-.329.574-1.183-.693a2.654,2.654,0,0,1-.231-.157.841.841,0,0,1-.182-.193,1.319,1.319,0,0,1,.1.525v1.358h-.665V9.657a1.858,1.858,0,0,1,.017-.262.846.846,0,0,1,.073-.241,1.035,1.035,0,0,1-.175.175,1.955,1.955,0,0,1-.217.147l-1.176.686-.329-.574L19.859,8.9a1.913,1.913,0,0,1,.245-.115.994.994,0,0,1,.252-.06,1.21,1.21,0,0,1-.5-.182l-1.183-.693.329-.574,1.183.693a1.956,1.956,0,0,1,.228.161.955.955,0,0,1,.178.2,1.025,1.025,0,0,1-.08-.252,1.5,1.5,0,0,1-.024-.273V6.437h.665V7.788a2.012,2.012,0,0,1-.017.269,1,1,0,0,1-.067.248.927.927,0,0,1,.175-.182q.1-.077.217-.154l1.176-.679.329.574-1.176.679a2.018,2.018,0,0,1-.235.119.857.857,0,0,1-.241.063,1.164,1.164,0,0,1,.476.175Zm5.95,0-.329.574-1.183-.693a2.654,2.654,0,0,1-.231-.157A.841.841,0,0,1,27,9.125a1.319,1.319,0,0,1,.105.525v1.358h-.665V9.657a1.858,1.858,0,0,1,.017-.262.846.846,0,0,1,.073-.241,1.035,1.035,0,0,1-.175.175,1.955,1.955,0,0,1-.217.147l-1.176.686-.329-.574L25.809,8.9a1.913,1.913,0,0,1,.245-.115.994.994,0,0,1,.252-.06,1.21,1.21,0,0,1-.5-.182l-1.183-.693.329-.574,1.183.693a1.956,1.956,0,0,1,.228.161.955.955,0,0,1,.178.2,1.025,1.025,0,0,1-.08-.252,1.5,1.5,0,0,1-.024-.273V6.437H27.1V7.788a2.012,2.012,0,0,1-.018.269,1,1,0,0,1-.066.248.927.927,0,0,1,.175-.182q.1-.077.217-.154l1.176-.679.329.574-1.176.679a2.018,2.018,0,0,1-.234.119.858.858,0,0,1-.242.063,1.164,1.164,0,0,1,.476.175ZM36.022,17h-1.5V6.948h1.5Zm11.249-5.026a5.6,5.6,0,0,1-.361,2.051,4.486,4.486,0,0,1-2.593,2.611A5.477,5.477,0,0,1,42.28,17H38.5V6.948h3.78a5.477,5.477,0,0,1,2.037.364A4.479,4.479,0,0,1,46.91,9.927,5.607,5.607,0,0,1,47.271,11.974Zm-1.526,0a4.911,4.911,0,0,0-.245-1.606,3.4,3.4,0,0,0-.7-1.2,2.965,2.965,0,0,0-1.092-.752,3.787,3.787,0,0,0-1.431-.259H40V15.8H42.28a3.788,3.788,0,0,0,1.431-.259,2.965,2.965,0,0,0,1.092-.752,3.4,3.4,0,0,0,.7-1.2A4.9,4.9,0,0,0,45.745,11.974ZM52,11.792a3.322,3.322,0,0,0,1.011-.14,2.053,2.053,0,0,0,.732-.4,1.623,1.623,0,0,0,.441-.609,2.014,2.014,0,0,0,.147-.781,1.552,1.552,0,0,0-.57-1.309,2.773,2.773,0,0,0-1.711-.441H50.638v3.675ZM56.686,17h-1.33a.621.621,0,0,1-.581-.315L52.29,13.2a.741.741,0,0,0-.259-.248.934.934,0,0,0-.42-.074h-.973V17H49.147V6.948h2.9a6.2,6.2,0,0,1,1.676.2,3.257,3.257,0,0,1,1.162.567,2.255,2.255,0,0,1,.679.885,2.939,2.939,0,0,1,.221,1.162,2.978,2.978,0,0,1-.161.987,2.589,2.589,0,0,1-.472.829,2.977,2.977,0,0,1-.76.634,3.724,3.724,0,0,1-1.015.406,1.538,1.538,0,0,1,.483.469Zm5.971-7.112V17H61.292V9.888Zm.259-2.2a.87.87,0,0,1-.077.361,1,1,0,0,1-.207.3.941.941,0,0,1-.3.2.931.931,0,0,1-.364.074.881.881,0,0,1-.357-.074.963.963,0,0,1-.3-.2.951.951,0,0,1-.2-.3.906.906,0,0,1-.073-.361.923.923,0,0,1,.073-.368.951.951,0,0,1,.2-.3.963.963,0,0,1,.3-.2.881.881,0,0,1,.357-.074.931.931,0,0,1,.364.074.941.941,0,0,1,.3.2,1,1,0,0,1,.207.3A.887.887,0,0,1,62.916,7.69Zm3,3.185a4.819,4.819,0,0,1,.483-.448,3.041,3.041,0,0,1,.535-.347,2.85,2.85,0,0,1,1.306-.3,2.539,2.539,0,0,1,1.032.2,2.05,2.05,0,0,1,.746.549,2.38,2.38,0,0,1,.455.851,3.7,3.7,0,0,1,.154,1.1V17H69.258V12.471a1.812,1.812,0,0,0-.35-1.186,1.309,1.309,0,0,0-1.071-.424,2.032,2.032,0,0,0-.983.248,3.277,3.277,0,0,0-.851.675V17H64.638V9.888h.819a.333.333,0,0,1,.357.273Zm15.953-.987-3.948,9.177a.576.576,0,0,1-.168.238.485.485,0,0,1-.308.084H76.433l1.3-2.835L74.816,9.888h1.19a.406.406,0,0,1,.273.084.488.488,0,0,1,.14.189l1.806,4.27q.056.161.108.326t.088.325q.049-.168.105-.332t.119-.326l1.743-4.263a.453.453,0,0,1,.154-.2.392.392,0,0,1,.238-.077Zm3.871-.112a3.759,3.759,0,0,1,1.418.255,2.956,2.956,0,0,1,1.078.735,3.276,3.276,0,0,1,.683,1.155,4.955,4.955,0,0,1,0,3.035,3.235,3.235,0,0,1-.683,1.155,2.976,2.976,0,0,1-1.078.732,4.079,4.079,0,0,1-2.842,0,3.01,3.01,0,0,1-1.081-.732,3.249,3.249,0,0,1-.689-1.155,4.887,4.887,0,0,1,0-3.035,3.29,3.29,0,0,1,.689-1.155,2.989,2.989,0,0,1,1.081-.735A3.779,3.779,0,0,1,85.743,9.776Zm0,6.258a1.743,1.743,0,0,0,1.505-.679,3.189,3.189,0,0,0,.5-1.911,3.205,3.205,0,0,0-.5-1.915,1.74,1.74,0,0,0-1.505-.682,1.764,1.764,0,0,0-1.522.682,3.188,3.188,0,0,0-.5,1.915,3.172,3.172,0,0,0,.5,1.911A1.768,1.768,0,0,0,85.743,16.034Zm10.85-6.146V17h-.819a.35.35,0,0,1-.364-.273l-.1-.714a4.82,4.82,0,0,1-.483.448,2.952,2.952,0,0,1-1.148.57,2.851,2.851,0,0,1-.693.08,2.539,2.539,0,0,1-1.032-.2,2.05,2.05,0,0,1-.746-.549,2.38,2.38,0,0,1-.455-.851,3.7,3.7,0,0,1-.154-1.1V9.888h1.372v4.529a1.812,1.812,0,0,0,.35,1.187,1.309,1.309,0,0,0,1.071.424,2.013,2.013,0,0,0,.98-.249,3.341,3.341,0,0,0,.854-.682V9.888Zm3.2,1.365a3.254,3.254,0,0,1,.826-1.1,1.881,1.881,0,0,1,1.6-.347,1.127,1.127,0,0,1,.36.158l-.091,1.029a.222.222,0,0,1-.231.189,1.68,1.68,0,0,1-.294-.038,2.178,2.178,0,0,0-.42-.039,1.649,1.649,0,0,0-.581.095,1.357,1.357,0,0,0-.451.28,1.907,1.907,0,0,0-.354.455,4.555,4.555,0,0,0-.287.613V17H98.5V9.888h.784a.433.433,0,0,1,.3.081.529.529,0,0,1,.116.283ZM116.48,9.888,114.191,17H113.1q-.2,0-.266-.259l-1.5-4.634q-.056-.175-.1-.347t-.077-.347a5.048,5.048,0,0,1-.175.707l-1.519,4.62a.3.3,0,0,1-.3.259h-1.036l-2.3-7.112h1.078a.454.454,0,0,1,.27.077.361.361,0,0,1,.144.2l1.281,4.368q.063.266.112.518t.091.5q.063-.252.136-.5l.151-.518,1.421-4.4a.362.362,0,0,1,.133-.192.385.385,0,0,1,.238-.074h.6a.424.424,0,0,1,.256.074.356.356,0,0,1,.137.192l1.386,4.4q.077.266.147.521t.126.515q.042-.252.1-.508t.126-.528l1.3-4.368a.361.361,0,0,1,.144-.2.419.419,0,0,1,.248-.077Zm4.9,3.955a10.416,10.416,0,0,0-1.414.129,3.89,3.89,0,0,0-.945.27,1.283,1.283,0,0,0-.525.4.858.858,0,0,0-.161.508,1.1,1.1,0,0,0,.088.458.854.854,0,0,0,.238.315.954.954,0,0,0,.354.179,1.654,1.654,0,0,0,.441.056,2.475,2.475,0,0,0,.577-.063,2.3,2.3,0,0,0,.493-.179,2.482,2.482,0,0,0,.441-.283,3.926,3.926,0,0,0,.413-.385Zm-4-2.961A3.906,3.906,0,0,1,120.2,9.755a2.733,2.733,0,0,1,1.078.2,2.218,2.218,0,0,1,.791.556,2.368,2.368,0,0,1,.486.854,3.482,3.482,0,0,1,.164,1.1V17h-.609a.581.581,0,0,1-.308-.066.458.458,0,0,1-.168-.249l-.147-.623a5.888,5.888,0,0,1-.539.444,3.451,3.451,0,0,1-.557.329,2.842,2.842,0,0,1-.619.206,3.5,3.5,0,0,1-.728.07,2.613,2.613,0,0,1-.787-.115,1.769,1.769,0,0,1-.641-.354,1.671,1.671,0,0,1-.43-.595,2.048,2.048,0,0,1-.158-.833,1.578,1.578,0,0,1,.228-.809,2.05,2.05,0,0,1,.742-.7,4.771,4.771,0,0,1,1.344-.5,10.047,10.047,0,0,1,2.04-.224v-.518a1.808,1.808,0,0,0-.343-1.2,1.256,1.256,0,0,0-1.008-.4,2.2,2.2,0,0,0-.753.112,2.9,2.9,0,0,0-.525.249q-.22.136-.385.248a.6.6,0,0,1-.34.112.388.388,0,0,1-.242-.077.642.642,0,0,1-.164-.182Zm8.575-4.214V17h-1.372V6.668Zm3.346,0V17h-1.372V6.668Zm6.657,5.985a2.334,2.334,0,0,0-.115-.749,1.7,1.7,0,0,0-.34-.6,1.543,1.543,0,0,0-.546-.392,1.846,1.846,0,0,0-.742-.14,1.823,1.823,0,0,0-1.355.5,2.4,2.4,0,0,0-.626,1.379Zm1.127,3.332a2.688,2.688,0,0,1-.581.508,3.372,3.372,0,0,1-.7.347,4.245,4.245,0,0,1-.767.2,4.956,4.956,0,0,1-.781.063,3.66,3.66,0,0,1-1.361-.248,3.026,3.026,0,0,1-1.085-.728,3.32,3.32,0,0,1-.714-1.19,4.818,4.818,0,0,1-.256-1.634,4.045,4.045,0,0,1,.231-1.382,3.327,3.327,0,0,1,.661-1.116,3.05,3.05,0,0,1,1.053-.749,3.453,3.453,0,0,1,1.4-.273,3.287,3.287,0,0,1,1.2.213,2.666,2.666,0,0,1,.949.62,2.867,2.867,0,0,1,.626,1,3.784,3.784,0,0,1,.227,1.358.866.866,0,0,1-.07.424.285.285,0,0,1-.259.108h-4.662a3.842,3.842,0,0,0,.182,1.109,2.24,2.24,0,0,0,.445.788,1.766,1.766,0,0,0,.675.469,2.375,2.375,0,0,0,.875.154,2.627,2.627,0,0,0,.788-.105,3.819,3.819,0,0,0,.574-.227q.241-.122.406-.227a.56.56,0,0,1,.29-.105.3.3,0,0,1,.259.126Zm3.745,1.127a1.757,1.757,0,0,1-1.326-.483,1.908,1.908,0,0,1-.465-1.379V10.994h-.826a.266.266,0,0,1-.28-.294v-.553l1.155-.161.308-2.121a.33.33,0,0,1,.109-.186.313.313,0,0,1,.206-.066h.693V10h2.016v.994H140.4v4.165a.852.852,0,0,0,.206.626.716.716,0,0,0,.529.207.965.965,0,0,0,.326-.049,1.3,1.3,0,0,0,.234-.108q.1-.06.168-.109a.227.227,0,0,1,.126-.049.167.167,0,0,1,.109.031.393.393,0,0,1,.08.1l.406.658a2.358,2.358,0,0,1-.8.476A2.785,2.785,0,0,1,140.826,17.112Z" transform="translate(29.032 8)" fill="#375674"/>
      </g>
    </g>
    <g id="Group_5701" data-name="Group 5701" transform="translate(1163.968 994)">
      <path id="Path_258" data-name="Path 258" d="M30.83,0A30.83,30.83,0,1,1,0,30.83,30.83,30.83,0,0,1,30.83,0Z" fill="#00c48c"/>
      <path id="Path_1515" data-name="Path 1515" d="M177.221,166.247a3.129,3.129,0,0,1,0,4.43l-20.363,20.363a3.13,3.13,0,0,1-4.43,0l-10.181-10.181a3.132,3.132,0,0,1,4.43-4.43l7.966,7.966,18.148-18.148A3.128,3.128,0,0,1,177.221,166.247Zm0,0" transform="translate(-128.595 -149.202)" fill="#fafafa"/>
    </g>
  </g>
</svg>
