<svg xmlns="http://www.w3.org/2000/svg" width="130.434" height="130.434" viewBox="0 0 130.434 130.434">
  <g id="travel_1_" data-name="travel (1)" transform="translate(0)">
    <path id="Path_1572" data-name="Path 1572" d="M127.57,74.785a63.8,63.8,0,0,1-53.564,62.97,39.063,39.063,0,0,0-38.02-30.1H9.112A63.789,63.789,0,1,1,127.57,74.785Z" transform="translate(0 -8.136)" fill="#fff"/>
    <path id="Path_1575" data-name="Path 1575" d="M44.828,0a3.905,3.905,0,0,0-3.905,3.905V107.242a3.7,3.7,0,0,1-6.429,2.483,64.023,64.023,0,0,1-7.63-10.2V23.431h-.781A2.083,2.083,0,0,1,24,21.348V12.5a2.083,2.083,0,0,1,2.083-2.083h.781V3.905A3.905,3.905,0,0,1,30.769,0Z" transform="translate(-17.752)" fill="#453d83"/>
    <path id="Path_1576" data-name="Path 1576" d="M128.933,23.431v5.207h.26a2.083,2.083,0,0,1,2.083,2.083v8.852a2.083,2.083,0,0,1-2.083,2.083h-.26v87.737l-.193.227a64.242,64.242,0,0,1-10.221.815A63.543,63.543,0,0,1,76.345,114.5,6.892,6.892,0,0,1,74,109.337V3.905A3.905,3.905,0,0,1,77.905,0h47.123a3.905,3.905,0,0,1,3.905,3.905v6.509h.26a2.083,2.083,0,0,1,2.083,2.083v8.852a2.083,2.083,0,0,1-2.083,2.083Z" transform="translate(-54.734)" fill="#5f55af"/>
    <path id="Path_1577" data-name="Path 1577" d="M113.987,98.905v82.009a3.905,3.905,0,0,1-3.905,3.905H69.006A64.16,64.16,0,0,1,64,179.9v-81A3.905,3.905,0,0,1,67.905,95h42.176A3.905,3.905,0,0,1,113.987,98.905Z" transform="translate(-47.338 -70.267)" fill="#fff5f5"/>
    <path id="Path_1578" data-name="Path 1578" d="M64,65.621V53.905A3.905,3.905,0,0,1,67.905,50h42.176a3.905,3.905,0,0,1,3.905,3.905V65.621Z" transform="translate(-47.338 -36.983)" fill="#ffc14f"/>
    <path id="Path_1579" data-name="Path 1579" d="M141.272,21.405H134.5a1.953,1.953,0,1,1,0-3.905h6.769a1.953,1.953,0,1,1,0,3.905Zm-12.366-1.953a1.953,1.953,0,1,0-1.953,1.953A1.953,1.953,0,0,0,128.905,19.453ZM137.757,132.7h-7.81a3.907,3.907,0,0,0-3.828,3.127,63.407,63.407,0,0,0,11.167,4.683h.471a3.905,3.905,0,0,0,0-7.81Z" transform="translate(-92.457 -12.944)" fill="#19305c"/>
    <path id="Path_1580" data-name="Path 1580" d="M112.952,76.166H91.083a2.083,2.083,0,0,1,0-4.166h21.869a2.083,2.083,0,1,1,0,4.166Z" transform="translate(-65.829 -53.255)" fill="#f29500"/>
    <path id="Path_1581" data-name="Path 1581" d="M121.543,163.431H92.905A3.905,3.905,0,0,1,89,159.526V143.905A3.905,3.905,0,0,1,92.905,140h28.638a3.905,3.905,0,0,1,3.905,3.905v15.621A3.905,3.905,0,0,1,121.543,163.431Z" transform="translate(-65.829 -103.551)" fill="#f44545"/>
    <path id="Path_1582" data-name="Path 1582" d="M106.81,156.083a2.083,2.083,0,0,1-2.083,2.083h-3.645a2.083,2.083,0,1,1,0-4.166h3.645A2.083,2.083,0,0,1,106.81,156.083ZM115.141,154H111.5a2.083,2.083,0,1,0,0,4.166h3.645a2.083,2.083,0,1,0,0-4.166Zm13.017,0H121.91a2.083,2.083,0,0,0,0,4.166h6.248a2.083,2.083,0,0,0,0-4.166Z" transform="translate(-73.226 -113.907)" fill="#c50048"/>
    <path id="Path_1583" data-name="Path 1583" d="M86.65,291.609H72.591a2.083,2.083,0,1,1,0-4.166H86.65a2.083,2.083,0,1,1,0,4.166ZM113.987,270H64v13.017h49.987Zm0,39.052H64V296.035h49.987Z" transform="translate(-47.338 -199.706)" fill="#c8e2fd"/>
    <path id="Path_1584" data-name="Path 1584" d="M112.952,291.166H91.083a2.083,2.083,0,0,1,0-4.166h21.869a2.083,2.083,0,1,1,0,4.166Zm-.521,23.952a2.083,2.083,0,0,0-2.083-2.083H91.083a2.083,2.083,0,1,0,0,4.166h19.266A2.083,2.083,0,0,0,112.431,315.117Z" transform="translate(-65.829 -212.281)" fill="#86befb"/>
    <path id="Path_1585" data-name="Path 1585" d="M274.087,323.714H216.81A7.81,7.81,0,0,1,209,315.9V275.81a7.81,7.81,0,0,1,7.81-7.81h57.276a7.81,7.81,0,0,1,7.81,7.81V315.9A7.81,7.81,0,0,1,274.087,323.714Z" transform="translate(-154.588 -198.227)" fill="#ffc14f"/>
    <path id="Path_1586" data-name="Path 1586" d="M225.768,323.714H216.81A7.81,7.81,0,0,1,209,315.9V275.81a7.81,7.81,0,0,1,7.81-7.81h8.958a7.81,7.81,0,0,0-7.81,7.81V315.9A7.81,7.81,0,0,0,225.768,323.714Z" transform="translate(-154.588 -198.227)" fill="#ffa90b"/>
    <path id="Path_1587" data-name="Path 1587" d="M381.176,352.81a7.81,7.81,0,0,1-7.81,7.81H346.81a7.81,7.81,0,1,1,0-15.621h26.555A7.81,7.81,0,0,1,381.176,352.81Z" transform="translate(-250.743 -255.18)" fill="#f44545"/>
    <path id="Path_1588" data-name="Path 1588" d="M354.621,360.621h-7.81a7.81,7.81,0,1,1,0-15.621h7.81a7.81,7.81,0,1,0,0,15.621Z" transform="translate(-250.743 -255.18)" fill="#c50048"/>
    <path id="Path_1589" data-name="Path 1589" d="M146.81,193.905A3.905,3.905,0,1,1,142.905,190,3.905,3.905,0,0,1,146.81,193.905Z" transform="translate(-102.812 -140.534)" fill="#ffe7c0"/>
    <path id="Path_1590" data-name="Path 1590" d="M106.81,193.905A3.905,3.905,0,1,1,102.905,190,3.905,3.905,0,0,1,106.81,193.905Zm93.725,44.259a3.905,3.905,0,1,1-3.905-3.905A3.905,3.905,0,0,1,200.535,238.164Z" transform="translate(-73.226 -140.534)" fill="#fff36c"/>
  </g>
</svg>
