<svg xmlns="http://www.w3.org/2000/svg" width="214.938" height="84.512" viewBox="0 0 214.938 84.512">
  <g id="Group_5788" data-name="Group 5788" transform="translate(-442 -1026)">
    <g id="Group_5734" data-name="Group 5734" transform="translate(25 -2)">
      <g id="Group_5729" data-name="Group 5729" transform="translate(438 1075)">
        <g id="Group_5726" data-name="Group 5726" transform="translate(0 0)">
          <rect id="Rectangle_2920" data-name="Rectangle 2920" width="165.679" height="37.512" rx="6" transform="translate(0 0)"/>
        </g>
        <path id="Path_1630" data-name="Path 1630" d="M3.786-4.314a2.432,2.432,0,0,0,.774-.111,1.466,1.466,0,0,0,.549-.318,1.288,1.288,0,0,0,.327-.5,1.929,1.929,0,0,0,.108-.663,1.75,1.75,0,0,0-.108-.63,1.245,1.245,0,0,0-.324-.48,1.441,1.441,0,0,0-.546-.3,2.583,2.583,0,0,0-.78-.105H2.58v3.114Zm0-4.362a4.951,4.951,0,0,1,1.506.2,2.9,2.9,0,0,1,1.05.57,2.26,2.26,0,0,1,.615.876,3.018,3.018,0,0,1,.2,1.116,3.083,3.083,0,0,1-.21,1.155,2.4,2.4,0,0,1-.63.9,2.929,2.929,0,0,1-1.053.588,4.7,4.7,0,0,1-1.479.21H2.58V0H.966V-8.676Zm5.856-.24V0H8.16V-8.916Zm4.734,6.288a8.173,8.173,0,0,0-1.08.111,2.879,2.879,0,0,0-.7.207.923.923,0,0,0-.378.294.639.639,0,0,0-.114.366.643.643,0,0,0,.231.558,1,1,0,0,0,.6.168,1.759,1.759,0,0,0,.789-.165,2.343,2.343,0,0,0,.651-.5ZM10.98-5.3a3.653,3.653,0,0,1,2.556-.972,2.5,2.5,0,0,1,.966.177,2.041,2.041,0,0,1,.72.492,2.106,2.106,0,0,1,.447.753,2.894,2.894,0,0,1,.153.96V0H15.15a.679.679,0,0,1-.324-.063.437.437,0,0,1-.18-.255l-.132-.444a5.358,5.358,0,0,1-.456.369,2.684,2.684,0,0,1-.462.267,2.482,2.482,0,0,1-.513.165,2.956,2.956,0,0,1-.6.057,2.364,2.364,0,0,1-.72-.105,1.582,1.582,0,0,1-.57-.315,1.414,1.414,0,0,1-.372-.522,1.852,1.852,0,0,1-.132-.726,1.445,1.445,0,0,1,.078-.465,1.359,1.359,0,0,1,.255-.441,2.123,2.123,0,0,1,.459-.4,2.983,2.983,0,0,1,.693-.324,5.988,5.988,0,0,1,.957-.225,9.56,9.56,0,0,1,1.248-.1v-.36a1.347,1.347,0,0,0-.264-.915.966.966,0,0,0-.762-.3,1.809,1.809,0,0,0-.6.084,2.457,2.457,0,0,0-.417.189l-.327.189a.647.647,0,0,1-.327.084.427.427,0,0,1-.264-.081.677.677,0,0,1-.174-.189Zm11.652-.858L19.278,1.692a.573.573,0,0,1-.171.237.523.523,0,0,1-.321.081h-1.1L18.834-.462l-2.49-5.694h1.3a.409.409,0,0,1,.273.084.537.537,0,0,1,.147.192l1.308,3.192a2.954,2.954,0,0,1,.111.324q.045.162.087.33.054-.168.108-.333t.12-.327L21.036-5.88a.437.437,0,0,1,.159-.2.423.423,0,0,1,.249-.078ZM27-4.956a.4.4,0,0,1-.126.135.326.326,0,0,1-.168.039.529.529,0,0,1-.231-.06q-.123-.06-.285-.135a2.61,2.61,0,0,0-.369-.135,1.767,1.767,0,0,0-.489-.06,1.126,1.126,0,0,0-.687.186A.579.579,0,0,0,24.4-4.5a.464.464,0,0,0,.129.333,1.16,1.16,0,0,0,.342.237,3.347,3.347,0,0,0,.483.183q.27.081.549.177t.549.219a1.925,1.925,0,0,1,.483.312,1.449,1.449,0,0,1,.342.453,1.437,1.437,0,0,1,.129.636,2.077,2.077,0,0,1-.159.819,1.769,1.769,0,0,1-.471.648A2.221,2.221,0,0,1,26-.057,3.348,3.348,0,0,1,24.942.1a3.352,3.352,0,0,1-.621-.057,3.665,3.665,0,0,1-.582-.159,3.221,3.221,0,0,1-.516-.24,2.5,2.5,0,0,1-.417-.3l.342-.564A.484.484,0,0,1,23.3-1.38a.437.437,0,0,1,.228-.054.479.479,0,0,1,.261.078q.123.078.285.168a2.548,2.548,0,0,0,.381.168,1.676,1.676,0,0,0,.555.078A1.44,1.44,0,0,0,25.467-1a.959.959,0,0,0,.312-.165.619.619,0,0,0,.18-.237.711.711,0,0,0,.057-.279.5.5,0,0,0-.129-.354,1.129,1.129,0,0,0-.342-.24,3.3,3.3,0,0,0-.486-.183q-.273-.081-.558-.177a5.162,5.162,0,0,1-.558-.225,1.9,1.9,0,0,1-.486-.327,1.48,1.48,0,0,1-.342-.486,1.7,1.7,0,0,1-.129-.7,1.773,1.773,0,0,1,.15-.72,1.689,1.689,0,0,1,.441-.6A2.19,2.19,0,0,1,24.3-6.1a3.024,3.024,0,0,1,1-.153,3.077,3.077,0,0,1,1.158.21,2.615,2.615,0,0,1,.87.552ZM30.57.1a1.617,1.617,0,0,1-1.233-.453,1.746,1.746,0,0,1-.429-1.251V-5.046h-.63a.289.289,0,0,1-.2-.078.3.3,0,0,1-.084-.234v-.588l.99-.162.312-1.68a.329.329,0,0,1,.114-.186.339.339,0,0,1,.216-.066h.768V-6.1h1.644v1.056H30.39V-1.71a.663.663,0,0,0,.141.45.486.486,0,0,0,.387.162.7.7,0,0,0,.231-.033,1.271,1.271,0,0,0,.162-.069q.069-.036.123-.069a.206.206,0,0,1,.108-.033.17.17,0,0,1,.108.033.5.5,0,0,1,.09.1l.444.72a2.243,2.243,0,0,1-.744.408A2.769,2.769,0,0,1,30.57.1Zm5.088-6.348A3.356,3.356,0,0,1,36.9-6.03a2.728,2.728,0,0,1,.96.63,2.767,2.767,0,0,1,.615,1,3.789,3.789,0,0,1,.216,1.314,3.807,3.807,0,0,1-.216,1.32,2.828,2.828,0,0,1-.615,1,2.688,2.688,0,0,1-.96.636A3.356,3.356,0,0,1,35.658.09,3.4,3.4,0,0,1,34.4-.132a2.683,2.683,0,0,1-.963-.636,2.863,2.863,0,0,1-.618-1A3.76,3.76,0,0,1,32.6-3.09,3.742,3.742,0,0,1,32.823-4.4a2.8,2.8,0,0,1,.618-1,2.722,2.722,0,0,1,.963-.63A3.4,3.4,0,0,1,35.658-6.252Zm0,5.2a1.3,1.3,0,0,0,1.137-.516,2.587,2.587,0,0,0,.369-1.512A2.617,2.617,0,0,0,36.795-4.6a1.3,1.3,0,0,0-1.137-.522,1.324,1.324,0,0,0-1.155.525,2.587,2.587,0,0,0-.375,1.515A2.558,2.558,0,0,0,34.5-1.569,1.33,1.33,0,0,0,35.658-1.05Zm5.568-4.038a2.654,2.654,0,0,1,.684-.867,1.458,1.458,0,0,1,.936-.315,1.145,1.145,0,0,1,.684.186l-.1,1.11a.287.287,0,0,1-.087.153.24.24,0,0,1-.153.045,1.748,1.748,0,0,1-.267-.03,2.063,2.063,0,0,0-.345-.03,1.242,1.242,0,0,0-.438.072,1.1,1.1,0,0,0-.345.207,1.411,1.411,0,0,0-.27.327,3.191,3.191,0,0,0-.219.438V0H39.828V-6.156h.87a.479.479,0,0,1,.318.081.476.476,0,0,1,.12.291Zm6.87,1.3a1.783,1.783,0,0,0-.081-.543,1.291,1.291,0,0,0-.243-.447,1.13,1.13,0,0,0-.411-.3,1.411,1.411,0,0,0-.579-.111,1.373,1.373,0,0,0-1.011.366A1.8,1.8,0,0,0,45.3-3.786Zm-2.826.894a2.916,2.916,0,0,0,.168.819,1.675,1.675,0,0,0,.348.57,1.363,1.363,0,0,0,.513.336,1.864,1.864,0,0,0,.657.111,2.037,2.037,0,0,0,.621-.084,2.912,2.912,0,0,0,.456-.186q.2-.1.342-.186A.574.574,0,0,1,48.66-1.6a.307.307,0,0,1,.276.138l.426.54a2.47,2.47,0,0,1-.552.483,3.1,3.1,0,0,1-.639.312,3.493,3.493,0,0,1-.678.165,4.855,4.855,0,0,1-.669.048A3.288,3.288,0,0,1,45.63-.123a2.673,2.673,0,0,1-.96-.63,2.956,2.956,0,0,1-.642-1.032,3.994,3.994,0,0,1-.234-1.425A3.408,3.408,0,0,1,44-4.395a2.849,2.849,0,0,1,.585-.966,2.754,2.754,0,0,1,.93-.651,3.063,3.063,0,0,1,1.239-.24,3.013,3.013,0,0,1,1.074.186,2.34,2.34,0,0,1,.846.543,2.515,2.515,0,0,1,.555.876,3.264,3.264,0,0,1,.2,1.185.962.962,0,0,1-.072.453.3.3,0,0,1-.276.117Zm15.4-5.784L57.168,0H55.71l-3.5-8.676h1.3a.543.543,0,0,1,.342.1.624.624,0,0,1,.2.264l2.046,5.292q.1.258.2.567t.177.645q.072-.336.156-.645a5.394,5.394,0,0,1,.186-.567L58.836-8.31a.568.568,0,0,1,.189-.252.531.531,0,0,1,.345-.114Zm2.436,2.424a3.356,3.356,0,0,1,1.245.222,2.728,2.728,0,0,1,.96.63,2.767,2.767,0,0,1,.615,1,3.789,3.789,0,0,1,.216,1.314,3.807,3.807,0,0,1-.216,1.32,2.828,2.828,0,0,1-.615,1,2.688,2.688,0,0,1-.96.636A3.356,3.356,0,0,1,63.108.09a3.4,3.4,0,0,1-1.254-.222,2.683,2.683,0,0,1-.963-.636,2.863,2.863,0,0,1-.618-1,3.76,3.76,0,0,1-.219-1.32A3.742,3.742,0,0,1,60.273-4.4a2.8,2.8,0,0,1,.618-1,2.722,2.722,0,0,1,.963-.63A3.4,3.4,0,0,1,63.108-6.252Zm0,5.2a1.3,1.3,0,0,0,1.137-.516,2.587,2.587,0,0,0,.369-1.512A2.617,2.617,0,0,0,64.245-4.6a1.3,1.3,0,0,0-1.137-.522,1.324,1.324,0,0,0-1.155.525,2.587,2.587,0,0,0-.375,1.515,2.558,2.558,0,0,0,.375,1.509A1.33,1.33,0,0,0,63.108-1.05Zm9.474-5.106V0h-.906A.349.349,0,0,1,71.3-.27l-.1-.492a3.307,3.307,0,0,1-.834.621A2.3,2.3,0,0,1,69.294.1,2.186,2.186,0,0,1,68.4-.075a1.785,1.785,0,0,1-.651-.483,2.115,2.115,0,0,1-.4-.741,3.136,3.136,0,0,1-.135-.945V-6.156H68.7v3.912a1.315,1.315,0,0,0,.261.873.967.967,0,0,0,.783.309,1.565,1.565,0,0,0,.72-.171A2.517,2.517,0,0,0,71.1-1.7V-6.156Zm5.874,1.3a.739.739,0,0,1-.129.132.3.3,0,0,1-.183.048.407.407,0,0,1-.222-.069q-.108-.069-.258-.156a1.929,1.929,0,0,0-.357-.156,1.64,1.64,0,0,0-.513-.069,1.565,1.565,0,0,0-.684.141,1.3,1.3,0,0,0-.489.4,1.825,1.825,0,0,0-.291.639,3.431,3.431,0,0,0-.1.849,3.329,3.329,0,0,0,.105.876,1.873,1.873,0,0,0,.3.645,1.3,1.3,0,0,0,.48.4,1.455,1.455,0,0,0,.636.135,1.577,1.577,0,0,0,.573-.087,1.808,1.808,0,0,0,.369-.192q.15-.105.261-.192A.393.393,0,0,1,78.21-1.6a.3.3,0,0,1,.27.138l.426.54a2.679,2.679,0,0,1-.534.483,2.886,2.886,0,0,1-.6.312,3.036,3.036,0,0,1-.636.165,4.477,4.477,0,0,1-.651.048,2.73,2.73,0,0,1-1.074-.213,2.537,2.537,0,0,1-.882-.621,2.965,2.965,0,0,1-.6-1,3.86,3.86,0,0,1-.219-1.347,3.915,3.915,0,0,1,.195-1.257,2.848,2.848,0,0,1,.573-1,2.627,2.627,0,0,1,.936-.663,3.224,3.224,0,0,1,1.284-.24,3.054,3.054,0,0,1,1.209.222,2.954,2.954,0,0,1,.933.636ZM81.312-5.5a3.218,3.218,0,0,1,.792-.546,2.3,2.3,0,0,1,1.014-.21,2.207,2.207,0,0,1,.894.171,1.767,1.767,0,0,1,.651.48,2.11,2.11,0,0,1,.4.738,3.136,3.136,0,0,1,.135.945V0H83.712V-3.918a1.325,1.325,0,0,0-.258-.873.966.966,0,0,0-.786-.309,1.543,1.543,0,0,0-.72.174,2.58,2.58,0,0,0-.636.474V0H79.83V-8.916h1.482Zm9.252,1.71a1.783,1.783,0,0,0-.081-.543,1.29,1.29,0,0,0-.243-.447,1.13,1.13,0,0,0-.411-.3,1.411,1.411,0,0,0-.579-.111,1.373,1.373,0,0,0-1.011.366,1.8,1.8,0,0,0-.471,1.038Zm-2.826.894a2.916,2.916,0,0,0,.168.819,1.675,1.675,0,0,0,.348.57,1.363,1.363,0,0,0,.513.336,1.864,1.864,0,0,0,.657.111,2.037,2.037,0,0,0,.621-.084,2.912,2.912,0,0,0,.456-.186q.195-.1.342-.186a.574.574,0,0,1,.285-.084.307.307,0,0,1,.276.138l.426.54a2.47,2.47,0,0,1-.552.483,3.1,3.1,0,0,1-.639.312,3.493,3.493,0,0,1-.678.165,4.855,4.855,0,0,1-.669.048A3.288,3.288,0,0,1,88.1-.123a2.673,2.673,0,0,1-.96-.63A2.956,2.956,0,0,1,86.5-1.785a3.994,3.994,0,0,1-.234-1.425,3.408,3.408,0,0,1,.2-1.185,2.849,2.849,0,0,1,.585-.966,2.754,2.754,0,0,1,.93-.651,3.063,3.063,0,0,1,1.239-.24,3.014,3.014,0,0,1,1.074.186,2.34,2.34,0,0,1,.846.543,2.515,2.515,0,0,1,.555.876,3.264,3.264,0,0,1,.2,1.185.962.962,0,0,1-.072.453.3.3,0,0,1-.276.117Zm6.666-2.2a2.655,2.655,0,0,1,.684-.867,1.458,1.458,0,0,1,.936-.315,1.145,1.145,0,0,1,.684.186l-.1,1.11a.287.287,0,0,1-.087.153.24.24,0,0,1-.153.045,1.748,1.748,0,0,1-.267-.03,2.063,2.063,0,0,0-.345-.03,1.242,1.242,0,0,0-.438.072,1.1,1.1,0,0,0-.345.207,1.411,1.411,0,0,0-.27.327,3.191,3.191,0,0,0-.219.438V0H93.006V-6.156h.87a.479.479,0,0,1,.318.081.476.476,0,0,1,.12.291Z" transform="translate(38 23)" fill="#fff"/>
      </g>
      <g id="social-media" transform="translate(448.833 1081.931)">
        <path id="Path_7" data-name="Path 7" d="M184.879,140.061v21.69a1.457,1.457,0,0,0,2.219,1.241l17.79-10.92a1.456,1.456,0,0,0-.008-2.487l-17.791-10.77A1.456,1.456,0,0,0,184.879,140.061Z" transform="translate(-184.879 -138.602)" fill="#ffc100"/>
        <path id="Path_8" data-name="Path 8" d="M185.979,163.164l14.844-16.035-13.735-8.315a1.457,1.457,0,0,0-2.211,1.246V161.75A1.453,1.453,0,0,0,185.979,163.164Z" transform="translate(-184.877 -138.601)" fill="#d8e86d"/>
        <path id="Path_9" data-name="Path 9" d="M187.1,163.4l12.213-7.5,1.514-.93-14.851-15.917a1.452,1.452,0,0,0-1.094,1.411v21.69A1.457,1.457,0,0,0,187.1,163.4Z" transform="translate(-184.877 -139.007)" fill="#f52b2b"/>
        <path id="Path_10" data-name="Path 10" d="M185.978,163.57l11.388-12.3-11.4-12.213a1.452,1.452,0,0,0-1.094,1.411v21.69A1.453,1.453,0,0,0,185.978,163.57Z" transform="translate(-184.876 -139.007)" fill="#00b7ad"/>
      </g>
    </g>
    <g id="Group_5735" data-name="Group 5735" transform="translate(-46 -8)">
      <g id="Group_5731" data-name="Group 5731" transform="translate(488 1034)">
        <rect id="Rectangle_2920-2" data-name="Rectangle 2920" width="214.938" height="36.772" rx="6" transform="translate(0)" fill="#fff"/>
        <path id="Path_1629" data-name="Path 1629" d="M10.374-8.676V0H8.952V-5.6q0-.336.036-.726L6.366-1.4a.606.606,0,0,1-.57.354H5.568A.606.606,0,0,1,5-1.4L2.346-6.348q.018.2.03.39t.012.354V0H.966V-8.676H2.184q.108,0,.186.006a.5.5,0,0,1,.141.03.306.306,0,0,1,.114.078.666.666,0,0,1,.1.144L5.322-3.6q.1.192.189.4t.171.42q.084-.222.174-.429t.192-.4L8.61-8.418a.606.606,0,0,1,.1-.144.333.333,0,0,1,.117-.078.5.5,0,0,1,.141-.03q.078-.006.186-.006ZM14.61-6.252a3.356,3.356,0,0,1,1.245.222,2.728,2.728,0,0,1,.96.63,2.767,2.767,0,0,1,.615,1,3.789,3.789,0,0,1,.216,1.314,3.807,3.807,0,0,1-.216,1.32,2.828,2.828,0,0,1-.615,1,2.688,2.688,0,0,1-.96.636A3.356,3.356,0,0,1,14.61.09a3.4,3.4,0,0,1-1.254-.222,2.682,2.682,0,0,1-.963-.636,2.863,2.863,0,0,1-.618-1,3.76,3.76,0,0,1-.219-1.32A3.742,3.742,0,0,1,11.775-4.4a2.8,2.8,0,0,1,.618-1,2.722,2.722,0,0,1,.963-.63A3.4,3.4,0,0,1,14.61-6.252Zm0,5.2a1.3,1.3,0,0,0,1.137-.516,2.587,2.587,0,0,0,.369-1.512A2.617,2.617,0,0,0,15.747-4.6a1.3,1.3,0,0,0-1.137-.522,1.324,1.324,0,0,0-1.155.525,2.587,2.587,0,0,0-.375,1.515,2.558,2.558,0,0,0,.375,1.509A1.33,1.33,0,0,0,14.61-1.05ZM20.262-1.6a1.458,1.458,0,0,0,.549.432,1.589,1.589,0,0,0,.627.126,1.481,1.481,0,0,0,.615-.123,1.17,1.17,0,0,0,.465-.384,1.9,1.9,0,0,0,.294-.666,4.012,4.012,0,0,0,.1-.969,2.5,2.5,0,0,0-.336-1.467,1.13,1.13,0,0,0-.966-.453,1.4,1.4,0,0,0-.744.2,2.434,2.434,0,0,0-.606.549Zm0-3.8a3.055,3.055,0,0,1,.825-.621,2.247,2.247,0,0,1,1.035-.231,2.161,2.161,0,0,1,.963.21,2.059,2.059,0,0,1,.732.6,2.834,2.834,0,0,1,.465.951,4.5,4.5,0,0,1,.162,1.254,4.673,4.673,0,0,1-.186,1.362,3.129,3.129,0,0,1-.531,1.047A2.415,2.415,0,0,1,22.9-.15a2.406,2.406,0,0,1-1.08.24,2.208,2.208,0,0,1-.522-.057,1.944,1.944,0,0,1-.432-.159A1.744,1.744,0,0,1,20.5-.375,3.062,3.062,0,0,1,20.184-.7l-.066.414A.372.372,0,0,1,20-.066.383.383,0,0,1,19.758,0H18.78V-8.916h1.482Zm6.864-.756V0H25.638V-6.156Zm.2-1.794a.844.844,0,0,1-.078.36.989.989,0,0,1-.207.294.989.989,0,0,1-.3.2.93.93,0,0,1-.372.075.894.894,0,0,1-.363-.075.962.962,0,0,1-.3-.2.972.972,0,0,1-.2-.294.873.873,0,0,1-.075-.36.93.93,0,0,1,.075-.372.952.952,0,0,1,.2-.3.962.962,0,0,1,.3-.2A.894.894,0,0,1,26.37-8.9a.93.93,0,0,1,.372.075.989.989,0,0,1,.3.2.968.968,0,0,1,.207.3A.9.9,0,0,1,27.33-7.95Zm2.808-.966V0H28.656V-8.916Zm5.448,5.13a1.783,1.783,0,0,0-.081-.543,1.291,1.291,0,0,0-.243-.447,1.13,1.13,0,0,0-.411-.3,1.411,1.411,0,0,0-.579-.111,1.373,1.373,0,0,0-1.011.366,1.8,1.8,0,0,0-.471,1.038Zm-2.826.894a2.916,2.916,0,0,0,.168.819,1.675,1.675,0,0,0,.348.57,1.363,1.363,0,0,0,.513.336,1.864,1.864,0,0,0,.657.111,2.037,2.037,0,0,0,.621-.084,2.912,2.912,0,0,0,.456-.186q.2-.1.342-.186A.574.574,0,0,1,36.15-1.6a.307.307,0,0,1,.276.138l.426.54a2.47,2.47,0,0,1-.552.483,3.1,3.1,0,0,1-.639.312,3.493,3.493,0,0,1-.678.165,4.855,4.855,0,0,1-.669.048A3.288,3.288,0,0,1,33.12-.123a2.673,2.673,0,0,1-.96-.63,2.956,2.956,0,0,1-.642-1.032,3.994,3.994,0,0,1-.234-1.425,3.408,3.408,0,0,1,.2-1.185,2.849,2.849,0,0,1,.585-.966A2.754,2.754,0,0,1,33-6.012a3.063,3.063,0,0,1,1.239-.24,3.013,3.013,0,0,1,1.074.186,2.34,2.34,0,0,1,.846.543,2.515,2.515,0,0,1,.555.876,3.264,3.264,0,0,1,.2,1.185.962.962,0,0,1-.072.453.3.3,0,0,1-.276.117Zm9.582-2.2a2.654,2.654,0,0,1,.684-.867,1.458,1.458,0,0,1,.936-.315,1.145,1.145,0,0,1,.684.186l-.1,1.11a.287.287,0,0,1-.087.153.24.24,0,0,1-.153.045,1.748,1.748,0,0,1-.267-.03,2.063,2.063,0,0,0-.345-.03,1.242,1.242,0,0,0-.438.072,1.1,1.1,0,0,0-.345.207,1.411,1.411,0,0,0-.27.327,3.19,3.19,0,0,0-.219.438V0H40.944V-6.156h.87a.479.479,0,0,1,.318.081.476.476,0,0,1,.12.291Zm6.87,1.3a1.783,1.783,0,0,0-.081-.543,1.291,1.291,0,0,0-.243-.447,1.13,1.13,0,0,0-.411-.3A1.411,1.411,0,0,0,47.9-5.19a1.373,1.373,0,0,0-1.011.366,1.8,1.8,0,0,0-.471,1.038Zm-2.826.894a2.916,2.916,0,0,0,.168.819,1.675,1.675,0,0,0,.348.57,1.363,1.363,0,0,0,.513.336,1.864,1.864,0,0,0,.657.111,2.037,2.037,0,0,0,.621-.084,2.912,2.912,0,0,0,.456-.186q.2-.1.342-.186a.574.574,0,0,1,.285-.084.307.307,0,0,1,.276.138l.426.54a2.47,2.47,0,0,1-.552.483,3.1,3.1,0,0,1-.639.312,3.493,3.493,0,0,1-.678.165A4.855,4.855,0,0,1,47.94.09a3.288,3.288,0,0,1-1.194-.213,2.673,2.673,0,0,1-.96-.63,2.956,2.956,0,0,1-.642-1.032A3.994,3.994,0,0,1,44.91-3.21a3.408,3.408,0,0,1,.2-1.185,2.849,2.849,0,0,1,.585-.966,2.754,2.754,0,0,1,.93-.651,3.063,3.063,0,0,1,1.239-.24,3.013,3.013,0,0,1,1.074.186,2.34,2.34,0,0,1,.846.543,2.515,2.515,0,0,1,.555.876,3.264,3.264,0,0,1,.2,1.185.962.962,0,0,1-.072.453.3.3,0,0,1-.276.117Zm9.678-1.962a.739.739,0,0,1-.129.132.3.3,0,0,1-.183.048.407.407,0,0,1-.222-.069q-.108-.069-.258-.156a1.929,1.929,0,0,0-.357-.156,1.64,1.64,0,0,0-.513-.069,1.565,1.565,0,0,0-.684.141,1.3,1.3,0,0,0-.489.4,1.825,1.825,0,0,0-.291.639,3.431,3.431,0,0,0-.1.849,3.328,3.328,0,0,0,.105.876,1.873,1.873,0,0,0,.3.645,1.3,1.3,0,0,0,.48.4,1.455,1.455,0,0,0,.636.135,1.577,1.577,0,0,0,.573-.087,1.808,1.808,0,0,0,.369-.192q.15-.105.261-.192a.393.393,0,0,1,.249-.087.3.3,0,0,1,.27.138l.426.54a2.679,2.679,0,0,1-.534.483,2.886,2.886,0,0,1-.6.312,3.036,3.036,0,0,1-.636.165A4.477,4.477,0,0,1,54.1.09a2.73,2.73,0,0,1-1.074-.213,2.537,2.537,0,0,1-.882-.621,2.966,2.966,0,0,1-.6-1,3.86,3.86,0,0,1-.219-1.347,3.915,3.915,0,0,1,.195-1.257,2.848,2.848,0,0,1,.573-1,2.627,2.627,0,0,1,.936-.663,3.224,3.224,0,0,1,1.284-.24,3.054,3.054,0,0,1,1.209.222,2.954,2.954,0,0,1,.933.636ZM58.92-5.5a3.218,3.218,0,0,1,.792-.546,2.3,2.3,0,0,1,1.014-.21,2.207,2.207,0,0,1,.894.171,1.766,1.766,0,0,1,.651.48,2.11,2.11,0,0,1,.4.738,3.136,3.136,0,0,1,.135.945V0H61.32V-3.918a1.325,1.325,0,0,0-.258-.873.966.966,0,0,0-.786-.309,1.543,1.543,0,0,0-.72.174,2.58,2.58,0,0,0-.636.474V0H57.438V-8.916H58.92Zm8.538,2.868a8.173,8.173,0,0,0-1.08.111,2.879,2.879,0,0,0-.7.207.923.923,0,0,0-.378.294.639.639,0,0,0-.114.366.643.643,0,0,0,.231.558,1,1,0,0,0,.6.168,1.759,1.759,0,0,0,.789-.165,2.343,2.343,0,0,0,.651-.5Zm-3.4-2.67a3.653,3.653,0,0,1,2.556-.972,2.5,2.5,0,0,1,.966.177,2.041,2.041,0,0,1,.72.492,2.106,2.106,0,0,1,.447.753,2.894,2.894,0,0,1,.153.96V0h-.672a.679.679,0,0,1-.324-.063.437.437,0,0,1-.18-.255L67.6-.762a5.357,5.357,0,0,1-.456.369,2.685,2.685,0,0,1-.462.267,2.482,2.482,0,0,1-.513.165,2.956,2.956,0,0,1-.6.057,2.364,2.364,0,0,1-.72-.105,1.582,1.582,0,0,1-.57-.315A1.414,1.414,0,0,1,63.9-.846a1.852,1.852,0,0,1-.132-.726,1.445,1.445,0,0,1,.078-.465,1.359,1.359,0,0,1,.255-.441,2.123,2.123,0,0,1,.459-.4,2.983,2.983,0,0,1,.693-.324,5.988,5.988,0,0,1,.957-.225,9.559,9.559,0,0,1,1.248-.1v-.36a1.347,1.347,0,0,0-.264-.915.966.966,0,0,0-.762-.3,1.809,1.809,0,0,0-.6.084,2.457,2.457,0,0,0-.417.189l-.327.189a.647.647,0,0,1-.327.084.427.427,0,0,1-.264-.081.677.677,0,0,1-.174-.189Zm7.632.21a2.655,2.655,0,0,1,.684-.867,1.458,1.458,0,0,1,.936-.315A1.145,1.145,0,0,1,74-6.084l-.1,1.11a.287.287,0,0,1-.087.153.24.24,0,0,1-.153.045,1.748,1.748,0,0,1-.267-.03,2.063,2.063,0,0,0-.345-.03,1.242,1.242,0,0,0-.438.072,1.1,1.1,0,0,0-.345.207A1.411,1.411,0,0,0,72-4.23a3.191,3.191,0,0,0-.219.438V0H70.3V-6.156h.87a.479.479,0,0,1,.318.081.476.476,0,0,1,.12.291Zm5.262,1.86a1.39,1.39,0,0,0,.48-.075.942.942,0,0,0,.339-.207.853.853,0,0,0,.2-.318,1.165,1.165,0,0,0,.069-.408.965.965,0,0,0-.273-.723,1.128,1.128,0,0,0-.819-.267,1.128,1.128,0,0,0-.819.267.965.965,0,0,0-.273.723,1.147,1.147,0,0,0,.069.4.881.881,0,0,0,.2.321.917.917,0,0,0,.342.21A1.4,1.4,0,0,0,76.956-3.228ZM78.63.276a.41.41,0,0,0-.108-.294.71.71,0,0,0-.294-.177,2.175,2.175,0,0,0-.435-.093q-.249-.03-.528-.045T76.689-.36q-.3-.012-.579-.048a1.387,1.387,0,0,0-.4.324.66.66,0,0,0-.153.432.6.6,0,0,0,.081.3A.676.676,0,0,0,75.9.894a1.533,1.533,0,0,0,.459.159,3.549,3.549,0,0,0,.69.057,3.519,3.519,0,0,0,.714-.063,1.718,1.718,0,0,0,.495-.174A.749.749,0,0,0,78.54.609.645.645,0,0,0,78.63.276Zm1.476-6.222v.552q0,.264-.318.324l-.552.1a1.873,1.873,0,0,1,.126.7,1.831,1.831,0,0,1-.183.825,1.834,1.834,0,0,1-.507.627,2.376,2.376,0,0,1-.765.4,3.106,3.106,0,0,1-.951.141,3.266,3.266,0,0,1-.348-.018q-.168-.018-.33-.048-.288.174-.288.39a.287.287,0,0,0,.171.273,1.4,1.4,0,0,0,.453.123,6.376,6.376,0,0,0,.642.045q.36.009.738.039a5.906,5.906,0,0,1,.738.105,2.167,2.167,0,0,1,.642.237,1.259,1.259,0,0,1,.453.441A1.354,1.354,0,0,1,80,.024a1.688,1.688,0,0,1-.2.792,2.128,2.128,0,0,1-.582.684,3.035,3.035,0,0,1-.936.483,4.026,4.026,0,0,1-1.263.183A4.823,4.823,0,0,1,75.8,2.031a2.886,2.886,0,0,1-.858-.36,1.553,1.553,0,0,1-.51-.519A1.217,1.217,0,0,1,74.268.54a1.043,1.043,0,0,1,.261-.723,1.807,1.807,0,0,1,.717-.465,1.033,1.033,0,0,1-.39-.336.958.958,0,0,1-.144-.552.867.867,0,0,1,.051-.285,1.221,1.221,0,0,1,.15-.291,1.433,1.433,0,0,1,.249-.273,1.718,1.718,0,0,1,.354-.231,1.942,1.942,0,0,1-.735-.672,1.8,1.8,0,0,1-.267-.984A1.831,1.831,0,0,1,74.7-5.1a1.849,1.849,0,0,1,.51-.63,2.326,2.326,0,0,1,.774-.4,3.292,3.292,0,0,1,.975-.138,3.276,3.276,0,0,1,.744.081,2.535,2.535,0,0,1,.636.237ZM84.9-3.786a1.783,1.783,0,0,0-.081-.543,1.29,1.29,0,0,0-.243-.447,1.13,1.13,0,0,0-.411-.3,1.411,1.411,0,0,0-.579-.111,1.373,1.373,0,0,0-1.011.366A1.8,1.8,0,0,0,82.1-3.786Zm-2.826.894a2.916,2.916,0,0,0,.168.819,1.675,1.675,0,0,0,.348.57,1.363,1.363,0,0,0,.513.336,1.864,1.864,0,0,0,.657.111,2.037,2.037,0,0,0,.621-.084,2.912,2.912,0,0,0,.456-.186q.195-.1.342-.186a.574.574,0,0,1,.285-.084.307.307,0,0,1,.276.138l.426.54a2.47,2.47,0,0,1-.552.483,3.1,3.1,0,0,1-.639.312A3.493,3.493,0,0,1,84.3.042a4.855,4.855,0,0,1-.669.048,3.288,3.288,0,0,1-1.194-.213,2.673,2.673,0,0,1-.96-.63,2.956,2.956,0,0,1-.642-1.032A3.994,3.994,0,0,1,80.6-3.21a3.408,3.408,0,0,1,.2-1.185,2.849,2.849,0,0,1,.585-.966,2.754,2.754,0,0,1,.93-.651,3.063,3.063,0,0,1,1.239-.24,3.014,3.014,0,0,1,1.074.186,2.34,2.34,0,0,1,.846.543,2.515,2.515,0,0,1,.555.876,3.264,3.264,0,0,1,.2,1.185.962.962,0,0,1-.072.453.3.3,0,0,1-.276.117Zm15.4-5.784L93.972,0H92.514l-3.5-8.676h1.3a.543.543,0,0,1,.342.1.624.624,0,0,1,.2.264l2.046,5.292q.1.258.195.567t.177.645q.072-.336.156-.645a5.392,5.392,0,0,1,.186-.567L95.64-8.31a.568.568,0,0,1,.189-.252.531.531,0,0,1,.345-.114Zm2.436,2.424a3.356,3.356,0,0,1,1.245.222,2.728,2.728,0,0,1,.96.63,2.767,2.767,0,0,1,.615,1,3.789,3.789,0,0,1,.216,1.314,3.807,3.807,0,0,1-.216,1.32,2.828,2.828,0,0,1-.615,1,2.688,2.688,0,0,1-.96.636A3.356,3.356,0,0,1,99.912.09a3.4,3.4,0,0,1-1.254-.222,2.683,2.683,0,0,1-.963-.636,2.863,2.863,0,0,1-.618-1,3.76,3.76,0,0,1-.219-1.32A3.742,3.742,0,0,1,97.077-4.4a2.8,2.8,0,0,1,.618-1,2.722,2.722,0,0,1,.963-.63A3.4,3.4,0,0,1,99.912-6.252Zm0,5.2a1.3,1.3,0,0,0,1.137-.516,2.587,2.587,0,0,0,.369-1.512,2.617,2.617,0,0,0-.369-1.518,1.3,1.3,0,0,0-1.137-.522,1.324,1.324,0,0,0-1.155.525,2.587,2.587,0,0,0-.375,1.515,2.558,2.558,0,0,0,.375,1.509A1.33,1.33,0,0,0,99.912-1.05Zm9.474-5.106V0h-.906a.349.349,0,0,1-.372-.27l-.1-.492a3.307,3.307,0,0,1-.834.621A2.3,2.3,0,0,1,106.1.1a2.186,2.186,0,0,1-.891-.171,1.785,1.785,0,0,1-.651-.483,2.115,2.115,0,0,1-.4-.741,3.136,3.136,0,0,1-.135-.945V-6.156H105.5v3.912a1.315,1.315,0,0,0,.261.873.967.967,0,0,0,.783.309,1.565,1.565,0,0,0,.72-.171A2.517,2.517,0,0,0,107.9-1.7V-6.156Zm5.874,1.3a.739.739,0,0,1-.129.132.3.3,0,0,1-.183.048.407.407,0,0,1-.222-.069q-.108-.069-.258-.156a1.929,1.929,0,0,0-.357-.156,1.64,1.64,0,0,0-.513-.069,1.565,1.565,0,0,0-.684.141,1.3,1.3,0,0,0-.489.4,1.825,1.825,0,0,0-.291.639,3.431,3.431,0,0,0-.1.849,3.329,3.329,0,0,0,.105.876,1.873,1.873,0,0,0,.3.645,1.3,1.3,0,0,0,.48.4,1.455,1.455,0,0,0,.636.135,1.577,1.577,0,0,0,.573-.087,1.808,1.808,0,0,0,.369-.192q.15-.105.261-.192a.393.393,0,0,1,.249-.087.3.3,0,0,1,.27.138l.426.54a2.679,2.679,0,0,1-.534.483,2.886,2.886,0,0,1-.6.312,3.036,3.036,0,0,1-.636.165,4.477,4.477,0,0,1-.651.048,2.73,2.73,0,0,1-1.074-.213,2.537,2.537,0,0,1-.882-.621,2.965,2.965,0,0,1-.6-1,3.86,3.86,0,0,1-.219-1.347,3.915,3.915,0,0,1,.195-1.257,2.848,2.848,0,0,1,.573-1,2.627,2.627,0,0,1,.936-.663,3.224,3.224,0,0,1,1.284-.24,3.054,3.054,0,0,1,1.209.222,2.954,2.954,0,0,1,.933.636Zm2.856-.642a3.218,3.218,0,0,1,.792-.546,2.3,2.3,0,0,1,1.014-.21,2.207,2.207,0,0,1,.894.171,1.767,1.767,0,0,1,.651.48,2.11,2.11,0,0,1,.4.738,3.136,3.136,0,0,1,.135.945V0h-1.482V-3.918a1.325,1.325,0,0,0-.258-.873.966.966,0,0,0-.786-.309,1.543,1.543,0,0,0-.72.174,2.58,2.58,0,0,0-.636.474V0h-1.482V-8.916h1.482Zm9.252,1.71a1.783,1.783,0,0,0-.081-.543,1.29,1.29,0,0,0-.243-.447,1.13,1.13,0,0,0-.411-.3,1.411,1.411,0,0,0-.579-.111,1.373,1.373,0,0,0-1.011.366,1.8,1.8,0,0,0-.471,1.038Zm-2.826.894a2.916,2.916,0,0,0,.168.819,1.675,1.675,0,0,0,.348.57,1.363,1.363,0,0,0,.513.336,1.864,1.864,0,0,0,.657.111,2.037,2.037,0,0,0,.621-.084,2.912,2.912,0,0,0,.456-.186q.195-.1.342-.186a.574.574,0,0,1,.285-.084.307.307,0,0,1,.276.138l.426.54a2.47,2.47,0,0,1-.552.483,3.1,3.1,0,0,1-.639.312,3.493,3.493,0,0,1-.678.165A4.855,4.855,0,0,1,126.1.09,3.288,3.288,0,0,1,124.9-.123a2.673,2.673,0,0,1-.96-.63,2.956,2.956,0,0,1-.642-1.032,3.994,3.994,0,0,1-.234-1.425,3.408,3.408,0,0,1,.2-1.185,2.849,2.849,0,0,1,.585-.966,2.754,2.754,0,0,1,.93-.651,3.063,3.063,0,0,1,1.239-.24,3.014,3.014,0,0,1,1.074.186,2.34,2.34,0,0,1,.846.543,2.515,2.515,0,0,1,.555.876,3.264,3.264,0,0,1,.2,1.185.962.962,0,0,1-.072.453.3.3,0,0,1-.276.117Zm6.666-2.2a2.655,2.655,0,0,1,.684-.867,1.458,1.458,0,0,1,.936-.315,1.145,1.145,0,0,1,.684.186l-.1,1.11a.287.287,0,0,1-.087.153.24.24,0,0,1-.153.045,1.748,1.748,0,0,1-.267-.03,2.063,2.063,0,0,0-.345-.03,1.242,1.242,0,0,0-.438.072,1.1,1.1,0,0,0-.345.207,1.411,1.411,0,0,0-.27.327,3.19,3.19,0,0,0-.219.438V0H129.81V-6.156h.87a.479.479,0,0,1,.318.081.476.476,0,0,1,.12.291Z" transform="translate(54 23)"/>
      </g>
      <g id="travel_1_" data-name="travel (1)" transform="translate(503.175 1038.669)">
        <path id="Path_1572" data-name="Path 1572" d="M28.048,25.024A14.028,14.028,0,0,1,16.271,38.869a8.589,8.589,0,0,0-8.359-6.617H2a14.025,14.025,0,1,1,26.045-7.228Z" transform="translate(0 -10.37)" fill="#fff"/>
        <path id="Path_1575" data-name="Path 1575" d="M28.579,0a.859.859,0,0,0-.859.859v22.72a.812.812,0,0,1-1.414.546,14.076,14.076,0,0,1-1.678-2.243V5.152h-.172A.458.458,0,0,1,24,4.694V2.748a.458.458,0,0,1,.458-.458h.172V.859A.859.859,0,0,1,25.488,0Z" transform="translate(-22.626 0)" fill="#453d83"/>
        <path id="Path_1576" data-name="Path 1576" d="M86.078,5.152V6.3h.057a.458.458,0,0,1,.458.458V8.7a.458.458,0,0,1-.458.458h-.057v19.29l-.042.05a14.125,14.125,0,0,1-2.247.179,13.971,13.971,0,0,1-9.273-3.5A1.515,1.515,0,0,1,74,24.039V.859A.859.859,0,0,1,74.859,0H85.219a.859.859,0,0,1,.859.859V2.29h.057a.458.458,0,0,1,.458.458V4.694a.458.458,0,0,1-.458.458Z" transform="translate(-69.764 0)" fill="#5f55af"/>
        <path id="Path_1577" data-name="Path 1577" d="M74.99,95.859V113.89a.859.859,0,0,1-.859.859H65.1a14.109,14.109,0,0,1-1.1-1.081V95.859A.859.859,0,0,1,64.859,95h9.273A.859.859,0,0,1,74.99,95.859Z" transform="translate(-60.337 -89.562)" fill="#fff5f5"/>
        <path id="Path_1578" data-name="Path 1578" d="M64,53.434V50.859A.859.859,0,0,1,64.859,50h9.273a.859.859,0,0,1,.859.859v2.576Z" transform="translate(-60.337 -47.138)" fill="#ffc14f"/>
        <path id="Path_1579" data-name="Path 1579" d="M128.578,18.359h-1.488a.429.429,0,1,1,0-.859h1.488a.429.429,0,0,1,0,.859Zm-2.719-.429a.429.429,0,1,0-.429.429A.429.429,0,0,0,125.859,17.929Zm1.946,24.9h-1.717a.859.859,0,0,0-.842.688,13.941,13.941,0,0,0,2.455,1.03h.1a.859.859,0,1,0,0-1.717Z" transform="translate(-117.845 -16.498)" fill="#19305c"/>
        <path id="Path_1580" data-name="Path 1580" d="M94.266,72.916H89.458a.458.458,0,0,1,0-.916h4.808a.458.458,0,1,1,0,.916Z" transform="translate(-83.906 -67.879)" fill="#f29500"/>
        <path id="Path_1581" data-name="Path 1581" d="M96.155,145.152h-6.3a.859.859,0,0,1-.859-.859v-3.434a.859.859,0,0,1,.859-.859h6.3a.859.859,0,0,1,.859.859v3.434A.859.859,0,0,1,96.155,145.152Z" transform="translate(-83.906 -131.986)" fill="#f44545"/>
        <path id="Path_1582" data-name="Path 1582" d="M100.717,154.458a.458.458,0,0,1-.458.458h-.8a.458.458,0,1,1,0-.916h.8A.458.458,0,0,1,100.717,154.458Zm1.832-.458h-.8a.458.458,0,1,0,0,.916h.8a.458.458,0,1,0,0-.916Zm2.862,0h-1.374a.458.458,0,1,0,0,.916h1.374a.458.458,0,1,0,0-.916Z" transform="translate(-93.333 -145.185)" fill="#c50048"/>
        <path id="Path_1583" data-name="Path 1583" d="M68.98,274.751H65.889a.458.458,0,0,1,0-.916H68.98a.458.458,0,1,1,0,.916ZM74.99,270H64v2.862H74.99Zm0,8.586H64v-2.862H74.99Z" transform="translate(-60.337 -254.545)" fill="#c8e2fd"/>
        <path id="Path_1584" data-name="Path 1584" d="M94.266,287.916H89.458a.458.458,0,0,1,0-.916h4.808a.458.458,0,1,1,0,.916Zm-.114,5.266a.458.458,0,0,0-.458-.458H89.458a.458.458,0,0,0,0,.916h4.236A.458.458,0,0,0,94.152,293.182Z" transform="translate(-83.906 -270.572)" fill="#86befb"/>
        <path id="Path_1585" data-name="Path 1585" d="M223.31,280.25H210.717A1.717,1.717,0,0,1,209,278.532v-8.815A1.717,1.717,0,0,1,210.717,268H223.31a1.717,1.717,0,0,1,1.717,1.717v8.815A1.717,1.717,0,0,1,223.31,280.25Z" transform="translate(-197.037 -252.659)" fill="#ffc14f"/>
        <path id="Path_1586" data-name="Path 1586" d="M212.687,280.25h-1.969A1.717,1.717,0,0,1,209,278.532v-8.815A1.717,1.717,0,0,1,210.717,268h1.969a1.717,1.717,0,0,0-1.717,1.717v8.815A1.717,1.717,0,0,0,212.687,280.25Z" transform="translate(-197.037 -252.659)" fill="#ffa90b"/>
        <path id="Path_1587" data-name="Path 1587" d="M348.273,346.717a1.717,1.717,0,0,1-1.717,1.717h-5.839a1.717,1.717,0,0,1,0-3.434h5.839A1.717,1.717,0,0,1,348.273,346.717Z" transform="translate(-319.595 -325.252)" fill="#f44545"/>
        <path id="Path_1588" data-name="Path 1588" d="M342.434,348.434h-1.717a1.717,1.717,0,0,1,0-3.434h1.717a1.717,1.717,0,1,0,0,3.434Z" transform="translate(-319.595 -325.252)" fill="#c50048"/>
        <path id="Path_1589" data-name="Path 1589" d="M140.717,190.859a.859.859,0,1,1-.859-.859A.859.859,0,0,1,140.717,190.859Z" transform="translate(-131.043 -179.124)" fill="#ffe7c0"/>
        <path id="Path_1590" data-name="Path 1590" d="M100.717,190.859a.859.859,0,1,1-.859-.859A.859.859,0,0,1,100.717,190.859Zm20.607,9.731a.859.859,0,1,1-.859-.859A.859.859,0,0,1,121.324,200.59Z" transform="translate(-93.333 -179.124)" fill="#fff36c"/>
      </g>
    </g>
  </g>
</svg>
