<svg id="screen" xmlns="http://www.w3.org/2000/svg" width="131.146" height="137.035" viewBox="0 0 131.146 137.035">
  <path id="Path_1607" data-name="Path 1607" d="M65.573,22a65.581,65.581,0,0,0-23.16,126.934l35.506,3.047A65.577,65.577,0,0,0,65.573,22Zm0,0" transform="translate(0 -16.112)" fill="#2b3894"/>
  <path id="Path_1608" data-name="Path 1608" d="M131.557,0H26.155a8.018,8.018,0,0,0-8.018,8.019V96.261a8.019,8.019,0,0,0,8.018,8.019h105.4a8.019,8.019,0,0,0,8.019-8.019V8.019A8.019,8.019,0,0,0,131.557,0Zm0,0" transform="translate(-13.283)" fill="#e6f7fe"/>
  <path id="Path_1609" data-name="Path 1609" d="M39.669,100.419a5.038,5.038,0,0,1,4.963-5.036V45.438a6.345,6.345,0,0,1,0-12.61V8.992A5.036,5.036,0,0,1,41.59,0H26.155a8.018,8.018,0,0,0-8.018,8.019V96.261a8.018,8.018,0,0,0,8.018,8.019H41.471A5.027,5.027,0,0,1,39.669,100.419Zm0,0" transform="translate(-13.283)" fill="#d5f1fe"/>
  <path id="Path_1610" data-name="Path 1610" d="M92.934,166.1H50.646a2.552,2.552,0,0,0-2.552,2.552v46.7a2.552,2.552,0,0,0,2.552,2.552H92.934a2.552,2.552,0,0,0,2.552-2.552v-46.7A2.553,2.553,0,0,0,92.934,166.1Zm0,0" transform="translate(-35.222 -121.642)" fill="#f948b4"/>
  <path id="Path_1611" data-name="Path 1611" d="M61.3,215.351v-46.7a2.552,2.552,0,0,1,2.551-2.552h-13.2a2.552,2.552,0,0,0-2.552,2.552v46.7a2.552,2.552,0,0,0,2.552,2.552h13.2A2.551,2.551,0,0,1,61.3,215.351Zm0,0" transform="translate(-35.222 -121.642)" fill="#e00e8b"/>
  <path id="Path_1612" data-name="Path 1612" d="M128.208,164.081a21.28,21.28,0,1,1-21.28-21.28A21.28,21.28,0,0,1,128.208,164.081Zm0,0" transform="translate(-62.725 -104.581)" fill="#fc9ddf"/>
  <path id="Path_1613" data-name="Path 1613" d="M105.444,165.9a5.329,5.329,0,0,1-4.176-5.8,2.136,2.136,0,0,0-1.349-2.1c-4.868-1.969-2.5-6.812-2.452-6.914a21.28,21.28,0,0,0,9.461,40.341v-23.51A2.1,2.1,0,0,0,105.444,165.9Zm0,0" transform="translate(-62.725 -110.651)" fill="#fc7acd"/>
  <path id="Path_1614" data-name="Path 1614" d="M309.679,29.961H267.392a2.552,2.552,0,0,0-2.552,2.552v46.7a2.552,2.552,0,0,0,2.552,2.552h42.287a2.552,2.552,0,0,0,2.552-2.552v-46.7A2.552,2.552,0,0,0,309.679,29.961Zm0,0" transform="translate(-193.957 -21.942)" fill="#27a3ff"/>
  <path id="Path_1615" data-name="Path 1615" d="M92.934,29.961H50.646a2.552,2.552,0,0,0-2.552,2.552v20.8a2.552,2.552,0,0,0,2.552,2.552H92.934a2.552,2.552,0,0,0,2.552-2.552v-20.8A2.552,2.552,0,0,0,92.934,29.961Zm0,0" transform="translate(-35.222 -21.942)" fill="#fecd0a"/>
  <path id="Path_1616" data-name="Path 1616" d="M309.679,262.879H267.391a2.551,2.551,0,0,0-2.551,2.551v20.8a2.551,2.551,0,0,0,2.551,2.552h42.288a2.552,2.552,0,0,0,2.552-2.552v-20.8A2.551,2.551,0,0,0,309.679,262.879Zm0,0" transform="translate(-193.957 -192.52)" fill="#a2ec00"/>
  <path id="Path_1617" data-name="Path 1617" d="M278.043,79.215v-46.7a2.552,2.552,0,0,1,2.552-2.552h-13.2a2.552,2.552,0,0,0-2.552,2.552v46.7a2.552,2.552,0,0,0,2.552,2.552h13.2A2.552,2.552,0,0,1,278.043,79.215Zm0,0" transform="translate(-193.957 -21.942)" fill="#0080f4"/>
  <path id="Path_1618" data-name="Path 1618" d="M61.3,53.312v-20.8a2.552,2.552,0,0,1,2.551-2.552h-13.2a2.552,2.552,0,0,0-2.552,2.552v20.8a2.552,2.552,0,0,0,2.552,2.552h13.2A2.551,2.551,0,0,1,61.3,53.312Zm0,0" transform="translate(-35.222 -21.942)" fill="#fca60d"/>
  <path id="Path_1619" data-name="Path 1619" d="M278.043,286.229v-20.8a2.551,2.551,0,0,1,2.552-2.551h-13.2a2.551,2.551,0,0,0-2.552,2.551v20.8a2.552,2.552,0,0,0,2.552,2.552h13.2A2.552,2.552,0,0,1,278.043,286.229Zm0,0" transform="translate(-193.957 -192.52)" fill="#00c82f"/>
  <path id="Path_1620" data-name="Path 1620" d="M142.837,187.138a12.854,12.854,0,1,1-12.853-12.853A12.853,12.853,0,0,1,142.837,187.138Zm0,0" transform="translate(-85.78 -127.638)" fill="#fc7acd"/>
  <path id="Path_1621" data-name="Path 1621" d="M128.5,186.992a5.329,5.329,0,0,1-4.176-5.8,2.1,2.1,0,0,0-.366-1.3,12.854,12.854,0,0,0,6.025,24.208V189.011A2.093,2.093,0,0,0,128.5,186.992Zm0,0" transform="translate(-85.78 -131.741)" fill="#f948b4"/>
  <path id="Path_1622" data-name="Path 1622" d="M154.829,226.157h-.5a5.3,5.3,0,0,0-5.289,5.289v-3.705a5.541,5.541,0,1,0-11.081,0v-1.265a5.541,5.541,0,0,0-11.081,0V208.712a5.541,5.541,0,0,0-11.081,0v30.425c-1.194.156-4.319-.708-6.709,2a15.059,15.059,0,0,0-2.177,16.714c2.594,5.015-.887-.5,11.356,15.312a5.877,5.877,0,0,1,1.275,3.657v4.8a65.838,65.838,0,0,0,35.506,3.047V274.588c0-3.879,5.073-7.659,5.073-18.214V231.446A5.3,5.3,0,0,0,154.829,226.157Zm0,0" transform="translate(-77.126 -148.794)" fill="#f9cfa9"/>
  <path id="Path_1623" data-name="Path 1623" d="M152.95,203.172h2.583a2.7,2.7,0,0,1,2.7,2.7v4.851a2.7,2.7,0,0,1-2.7,2.7H152.95a2.705,2.705,0,0,1-2.7-2.7v-4.851A2.7,2.7,0,0,1,152.95,203.172Zm0,0" transform="translate(-110.039 -148.794)" fill="#f4f2fa"/>
  <path id="Path_1624" data-name="Path 1624" d="M143.641,441.6c.8,1.024,1.694,2.17,2.693,3.461a5.88,5.88,0,0,1,1.275,3.657v4.8a65.839,65.839,0,0,0,35.506,3.047V446.483c0-2.375,1.9-4.716,3.376-8.6a35.121,35.121,0,0,1-42.851,3.709Zm0,0" transform="translate(-105.196 -320.688)" fill="#fbbc8d"/>
</svg>
