<svg id="social-media" xmlns="http://www.w3.org/2000/svg" width="131" height="131" viewBox="0 0 131 131">
  <circle id="Ellipse_1" data-name="Ellipse 1" cx="65.5" cy="65.5" r="65.5" fill="#273b7a"/>
  <path id="Path_6" data-name="Path 6" d="M224.338,313.4a65.682,65.682,0,0,0,42.936-37.057l-28.221-28.221-20.572,10.358-3.569-3.568L190.4,279.469Z" transform="translate(-141.663 -184.609)" fill="#121149"/>
  <path id="Path_7" data-name="Path 7" d="M184.879,142.165v52.978a3.558,3.558,0,0,0,5.419,3.032L233.75,171.5a3.557,3.557,0,0,0-.018-6.075l-43.453-26.306A3.557,3.557,0,0,0,184.879,142.165Z" transform="translate(-137.553 -103.122)" fill="#ffc100"/>
  <path id="Path_8" data-name="Path 8" d="M187.567,198.595l36.256-39.164-33.547-20.309a3.557,3.557,0,0,0-5.4,3.043v52.978A3.548,3.548,0,0,0,187.567,198.595Z" transform="translate(-137.551 -103.121)" fill="#d8e86d"/>
  <path id="Path_9" data-name="Path 9" d="M190.3,198.511l29.829-18.31,3.7-2.271L187.55,139.054a3.547,3.547,0,0,0-2.673,3.447V195.48A3.558,3.558,0,0,0,190.3,198.511Z" transform="translate(-137.551 -103.458)" fill="#f52b2b"/>
  <path id="Path_10" data-name="Path 10" d="M187.567,198.932l27.816-30.047-27.833-29.831a3.547,3.547,0,0,0-2.673,3.447v52.978A3.549,3.549,0,0,0,187.567,198.932Z" transform="translate(-137.55 -103.459)" fill="#00b7ad"/>
</svg>
