<svg id="quotation-marks-left" xmlns="http://www.w3.org/2000/svg" width="154.191" height="119.543" viewBox="0 0 154.191 119.543">
  <path id="Path_7555" data-name="Path 7555" d="M31.8,86.568c1.888-11.8,16.674-24.4,28.241-24.674a3.058,3.058,0,0,0,2.152-.805,2.2,2.2,0,0,0,1.343-1.34C67.57,52.24,65.424,46.341,58.695,41.5c-7.8-5.631-20.172,0-26.357,5.1C16.74,59.472.879,81.73,1.678,102.911a88.442,88.442,0,0,0,1.888,42.105c2.69,8.044,10.489,12.068,18.561,12.606s24.743,2.951,32-1.888,7.8-14.213,8.607-22.258c.805-8.85,3.228-25.482-4.3-32.45C50.906,94.348,29.39,101.584,31.8,86.568Z" transform="translate(0.012 -39.156)" fill="rgba(199,231,252,0.24)"/>
  <path id="Path_7556" data-name="Path 7556" d="M233.761,86.568c1.888-11.8,16.674-24.4,28.241-24.674a3.058,3.058,0,0,0,2.152-.805,2.2,2.2,0,0,0,1.346-1.34c4.033-7.509,1.888-13.408-4.842-18.247-7.8-5.631-20.172,0-26.357,5.1-15.6,12.873-31.46,35.131-30.66,56.313a88.45,88.45,0,0,0,1.888,42.105c2.69,8.044,10.489,12.068,18.561,12.606s24.743,2.951,32-1.888,7.8-14.213,8.607-22.258c.805-8.85,3.228-25.482-4.3-32.45C252.857,94.348,231.071,101.584,233.761,86.568Z" transform="translate(-113.343 -39.156)" fill="rgba(199,231,252,0.24)"/>
</svg>
