<?xml version="1.0" encoding="UTF-8"?> <svg xmlns="http://www.w3.org/2000/svg" viewBox="0 0 182.665 38.83"><g id="Group_4226" data-name="Group 4226" transform="translate(-140 -30)"><g id="Group_2962" data-name="Group 2962" transform="translate(521 -135)"><path id="Fill-214" d="M94.884,33.957a.713.713,0,1,1,.713.711.712.712,0,0,1-.713-.711" transform="translate(-434.855 145.435)" fill="#02193b" fill-rule="evenodd"></path><g id="Group-252" transform="translate(-339.79 180.742)"><path id="Fill-250" d="M.14,1.248a.713.713,0,1,1,.713.711A.712.712,0,0,1,.14,1.248" transform="translate(-0.14 -0.537)" fill="#2684ff" fill-rule="evenodd"></path></g><path id="Fill-275" d="M95.984,36.4a.475.475,0,1,1,.476.474.475.475,0,0,1-.476-.474" transform="translate(-435.479 143.916)" fill="#02193b" fill-rule="evenodd"></path><path id="Fill-457" d="M95.626,41.04a.63.63,0,1,1,.63.629.629.629,0,0,1-.63-.629" transform="translate(-435.276 141.368)" fill="#2684ff" fill-rule="evenodd"></path><path id="Fill-459" d="M96.129,43.157a.487.487,0,1,1,.487.485.486.486,0,0,1-.487-.485" transform="translate(-435.561 140.085)" fill="#2684ff" fill-rule="evenodd"></path><path id="Fill-505" d="M96.228,44.945a.37.37,0,1,1,.37.369.369.369,0,0,1-.37-.369" transform="translate(-435.617 139.004)" fill="#2684ff" fill-rule="evenodd"></path><path id="Fill-1" d="M74.892,51.069a1.2,1.2,0,1,1,1.2,1.2,1.2,1.2,0,0,1-1.2-1.2" transform="translate(-423.507 136)" fill="#02193b" fill-rule="evenodd"></path><path id="Fill-3" d="M47.091,68.478a1.817,1.817,0,1,1,1.816,1.811,1.814,1.814,0,0,1-1.816-1.811" transform="translate(-407.728 126.466)" fill="#2684ff" fill-rule="evenodd"></path><path id="Fill-5" d="M63.964,66.37a1.782,1.782,0,1,1,1.782,1.777,1.779,1.779,0,0,1-1.782-1.777" transform="translate(-417.305 127.642)" fill="#2684ff" fill-rule="evenodd"></path><path id="Fill-7" d="M74.8,8.866a1.881,1.881,0,1,1,1.88,1.875A1.878,1.878,0,0,1,74.8,8.866" transform="translate(-423.456 160.336)" fill="#2684ff" fill-rule="evenodd"></path><path id="Fill-9" d="M84.169,60.916a1.214,1.214,0,1,1,1.214,1.21,1.212,1.212,0,0,1-1.214-1.21" transform="translate(-428.773 130.417)" fill="#2684ff" fill-rule="evenodd"></path><path id="Fill-11" d="M68.538,10.005a1.272,1.272,0,1,1,1.272,1.268,1.27,1.27,0,0,1-1.272-1.268" transform="translate(-419.901 159.346)" fill="#2684ff" fill-rule="evenodd"></path><path id="Fill-13" d="M62.63,8.745a.952.952,0,1,1,.951.949.951.951,0,0,1-.951-.949" transform="translate(-416.547 159.879)" fill="#2684ff" fill-rule="evenodd"></path><path id="Fill-15" d="M78.442,48.017a1.2,1.2,0,1,1,1.2,1.2,1.2,1.2,0,0,1-1.2-1.2" transform="translate(-425.522 137.732)" fill="#2684ff" fill-rule="evenodd"></path><path id="Fill-17" d="M61.511,59.452A1.188,1.188,0,1,1,62.7,60.637a1.188,1.188,0,0,1-1.188-1.185" transform="translate(-415.913 131.234)" fill="#2684ff" fill-rule="evenodd"></path><path id="Fill-19" d="M37.894,53.074A1.131,1.131,0,1,1,39.025,54.2a1.129,1.129,0,0,1-1.131-1.128" transform="translate(-402.508 134.821)" fill="#2684ff" fill-rule="evenodd"></path><path id="Fill-21" d="M57.408,61.118a.884.884,0,1,1,.884.882.882.882,0,0,1-.884-.882" transform="translate(-413.584 130.116)" fill="#02193b" fill-rule="evenodd"></path><path id="Fill-23" d="M89.6,82.887a.884.884,0,1,1,.884.882.883.883,0,0,1-.884-.882" transform="translate(-431.857 117.76)" fill="#2684ff" fill-rule="evenodd"></path><path id="Fill-25" d="M31.356,65.513a.884.884,0,1,1,.885.882.883.883,0,0,1-.885-.882" transform="translate(-398.797 127.621)" fill="#2684ff" fill-rule="evenodd"></path><path id="Fill-27" d="M27.024,21.715a.808.808,0,1,1,.808.806.807.807,0,0,1-.808-.806" transform="translate(-396.339 152.437)" fill="#2684ff" fill-rule="evenodd"></path><path id="Fill-29" d="M14.39,21.254a.669.669,0,1,1,.669.667.668.668,0,0,1-.669-.667" transform="translate(-389.168 152.62)" fill="#2684ff" fill-rule="evenodd"></path><path id="Fill-31" d="M81.417,36.353a.843.843,0,1,1,.843.84.841.841,0,0,1-.843-.84" transform="translate(-427.211 144.148)" fill="#2684ff" fill-rule="evenodd"></path><path id="Fill-33" d="M10.155,35.386a.691.691,0,1,1,.691.69.69.69,0,0,1-.691-.69" transform="translate(-386.764 144.611)" fill="#2684ff" fill-rule="evenodd"></path><path id="Fill-35" d="M13.853,41.11a.692.692,0,1,1,.692.689.691.691,0,0,1-.692-.689" transform="translate(-388.863 141.363)" fill="#02193b" fill-rule="evenodd"></path><path id="Fill-37" d="M54.162,7.755a.708.708,0,1,1,.709.707.707.707,0,0,1-.709-.707" transform="translate(-411.741 160.304)" fill="#2684ff" fill-rule="evenodd"></path><path id="Fill-39" d="M15.5,26.619a.72.72,0,1,1,.72.718.719.719,0,0,1-.72-.718" transform="translate(-389.797 149.604)" fill="#2684ff" fill-rule="evenodd"></path><path id="Fill-41" d="M69.144,56.023a1.01,1.01,0,1,1,1.01,1.008,1.008,1.008,0,0,1-1.01-1.008" transform="translate(-420.245 133.078)" fill="#2684ff" fill-rule="evenodd"></path><path id="Fill-43" d="M91.648,80.808a1.01,1.01,0,1,1,1.011,1.007,1.008,1.008,0,0,1-1.011-1.007" transform="translate(-433.017 119.011)" fill="#2684ff" fill-rule="evenodd"></path><path id="Fill-45" d="M79.488,87.72a1.02,1.02,0,1,1,1.02,1.017,1.018,1.018,0,0,1-1.02-1.017" transform="translate(-426.116 115.093)" fill="#2684ff" fill-rule="evenodd"></path><path id="Fill-47" d="M35.1,27.517a.793.793,0,1,1,.793.791.792.792,0,0,1-.793-.791" transform="translate(-400.921 149.135)" fill="#2684ff" fill-rule="evenodd"></path><path id="Fill-49" d="M57.718,15.119a1.437,1.437,0,1,1,1.438,1.433,1.436,1.436,0,0,1-1.438-1.433" transform="translate(-413.76 156.537)" fill="#02193b" fill-rule="evenodd"></path><path id="Fill-51" d="M83.93,71.53A1.573,1.573,0,1,1,85.5,73.1,1.57,1.57,0,0,1,83.93,71.53" transform="translate(-428.637 124.596)" fill="#02193b" fill-rule="evenodd"></path><path id="Fill-53" d="M71.064,5.826A1.448,1.448,0,1,1,72.513,7.27a1.447,1.447,0,0,1-1.449-1.444" transform="translate(-421.335 161.817)" fill="#02193b" fill-rule="evenodd"></path><path id="Fill-55" d="M37.214,45.87a1.426,1.426,0,1,1,1.426,1.421,1.423,1.423,0,0,1-1.426-1.421" transform="translate(-402.122 139.076)" fill="#02193b" fill-rule="evenodd"></path><path id="Fill-57" d="M70.595,59.139a1.432,1.432,0,1,1,1.432,1.428,1.43,1.43,0,0,1-1.432-1.428" transform="translate(-421.068 131.549)" fill="#02193b" fill-rule="evenodd"></path><path id="Fill-59" d="M88.513,22.22a1.426,1.426,0,1,1,1.426,1.421,1.423,1.423,0,0,1-1.426-1.421" transform="translate(-431.238 152.499)" fill="#02193b" fill-rule="evenodd"></path><path id="Fill-61" d="M78.968,78.1A1.035,1.035,0,1,1,80,79.128,1.034,1.034,0,0,1,78.968,78.1" transform="translate(-425.821 120.565)" fill="#2684ff" fill-rule="evenodd"></path><path id="Fill-63" d="M20.078,52.583a.658.658,0,1,1,.658.656.657.657,0,0,1-.658-.656" transform="translate(-392.396 134.832)" fill="#2684ff" fill-rule="evenodd"></path><path id="Fill-65" d="M17.95,48.755a.452.452,0,1,1,.452.451.452.452,0,0,1-.452-.451" transform="translate(-391.188 136.888)" fill="#02193b" fill-rule="evenodd"></path><path id="Fill-67" d="M14.757,52.263a.643.643,0,1,1,.643.641.642.642,0,0,1-.643-.641" transform="translate(-389.376 135.005)" fill="#2684ff" fill-rule="evenodd"></path><path id="Fill-69" d="M30.028,60.061a1.035,1.035,0,1,1,1.035,1.032,1.034,1.034,0,0,1-1.035-1.032" transform="translate(-398.043 130.801)" fill="#02193b" fill-rule="evenodd"></path><path id="Fill-71" d="M55.485,2.725A1.045,1.045,0,1,1,56.53,3.766a1.044,1.044,0,0,1-1.045-1.042" transform="translate(-412.492 163.349)" fill="#02193b" fill-rule="evenodd"></path><path id="Fill-73" d="M74.989,67.13a1.2,1.2,0,1,1,1.2,1.2,1.2,1.2,0,0,1-1.2-1.2" transform="translate(-423.563 126.883)" fill="#02193b" fill-rule="evenodd"></path><path id="Fill-75" d="M47.921,15.882a1.007,1.007,0,1,1,1.007,1,1.005,1.005,0,0,1-1.007-1" transform="translate(-408.199 155.86)" fill="#02193b" fill-rule="evenodd"></path><path id="Fill-77" d="M51.679,71.363a1.278,1.278,0,1,1,1.278,1.275,1.276,1.276,0,0,1-1.278-1.275" transform="translate(-410.332 124.523)" fill="#02193b" fill-rule="evenodd"></path><path id="Fill-79" d="M90.3,78.211a.951.951,0,1,1,.951.948.949.949,0,0,1-.951-.948" transform="translate(-432.253 120.451)" fill="#02193b" fill-rule="evenodd"></path><path id="Fill-81" d="M36.215,24.875a.634.634,0,1,1,.634.632.634.634,0,0,1-.634-.632" transform="translate(-401.555 150.545)" fill="#02193b" fill-rule="evenodd"></path><path id="Fill-83" d="M12.683,48.508a.634.634,0,1,1,.634.633.633.633,0,0,1-.634-.633" transform="translate(-388.199 137.131)" fill="#2684ff" fill-rule="evenodd"></path><path id="Fill-85" d="M56.422,11.913a.634.634,0,1,1,.634.633.633.633,0,0,1-.634-.633" transform="translate(-413.024 157.902)" fill="#02193b" fill-rule="evenodd"></path><path id="Fill-87" d="M79.151,71.255a.646.646,0,1,1,.646.643.644.644,0,0,1-.646-.643" transform="translate(-425.924 124.227)" fill="#02193b" fill-rule="evenodd"></path><path id="Fill-89" d="M85.251,13.7a.814.814,0,1,1,.814.812.812.812,0,0,1-.814-.812" transform="translate(-429.387 156.991)" fill="#02193b" fill-rule="evenodd"></path><path id="Fill-91" d="M53.138,2.789a.713.713,0,1,1,.712.71.712.712,0,0,1-.712-.71" transform="translate(-411.16 163.125)" fill="#02193b" fill-rule="evenodd"></path><path id="Fill-93" d="M63.26,72.992a.634.634,0,1,1,.634.632.633.633,0,0,1-.634-.632" transform="translate(-416.905 123.234)" fill="#02193b" fill-rule="evenodd"></path><path id="Fill-95" d="M41.342,21.118a.8.8,0,1,1,.8.794.795.795,0,0,1-.8-.794" transform="translate(-404.465 152.768)" fill="#02193b" fill-rule="evenodd"></path><path id="Fill-97" d="M88.833,84.678a.634.634,0,1,1,.635.632.633.633,0,0,1-.635-.632" transform="translate(-431.42 116.602)" fill="#02193b" fill-rule="evenodd"></path><path id="Fill-99" d="M55.075,18.095a.727.727,0,1,1,.727.725.726.726,0,0,1-.727-.725" transform="translate(-412.26 154.446)" fill="#02193b" fill-rule="evenodd"></path><path id="Fill-101" d="M71.932,65.205a.716.716,0,1,1,.715.713.715.715,0,0,1-.715-.713" transform="translate(-421.827 127.7)" fill="#02193b" fill-rule="evenodd"></path><path id="Fill-103" d="M44.487,59.481a.634.634,0,1,1,.634.633.633.633,0,0,1-.634-.633" transform="translate(-406.25 130.903)" fill="#02193b" fill-rule="evenodd"></path><path id="Fill-105" d="M13.986,15.471a.634.634,0,1,1,.635.633.633.633,0,0,1-.635-.633" transform="translate(-388.938 155.882)" fill="#02193b" fill-rule="evenodd"></path><path id="Fill-107" d="M5.08,51.341a.634.634,0,1,1,.634.633.633.633,0,0,1-.634-.633" transform="translate(-383.883 135.523)" fill="#2684ff" fill-rule="evenodd"></path><path id="Fill-109" d="M.12,58.186a.634.634,0,1,1,.634.633.633.633,0,0,1-.634-.633" transform="translate(-381.068 131.638)" fill="#02193b" fill-rule="evenodd"></path><path id="Fill-111" d="M40.876,62.751a.634.634,0,1,1,.634.632.634.634,0,0,1-.634-.632" transform="translate(-404.2 129.047)" fill="#02193b" fill-rule="evenodd"></path><path id="Fill-113" d="M75.884,26.31a.634.634,0,1,1,.634.632.634.634,0,0,1-.634-.632" transform="translate(-424.07 149.731)" fill="#02193b" fill-rule="evenodd"></path><path id="Fill-115" d="M22.444,57.6a.634.634,0,1,1,.634.632.633.633,0,0,1-.634-.632" transform="translate(-393.739 131.973)" fill="#02193b" fill-rule="evenodd"></path><path id="Fill-117" d="M32.1,21.735a.732.732,0,1,1,.732.729.73.73,0,0,1-.732-.729" transform="translate(-399.222 152.382)" fill="#02193b" fill-rule="evenodd"></path><path id="Fill-119" d="M7.636,17.526a.509.509,0,1,1,.508.507.508.508,0,0,1-.508-.507" transform="translate(-385.334 154.645)" fill="#b3d4ff" fill-rule="evenodd"></path><path id="Fill-121" d="M46.23,10.323a.731.731,0,1,1,.732.729.731.731,0,0,1-.732-.729" transform="translate(-407.239 158.859)" fill="#2684ff" fill-rule="evenodd"></path><path id="Fill-123" d="M73.628,52.641a.634.634,0,1,1,.634.632.634.634,0,0,1-.634-.632" transform="translate(-422.79 134.786)" fill="#2684ff" fill-rule="evenodd"></path><path id="Fill-125" d="M42.259,16.753a.634.634,0,1,1,.634.633.633.633,0,0,1-.634-.633" transform="translate(-404.985 155.154)" fill="#02193b" fill-rule="evenodd"></path><path id="Fill-127" d="M77.275,63.271A.721.721,0,1,1,78,63.99a.72.72,0,0,1-.721-.719" transform="translate(-424.86 128.801)" fill="#02193b" fill-rule="evenodd"></path><path id="Fill-129" d="M85.733,53.655a.792.792,0,1,1,.793.791.792.792,0,0,1-.793-.791" transform="translate(-429.661 134.3)" fill="#02193b" fill-rule="evenodd"></path><path id="Fill-131" d="M66.86,57.136a.634.634,0,1,1,.634.632.634.634,0,0,1-.634-.632" transform="translate(-418.949 132.234)" fill="#02193b" fill-rule="evenodd"></path><path id="Fill-133" d="M60.919,11.008a.723.723,0,1,1,.723.721.722.722,0,0,1-.723-.721" transform="translate(-415.576 158.465)" fill="#02193b" fill-rule="evenodd"></path><path id="Fill-135" d="M79.749,37.431a.629.629,0,1,1,.629.627.628.628,0,0,1-.629-.627" transform="translate(-426.264 143.415)" fill="#b3d4ff" fill-rule="evenodd"></path><path id="Fill-137" d="M81.846,73.823a.634.634,0,1,1,.634.632.633.633,0,0,1-.634-.632" transform="translate(-427.454 122.763)" fill="#02193b" fill-rule="evenodd"></path><path id="Fill-139" d="M43.615,52.872a1.078,1.078,0,1,1,1.078,1.074,1.077,1.077,0,0,1-1.078-1.074" transform="translate(-405.755 134.905)" fill="#02193b" fill-rule="evenodd"></path><path id="Fill-141" d="M10.287,61.641a.6.6,0,1,1,.6.6.6.6,0,0,1-.6-.6" transform="translate(-386.839 129.659)" fill="#02193b" fill-rule="evenodd"></path><path id="Fill-143" d="M20.294,67.263a.723.723,0,1,1,.723.72.722.722,0,0,1-.723-.72" transform="translate(-392.519 126.536)" fill="#02193b" fill-rule="evenodd"></path><path id="Fill-145" d="M19.229,16.889a1.078,1.078,0,1,1,1.078,1.075,1.077,1.077,0,0,1-1.078-1.075" transform="translate(-391.914 155.329)" fill="#02193b" fill-rule="evenodd"></path><path id="Fill-147" d="M47.023,55.26a.951.951,0,1,1,.951.948.949.949,0,0,1-.951-.948" transform="translate(-407.69 133.478)" fill="#02193b" fill-rule="evenodd"></path><path id="Fill-149" d="M50.235,56.526a.745.745,0,1,1,.745.743.744.744,0,0,1-.745-.743" transform="translate(-409.513 132.643)" fill="#02193b" fill-rule="evenodd"></path><path id="Fill-151" d="M40.438,26.75a1.064,1.064,0,1,1,1.064,1.06,1.062,1.062,0,0,1-1.064-1.06" transform="translate(-403.952 149.723)" fill="#2684ff" fill-rule="evenodd"></path><g id="Group-155" transform="translate(-355.407 165)"><path id="Fill-153" d="M1.122,2.319a1.2,1.2,0,1,1,1.2,1.2,1.2,1.2,0,0,1-1.2-1.2" transform="translate(-1.122 -1.119)" fill="#2684ff" fill-rule="evenodd"></path></g><path id="Fill-156" d="M63.866,2.315a.634.634,0,1,1,.634.633.633.633,0,0,1-.634-.633" transform="translate(-417.249 163.349)" fill="#02193b" fill-rule="evenodd"></path><path id="Fill-158" d="M88.8,26.4a1.782,1.782,0,1,1,1.782,1.777A1.78,1.78,0,0,1,88.8,26.4" transform="translate(-431.401 150.327)" fill="#2684ff" fill-rule="evenodd"></path><path id="Fill-160" d="M90.7,43.549a1.538,1.538,0,1,1,1.538,1.533A1.535,1.535,0,0,1,90.7,43.549" transform="translate(-432.48 140.457)" fill="#02193b" fill-rule="evenodd"></path><path id="Fill-162" d="M91.8,47.488a1.188,1.188,0,1,1,1.188,1.185A1.187,1.187,0,0,1,91.8,47.488" transform="translate(-433.105 138.024)" fill="#2684ff" fill-rule="evenodd"></path><path id="Fill-164" d="M89.485,48.9a.743.743,0,1,1,.743.741.742.742,0,0,1-.743-.741" transform="translate(-431.79 136.972)" fill="#02193b" fill-rule="evenodd"></path><path id="Fill-166" d="M92.476,51.163a.77.77,0,1,1,.77.768.769.769,0,0,1-.77-.768" transform="translate(-433.488 135.701)" fill="#02193b" fill-rule="evenodd"></path><path id="Fill-168" d="M77.941,20.56a1.2,1.2,0,1,1,1.2,1.2,1.2,1.2,0,0,1-1.2-1.2" transform="translate(-425.238 153.313)" fill="#2684ff" fill-rule="evenodd"></path><path id="Fill-170" d="M37.415,7.62a1.2,1.2,0,1,1,1.2,1.2,1.2,1.2,0,0,1-1.2-1.2" transform="translate(-402.236 160.658)" fill="#2684ff" fill-rule="evenodd"></path><path id="Fill-172" d="M40.257,67.892a.793.793,0,1,1,.793.791.792.792,0,0,1-.793-.791" transform="translate(-403.849 126.219)" fill="#2684ff" fill-rule="evenodd"></path><path id="Fill-174" d="M89.094,53.773a1.175,1.175,0,1,1,1.175,1.171,1.173,1.173,0,0,1-1.175-1.171" transform="translate(-431.568 134.448)" fill="#b3d4ff" fill-rule="evenodd"></path><path id="Fill-176" d="M86.021,33.87a1.095,1.095,0,1,1,1.094,1.091,1.093,1.093,0,0,1-1.094-1.091" transform="translate(-429.824 145.7)" fill="#b3d4ff" fill-rule="evenodd"></path><path id="Fill-178" d="M63.4,61.387a1.079,1.079,0,1,1,1.079,1.076A1.077,1.077,0,0,1,63.4,61.387" transform="translate(-416.986 130.073)" fill="#b3d4ff" fill-rule="evenodd"></path><path id="Fill-180" d="M15.337,57.878a.741.741,0,1,1,.741.739.741.741,0,0,1-.741-.739" transform="translate(-389.705 131.873)" fill="#b3d4ff" fill-rule="evenodd"></path><path id="Fill-182" d="M84.043,49.564a1.069,1.069,0,1,1,1.069,1.066,1.068,1.068,0,0,1-1.069-1.066" transform="translate(-428.701 136.778)" fill="#b3d4ff" fill-rule="evenodd"></path><path id="Fill-184" d="M69.528,70.005a1.183,1.183,0,1,1,1.182,1.179,1.181,1.181,0,0,1-1.182-1.179" transform="translate(-420.463 125.24)" fill="#b3d4ff" fill-rule="evenodd"></path><path id="Fill-186" d="M80.658,25.061a1.069,1.069,0,1,1,1.069,1.066,1.068,1.068,0,0,1-1.069-1.066" transform="translate(-426.78 150.685)" fill="#b3d4ff" fill-rule="evenodd"></path><path id="Fill-188" d="M21.138,22.626a1.069,1.069,0,1,1,1.069,1.066,1.068,1.068,0,0,1-1.069-1.066" transform="translate(-392.998 152.067)" fill="#b3d4ff" fill-rule="evenodd"></path><path id="Fill-190" d="M20.143,36.138a1.1,1.1,0,1,1,1.1,1.1,1.1,1.1,0,0,1-1.1-1.1" transform="translate(-392.433 144.417)" fill="#b3d4ff" fill-rule="evenodd"></path><path id="Fill-192" d="M38.148,19.188a1.069,1.069,0,1,1,1.069,1.066,1.068,1.068,0,0,1-1.069-1.066" transform="translate(-402.652 154.019)" fill="#b3d4ff" fill-rule="evenodd"></path><path id="Fill-194" d="M40.09,58.517a.865.865,0,1,1,.865.863.864.864,0,0,1-.865-.863" transform="translate(-403.754 131.581)" fill="#b3d4ff" fill-rule="evenodd"></path><path id="Fill-196" d="M82.742,56.4a1.069,1.069,0,1,1,1.069,1.066A1.068,1.068,0,0,1,82.742,56.4" transform="translate(-427.963 132.896)" fill="#b3d4ff" fill-rule="evenodd"></path><path id="Fill-198" d="M80.075,59.492a1.069,1.069,0,1,1,1.069,1.066,1.068,1.068,0,0,1-1.069-1.066" transform="translate(-426.449 131.143)" fill="#b3d4ff" fill-rule="evenodd"></path><path id="Fill-200" d="M61.788,69.461a1.069,1.069,0,1,1,1.068,1.066,1.068,1.068,0,0,1-1.068-1.066" transform="translate(-416.07 125.485)" fill="#b3d4ff" fill-rule="evenodd"></path><path id="Fill-202" d="M49.912,12.531A1.069,1.069,0,1,1,50.981,13.6a1.068,1.068,0,0,1-1.069-1.066" transform="translate(-409.329 157.797)" fill="#b3d4ff" fill-rule="evenodd"></path><path id="Fill-204" d="M64.942,57.8a.768.768,0,1,1,.768.765.766.766,0,0,1-.768-.765" transform="translate(-417.86 131.93)" fill="#b3d4ff" fill-rule="evenodd"></path><path id="Fill-206" d="M7.827,42.8a.756.756,0,1,1,.757.754.755.755,0,0,1-.757-.754" transform="translate(-385.443 140.437)" fill="#2684ff" fill-rule="evenodd"></path><path id="Fill-208" d="M42.738,13.023a.713.713,0,1,1,.713.711.712.712,0,0,1-.713-.711" transform="translate(-405.257 157.316)" fill="#b3d4ff" fill-rule="evenodd"></path><path id="Fill-210" d="M31.334,39.752a.713.713,0,1,1,.713.711.712.712,0,0,1-.713-.711" transform="translate(-398.785 142.145)" fill="#b3d4ff" fill-rule="evenodd"></path><path id="Fill-212" d="M41.655,48.812a.731.731,0,1,1,.732.729.73.73,0,0,1-.732-.729" transform="translate(-404.643 137.014)" fill="#2684ff" fill-rule="evenodd"></path><path id="Fill-216" d="M85.07,28.953a1.059,1.059,0,1,1,1.059,1.056,1.058,1.058,0,0,1-1.059-1.056" transform="translate(-429.284 148.47)" fill="#b3d4ff" fill-rule="evenodd"></path><path id="Fill-218" d="M51.612,17.53A1.078,1.078,0,1,1,52.689,18.6a1.075,1.075,0,0,1-1.078-1.074" transform="translate(-410.294 154.964)" fill="#b3d4ff" fill-rule="evenodd"></path><path id="Fill-220" d="M45.058,62.928a.713.713,0,1,1,.713.711.712.712,0,0,1-.713-.711" transform="translate(-406.574 128.991)" fill="#b3d4ff" fill-rule="evenodd"></path><path id="Fill-222" d="M43.114,6.031a.734.734,0,1,1,.734.732.733.733,0,0,1-.734-.732" transform="translate(-405.471 161.297)" fill="#b3d4ff" fill-rule="evenodd"></path><path id="Fill-224" d="M72.436,13.454a.713.713,0,1,1,.713.711.712.712,0,0,1-.713-.711" transform="translate(-422.113 157.071)" fill="#b3d4ff" fill-rule="evenodd"></path><path id="Fill-226" d="M55.488,58.136a.726.726,0,1,1,.726.724.725.725,0,0,1-.726-.724" transform="translate(-412.494 131.719)" fill="#2684ff" fill-rule="evenodd"></path><path id="Fill-228" d="M31.787,14.262a.882.882,0,1,1,.882.88.881.881,0,0,1-.882-.88" transform="translate(-399.042 156.709)" fill="#b3d4ff" fill-rule="evenodd"></path><path id="Fill-230" d="M28.533,55.735a.821.821,0,1,1,.82.818.819.819,0,0,1-.82-.818" transform="translate(-397.195 133.134)" fill="#b3d4ff" fill-rule="evenodd"></path><path id="Fill-232" d="M50.769,5.965a.783.783,0,1,1,.783.782.782.782,0,0,1-.783-.782" transform="translate(-409.816 161.362)" fill="#b3d4ff" fill-rule="evenodd"></path><path id="Fill-234" d="M79.719,39.768a.713.713,0,1,1,.713.711.712.712,0,0,1-.713-.711" transform="translate(-426.247 142.136)" fill="#b3d4ff" fill-rule="evenodd"></path><path id="Fill-236" d="M26.65,37.063a.805.805,0,0,1,1.61,0,.805.805,0,0,1-1.61,0" transform="translate(-396.126 143.724)" fill="#2684ff" fill-rule="evenodd"></path><path id="Fill-238" d="M68.6,3.45a.713.713,0,1,1,.713.711A.712.712,0,0,1,68.6,3.45" transform="translate(-419.937 162.75)" fill="#b3d4ff" fill-rule="evenodd"></path><path id="Fill-240" d="M65.529,16.893a.741.741,0,1,1,.741.738.74.74,0,0,1-.741-.738" transform="translate(-418.193 155.135)" fill="#b3d4ff" fill-rule="evenodd"></path><path id="Fill-242" d="M84.856,66.774a.718.718,0,1,1,.718.716.717.717,0,0,1-.718-.716" transform="translate(-429.163 126.811)" fill="#2684ff" fill-rule="evenodd"></path><path id="Fill-244" d="M37.489,64.347a.718.718,0,1,1,.717.716.716.716,0,0,1-.717-.716" transform="translate(-402.278 128.188)" fill="#b3d4ff" fill-rule="evenodd"></path><path id="Fill-246" d="M57.622,17.183a.73.73,0,1,1,.73.727.729.729,0,0,1-.73-.727" transform="translate(-413.705 154.964)" fill="#b3d4ff" fill-rule="evenodd"></path><path id="Fill-248" d="M90.985,34.727a.713.713,0,1,1,.713.711.712.712,0,0,1-.713-.711" transform="translate(-432.641 144.997)" fill="#2684ff" fill-rule="evenodd"></path><path id="Fill-253" d="M53.828,67.155a.486.486,0,1,1,.486.485.486.486,0,0,1-.486-.485" transform="translate(-411.552 126.464)" fill="#b3d4ff" fill-rule="evenodd"></path><path id="Fill-255" d="M48.142,65.057a.484.484,0,1,1,.484.483.484.484,0,0,1-.484-.483" transform="translate(-408.324 127.654)" fill="#b3d4ff" fill-rule="evenodd"></path><path id="Fill-257" d="M33.63,26.6a.476.476,0,1,1,.476.474.475.475,0,0,1-.476-.474" transform="translate(-400.088 149.475)" fill="#b3d4ff" fill-rule="evenodd"></path><path id="Fill-259" d="M26.462,65.985a.476.476,0,1,1,.476.474.476.476,0,0,1-.476-.474" transform="translate(-396.019 127.122)" fill="#b3d4ff" fill-rule="evenodd"></path><path id="Fill-261" d="M72.688,19.046a.746.746,0,1,1,.746.744.745.745,0,0,1-.746-.744" transform="translate(-422.256 153.917)" fill="#02193b" fill-rule="evenodd"></path><path id="Fill-263" d="M63.155,66.326a.521.521,0,1,1,.52.519.52.52,0,0,1-.52-.519" transform="translate(-416.846 126.954)" fill="#b3d4ff" fill-rule="evenodd"></path><path id="Fill-265" d="M52.758,57.113a.527.527,0,1,1,.527.525.526.526,0,0,1-.527-.525" transform="translate(-410.945 132.186)" fill="#b3d4ff" fill-rule="evenodd"></path><path id="Fill-267" d="M90.989,75.758a.476.476,0,1,1,.476.474.476.476,0,0,1-.476-.474" transform="translate(-432.644 121.575)" fill="#b3d4ff" fill-rule="evenodd"></path><path id="Fill-269" d="M38.228,50.258a.679.679,0,1,1,.679.678.679.679,0,0,1-.679-.678" transform="translate(-402.698 136.164)" fill="#b3d4ff" fill-rule="evenodd"></path><path id="Fill-271" d="M43.938,50.4a.476.476,0,1,1,.476.474.475.475,0,0,1-.476-.474" transform="translate(-405.938 135.967)" fill="#2684ff" fill-rule="evenodd"></path><path id="Fill-273" d="M76.3,14.073a.859.859,0,1,1,.859.856.858.858,0,0,1-.859-.856" transform="translate(-424.306 156.803)" fill="#b3d4ff" fill-rule="evenodd"></path><path id="Fill-277" d="M65.588,74.024a.562.562,0,1,1,.563.56.562.562,0,0,1-.563-.56" transform="translate(-418.226 122.608)" fill="#b3d4ff" fill-rule="evenodd"></path><path id="Fill-279" d="M31.466,70.124a.562.562,0,1,1,.563.561.562.562,0,0,1-.563-.561" transform="translate(-398.86 124.821)" fill="#b3d4ff" fill-rule="evenodd"></path><path id="Fill-281" d="M80.127,74.989a.618.618,0,1,1,.618.616.617.617,0,0,1-.618-.616" transform="translate(-426.479 122.092)" fill="#b3d4ff" fill-rule="evenodd"></path><path id="Fill-283" d="M86.59,37.458a.609.609,0,1,1,.608.606.608.608,0,0,1-.608-.606" transform="translate(-430.147 143.388)" fill="#b3d4ff" fill-rule="evenodd"></path><path id="Fill-285" d="M33.533,49.233a.53.53,0,1,1,.53.528.529.529,0,0,1-.53-.528" transform="translate(-400.033 136.661)" fill="#b3d4ff" fill-rule="evenodd"></path><path id="Fill-287" d="M43.127,69.727a.815.815,0,1,1,.815.812.813.813,0,0,1-.815-.812" transform="translate(-405.478 125.19)" fill="#b3d4ff" fill-rule="evenodd"></path><path id="Fill-289" d="M10.456,54.893a.53.53,0,1,1,.53.528.529.529,0,0,1-.53-.528" transform="translate(-386.935 133.448)" fill="#b3d4ff" fill-rule="evenodd"></path><path id="Fill-291" d="M28.511,30.876a.476.476,0,1,1,.476.474.476.476,0,0,1-.476-.474" transform="translate(-397.183 147.049)" fill="#2684ff" fill-rule="evenodd"></path><path id="Fill-293" d="M15.647,34.89a.476.476,0,1,1,.476.474.476.476,0,0,1-.476-.474" transform="translate(-389.881 144.771)" fill="#b3d4ff" fill-rule="evenodd"></path><path id="Fill-295" d="M4.025,33.506a.567.567,0,1,1,.566.565.565.565,0,0,1-.566-.565" transform="translate(-383.284 145.607)" fill="#02193b" fill-rule="evenodd"></path><path id="Fill-297" d="M25.252,33.476a.54.54,0,1,1,.54.538.539.539,0,0,1-.54-.538" transform="translate(-395.333 145.61)" fill="#02193b" fill-rule="evenodd"></path><path id="Fill-299" d="M12.522,31.261a.476.476,0,1,1,.476.474.475.475,0,0,1-.476-.474" transform="translate(-388.108 146.831)" fill="#b3d4ff" fill-rule="evenodd"></path><path id="Fill-301" d="M28.892,18.311a.664.664,0,1,1,.664.662.663.663,0,0,1-.664-.662" transform="translate(-397.399 154.287)" fill="#b3d4ff" fill-rule="evenodd"></path><path id="Fill-303" d="M76.668,48.969a.476.476,0,1,1,.476.474.476.476,0,0,1-.476-.474" transform="translate(-424.516 136.78)" fill="#b3d4ff" fill-rule="evenodd"></path><path id="Fill-305" d="M71.48,3.985a.476.476,0,1,1,.476.474.475.475,0,0,1-.476-.474" transform="translate(-421.571 162.312)" fill="#b3d4ff" fill-rule="evenodd"></path><path id="Fill-307" d="M83.459,21.863a.476.476,0,1,1,.476.474.476.476,0,0,1-.476-.474" transform="translate(-428.37 152.165)" fill="#b3d4ff" fill-rule="evenodd"></path><path id="Fill-309" d="M54.448,57.537a.475.475,0,1,1,.476.474.475.475,0,0,1-.476-.474" transform="translate(-411.904 131.917)" fill="#b3d4ff" fill-rule="evenodd"></path><path id="Fill-311" d="M45.588,4.991a.545.545,0,1,1,.545.544.544.544,0,0,1-.545-.544" transform="translate(-406.875 161.78)" fill="#b3d4ff" fill-rule="evenodd"></path><path id="Fill-313" d="M79.573,35.505a.6.6,0,1,1,.6.6.6.6,0,0,1-.6-.6" transform="translate(-426.164 144.492)" fill="#b3d4ff" fill-rule="evenodd"></path><path id="Fill-315" d="M76.947,28.035a.709.709,0,1,1,.709.707.707.707,0,0,1-.709-.707" transform="translate(-424.674 148.793)" fill="#b3d4ff" fill-rule="evenodd"></path><path id="Fill-317" d="M57.279,70.073a.476.476,0,1,1,.476.474.476.476,0,0,1-.476-.474" transform="translate(-413.51 124.802)" fill="#b3d4ff" fill-rule="evenodd"></path><path id="Fill-319" d="M83.366,48.081a.495.495,0,1,1,.494.493.493.493,0,0,1-.494-.493" transform="translate(-428.317 137.294)" fill="#b3d4ff" fill-rule="evenodd"></path><path id="Fill-321" d="M86.673,81.2a.495.495,0,1,1,.5.493.494.494,0,0,1-.5-.493" transform="translate(-430.194 118.5)" fill="#b3d4ff" fill-rule="evenodd"></path><path id="Fill-323" d="M35.377,67.587a.476.476,0,1,1,.476.474.476.476,0,0,1-.476-.474" transform="translate(-401.079 126.213)" fill="#b3d4ff" fill-rule="evenodd"></path><path id="Fill-325" d="M75.741,82.451a.476.476,0,1,1,.476.474.475.475,0,0,1-.476-.474" transform="translate(-423.989 117.776)" fill="#b3d4ff" fill-rule="evenodd"></path><path id="Fill-327" d="M77.494,47.481a.516.516,0,1,1,.517.515.516.516,0,0,1-.517-.515" transform="translate(-424.984 137.647)" fill="#b3d4ff" fill-rule="evenodd"></path><path id="Fill-329" d="M29.374,28.576a.724.724,0,1,1,.723.722.723.723,0,0,1-.723-.722" transform="translate(-397.672 148.495)" fill="#b3d4ff" fill-rule="evenodd"></path><path id="Fill-331" d="M79.034,32.673a.793.793,0,1,1,.793.791.792.792,0,0,1-.793-.791" transform="translate(-425.858 146.209)" fill="#2684ff" fill-rule="evenodd"></path><path id="Fill-333" d="M48.583,60.693a.793.793,0,1,1,.793.791.792.792,0,0,1-.793-.791" transform="translate(-408.575 130.305)" fill="#2684ff" fill-rule="evenodd"></path><path id="Fill-335" d="M19,42.916a.793.793,0,1,1,.793.791A.792.792,0,0,1,19,42.916" transform="translate(-391.782 140.395)" fill="#02193b" fill-rule="evenodd"></path><path id="Fill-337" d="M66.019,2.927a.732.732,0,1,1,.732.729.731.731,0,0,1-.732-.729" transform="translate(-418.471 163.057)" fill="#02193b" fill-rule="evenodd"></path><path id="Fill-339" d="M50.752,3.252a.642.642,0,1,1,.642.64.641.641,0,0,1-.642-.64" transform="translate(-409.806 162.822)" fill="#02193b" fill-rule="evenodd"></path><path id="Fill-341" d="M46.849,4.543a1.2,1.2,0,1,1,1.2,1.2,1.2,1.2,0,0,1-1.2-1.2" transform="translate(-407.59 162.407)" fill="#2684ff" fill-rule="evenodd"></path><path id="Fill-343" d="M44.119,19a1.434,1.434,0,1,1,1.434,1.429A1.432,1.432,0,0,1,44.119,19" transform="translate(-406.041 154.329)" fill="#02193b" fill-rule="evenodd"></path><path id="Fill-345" d="M42.657,25a.862.862,0,1,1,.862.859A.861.861,0,0,1,42.657,25" transform="translate(-405.212 150.603)" fill="#2684ff" fill-rule="evenodd"></path><path id="Fill-347" d="M14.713,64.1a.725.725,0,1,1,.725.722.723.723,0,0,1-.725-.722" transform="translate(-389.351 128.335)" fill="#2684ff" fill-rule="evenodd"></path><path id="Fill-349" d="M35.861,13.9a.989.989,0,1,1,.989.985.988.988,0,0,1-.989-.985" transform="translate(-401.354 156.973)" fill="#02193b" fill-rule="evenodd"></path><path id="Fill-351" d="M31.631,8.993a.989.989,0,1,1,.988.985.987.987,0,0,1-.988-.985" transform="translate(-398.954 159.76)" fill="#02193b" fill-rule="evenodd"></path><path id="Fill-353" d="M19.314,29.9a.989.989,0,1,1,.988.985.987.987,0,0,1-.988-.985" transform="translate(-391.962 147.894)" fill="#02193b" fill-rule="evenodd"></path><path id="Fill-355" d="M9.353,25.431a.83.83,0,1,1,.829.827.829.829,0,0,1-.829-.827" transform="translate(-386.309 150.34)" fill="#02193b" fill-rule="evenodd"></path><path id="Fill-357" d="M71.56,54.49a.838.838,0,1,1,.838.836.837.837,0,0,1-.838-.836" transform="translate(-421.616 133.852)" fill="#2684ff" fill-rule="evenodd"></path><path id="Fill-359" d="M45.481,71.218a.758.758,0,1,1,.757.755.756.756,0,0,1-.757-.755" transform="translate(-406.814 124.311)" fill="#02193b" fill-rule="evenodd"></path><path id="Fill-361" d="M82.783,39.442a.9.9,0,1,1,.9.9.9.9,0,0,1-.9-.9" transform="translate(-427.986 142.429)" fill="#02193b" fill-rule="evenodd"></path><path id="Fill-363" d="M25.678,43.707a.8.8,0,1,1,.8.8.8.8,0,0,1-.8-.8" transform="translate(-395.574 139.949)" fill="#2684ff" fill-rule="evenodd"></path><path id="Fill-365" d="M29.452,47.227A1.147,1.147,0,1,1,30.6,48.371a1.146,1.146,0,0,1-1.147-1.144" transform="translate(-397.716 138.149)" fill="#b3d4ff" fill-rule="evenodd"></path><path id="Fill-367" d="M32.985,43.431a.755.755,0,1,1,.755.753.754.754,0,0,1-.755-.753" transform="translate(-399.721 140.081)" fill="#02193b" fill-rule="evenodd"></path><path id="Fill-369" d="M77.884,84.087a1.307,1.307,0,1,1,1.307,1.3,1.305,1.305,0,0,1-1.307-1.3" transform="translate(-425.206 117.318)" fill="#02193b" fill-rule="evenodd"></path><path id="Fill-371" d="M85.733,83.68a.793.793,0,1,1,.793.791.792.792,0,0,1-.793-.791" transform="translate(-429.661 117.258)" fill="#2684ff" fill-rule="evenodd"></path><path id="Fill-373" d="M25.867,69.051a.793.793,0,1,1,.793.791.792.792,0,0,1-.793-.791" transform="translate(-395.681 125.561)" fill="#02193b" fill-rule="evenodd"></path><path id="Fill-375" d="M33.892,32.967a1.881,1.881,0,1,1,1.88,1.875,1.878,1.878,0,0,1-1.88-1.875" transform="translate(-400.236 146.657)" fill="#2684ff" fill-rule="evenodd"></path><path id="Fill-377" d="M32.422,55.193a1.881,1.881,0,1,1,1.88,1.875,1.878,1.878,0,0,1-1.88-1.875" transform="translate(-399.402 134.042)" fill="#2684ff" fill-rule="evenodd"></path><path id="Fill-379" d="M36.206,38.1a1.272,1.272,0,1,1,1.272,1.269A1.271,1.271,0,0,1,36.206,38.1" transform="translate(-401.55 143.401)" fill="#2684ff" fill-rule="evenodd"></path><path id="Fill-381" d="M38.557,41.752a.843.843,0,1,1,.843.84.841.841,0,0,1-.843-.84" transform="translate(-402.884 141.084)" fill="#2684ff" fill-rule="evenodd"></path><path id="Fill-383" d="M70.773,72.874a1.074,1.074,0,1,1,1.074,1.071,1.072,1.072,0,0,1-1.074-1.071" transform="translate(-421.169 123.551)" fill="#2684ff" fill-rule="evenodd"></path><path id="Fill-385" d="M85.4,23.257a1.125,1.125,0,1,1,1.124,1.122A1.122,1.122,0,0,1,85.4,23.257" transform="translate(-429.469 151.74)" fill="#2684ff" fill-rule="evenodd"></path><path id="Fill-387" d="M81.493,32.576a1.114,1.114,0,1,1,1.114,1.111,1.112,1.112,0,0,1-1.114-1.111" transform="translate(-427.254 146.445)" fill="#02193b" fill-rule="evenodd"></path><path id="Fill-389" d="M0,27.107a.54.54,0,1,1,.539.538A.539.539,0,0,1,0,27.107" transform="translate(-381 149.225)" fill="#b3d4ff" fill-rule="evenodd"></path><path id="Fill-391" d="M79.573,66.022a1.109,1.109,0,1,1,1.108,1.1,1.106,1.106,0,0,1-1.108-1.1" transform="translate(-426.164 127.459)" fill="#2684ff" fill-rule="evenodd"></path><path id="Fill-393" d="M56.583,72.051a1.208,1.208,0,1,1,1.208,1.2,1.206,1.206,0,0,1-1.208-1.2" transform="translate(-413.115 124.093)" fill="#2684ff" fill-rule="evenodd"></path><path id="Fill-395" d="M84.054,42.563a1.12,1.12,0,1,1,1.12,1.117,1.118,1.118,0,0,1-1.12-1.117" transform="translate(-428.708 140.781)" fill="#2684ff" fill-rule="evenodd"></path><path id="Fill-397" d="M68.38,16.005a1.161,1.161,0,1,1,1.161,1.157,1.159,1.159,0,0,1-1.161-1.157" transform="translate(-419.811 155.877)" fill="#02193b" fill-rule="evenodd"></path><path id="Fill-399" d="M75.92,72.229A1.073,1.073,0,1,1,76.993,73.3a1.07,1.07,0,0,1-1.073-1.069" transform="translate(-424.091 123.915)" fill="#2684ff" fill-rule="evenodd"></path><path id="Fill-401" d="M88.176,56.834a1.054,1.054,0,1,1,1.055,1.051,1.053,1.053,0,0,1-1.055-1.051" transform="translate(-431.047 132.643)" fill="#02193b" fill-rule="evenodd"></path><path id="Fill-403" d="M52.563,63.181A1.138,1.138,0,1,1,53.7,64.316a1.136,1.136,0,0,1-1.138-1.135" transform="translate(-410.834 129.088)" fill="#2684ff" fill-rule="evenodd"></path><path id="Fill-405" d="M81.731,81.793A1.07,1.07,0,1,1,82.8,82.86a1.068,1.068,0,0,1-1.07-1.067" transform="translate(-427.389 118.485)" fill="#02193b" fill-rule="evenodd"></path><path id="Fill-407" d="M57.408,66.188a.745.745,0,1,1,.745.743.744.744,0,0,1-.745-.743" transform="translate(-413.584 127.159)" fill="#02193b" fill-rule="evenodd"></path><path id="Fill-409" d="M78.442,53.253a1.1,1.1,0,1,1,1.1,1.1,1.1,1.1,0,0,1-1.1-1.1" transform="translate(-425.522 134.701)" fill="#02193b" fill-rule="evenodd"></path><path id="Fill-411" d="M73.34,22.585a1.1,1.1,0,1,1,1.1,1.1,1.1,1.1,0,0,1-1.1-1.1" transform="translate(-422.627 152.108)" fill="#02193b" fill-rule="evenodd"></path><path id="Fill-413" d="M76.93,57.225A1.073,1.073,0,1,1,78,58.3a1.072,1.072,0,0,1-1.073-1.07" transform="translate(-424.664 132.432)" fill="#2684ff" fill-rule="evenodd"></path><path id="Fill-415" d="M92.788,31.379a1.119,1.119,0,1,1,1.119,1.116,1.117,1.117,0,0,1-1.119-1.116" transform="translate(-433.665 147.128)" fill="#02193b" fill-rule="evenodd"></path><path id="Fill-417" d="M79.269,15.785A1.132,1.132,0,1,1,80.4,16.913a1.131,1.131,0,0,1-1.132-1.129" transform="translate(-425.992 155.986)" fill="#02193b" fill-rule="evenodd"></path><path id="Fill-419" d="M22.373,47.319a.721.721,0,1,1,.721.719.72.72,0,0,1-.721-.719" transform="translate(-393.699 137.855)" fill="#2684ff" fill-rule="evenodd"></path><path id="Fill-421" d="M72.33,16.125A1.069,1.069,0,1,1,73.4,17.191a1.067,1.067,0,0,1-1.068-1.066" transform="translate(-422.053 155.757)" fill="#2684ff" fill-rule="evenodd"></path><path id="Fill-423" d="M78.442,45.257a.8.8,0,1,1,.8.8.8.8,0,0,1-.8-.8" transform="translate(-425.522 139.07)" fill="#2684ff" fill-rule="evenodd"></path><path id="Fill-425" d="M44.965,23.427a.727.727,0,1,1,.727.725.726.726,0,0,1-.727-.725" transform="translate(-406.521 151.419)" fill="#2684ff" fill-rule="evenodd"></path><path id="Fill-427" d="M78.177,30.138a.8.8,0,1,1,.8.8.8.8,0,0,1-.8-.8" transform="translate(-425.372 147.652)" fill="#2684ff" fill-rule="evenodd"></path><path id="Fill-429" d="M90.827,38.988a.713.713,0,1,1,.713.711.712.712,0,0,1-.713-.711" transform="translate(-432.552 142.579)" fill="#2684ff" fill-rule="evenodd"></path><path id="Fill-431" d="M63.381,18.259a.737.737,0,1,1,.737.736.736.736,0,0,1-.737-.736" transform="translate(-416.974 154.358)" fill="#02193b" fill-rule="evenodd"></path><path id="Fill-433" d="M25.348,27.605a.725.725,0,1,1,.725.722.724.724,0,0,1-.725-.722" transform="translate(-395.387 149.047)" fill="#2684ff" fill-rule="evenodd"></path><path id="Fill-435" d="M88.338,32.1a.776.776,0,1,1,.775.773.774.774,0,0,1-.775-.773" transform="translate(-431.139 146.521)" fill="#02193b" fill-rule="evenodd"></path><path id="Fill-437" d="M19.9,62.074a.713.713,0,1,1,.713.711.712.712,0,0,1-.713-.711" transform="translate(-392.297 129.476)" fill="#2684ff" fill-rule="evenodd"></path><path id="Fill-439" d="M60.051,73.954a.717.717,0,1,1,.717.715.716.716,0,0,1-.717-.715" transform="translate(-415.084 122.735)" fill="#2684ff" fill-rule="evenodd"></path><path id="Fill-441" d="M85.387,85.82a.768.768,0,1,1,.768.766.767.767,0,0,1-.768-.766" transform="translate(-429.464 116.029)" fill="#2684ff" fill-rule="evenodd"></path><path id="Fill-443" d="M72.085,75.6a.713.713,0,1,1,.713.711.712.712,0,0,1-.713-.711" transform="translate(-421.914 121.797)" fill="#2684ff" fill-rule="evenodd"></path><path id="Fill-445" d="M85.995,68.876a.732.732,0,1,1,.732.73.731.731,0,0,1-.732-.73" transform="translate(-429.809 125.626)" fill="#2684ff" fill-rule="evenodd"></path><path id="Fill-447" d="M26.486,13.723a.713.713,0,1,1,.713.711.712.712,0,0,1-.713-.711" transform="translate(-396.033 156.919)" fill="#b3d4ff" fill-rule="evenodd"></path><path id="Fill-449" d="M76.738,83.785a.713.713,0,1,1,.713.711.712.712,0,0,1-.713-.711" transform="translate(-424.555 117.153)" fill="#2684ff" fill-rule="evenodd"></path><path id="Fill-451" d="M89.831,75.577a.732.732,0,1,1,.732.731.732.732,0,0,1-.732-.731" transform="translate(-431.987 121.823)" fill="#2684ff" fill-rule="evenodd"></path><path id="Fill-453" d="M24.794,52.186a.7.7,0,1,1,.7.7.7.7,0,0,1-.7-.7" transform="translate(-395.073 135.082)" fill="#02193b" fill-rule="evenodd"></path><path id="Fill-455" d="M73.105,77.82a.528.528,0,1,1,.529.527.527.527,0,0,1-.529-.527" transform="translate(-422.493 120.434)" fill="#2684ff" fill-rule="evenodd"></path><path id="Fill-461" d="M4.806,25.835a.478.478,0,1,1,.478.476.477.477,0,0,1-.478-.476" transform="translate(-383.728 149.911)" fill="#2684ff" fill-rule="evenodd"></path><path id="Fill-463" d="M60.917,64.743a.524.524,0,1,1,.524.522.523.523,0,0,1-.524-.522" transform="translate(-415.576 127.854)" fill="#2684ff" fill-rule="evenodd"></path><path id="Fill-465" d="M62.675,74.377a.557.557,0,1,1,.557.556.556.556,0,0,1-.557-.556" transform="translate(-416.573 122.405)" fill="#2684ff" fill-rule="evenodd"></path><path id="Fill-467" d="M45.363,66.522a.489.489,0,1,1,.489.487.488.488,0,0,1-.489-.487" transform="translate(-406.747 126.824)" fill="#02193b" fill-rule="evenodd"></path><path id="Fill-469" d="M37.1,69.634a.489.489,0,1,1,.489.487.488.488,0,0,1-.489-.487" transform="translate(-402.056 125.058)" fill="#2684ff" fill-rule="evenodd"></path><path id="Fill-471" d="M65.844,19.048a.6.6,0,1,1,.6.6.6.6,0,0,1-.6-.6" transform="translate(-418.372 153.835)" fill="#02193b" fill-rule="evenodd"></path><path id="Fill-473" d="M74.646,80.583a.5.5,0,1,1,.5.5.5.5,0,0,1-.5-.5" transform="translate(-423.368 118.848)" fill="#2684ff" fill-rule="evenodd"></path><path id="Fill-475" d="M82.359,44.285a.476.476,0,1,1,.476.474.475.475,0,0,1-.476-.474" transform="translate(-427.746 139.438)" fill="#02193b" fill-rule="evenodd"></path><path id="Fill-477" d="M87.255,60.2a.763.763,0,1,1,.763.761.762.762,0,0,1-.763-.761" transform="translate(-430.524 130.566)" fill="#02193b" fill-rule="evenodd"></path><path id="Fill-479" d="M85.064,64.8a.5.5,0,1,1,.5.5.5.5,0,0,1-.5-.5" transform="translate(-429.281 127.809)" fill="#2684ff" fill-rule="evenodd"></path><path id="Fill-481" d="M89.716,73.653a.551.551,0,1,1,.55.549.55.55,0,0,1-.55-.549" transform="translate(-431.921 122.812)" fill="#2684ff" fill-rule="evenodd"></path><path id="Fill-483" d="M84.624,87.374a.551.551,0,1,1,.55.549.55.55,0,0,1-.55-.549" transform="translate(-429.031 115.024)" fill="#2684ff" fill-rule="evenodd"></path><path id="Fill-485" d="M58.353,58.186a.476.476,0,1,1,.476.474.475.475,0,0,1-.476-.474" transform="translate(-414.12 131.548)" fill="#2684ff" fill-rule="evenodd"></path><path id="Fill-487" d="M67.93,60.378a.556.556,0,1,1,.555.554.554.554,0,0,1-.555-.554" transform="translate(-419.556 130.349)" fill="#2684ff" fill-rule="evenodd"></path><path id="Fill-489" d="M61.054,67.207a.317.317,0,1,1,.317.316.317.317,0,0,1-.317-.316" transform="translate(-415.653 126.338)" fill="#02193b" fill-rule="evenodd"></path><path id="Fill-491" d="M88.222,86.321a.385.385,0,1,1,.385.385.384.384,0,0,1-.385-.385" transform="translate(-431.073 115.528)" fill="#02193b" fill-rule="evenodd"></path><path id="Fill-493" d="M60.242,58.118a.317.317,0,1,1,.317.316.317.317,0,0,1-.317-.316" transform="translate(-415.192 131.498)" fill="#2684ff" fill-rule="evenodd"></path><path id="Fill-495" d="M69.8,61.8a.317.317,0,1,1,.317.316A.317.317,0,0,1,69.8,61.8" transform="translate(-420.616 129.408)" fill="#2684ff" fill-rule="evenodd"></path><path id="Fill-497" d="M79.17,43.344a.356.356,0,1,1,.357.355.356.356,0,0,1-.357-.355" transform="translate(-425.935 139.905)" fill="#2684ff" fill-rule="evenodd"></path><path id="Fill-499" d="M84.046,88.848a.317.317,0,1,1,.317.316.316.316,0,0,1-.317-.316" transform="translate(-428.703 114.055)" fill="#2684ff" fill-rule="evenodd"></path><path id="Fill-501" d="M26.464,61.855a.44.44,0,1,1,.44.439.439.439,0,0,1-.44-.439" transform="translate(-396.02 129.446)" fill="#2684ff" fill-rule="evenodd"></path><path id="Fill-503" d="M86.516,47.116a.36.36,0,1,1,.36.359.359.359,0,0,1-.36-.359" transform="translate(-430.105 137.766)" fill="#02193b" fill-rule="evenodd"></path><path id="Fill-507" d="M73.68,79.434a.28.28,0,1,1,.28.279.279.279,0,0,1-.28-.279" transform="translate(-422.82 119.377)" fill="#02193b" fill-rule="evenodd"></path><path id="Fill-509" d="M84.86,86.694a.26.26,0,1,1,.259.259.259.259,0,0,1-.259-.259" transform="translate(-429.165 115.245)" fill="#02193b" fill-rule="evenodd"></path><path id="Fill-511" d="M79.491,41.8a.281.281,0,1,1,.28.28.28.28,0,0,1-.28-.28" transform="translate(-426.118 140.737)" fill="#2684ff" fill-rule="evenodd"></path><path id="Fill-513" d="M89.912,72.445a.279.279,0,1,1,.279.278.278.278,0,0,1-.279-.278" transform="translate(-432.032 123.344)" fill="#2684ff" fill-rule="evenodd"></path><path id="Fill-515" d="M70.766,64.428a.373.373,0,1,1,.373.373.373.373,0,0,1-.373-.373" transform="translate(-421.166 127.948)" fill="#2684ff" fill-rule="evenodd"></path><path id="Fill-517" d="M82.945,76.835a.351.351,0,1,1,.351.35.351.351,0,0,1-.351-.35" transform="translate(-428.078 120.893)" fill="#2684ff" fill-rule="evenodd"></path><path id="Fill-519" d="M75.271,78.24a.307.307,0,1,1,.306.306.306.306,0,0,1-.306-.306" transform="translate(-423.723 120.071)" fill="#2684ff" fill-rule="evenodd"></path><path id="Fill-521" d="M85.324,17.608a1.093,1.093,0,1,1,1.092,1.09,1.091,1.091,0,0,1-1.092-1.09" transform="translate(-429.428 154.929)" fill="#2684ff" fill-rule="evenodd"></path><path id="Fill-523" d="M88.091,15.395a.478.478,0,1,1,.478.477.477.477,0,0,1-.478-.477" transform="translate(-430.999 155.837)" fill="#02193b" fill-rule="evenodd"></path><path id="Fill-525" d="M89.282,16.784a.441.441,0,1,1,.441.44.44.44,0,0,1-.441-.44" transform="translate(-431.675 155.028)" fill="#02193b" fill-rule="evenodd"></path><path id="Fill-527" d="M91.955,19.522a.258.258,0,1,1,.24.274.257.257,0,0,1-.24-.274" transform="translate(-433.192 153.36)" fill="#2684ff" fill-rule="evenodd"></path><path id="Fill-529" d="M91.07,18.62a.32.32,0,1,1,.32.319.32.32,0,0,1-.32-.319" transform="translate(-432.689 153.917)" fill="#2684ff" fill-rule="evenodd"></path><path id="Fill-531" d="M92.552,20.233a.211.211,0,1,1,.211.211.211.211,0,0,1-.211-.211" transform="translate(-433.531 152.94)" fill="#2684ff" fill-rule="evenodd"></path><path id="Fill-533" d="M81.214,11.385A1.188,1.188,0,1,1,82.4,12.569a1.187,1.187,0,0,1-1.188-1.185" transform="translate(-427.096 158.515)" fill="#2684ff" fill-rule="evenodd"></path><path id="Fill-535" d="M80.779,9.755a.773.773,0,1,1,.773.77.772.772,0,0,1-.773-.77" transform="translate(-426.849 159.205)" fill="#02193b" fill-rule="evenodd"></path><path id="Fill-537" d="M70.565,20.594a.756.756,0,1,1,.756.754.755.755,0,0,1-.756-.754" transform="translate(-421.051 153.044)" fill="#b3d4ff" fill-rule="evenodd"></path><path id="Fill-539" d="M67.92,19.568a.713.713,0,1,1,.713.711.712.712,0,0,1-.713-.711" transform="translate(-419.55 153.601)" fill="#2684ff" fill-rule="evenodd"></path><path id="Fill-541" d="M69.831,21.626a.317.317,0,1,1,.317.316.317.317,0,0,1-.317-.316" transform="translate(-420.635 152.21)" fill="#2684ff" fill-rule="evenodd"></path><path id="Fill-543" d="M71.521,22.88a.251.251,0,1,1,.251.251.251.251,0,0,1-.251-.251" transform="translate(-421.594 151.46)" fill="#2684ff" fill-rule="evenodd"></path><path id="Fill-545" d="M72.252,23.512a.212.212,0,1,1,.212.211.212.212,0,0,1-.212-.211" transform="translate(-422.009 151.08)" fill="#2684ff" fill-rule="evenodd"></path><path id="Fill-547" d="M70.755,22.075a.314.314,0,1,1,.313.313.313.313,0,0,1-.313-.313" transform="translate(-421.16 151.953)" fill="#2684ff" fill-rule="evenodd"></path><path id="Fill-549" d="M89.69,41.493a.81.81,0,1,1,.81.807.809.809,0,0,1-.81-.807" transform="translate(-431.906 141.212)" fill="#02193b" fill-rule="evenodd"></path><path id="Fill-551" d="M87.19,44.276a.762.762,0,1,1,.762.76.761.761,0,0,1-.762-.76" transform="translate(-430.487 139.605)" fill="#b3d4ff" fill-rule="evenodd"></path><path id="Fill-553" d="M87.68,78.94a.762.762,0,1,1,.762.76.76.76,0,0,1-.762-.76" transform="translate(-430.765 119.93)" fill="#b3d4ff" fill-rule="evenodd"></path><path id="Fill-555" d="M86.913,76.412a.634.634,0,1,1,.634.632.633.633,0,0,1-.634-.632" transform="translate(-430.33 121.293)" fill="#2684ff" fill-rule="evenodd"></path><path id="Fill-557" d="M84.9,78.02a.572.572,0,1,1,.572.57.571.571,0,0,1-.572-.57" transform="translate(-429.187 120.345)" fill="#2684ff" fill-rule="evenodd"></path><path id="Fill-559" d="M69.919,63.015a.217.217,0,1,1,.217.216.216.216,0,0,1-.217-.216" transform="translate(-420.685 128.661)" fill="#2684ff" fill-rule="evenodd"></path><path id="Fill-561" d="M48.216,22.276a.476.476,0,1,1,.476.474.475.475,0,0,1-.476-.474" transform="translate(-408.366 151.93)" fill="#2684ff" fill-rule="evenodd"></path><path id="Fill-563" d="M38.645,29.625A1.074,1.074,0,1,1,39.72,30.7a1.073,1.073,0,0,1-1.075-1.072" transform="translate(-402.935 148.097)" fill="#02193b" fill-rule="evenodd"></path><path id="Fill-565" d="M45.807,15.188a.914.914,0,1,1,.914.911.912.912,0,0,1-.914-.911" transform="translate(-407 156.201)" fill="#2684ff" fill-rule="evenodd"></path><path id="Fill-567" d="M50.867,19.713a.669.669,0,1,1,.669.667.668.668,0,0,1-.669-.667" transform="translate(-409.871 153.494)" fill="#02193b" fill-rule="evenodd"></path><path id="Fill-569" d="M30.438,32.806a1.1,1.1,0,1,1,1.1,1.1,1.1,1.1,0,0,1-1.1-1.1" transform="translate(-398.276 146.308)" fill="#b3d4ff" fill-rule="evenodd"></path><path id="Fill-571" d="M28.656,44.374a.889.889,0,1,1,.889.886.887.887,0,0,1-.889-.886" transform="translate(-397.265 139.621)" fill="#b3d4ff" fill-rule="evenodd"></path></g><g id="Page-1" transform="translate(-95 68)"><g id="homepage" transform="translate(283 -27)"><g id="nav" transform="translate(0 0)"><g id="logo"><g id="text"><path id="Path" d="M63.379.284h1.065l-5.2,13.863c-.781,2.085-1.8,3.057-3.5,3.057-.4,0-.71,0-.946-.024v-.829h.923c1.159,0,2.011-.806,2.6-2.417.047-.118.189-.474.426-1.114L53.821.284h1.065l2.508,6.469c.4,1.019,1.017,2.678,1.845,4.929.379-1.09.97-2.725,1.751-4.905ZM43.507,5.806h8.73C52.071,2.867,50.533.9,47.883.9c-2.626,0-4.211,1.872-4.377,4.905Zm9.747.9H43.483c.095,3.247,1.727,5.19,4.495,5.19a3.92,3.92,0,0,0,4.045-3.412h.994A4.948,4.948,0,0,1,47.954,12.8c-3.738,0-5.465-2.962-5.465-6.4,0-3.412,1.656-6.4,5.394-6.4,3.714,0,5.37,2.962,5.37,6.351ZM40.952.284h1.041L37.024,12.512H35.984L31.039.284H32.08l2.626,6.564c.8,2.014,1.4,3.555,1.8,4.645.284-.735.9-2.3,1.822-4.668ZM30.117.166V1.09a5.145,5.145,0,0,0-.662-.024c-2.839,0-4.424,1.848-4.424,4.668v6.778h-.97V.284h.923V3.152a4.464,4.464,0,0,1,4.4-3.01,6.433,6.433,0,0,1,.733.024ZM20.251.284h.97V12.512h-.946V9.929A4.408,4.408,0,0,1,16.064,12.8c-2.768,0-4.353-1.635-4.353-4.574V.284h.97V8.128c0,2.488,1.278,3.792,3.549,3.792a3.807,3.807,0,0,0,2.839-1.209,5.131,5.131,0,0,0,1.183-3.626ZM0,8.768H.994c.166,2.109,1.49,3.175,3.975,3.175S8.683,11.09,8.683,9.36c0-1.4-.852-2.109-3.123-2.512L4.211,6.635C1.585,6.185.379,5.166.379,3.247.379,1.232,1.987,0,4.708,0,7.689,0,9.25,1.209,9.416,3.626H8.422C8.257,1.825,7.192.853,4.708.853c-2.106,0-3.359.853-3.359,2.37,0,1.493.994,2.133,3.194,2.536l1.325.213c2.65.474,3.809,1.469,3.809,3.341,0,2.3-1.869,3.484-4.708,3.484C1.822,12.8.166,11.256,0,8.768Z" transform="translate(0)" fill="#080c14" fill-rule="evenodd"></path><path id="Path-2" data-name="Path" d="M153.824.41h3.336V12.547h-2.2v-3.7c0-2.063.017-4.057.068-6.018-.238.818-.545,1.756-.919,2.8l-2.451,6.921h-1.889l-2.468-6.921c-.374-1.108-.681-2.029-.9-2.762.051,1.943.068,3.938.068,5.984v3.7H144.26V.41H147.6l2.093,5.9c.34,1.04.681,2.148,1.038,3.29.357-1.227.715-2.37,1.072-3.409ZM132.313,7.979V.41h2.3V8a2.774,2.774,0,1,0,5.548,0V.41h2.3V7.979c0,3.12-1.923,4.824-5.072,4.824-3.114,0-5.072-1.739-5.072-4.824Zm-11.25.563h2.264c.017,1.79,1.14,2.421,3,2.421,1.583,0,2.451-.614,2.451-1.756,0-.955-.63-1.364-2.485-1.756l-1.021-.2c-2.6-.494-3.9-1.722-3.9-3.682,0-2.063,1.651-3.427,4.493-3.427,3.268,0,4.85,1.483,4.935,3.887h-2.23C128.483,2.66,127.734,2,125.9,2c-1.43,0-2.178.563-2.178,1.5,0,.972.579,1.432,2.366,1.79l1.055.2c2.842.563,4.016,1.637,4.016,3.6,0,2.387-1.838,3.733-4.9,3.733-3.268,0-5.174-1.5-5.191-4.279ZM117.438.41h2.212V12.547H117.1l-3.37-5.4c-.987-1.551-1.7-2.779-2.161-3.648.051,1.432.068,3.392.068,5.881v3.171h-2.212V.41h2.553l3.387,5.4c.987,1.6,1.7,2.813,2.144,3.648-.051-1.909-.068-3.87-.068-5.881ZM108.01,2.472h-6.637V5.336h6.008V7.314h-6.008v3.171h6.6v2.063h-8.9V.41h8.935ZM87.655,8.541h2.264c.017,1.79,1.14,2.421,3,2.421,1.583,0,2.451-.614,2.451-1.756,0-.955-.63-1.364-2.485-1.756l-1.021-.2c-2.6-.494-3.9-1.722-3.9-3.682,0-2.063,1.651-3.427,4.493-3.427,3.268,0,4.85,1.483,4.935,3.887H95.16C95.075,2.66,94.326,2,92.488,2c-1.43,0-2.178.563-2.178,1.5,0,.972.579,1.432,2.366,1.79l1.055.2c2.842.563,4.016,1.637,4.016,3.6,0,2.387-1.838,3.733-4.9,3.733-3.268,0-5.174-1.5-5.191-4.279Z" transform="translate(-22.495 -0.035)" fill="#080c14" fill-rule="evenodd"></path></g></g></g></g></g></g></svg> 