<svg id="Component_8_2" data-name="Component 8 – 2" xmlns="http://www.w3.org/2000/svg" width="54" height="54" viewBox="0 0 54 54">
  <rect id="Rectangle_3142" data-name="Rectangle 3142" width="54" height="54" fill="#fff" opacity="0"/>
  <g id="responsive-design" transform="translate(4 4)">
    <circle id="Ellipse_302" data-name="Ellipse 302" cx="0.895" cy="0.895" r="0.895" transform="translate(3.439 2.455)" fill="#0052cc"/>
    <circle id="Ellipse_303" data-name="Ellipse 303" cx="0.895" cy="0.895" r="0.895" transform="translate(7.109 2.455)" fill="#0052cc"/>
    <circle id="Ellipse_304" data-name="Ellipse 304" cx="0.895" cy="0.895" r="0.895" transform="translate(10.779 2.455)" fill="#0052cc"/>
    <path id="Path_1835" data-name="Path 1835" d="M35.011,107.026H49.333a.665.665,0,0,0,.665-.665V95.62a.665.665,0,0,0-.665-.665H35.011a.665.665,0,0,0-.665.665v10.742A.665.665,0,0,0,35.011,107.026Zm.665-10.741H48.668V105.7H35.675Z" transform="translate(-31.303 -86.541)" fill="#0052cc"/>
    <path id="Path_1836" data-name="Path 1836" d="M35.011,249.829H49.333a.665.665,0,1,0,0-1.329H35.011a.665.665,0,1,0,0,1.329Z" transform="translate(-31.303 -226.48)" fill="#0052cc"/>
    <path id="Path_1837" data-name="Path 1837" d="M35.011,281.144H46.647a.665.665,0,0,0,0-1.329H35.011a.665.665,0,0,0,0,1.329Z" transform="translate(-31.303 -255.02)" fill="#0052cc"/>
    <path id="Path_1838" data-name="Path 1838" d="M35.011,312.459h7.161a.665.665,0,0,0,0-1.329H35.011a.665.665,0,0,0,0,1.329Z" transform="translate(-31.303 -283.56)" fill="#0052cc"/>
    <path id="Path_1839" data-name="Path 1839" d="M44.7,23.024a.665.665,0,0,0,.665-.665V14.073a2.44,2.44,0,0,0-2.437-2.437h-3.65v-9.2A2.44,2.44,0,0,0,36.846,0H2.437A2.44,2.44,0,0,0,0,2.437V9.965a.665.665,0,1,0,1.329,0V6.7H37.953v4.937H36.239V9.079a.665.665,0,0,0-.665-.665H21.253a.665.665,0,0,0-.665.665V19.82a.665.665,0,0,0,.665.665h4.706V22.02H21.252a.665.665,0,1,0,0,1.329h4.706v1.446H21.252a.665.665,0,1,0,0,1.329h4.706V27.57H21.252a.665.665,0,1,0,0,1.329h4.706v3.5H2.437A1.109,1.109,0,0,1,1.329,31.3V13.07A.665.665,0,1,0,0,13.07V31.3a2.44,2.44,0,0,0,2.437,2.437H25.958v9.2A2.44,2.44,0,0,0,28.4,45.369H42.932a2.44,2.44,0,0,0,2.437-2.437V25.47a.665.665,0,0,0-1.329,0V42.932a1.109,1.109,0,0,1-1.108,1.108H28.4a1.109,1.109,0,0,1-1.108-1.108v-24.6H44.04V22.36A.664.664,0,0,0,44.7,23.024ZM1.329,5.371V2.437A1.109,1.109,0,0,1,2.437,1.329H36.846a1.109,1.109,0,0,1,1.108,1.108V5.371ZM21.917,19.155V9.744H34.909v1.893H28.4a2.44,2.44,0,0,0-2.437,2.437v5.082Zm5.37-2.148V14.073A1.109,1.109,0,0,1,28.4,12.966H42.932a1.109,1.109,0,0,1,1.108,1.108v2.934Z" fill="#0052cc"/>
    <path id="Path_1840" data-name="Path 1840" d="M338.954,226.941a.665.665,0,0,0-.665-.665H325.937a.665.665,0,0,0-.665.665v10.742a.665.665,0,0,0,.665.665h12.353a.665.665,0,0,0,.665-.665V226.941Zm-1.329,10.077H326.6v-9.412h11.023v9.412Z" transform="translate(-296.449 -206.225)" fill="#0052cc"/>
    <path id="Path_1841" data-name="Path 1841" d="M338.954,380.486a.665.665,0,0,0-.665-.665H325.937a.665.665,0,1,0,0,1.329h12.353A.665.665,0,0,0,338.954,380.486Z" transform="translate(-296.449 -346.164)" fill="#0052cc"/>
    <path id="Path_1842" data-name="Path 1842" d="M336.269,411.8a.665.665,0,0,0-.665-.665h-9.667a.665.665,0,1,0,0,1.329H335.6A.665.665,0,0,0,336.269,411.8Z" transform="translate(-296.449 -374.705)" fill="#0052cc"/>
    <path id="Path_1843" data-name="Path 1843" d="M325.937,442.451a.665.665,0,1,0,0,1.329h5.192a.665.665,0,0,0,0-1.329Z" transform="translate(-296.449 -403.245)" fill="#0052cc"/>
    <path id="Path_1844" data-name="Path 1844" d="M327.728,161.626h-1.79a.665.665,0,1,0,0,1.329h1.79a.665.665,0,0,0,0-1.329Z" transform="translate(-296.45 -147.304)" fill="#0052cc"/>
  </g>
</svg>
