<svg id="Component_9_2" data-name="Component 9 – 2" xmlns="http://www.w3.org/2000/svg" width="46.097" height="35.595" viewBox="0 0 46.097 35.595">
  <path id="Path_1855" data-name="Path 1855" d="M45.284,58.338,26.507,62.187a.675.675,0,0,0,.271,1.323l12.873-2.638L8.037,75.191l-5.83-3.517a1.767,1.767,0,0,1,.558-3.243l21.473-4.4a.675.675,0,0,0-.271-1.323l-21.474,4.4a3.116,3.116,0,0,0-.985,5.722l5.872,3.542,3.046,16.988a.682.682,0,0,0,.372.489h0a.658.658,0,0,0,.615-.015l13.1-7.125,5.943,3.585a3.117,3.117,0,0,0,4.527-1.574L46.052,59.237A.676.676,0,0,0,45.284,58.338ZM16.408,81.818,23.175,85.9,12.418,91.752Zm17.313,6.428a1.766,1.766,0,0,1-2.566.892L17.287,80.771l4.381-3.259a.675.675,0,0,0-.806-1.083l-5.188,3.859a.678.678,0,0,0-.224.29l-4.108,10.23L8.75,76.351,39.981,62.2,23.006,74.833a.675.675,0,0,0,.806,1.083l20.168-15Z" transform="translate(0 -58.324)" fill="#0052cc"/>
</svg>
