<svg id="analytics_1_" data-name="analytics (1)" xmlns="http://www.w3.org/2000/svg" width="49.7" height="49.699" viewBox="0 0 49.7 49.699">
  <g id="Group_5702" data-name="Group 5702" transform="translate(14.559)">
    <g id="Group_5701" data-name="Group 5701" transform="translate(0 0)">
      <path id="Path_1764" data-name="Path 1764" d="M181.044.008H150.952a.971.971,0,1,0,0,1.941h26.621a4.052,4.052,0,0,0-.606,2.135V16.8a.971.971,0,0,0,1.941,0V13.792h5.242a.971.971,0,0,0,.971-.971V4.085A4.082,4.082,0,0,0,181.044.008Zm2.136,11.842h-4.271V4.085a2.135,2.135,0,1,1,4.271,0V11.85Z" transform="translate(-149.981 -0.008)" fill="#0052cc"/>
    </g>
  </g>
  <g id="Group_5704" data-name="Group 5704" transform="translate(2.392 17.017)">
    <g id="Group_5703" data-name="Group 5703">
      <path id="Path_1765" data-name="Path 1765" d="M70.885,197.858l-6.341-6.341a11.259,11.259,0,1,0-20.63-.91l-1.136,1.136L38.1,187.071a.971.971,0,0,0-1.373,0l-1.093,1.093V179.3a.971.971,0,1,0-1.941,0V190.1l-8.777,8.777a.971.971,0,0,0,1.373,1.373l7.4-7.4v7h-4.27a.971.971,0,0,0-.971.971v3.106A4.081,4.081,0,0,0,32.534,208H61.655a4.082,4.082,0,0,0,4.077-4.077v-.833a3.606,3.606,0,0,0,2.53,1.022h.018a3.674,3.674,0,0,0,2.6-6.252Zm-16.457-20.6a9.318,9.318,0,1,1-8.186,13.767l5.61-5.61v2.2a.971.971,0,0,0,1.941,0V182.96a.971.971,0,0,0-.971-.971H48.163a.971.971,0,1,0,0,1.941h2.428l-5.142,5.142a9.32,9.32,0,0,1,8.979-11.814Zm-21.894,28.8a2.138,2.138,0,0,1-2.135-2.136v-2.135H57.578v1.165c0,.032,0,.063,0,.094s0,.062,0,.094v.782a4.051,4.051,0,0,0,.606,2.136H32.534Zm31.256-2.136a2.136,2.136,0,1,1-4.271,0v-.782c0-.032,0-.063,0-.094s0-.062,0-.094v-2.135a.971.971,0,0,0-.971-.971H35.64v-8.937l1.779-1.779,4.673,4.673a.971.971,0,0,0,1.373,0l1.357-1.357A11.251,11.251,0,0,0,59.346,196.7l4.444,4.444Zm5.7-2.262a1.73,1.73,0,0,1-1.223.509h-.009a1.679,1.679,0,0,1-1.2-.491l-6.006-6.006a11.357,11.357,0,0,0,2.45-2.445l6,6A1.72,1.72,0,0,1,69.494,201.66Z" transform="translate(-24.637 -175.318)" fill="#0052cc"/>
    </g>
  </g>
  <g id="Group_5706" data-name="Group 5706" transform="translate(31.211 27.307)">
    <g id="Group_5705" data-name="Group 5705">
      <path id="Path_1766" data-name="Path 1766" d="M328.65,281.315a.971.971,0,0,0-.971.971,5.181,5.181,0,0,1-5.175,5.175.971.971,0,1,0,0,1.941,7.124,7.124,0,0,0,7.117-7.116A.971.971,0,0,0,328.65,281.315Z" transform="translate(-321.533 -281.315)" fill="#0052cc"/>
    </g>
  </g>
  <g id="Group_5708" data-name="Group 5708" transform="translate(0 5.242)">
    <g id="Group_5707" data-name="Group 5707">
      <path id="Path_1767" data-name="Path 1767" d="M24.861,65.46h-.886v-6.5A.971.971,0,0,0,23,57.986H18.547a.971.971,0,0,0-.971.971v6.5H16.016V54.977a.971.971,0,0,0-.971-.971H10.774a.971.971,0,0,0-.971.971V65.46H8.251V61.189a.971.971,0,0,0-.971-.971H3.009a.971.971,0,0,0-.971.971V65.46H.971a.971.971,0,0,0,0,1.941H24.862a.971.971,0,1,0,0-1.941Zm-18.552,0H3.98v-3.3h2.33Zm7.765,0h-2.33V55.947h2.33Zm7.959,0H19.518V59.927h2.516Z" transform="translate(0 -54.006)" fill="#0052cc"/>
    </g>
  </g>
  <g id="Group_5710" data-name="Group 5710" transform="translate(24.267 5.242)">
    <g id="Group_5709" data-name="Group 5709">
      <path id="Path_1768" data-name="Path 1768" d="M258.482,54.006h-7.519a.971.971,0,0,0,0,1.941h7.519a.971.971,0,1,0,0-1.941Z" transform="translate(-249.992 -54.006)" fill="#0052cc"/>
    </g>
  </g>
  <g id="Group_5712" data-name="Group 5712" transform="translate(36.587 5.242)">
    <g id="Group_5711" data-name="Group 5711">
      <path id="Path_1769" data-name="Path 1769" d="M378.574,54.289a.97.97,0,1,0,.284.686A.978.978,0,0,0,378.574,54.289Z" transform="translate(-376.917 -54.005)" fill="#0052cc"/>
    </g>
  </g>
  <g id="Group_5714" data-name="Group 5714" transform="translate(26.435 9.513)">
    <g id="Group_5713" data-name="Group 5713">
      <path id="Path_1770" data-name="Path 1770" d="M274.886,98.005h-1.592a.971.971,0,0,0,0,1.941h1.592a.971.971,0,1,0,0-1.941Z" transform="translate(-272.324 -98.005)" fill="#0052cc"/>
    </g>
  </g>
  <g id="Group_5716" data-name="Group 5716" transform="translate(31.786 9.513)">
    <g id="Group_5715" data-name="Group 5715">
      <path id="Path_1771" data-name="Path 1771" d="M333.223,98.005h-4.8a.971.971,0,0,0,0,1.941h4.8a.971.971,0,0,0,0-1.941Z" transform="translate(-327.451 -98.005)" fill="#0052cc"/>
    </g>
  </g>
  <g id="Group_5718" data-name="Group 5718" transform="translate(0.001 42.687)">
    <g id="Group_5717" data-name="Group 5717">
      <path id="Path_1772" data-name="Path 1772" d="M1.666,440.047a.97.97,0,1,0,.284.686A.978.978,0,0,0,1.666,440.047Z" transform="translate(-0.009 -439.763)" fill="#0052cc"/>
    </g>
  </g>
</svg>
