<svg id="_004---Money-Off" data-name="004---Money-Off" xmlns="http://www.w3.org/2000/svg" width="54" height="54" viewBox="0 0 54 54">
  <g id="Icons" transform="translate(1 1)">
    <path id="Shape" d="M52,2.13v26a1.905,1.905,0,0,1-1.793,2H1.793A1.905,1.905,0,0,1,0,28.13v-26a1.905,1.905,0,0,1,1.793-2H50.207a1.7,1.7,0,0,1,1.268.586A2.123,2.123,0,0,1,52,2.13Z" transform="translate(0 -0.13)" fill="#cad9fc"/>
    <path id="Shape-2" data-name="Shape" d="M49,2.13v26a1.9,1.9,0,0,1-1.782,2H1.782A1.9,1.9,0,0,1,0,28.13v-26a1.9,1.9,0,0,1,1.782-2H47.218a1.689,1.689,0,0,1,1.26.586A2.131,2.131,0,0,1,49,2.13Z" transform="translate(0 -0.13)" fill="#e8edfc"/>
    <path id="Shape-3" data-name="Shape" d="M48,9.13v12c-2.43,0-4.4,2.239-4.4,5H8.4c0-2.761-1.97-5-4.4-5v-12c2.43,0,4.4-2.239,4.4-5H43.6c0,2.761,1.97,5,4.4,5Z" transform="translate(0 -0.13)" fill="#e8edfc"/>
    <path id="Shape-4" data-name="Shape" d="M40,15.13a11,11,0,1,1-3.774-8.287A11,11,0,0,1,40,15.13Z" transform="translate(-3 -0.13)" fill="#cad9fc"/>
    <ellipse id="Oval" cx="9.5" cy="10.89" rx="9.5" ry="10.89" transform="translate(15.231 4.11)" fill="#e8edfc"/>
    <path id="Shape-5" data-name="Shape" d="M18,34.63v6a.5.5,0,0,1-.5.5h-9a.5.5,0,0,1-.5-.5v-6a.5.5,0,0,1,.5-.5h9A.5.5,0,0,1,18,34.63Z" transform="translate(-0.186 -3.974)" fill="#cad9fc"/>
    <path id="Shape-6" data-name="Shape" d="M15,34.63v6a.5.5,0,0,1-.5.5h-6a.5.5,0,0,1-.5-.5v-6a.5.5,0,0,1,.5-.5h6A.5.5,0,0,1,15,34.63Z" transform="translate(-0.174 -3.974)" fill="#e8edfc"/>
    <path id="Shape-7" data-name="Shape" d="M34,34.63v10a.5.5,0,0,1-.5.5h-9a.5.5,0,0,1-.5-.5v-10a.5.5,0,0,1,.5-.5h9A.5.5,0,0,1,34,34.63Z" transform="translate(-3 -4.303)" fill="#cad9fc"/>
    <path id="Shape-8" data-name="Shape" d="M31,34.63v10a.5.5,0,0,1-.5.5h-6a.5.5,0,0,1-.5-.5v-10a.5.5,0,0,1,.5-.5h6A.5.5,0,0,1,31,34.63Z" transform="translate(-2.824 -4.303)" fill="#e8edfc"/>
    <path id="Shape-9" data-name="Shape" d="M52.26,50l-6.89,7.75a.5.5,0,0,1-.74,0c-1.48-1.64-.23-.33-6.89-7.75a.5.5,0,0,1,.37-.83H39.5a.5.5,0,0,0,.5-.5v-14a.5.5,0,0,1,.5-.5h9a.5.5,0,0,1,.5.5v14a.5.5,0,0,0,.5.5h1.39a.5.5,0,0,1,.37.83Z" transform="translate(-6 -5.872)" fill="#cad9fc"/>
    <path id="Shape-10" data-name="Shape" d="M49.26,50,43.5,56.44,37.74,50a.5.5,0,0,1,.37-.83H39.5a.5.5,0,0,0,.5-.5v-14a.5.5,0,0,1,.5-.5h6a.5.5,0,0,1,.5.5v14a.5.5,0,0,0,.5.5h1.39a.5.5,0,0,1,.37.83Z" transform="translate(-5.229 -5.872)" fill="#e8edfc"/>
  </g>
  <g id="Icons_copy" transform="translate(1 1)">
    <path id="Shape-11" data-name="Shape" d="M8.5,41.13h3a.5.5,0,0,1-.5-.5v-6a.5.5,0,0,1,.5-.5h-3a.5.5,0,0,0-.5.5v6A.5.5,0,0,0,8.5,41.13Z" transform="translate(0 -0.13)" fill="#fff"/>
    <path id="Shape-12" data-name="Shape" d="M2,30.13H5a2,2,0,0,1-2-2v-26a2,2,0,0,1,2-2H2a2,2,0,0,0-2,2v26A2,2,0,0,0,2,30.13Z" transform="translate(0 -0.13)" fill="#fff"/>
  </g>
  <path id="Rectangle-path" d="M0,3.13H2v8H0Z" transform="translate(0 -0.13)" fill="#fff"/>
  <g id="Group_6038" data-name="Group 6038">
    <path id="Shape-13" data-name="Shape" d="M1,8.13a1,1,0,1,1,1-1A1,1,0,0,1,1,8.13Z" transform="translate(0 -0.13)" fill="#0052cc"/>
    <path id="Shape-14" data-name="Shape" d="M51.3.13H2.7a2.862,2.862,0,0,0-2.7,3,.954.954,0,0,0,.9,1,.954.954,0,0,0,.9-1,.954.954,0,0,1,.9-1H51.3a.954.954,0,0,1,.9,1v26a.954.954,0,0,1-.9,1H2.7a.954.954,0,0,1-.9-1v-18a.954.954,0,0,0-.9-1,.954.954,0,0,0-.9,1v18a2.862,2.862,0,0,0,2.7,3H51.3a2.862,2.862,0,0,0,2.7-3v-26a2.862,2.862,0,0,0-2.7-3Z" transform="translate(0 -0.13)" fill="#0052cc"/>
    <path id="Shape-15" data-name="Shape" d="M8.423,27.13a.948.948,0,0,0,.885,1H44.692a.948.948,0,0,0,.885-1,3.791,3.791,0,0,1,3.538-4,.948.948,0,0,0,.885-1v-12a.948.948,0,0,0-.885-1,3.791,3.791,0,0,1-3.538-4,.948.948,0,0,0-.885-1H9.308a.948.948,0,0,0-.885,1,3.791,3.791,0,0,1-3.538,4,.948.948,0,0,0-.885,1v12a.948.948,0,0,0,.885,1A3.791,3.791,0,0,1,8.423,27.13Zm35.455-21A5.684,5.684,0,0,0,48.231,11V21.21a5.693,5.693,0,0,0-4.352,4.92H32.856a12.481,12.481,0,0,0,4.748-10,12.481,12.481,0,0,0-4.748-10ZM27,26.13c-4.886,0-8.846-4.477-8.846-10s3.961-10,8.846-10,8.846,4.477,8.846,10-3.961,10-8.846,10ZM5.769,11a5.691,5.691,0,0,0,4.352-4.91H21.144a12.481,12.481,0,0,0-4.748,10,12.481,12.481,0,0,0,4.748,10H10.122a5.685,5.685,0,0,0-4.352-4.88Z" transform="translate(0 -0.13)" fill="#0052cc"/>
    <path id="Shape-16" data-name="Shape" d="M30,11.13a2,2,0,0,1,2,2,1,1,0,0,0,2,0,4,4,0,0,0-3-3.86V8.13a1,1,0,0,0-2,0V9.27a4,4,0,0,0,1,7.86,2,2,0,1,1-2,2,1,1,0,0,0-2,0A4,4,0,0,0,29,23v1.15a1,1,0,1,0,2,0V23a4,4,0,0,0-1-7.85,2,2,0,0,1,0-4Z" transform="translate(-3 -0.13)" fill="#0052cc"/>
    <path id="Shape-17" data-name="Shape" d="M18.5,43.13a1.5,1.5,0,0,0,1.5-1.5v-6a1.5,1.5,0,0,0-1.5-1.5h-9A1.5,1.5,0,0,0,8,35.63v6a1.5,1.5,0,0,0,1.5,1.5Zm-8.5-7h8v5H10Z" transform="translate(0 -3.978)" fill="#0052cc"/>
    <path id="Shape-18" data-name="Shape" d="M34.5,47.13a1.5,1.5,0,0,0,1.5-1.5v-10a1.5,1.5,0,0,0-1.5-1.5h-9a1.5,1.5,0,0,0-1.5,1.5v10a1.5,1.5,0,0,0,1.5,1.5Zm-8.5-11h8v9H26Z" transform="translate(-3 -4.307)" fill="#0052cc"/>
    <path id="Shape-19" data-name="Shape" d="M50.5,34.13h-9a1.5,1.5,0,0,0-1.5,1.5v13.5h-.89A1.5,1.5,0,0,0,38,51.62l6.89,7.75a1.5,1.5,0,0,0,2.24,0L54,51.62a1.5,1.5,0,0,0-1.12-2.49H52V35.63a1.5,1.5,0,0,0-1.5-1.5ZM46,57.62l-5.77-6.49h.27a1.5,1.5,0,0,0,1.5-1.5V36.13h8v13.5a1.5,1.5,0,0,0,1.5,1.5h.27Z" transform="translate(-6 -5.872)" fill="#0052cc"/>
  </g>
</svg>
