<svg xmlns="http://www.w3.org/2000/svg" xmlns:xlink="http://www.w3.org/1999/xlink" width="30.02" height="30.02" viewBox="0 0 30.02 30.02"><defs><clipPath id="a"><path d="M0,15.01A15.01,15.01,0,1,1,15.01,30.02,15.01,15.01,0,0,1,0,15.01Z" fill="#fff"/></clipPath></defs><path d="M0,15.01A15.01,15.01,0,1,1,15.01,30.02,15.01,15.01,0,0,1,0,15.01Z" transform="translate(0 0)" fill="#0065ff"/><g transform="translate(0 0)" clip-path="url(#a)"><path d="M8,16.011c-2.171,0-2.454-.009-3.3-.048a5.943,5.943,0,0,1-1.943-.372,3.916,3.916,0,0,1-1.418-.924A3.92,3.92,0,0,1,.42,13.248a5.936,5.936,0,0,1-.372-1.943C.009,10.459,0,10.176,0,8.005S.009,5.561.048,4.7A5.891,5.891,0,0,1,.42,2.761a3.934,3.934,0,0,1,.924-1.418A3.922,3.922,0,0,1,2.762.42,5.947,5.947,0,0,1,4.705.048C5.552.009,5.834,0,8,0s2.453.009,3.3.048A5.959,5.959,0,0,1,13.249.42a3.916,3.916,0,0,1,1.418.923,3.924,3.924,0,0,1,.924,1.418A5.98,5.98,0,0,1,15.962,4.7c.037.832.049,1.083.049,3.3s-.011,2.469-.049,3.3a5.984,5.984,0,0,1-.372,1.943,4.1,4.1,0,0,1-2.341,2.342,5.944,5.944,0,0,1-1.944.372C10.459,16,10.176,16.011,8,16.011ZM7.287,1.44h0c-1.478,0-1.761.012-2.515.045a4.442,4.442,0,0,0-1.486.276,2.481,2.481,0,0,0-.921.6,2.465,2.465,0,0,0-.6.92,4.45,4.45,0,0,0-.276,1.486C1.451,5.609,1.443,5.862,1.443,8s.008,2.394.046,3.235a4.414,4.414,0,0,0,.276,1.486,2.485,2.485,0,0,0,.6.92,2.484,2.484,0,0,0,.921.6,4.473,4.473,0,0,0,1.486.276c.847.039,1.1.047,3.235.047s2.388-.008,3.235-.047a4.392,4.392,0,0,0,1.486-.276,2.651,2.651,0,0,0,1.519-1.518,4.433,4.433,0,0,0,.276-1.486c.038-.844.046-1.1.046-3.234s-.008-2.39-.046-3.234a4.414,4.414,0,0,0-.276-1.486,2.487,2.487,0,0,0-.6-.92,2.477,2.477,0,0,0-.92-.6,4.441,4.441,0,0,0-1.486-.276c-.841-.038-1.094-.046-3.235-.046H7.288Zm.719,10.676a4.111,4.111,0,1,1,4.111-4.11A4.115,4.115,0,0,1,8.006,12.116Zm0-6.779a2.668,2.668,0,1,0,2.668,2.668A2.671,2.671,0,0,0,8.006,5.337Zm4.273-.644a.96.96,0,1,1,.961-.961A.962.962,0,0,1,12.279,4.693Z" transform="translate(7.005 7.005)" fill="#fff"/></g></svg>