<svg xmlns="http://www.w3.org/2000/svg" width="30.02" height="30.02" viewBox="0 0 30.02 30.02"><path d="M0,15.01A15.01,15.01,0,1,1,15.01,30.02,15.01,15.01,0,0,1,0,15.01Z" transform="translate(0 0)" fill="#0065ff"/><path d="M5.483,15.139s.045-9.256,0-10.215h3.4V6.371a3.376,3.376,0,0,1,3.065-1.687c2.237,0,3.915,1.46,3.915,4.6v5.856h-3.4V9.674c0-1.373-.492-2.309-1.723-2.309A1.861,1.861,0,0,0,9,8.606a2.321,2.321,0,0,0-.112.829v5.7Zm-5.282,0V4.924H3.6V15.139ZM1.879,3.53A1.77,1.77,0,1,1,1.924,0,1.771,1.771,0,1,1,1.9,3.53Z" transform="translate(7.009 7.509)" fill="#fff"/></svg>