<svg id="Component_7_2" data-name="Component 7 – 2" xmlns="http://www.w3.org/2000/svg" width="45" height="45" viewBox="0 0 45 45">
  <path id="Path_1853" data-name="Path 1853" d="M35.754,13.837l.157,1.443q-.729.079-1.473.133l-.1-1.448Q35.05,13.913,35.754,13.837Zm1.409-.184.218,1.436q.744-.113,1.463-.257l-.285-1.423C38.1,13.5,37.636,13.58,37.163,13.652Zm2.775-.558L40.3,14.5q.74-.189,1.438-.415L41.288,12.7c-.435.141-.887.271-1.351.39ZM37.163,25.265l.218,1.436q.744-.113,1.463-.257l-.285-1.423c-.457.091-.923.173-1.4.245Zm-2.827.312.1,1.448q.742-.053,1.473-.133l-.157-1.443Q35.05,25.526,34.336,25.577Zm5.6-.87.36,1.407q.74-.189,1.438-.415l-.447-1.381c-.435.141-.887.271-1.351.39ZM46,6.806V24.226c0,3.738-7.347,5.769-14.33,5.805a10.857,10.857,0,0,1-15.542,4.045l-1.4,1.4,1.089,1.089L7.5,44.885A3.805,3.805,0,1,1,2.115,39.5l8.321-8.321,1.089,1.089,1.4-1.4A10.857,10.857,0,0,1,16.968,15.33V6.806C16.968,3.035,24.447,1,31.484,1S46,3.035,46,6.806ZM13.764,36.565l-3.329-3.329L3.141,40.53A2.354,2.354,0,1,0,6.47,43.859Zm1.193-3.37a11.049,11.049,0,0,1-1.151-1.151L12.55,33.3,13.7,34.45Zm16.527-8.243a9.435,9.435,0,1,0-9.435,9.435A9.446,9.446,0,0,0,31.484,24.952Zm13.065-.726V21.058c-2.272,1.884-6.913,2.961-11.651,3.137.017.251.038.5.038.757a10.828,10.828,0,0,1-.629,3.614C39.558,28.408,44.548,26.211,44.548,24.226Zm0-5.806V15.255c-2.513,2.069-7.905,3.165-13.065,3.165-.256,0-.509-.02-.765-.025a10.825,10.825,0,0,1,1.992,4.353C39.715,22.514,44.548,20.325,44.548,18.419Zm0-5.806V9.448c-2.513,2.069-7.905,3.165-13.065,3.165s-10.551-1.1-13.065-3.165V14.7A10.779,10.779,0,0,1,29.35,16.9c.7.041,1.418.068,2.134.068C39.183,16.968,44.548,14.673,44.548,12.613Zm0-5.806c0-2.06-5.365-4.355-13.065-4.355S18.419,4.747,18.419,6.806s5.365,4.355,13.065,4.355S44.548,8.866,44.548,6.806Zm-2.9,0c0,2.822-9.121,2.9-10.161,2.9s-10.161-.081-10.161-2.9,9.121-2.9,10.161-2.9S41.645,3.985,41.645,6.806Zm-1.492,0c-.52-.557-3.641-1.452-8.67-1.452s-8.149.895-8.67,1.452c.52.557,3.641,1.452,8.67,1.452S39.633,7.363,40.154,6.806ZM1,6.806A5.813,5.813,0,0,1,6.806,1h2.9a5.813,5.813,0,0,1,5.806,5.806v5.806H6.806A5.813,5.813,0,0,1,1,6.806Zm1.452,0a4.359,4.359,0,0,0,4.355,4.355h7.258V6.806A4.359,4.359,0,0,0,9.71,2.452h-2.9A4.359,4.359,0,0,0,2.452,6.806ZM46,36.565a5.086,5.086,0,0,1-5.081,5.081H36.565a5.086,5.086,0,0,1-5.081-5.081V31.484h9.435A5.086,5.086,0,0,1,46,36.565Zm-1.452,0a3.633,3.633,0,0,0-3.629-3.629H32.935v3.629a3.633,3.633,0,0,0,3.629,3.629h4.355A3.633,3.633,0,0,0,44.548,36.565ZM12.613,8.258H11.161V3.9H9.71V8.258H8.258v-2.9H6.806v2.9H5.355V3.9H3.9V9.71h8.71ZM30.032,24.952a7.984,7.984,0,1,1-7.984-7.984A7.993,7.993,0,0,1,30.032,24.952Zm-7.984-6.532a6.478,6.478,0,0,0-3.287.9c1.015,1.4,4.311,2.834,9.382,3.3A6.537,6.537,0,0,0,22.048,18.419Zm0,13.065A6.5,6.5,0,0,0,26.521,29.7c-5.848-.8-9.553-2.891-9.553-5.474V20.855a6.525,6.525,0,0,0,5.081,10.629Zm6.532-6.532a6.494,6.494,0,0,0-.061-.846c-4.563-.359-8.2-1.487-10.1-3.066v3.186c0,1.544,3.221,3.487,9.186,4.142A6.48,6.48,0,0,0,28.581,24.952Zm7.258,9.435H34.387v1.452h1.452Zm2.9,0H37.29v1.452h1.452Zm-4.355,4.355H43.1V37.29h-8.71Zm7.258-4.355H40.194v1.452h1.452Z" transform="translate(-1 -1)" fill="#0052cc"/>
</svg>
