<svg id="whatsapp_3_" data-name="whatsapp (3)" xmlns="http://www.w3.org/2000/svg" width="49.231" height="49.525" viewBox="0 0 49.231 49.525">
  <path id="Path_1789" data-name="Path 1789" d="M42.546,7.185A24.535,24.535,0,0,0,10.934,4.572.967.967,0,1,0,12.06,6.145a22.6,22.6,0,1,1,2.283,38.21.97.97,0,0,0-.718-.086L2.858,47.179,5.793,36.7a.966.966,0,0,0-.1-.75A22.608,22.608,0,0,1,6.812,11.393a.967.967,0,0,0-1.573-1.126,24.544,24.544,0,0,0-1.418,26.3L.535,48.3a.967.967,0,0,0,1.184,1.195l12.039-3.254A24.534,24.534,0,0,0,42.546,7.185Zm0,0" transform="translate(-0.499)" fill="#0052cc"/>
  <path id="Path_1790" data-name="Path 1790" d="M78.749,72.388a.967.967,0,0,0,1.342-.268A20.663,20.663,0,1,0,45.059,71.1l.624,1.064-1.891,6.749a.967.967,0,0,0,1.184,1.195l6.967-1.883,1.025.563a20.681,20.681,0,0,0,21.383-.93.967.967,0,0,0-1.074-1.609,18.747,18.747,0,0,1-19.378.843l-1.366-.75a.969.969,0,0,0-.718-.086l-5.7,1.541,1.543-5.506a.968.968,0,0,0-.1-.75l-.833-1.419a18.729,18.729,0,1,1,31.754.923A.967.967,0,0,0,78.749,72.388Zm0,0" transform="translate(-38.194 -36.131)" fill="#0052cc"/>
  <path id="Path_1791" data-name="Path 1791" d="M131.76,141.879l.064-.074a2.621,2.621,0,0,0,.311-2.9c-.5-1.162-1.8-4.132-1.92-4.413a2.232,2.232,0,0,0-2.12-1.281,12.206,12.206,0,0,0-1.412.017l-.023,0c-.148.022-3.632.585-4.233,5.807-.277,2.4.835,5.26,3.3,8.5a24.3,24.3,0,0,0,8.962,7.617,16.722,16.722,0,0,0,7.069,2.048c.082,0,.163,0,.244,0a6.376,6.376,0,0,0,5.1-2.227,4.883,4.883,0,0,0,1.01-2.222,13.593,13.593,0,0,0,.08-1.384,2.232,2.232,0,0,0-1.178-2.179c-.269-.133-3.038-1.506-4.174-2.057a2.305,2.305,0,0,0-2.908.516l-.015.016a6.153,6.153,0,0,0-.685.85c-.254.34-.761,1.018-.976,1.244-.455.032-1.976-.638-4.132-2.307a15.612,15.612,0,0,1-3.613-4.08.188.188,0,0,1-.011-.074C130.839,142.952,131.381,142.323,131.76,141.879Zm1.186,7.1a21.478,21.478,0,0,0,3.13,2.049c.578.293,2.336,1.185,3.42.226a12.725,12.725,0,0,0,1.292-1.582c.164-.219.365-.487.442-.58.051-.046.093-.091.131-.133.174-.189.254-.275.642-.087,1.165.565,4.072,2.007,4.177,2.058a.564.564,0,0,1,.085.385c-.022.8-.053,1.092-.059,1.146a.143.143,0,0,0,0,.03,3.082,3.082,0,0,1-.666,1.351,4.624,4.624,0,0,1-3.586,1.425,14.456,14.456,0,0,1-6.378-1.834,22.249,22.249,0,0,1-8.3-7.067c-2.125-2.788-3.135-5.246-2.921-7.106.4-3.5,2.323-4.052,2.58-4.111.091-.006.4-.019,1.127,0a.566.566,0,0,1,.38.1c.048.11,1.412,3.225,1.921,4.415.254.6.1.77.023.855l-.036.04-.056.065c-.559.655-.952,1.1-1.169,1.323a2,2,0,0,0-.281,2.383A17.46,17.46,0,0,0,132.946,148.977Zm0,0" transform="translate(-110.595 -120.318)" fill="#0052cc"/>
  <path id="Path_1792" data-name="Path 1792" d="M74.552,73.287A.967.967,0,1,0,73.9,71.6h0a.967.967,0,0,0,.651,1.683Zm0,0" transform="translate(-66.515 -64.451)" fill="#0052cc"/>
  <path id="Path_1793" data-name="Path 1793" d="M390.083,387.915h0a.967.967,0,1,0,1.367-.066A.967.967,0,0,0,390.082,387.916Zm0,0" transform="translate(-352.172 -350.107)" fill="#0052cc"/>
</svg>
