<svg id="_007-medal" data-name="007-medal" xmlns="http://www.w3.org/2000/svg" width="32.317" height="35.292" viewBox="0 0 32.317 35.292">
  <g id="Group_6051" data-name="Group 6051" transform="translate(10.406 6.968)">
    <g id="Group_6050" data-name="Group 6050" transform="translate(0)">
      <path id="Path_1912" data-name="Path 1912" d="M186.983,106.881a.715.715,0,0,0-.577-.486l-3.109-.451-1.391-2.817a.715.715,0,0,0-.641-.4h0a.715.715,0,0,0-.641.4l-1.39,2.818-3.109.453a.715.715,0,0,0-.4,1.219l2.251,2.193-.53,3.1a.715.715,0,0,0,1.037.753l2.781-1.463,2.781,1.461a.715.715,0,0,0,1.037-.754l-.532-3.1,2.249-2.194A.715.715,0,0,0,186.983,106.881Zm-3.7,2.165a.715.715,0,0,0-.205.633l.35,2.04-1.832-.963a.715.715,0,0,0-.665,0l-1.831.963.349-2.04a.715.715,0,0,0-.206-.633l-1.482-1.444,2.048-.3a.715.715,0,0,0,.538-.391l.915-1.856.916,1.856a.715.715,0,0,0,.538.391l2.048.3Z" transform="translate(-175.512 -102.728)" fill="#f15928"/>
    </g>
  </g>
  <g id="Group_6053" data-name="Group 6053">
    <g id="Group_6052" data-name="Group 6052" transform="translate(0 0)">
      <path id="Path_1913" data-name="Path 1913" d="M62.15,30.285l-5.908-9.91a12.211,12.211,0,0,0,2.853-7.83,13.017,13.017,0,0,0-26.017,0,12.21,12.21,0,0,0,2.853,7.83l-5.908,9.91a.669.669,0,0,0,.026.728.726.726,0,0,0,.689.3l4.611-.6,1.769,4.15a.713.713,0,0,0,.613.426l.048,0a.72.72,0,0,0,.619-.345l5.964-9.962,0,0a13.52,13.52,0,0,0,3.443,0l0,0,5.964,9.962a.72.72,0,0,0,.619.345l.048,0a.713.713,0,0,0,.613-.426l1.769-4.15,4.611.6a.725.725,0,0,0,.689-.3A.67.67,0,0,0,62.15,30.285ZM37.887,33.043,36.6,30.023,37.755,28.2a.675.675,0,0,0-.236-.948.73.73,0,0,0-.983.228l-1.168,1.838-3.383.438,4.952-8.306a13.136,13.136,0,0,0,5.943,3.25Zm8.2-9.332A11.391,11.391,0,0,1,34.507,12.545a11.587,11.587,0,0,1,23.158,0A11.391,11.391,0,0,1,46.086,23.712ZM56.8,29.321l-1.168-1.838a.73.73,0,0,0-.983-.228.675.675,0,0,0-.236.948l1.156,1.819-1.288,3.021L49.293,24.7a13.136,13.136,0,0,0,5.943-3.25l4.952,8.306Z" transform="translate(-29.928 0)" fill="#f15928"/>
    </g>
  </g>
  <g id="Group_6055" data-name="Group 6055" transform="translate(11.243 3.717)">
    <g id="Group_6054" data-name="Group 6054">
      <path id="Path_1914" data-name="Path 1914" d="M192.143,52a9.3,9.3,0,0,0-4.551,1.189.715.715,0,0,0,.7,1.246,7.866,7.866,0,0,1,10.95,10.24.715.715,0,1,0,1.29.616,9.21,9.21,0,0,0,.9-4A9.3,9.3,0,0,0,192.143,52Z" transform="translate(-187.227 -52)" fill="#f15928"/>
    </g>
  </g>
  <g id="Group_6057" data-name="Group 6057" transform="translate(21.58 17.591)">
    <g id="Group_6056" data-name="Group 6056" transform="translate(0)">
      <path id="Path_1915" data-name="Path 1915" d="M333.073,255.8a.715.715,0,0,0-1.011.015l-.016.016a.715.715,0,1,0,1.023,1l.019-.019A.715.715,0,0,0,333.073,255.8Z" transform="translate(-331.843 -255.598)" fill="#f15928"/>
    </g>
  </g>
  <g id="Group_6059" data-name="Group 6059" transform="translate(6.867 8.247)">
    <g id="Group_6058" data-name="Group 6058">
      <path id="Path_1916" data-name="Path 1916" d="M140.048,133.745a.715.715,0,0,0-.971-.281,7.866,7.866,0,0,1-10.948-10.147.715.715,0,0,0-1.3-.593,9.3,9.3,0,0,0,12.938,11.991A.715.715,0,0,0,140.048,133.745Z" transform="translate(-125.996 -122.306)" fill="#f15928"/>
    </g>
  </g>
  <g id="Group_6061" data-name="Group 6061" transform="translate(9.153 6.209)">
    <g id="Group_6060" data-name="Group 6060" transform="translate(0)">
      <path id="Path_1917" data-name="Path 1917" d="M159.2,90.408a.715.715,0,0,0-1.01.036l-.016.017a.715.715,0,1,0,1.049.971l.013-.014A.715.715,0,0,0,159.2,90.408Z" transform="translate(-157.984 -90.216)" fill="#f15928"/>
    </g>
  </g>
</svg>
