<svg id="_004-delivery-box" data-name="004-delivery-box" xmlns="http://www.w3.org/2000/svg" width="35.354" height="35.08" viewBox="0 0 35.354 35.08">
  <path id="Path_1873" data-name="Path 1873" d="M17.665,32.633a.731.731,0,0,1-.34-.084L.4,23.711a.737.737,0,0,1-.4-.653V6.486a.736.736,0,0,1,1.065-.658L17.993,14.3a.738.738,0,0,1,.407.658V31.9a.737.737,0,0,1-.355.63A.726.726,0,0,1,17.665,32.633ZM1.473,22.612l15.455,8.069V15.411L1.473,7.678Z" transform="translate(0.002 2.447)" fill="#f8ab93"/>
  <path id="Path_1874" data-name="Path 1874" d="M12.245,32.633a.735.735,0,0,1-.737-.737V14.957a.738.738,0,0,1,.407-.658l16.928-8.47a.738.738,0,0,1,1.066.658V23.058a.737.737,0,0,1-.4.653L12.585,32.549a.731.731,0,0,1-.34.084Zm.737-17.221v15.27l15.455-8.069V7.678Zm16.192,7.647h.015Z" transform="translate(5.445 2.447)" fill="#f8ab93"/>
  <path id="Path_1875" data-name="Path 1875" d="M.737,9.943a.736.736,0,0,1-.33-1.395L17.359.078a.739.739,0,0,1,.658,0l16.928,8.47a.737.737,0,0,1-.658,1.318L17.689,1.56,1.067,9.865a.733.733,0,0,1-.33.078Z" transform="translate(0.001 0)" fill="#f8ab93"/>
  <path id="Path_1876" data-name="Path 1876" d="M23.673,20.795a.737.737,0,0,1-.737-.737V12.412L6.415,4.145a.737.737,0,0,1,.66-1.318L24,11.3a.742.742,0,0,1,.407.66v8.1a.737.737,0,0,1-.737.737Z" transform="translate(2.843 1.3)" fill="#f8ab93"/>
</svg>
