<svg id="biology" xmlns="http://www.w3.org/2000/svg" width="57.288" height="57.288" viewBox="0 0 57.288 57.288">
  <g id="Group_144" data-name="Group 144">
    <g id="Group_143" data-name="Group 143">
      <path id="Path_211" data-name="Path 211" d="M52.253,23.721H49.766a21.92,21.92,0,0,0-2.66-6.418l1.6-1.6a5.035,5.035,0,0,0-7.121-7.121l-1.6,1.6a21.92,21.92,0,0,0-6.418-2.66V5.035a5.035,5.035,0,0,0-10.07,0V7.522a21.915,21.915,0,0,0-6.418,2.66l-1.6-1.6A5.035,5.035,0,1,0,8.357,15.7l1.6,1.6A21.922,21.922,0,0,0,7.3,23.721H5.035a5.035,5.035,0,0,0,0,10.07H7.3a21.92,21.92,0,0,0,2.66,6.418l-1.6,1.6a5.035,5.035,0,0,0,7.121,7.121l1.6-1.6a21.916,21.916,0,0,0,6.418,2.66v2.264a5.035,5.035,0,1,0,10.07,0V49.989a21.915,21.915,0,0,0,6.418-2.66l1.6,1.6a5.035,5.035,0,1,0,7.121-7.121l-1.6-1.6a21.92,21.92,0,0,0,2.66-6.418h2.488a5.035,5.035,0,0,0,0-10.07Zm0,6.713H48.672c-.047,0-.094,0-.14-.006a1.68,1.68,0,0,0-1.792,1.4,18.479,18.479,0,0,1-3.165,7.636,1.678,1.678,0,0,0,.281,2.254c.036.03.071.063.1.1l2.374,2.374a1.678,1.678,0,1,1-2.374,2.374l-2.374-2.374c-.033-.033-.065-.067-.095-.1a1.678,1.678,0,0,0-2.254-.281A18.479,18.479,0,0,1,31.6,46.964a1.678,1.678,0,0,0-1.4,1.792c0,.047.006.094.006.14v3.357a1.678,1.678,0,1,1-3.357,0V48.9c0-.047,0-.094.006-.14a1.678,1.678,0,0,0-1.4-1.792A18.48,18.48,0,0,1,17.827,43.8a1.678,1.678,0,0,0-2.254.281q-.045.053-.1.1L13.1,46.558a1.678,1.678,0,0,1-2.374-2.374L13.1,41.811c.033-.033.068-.066.1-.1a1.678,1.678,0,0,0,.281-2.254,18.479,18.479,0,0,1-3.165-7.636,1.678,1.678,0,0,0-1.792-1.4c-.046,0-.093.006-.14.006H5.035a1.678,1.678,0,0,1,0-3.357H8.392c.047,0,.094,0,.14.006a1.679,1.679,0,0,0,1.792-1.4,18.479,18.479,0,0,1,3.165-7.636,1.678,1.678,0,0,0-.281-2.254c-.036-.03-.071-.063-.1-.1L10.73,13.328A1.678,1.678,0,1,1,13.1,10.954l2.374,2.374c.033.033.065.067.095.1a1.678,1.678,0,0,0,2.254.281,18.479,18.479,0,0,1,7.636-3.165,1.678,1.678,0,0,0,1.4-1.792c0-.047-.006-.094-.006-.14V5.035a1.678,1.678,0,1,1,3.357,0V8.616c0,.047,0,.094-.006.14a1.678,1.678,0,0,0,1.4,1.792,18.48,18.48,0,0,1,7.636,3.165,1.678,1.678,0,0,0,2.254-.281q.045-.053.1-.1l2.374-2.374a1.678,1.678,0,0,1,2.374,2.374L43.96,15.7c-.033.033-.068.066-.1.1a1.678,1.678,0,0,0-.281,2.254,18.479,18.479,0,0,1,3.165,7.636,1.677,1.677,0,0,0,1.792,1.4c.046,0,.093-.006.14-.006h3.581a1.678,1.678,0,1,1,0,3.357Z" fill="#f15928"/>
    </g>
  </g>
  <g id="Group_146" data-name="Group 146" transform="translate(16.784 17.007)">
    <g id="Group_145" data-name="Group 145">
      <path id="Path_212" data-name="Path 212" d="M155.035,152a5.035,5.035,0,1,0,5.035,5.035A5.041,5.041,0,0,0,155.035,152Zm0,6.713a1.678,1.678,0,1,1,1.678-1.678A1.68,1.68,0,0,1,155.035,158.713Z" transform="translate(-150 -152)" fill="#f15928"/>
    </g>
  </g>
  <g id="Group_148" data-name="Group 148" transform="translate(26.896 13.882)">
    <g id="Group_147" data-name="Group 147" transform="translate(0 0)">
      <circle id="Ellipse_16" data-name="Ellipse 16" cx="1.5" cy="1.5" r="1.5" transform="translate(0.104 0.118)" fill="#f15928"/>
    </g>
  </g>
  <g id="Group_150" data-name="Group 150" transform="translate(16.485 37.307)">
    <g id="Group_149" data-name="Group 149" transform="translate(0 0)">
      <circle id="Ellipse_17" data-name="Ellipse 17" cx="2" cy="2" r="2" transform="translate(-0.485 -0.307)" fill="#f15928"/>
    </g>
  </g>
  <g id="Group_152" data-name="Group 152" transform="translate(37.307 37.307)">
    <g id="Group_151" data-name="Group 151" transform="translate(0 0)">
      <ellipse id="Ellipse_18" data-name="Ellipse 18" cx="1.5" cy="2" rx="1.5" ry="2" transform="translate(-0.307 -0.307)" fill="#f15928"/>
    </g>
  </g>
  <g id="Group_154" data-name="Group 154" transform="translate(29.838 16.687)">
    <g id="Group_153" data-name="Group 153">
      <path id="Path_213" data-name="Path 213" d="M279.327,154.7l-4.1-4.1a5.005,5.005,0,0,0-7.086,0l-.008.008a5.006,5.006,0,0,0,0,7.083l4.1,4.1a5.005,5.005,0,0,0,7.08,0l.011-.011,0,0A5.014,5.014,0,0,0,279.327,154.7Zm-2.372,4.708-.012.012a1.654,1.654,0,0,1-2.336,0l-4.1-4.1a1.654,1.654,0,0,1,0-2.339l.008-.008a1.654,1.654,0,0,1,2.336,0l4.1,4.1A1.654,1.654,0,0,1,276.955,159.409Z" transform="translate(-266.669 -149.137)" fill="#f15928"/>
    </g>
  </g>
  <g id="Group_156" data-name="Group 156" transform="translate(23.497 30.434)">
    <g id="Group_155" data-name="Group 155">
      <path id="Path_214" data-name="Path 214" d="M215.035,272A5.041,5.041,0,0,0,210,277.035v3.357a5.035,5.035,0,0,0,10.07,0v-3.357A5.041,5.041,0,0,0,215.035,272Zm1.678,8.392a1.678,1.678,0,0,1-3.357,0v-3.357a1.678,1.678,0,1,1,3.357,0Z" transform="translate(-210 -272)" fill="#f15928"/>
    </g>
  </g>
  <g id="Group_158" data-name="Group 158" transform="translate(13.427 27.078)">
    <g id="Group_157" data-name="Group 157">
      <path id="Path_215" data-name="Path 215" d="M126.221,245.848l-3.357-3.357a1.678,1.678,0,0,0-2.374,2.374l3.357,3.357a1.678,1.678,0,0,0,2.374-2.374Z" transform="translate(-119.999 -242)" fill="#f15928"/>
    </g>
  </g>
</svg>
