<svg xmlns="http://www.w3.org/2000/svg" width="594.747" height="409.248" viewBox="0 0 594.747 409.248">
  <g id="Group_9387" data-name="Group 9387" transform="translate(-345.519 -2472.422)">
    <g id="Group_9329" data-name="Group 9329" transform="translate(431.352 2445.91)">
      <path id="Path_6624" data-name="Path 6624" d="M732.112,409.848c113.011,0,204.623-91.614,204.623-204.624S845.123.6,732.112.6,527.489,92.213,527.489,205.224,619.1,409.848,732.112,409.848Z" transform="translate(-500.977 25.912)" fill="#52bd95" opacity="0.08"/>
      <path id="Path_6625" data-name="Path 6625" d="M683.835,313.293A156.347,156.347,0,1,0,527.489,156.947,156.347,156.347,0,0,0,683.835,313.293Z" transform="translate(-452.7 74.189)" fill="none" stroke="#35b37f" stroke-width="1" stroke-dasharray="10"/>
    </g>
    <g id="Ellipse_117" data-name="Ellipse 117" transform="translate(529.535 2542.826)" fill="#fff" stroke="#35b37f" stroke-width="1">
      <circle cx="132.593" cy="132.593" r="132.593" stroke="none"/>
      <circle cx="132.593" cy="132.593" r="132.093" fill="none"/>
    </g>
    <g id="robot" transform="translate(544.894 2558.187)">
      <path id="Path_6488" data-name="Path 6488" d="M202.553,188.475v8.284a7.294,7.294,0,0,1-2.179,5.213,118.288,118.288,0,0,1-16.621,13.584,3.469,3.469,0,0,1-3.776.086,117.924,117.924,0,0,0-123.758-.306,4.373,4.373,0,0,1-4.758-.111A118.3,118.3,0,0,1,35.2,201.852a9.9,9.9,0,0,1-2.98-7.053v-7.324a17.146,17.146,0,0,0-17.146-17.146,4.42,4.42,0,0,1-4-2.539A117.9,117.9,0,0,1,117.714,0c65.067-.074,118.14,53.07,117.984,118.139a117.354,117.354,0,0,1-11.115,49.727,4.291,4.291,0,0,1-3.884,2.464A18.146,18.146,0,0,0,202.553,188.475Zm0,0" transform="translate(0 0)" fill="#35b37f"/>
      <path id="Path_6489" data-name="Path 6489" d="M252.828,248.414A18.414,18.414,0,1,1,234.414,230,18.415,18.415,0,0,1,252.828,248.414Zm0,0" transform="translate(-116.565 -124.12)" fill="#0995a3"/>
      <path id="Path_6490" data-name="Path 6490" d="M290.638,9.207a9.2,9.2,0,0,1-16.6,5.47,32.273,32.273,0,0,0-24.83,31.358H240A41.5,41.5,0,0,1,273.026,5.461a9.2,9.2,0,0,1,17.612,3.746Zm0,0" transform="translate(-129.516 0)" fill="#013f69"/>
      <path id="Path_6491" data-name="Path 6491" d="M327.6,5A4.6,4.6,0,1,1,323,9.6,4.6,4.6,0,0,1,327.6,5Zm0,0" transform="translate(-174.307 -2.698)" fill="#015081"/>
      <path id="Path_6492" data-name="Path 6492" d="M174.08,162.005H86.614A46.035,46.035,0,0,1,40.579,115.97v-4.6A46.036,46.036,0,0,1,86.614,65.332H174.08a46.036,46.036,0,0,1,46.035,46.035v4.6A46.035,46.035,0,0,1,174.08,162.005ZM237.6,202.983a118.132,118.132,0,0,1-24.31,34.282l-15.6-15.6c-.164-.164-.32-.333-.477-.5v21.248a46.284,46.284,0,0,1-.806,8.6,117.887,117.887,0,0,1-132.122-.626,46.312,46.312,0,0,1-.691-7.979V221.992L48.322,237.265a118.131,118.131,0,0,1-24.31-34.282l10.615-10.615a18.377,18.377,0,0,1,15.188-5.26,18.412,18.412,0,0,1,35.157-6.591,45.816,45.816,0,0,1,24.659-7.157h41.55a45.831,45.831,0,0,1,28.22,9.666,18.412,18.412,0,0,1,36.076,4.015,18.334,18.334,0,0,1,11.51,5.326Zm0,0" transform="translate(-12.958 -35.256)" fill="#258b61"/>
      <path id="Path_6493" data-name="Path 6493" d="M112.643,162.005A46.034,46.034,0,0,1,66.608,115.97v-4.6a46.035,46.035,0,0,1,46.035-46.035h69.513a46.035,46.035,0,0,1,46.035,46.035v4.6a46.034,46.034,0,0,1-46.035,46.035ZM76.276,206.529a18.407,18.407,0,0,1-15.869-9.076,18.3,18.3,0,0,0-7.937,4.681L38.977,215.627A118.5,118.5,0,0,0,56.4,237.265l15.6-15.6A18.379,18.379,0,0,0,77.266,206.5C76.937,206.519,76.608,206.529,76.276,206.529Zm158.788-14.161a18.339,18.339,0,0,0-11.511-5.33c.022.356.034.714.034,1.077a18.419,18.419,0,0,1-12.235,17.348,18.308,18.308,0,0,0,4.181,6.436l15.127,15.129a117.866,117.866,0,0,0,15.019-24.044Zm-48.3-4.253a18.445,18.445,0,0,1,.779-5.3,45.822,45.822,0,0,0-27.939-9.45H136.121A46.034,46.034,0,0,0,90.086,219.4v23.017a45.848,45.848,0,0,0,4.53,19.935,118,118,0,0,0,110.261-11.591,46.227,46.227,0,0,0,.757-8.344V219.4a46.1,46.1,0,0,0-1.841-12.924A18.412,18.412,0,0,1,186.759,188.115Zm0,0" transform="translate(-21.034 -35.256)" fill="#fff"/>
      <path id="Path_6494" data-name="Path 6494" d="M224.9,146.763h-79.18a20.716,20.716,0,1,1,0-41.431H224.9a20.716,20.716,0,1,1,0,41.431Zm0,0" transform="translate(-67.456 -56.843)" fill="#013f69"/>
      <path id="Path_6495" data-name="Path 6495" d="M238.387,146.763H170.716a20.716,20.716,0,0,1,0-41.431h67.671a20.716,20.716,0,1,1,0,41.431Zm0,0" transform="translate(-80.948 -56.843)" fill="#015081"/>
      <path id="Path_6496" data-name="Path 6496" d="M181.509,125.332a11.509,11.509,0,1,0,11.509,11.509A11.509,11.509,0,0,0,181.509,125.332Zm0,16.112a4.6,4.6,0,1,1,4.6-4.6A4.6,4.6,0,0,1,181.509,141.444Zm55.242-16.112a11.509,11.509,0,1,0,11.509,11.509A11.509,11.509,0,0,0,236.75,125.332Zm0,16.112a4.6,4.6,0,1,1,4.6-4.6A4.6,4.6,0,0,1,236.75,141.444Zm0,0" transform="translate(-91.741 -67.636)" fill="#84deea"/>
      <path id="Path_6497" data-name="Path 6497" d="M118.414,321.258a9.207,9.207,0,1,1-9.207-9.207A9.207,9.207,0,0,1,118.414,321.258ZM238.1,312.051a9.207,9.207,0,1,0,9.207,9.207A9.206,9.206,0,0,0,238.1,312.051Zm0,0" transform="translate(-53.965 -168.399)" fill="#84deea"/>
      <path id="Path_6498" data-name="Path 6498" d="M128.3,322.048a9.2,9.2,0,0,1-5.754,8.531,9.254,9.254,0,0,1-4.095-3.269.738.738,0,0,1,.628-1.158h.014a4.1,4.1,0,1,0-.025-8.209.735.735,0,0,1-.617-1.156,9.24,9.24,0,0,1,4.1-3.271A9.205,9.205,0,0,1,128.3,322.048Zm123.143-8.533a9.226,9.226,0,0,0-4.095,3.271.734.734,0,0,0,.615,1.156,4.209,4.209,0,0,1,1.03.124,4.1,4.1,0,0,1-1,8.085h-.016a.737.737,0,0,0-.626,1.158,9.209,9.209,0,0,0,4.095,3.269,9.2,9.2,0,0,0,0-17.063Zm0,0" transform="translate(-63.848 -169.189)" fill="#d3f1f5"/>
      <path id="Path_6499" data-name="Path 6499" d="M308.414,330a4.6,4.6,0,1,1-4.6,4.6A4.6,4.6,0,0,1,308.414,330ZM290,334.6a4.6,4.6,0,1,0,4.6-4.6A4.6,4.6,0,0,0,290,334.6Zm0,0" transform="translate(-156.499 -178.085)" fill="#0995a3"/>
      <path id="Path_6500" data-name="Path 6500" d="M264.6,330a4.6,4.6,0,1,1-4.6,4.6A4.6,4.6,0,0,1,264.6,330Zm0,0" transform="translate(-140.309 -178.085)" fill="#84deea"/>
    </g>
    <g id="Group_9330" data-name="Group 9330" transform="translate(829.193 2710.778)">
      <g id="Group_6922" data-name="Group 6922" transform="translate(-1728.277 0.132)">
        <rect id="Rectangle_320" data-name="Rectangle 320" width="110.747" height="50.894" rx="25.447" transform="translate(1728.604)" fill="#f44336"/>
      </g>
      <path id="Path_6705" data-name="Path 6705" d="M12.771-5.292c0,2.052-1.458,3.267-3.888,3.267H4.536V-8.667H8.8C11.2-8.667,12.771-7.371,12.771-5.292Zm-.486-8.451c0,1.917-1.323,3.051-3.618,3.051H4.536v-6.1H8.613C11.016-16.794,12.285-15.606,12.285-13.743Zm2.943,8.694A4.7,4.7,0,0,0,11.5-9.693,4.4,4.4,0,0,0,14.8-14.04c0-2.619-2-4.779-5.967-4.779H2.079V0H9.1C12.987,0,15.228-2.214,15.228-5.049ZM31.752-14.8H29.3v8.127c0,3.186-1.7,4.752-4.239,4.752-2.484,0-4.131-1.539-4.131-4.536V-14.8H18.5v8.667C18.5-1.89,21.168.216,24.57.216a5.439,5.439,0,0,0,4.725-2.4V0h2.457Zm3.24,7.344c0,4.59,3.051,7.695,7.02,7.695A6.183,6.183,0,0,0,47.52-2.781v3.1c0,3.159-1.971,4.833-4.59,4.833-2.43,0-4.185-1.215-4.725-3h-2.43c.486,3.159,3.267,5.13,7.155,5.13C47.277,7.29,50,4.4,50,.324V-14.8H47.52v2.7a6.1,6.1,0,0,0-5.508-2.943C38.043-15.039,34.992-12.069,34.992-7.452Zm12.528.027c0,3.483-2.322,5.508-5.022,5.508S37.5-3.969,37.5-7.452,39.8-12.906,42.5-12.906,47.52-10.854,47.52-7.425Zm17.28,3.4c-.108-5.292-8.694-3.375-8.694-6.885,0-1.188,1.08-2.052,2.889-2.052,1.971,0,3.1,1.08,3.213,2.565h2.457c-.162-2.889-2.322-4.644-5.589-4.644-3.294,0-5.427,1.863-5.427,4.131,0,5.508,8.748,3.591,8.748,6.885,0,1.215-1.08,2.187-3.024,2.187-2.079,0-3.348-1.08-3.483-2.511H53.352c.162,2.7,2.592,4.59,6.048,4.59C62.667.243,64.8-1.593,64.8-4.023Z" transform="translate(22.326 35.132)" fill="#fff"/>
    </g>
    <g id="Group_9331" data-name="Group 9331" transform="translate(350.413 2786.07)">
      <g id="Group_6922-2" data-name="Group 6922" transform="translate(-1255.8 -0.16)">
        <rect id="Rectangle_320-2" data-name="Rectangle 320" width="208.864" height="51.487" rx="25.744" transform="translate(1255.905)" fill="#35b37f"/>
      </g>
      <path id="Path_6704" data-name="Path 6704" d="M1.5-5.14C1.5-1.52,3.86.14,6.74.14S12-1.52,12-5.14v-8.8H10.18v8.82c0,2.56-1.36,3.66-3.42,3.66S3.32-2.56,3.32-5.12v-8.82H1.5ZM22.92-2.98c-.08-3.92-6.44-2.5-6.44-5.1,0-.88.8-1.52,2.14-1.52A2.108,2.108,0,0,1,21-7.7h1.82c-.12-2.14-1.72-3.44-4.14-3.44-2.44,0-4.02,1.38-4.02,3.06,0,4.08,6.48,2.66,6.48,5.1,0,.9-.8,1.62-2.24,1.62-1.54,0-2.48-.8-2.58-1.86H14.44c.12,2,1.92,3.4,4.48,3.4C21.34.18,22.92-1.18,22.92-2.98ZM30.14-9.6A3.216,3.216,0,0,1,33.6-6.28H26.68A3.394,3.394,0,0,1,30.14-9.6Zm5.12,6.22H33.3a3.012,3.012,0,0,1-3.08,2.02A3.445,3.445,0,0,1,26.66-4.8h8.76a9.865,9.865,0,0,0,.06-1.1,5.024,5.024,0,0,0-5.26-5.24c-3.2,0-5.42,2.18-5.42,5.64,0,3.48,2.3,5.68,5.42,5.68A4.928,4.928,0,0,0,35.26-3.38ZM39.7-5.96c0-2.54,1.32-3.32,3.06-3.32h.48v-1.88A3.691,3.691,0,0,0,39.7-9.18v-1.78H37.88V0H39.7Zm18.48-8h-7.5V0h7.5V-1.5H52.5V-6.3h5.08V-7.8H52.5v-4.66h5.68ZM66.66,0h2.06L65.18-5.54l3.52-5.42H66.8L64.32-6.9l-2.6-4.06H59.66L63.2-5.44,59.66,0h1.9l2.5-4.08Zm5.68-8.94v-2.02H70.52V5.2h1.82V-2.02a4.741,4.741,0,0,0,4.1,2.2c2.94,0,5.2-2.3,5.2-5.7,0-3.42-2.26-5.62-5.2-5.62A4.63,4.63,0,0,0,72.34-8.94Zm7.44,3.42a3.757,3.757,0,0,1-3.72,4.1A3.761,3.761,0,0,1,72.34-5.5a3.767,3.767,0,0,1,3.72-4.06A3.7,3.7,0,0,1,79.78-5.52ZM88.7-9.6a3.216,3.216,0,0,1,3.46,3.32H85.24A3.394,3.394,0,0,1,88.7-9.6Zm5.12,6.22H91.86a3.012,3.012,0,0,1-3.08,2.02A3.445,3.445,0,0,1,85.22-4.8h8.76a9.865,9.865,0,0,0,.06-1.1,5.024,5.024,0,0,0-5.26-5.24c-3.2,0-5.42,2.18-5.42,5.64,0,3.48,2.3,5.68,5.42,5.68A4.928,4.928,0,0,0,93.82-3.38Zm4.44-2.58c0-2.54,1.32-3.32,3.06-3.32h.48v-1.88a3.691,3.691,0,0,0-3.54,1.98v-1.78H96.44V0h1.82ZM103.9,0h1.82V-10.96H103.9Zm.94-12.74a1.213,1.213,0,0,0,1.2-1.24,1.213,1.213,0,0,0-1.2-1.24,1.221,1.221,0,0,0-1.24,1.24A1.221,1.221,0,0,0,104.84-12.74Zm8.64,3.14a3.216,3.216,0,0,1,3.46,3.32h-6.92A3.394,3.394,0,0,1,113.48-9.6Zm5.12,6.22h-1.96a3.012,3.012,0,0,1-3.08,2.02A3.445,3.445,0,0,1,110-4.8h8.76a9.865,9.865,0,0,0,.06-1.1,5.024,5.024,0,0,0-5.26-5.24c-3.2,0-5.42,2.18-5.42,5.64,0,3.48,2.3,5.68,5.42,5.68A4.928,4.928,0,0,0,118.6-3.38ZM129.24,0h1.8V-6.46c0-3.14-1.94-4.7-4.48-4.7a4.049,4.049,0,0,0-3.52,1.76v-1.56h-1.82V0h1.82V-6.06c0-2.36,1.28-3.52,3.14-3.52,1.84,0,3.06,1.14,3.06,3.38Zm4.1-5.5c0,3.48,2.22,5.68,5.34,5.68a4.875,4.875,0,0,0,5.06-3.7h-1.96a2.94,2.94,0,0,1-3.1,2.16c-2,0-3.48-1.42-3.48-4.14,0-2.68,1.48-4.1,3.48-4.1a2.986,2.986,0,0,1,3.1,2.16h1.96c-.56-2.3-2.34-3.7-5.06-3.7C135.56-11.14,133.34-8.94,133.34-5.5Zm17.48-4.1a3.216,3.216,0,0,1,3.46,3.32h-6.92A3.394,3.394,0,0,1,150.82-9.6Zm5.12,6.22h-1.96a3.012,3.012,0,0,1-3.08,2.02,3.445,3.445,0,0,1-3.56-3.44h8.76a9.864,9.864,0,0,0,.06-1.1,5.024,5.024,0,0,0-5.26-5.24c-3.2,0-5.42,2.18-5.42,5.64,0,3.48,2.3,5.68,5.42,5.68A4.928,4.928,0,0,0,155.94-3.38Z" transform="translate(26.105 32.84)" fill="#fff"/>
    </g>
    <g id="Group_9332" data-name="Group 9332" transform="translate(345.519 2597.512)">
      <g id="Group_6922-3" data-name="Group 6922" transform="translate(-1451.728 0.398)">
        <rect id="Rectangle_320-3" data-name="Rectangle 320" width="171.667" height="50.307" rx="25" transform="translate(1451.728)" fill="#0b5fff"/>
      </g>
      <path id="Path_6702" data-name="Path 6702" d="M14.86-6.98a6.865,6.865,0,0,0-7-7.12,6.876,6.876,0,0,0-7,7.12,6.876,6.876,0,0,0,7,7.12A6.865,6.865,0,0,0,14.86-6.98Zm-12.14,0c0-3.42,2.2-5.54,5.14-5.54S13-10.4,13-6.98c0,3.4-2.2,5.54-5.14,5.54S2.72-3.58,2.72-6.98ZM25.28,0h1.8V-6.46c0-3.14-1.94-4.7-4.48-4.7A4.049,4.049,0,0,0,19.08-9.4v-1.56H17.26V0h1.82V-6.06c0-2.36,1.28-3.52,3.14-3.52,1.84,0,3.06,1.14,3.06,3.38Zm6.6-8.92V-14.8H30.06V0h1.82V-2.02a4.573,4.573,0,0,0,4.1,2.2c2.94,0,5.2-2.3,5.2-5.7,0-3.42-2.24-5.62-5.2-5.62A4.643,4.643,0,0,0,31.88-8.92Zm7.44,3.4a3.757,3.757,0,0,1-3.72,4.1A3.761,3.761,0,0,1,31.88-5.5,3.767,3.767,0,0,1,35.6-9.56,3.7,3.7,0,0,1,39.32-5.52Zm14.66.02a5.35,5.35,0,0,0-5.54-5.64A5.361,5.361,0,0,0,42.9-5.5,5.321,5.321,0,0,0,48.36.18,5.434,5.434,0,0,0,53.98-5.5Zm-9.22,0c0-2.76,1.74-4.06,3.66-4.06,1.88,0,3.7,1.3,3.7,4.06a3.721,3.721,0,0,1-3.76,4.08C46.46-1.42,44.76-2.72,44.76-5.5ZM55.7-5.52c0,3.4,2.26,5.7,5.18,5.7a4.577,4.577,0,0,0,4.1-2.22V0h1.84V-10.96H64.98v2a4.548,4.548,0,0,0-4.08-2.18C57.96-11.14,55.7-8.94,55.7-5.52Zm9.28.02a3.75,3.75,0,0,1-3.72,4.08c-2,0-3.7-1.52-3.7-4.1a3.7,3.7,0,0,1,3.7-4.04A3.755,3.755,0,0,1,64.98-5.5Zm6.74-.46c0-2.54,1.32-3.32,3.06-3.32h.48v-1.88a3.691,3.691,0,0,0-3.54,1.98v-1.78H69.9V0h1.82Zm4.96.44c0,3.4,2.26,5.7,5.2,5.7a4.5,4.5,0,0,0,4.08-2.24V0H87.8V-14.8H85.96V-9a4.78,4.78,0,0,0-4.06-2.14C78.94-11.14,76.68-8.94,76.68-5.52Zm9.28.02a3.75,3.75,0,0,1-3.72,4.08c-2,0-3.7-1.52-3.7-4.1a3.7,3.7,0,0,1,3.7-4.04A3.755,3.755,0,0,1,85.96-5.5ZM90.88,0H92.7V-10.96H90.88Zm.94-12.74a1.213,1.213,0,0,0,1.2-1.24,1.213,1.213,0,0,0-1.2-1.24,1.221,1.221,0,0,0-1.24,1.24A1.221,1.221,0,0,0,91.82-12.74ZM103.82,0h1.8V-6.46c0-3.14-1.94-4.7-4.48-4.7A4.049,4.049,0,0,0,97.62-9.4v-1.56H95.8V0h1.82V-6.06c0-2.36,1.28-3.52,3.14-3.52,1.84,0,3.06,1.14,3.06,3.38Zm4.1-5.52c0,3.4,2.26,5.7,5.2,5.7a4.58,4.58,0,0,0,4.08-2.24V.24a3.253,3.253,0,0,1-3.4,3.58,3.4,3.4,0,0,1-3.5-2.22h-1.8c.36,2.34,2.42,3.8,5.3,3.8A4.913,4.913,0,0,0,119.04.24v-11.2H117.2v2a4.517,4.517,0,0,0-4.08-2.18C110.18-11.14,107.92-8.94,107.92-5.52Zm9.28.02a3.75,3.75,0,0,1-3.72,4.08c-2,0-3.7-1.52-3.7-4.1a3.7,3.7,0,0,1,3.7-4.04A3.755,3.755,0,0,1,117.2-5.5Z" transform="translate(25 32.398)" fill="#fff"/>
    </g>
    <g id="Group_9333" data-name="Group 9333" transform="translate(774.966 2542.826)">
      <g id="Group_6922-4" data-name="Group 6922" transform="translate(-1496.242 0.084)">
        <rect id="Rectangle_320-4" data-name="Rectangle 320" width="129.466" height="55.793" rx="27.897" transform="translate(1495.795 0)" fill="#03363d"/>
      </g>
      <path id="Path_6703" data-name="Path 6703" d="M12.19-4.37c0-5.934-8.648-3.358-8.648-7.5,0-1.725,1.357-2.622,3.082-2.576a2.9,2.9,0,0,1,3.105,2.323h2.3c-.253-2.438-2.254-4.117-5.313-4.117C3.542-16.238,1.4-14.444,1.4-11.8c0,5.957,8.671,3.2,8.671,7.521,0,1.518-1.2,2.668-3.22,2.668A2.969,2.969,0,0,1,3.542-4.278H1.311C1.357-1.633,3.634.161,6.854.161,10.327.161,12.19-2.093,12.19-4.37Zm8.441-6.67A3.7,3.7,0,0,1,24.61-7.222H16.652A3.9,3.9,0,0,1,20.631-11.04Zm5.888,7.153H24.265a3.464,3.464,0,0,1-3.542,2.323A3.962,3.962,0,0,1,16.629-5.52H26.7a11.345,11.345,0,0,0,.069-1.265,5.778,5.778,0,0,0-6.049-6.026c-3.68,0-6.233,2.507-6.233,6.486,0,4,2.645,6.532,6.233,6.532A5.667,5.667,0,0,0,26.519-3.887Zm5.106-2.967c0-2.921,1.518-3.818,3.519-3.818H35.7v-2.162a4.245,4.245,0,0,0-4.071,2.277V-12.6H29.532V0h2.093Zm4.991-5.75L41.561,0H44l4.945-12.6H46.713L42.8-1.932,38.87-12.6ZM51.014,0h2.093V-12.6H51.014ZM52.1-14.651a1.4,1.4,0,0,0,1.38-1.426A1.4,1.4,0,0,0,52.1-17.5a1.4,1.4,0,0,0-1.426,1.426A1.4,1.4,0,0,0,52.1-14.651ZM55.89-6.325c0,4,2.553,6.532,6.141,6.532A5.606,5.606,0,0,0,67.85-4.048H65.6a3.381,3.381,0,0,1-3.565,2.484c-2.3,0-4-1.633-4-4.761,0-3.082,1.7-4.715,4-4.715A3.434,3.434,0,0,1,65.6-8.556H67.85c-.644-2.645-2.691-4.255-5.819-4.255C58.443-12.811,55.89-10.281,55.89-6.325Zm20.1-4.715a3.7,3.7,0,0,1,3.979,3.818H72.013A3.9,3.9,0,0,1,75.992-11.04ZM81.88-3.887H79.626a3.464,3.464,0,0,1-3.542,2.323A3.962,3.962,0,0,1,71.99-5.52H82.064a11.344,11.344,0,0,0,.069-1.265,5.778,5.778,0,0,0-6.049-6.026c-3.68,0-6.233,2.507-6.233,6.486,0,4,2.645,6.532,6.233,6.532A5.667,5.667,0,0,0,81.88-3.887Z" transform="translate(23.552 36.084)" fill="#fff"/>
    </g>
  </g>
</svg>
