<svg xmlns="http://www.w3.org/2000/svg" xmlns:xlink="http://www.w3.org/1999/xlink" width="433" height="432" viewBox="0 0 433 432">
  <defs>
    <filter id="Path_6611" x="185.57" y="328.285" width="60.733" height="60.733" filterUnits="userSpaceOnUse">
      <feOffset dy="3" input="SourceAlpha"/>
      <feGaussianBlur stdDeviation="3" result="blur"/>
      <feFlood flood-color="#decdcd" flood-opacity="0.161"/>
      <feComposite operator="in" in2="blur"/>
      <feComposite in="SourceGraphic"/>
    </filter>
    <filter id="Rectangle_4178" x="244.536" y="253.989" width="44.211" height="44.211" filterUnits="userSpaceOnUse">
      <feOffset dy="3" input="SourceAlpha"/>
      <feGaussianBlur stdDeviation="3" result="blur-2"/>
      <feFlood flood-color="#decdcd" flood-opacity="0.161"/>
      <feComposite operator="in" in2="blur-2"/>
      <feComposite in="SourceGraphic"/>
    </filter>
  </defs>
  <g id="Group_9396" data-name="Group 9396" transform="translate(9 -531)">
    <rect id="Rectangle_4263" data-name="Rectangle 4263" width="433" height="432" rx="216" transform="translate(-9 531)" fill="#094144"/>
    <g id="Group_9376" data-name="Group 9376" transform="translate(72 574.244)">
      <g id="Group_9397" data-name="Group 9397">
        <g id="Group_9274" data-name="Group 9274" transform="translate(14.59 65.615)">
          <path id="Path_6225" data-name="Path 6225" d="M643.488,232.6a116,116,0,1,0-116-116A116,116,0,0,0,643.488,232.6Z" transform="translate(-527.489 -0.6)" fill="#52bd95" opacity="0.08"/>
          <path id="Path_6589" data-name="Path 6589" d="M606.077,157.775a78.588,78.588,0,1,0-78.588-78.588A78.588,78.588,0,0,0,606.077,157.775Z" transform="translate(-489.896 36.992)" fill="#52bd95" opacity="0.08"/>
        </g>
        <path id="Path_6128" data-name="Path 6128" d="M0,0H24.474C56.053,0,52.9,69.386,82.37,69.386H98.159" transform="translate(180.08 187.894) rotate(-90)" fill="none" stroke="#fff" stroke-width="15"/>
        <path id="Path_6201" data-name="Path 6201" d="M0,69.267H24.474C56.053,69.267,52.9,0,82.37,0H98.159" transform="translate(24.216 187.894) rotate(-90)" fill="none" stroke="#fff" stroke-width="15"/>
        <path id="Path_6129" data-name="Path 6129" d="M0,0H24.474C56.053,0,52.9,34.818,82.37,34.818H98.159" transform="translate(160.501 187.894) rotate(-90)" fill="none" stroke="#fff" stroke-width="15"/>
        <path id="Path_6130" data-name="Path 6130" d="M0,0H89.536" transform="translate(140.155 187.894) rotate(-90)" fill="none" stroke="#fff" stroke-width="15"/>
        <path id="Path_6518" data-name="Path 6518" d="M0,0H50.119" transform="translate(133.525 203.69) rotate(90)" fill="none" stroke="#36b37e" stroke-width="15"/>
        <path id="Path_6131" data-name="Path 6131" d="M0,34.818H24.474C56.053,34.818,52.9,0,82.37,0H98.159" transform="translate(81.609 187.894) rotate(-90)" fill="none" stroke="#fff" stroke-width="15"/>
        <path id="Path_6601" data-name="Path 6601" d="M21.367,0A21.367,21.367,0,1,1,0,21.367,21.367,21.367,0,0,1,21.367,0Z" transform="translate(27.064 44.864)" fill="#fff"/>
        <path id="Path_6605" data-name="Path 6605" d="M21.367,0A21.367,21.367,0,1,1,0,21.367,21.367,21.367,0,0,1,21.367,0Z" transform="translate(175.375 75.589)" fill="#fff"/>
        <path id="Path_6602" data-name="Path 6602" d="M21.367,0A21.367,21.367,0,1,1,0,21.367,21.367,21.367,0,0,1,21.367,0Z" transform="translate(97.531 51.993)" fill="#fff"/>
        <path id="Path_6606" data-name="Path 6606" d="M21.367,0A21.367,21.367,0,1,1,0,21.367,21.367,21.367,0,0,1,21.367,0Z" transform="translate(193.682 27.777)" fill="#fff"/>
        <path id="Path_6607" data-name="Path 6607" d="M21.367,0A21.367,21.367,0,1,1,0,21.367,21.367,21.367,0,0,1,21.367,0Z" transform="translate(118.79 93.646)" fill="#fff"/>
        <path id="Path_6608" data-name="Path 6608" d="M21.367,0A21.367,21.367,0,1,1,0,21.367,21.367,21.367,0,0,1,21.367,0Z" transform="translate(58.849 77.989)" fill="#fff"/>
        <path id="Path_6603" data-name="Path 6603" d="M21.367,0A21.367,21.367,0,1,1,0,21.367,21.367,21.367,0,0,1,21.367,0Z" transform="translate(141.998 38.823)" fill="#fff"/>
        <path id="Path_6609" data-name="Path 6609" d="M21.367,0A21.367,21.367,0,1,1,0,21.367,21.367,21.367,0,0,1,21.367,0Z" transform="translate(228.098 58.047)" fill="#fff"/>
        <path id="Path_6610" data-name="Path 6610" d="M21.367,0A21.367,21.367,0,1,1,0,21.367,21.367,21.367,0,0,1,21.367,0Z" transform="translate(0 83.331)" fill="#fff"/>
        <path id="Path_6604" data-name="Path 6604" d="M1.072-6.45A2.943,2.943,0,0,0,4.251-3.328,3,3,0,0,0,7.5-6.45v-4.911H5.892v4.923A1.479,1.479,0,0,1,4.274-4.775,1.476,1.476,0,0,1,2.667-6.438v-4.923h-1.6ZM13.459-3.407h1.6v-3.7a2.428,2.428,0,0,0-2.518-2.7,2.358,2.358,0,0,0-1.9.877V-9.72h-1.6v6.313h1.6V-6.894a1.371,1.371,0,0,1,1.424-1.561,1.366,1.366,0,0,1,1.4,1.561Zm8.011-1.8c-.046-2.313-3.544-1.6-3.544-2.746,0-.365.308-.6.9-.6a.94.94,0,0,1,1.06.82h1.527a2.262,2.262,0,0,0-2.541-2.085c-1.561,0-2.5.843-2.5,1.892,0,2.313,3.567,1.6,3.567,2.724,0,.365-.342.65-.969.65a1.048,1.048,0,0,1-1.14-.843H16.228C16.3-4.228,17.4-3.3,18.986-3.3,20.524-3.3,21.47-4.125,21.47-5.208Zm1.561-.16c0,1.447.809,1.96,2.017,1.96h1V-4.752H25.31c-.5,0-.672-.182-.672-.6V-8.41h1.413V-9.72H24.638v-1.561H23.031V-9.72h-.752v1.31h.752ZM28.8-6.552c0-1.219.57-1.584,1.516-1.584h.422V-9.812A2.19,2.19,0,0,0,28.8-8.74v-.98H27.2v6.313h1.6ZM37.766-9.72H36.159v3.476c0,1.014-.547,1.561-1.413,1.561a1.366,1.366,0,0,1-1.4-1.561V-9.72h-1.6v3.7a2.433,2.433,0,0,0,2.53,2.689,2.328,2.328,0,0,0,1.88-.877v.8h1.607Zm1.162,3.157A3.029,3.029,0,0,0,42.05-3.3a2.88,2.88,0,0,0,2.974-2.234H43.3a1.2,1.2,0,0,1-1.265.866c-.889,0-1.481-.661-1.481-1.892s.593-1.9,1.481-1.9a1.24,1.24,0,0,1,1.265.877h1.721A2.817,2.817,0,0,0,42.05-9.823,3.029,3.029,0,0,0,38.928-6.564Zm7.521,1.2c0,1.447.809,1.96,2.017,1.96h1V-4.752h-.741c-.5,0-.672-.182-.672-.6V-8.41h1.413V-9.72H48.056v-1.561H46.449V-9.72H45.7v1.31h.752ZM56.58-9.72H54.973v3.476c0,1.014-.547,1.561-1.413,1.561a1.366,1.366,0,0,1-1.4-1.561V-9.72h-1.6v3.7a2.433,2.433,0,0,0,2.53,2.689,2.328,2.328,0,0,0,1.88-.877v.8H56.58Zm3.168,3.168c0-1.219.57-1.584,1.516-1.584h.422V-9.812A2.19,2.19,0,0,0,59.748-8.74v-.98h-1.6v6.313h1.6Zm5.721-1.96a1.4,1.4,0,0,1,1.5,1.356h-3A1.466,1.466,0,0,1,65.468-8.512Zm3,3.122H66.745a1.3,1.3,0,0,1-1.265.764,1.477,1.477,0,0,1-1.516-1.459h4.615a3.729,3.729,0,0,0,.046-.615,2.964,2.964,0,0,0-3.111-3.122,3.033,3.033,0,0,0-3.168,3.259A3.057,3.057,0,0,0,65.514-3.3,2.934,2.934,0,0,0,68.465-5.39Zm.912-1.2A3,3,0,0,0,72.26-3.3a2.386,2.386,0,0,0,2.074-1.037v.934h1.618V-11.84H74.334v3a2.59,2.59,0,0,0-2.063-.98A2.958,2.958,0,0,0,69.377-6.587Zm4.968.023A1.7,1.7,0,0,1,72.67-4.706a1.725,1.725,0,0,1-1.664-1.88A1.684,1.684,0,0,1,72.67-8.421,1.7,1.7,0,0,1,74.346-6.564Zm8.661-4.8H80.226v7.954h2.781c2.541,0,4.194-1.561,4.194-3.966A3.844,3.844,0,0,0,83.006-11.361Zm-1.185,6.6v-5.253h1.128A2.4,2.4,0,0,1,85.57-7.373a2.379,2.379,0,0,1-2.621,2.61Zm6.165-1.823A3,3,0,0,0,90.858-3.3a2.49,2.49,0,0,0,2.1-1.026v.923h1.607V-9.72H92.954v.9a2.5,2.5,0,0,0-2.085-1A2.956,2.956,0,0,0,87.986-6.587Zm4.968.023a1.7,1.7,0,0,1-1.675,1.857,1.725,1.725,0,0,1-1.664-1.88,1.684,1.684,0,0,1,1.664-1.835A1.7,1.7,0,0,1,92.954-6.564Zm3.419,1.2c0,1.447.809,1.96,2.017,1.96h1V-4.752h-.741c-.5,0-.672-.182-.672-.6V-8.41h1.413V-9.72H97.98v-1.561H96.373V-9.72h-.752v1.31h.752Zm3.761-1.219A3,3,0,0,0,103.005-3.3a2.49,2.49,0,0,0,2.1-1.026v.923h1.607V-9.72H105.1v.9a2.5,2.5,0,0,0-2.085-1A2.956,2.956,0,0,0,100.134-6.587Zm4.968.023a1.7,1.7,0,0,1-1.675,1.857,1.725,1.725,0,0,1-1.664-1.88,1.684,1.684,0,0,1,1.664-1.835A1.7,1.7,0,0,1,105.1-6.564Z" transform="translate(80.13 11.84)" fill="#fff"/>
        <g id="description-24px" transform="translate(70.831 90.198)">
          <path id="Path_6521" data-name="Path 6521" d="M0,0H18.767V18.767H0Z" fill="none"/>
          <path id="Path_6522" data-name="Path 6522" d="M11.82,2H5.564A1.562,1.562,0,0,0,4.008,3.564L4,16.075a1.562,1.562,0,0,0,1.556,1.564h9.391a1.568,1.568,0,0,0,1.564-1.564V6.692Zm1.564,12.511H7.128V12.947h6.256Zm0-3.128H7.128V9.82h6.256Zm-2.346-3.91v-4.3l4.3,4.3Z" transform="translate(-0.872 -0.436)" fill="#094144"/>
        </g>
        <g id="videocam-24px" transform="translate(184.731 84.946)">
          <path id="Path_6523" data-name="Path 6523" d="M0,0H24.019V24.019H0Z" fill="none"/>
          <path id="Path_6524" data-name="Path 6524" d="M17.011,10.5V7a1,1,0,0,0-1-1H4A1,1,0,0,0,3,7V17.009a1,1,0,0,0,1,1H16.01a1,1,0,0,0,1-1v-3.5l4,4V6.5Z" transform="translate(0.002 0.005)" fill="#094144"/>
        </g>
        <g id="question_answer-24px" transform="translate(108.583 63.039)">
          <path id="Path_6527" data-name="Path 6527" d="M0,0H20.629V20.629H0Z" fill="none"/>
          <path id="Path_6528" data-name="Path 6528" d="M18.332,5.438H16.613v7.736H5.438v1.719a.862.862,0,0,0,.86.86h9.455l3.438,3.438V6.3A.862.862,0,0,0,18.332,5.438ZM14.893,10.6V2.86a.862.862,0,0,0-.86-.86H2.86A.862.862,0,0,0,2,2.86V14.893l3.438-3.438h8.6A.862.862,0,0,0,14.893,10.6Z" transform="translate(-0.281 -0.281)" fill="#094144"/>
        </g>
        <g id="question_answer-24px-2" data-name="question_answer-24px" transform="translate(204.734 38.823)">
          <path id="Path_6527-2" data-name="Path 6527" d="M0,0H20.629V20.629H0Z" fill="none"/>
          <path id="Path_6528-2" data-name="Path 6528" d="M18.332,5.438H16.613v7.736H5.438v1.719a.862.862,0,0,0,.86.86h9.455l3.438,3.438V6.3A.862.862,0,0,0,18.332,5.438ZM14.893,10.6V2.86a.862.862,0,0,0-.86-.86H2.86A.862.862,0,0,0,2,2.86V14.893l3.438-3.438h8.6A.862.862,0,0,0,14.893,10.6Z" transform="translate(-0.281 -0.281)" fill="#094144"/>
        </g>
        <g id="Group_9258" data-name="Group 9258" transform="translate(12.777 170.088)">
          <rect id="Rectangle_320" data-name="Rectangle 320" width="227.279" height="35.611" rx="6" transform="translate(0 0)" fill="#36b37e"/>
          <path id="Path_6728" data-name="Path 6728" d="M1.58-2.38a1.6,1.6,0,0,0,.14.7,1.264,1.264,0,0,0,.39.475,1.663,1.663,0,0,0,.575.27,2.78,2.78,0,0,0,.7.085,2.264,2.264,0,0,0,.7-.095,1.416,1.416,0,0,0,.47-.245.885.885,0,0,0,.26-.345A1.033,1.033,0,0,0,4.9-1.93a.853.853,0,0,0-.185-.605A1.057,1.057,0,0,0,4.31-2.81a8.469,8.469,0,0,0-.885-.265Q2.92-3.2,2.18-3.4a2.669,2.669,0,0,1-.765-.315A1.825,1.825,0,0,1,.93-4.15a1.528,1.528,0,0,1-.255-.51A2.046,2.046,0,0,1,.6-5.21a1.858,1.858,0,0,1,.225-.935,2,2,0,0,1,.6-.655,2.617,2.617,0,0,1,.84-.385,3.681,3.681,0,0,1,.95-.125,3.736,3.736,0,0,1,1.055.145,2.6,2.6,0,0,1,.87.435,2.131,2.131,0,0,1,.6.715,2.113,2.113,0,0,1,.22.985H4.7a1.2,1.2,0,0,0-.47-.975A1.866,1.866,0,0,0,3.16-6.29a2.341,2.341,0,0,0-.45.045,1.43,1.43,0,0,0-.42.15.922.922,0,0,0-.315.285.77.77,0,0,0-.125.45.766.766,0,0,0,.235.6A1.522,1.522,0,0,0,2.7-4.44l.315.085.615.165.665.175q.325.085.465.125a2.084,2.084,0,0,1,.61.3,1.923,1.923,0,0,1,.435.435,1.8,1.8,0,0,1,.26.525,1.919,1.919,0,0,1,.085.56A2.02,2.02,0,0,1,5.9-1.045a2.079,2.079,0,0,1-.645.7,2.8,2.8,0,0,1-.91.395A4.353,4.353,0,0,1,3.31.17,4.28,4.28,0,0,1,2.16.02a2.692,2.692,0,0,1-.94-.46,2.251,2.251,0,0,1-.64-.8A2.647,2.647,0,0,1,.33-2.38ZM11.62,0H10.5V-.72h-.02a1.566,1.566,0,0,1-.625.625A1.7,1.7,0,0,1,9.01.14,1.9,1.9,0,0,1,7.535-.365,2.218,2.218,0,0,1,7.08-1.89V-5.17H8.22V-2a1.4,1.4,0,0,0,.26.96.947.947,0,0,0,.73.28,1.44,1.44,0,0,0,.6-.11,1.061,1.061,0,0,0,.39-.295,1.131,1.131,0,0,0,.215-.445,2.3,2.3,0,0,0,.065-.56v-3h1.14Zm1.2-5.17h1.07v1h.02a1.154,1.154,0,0,1,.2-.41,1.9,1.9,0,0,1,.35-.365,1.769,1.769,0,0,1,.455-.265,1.362,1.362,0,0,1,.51-.1,2.473,2.473,0,0,1,.275.01l.155.02v1.1q-.12-.02-.245-.035a2.056,2.056,0,0,0-.245-.015,1.31,1.31,0,0,0-.545.115,1.252,1.252,0,0,0-.445.34,1.666,1.666,0,0,0-.3.555,2.4,2.4,0,0,0-.11.76V0H12.82Zm3.01,0h1.24L18.38-1.2h.02l1.26-3.97h1.18L18.99,0H17.71Zm9.25,2.13a1.838,1.838,0,0,0-.115-.52A1.386,1.386,0,0,0,24.7-4a1.287,1.287,0,0,0-.4-.3,1.178,1.178,0,0,0-.525-.115,1.37,1.37,0,0,0-.545.105,1.246,1.246,0,0,0-.42.29,1.434,1.434,0,0,0-.28.435,1.518,1.518,0,0,0-.115.54Zm-2.66.75a1.986,1.986,0,0,0,.085.58,1.429,1.429,0,0,0,.255.49,1.229,1.229,0,0,0,.43.335,1.419,1.419,0,0,0,.62.125,1.369,1.369,0,0,0,.805-.215,1.271,1.271,0,0,0,.455-.645h1.08a2.15,2.15,0,0,1-.31.75,2.157,2.157,0,0,1-.53.555,2.288,2.288,0,0,1-.7.34A2.8,2.8,0,0,1,23.81.14a2.737,2.737,0,0,1-1.08-.2,2.233,2.233,0,0,1-.8-.56,2.376,2.376,0,0,1-.49-.86,3.494,3.494,0,0,1-.165-1.1,3.112,3.112,0,0,1,.175-1.045,2.675,2.675,0,0,1,.5-.87,2.391,2.391,0,0,1,.785-.6,2.381,2.381,0,0,1,1.04-.22,2.317,2.317,0,0,1,1.095.255,2.4,2.4,0,0,1,.805.675,2.733,2.733,0,0,1,.465.965A2.958,2.958,0,0,1,26.22-2.29Zm4.1-2.88h1.25l1.35,3.86h.02l1.31-3.86h1.19L29.63.28q-.14.35-.275.67a2.4,2.4,0,0,1-.33.565,1.426,1.426,0,0,1-.485.39,1.653,1.653,0,0,1-.74.145,5.188,5.188,0,0,1-.79-.06V1.03q.14.02.27.045a1.427,1.427,0,0,0,.27.025.929.929,0,0,0,.33-.05A.546.546,0,0,0,28.095.9.9.9,0,0,0,28.24.68a2.2,2.2,0,0,0,.11-.3l.13-.4Zm6.74,2.79a1.6,1.6,0,0,0,.14.7,1.264,1.264,0,0,0,.39.475,1.663,1.663,0,0,0,.575.27,2.78,2.78,0,0,0,.7.085,2.264,2.264,0,0,0,.7-.095,1.416,1.416,0,0,0,.47-.245.885.885,0,0,0,.26-.345,1.033,1.033,0,0,0,.08-.395.853.853,0,0,0-.185-.605,1.057,1.057,0,0,0-.4-.275,8.469,8.469,0,0,0-.885-.265Q34.6-3.2,33.86-3.4a2.669,2.669,0,0,1-.765-.315,1.825,1.825,0,0,1-.485-.435,1.528,1.528,0,0,1-.255-.51,2.046,2.046,0,0,1-.075-.55,1.858,1.858,0,0,1,.225-.935A2,2,0,0,1,33.1-6.8a2.617,2.617,0,0,1,.84-.385,3.681,3.681,0,0,1,.95-.125,3.736,3.736,0,0,1,1.055.145,2.6,2.6,0,0,1,.87.435,2.131,2.131,0,0,1,.6.715,2.113,2.113,0,0,1,.22.985H36.38a1.2,1.2,0,0,0-.47-.975,1.866,1.866,0,0,0-1.07-.285,2.341,2.341,0,0,0-.45.045,1.43,1.43,0,0,0-.42.15.922.922,0,0,0-.315.285.77.77,0,0,0-.125.45.766.766,0,0,0,.235.6,1.522,1.522,0,0,0,.615.325l.315.085.615.165.665.175q.325.085.465.125a2.084,2.084,0,0,1,.61.3,1.923,1.923,0,0,1,.435.435,1.8,1.8,0,0,1,.26.525,1.919,1.919,0,0,1,.085.56,2.02,2.02,0,0,1-.245,1.025,2.079,2.079,0,0,1-.645.7,2.8,2.8,0,0,1-.91.395A4.353,4.353,0,0,1,34.99.17,4.28,4.28,0,0,1,33.84.02a2.692,2.692,0,0,1-.94-.46,2.251,2.251,0,0,1-.64-.8,2.647,2.647,0,0,1-.25-1.145Zm9.05-.66a1.838,1.838,0,0,0-.115-.52A1.386,1.386,0,0,0,41.935-4a1.288,1.288,0,0,0-.4-.3,1.178,1.178,0,0,0-.525-.115,1.37,1.37,0,0,0-.545.105,1.246,1.246,0,0,0-.42.29,1.434,1.434,0,0,0-.28.435,1.517,1.517,0,0,0-.115.54Zm-2.66.75a1.986,1.986,0,0,0,.085.58,1.429,1.429,0,0,0,.255.49,1.229,1.229,0,0,0,.43.335,1.419,1.419,0,0,0,.62.125,1.369,1.369,0,0,0,.805-.215A1.271,1.271,0,0,0,42.3-1.62h1.08a2.15,2.15,0,0,1-.31.75,2.157,2.157,0,0,1-.53.555,2.288,2.288,0,0,1-.695.34A2.8,2.8,0,0,1,41.04.14a2.737,2.737,0,0,1-1.08-.2,2.233,2.233,0,0,1-.795-.56,2.376,2.376,0,0,1-.49-.86,3.494,3.494,0,0,1-.165-1.1,3.112,3.112,0,0,1,.175-1.045,2.675,2.675,0,0,1,.5-.87,2.391,2.391,0,0,1,.785-.6,2.381,2.381,0,0,1,1.04-.22,2.317,2.317,0,0,1,1.1.255,2.4,2.4,0,0,1,.805.675,2.733,2.733,0,0,1,.465.965A2.958,2.958,0,0,1,43.45-2.29Zm4.67-2.88H45.4v.76l.02.02a1.911,1.911,0,0,1,.68-.675,1.812,1.812,0,0,1,.93-.245,1.932,1.932,0,0,1,1.34.44,1.684,1.684,0,0,1,.49,1.32V0H47.72V-3.25a1.4,1.4,0,0,0-.26-.885.944.944,0,0,0-.75-.275,1.239,1.239,0,0,0-.52.105,1.128,1.128,0,0,0-.39.29,1.363,1.363,0,0,0-.25.435,1.553,1.553,0,0,0-.09.53V0H44.32Zm6.6,3.51a.859.859,0,0,0,.38.7,1.5,1.5,0,0,0,.79.2,3.051,3.051,0,0,0,.365-.025A1.588,1.588,0,0,0,52.84-.88a.724.724,0,0,0,.295-.2.492.492,0,0,0,.1-.355.5.5,0,0,0-.16-.36,1.109,1.109,0,0,0-.385-.225,3.73,3.73,0,0,0-.535-.145q-.3-.06-.61-.13a5.725,5.725,0,0,1-.615-.17,1.985,1.985,0,0,1-.53-.27,1.248,1.248,0,0,1-.375-.435,1.39,1.39,0,0,1-.14-.655,1.176,1.176,0,0,1,.2-.7,1.571,1.571,0,0,1,.52-.46,2.264,2.264,0,0,1,.7-.245,4.112,4.112,0,0,1,.735-.07,3.363,3.363,0,0,1,.765.085,2.079,2.079,0,0,1,.66.275,1.615,1.615,0,0,1,.49.495,1.713,1.713,0,0,1,.245.735H53.02a.71.71,0,0,0-.375-.55,1.556,1.556,0,0,0-.675-.14,2.415,2.415,0,0,0-.285.02,1.318,1.318,0,0,0-.31.075.652.652,0,0,0-.245.16.382.382,0,0,0-.1.275.435.435,0,0,0,.145.34,1.147,1.147,0,0,0,.38.215,3.73,3.73,0,0,0,.535.145q.3.06.62.13t.61.17a1.967,1.967,0,0,1,.535.27,1.312,1.312,0,0,1,.38.43,1.3,1.3,0,0,1,.145.64,1.391,1.391,0,0,1-.21.78,1.661,1.661,0,0,1-.545.52,2.479,2.479,0,0,1-.745.29,3.77,3.77,0,0,1-.81.09,3.525,3.525,0,0,1-.9-.11,2.109,2.109,0,0,1-.72-.335,1.619,1.619,0,0,1-.48-.56,1.781,1.781,0,0,1-.185-.8ZM59.79,0H58.67V-.72h-.02a1.566,1.566,0,0,1-.625.625A1.7,1.7,0,0,1,57.18.14a1.9,1.9,0,0,1-1.475-.505A2.218,2.218,0,0,1,55.25-1.89V-5.17h1.14V-2a1.4,1.4,0,0,0,.26.96.947.947,0,0,0,.73.28,1.44,1.44,0,0,0,.6-.11,1.061,1.061,0,0,0,.39-.295,1.131,1.131,0,0,0,.215-.445,2.3,2.3,0,0,0,.065-.56v-3h1.14Zm1.2-5.17h1.08v.72h.03a2.927,2.927,0,0,1,.28-.35,1.528,1.528,0,0,1,.335-.27,1.694,1.694,0,0,1,.425-.175,2.11,2.11,0,0,1,.55-.065,1.873,1.873,0,0,1,.875.21,1.188,1.188,0,0,1,.575.65,2.3,2.3,0,0,1,.67-.63,1.807,1.807,0,0,1,.95-.23,1.868,1.868,0,0,1,1.275.4,1.707,1.707,0,0,1,.455,1.34V0H67.35V-3.02q0-.31-.02-.565a1.154,1.154,0,0,0-.115-.44.654.654,0,0,0-.285-.285,1.127,1.127,0,0,0-.52-.1.965.965,0,0,0-.84.36,1.721,1.721,0,0,0-.26,1.02V0H64.17V-3.32a1.407,1.407,0,0,0-.195-.815.82.82,0,0,0-.715-.275,1.047,1.047,0,0,0-.425.09,1.059,1.059,0,0,0-.36.26,1.3,1.3,0,0,0-.25.42,1.6,1.6,0,0,0-.095.57V0H60.99ZM71.95-7.14h5.78v1.08H75.46V0H74.21V-6.06H71.95Zm8.89,4.1a1.839,1.839,0,0,0-.115-.52A1.385,1.385,0,0,0,80.465-4a1.287,1.287,0,0,0-.4-.3,1.178,1.178,0,0,0-.525-.115A1.37,1.37,0,0,0,79-4.3a1.246,1.246,0,0,0-.42.29,1.434,1.434,0,0,0-.28.435,1.518,1.518,0,0,0-.115.54Zm-2.66.75a1.986,1.986,0,0,0,.085.58,1.429,1.429,0,0,0,.255.49,1.229,1.229,0,0,0,.43.335,1.419,1.419,0,0,0,.62.125,1.369,1.369,0,0,0,.805-.215,1.271,1.271,0,0,0,.455-.645h1.08a2.15,2.15,0,0,1-.31.75,2.157,2.157,0,0,1-.53.555,2.288,2.288,0,0,1-.695.34A2.8,2.8,0,0,1,79.57.14a2.737,2.737,0,0,1-1.08-.2,2.233,2.233,0,0,1-.8-.56,2.376,2.376,0,0,1-.49-.86,3.494,3.494,0,0,1-.165-1.1,3.112,3.112,0,0,1,.175-1.045,2.675,2.675,0,0,1,.5-.87,2.391,2.391,0,0,1,.785-.6,2.381,2.381,0,0,1,1.04-.22,2.317,2.317,0,0,1,1.1.255,2.4,2.4,0,0,1,.805.675,2.733,2.733,0,0,1,.465.965A2.958,2.958,0,0,1,81.98-2.29Zm6.06-.43L82.45-5.17h1.38l1.08,1.59,1.13-1.59h1.32L85.6-2.78,87.58,0H86.21L84.9-1.91,83.63,0H82.29ZM87.7-5.17h.86V-6.72H89.7v1.55h1.03v.85H89.7v2.76a2.752,2.752,0,0,0,.015.31.535.535,0,0,0,.07.22A.335.335,0,0,0,89.95-.9a.812.812,0,0,0,.3.045q.12,0,.24,0a1.192,1.192,0,0,0,.24-.035v.88l-.37.04a3.349,3.349,0,0,1-.37.02,2.524,2.524,0,0,1-.725-.085.968.968,0,0,1-.43-.25.863.863,0,0,1-.21-.415,3.122,3.122,0,0,1-.065-.57V-4.32H87.7Zm8.7-1.97h1.33L100.48,0H99.14l-.67-1.89H95.62L94.95,0H93.66Zm-.44,4.3h2.18L97.07-5.91h-.03ZM101-5.17h1.08v.76l.02.02a1.911,1.911,0,0,1,.68-.675,1.812,1.812,0,0,1,.93-.245,1.932,1.932,0,0,1,1.34.44,1.684,1.684,0,0,1,.49,1.32V0H104.4V-3.25a1.4,1.4,0,0,0-.26-.885.944.944,0,0,0-.75-.275,1.239,1.239,0,0,0-.52.105,1.128,1.128,0,0,0-.39.29,1.363,1.363,0,0,0-.25.435,1.553,1.553,0,0,0-.09.53V0H101Zm10.07,4.02a.6.6,0,0,0,.055.3.232.232,0,0,0,.215.09h.12a.747.747,0,0,0,.16-.02V.01q-.06.02-.155.045T111.27.1q-.1.02-.2.03t-.17.01a1.1,1.1,0,0,1-.58-.14.7.7,0,0,1-.3-.49,2.016,2.016,0,0,1-.835.48,3.288,3.288,0,0,1-.955.15,2.342,2.342,0,0,1-.67-.1A1.758,1.758,0,0,1,107-.235a1.342,1.342,0,0,1-.39-.47,1.448,1.448,0,0,1-.145-.665,1.536,1.536,0,0,1,.175-.78,1.3,1.3,0,0,1,.46-.47,2.077,2.077,0,0,1,.64-.245q.355-.075.715-.115a5.85,5.85,0,0,1,.59-.085,2.769,2.769,0,0,0,.495-.085.758.758,0,0,0,.34-.185A.509.509,0,0,0,110-3.71a.584.584,0,0,0-.105-.36.7.7,0,0,0-.26-.215,1.123,1.123,0,0,0-.345-.1,2.765,2.765,0,0,0-.36-.025,1.432,1.432,0,0,0-.79.2.78.78,0,0,0-.35.62h-1.14a1.716,1.716,0,0,1,.24-.83,1.658,1.658,0,0,1,.535-.53,2.189,2.189,0,0,1,.735-.28,4.376,4.376,0,0,1,.84-.08,3.539,3.539,0,0,1,.75.08,2.13,2.13,0,0,1,.665.26,1.44,1.44,0,0,1,.475.465,1.276,1.276,0,0,1,.18.695Zm-1.14-1.44a1.384,1.384,0,0,1-.64.205q-.38.035-.76.105a2.437,2.437,0,0,0-.35.085,1.054,1.054,0,0,0-.3.15.658.658,0,0,0-.2.25.855.855,0,0,0-.075.375.478.478,0,0,0,.11.32.8.8,0,0,0,.265.2,1.227,1.227,0,0,0,.34.105,2.111,2.111,0,0,0,.335.03,1.857,1.857,0,0,0,.41-.05,1.364,1.364,0,0,0,.415-.17,1.093,1.093,0,0,0,.325-.305.772.772,0,0,0,.13-.455Zm2.4-4.55h1.14V0h-1.14Zm1.81,1.97h1.25l1.35,3.86h.02l1.31-3.86h1.19L117.25.28q-.14.35-.275.67a2.4,2.4,0,0,1-.33.565,1.426,1.426,0,0,1-.485.39,1.653,1.653,0,0,1-.74.145,5.188,5.188,0,0,1-.79-.06V1.03q.14.02.27.045a1.427,1.427,0,0,0,.27.025.929.929,0,0,0,.33-.05A.546.546,0,0,0,115.715.9.9.9,0,0,0,115.86.68a2.2,2.2,0,0,0,.11-.3l.13-.4Zm5.24,0h.86V-6.72h1.14v1.55h1.03v.85h-1.03v2.76a2.752,2.752,0,0,0,.015.31.535.535,0,0,0,.07.22.335.335,0,0,0,.165.135.812.812,0,0,0,.3.045q.12,0,.24,0a1.192,1.192,0,0,0,.24-.035v.88l-.37.04a3.349,3.349,0,0,1-.37.02,2.524,2.524,0,0,1-.725-.085.968.968,0,0,1-.43-.25.863.863,0,0,1-.21-.415,3.122,3.122,0,0,1-.065-.57V-4.32h-.86Zm3.88-1.97h1.14v1.08h-1.14Zm0,1.97h1.14V0h-1.14Zm5.87,1.73a1.069,1.069,0,0,0-.385-.725,1.256,1.256,0,0,0-.795-.245,1.639,1.639,0,0,0-.47.075,1.115,1.115,0,0,0-.46.28,1.57,1.57,0,0,0-.35.57,2.714,2.714,0,0,0-.14.955,2.8,2.8,0,0,0,.075.64,1.75,1.75,0,0,0,.24.57,1.3,1.3,0,0,0,.425.4,1.209,1.209,0,0,0,.63.155,1.147,1.147,0,0,0,.825-.31,1.441,1.441,0,0,0,.4-.87h1.14A2.5,2.5,0,0,1,129.505-.4,2.334,2.334,0,0,1,127.9.14a2.643,2.643,0,0,1-1.075-.2,2.279,2.279,0,0,1-.785-.56,2.378,2.378,0,0,1-.485-.845,3.3,3.3,0,0,1-.165-1.06,3.622,3.622,0,0,1,.16-1.09,2.5,2.5,0,0,1,.48-.885,2.246,2.246,0,0,1,.8-.59,2.683,2.683,0,0,1,1.115-.215,3.116,3.116,0,0,1,.855.115,2.252,2.252,0,0,1,.72.345,1.836,1.836,0,0,1,.515.58,1.986,1.986,0,0,1,.24.83Zm2.93,1.78a.859.859,0,0,0,.38.7,1.5,1.5,0,0,0,.79.2,3.051,3.051,0,0,0,.365-.025,1.589,1.589,0,0,0,.385-.095.724.724,0,0,0,.295-.2.492.492,0,0,0,.1-.355.5.5,0,0,0-.16-.36,1.109,1.109,0,0,0-.385-.225,3.73,3.73,0,0,0-.535-.145q-.3-.06-.61-.13a5.726,5.726,0,0,1-.615-.17,1.985,1.985,0,0,1-.53-.27,1.248,1.248,0,0,1-.375-.435,1.39,1.39,0,0,1-.14-.655,1.176,1.176,0,0,1,.205-.7,1.571,1.571,0,0,1,.52-.46,2.264,2.264,0,0,1,.7-.245,4.112,4.112,0,0,1,.735-.07,3.363,3.363,0,0,1,.765.085,2.079,2.079,0,0,1,.66.275,1.615,1.615,0,0,1,.49.495,1.714,1.714,0,0,1,.245.735h-1.19a.71.71,0,0,0-.375-.55,1.556,1.556,0,0,0-.675-.14,2.415,2.415,0,0,0-.285.02,1.318,1.318,0,0,0-.31.075.652.652,0,0,0-.245.16.382.382,0,0,0-.1.275.435.435,0,0,0,.145.34,1.148,1.148,0,0,0,.38.215,3.73,3.73,0,0,0,.535.145q.3.06.62.13t.61.17a1.967,1.967,0,0,1,.535.27,1.312,1.312,0,0,1,.38.43,1.3,1.3,0,0,1,.145.64,1.391,1.391,0,0,1-.21.78,1.66,1.66,0,0,1-.545.52,2.479,2.479,0,0,1-.745.29,3.77,3.77,0,0,1-.81.09,3.525,3.525,0,0,1-.9-.11,2.109,2.109,0,0,1-.72-.335,1.618,1.618,0,0,1-.48-.56,1.781,1.781,0,0,1-.185-.8Zm8.09-.72a1.6,1.6,0,0,0,.14.7,1.264,1.264,0,0,0,.39.475,1.663,1.663,0,0,0,.575.27,2.78,2.78,0,0,0,.705.085,2.264,2.264,0,0,0,.7-.095,1.416,1.416,0,0,0,.47-.245.885.885,0,0,0,.26-.345,1.033,1.033,0,0,0,.08-.395.853.853,0,0,0-.185-.605,1.057,1.057,0,0,0-.4-.275A8.471,8.471,0,0,0,142-3.075Q141.49-3.2,140.75-3.4a2.67,2.67,0,0,1-.765-.315,1.825,1.825,0,0,1-.485-.435,1.528,1.528,0,0,1-.255-.51,2.045,2.045,0,0,1-.075-.55,1.858,1.858,0,0,1,.225-.935,2,2,0,0,1,.6-.655,2.616,2.616,0,0,1,.84-.385,3.681,3.681,0,0,1,.95-.125,3.736,3.736,0,0,1,1.055.145,2.6,2.6,0,0,1,.87.435,2.131,2.131,0,0,1,.6.715,2.113,2.113,0,0,1,.22.985h-1.25a1.2,1.2,0,0,0-.47-.975,1.866,1.866,0,0,0-1.07-.285,2.341,2.341,0,0,0-.45.045,1.43,1.43,0,0,0-.42.15.922.922,0,0,0-.315.285.77.77,0,0,0-.125.45.766.766,0,0,0,.235.6,1.522,1.522,0,0,0,.615.325l.315.085.615.165.665.175q.325.085.465.125a2.084,2.084,0,0,1,.61.3,1.923,1.923,0,0,1,.435.435,1.8,1.8,0,0,1,.26.525,1.919,1.919,0,0,1,.085.56,2.02,2.02,0,0,1-.245,1.025,2.079,2.079,0,0,1-.645.7,2.8,2.8,0,0,1-.91.395,4.353,4.353,0,0,1-1.04.125,4.28,4.28,0,0,1-1.15-.15,2.692,2.692,0,0,1-.94-.46,2.251,2.251,0,0,1-.64-.8,2.647,2.647,0,0,1-.25-1.145ZM148.02.14a2.815,2.815,0,0,1-1.1-.2,2.357,2.357,0,0,1-.82-.565,2.417,2.417,0,0,1-.51-.86,3.31,3.31,0,0,1-.175-1.1,3.279,3.279,0,0,1,.175-1.09,2.417,2.417,0,0,1,.51-.86,2.357,2.357,0,0,1,.82-.565,2.815,2.815,0,0,1,1.1-.205,2.815,2.815,0,0,1,1.1.205,2.357,2.357,0,0,1,.82.565,2.417,2.417,0,0,1,.51.86,3.279,3.279,0,0,1,.175,1.09,3.31,3.31,0,0,1-.175,1.1,2.417,2.417,0,0,1-.51.86,2.357,2.357,0,0,1-.82.565A2.815,2.815,0,0,1,148.02.14Zm0-.9a1.308,1.308,0,0,0,.66-.16,1.391,1.391,0,0,0,.46-.42,1.833,1.833,0,0,0,.265-.585,2.617,2.617,0,0,0,.085-.665,2.637,2.637,0,0,0-.085-.66,1.769,1.769,0,0,0-.265-.585,1.413,1.413,0,0,0-.46-.415,1.308,1.308,0,0,0-.66-.16,1.308,1.308,0,0,0-.66.16,1.413,1.413,0,0,0-.46.415,1.769,1.769,0,0,0-.265.585,2.637,2.637,0,0,0-.085.66,2.617,2.617,0,0,0,.085.665,1.833,1.833,0,0,0,.265.585,1.391,1.391,0,0,0,.46.42A1.308,1.308,0,0,0,148.02-.76Zm3.05-4.41h.85V-5.6a2.205,2.205,0,0,1,.12-.8,1.129,1.129,0,0,1,.32-.47,1.054,1.054,0,0,1,.455-.22,2.532,2.532,0,0,1,.535-.055,3.264,3.264,0,0,1,.8.07v.89a1.632,1.632,0,0,0-.235-.045,2.515,2.515,0,0,0-.295-.015.7.7,0,0,0-.4.11.482.482,0,0,0-.165.43v.53h.97v.85h-.97V0h-1.14V-4.32h-.85Zm3.14,0h.86V-6.72h1.14v1.55h1.03v.85h-1.03v2.76a2.754,2.754,0,0,0,.015.31.535.535,0,0,0,.07.22.335.335,0,0,0,.165.135.812.812,0,0,0,.3.045q.12,0,.24,0a1.192,1.192,0,0,0,.24-.035v.88l-.37.04a3.35,3.35,0,0,1-.37.02,2.524,2.524,0,0,1-.725-.085.968.968,0,0,1-.43-.25.863.863,0,0,1-.21-.415,3.123,3.123,0,0,1-.065-.57V-4.32h-.86Zm3.38,0h1.21l1.01,3.86h.02l.97-3.86h1.15l.93,3.86h.02l1.05-3.86h1.16L163.49,0h-1.17l-.96-3.84h-.02L160.39,0h-1.2Zm12.58,4.02a.6.6,0,0,0,.055.3.232.232,0,0,0,.215.09h.12a.747.747,0,0,0,.16-.02V.01q-.06.02-.155.045T170.37.1q-.1.02-.2.03T170,.14a1.1,1.1,0,0,1-.58-.14.7.7,0,0,1-.3-.49,2.016,2.016,0,0,1-.835.48,3.288,3.288,0,0,1-.955.15,2.342,2.342,0,0,1-.67-.1,1.758,1.758,0,0,1-.565-.28,1.342,1.342,0,0,1-.39-.47,1.448,1.448,0,0,1-.145-.665,1.536,1.536,0,0,1,.175-.78,1.3,1.3,0,0,1,.46-.47,2.078,2.078,0,0,1,.64-.245q.355-.075.715-.115a5.85,5.85,0,0,1,.59-.085,2.769,2.769,0,0,0,.5-.085.758.758,0,0,0,.34-.185.509.509,0,0,0,.125-.375.584.584,0,0,0-.1-.36.7.7,0,0,0-.26-.215,1.123,1.123,0,0,0-.345-.1,2.765,2.765,0,0,0-.36-.025,1.432,1.432,0,0,0-.79.2.78.78,0,0,0-.35.62h-1.14a1.716,1.716,0,0,1,.24-.83,1.658,1.658,0,0,1,.535-.53,2.189,2.189,0,0,1,.735-.28,4.376,4.376,0,0,1,.84-.08,3.539,3.539,0,0,1,.75.08,2.13,2.13,0,0,1,.665.26,1.44,1.44,0,0,1,.475.465,1.276,1.276,0,0,1,.18.695Zm-1.14-1.44a1.384,1.384,0,0,1-.64.205q-.38.035-.76.105a2.437,2.437,0,0,0-.35.085,1.054,1.054,0,0,0-.3.15.658.658,0,0,0-.205.25.855.855,0,0,0-.075.375.478.478,0,0,0,.11.32.8.8,0,0,0,.265.2,1.227,1.227,0,0,0,.34.105,2.111,2.111,0,0,0,.335.03,1.857,1.857,0,0,0,.41-.05,1.364,1.364,0,0,0,.415-.17,1.093,1.093,0,0,0,.325-.305.772.772,0,0,0,.13-.455Zm2.37-2.58h1.07v1h.02a1.154,1.154,0,0,1,.195-.41,1.9,1.9,0,0,1,.35-.365,1.769,1.769,0,0,1,.455-.265,1.362,1.362,0,0,1,.51-.1,2.473,2.473,0,0,1,.275.01l.155.02v1.1q-.12-.02-.245-.035a2.055,2.055,0,0,0-.245-.015,1.31,1.31,0,0,0-.545.115,1.252,1.252,0,0,0-.445.34,1.666,1.666,0,0,0-.3.555,2.4,2.4,0,0,0-.11.76V0H171.4Zm6.89,2.13a1.838,1.838,0,0,0-.115-.52,1.386,1.386,0,0,0-.26-.435,1.288,1.288,0,0,0-.4-.3,1.178,1.178,0,0,0-.525-.115,1.37,1.37,0,0,0-.545.105,1.246,1.246,0,0,0-.42.29,1.435,1.435,0,0,0-.28.435,1.518,1.518,0,0,0-.115.54Zm-2.66.75a1.986,1.986,0,0,0,.085.58,1.429,1.429,0,0,0,.255.49,1.229,1.229,0,0,0,.43.335,1.419,1.419,0,0,0,.62.125,1.369,1.369,0,0,0,.8-.215,1.271,1.271,0,0,0,.455-.645h1.08a2.149,2.149,0,0,1-.31.75,2.157,2.157,0,0,1-.53.555,2.288,2.288,0,0,1-.7.34,2.8,2.8,0,0,1-.8.115,2.737,2.737,0,0,1-1.08-.2,2.232,2.232,0,0,1-.795-.56,2.376,2.376,0,0,1-.49-.86,3.494,3.494,0,0,1-.165-1.1,3.112,3.112,0,0,1,.175-1.045,2.675,2.675,0,0,1,.5-.87,2.391,2.391,0,0,1,.785-.6,2.381,2.381,0,0,1,1.04-.22,2.317,2.317,0,0,1,1.1.255,2.4,2.4,0,0,1,.8.675,2.733,2.733,0,0,1,.465.965,2.958,2.958,0,0,1,.075,1.125Z" transform="translate(21.636 21.672)" fill="#fff"/>
        </g>
        <path id="Path_6203" data-name="Path 6203" d="M0,0H9.044l.721,2.678L9.044,5.45H0L.637,2.678Z" transform="translate(95.77 158.68) rotate(90)" fill="#094144"/>
        <path id="Path_6531" data-name="Path 6531" d="M0,0H9.044l.721,2.678L9.044,5.45H0L.637,2.678Z" transform="translate(119.151 158.68) rotate(90)" fill="#094144"/>
        <path id="Path_6532" data-name="Path 6532" d="M0,0H9.044l.721,2.678L9.044,5.45H0L.637,2.678Z" transform="translate(142.99 145.859) rotate(90)" fill="#094144"/>
        <path id="Path_6537" data-name="Path 6537" d="M0,0H9.044l.721,2.678L9.044,5.45H0L.637,2.678Z" transform="translate(136.25 210.972) rotate(90)" fill="#fff"/>
        <path id="Path_6540" data-name="Path 6540" d="M0,0H9.044l.721,2.678L9.044,5.45H0L.637,2.678Z" transform="translate(136.25 222.567) rotate(90)" fill="#fff"/>
        <path id="Path_6533" data-name="Path 6533" d="M0,0H9.044l.721,2.678L9.044,5.45H0L.637,2.678Z" transform="translate(163.537 158.68) rotate(90)" fill="#094144"/>
        <path id="Path_6534" data-name="Path 6534" d="M0,0H9.044l.721,2.678L9.044,5.45H0L.637,2.678Z" transform="translate(182.803 158.68) rotate(90)" fill="#094144"/>
        <g transform="matrix(1, 0, 0, 1, -81, -43.24)" filter="url(#Path_6611)">
          <path id="Path_6611-2" data-name="Path 6611" d="M21.367,0A21.367,21.367,0,1,1,0,21.367,21.367,21.367,0,0,1,21.367,0Z" transform="translate(194.57 334.29)" fill="#36b37e"/>
        </g>
        <path id="Path_6612" data-name="Path 6612" d="M3.606-4.585,1.692-10.118H.2l2.553,6.96h1.7L7-10.118H5.511ZM7.475-5.941A2.621,2.621,0,0,0,9.988-3.069a2.179,2.179,0,0,0,1.835-.9v.808h1.406V-8.683H11.822v.788A2.185,2.185,0,0,0,10-8.772,2.587,2.587,0,0,0,7.475-5.941Zm4.347.02A1.487,1.487,0,0,1,10.357-4.3,1.51,1.51,0,0,1,8.9-5.941a1.473,1.473,0,0,1,1.456-1.605A1.487,1.487,0,0,1,11.822-5.921Zm2.772,2.762h1.4v-7.379h-1.4Zm7.987-5.524H21.175v3.041c0,.887-.479,1.366-1.236,1.366a1.2,1.2,0,0,1-1.226-1.366V-8.683h-1.4v3.241A2.129,2.129,0,0,0,19.53-3.089a2.037,2.037,0,0,0,1.645-.768v.7h1.406ZM23.6-5.941a2.621,2.621,0,0,0,2.513,2.872,2.179,2.179,0,0,0,1.835-.9v.808h1.406V-8.683H27.946v.788a2.184,2.184,0,0,0-1.825-.877A2.587,2.587,0,0,0,23.6-5.941Zm4.347.02A1.487,1.487,0,0,1,26.48-4.3a1.51,1.51,0,0,1-1.456-1.645A1.473,1.473,0,0,1,26.48-7.546,1.487,1.487,0,0,1,27.946-5.921Zm4.168-1.954v-2.662h-1.4v7.379h1.4v-.788a2.175,2.175,0,0,0,1.825.877,2.617,2.617,0,0,0,2.523-2.872,2.581,2.581,0,0,0-2.523-2.832A2.153,2.153,0,0,0,32.114-7.875Zm2.922,1.934A1.511,1.511,0,0,1,33.569-4.3a1.491,1.491,0,0,1-1.456-1.625,1.491,1.491,0,0,1,1.456-1.625A1.475,1.475,0,0,1,35.035-5.941Zm2.443,2.782h1.4v-7.379h-1.4Zm5.145-4.467a1.227,1.227,0,0,1,1.316,1.187H41.317A1.283,1.283,0,0,1,42.623-7.626Zm2.622,2.732H43.74a1.138,1.138,0,0,1-1.107.668A1.292,1.292,0,0,1,41.307-5.5h4.038a3.263,3.263,0,0,0,.04-.538,2.593,2.593,0,0,0-2.722-2.732,2.654,2.654,0,0,0-2.772,2.852,2.675,2.675,0,0,0,2.772,2.852A2.567,2.567,0,0,0,45.246-4.894Zm3.53,1.735h1.4V-8.683h-1.4Zm.708-6.182a.825.825,0,0,0,.858-.818.825.825,0,0,0-.858-.818.819.819,0,0,0-.858.818A.819.819,0,0,0,49.483-9.341Zm5.933,6.182h1.4V-6.4a2.125,2.125,0,0,0-2.2-2.363,2.063,2.063,0,0,0-1.665.768v-.688h-1.4v5.524h1.4V-6.21A1.2,1.2,0,0,1,54.19-7.576,1.2,1.2,0,0,1,55.416-6.21Zm7.01-1.575c-.04-2.024-3.1-1.4-3.1-2.4,0-.319.269-.528.788-.528a.823.823,0,0,1,.927.718h1.336a1.979,1.979,0,0,0-2.224-1.825c-1.366,0-2.184.738-2.184,1.655,0,2.024,3.121,1.4,3.121,2.383,0,.319-.3.568-.848.568a.917.917,0,0,1-1-.738H57.839a2.179,2.179,0,0,0,2.413,1.835C61.6-3.069,62.426-3.787,62.426-4.734Zm1.147,1.575h1.4V-8.683h-1.4Zm.708-6.182a.825.825,0,0,0,.858-.818.825.825,0,0,0-.858-.818.819.819,0,0,0-.858.818A.819.819,0,0,0,64.28-9.341Zm1.705,3.4a2.623,2.623,0,0,0,2.523,2.872,2.179,2.179,0,0,0,1.825-.907v.858a1.292,1.292,0,0,1-1.366,1.466,1.3,1.3,0,0,1-1.356-.828H66.225c.14,1.266,1.226,2.044,2.782,2.044a2.525,2.525,0,0,0,2.732-2.682V-8.683H70.333v.788a2.161,2.161,0,0,0-1.825-.877A2.587,2.587,0,0,0,65.985-5.941Zm4.347.02A1.487,1.487,0,0,1,68.867-4.3a1.51,1.51,0,0,1-1.456-1.645,1.473,1.473,0,0,1,1.456-1.605A1.487,1.487,0,0,1,70.333-5.921ZM73.1-3.159h1.4V-6.21a1.2,1.2,0,0,1,1.246-1.366A1.2,1.2,0,0,1,76.974-6.21v3.051h1.4V-6.4a2.109,2.109,0,0,0-2.154-2.363,2.123,2.123,0,0,0-1.715.768v-2.543H73.1Zm6.81-1.715c0,1.266.708,1.715,1.765,1.715h.877V-4.335h-.648c-.439,0-.588-.16-.588-.528V-7.536h1.236V-8.683H81.321v-1.366H79.915v1.366h-.658v1.147h.658Zm7.937.14c-.04-2.024-3.1-1.4-3.1-2.4,0-.319.269-.528.788-.528a.823.823,0,0,1,.927.718H87.8a1.979,1.979,0,0,0-2.224-1.825c-1.366,0-2.184.738-2.184,1.655,0,2.024,3.121,1.4,3.121,2.383,0,.319-.3.568-.848.568a.917.917,0,0,1-1-.738H83.265a2.179,2.179,0,0,0,2.413,1.835C87.025-3.069,87.852-3.787,87.852-4.734Z" transform="translate(85.389 367.575)" fill="#fff"/>
        <g id="wallpaper-24px" transform="translate(125.147 302.617)">
          <path id="Path_6525" data-name="Path 6525" d="M0,0H19.581V19.581H0Z" fill="none"/>
          <path id="Path_6526" data-name="Path 6526" d="M3.632,3.632H9.343V2H3.632A1.637,1.637,0,0,0,2,3.632V9.343H3.632Zm4.9,7.343L5.264,15.054h9.791l-2.448-3.264L10.95,14ZM14.238,7.3a1.224,1.224,0,1,0-1.224,1.224A1.222,1.222,0,0,0,14.238,7.3ZM16.686,2H10.975V3.632h5.711V9.343h1.632V3.632A1.637,1.637,0,0,0,16.686,2Zm0,14.686H10.975v1.632h5.711a1.637,1.637,0,0,0,1.632-1.632V10.975H16.686ZM3.632,10.975H2v5.711a1.637,1.637,0,0,0,1.632,1.632H9.343V16.686H3.632Z" transform="translate(-0.368 -0.368)" fill="#fff"/>
        </g>
        <g id="Group_9278" data-name="Group 9278" transform="translate(76.333 225.928)">
          <g id="Group_9273" data-name="Group 9273" transform="translate(0 0)">
            <g id="Group_6994" data-name="Group 6994" transform="translate(0 0)">
              <rect id="Rectangle_3710" data-name="Rectangle 3710" width="109.309" height="114.886" rx="8" fill="#fff"/>
            </g>
            <path id="Path_5811" data-name="Path 5811" d="M1.814,0H42.931a1.9,1.9,0,0,1,1.814,1.974v13.16a1.9,1.9,0,0,1-1.814,1.974H1.814A1.9,1.9,0,0,1,0,15.134V1.974A1.9,1.9,0,0,1,1.814,0Z" transform="translate(9.126 90.641)" fill="#edf5fe"/>
            <path id="Path_6431" data-name="Path 6431" d="M6.324-5.8V-10H5.449v4.2a1.864,1.864,0,0,1-.438,1.34A1.687,1.687,0,0,1,3.735-4a1.867,1.867,0,0,1-1.354-.456,1.785,1.785,0,0,1-.47-1.34V-10H1.036v4.2A2.38,2.38,0,0,0,1.75-3.874a2.983,2.983,0,0,0,1.985.6A2.7,2.7,0,0,0,5.651-3.9,2.476,2.476,0,0,0,6.324-5.8Zm1.75.875H7.291a1.723,1.723,0,0,0,.184.751,1.386,1.386,0,0,0,.442.5,1.853,1.853,0,0,0,.636.272,3.35,3.35,0,0,0,.755.083,3.869,3.869,0,0,0,.723-.069,1.964,1.964,0,0,0,.654-.244,1.4,1.4,0,0,0,.47-.461,1.327,1.327,0,0,0,.18-.719,1.123,1.123,0,0,0-.134-.571,1.193,1.193,0,0,0-.35-.382,1.877,1.877,0,0,0-.5-.244,5.88,5.88,0,0,0-.576-.157q-.276-.064-.553-.124a3.189,3.189,0,0,1-.5-.147,1.14,1.14,0,0,1-.364-.221.441.441,0,0,1-.143-.336.465.465,0,0,1,.092-.3.659.659,0,0,1,.24-.184,1.194,1.194,0,0,1,.327-.1A2.33,2.33,0,0,1,9.235-7.6a1.778,1.778,0,0,1,.382.041,1.172,1.172,0,0,1,.345.134.784.784,0,0,1,.258.244.793.793,0,0,1,.12.382h.783a1.749,1.749,0,0,0-.184-.723,1.24,1.24,0,0,0-.419-.461,1.726,1.726,0,0,0-.6-.24,3.76,3.76,0,0,0-.746-.069,2.63,2.63,0,0,0-.631.078,1.9,1.9,0,0,0-.571.24,1.318,1.318,0,0,0-.415.419,1.141,1.141,0,0,0-.161.617,1.041,1.041,0,0,0,.23.719,1.554,1.554,0,0,0,.576.4,3.9,3.9,0,0,0,.751.221q.405.078.751.175a1.96,1.96,0,0,1,.576.253.521.521,0,0,1,.23.461.577.577,0,0,1-.111.364.7.7,0,0,1-.281.216,1.418,1.418,0,0,1-.373.1A2.867,2.867,0,0,1,9.355-4a2.321,2.321,0,0,1-.465-.046A1.305,1.305,0,0,1,8.484-4.2a.833.833,0,0,1-.29-.286A.881.881,0,0,1,8.074-4.92Zm8.346,1.483a1.108,1.108,0,0,1-.562.12.674.674,0,0,1-.484-.17.741.741,0,0,1-.18-.557,1.873,1.873,0,0,1-.751.557,2.482,2.482,0,0,1-.926.17,2.48,2.48,0,0,1-.613-.074,1.424,1.424,0,0,1-.5-.23,1.105,1.105,0,0,1-.336-.41,1.379,1.379,0,0,1-.124-.613,1.4,1.4,0,0,1,.138-.663,1.206,1.206,0,0,1,.364-.419,1.667,1.667,0,0,1,.516-.244q.29-.083.594-.138.322-.064.613-.1a3.413,3.413,0,0,0,.511-.092.852.852,0,0,0,.35-.175.427.427,0,0,0,.129-.336.782.782,0,0,0-.1-.415.663.663,0,0,0-.249-.24,1.011,1.011,0,0,0-.341-.111A2.574,2.574,0,0,0,14.1-7.6a1.656,1.656,0,0,0-.829.189.8.8,0,0,0-.359.714h-.783a1.691,1.691,0,0,1,.184-.746,1.4,1.4,0,0,1,.442-.493,1.855,1.855,0,0,1,.631-.272,3.333,3.333,0,0,1,.76-.083,4.458,4.458,0,0,1,.64.046,1.673,1.673,0,0,1,.576.189,1.1,1.1,0,0,1,.415.4,1.282,1.282,0,0,1,.157.672v2.45a1.833,1.833,0,0,0,.032.405Q16-4,16.181-4a.775.775,0,0,0,.24-.046ZM15.149-5.878a.975.975,0,0,1-.387.161q-.24.051-.5.083t-.53.074a1.948,1.948,0,0,0-.479.134.871.871,0,0,0-.345.263.735.735,0,0,0-.134.465.637.637,0,0,0,.078.327.653.653,0,0,0,.2.216.85.85,0,0,0,.29.12,1.61,1.61,0,0,0,.35.037,1.855,1.855,0,0,0,.663-.106,1.4,1.4,0,0,0,.451-.267,1.054,1.054,0,0,0,.258-.35.885.885,0,0,0,.083-.355ZM17.176-10v6.578h.783v-.636h.018A1.261,1.261,0,0,0,18.3-3.7a1.674,1.674,0,0,0,.4.226,2.175,2.175,0,0,0,.428.12,2.354,2.354,0,0,0,.392.037,2.212,2.212,0,0,0,.953-.193,1.911,1.911,0,0,0,.682-.53,2.256,2.256,0,0,0,.405-.788,3.36,3.36,0,0,0,.134-.958,3.256,3.256,0,0,0-.138-.958,2.421,2.421,0,0,0-.41-.8,1.958,1.958,0,0,0-.682-.548,2.148,2.148,0,0,0-.963-.2,2.27,2.27,0,0,0-.912.18,1.172,1.172,0,0,0-.608.576h-.018V-10Zm3.685,4.155a3.133,3.133,0,0,1-.074.682,1.8,1.8,0,0,1-.24.59,1.259,1.259,0,0,1-.438.415A1.339,1.339,0,0,1,19.433-4a1.453,1.453,0,0,1-.691-.152,1.341,1.341,0,0,1-.465-.4,1.676,1.676,0,0,1-.263-.576,2.745,2.745,0,0,1-.083-.677,2.762,2.762,0,0,1,.078-.654,1.714,1.714,0,0,1,.253-.576,1.348,1.348,0,0,1,.451-.41,1.345,1.345,0,0,1,.672-.157,1.4,1.4,0,0,1,.659.147,1.309,1.309,0,0,1,.461.4,1.753,1.753,0,0,1,.267.567A2.435,2.435,0,0,1,20.861-5.841Zm2.579-3.2V-10h-.783v.958Zm-.783.857v4.763h.783V-8.181ZM24.7-10v6.578h.783V-10Zm2.828.958V-10h-.783v.958Zm-.783.857v4.763h.783V-8.181Zm3.086,0V-9.609h-.783v1.428H28.24v.691h.811v3.031a1.81,1.81,0,0,0,.064.534.65.65,0,0,0,.2.313.765.765,0,0,0,.35.152,2.812,2.812,0,0,0,.521.041h.6v-.691h-.359a2.612,2.612,0,0,1-.3-.014.387.387,0,0,1-.18-.06.228.228,0,0,1-.088-.129.855.855,0,0,1-.023-.221V-7.49h.949v-.691Zm3.685,5.4a4.98,4.98,0,0,1-.272.59,1.612,1.612,0,0,1-.295.392,1,1,0,0,1-.359.221,1.382,1.382,0,0,1-.456.069,2.089,2.089,0,0,1-.276-.018,1.3,1.3,0,0,1-.267-.064v-.719a1.315,1.315,0,0,0,.235.078.991.991,0,0,0,.226.032.672.672,0,0,0,.4-.115.7.7,0,0,0,.244-.327l.322-.8L31.133-8.181h.884l1.391,3.9h.018l1.336-3.9h.829Z" transform="translate(13.378 105.904)" fill="#0b5fff"/>
            <path id="Path_5811-2" data-name="Path 5811" d="M2.348,0H55.558a2.185,2.185,0,0,1,2.348,1.974v13.16a2.185,2.185,0,0,1-2.348,1.974H2.348A2.185,2.185,0,0,1,0,15.134V1.974A2.185,2.185,0,0,1,2.348,0Z" transform="translate(9.127 49.383)" fill="#edf5fe"/>
            <path id="Path_6429" data-name="Path 6429" d="M1.407-6.789a3.792,3.792,0,0,1,.129-.981,2.664,2.664,0,0,1,.405-.871,2.072,2.072,0,0,1,.709-.622A2.134,2.134,0,0,1,3.683-9.5a2.134,2.134,0,0,1,1.032.235,2.072,2.072,0,0,1,.709.622,2.664,2.664,0,0,1,.405.871,3.792,3.792,0,0,1,.129.981,3.792,3.792,0,0,1-.129.981,2.664,2.664,0,0,1-.405.871,2.072,2.072,0,0,1-.709.622,2.134,2.134,0,0,1-1.032.235,2.134,2.134,0,0,1-1.032-.235,2.072,2.072,0,0,1-.709-.622,2.664,2.664,0,0,1-.405-.871A3.792,3.792,0,0,1,1.407-6.789Zm-.875,0a4.239,4.239,0,0,0,.2,1.294,3.262,3.262,0,0,0,.594,1.1,2.851,2.851,0,0,0,.986.76,3.158,3.158,0,0,0,1.373.281,3.158,3.158,0,0,0,1.373-.281,2.851,2.851,0,0,0,.986-.76,3.262,3.262,0,0,0,.594-1.1,4.239,4.239,0,0,0,.2-1.294,4.239,4.239,0,0,0-.2-1.294,3.262,3.262,0,0,0-.594-1.1,2.9,2.9,0,0,0-.986-.765,3.114,3.114,0,0,0-1.373-.286,3.114,3.114,0,0,0-1.373.286,2.9,2.9,0,0,0-.986.765,3.262,3.262,0,0,0-.594,1.1A4.239,4.239,0,0,0,.532-6.789ZM7.773-8.263V-3.5h.783V-6.19a1.929,1.929,0,0,1,.088-.594,1.35,1.35,0,0,1,.263-.474,1.166,1.166,0,0,1,.438-.313,1.6,1.6,0,0,1,.622-.111.959.959,0,0,1,.709.258.946.946,0,0,1,.258.7V-3.5h.783V-6.632a2.947,2.947,0,0,0-.078-.7,1.335,1.335,0,0,0-.272-.548,1.287,1.287,0,0,0-.507-.359,2.067,2.067,0,0,0-.783-.129,1.649,1.649,0,0,0-1.548.866H8.51v-.755Zm5.15-1.815V-3.5h.783v-.636h.018a1.261,1.261,0,0,0,.318.355,1.674,1.674,0,0,0,.4.226,2.175,2.175,0,0,0,.428.12,2.354,2.354,0,0,0,.392.037,2.212,2.212,0,0,0,.953-.193,1.911,1.911,0,0,0,.682-.53,2.256,2.256,0,0,0,.405-.788,3.36,3.36,0,0,0,.134-.958,3.256,3.256,0,0,0-.138-.958,2.421,2.421,0,0,0-.41-.8,1.958,1.958,0,0,0-.682-.548,2.148,2.148,0,0,0-.963-.2,2.27,2.27,0,0,0-.912.18,1.172,1.172,0,0,0-.608.576h-.018v-2.46Zm3.685,4.155a3.133,3.133,0,0,1-.074.682,1.8,1.8,0,0,1-.24.59,1.259,1.259,0,0,1-.438.415,1.339,1.339,0,0,1-.677.157,1.453,1.453,0,0,1-.691-.152,1.341,1.341,0,0,1-.465-.4,1.676,1.676,0,0,1-.263-.576,2.745,2.745,0,0,1-.083-.677,2.762,2.762,0,0,1,.078-.654,1.714,1.714,0,0,1,.253-.576,1.348,1.348,0,0,1,.451-.41,1.345,1.345,0,0,1,.672-.157,1.4,1.4,0,0,1,.659.147,1.309,1.309,0,0,1,.461.4,1.753,1.753,0,0,1,.267.567A2.435,2.435,0,0,1,16.607-5.923Zm2.321.046a2.369,2.369,0,0,1,.115-.769,1.66,1.66,0,0,1,.318-.567,1.353,1.353,0,0,1,.474-.35,1.412,1.412,0,0,1,.576-.12,1.412,1.412,0,0,1,.576.12,1.353,1.353,0,0,1,.474.35,1.66,1.66,0,0,1,.318.567,2.369,2.369,0,0,1,.115.769,2.369,2.369,0,0,1-.115.769,1.609,1.609,0,0,1-.318.562,1.379,1.379,0,0,1-.474.345,1.412,1.412,0,0,1-.576.12,1.412,1.412,0,0,1-.576-.12,1.379,1.379,0,0,1-.474-.345,1.609,1.609,0,0,1-.318-.562A2.369,2.369,0,0,1,18.929-5.877Zm-.829,0a3.129,3.129,0,0,0,.147.977,2.229,2.229,0,0,0,.442.788,2.034,2.034,0,0,0,.728.525,2.468,2.468,0,0,0,.995.189,2.46,2.46,0,0,0,1-.189,2.044,2.044,0,0,0,.723-.525,2.229,2.229,0,0,0,.442-.788,3.128,3.128,0,0,0,.147-.977,3.172,3.172,0,0,0-.147-.981,2.223,2.223,0,0,0-.442-.792,2.094,2.094,0,0,0-.723-.53,2.409,2.409,0,0,0-1-.193,2.417,2.417,0,0,0-.995.193,2.083,2.083,0,0,0-.728.53,2.223,2.223,0,0,0-.442.792A3.172,3.172,0,0,0,18.1-5.877Zm9.765,2.358a1.108,1.108,0,0,1-.562.12.674.674,0,0,1-.484-.17.741.741,0,0,1-.18-.557,1.873,1.873,0,0,1-.751.557,2.482,2.482,0,0,1-.926.17,2.48,2.48,0,0,1-.613-.074,1.424,1.424,0,0,1-.5-.23,1.105,1.105,0,0,1-.336-.41,1.379,1.379,0,0,1-.124-.613,1.4,1.4,0,0,1,.138-.663,1.206,1.206,0,0,1,.364-.419,1.667,1.667,0,0,1,.516-.244q.29-.083.594-.138.322-.064.613-.1a3.413,3.413,0,0,0,.511-.092.852.852,0,0,0,.35-.175A.427.427,0,0,0,26.6-6.89a.782.782,0,0,0-.1-.415.663.663,0,0,0-.249-.24,1.011,1.011,0,0,0-.341-.111,2.574,2.574,0,0,0-.373-.028,1.656,1.656,0,0,0-.829.189.8.8,0,0,0-.359.714h-.783a1.691,1.691,0,0,1,.184-.746,1.4,1.4,0,0,1,.442-.493,1.855,1.855,0,0,1,.631-.272,3.333,3.333,0,0,1,.76-.083,4.458,4.458,0,0,1,.64.046,1.673,1.673,0,0,1,.576.189,1.1,1.1,0,0,1,.415.4,1.282,1.282,0,0,1,.157.672v2.45a1.833,1.833,0,0,0,.032.405q.032.129.216.129a.776.776,0,0,0,.24-.046ZM26.594-5.96a.975.975,0,0,1-.387.161q-.24.051-.5.083t-.53.074a1.948,1.948,0,0,0-.479.134.871.871,0,0,0-.345.263.735.735,0,0,0-.134.465.637.637,0,0,0,.078.327.653.653,0,0,0,.2.216.85.85,0,0,0,.29.12,1.61,1.61,0,0,0,.35.037,1.855,1.855,0,0,0,.663-.106,1.4,1.4,0,0,0,.451-.267,1.054,1.054,0,0,0,.258-.35.885.885,0,0,0,.083-.355Zm1.971-2.3V-3.5h.783V-5.619a3.256,3.256,0,0,1,.092-.815,1.563,1.563,0,0,1,.295-.6,1.264,1.264,0,0,1,.534-.378,2.215,2.215,0,0,1,.8-.129v-.829a1.76,1.76,0,0,0-1.05.258,2.121,2.121,0,0,0-.7.857H29.3v-1Zm3.5,2.423a3.133,3.133,0,0,1,.074-.682,1.8,1.8,0,0,1,.24-.59,1.247,1.247,0,0,1,.442-.415,1.345,1.345,0,0,1,.672-.157,1.453,1.453,0,0,1,.691.152,1.341,1.341,0,0,1,.465.4,1.676,1.676,0,0,1,.263.576A2.745,2.745,0,0,1,35-5.877a2.762,2.762,0,0,1-.078.654,1.714,1.714,0,0,1-.253.576,1.348,1.348,0,0,1-.451.41,1.345,1.345,0,0,1-.672.157,1.4,1.4,0,0,1-.659-.147,1.309,1.309,0,0,1-.461-.4,1.753,1.753,0,0,1-.267-.567A2.435,2.435,0,0,1,32.066-5.84ZM35.751-3.5v-6.578h-.783v2.45h-.018a1.261,1.261,0,0,0-.318-.355,1.806,1.806,0,0,0-.4-.23,2.011,2.011,0,0,0-.424-.124,2.319,2.319,0,0,0-.4-.037,2.168,2.168,0,0,0-.953.2,1.957,1.957,0,0,0-.682.534,2.256,2.256,0,0,0-.405.788,3.36,3.36,0,0,0-.134.958,3.256,3.256,0,0,0,.138.958,2.368,2.368,0,0,0,.41.792,1.981,1.981,0,0,0,.682.544,2.148,2.148,0,0,0,.963.2,2.321,2.321,0,0,0,.912-.175,1.152,1.152,0,0,0,.608-.571h.018V-3.5Zm2.036-5.619v-.958H37v.958ZM37-8.263V-3.5h.783V-8.263Zm2,0V-3.5h.783V-6.19a1.929,1.929,0,0,1,.088-.594,1.349,1.349,0,0,1,.263-.474,1.166,1.166,0,0,1,.438-.313,1.6,1.6,0,0,1,.622-.111.959.959,0,0,1,.709.258.946.946,0,0,1,.258.7V-3.5h.783V-6.632a2.947,2.947,0,0,0-.078-.7,1.335,1.335,0,0,0-.272-.548,1.287,1.287,0,0,0-.507-.359,2.067,2.067,0,0,0-.783-.129,1.649,1.649,0,0,0-1.548.866h-.018v-.755Zm9.231,4.357V-8.263H47.5v.682h-.009a1.394,1.394,0,0,0-.59-.594,1.758,1.758,0,0,0-.829-.2,2.121,2.121,0,0,0-1.041.235,2.02,2.02,0,0,0-.682.6,2.374,2.374,0,0,0-.368.811,3.619,3.619,0,0,0-.111.871A3.154,3.154,0,0,0,44-4.932a2.217,2.217,0,0,0,.4.765,1.947,1.947,0,0,0,.663.52,2.1,2.1,0,0,0,.93.193,1.9,1.9,0,0,0,.871-.207,1.316,1.316,0,0,0,.613-.649H47.5V-4a3.167,3.167,0,0,1-.078.728,1.521,1.521,0,0,1-.253.567,1.228,1.228,0,0,1-.442.368,1.452,1.452,0,0,1-.654.134,2.112,2.112,0,0,1-.405-.041,1.473,1.473,0,0,1-.392-.134.974.974,0,0,1-.3-.24.579.579,0,0,1-.134-.359h-.783a1.231,1.231,0,0,0,.2.654,1.459,1.459,0,0,0,.465.433,2.074,2.074,0,0,0,.626.24,3.24,3.24,0,0,0,.677.074,2.177,2.177,0,0,0,1.677-.58A2.508,2.508,0,0,0,48.233-3.905Zm-2.193-.23A1.2,1.2,0,0,1,45.4-4.3a1.244,1.244,0,0,1-.415-.424,1.834,1.834,0,0,1-.221-.585A3.28,3.28,0,0,1,44.7-5.95a2.687,2.687,0,0,1,.078-.654,1.621,1.621,0,0,1,.249-.553,1.254,1.254,0,0,1,.438-.382,1.352,1.352,0,0,1,.645-.143,1.244,1.244,0,0,1,.626.147,1.22,1.22,0,0,1,.419.392,1.722,1.722,0,0,1,.235.548,2.61,2.61,0,0,1,.074.617,2.878,2.878,0,0,1-.078.663,1.937,1.937,0,0,1-.244.594A1.285,1.285,0,0,1,46.7-4.3,1.269,1.269,0,0,1,46.041-4.135Z" transform="translate(13.551 64.727)" fill="#0b5fff"/>
            <path id="Path_5811-3" data-name="Path 5811" d="M3.281,0H77.655c1.812,0,3.281.884,3.281,1.974v13.16c0,1.09-1.469,1.974-3.281,1.974H3.281C1.469,17.109,0,16.225,0,15.134V1.974C0,.884,1.469,0,3.281,0Z" transform="translate(9.126 28.484)" fill="#edf5fe"/>
            <path id="Path_6428" data-name="Path 6428" d="M1.823-6.174,2.938-9.242h.018l1.1,3.068Zm.654-3.86L-.084-3.457H.81l.737-1.981H4.329l.719,1.981h.967l-2.57-6.578ZM6.558-8.219v6.578h.783v-2.45H7.36a1.261,1.261,0,0,0,.318.355,1.674,1.674,0,0,0,.4.226,2.175,2.175,0,0,0,.428.12,2.354,2.354,0,0,0,.392.037,2.212,2.212,0,0,0,.953-.193,1.911,1.911,0,0,0,.682-.53,2.256,2.256,0,0,0,.405-.788,3.36,3.36,0,0,0,.134-.958,3.256,3.256,0,0,0-.138-.958,2.421,2.421,0,0,0-.41-.8,1.958,1.958,0,0,0-.682-.548,2.148,2.148,0,0,0-.963-.2,2.27,2.27,0,0,0-.912.18,1.172,1.172,0,0,0-.608.576H7.341v-.645Zm3.685,2.34a3.133,3.133,0,0,1-.074.682,1.8,1.8,0,0,1-.24.59,1.259,1.259,0,0,1-.438.415,1.339,1.339,0,0,1-.677.157,1.453,1.453,0,0,1-.691-.152,1.341,1.341,0,0,1-.465-.4A1.676,1.676,0,0,1,7.4-5.166a2.745,2.745,0,0,1-.083-.677A2.762,2.762,0,0,1,7.392-6.5a1.714,1.714,0,0,1,.253-.576,1.348,1.348,0,0,1,.451-.41,1.345,1.345,0,0,1,.672-.157,1.4,1.4,0,0,1,.659.147,1.309,1.309,0,0,1,.461.4,1.753,1.753,0,0,1,.267.567A2.435,2.435,0,0,1,10.243-5.88Zm1.778-2.34v6.578H12.8v-2.45h.018a1.261,1.261,0,0,0,.318.355,1.674,1.674,0,0,0,.4.226,2.175,2.175,0,0,0,.428.12,2.354,2.354,0,0,0,.392.037,2.212,2.212,0,0,0,.953-.193A1.911,1.911,0,0,0,16-4.079a2.256,2.256,0,0,0,.405-.788,3.36,3.36,0,0,0,.134-.958,3.256,3.256,0,0,0-.138-.958,2.421,2.421,0,0,0-.41-.8,1.958,1.958,0,0,0-.682-.548,2.148,2.148,0,0,0-.963-.2,2.27,2.27,0,0,0-.912.18,1.172,1.172,0,0,0-.608.576H12.8v-.645Zm3.685,2.34a3.133,3.133,0,0,1-.074.682,1.8,1.8,0,0,1-.24.59,1.259,1.259,0,0,1-.438.415,1.339,1.339,0,0,1-.677.157,1.453,1.453,0,0,1-.691-.152,1.341,1.341,0,0,1-.465-.4,1.676,1.676,0,0,1-.263-.576,2.745,2.745,0,0,1-.083-.677,2.762,2.762,0,0,1,.078-.654,1.714,1.714,0,0,1,.253-.576,1.348,1.348,0,0,1,.451-.41,1.345,1.345,0,0,1,.672-.157,1.4,1.4,0,0,1,.659.147,1.309,1.309,0,0,1,.461.4,1.753,1.753,0,0,1,.267.567A2.435,2.435,0,0,1,15.706-5.88Zm4.339-2.34v6.578h.783v-2.45h.018a1.261,1.261,0,0,0,.318.355,1.674,1.674,0,0,0,.4.226,2.175,2.175,0,0,0,.428.12,2.354,2.354,0,0,0,.392.037,2.212,2.212,0,0,0,.953-.193,1.911,1.911,0,0,0,.682-.53,2.256,2.256,0,0,0,.405-.788,3.36,3.36,0,0,0,.134-.958,3.256,3.256,0,0,0-.138-.958,2.421,2.421,0,0,0-.41-.8,1.958,1.958,0,0,0-.682-.548,2.148,2.148,0,0,0-.963-.2,2.269,2.269,0,0,0-.912.18,1.172,1.172,0,0,0-.608.576h-.018v-.645ZM23.73-5.88a3.133,3.133,0,0,1-.074.682,1.8,1.8,0,0,1-.24.59,1.259,1.259,0,0,1-.438.415,1.339,1.339,0,0,1-.677.157,1.453,1.453,0,0,1-.691-.152,1.341,1.341,0,0,1-.465-.4,1.676,1.676,0,0,1-.263-.576,2.745,2.745,0,0,1-.083-.677,2.762,2.762,0,0,1,.078-.654,1.714,1.714,0,0,1,.253-.576,1.348,1.348,0,0,1,.451-.41,1.345,1.345,0,0,1,.672-.157,1.4,1.4,0,0,1,.659.147,1.309,1.309,0,0,1,.461.4,1.753,1.753,0,0,1,.267.567A2.435,2.435,0,0,1,23.73-5.88Zm5.058-.415H26.051a1.631,1.631,0,0,1,.12-.52,1.388,1.388,0,0,1,.276-.428,1.266,1.266,0,0,1,.419-.29,1.363,1.363,0,0,1,.548-.106,1.34,1.34,0,0,1,.539.106,1.356,1.356,0,0,1,.424.286,1.342,1.342,0,0,1,.286.428A1.6,1.6,0,0,1,28.787-6.294Zm.755,1.327h-.774a1.113,1.113,0,0,1-.419.7,1.355,1.355,0,0,1-.815.23,1.622,1.622,0,0,1-.672-.129,1.318,1.318,0,0,1-.47-.345,1.346,1.346,0,0,1-.267-.5,1.89,1.89,0,0,1-.074-.594h3.565a3.792,3.792,0,0,0-.078-.912,2.64,2.64,0,0,0-.35-.884,2.086,2.086,0,0,0-.672-.668,1.954,1.954,0,0,0-1.055-.263,2.166,2.166,0,0,0-.9.184,2.111,2.111,0,0,0-.709.516,2.378,2.378,0,0,0-.465.783,2.866,2.866,0,0,0-.166.995,3.818,3.818,0,0,0,.161,1,2.191,2.191,0,0,0,.428.792,1.952,1.952,0,0,0,.7.516,2.446,2.446,0,0,0,.99.184,2.162,2.162,0,0,0,1.345-.405A1.9,1.9,0,0,0,29.543-4.968ZM30.4-8.219v4.763h.783V-5.576a3.256,3.256,0,0,1,.092-.815,1.563,1.563,0,0,1,.295-.6,1.264,1.264,0,0,1,.534-.378,2.215,2.215,0,0,1,.8-.129V-8.33a1.76,1.76,0,0,0-1.05.258,2.121,2.121,0,0,0-.7.857h-.018v-1Zm3.418.691v4.072H34.6V-7.529h.921v-.691H34.6v-.663a.488.488,0,0,1,.157-.424.759.759,0,0,1,.442-.111,1.939,1.939,0,0,1,.221.014.971.971,0,0,1,.221.051v-.682a1.351,1.351,0,0,0-.253-.055,2,2,0,0,0-.253-.018,1.431,1.431,0,0,0-.981.3,1.117,1.117,0,0,0-.336.88v.709h-.8v.691Zm2.976,1.7a2.37,2.37,0,0,1,.115-.769,1.66,1.66,0,0,1,.318-.567,1.354,1.354,0,0,1,.474-.35,1.412,1.412,0,0,1,.576-.12,1.412,1.412,0,0,1,.576.12,1.353,1.353,0,0,1,.474.35,1.66,1.66,0,0,1,.318.567,2.369,2.369,0,0,1,.115.769,2.369,2.369,0,0,1-.115.769,1.609,1.609,0,0,1-.318.562,1.379,1.379,0,0,1-.474.345,1.412,1.412,0,0,1-.576.12,1.412,1.412,0,0,1-.576-.12,1.379,1.379,0,0,1-.474-.345,1.609,1.609,0,0,1-.318-.562A2.37,2.37,0,0,1,36.793-5.834Zm-.829,0a3.129,3.129,0,0,0,.147.977,2.229,2.229,0,0,0,.442.788,2.034,2.034,0,0,0,.728.525,2.468,2.468,0,0,0,.995.189,2.46,2.46,0,0,0,1-.189A2.044,2.044,0,0,0,40-4.069a2.229,2.229,0,0,0,.442-.788,3.128,3.128,0,0,0,.147-.977,3.172,3.172,0,0,0-.147-.981A2.223,2.223,0,0,0,40-7.607a2.094,2.094,0,0,0-.723-.53,2.409,2.409,0,0,0-1-.193,2.417,2.417,0,0,0-.995.193,2.083,2.083,0,0,0-.728.53,2.223,2.223,0,0,0-.442.792A3.172,3.172,0,0,0,35.964-5.834Zm5.518-2.386v4.763h.783V-5.576a3.256,3.256,0,0,1,.092-.815,1.563,1.563,0,0,1,.295-.6,1.263,1.263,0,0,1,.534-.378,2.215,2.215,0,0,1,.8-.129V-8.33a1.76,1.76,0,0,0-1.05.258,2.121,2.121,0,0,0-.7.857h-.018v-1Zm3.1,0v4.763h.783V-6.423a1.137,1.137,0,0,1,.069-.345,1.33,1.33,0,0,1,.221-.4,1.326,1.326,0,0,1,.4-.332,1.169,1.169,0,0,1,.585-.138,1.053,1.053,0,0,1,.438.078.667.667,0,0,1,.272.221A.9.9,0,0,1,47.484-7a2.024,2.024,0,0,1,.041.424v3.123h.783V-6.423a1.2,1.2,0,0,1,.332-.884,1.232,1.232,0,0,1,.912-.332,1.117,1.117,0,0,1,.465.083.69.69,0,0,1,.281.226.846.846,0,0,1,.138.336,2.215,2.215,0,0,1,.037.415v3.123h.783V-6.948a1.565,1.565,0,0,0-.115-.631,1.107,1.107,0,0,0-.322-.428,1.347,1.347,0,0,0-.5-.244,2.493,2.493,0,0,0-.649-.078,1.78,1.78,0,0,0-.861.212,1.663,1.663,0,0,0-.631.6,1.032,1.032,0,0,0-.507-.626,1.73,1.73,0,0,0-.8-.184,1.732,1.732,0,0,0-1.538.811h-.018v-.7ZM56.654-3.475a1.108,1.108,0,0,1-.562.12.674.674,0,0,1-.484-.17.741.741,0,0,1-.18-.557,1.873,1.873,0,0,1-.751.557,2.482,2.482,0,0,1-.926.17,2.48,2.48,0,0,1-.613-.074,1.425,1.425,0,0,1-.5-.23,1.105,1.105,0,0,1-.336-.41,1.379,1.379,0,0,1-.124-.613,1.4,1.4,0,0,1,.138-.663,1.206,1.206,0,0,1,.364-.419,1.667,1.667,0,0,1,.516-.244q.29-.083.594-.138.322-.064.613-.1a3.413,3.413,0,0,0,.511-.092.852.852,0,0,0,.35-.175.427.427,0,0,0,.129-.336.782.782,0,0,0-.1-.415.663.663,0,0,0-.249-.24,1.011,1.011,0,0,0-.341-.111,2.574,2.574,0,0,0-.373-.028,1.656,1.656,0,0,0-.829.189.8.8,0,0,0-.359.714h-.783a1.691,1.691,0,0,1,.184-.746,1.4,1.4,0,0,1,.442-.493,1.855,1.855,0,0,1,.631-.272,3.333,3.333,0,0,1,.76-.083,4.458,4.458,0,0,1,.64.046A1.673,1.673,0,0,1,55.6-8.1a1.1,1.1,0,0,1,.415.4,1.283,1.283,0,0,1,.157.672v2.45a1.833,1.833,0,0,0,.032.405q.032.129.216.129a.775.775,0,0,0,.24-.046ZM55.383-5.916A.975.975,0,0,1,55-5.755q-.24.051-.5.083t-.53.074a1.947,1.947,0,0,0-.479.134.871.871,0,0,0-.345.263.735.735,0,0,0-.134.465.637.637,0,0,0,.078.327.653.653,0,0,0,.2.216.85.85,0,0,0,.29.12,1.61,1.61,0,0,0,.35.037,1.855,1.855,0,0,0,.663-.106,1.4,1.4,0,0,0,.451-.267,1.054,1.054,0,0,0,.258-.35.885.885,0,0,0,.083-.355Zm2-2.3v4.763h.783v-2.69a1.929,1.929,0,0,1,.088-.594,1.349,1.349,0,0,1,.263-.474,1.166,1.166,0,0,1,.438-.313,1.6,1.6,0,0,1,.622-.111.959.959,0,0,1,.709.258.946.946,0,0,1,.258.7v3.224h.783V-6.589a2.947,2.947,0,0,0-.078-.7,1.334,1.334,0,0,0-.272-.548,1.287,1.287,0,0,0-.507-.359,2.067,2.067,0,0,0-.783-.129,1.649,1.649,0,0,0-1.548.866h-.018v-.755ZM65.738-6.69h.811a1.882,1.882,0,0,0-.221-.732,1.635,1.635,0,0,0-.447-.511,1.851,1.851,0,0,0-.626-.3,2.878,2.878,0,0,0-.76-.1,2.305,2.305,0,0,0-.986.2,1.967,1.967,0,0,0-.7.544,2.312,2.312,0,0,0-.419.811,3.5,3.5,0,0,0-.138,1,3.209,3.209,0,0,0,.143.981,2.152,2.152,0,0,0,.424.769,1.867,1.867,0,0,0,.7.5,2.481,2.481,0,0,0,.963.175,2.069,2.069,0,0,0,1.442-.479A2.193,2.193,0,0,0,66.576-5.2h-.8a1.373,1.373,0,0,1-.4.857,1.281,1.281,0,0,1-.907.3,1.3,1.3,0,0,1-.636-.147,1.237,1.237,0,0,1-.433-.392,1.729,1.729,0,0,1-.244-.557,2.648,2.648,0,0,1-.078-.645,3.239,3.239,0,0,1,.074-.7,1.744,1.744,0,0,1,.244-.594,1.265,1.265,0,0,1,.456-.415,1.46,1.46,0,0,1,.709-.157,1.189,1.189,0,0,1,.792.249A1.193,1.193,0,0,1,65.738-6.69Zm5.021.4H68.022a1.631,1.631,0,0,1,.12-.52,1.388,1.388,0,0,1,.276-.428,1.266,1.266,0,0,1,.419-.29,1.364,1.364,0,0,1,.548-.106,1.34,1.34,0,0,1,.539.106,1.356,1.356,0,0,1,.424.286,1.342,1.342,0,0,1,.286.428A1.6,1.6,0,0,1,70.758-6.294Zm.755,1.327H70.74a1.114,1.114,0,0,1-.419.7,1.355,1.355,0,0,1-.815.23,1.622,1.622,0,0,1-.672-.129,1.318,1.318,0,0,1-.47-.345,1.346,1.346,0,0,1-.267-.5,1.89,1.89,0,0,1-.074-.594h3.565a3.792,3.792,0,0,0-.078-.912,2.64,2.64,0,0,0-.35-.884,2.086,2.086,0,0,0-.672-.668,1.954,1.954,0,0,0-1.055-.263,2.166,2.166,0,0,0-.9.184,2.111,2.111,0,0,0-.709.516,2.378,2.378,0,0,0-.465.783,2.866,2.866,0,0,0-.166.995,3.818,3.818,0,0,0,.161,1,2.191,2.191,0,0,0,.428.792,1.952,1.952,0,0,0,.7.516,2.446,2.446,0,0,0,.99.184,2.162,2.162,0,0,0,1.345-.405A1.9,1.9,0,0,0,71.514-4.968Z" transform="translate(13.761 43.785)" fill="#0b5fff"/>
            <path id="Path_5811-4" data-name="Path 5811" d="M1.227,0H29.042c.678,0,1.227.884,1.227,1.974v13.16c0,1.09-.549,1.974-1.227,1.974H1.227C.549,17.109,0,16.225,0,15.134V1.974C0,.884.549,0,1.227,0Z" transform="translate(9.127 70.134)" fill="#edf5fe"/>
            <path id="Path_6430" data-name="Path 6430" d="M1.967-7.168V-9.259h1.75a4.274,4.274,0,0,1,.539.032,1.2,1.2,0,0,1,.447.143.786.786,0,0,1,.3.313,1.161,1.161,0,0,1,.111.553.95.95,0,0,1-.327.788,1.726,1.726,0,0,1-1.073.263ZM1.092-10v6.578H4.27a2.155,2.155,0,0,0,.861-.161A1.911,1.911,0,0,0,5.758-4a1.754,1.754,0,0,0,.382-.6,1.963,1.963,0,0,0,.129-.7,1.654,1.654,0,0,0-.322-1.032,1.514,1.514,0,0,0-.93-.553V-6.91a1.493,1.493,0,0,0,.723-.567,1.6,1.6,0,0,0,.253-.907,1.485,1.485,0,0,0-.226-.838,1.714,1.714,0,0,0-.548-.534,1.126,1.126,0,0,0-.355-.138,3.691,3.691,0,0,0-.447-.069q-.24-.023-.484-.028t-.456,0Zm.875,5.841V-6.431h2A2.766,2.766,0,0,1,4.5-6.38a1.332,1.332,0,0,1,.456.175.929.929,0,0,1,.318.336,1.075,1.075,0,0,1,.12.534,1.142,1.142,0,0,1-.327.866,1.258,1.258,0,0,1-.907.313Zm9.249.737V-8.181h-.783v2.69a1.929,1.929,0,0,1-.088.594,1.35,1.35,0,0,1-.263.474,1.166,1.166,0,0,1-.438.313A1.6,1.6,0,0,1,9.024-4a.959.959,0,0,1-.709-.258.946.946,0,0,1-.258-.7V-8.181H7.273v3.132a2.947,2.947,0,0,0,.078.7,1.335,1.335,0,0,0,.272.548,1.249,1.249,0,0,0,.507.355,2.136,2.136,0,0,0,.783.124,1.9,1.9,0,0,0,.912-.207,1.6,1.6,0,0,0,.636-.649h.018v.755ZM16.5-3.824V-8.181h-.737V-7.5h-.009a1.394,1.394,0,0,0-.59-.594,1.758,1.758,0,0,0-.829-.2,2.121,2.121,0,0,0-1.041.235,2.02,2.02,0,0,0-.682.6,2.374,2.374,0,0,0-.368.811,3.618,3.618,0,0,0-.111.871,3.154,3.154,0,0,0,.134.926,2.217,2.217,0,0,0,.4.765,1.947,1.947,0,0,0,.663.52,2.1,2.1,0,0,0,.93.193,1.9,1.9,0,0,0,.871-.207,1.316,1.316,0,0,0,.613-.649h.018v.313a3.167,3.167,0,0,1-.078.728,1.521,1.521,0,0,1-.253.567,1.228,1.228,0,0,1-.442.368,1.452,1.452,0,0,1-.654.134,2.112,2.112,0,0,1-.405-.041,1.473,1.473,0,0,1-.392-.134.974.974,0,0,1-.3-.24.579.579,0,0,1-.134-.359h-.783a1.231,1.231,0,0,0,.2.654,1.459,1.459,0,0,0,.465.433,2.075,2.075,0,0,0,.626.24,3.24,3.24,0,0,0,.677.074,2.177,2.177,0,0,0,1.677-.58A2.508,2.508,0,0,0,16.5-3.824Zm-2.193-.23a1.2,1.2,0,0,1-.645-.161,1.244,1.244,0,0,1-.415-.424,1.834,1.834,0,0,1-.221-.585,3.281,3.281,0,0,1-.064-.645,2.687,2.687,0,0,1,.078-.654,1.621,1.621,0,0,1,.249-.553,1.254,1.254,0,0,1,.438-.382,1.352,1.352,0,0,1,.645-.143A1.244,1.244,0,0,1,15-7.453a1.22,1.22,0,0,1,.419.392,1.722,1.722,0,0,1,.235.548,2.61,2.61,0,0,1,.074.617,2.878,2.878,0,0,1-.078.663,1.937,1.937,0,0,1-.244.594,1.285,1.285,0,0,1-.438.424A1.269,1.269,0,0,1,14.312-4.054Zm3.851-.866h-.783a1.723,1.723,0,0,0,.184.751,1.386,1.386,0,0,0,.442.5,1.853,1.853,0,0,0,.636.272,3.35,3.35,0,0,0,.755.083,3.869,3.869,0,0,0,.723-.069,1.964,1.964,0,0,0,.654-.244,1.4,1.4,0,0,0,.47-.461,1.327,1.327,0,0,0,.18-.719,1.123,1.123,0,0,0-.134-.571,1.192,1.192,0,0,0-.35-.382,1.877,1.877,0,0,0-.5-.244,5.88,5.88,0,0,0-.576-.157q-.276-.064-.553-.124a3.189,3.189,0,0,1-.5-.147,1.14,1.14,0,0,1-.364-.221.441.441,0,0,1-.143-.336.465.465,0,0,1,.092-.3.659.659,0,0,1,.24-.184,1.194,1.194,0,0,1,.327-.1,2.33,2.33,0,0,1,.355-.028,1.778,1.778,0,0,1,.382.041,1.172,1.172,0,0,1,.345.134.784.784,0,0,1,.258.244.793.793,0,0,1,.12.382h.783a1.749,1.749,0,0,0-.184-.723,1.24,1.24,0,0,0-.419-.461,1.726,1.726,0,0,0-.6-.24,3.76,3.76,0,0,0-.746-.069,2.63,2.63,0,0,0-.631.078,1.9,1.9,0,0,0-.571.24,1.318,1.318,0,0,0-.415.419,1.141,1.141,0,0,0-.161.617,1.041,1.041,0,0,0,.23.719,1.554,1.554,0,0,0,.576.4,3.9,3.9,0,0,0,.751.221q.405.078.751.175a1.96,1.96,0,0,1,.576.253.521.521,0,0,1,.23.461.577.577,0,0,1-.111.364.7.7,0,0,1-.281.216,1.419,1.419,0,0,1-.373.1A2.867,2.867,0,0,1,19.443-4a2.321,2.321,0,0,1-.465-.046,1.305,1.305,0,0,1-.405-.152.833.833,0,0,1-.29-.286A.881.881,0,0,1,18.162-4.92Z" transform="translate(13.36 85.397)" fill="#0b5fff"/>
          </g>
          <path id="Path_6729" data-name="Path 6729" d="M.192-3.51H1.308V0h.84V-3.51H3.264v-.678H.192ZM7.086-1.662a1.643,1.643,0,0,0-1.71-1.716,1.643,1.643,0,0,0-1.71,1.716A1.627,1.627,0,0,0,5.352.054,1.662,1.662,0,0,0,7.086-1.662Zm-2.568,0a.865.865,0,0,1,.846-.984.873.873,0,0,1,.858.984.885.885,0,0,1-.87.984C4.9-.678,4.518-1,4.518-1.662ZM8.544-2.844v-.48H7.7V1.584h.84V-.474a1.357,1.357,0,0,0,1.1.528A1.575,1.575,0,0,0,11.16-1.674a1.553,1.553,0,0,0-1.518-1.7A1.328,1.328,0,0,0,8.544-2.844ZM10.3-1.674a.909.909,0,0,1-.882.99.9.9,0,0,1-.876-.978A.9.9,0,0,1,9.42-2.64.888.888,0,0,1,10.3-1.674ZM12.978-3.51h1.116V0h.84V-3.51H16.05v-.678H12.978ZM17.5-1.656c0-.642.3-.834.8-.834h.222v-.882a1.153,1.153,0,0,0-1.02.564v-.516h-.84V0h.84Zm3.012-1.032a.739.739,0,0,1,.792.714H19.728A.772.772,0,0,1,20.514-2.688Zm1.578,1.644h-.906a.685.685,0,0,1-.666.4.778.778,0,0,1-.8-.768h2.43a1.963,1.963,0,0,0,.024-.324,1.561,1.561,0,0,0-1.638-1.644A1.6,1.6,0,0,0,18.87-1.662,1.61,1.61,0,0,0,20.538.054,1.545,1.545,0,0,0,22.092-1.044ZM25.116,0h.84V-1.95A1.278,1.278,0,0,0,24.63-3.372a1.242,1.242,0,0,0-1,.462v-.414h-.84V0h.84V-1.836a.722.722,0,0,1,.75-.822.719.719,0,0,1,.738.822Zm1.422-1.674A1.578,1.578,0,0,0,28.056.054a1.256,1.256,0,0,0,1.092-.546V0H30V-4.44h-.852v1.578a1.364,1.364,0,0,0-1.086-.516A1.557,1.557,0,0,0,26.538-1.674Zm2.616.012a.9.9,0,0,1-.882.978.908.908,0,0,1-.876-.99.887.887,0,0,1,.876-.966A.9.9,0,0,1,29.154-1.662ZM30.822,0h.84V-3.324h-.84Zm.426-3.72a.5.5,0,0,0,.516-.492.5.5,0,0,0-.516-.492.493.493,0,0,0-.516.492A.493.493,0,0,0,31.248-3.72ZM34.818,0h.84V-1.95a1.278,1.278,0,0,0-1.326-1.422,1.242,1.242,0,0,0-1,.462v-.414h-.84V0h.84V-1.836a.722.722,0,0,1,.75-.822.719.719,0,0,1,.738.822ZM36.24-1.674A1.578,1.578,0,0,0,37.758.054a1.311,1.311,0,0,0,1.1-.546V.024a.859.859,0,0,1-1.638.384h-.834a1.489,1.489,0,0,0,1.674,1.23A1.519,1.519,0,0,0,39.7.024V-3.324h-.846v.474a1.3,1.3,0,0,0-1.1-.528A1.557,1.557,0,0,0,36.24-1.674Zm2.616.012a.9.9,0,0,1-.882.978.908.908,0,0,1-.876-.99.887.887,0,0,1,.876-.966A.9.9,0,0,1,38.856-1.662Zm3.228.63C42.084-.27,42.51,0,43.146,0h.528V-.708h-.39c-.264,0-.354-.1-.354-.318V-2.634h.744v-.69H42.93v-.822h-.846v.822h-.4v.69h.4Zm5.406-.63a1.643,1.643,0,0,0-1.71-1.716,1.643,1.643,0,0,0-1.71,1.716A1.627,1.627,0,0,0,45.756.054,1.662,1.662,0,0,0,47.49-1.662Zm-2.568,0a.865.865,0,0,1,.846-.984.873.873,0,0,1,.858.984.885.885,0,0,1-.87.984C45.306-.678,44.922-1,44.922-1.662Zm4.026-1.182v-.48h-.84V1.584h.84V-.474a1.357,1.357,0,0,0,1.1.528,1.575,1.575,0,0,0,1.518-1.728,1.553,1.553,0,0,0-1.518-1.7A1.328,1.328,0,0,0,48.948-2.844Zm1.758,1.17a.909.909,0,0,1-.882.99.9.9,0,0,1-.876-.978.9.9,0,0,1,.876-.978A.888.888,0,0,1,50.706-1.674ZM52.176,0h.84V-3.324h-.84ZM52.6-3.72a.5.5,0,0,0,.516-.492A.5.5,0,0,0,52.6-4.7a.493.493,0,0,0-.516.492A.493.493,0,0,0,52.6-3.72Zm1.026,2.058A1.6,1.6,0,0,0,55.272.054a1.516,1.516,0,0,0,1.566-1.176h-.906a.634.634,0,0,1-.666.456c-.468,0-.78-.348-.78-1s.312-1,.78-1a.653.653,0,0,1,.666.462h.906a1.483,1.483,0,0,0-1.566-1.176A1.6,1.6,0,0,0,53.628-1.662Zm6.408.714c-.024-1.218-1.866-.84-1.866-1.446,0-.192.162-.318.474-.318a.5.5,0,0,1,.558.432h.8a1.191,1.191,0,0,0-1.338-1.1c-.822,0-1.314.444-1.314,1,0,1.218,1.878.84,1.878,1.434,0,.192-.18.342-.51.342a.552.552,0,0,1-.6-.444h-.846a1.311,1.311,0,0,0,1.452,1.1C59.538.054,60.036-.378,60.036-.948Z" transform="translate(8.638 15.434)" fill="#375674"/>
        </g>
        <g id="Group_9279" data-name="Group 9279" transform="translate(172.536 216.745)">
          <g transform="matrix(1, 0, 0, 1, -253.54, -259.99)" filter="url(#Rectangle_4178)">
            <rect id="Rectangle_4178-2" data-name="Rectangle 4178" width="26.211" height="26.211" rx="13.106" transform="translate(253.54 259.99)" fill="#36b37e"/>
          </g>
          <g id="description-24px-2" data-name="description-24px" transform="translate(7.35 7.488)">
            <path id="Path_6521-2" data-name="Path 6521" d="M0,0H11.511V11.511H0Z" fill="none"/>
            <path id="Path_6522-2" data-name="Path 6522" d="M8.8,2H4.959A.958.958,0,0,0,4,2.959l0,7.674a.958.958,0,0,0,.954.959h5.76a.962.962,0,0,0,.959-.959V4.878Zm.959,7.674H5.918V8.715H9.755Zm0-1.918H5.918V6.8H9.755Zm-1.439-2.4V2.719l2.638,2.638Z" transform="translate(-2.082 -1.041)" fill="#fff"/>
          </g>
        </g>
        <path id="whatsapp_7_" data-name="whatsapp (7)" d="M18.249,3.076A10.493,10.493,0,0,0,1.738,15.734L.25,21.17l5.561-1.459a10.479,10.479,0,0,0,5.013,1.277h0a10.495,10.495,0,0,0,7.42-17.911Zm-7.42,16.14h0A8.708,8.708,0,0,1,6.387,18l-.318-.189-3.3.866.881-3.217-.207-.33a8.719,8.719,0,1,1,7.386,4.086Zm4.783-6.53c-.262-.131-1.551-.765-1.791-.853s-.415-.131-.59.131-.677.853-.83,1.028-.306.2-.568.066a7.159,7.159,0,0,1-2.108-1.3A7.906,7.906,0,0,1,8.266,9.941c-.153-.263,0-.391.115-.535a7.415,7.415,0,0,0,.655-.9.482.482,0,0,0-.022-.459c-.065-.131-.59-1.421-.808-1.946s-.429-.442-.59-.45-.328-.009-.5-.009a.963.963,0,0,0-.7.328A2.94,2.94,0,0,0,5.5,8.16a5.1,5.1,0,0,0,1.07,2.711,11.684,11.684,0,0,0,4.478,3.958,15,15,0,0,0,1.494.552,3.593,3.593,0,0,0,1.651.1,2.7,2.7,0,0,0,1.769-1.246,2.19,2.19,0,0,0,.153-1.246C16.048,12.883,15.873,12.817,15.611,12.686Zm0,0" transform="translate(10.582 93.842)" fill="#094144" fill-rule="evenodd"/>
        <path id="Path_6177" data-name="Path 6177" d="M15.948,0H2.278A2.191,2.191,0,0,0,0,2.092V14.645a2.191,2.191,0,0,0,2.278,2.092H15.948a2.191,2.191,0,0,0,2.277-2.092V2.092A2.191,2.191,0,0,0,15.948,0Zm-4.4,3.068a.609.609,0,0,1,1.214,0v7.454a.609.609,0,0,1-1.214,0ZM8.5,2.787a.609.609,0,0,1,1.214,0v8.09a.609.609,0,0,1-1.214,0Zm-3.038.282a.609.609,0,0,1,1.214,0v7.454a.609.609,0,0,1-1.214,0ZM2.43,4.184a.584.584,0,0,1,.607-.558.584.584,0,0,1,.607.558V9.2a.584.584,0,0,1-.607.558A.584.584,0,0,1,2.43,9.2Zm13.154,8.511A10.922,10.922,0,0,1,9.112,14.5a10.9,10.9,0,0,1-6.471-1.808.527.527,0,0,1-.066-.787.646.646,0,0,1,.855-.062,9.867,9.867,0,0,0,5.682,1.541,9.772,9.772,0,0,0,5.681-1.539.642.642,0,0,1,.855.06A.528.528,0,0,1,15.584,12.695ZM15.793,9.2a.609.609,0,0,1-1.214,0V4.184a.609.609,0,0,1,1.214,0Z" transform="translate(39.318 57.863)" fill="#094144"/>
        <path id="Path_6594" data-name="Path 6594" d="M7.032,19.138v-8.73h3.192l.477-3.4H7.032V4.827c0-.988.294-1.659,1.832-1.659h1.962V.13C10.492.093,9.321,0,7.96,0,5.135,0,3.192,1.584,3.192,4.5V7.007H0v3.4H3.192v8.73Z" transform="translate(157.953 50.621)" fill="#094144"/>
        <g id="Group_7920" data-name="Group 7920" transform="translate(129.935 107.177)">
          <path id="Path_5258" data-name="Path 5258" d="M2108.908,73.938V85.47h-9.537Z" transform="translate(-2099.371 -69.799)" fill="#03363d"/>
          <path id="Path_5259" data-name="Path 5259" d="M2108.908,71.668a4.769,4.769,0,1,1-9.537,0Zm1.587,15.669a4.769,4.769,0,0,1,9.537,0Z" transform="translate(-2099.371 -71.668)" fill="#03363d"/>
          <path id="Path_5260" data-name="Path 5260" d="M2105.47,83.2V71.668h9.537Z" transform="translate(-2094.347 -71.668)" fill="#03363d"/>
        </g>
      </g>
    </g>
    <g id="Group_9312" data-name="Group 9312" transform="translate(310.039 643.895)">
      <g id="Group_9210" data-name="Group 9210" transform="translate(0 0)">
        <path id="Path_6048" data-name="Path 6048" d="M231.531,319.1h20.655a1.492,1.492,0,0,0,1.476-1.5V302.443a1.493,1.493,0,0,0-1.476-1.5H231.531a1.492,1.492,0,0,0-1.475,1.5V317.6A1.478,1.478,0,0,0,231.531,319.1Z" transform="translate(-230.056 -300.943)" fill="#094144"/>
        <path id="Path_6049" data-name="Path 6049" d="M250.7,319.283l-8.306-6.891-.06-.368,8.564-6.36.02,13.312Z" transform="translate(-230.526 -301.123)" fill="#094144" opacity="0.1"/>
        <path id="Path_6050" data-name="Path 6050" d="M252.864,319.146a1.525,1.525,0,0,0,1.61-1.445v-14.63c0-.8-.714-.949-1.61-.949s-1.61.165-1.61.949v16.074Z" transform="translate(-230.868 -300.988)" fill="#fff"/>
        <path id="Path_6051" data-name="Path 6051" d="M237.9,319.192l15.767-15.486-.83.329-10.975,7.7-11.8-8.433v14.463a1.452,1.452,0,0,0,1.483,1.425Z" transform="translate(-230.056 -301.034)" fill="#094144"/>
        <path id="Path_6052" data-name="Path 6052" d="M241.9,312.292l11.136-8.47a1.608,1.608,0,0,0,.358-2.162,1.482,1.482,0,0,0-2.105-.331l-9.409,7.169-9.473-7.257a1.423,1.423,0,0,0-2.063.353,1.583,1.583,0,0,0,.337,2.162Z" transform="translate(-230.056 -300.943)" fill="#fff"/>
      </g>
    </g>
  </g>
</svg>
