<svg xmlns="http://www.w3.org/2000/svg" width="138" height="138" viewBox="0 0 138 138">
  <g id="Group_9370" data-name="Group 9370" transform="translate(-170 -4360)">
    <g id="Ellipse_113" data-name="Ellipse 113" transform="translate(170 4360)" fill="#fff" stroke="#35b37f" stroke-width="1">
      <circle cx="69" cy="69" r="69" stroke="none"/>
      <circle cx="69" cy="69" r="68.5" fill="none"/>
    </g>
    <g id="robot" transform="translate(178 4368)">
      <path id="Path_6488" data-name="Path 6488" d="M105.488,98.156v4.314a3.8,3.8,0,0,1-1.135,2.715A61.6,61.6,0,0,1,95.7,112.26a1.807,1.807,0,0,1-1.967.045,61.414,61.414,0,0,0-64.452-.159,2.277,2.277,0,0,1-2.478-.058,61.611,61.611,0,0,1-8.466-6.965,5.156,5.156,0,0,1-1.552-3.673V97.635a8.93,8.93,0,0,0-8.93-8.93,2.3,2.3,0,0,1-2.084-1.322,61.376,61.376,0,1,1,111.192.039,2.234,2.234,0,0,1-2.023,1.283A9.45,9.45,0,0,0,105.488,98.156Zm0,0" fill="#35b37f"/>
      <path id="Path_6489" data-name="Path 6489" d="M235.18,239.59a9.59,9.59,0,1,1-9.59-9.59A9.59,9.59,0,0,1,235.18,239.59Zm0,0" transform="translate(-164.215 -174.859)" fill="#0995a3"/>
      <path id="Path_6490" data-name="Path 6490" d="M266.372,4.795a4.791,4.791,0,0,1-8.646,2.849,16.808,16.808,0,0,0-12.931,16.331H240a21.614,21.614,0,0,1,17.2-21.13,4.793,4.793,0,0,1,9.172,1.951Zm0,0" transform="translate(-182.461 0)" fill="#013f69"/>
      <path id="Path_6491" data-name="Path 6491" d="M325.4,5A2.4,2.4,0,1,1,323,7.4,2.4,2.4,0,0,1,325.4,5Zm0,0" transform="translate(-245.562 -3.801)" fill="#015081"/>
      <path id="Path_6492" data-name="Path 6492" d="M102.166,115.679H56.614A23.975,23.975,0,0,1,32.64,91.7v-2.4A23.975,23.975,0,0,1,56.614,65.332h45.552a23.975,23.975,0,0,1,23.975,23.975v2.4A23.975,23.975,0,0,1,102.166,115.679Zm33.082,21.341a61.522,61.522,0,0,1-12.661,17.854l-8.125-8.124c-.085-.085-.167-.173-.248-.26v11.066a24.1,24.1,0,0,1-.42,4.481,61.395,61.395,0,0,1-68.808-.326,24.118,24.118,0,0,1-.36-4.155V146.92l-7.955,7.954A61.522,61.522,0,0,1,24.012,137.02l5.528-5.528a9.57,9.57,0,0,1,7.91-2.739,9.589,9.589,0,0,1,18.31-3.432A23.861,23.861,0,0,1,68.6,121.593H90.241a23.868,23.868,0,0,1,14.7,5.034,9.589,9.589,0,0,1,18.788,2.091,9.548,9.548,0,0,1,5.995,2.774Zm0,0" transform="translate(-18.255 -49.669)" fill="#258b61"/>
      <path id="Path_6493" data-name="Path 6493" d="M77.341,115.679A23.974,23.974,0,0,1,53.367,91.7v-2.4A23.975,23.975,0,0,1,77.341,65.332h36.2a23.975,23.975,0,0,1,23.975,23.975v2.4a23.974,23.974,0,0,1-23.975,23.975ZM58.4,138.867a9.586,9.586,0,0,1-8.265-4.727A9.533,9.533,0,0,0,46,136.578L38.977,143.6a61.712,61.712,0,0,0,9.073,11.269l8.125-8.124a9.571,9.571,0,0,0,2.743-7.9C58.746,138.861,58.575,138.867,58.4,138.867Zm82.7-7.375a9.551,9.551,0,0,0-5.995-2.776c.011.185.018.372.018.561a9.592,9.592,0,0,1-6.372,9.034,9.534,9.534,0,0,0,2.177,3.352l7.878,7.879a61.383,61.383,0,0,0,7.822-12.522Zm-25.156-2.215a9.606,9.606,0,0,1,.406-2.763,23.864,23.864,0,0,0-14.551-4.921H89.569a23.974,23.974,0,0,0-23.975,23.975v11.987a23.877,23.877,0,0,0,2.359,10.382,61.455,61.455,0,0,0,57.423-6.037,24.075,24.075,0,0,0,.394-4.345V145.567a24.007,24.007,0,0,0-.959-6.731A9.589,9.589,0,0,1,115.941,129.277Zm0,0" transform="translate(-29.632 -49.669)" fill="#fff"/>
      <path id="Path_6494" data-name="Path 6494" d="M177.025,126.909H135.789a10.789,10.789,0,1,1,0-21.577h41.236a10.789,10.789,0,1,1,0,21.577Zm0,0" transform="translate(-95.032 -80.079)" fill="#013f69"/>
      <path id="Path_6495" data-name="Path 6495" d="M196.031,126.909H160.789a10.789,10.789,0,1,1,0-21.577h35.243a10.789,10.789,0,1,1,0,21.577Zm0,0" transform="translate(-114.038 -80.079)" fill="#015081"/>
      <path id="Path_6496" data-name="Path 6496" d="M175.994,125.332a5.994,5.994,0,1,0,5.994,5.994A5.994,5.994,0,0,0,175.994,125.332Zm0,8.391a2.4,2.4,0,1,1,2.4-2.4A2.4,2.4,0,0,1,175.994,133.723Zm28.769-8.391a5.994,5.994,0,1,0,5.994,5.994A5.994,5.994,0,0,0,204.763,125.332Zm0,8.391a2.4,2.4,0,1,1,2.4-2.4A2.4,2.4,0,0,1,204.763,133.723Zm0,0" transform="translate(-129.243 -95.284)" fill="#84deea"/>
      <path id="Path_6497" data-name="Path 6497" d="M109.59,316.846a4.795,4.795,0,1,1-4.795-4.795A4.8,4.8,0,0,1,109.59,316.846Zm62.334-4.795a4.795,4.795,0,1,0,4.795,4.795A4.795,4.795,0,0,0,171.924,312.051Zm0,0" transform="translate(-76.025 -237.238)" fill="#84deea"/>
      <path id="Path_6498" data-name="Path 6498" d="M123.512,317.959a4.793,4.793,0,0,1-3,4.443,4.819,4.819,0,0,1-2.132-1.7.384.384,0,0,1,.327-.6h.007a2.138,2.138,0,1,0-.013-4.275.383.383,0,0,1-.321-.6,4.812,4.812,0,0,1,2.133-1.7A4.794,4.794,0,0,1,123.512,317.959Zm64.132-4.444a4.8,4.8,0,0,0-2.132,1.7.382.382,0,0,0,.32.6,2.193,2.193,0,0,1,.537.065,2.138,2.138,0,0,1-.523,4.211h-.008a.384.384,0,0,0-.326.6,4.8,4.8,0,0,0,2.132,1.7,4.792,4.792,0,0,0,0-8.887Zm0,0" transform="translate(-89.948 -238.352)" fill="#d3f1f5"/>
      <path id="Path_6499" data-name="Path 6499" d="M299.59,330a2.4,2.4,0,1,1-2.4,2.4A2.4,2.4,0,0,1,299.59,330ZM290,332.4a2.4,2.4,0,1,0,2.4-2.4A2.4,2.4,0,0,0,290,332.4Zm0,0" transform="translate(-220.474 -250.884)" fill="#0995a3"/>
      <path id="Path_6500" data-name="Path 6500" d="M262.4,330a2.4,2.4,0,1,1-2.4,2.4A2.4,2.4,0,0,1,262.4,330Zm0,0" transform="translate(-197.666 -250.884)" fill="#84deea"/>
    </g>
  </g>
</svg>
