<svg xmlns="http://www.w3.org/2000/svg" width="50" height="50" viewBox="0 0 50 50">
  <g id="Group_9328" data-name="Group 9328" transform="translate(-986.473 -1300.333)">
    <path id="Path_6657" data-name="Path 6657" d="M552.489,50.6a25,25,0,1,0-25-25A25,25,0,0,0,552.489,50.6Z" transform="translate(458.984 1299.732)" fill="#52bd95" opacity="0.183"/>
    <g id="forum-24px_1_" data-name="forum-24px (1)" transform="translate(993.973 1307.833)">
      <path id="Path_6473" data-name="Path 6473" d="M0,0H35V35H0Z" fill="none"/>
      <path id="Path_6474" data-name="Path 6474" d="M28.238,7.831H26.78V19.492a1.462,1.462,0,0,1-1.458,1.458H7.831v1.458a2.924,2.924,0,0,0,2.915,2.915H25.322l5.831,5.831V10.746A2.924,2.924,0,0,0,28.238,7.831Zm-4.373,7.288V4.915A2.924,2.924,0,0,0,20.949,2H4.915A2.924,2.924,0,0,0,2,4.915V23.865l5.831-5.831H20.949A2.924,2.924,0,0,0,23.865,15.119Z" transform="translate(0.924 0.924)" fill="#03363d"/>
    </g>
  </g>
</svg>
