<svg xmlns="http://www.w3.org/2000/svg" width="299.966" height="277.605" viewBox="0 0 299.966 277.605">
  <g id="Group_9371" data-name="Group 9371" transform="translate(-40.047 -1840.865)">
    <path id="Path_6649" data-name="Path 6649" d="M672.327,278.205c79.992,0,144.838-62.144,144.838-138.8S752.318.6,672.327.6,527.489,62.744,527.489,139.4,592.335,278.205,672.327,278.205Z" transform="translate(-487.442 1840.265)" fill="#f5f9fe"/>
    <g id="check_circle-24px" transform="translate(260.541 2025.231)" opacity="0.049">
      <path id="Path_6637" data-name="Path 6637" d="M0,0H79.472V79.472H0Z" fill="none"/>
      <path id="Path_6638" data-name="Path 6638" d="M35.113,2A33.113,33.113,0,1,0,68.227,35.113,33.125,33.125,0,0,0,35.113,2ZM28.491,51.67,11.934,35.113,16.6,30.444,28.491,42.3,53.624,17.166l4.669,4.7Z" transform="translate(4.623 4.623)" fill="#0b5fff"/>
    </g>
  </g>
</svg>
