<svg xmlns="http://www.w3.org/2000/svg" width="61.315" height="61.315" viewBox="0 0 61.315 61.315">
  <g id="pie_chart-24px_1_" data-name="pie_chart-24px (1)" transform="matrix(0.819, -0.574, 0.574, 0.819, 0, 25.252)" opacity="0.19">
    <path id="Path_6479" data-name="Path 6479" d="M0,0H44.025V44.025H0Z" fill="none"/>
    <path id="Path_6480" data-name="Path 6480" d="M18.51,4.018V36.377a1.831,1.831,0,0,1-2.22,1.8,18.453,18.453,0,0,1,0-35.954,1.831,1.831,0,0,1,2.22,1.8Zm3.724,0V16.51a1.84,1.84,0,0,0,1.834,1.834H36.523a1.838,1.838,0,0,0,1.8-2.238A18.426,18.426,0,0,0,24.471,2.22a1.838,1.838,0,0,0-2.238,1.8Zm0,19.866V36.377a1.838,1.838,0,0,0,2.238,1.8,18.444,18.444,0,0,0,13.868-13.9,1.855,1.855,0,0,0-1.8-2.238H24.086a1.871,1.871,0,0,0-1.853,1.853Z" transform="translate(1.669 1.815)" fill="#094144"/>
  </g>
</svg>
