<svg xmlns="http://www.w3.org/2000/svg" width="50" height="50" viewBox="0 0 50 50">
  <g id="Group_9328" data-name="Group 9328" transform="translate(-986.473 -1300.333)">
    <path id="Path_6657" data-name="Path 6657" d="M552.489,50.6a25,25,0,1,0-25-25A25,25,0,0,0,552.489,50.6Z" transform="translate(458.984 1299.732)" fill="#52bd95" opacity="0.183"/>
    <g id="groups-24px" transform="translate(995.457 1309)">
      <rect id="Rectangle_4232" data-name="Rectangle 4232" width="33" height="33" fill="none"/>
      <g id="Group_9338" data-name="Group 9338" transform="translate(0 8.168)">
        <path id="Path_6662" data-name="Path 6662" d="M16.335,15.189a14.444,14.444,0,0,1,5.772,1.225,4.063,4.063,0,0,1,2.4,3.716v2.205H8.168V20.144a4.034,4.034,0,0,1,2.4-3.716A14.212,14.212,0,0,1,16.335,15.189Zm-10.89.34a2.723,2.723,0,1,0-2.723-2.723A2.731,2.731,0,0,0,5.445,15.529Zm1.538,1.5a9.505,9.505,0,0,0-1.538-.136,9.462,9.462,0,0,0-3.784.79A2.737,2.737,0,0,0,0,20.2v2.137H6.126V20.144A6.124,6.124,0,0,1,6.983,17.026Zm20.242-1.5A2.723,2.723,0,1,0,24.5,12.806,2.731,2.731,0,0,0,27.226,15.529ZM32.671,20.2A2.737,2.737,0,0,0,31.01,17.68a9.254,9.254,0,0,0-5.323-.653,6.124,6.124,0,0,1,.858,3.117v2.192h6.126ZM16.335,6a4.084,4.084,0,1,1-4.084,4.084A4.078,4.078,0,0,1,16.335,6Z" transform="translate(0 -6)" fill="#094144"/>
      </g>
    </g>
  </g>
</svg>
