<svg xmlns="http://www.w3.org/2000/svg" width="50" height="50" viewBox="0 0 50 50">
  <g id="Group_9327" data-name="Group 9327" transform="translate(-589.935 -1300.304)">
    <path id="Path_6656" data-name="Path 6656" d="M552.489,50.6a25,25,0,1,0-25-25A25,25,0,0,0,552.489,50.6Z" transform="translate(62.446 1299.704)" fill="#52bd95" opacity="0.183"/>
    <g id="pie_chart-24px_1_" data-name="pie_chart-24px (1)" transform="translate(597.438 1307.808)">
      <path id="Path_6479" data-name="Path 6479" d="M0,0H34.992V34.992H0Z" fill="none"/>
      <path id="Path_6480" data-name="Path 6480" d="M15.122,3.64V29.359a1.455,1.455,0,0,1-1.764,1.429,14.667,14.667,0,0,1,0-28.577A1.455,1.455,0,0,1,15.122,3.64Zm2.96,0v9.929a1.462,1.462,0,0,0,1.458,1.458h9.9a1.461,1.461,0,0,0,1.429-1.779A14.646,14.646,0,0,0,19.861,2.211,1.461,1.461,0,0,0,18.082,3.64Zm0,15.79v9.929a1.461,1.461,0,0,0,1.779,1.429A14.66,14.66,0,0,0,30.883,19.737a1.474,1.474,0,0,0-1.429-1.779h-9.9a1.487,1.487,0,0,0-1.473,1.473Z" transform="translate(0.916 0.996)" fill="#094144"/>
    </g>
  </g>
</svg>
