<svg xmlns="http://www.w3.org/2000/svg" width="15" height="15" viewBox="0 0 15 15"><defs><style>.a{fill:#00875a;}.b{fill:#091e42;}.c{fill:#f2f1ef;}.d{fill:#e6e5e3;}</style></defs><circle class="a" cx="7.5" cy="7.5" r="7.5" transform="translate(0 0)"/><path class="b" d="M245.563,114.609l-5.317,8.192.009.881h.244l5.758-6.906A11.5,11.5,0,0,0,245.563,114.609Z" transform="translate(-232.539 -111.876)"/><path class="c" d="M108.019,56.811,106.525,55.2a.5.5,0,0,0-.74,0L99.4,62.37l-2.763-2.959a.5.5,0,0,0-.74,0l-1.322,1.422a.6.6,0,0,0,0,.79l4.416,4.755a.681.681,0,0,0,.873,0l8.158-8.763A.618.618,0,0,0,108.019,56.811Z" transform="translate(-93.175 -53.727)"/><path class="d" d="M100.244,106.615l8.16-8.349a.551.551,0,0,0,0-.753l-.238-.233-8.372,8.514-4.629-4.667-.2.205a.55.55,0,0,0,0,.753l4.417,4.531a.526.526,0,0,0,.436.151A.513.513,0,0,0,100.244,106.615Z" transform="translate(-93.56 -94.96)"/></svg>