<svg xmlns="http://www.w3.org/2000/svg" width="30.02" height="30.02" viewBox="0 0 30.02 30.02"><defs><style>.a{fill:#004fd4;}.b{fill:#0065ff;}</style></defs><path class="a" d="M39.969,43.773l6.738-3.494-6.738-3.515Z" transform="translate(-27.694 -25.473)"/><path class="b" d="M15.01,0A15.01,15.01,0,1,0,30.02,15.01,15.01,15.01,0,0,0,15.01,0ZM25.237,20.02A2.678,2.678,0,0,1,22.946,22.1a71.08,71.08,0,0,1-7.936.294A71.107,71.107,0,0,1,7.072,22.1a2.676,2.676,0,0,1-2.29-2.082,22.69,22.69,0,0,1-.369-5.01A22.689,22.689,0,0,1,4.786,10a2.677,2.677,0,0,1,2.29-2.083,71.181,71.181,0,0,1,7.938-.294,71.151,71.151,0,0,1,7.936.294A2.677,2.677,0,0,1,25.241,10a22.687,22.687,0,0,1,.366,5.01A22.689,22.689,0,0,1,25.237,20.02Z"/></svg>