<svg xmlns="http://www.w3.org/2000/svg" width="25" height="25" viewBox="0 0 49 38"><defs><style>.a{fill:#707070;}</style></defs><g transform="translate(0 -39.159)"><path class="a" d="M10.1,54.227c.6-3.751,5.3-7.757,8.977-7.843a.972.972,0,0,0,.684-.256.7.7,0,0,0,.427-.426c1.282-2.387.6-4.262-1.539-5.8-2.479-1.79-6.412,0-8.378,1.62-4.958,4.092-10,11.167-9.746,17.9a28.113,28.113,0,0,0,.6,13.384c.855,2.557,3.334,3.836,5.9,4.007s7.865.938,10.173-.6,2.479-4.518,2.736-7.075c.256-2.813,1.026-8.1-1.368-10.315C16.173,56.7,9.334,59,10.1,54.227Z" transform="translate(0)"/><path class="a" d="M212.063,54.227c.6-3.751,5.3-7.757,8.977-7.843a.972.972,0,0,0,.684-.256.7.7,0,0,0,.428-.426c1.282-2.387.6-4.262-1.539-5.8-2.479-1.79-6.412,0-8.378,1.62-4.958,4.092-10,11.167-9.746,17.9a28.115,28.115,0,0,0,.6,13.384c.855,2.557,3.334,3.836,5.9,4.007s7.865.938,10.173-.6,2.479-4.518,2.736-7.075c.256-2.813,1.026-8.1-1.368-10.315C218.133,56.7,211.208,59,212.063,54.227Z" transform="translate(-173.798)"/></g></svg>