<svg id="support-24px" xmlns="http://www.w3.org/2000/svg" width="42.905" height="42.905" viewBox="0 0 42.905 42.905">
  <g id="Group_9313" data-name="Group 9313">
    <rect id="Rectangle_4214" data-name="Rectangle 4214" width="42.905" height="42.905" fill="none"/>
  </g>
  <g id="Group_9314" data-name="Group 9314" transform="translate(3.538 3.538)">
    <path id="Path_6640" data-name="Path 6640" d="M19.692,2A17.692,17.692,0,1,0,37.383,19.692,17.7,17.7,0,0,0,19.692,2Zm13.2,12.6-4.918,2.035a8.814,8.814,0,0,0-5.219-5.2l2.035-4.918A14.087,14.087,0,0,1,32.89,14.6ZM19.692,25A5.308,5.308,0,1,1,25,19.692,5.3,5.3,0,0,1,19.692,25ZM14.614,6.494l2.07,4.918a8.846,8.846,0,0,0-5.272,5.254L6.494,14.614A14.126,14.126,0,0,1,14.614,6.494ZM6.494,24.769l4.918-2.035a8.79,8.79,0,0,0,5.254,5.237L14.6,32.89A14.146,14.146,0,0,1,6.494,24.769ZM24.787,32.89l-2.035-4.918a8.807,8.807,0,0,0,5.219-5.254l4.918,2.07A14.167,14.167,0,0,1,24.787,32.89Z" transform="translate(-2 -2)" fill="#becccb"/>
  </g>
</svg>
