<svg xmlns="http://www.w3.org/2000/svg" xmlns:xlink="http://www.w3.org/1999/xlink" width="811.884" height="449" viewBox="0 0 811.884 449">
  <defs>
    <filter id="Rectangle_4254" x="0" y="0" width="811.884" height="449" filterUnits="userSpaceOnUse">
      <feOffset dy="10" input="SourceAlpha"/>
      <feGaussianBlur stdDeviation="12" result="blur"/>
      <feFlood flood-color="#686a6c" flood-opacity="0.078"/>
      <feComposite operator="in" in2="blur"/>
      <feComposite in="SourceGraphic"/>
    </filter>
  </defs>
  <g id="Group_9388" data-name="Group 9388" transform="translate(-177.175 -2417)">
    <g transform="matrix(1, 0, 0, 1, 177.18, 2417)" filter="url(#Rectangle_4254)">
      <g id="Rectangle_4254-2" data-name="Rectangle 4254" transform="translate(36 26)" fill="#fff" stroke="#c3c0c0" stroke-width="0.5">
        <path d="M10,0H739.884a0,0,0,0,1,0,0V377a0,0,0,0,1,0,0H10A10,10,0,0,1,0,367V10A10,10,0,0,1,10,0Z" stroke="none"/>
        <path d="M10,.25H739.384a.25.25,0,0,1,.25.25v376a.25.25,0,0,1-.25.25H10A9.75,9.75,0,0,1,.25,367V10A9.75,9.75,0,0,1,10,.25Z" fill="none"/>
      </g>
    </g>
    <path id="Path_6706" data-name="Path 6706" d="M1.053-16.254H6.075V0H9.153V-16.254h4.995v-2.511H1.053Zm30.375,8.8a7.337,7.337,0,0,0-7.587-7.668,7.337,7.337,0,0,0-7.587,7.668c0,4.671,3.213,7.695,7.452,7.695A7.452,7.452,0,0,0,31.428-7.452Zm-12.042,0c0-3.375,2.079-4.995,4.4-4.995,2.3,0,4.482,1.62,4.482,4.995S26-2.43,23.706-2.43C21.384-2.43,19.386-4.077,19.386-7.452ZM37.557-12.69v-2.187H34.479V7.074h3.078V-2.16a6.726,6.726,0,0,0,5.184,2.4c3.915,0,6.993-3.159,6.993-7.749s-3.078-7.614-6.993-7.614A6.491,6.491,0,0,0,37.557-12.69ZM46.6-7.506c0,3.213-2.214,5.076-4.536,5.076-2.295,0-4.509-1.809-4.509-5.022,0-3.186,2.214-4.995,4.509-4.995A4.569,4.569,0,0,1,46.6-7.506ZM61.506,0h3.105V-19.683H58.995v2.808h2.511ZM68.85-10.1c0,5.724,1.512,10.044,7.02,10.044s7.02-4.32,7.02-10.044c0-5.616-1.512-9.936-7.02-9.936S68.85-15.714,68.85-10.1Zm11.016,0c0,3.861-.4,7.236-4,7.236s-4-3.375-4-7.236c0-3.672.405-7.128,4-7.128S79.866-13.77,79.866-10.1ZM92.61-16.254h5.022V0h3.078V-16.254h5v-2.511H92.61ZM111.888-7.83c0-3.159,1.4-4.1,3.672-4.1h.783V-15.12a4.846,4.846,0,0,0-4.455,2.4v-2.16H108.81V0h3.078Zm13.554-4.7A3.863,3.863,0,0,1,129.6-8.775h-8.235A4.052,4.052,0,0,1,125.442-12.528Zm6.966,8.1h-3.321a3.6,3.6,0,0,1-3.51,2.079,4.092,4.092,0,0,1-4.239-3.942h11.367a9.5,9.5,0,0,0,.108-1.512,6.938,6.938,0,0,0-7.236-7.317c-4.4,0-7.425,3-7.425,7.668S121.311.243,125.577.243A6.8,6.8,0,0,0,132.408-4.428ZM146.394,0h3.051V-8.775c0-4.158-2.619-6.345-6.1-6.345a5.723,5.723,0,0,0-4.428,1.944v-1.7h-3.078V0h3.078V-8.316c0-2.727,1.485-4.131,3.753-4.131,2.241,0,3.726,1.4,3.726,4.131Zm5.94-7.506c0,4.59,3.105,7.749,7.02,7.749a6.168,6.168,0,0,0,5.157-2.484V0h3.105V-19.98h-3.105V-12.8a6.852,6.852,0,0,0-5.13-2.322C155.439-15.12,152.334-12.1,152.334-7.506Zm12.177.054c0,3.213-2.187,5.022-4.509,5.022-2.3,0-4.509-1.863-4.509-5.076s2.214-4.941,4.509-4.941C162.324-12.447,164.511-10.638,164.511-7.452ZM171.666,0h3.078V-14.877h-3.078Zm1.566-16.848a1.942,1.942,0,0,0,1.944-1.971,1.942,1.942,0,0,0-1.944-1.971,1.948,1.948,0,0,0-1.971,1.971A1.948,1.948,0,0,0,173.232-16.848ZM189.351,0H192.4V-8.775c0-4.158-2.619-6.345-6.1-6.345a5.723,5.723,0,0,0-4.428,1.944v-1.7h-3.078V0h3.078V-8.316c0-2.727,1.485-4.131,3.753-4.131,2.241,0,3.726,1.4,3.726,4.131Zm5.94-7.506c0,4.59,3.105,7.749,7.02,7.749a6.386,6.386,0,0,0,5.157-2.484V.243c0,2.97-1.782,4.428-4.158,4.428-2.133,0-3.78-1.053-4.239-2.592H196.02c.378,3.294,3.321,5.265,7.29,5.265,4.644,0,7.263-3.051,7.263-7.1v-15.12h-3.105v2.16a6.3,6.3,0,0,0-5.157-2.4C198.4-15.12,195.291-12.1,195.291-7.506Zm12.177.054c0,3.213-2.187,5.022-4.509,5.022-2.3,0-4.509-1.863-4.509-5.076s2.214-4.941,4.509-4.941C205.281-12.447,207.468-10.638,207.468-7.452Zm13.2-8.8h5.022V0h3.078V-16.254h4.995v-2.511h-13.1Zm15.174,8.748c0,4.59,3.105,7.749,6.966,7.749a6.4,6.4,0,0,0,5.211-2.457V0h3.105V-14.877h-3.105v2.16a6.332,6.332,0,0,0-5.157-2.4C238.95-15.12,235.845-12.1,235.845-7.506Zm12.177.054c0,3.213-2.187,5.022-4.509,5.022-2.3,0-4.509-1.863-4.509-5.076s2.214-4.941,4.509-4.941C245.835-12.447,248.022-10.638,248.022-7.452Zm6.129-.054c0,4.59,3.1,7.749,7.02,7.749a6.386,6.386,0,0,0,5.157-2.484V.243c0,2.97-1.782,4.428-4.158,4.428-2.133,0-3.78-1.053-4.239-2.592H254.88c.378,3.294,3.321,5.265,7.29,5.265,4.644,0,7.263-3.051,7.263-7.1v-15.12h-3.1v2.16a6.3,6.3,0,0,0-5.157-2.4C257.256-15.12,254.151-12.1,254.151-7.506Zm12.177.054c0,3.213-2.187,5.022-4.509,5.022-2.3,0-4.509-1.863-4.509-5.076s2.214-4.941,4.509-4.941C264.141-12.447,266.328-10.638,266.328-7.452ZM284.58-4.158c-.162-5.373-8.559-3.7-8.559-6.7,0-1,.864-1.674,2.511-1.674,1.674,0,2.673.891,2.781,2.187h3.078c-.162-2.97-2.376-4.779-5.751-4.779-3.51,0-5.724,1.917-5.724,4.293,0,5.454,8.64,3.78,8.64,6.7,0,1.026-.945,1.782-2.727,1.782a2.714,2.714,0,0,1-2.97-2.214h-3.186c.135,2.7,2.646,4.806,6.21,4.806C282.393.243,284.58-1.647,284.58-4.158Z" transform="translate(258.722 2524.014)" fill="#03363d"/>
    <path id="Path_6707" data-name="Path 6707" d="M2.448-6.282c0-3.078,1.98-4.986,4.626-4.986S11.7-9.36,11.7-6.282C11.7-3.222,9.72-1.3,7.074-1.3S2.448-3.222,2.448-6.282Zm10.926,0a6.178,6.178,0,0,0-6.3-6.408,6.189,6.189,0,0,0-6.3,6.408A6.189,6.189,0,0,0,7.074.126,7.12,7.12,0,0,0,8.946-.126l2.5,2.5h2.124L10.4-.774A6.254,6.254,0,0,0,13.374-6.282ZM16.6,0h1.656V-13.014H14.868v1.494H16.6Zm6.336-1.008a1.091,1.091,0,0,0-1.08-1.116,1.1,1.1,0,0,0-1.116,1.116A1.1,1.1,0,0,0,21.852.108,1.091,1.091,0,0,0,22.932-1.008ZM37.944,0h1.638V-12.546H37.944v5.508h-6.39v-5.508H29.916V0h1.638V-5.688h6.39Zm13.77-4.95a4.815,4.815,0,0,0-4.986-5.076A4.825,4.825,0,0,0,41.742-4.95,4.789,4.789,0,0,0,46.656.162,4.891,4.891,0,0,0,51.714-4.95Zm-8.3,0c0-2.484,1.566-3.654,3.294-3.654A3.314,3.314,0,0,1,50.04-4.95a3.349,3.349,0,0,1-3.384,3.672C44.946-1.278,43.416-2.448,43.416-4.95ZM55.8,0h1.692l2.376-7.83L62.244,0h1.692l3.078-9.864h-1.62l-2.232,8.3-2.394-8.3H59.094l-2.448,8.28-2.268-8.28H52.7ZM80.532-2.682c-.072-3.528-5.8-2.25-5.8-4.59,0-.792.72-1.368,1.926-1.368A1.9,1.9,0,0,1,78.8-6.93h1.638c-.108-1.926-1.548-3.1-3.726-3.1-2.2,0-3.618,1.242-3.618,2.754,0,3.672,5.832,2.394,5.832,4.59,0,.81-.72,1.458-2.016,1.458-1.386,0-2.232-.72-2.322-1.674H72.9c.108,1.8,1.728,3.06,4.032,3.06C79.11.162,80.532-1.062,80.532-2.682Zm1.692-2.286c0,3.06,2.034,5.13,4.662,5.13a4.12,4.12,0,0,0,3.69-2V0h1.656V-9.864H90.576v1.8A4.094,4.094,0,0,0,86.9-10.026C84.258-10.026,82.224-8.046,82.224-4.968Zm8.352.018a3.375,3.375,0,0,1-3.348,3.672,3.378,3.378,0,0,1-3.33-3.69A3.331,3.331,0,0,1,87.228-8.6,3.38,3.38,0,0,1,90.576-4.95ZM95.364-2.7c0,1.98.99,2.7,2.736,2.7h1.476V-1.386H98.37C97.362-1.386,97-1.728,97-2.7V-8.514h2.574v-1.35H97v-2.484H95.364v2.484H94.086v1.35h1.278ZM101.556,0h1.638V-9.864h-1.638Zm.846-11.466a1.091,1.091,0,0,0,1.08-1.116A1.091,1.091,0,0,0,102.4-13.7a1.1,1.1,0,0,0-1.116,1.116A1.1,1.1,0,0,0,102.4-11.466Zm10.674,8.784c-.072-3.528-5.8-2.25-5.8-4.59,0-.792.72-1.368,1.926-1.368a1.9,1.9,0,0,1,2.142,1.71h1.638c-.108-1.926-1.548-3.1-3.726-3.1-2.2,0-3.618,1.242-3.618,2.754,0,3.672,5.832,2.394,5.832,4.59,0,.81-.72,1.458-2.016,1.458-1.386,0-2.232-.72-2.322-1.674h-1.692c.108,1.8,1.728,3.06,4.032,3.06C111.654.162,113.076-1.062,113.076-2.682ZM115.686,0h1.638V-8.514h2.07v-1.35h-2.07v-.7c0-1.278.486-1.818,1.962-1.818v-1.368c-2.52,0-3.6.99-3.6,3.186v.7h-1.278v1.35h1.278ZM121.3,0h1.638V-9.864H121.3Zm.846-11.466a1.091,1.091,0,0,0,1.08-1.116,1.091,1.091,0,0,0-1.08-1.116,1.1,1.1,0,0,0-1.116,1.116A1.1,1.1,0,0,0,122.148-11.466Zm7.776,2.826a2.894,2.894,0,0,1,3.114,2.988H126.81A3.055,3.055,0,0,1,129.924-8.64Zm4.608,5.6h-1.764A2.711,2.711,0,0,1,130-1.224a3.1,3.1,0,0,1-3.2-3.1h7.884a8.877,8.877,0,0,0,.054-.99A4.522,4.522,0,0,0,130-10.026c-2.88,0-4.878,1.962-4.878,5.076A4.752,4.752,0,0,0,130,.162,4.435,4.435,0,0,0,134.532-3.042Zm1.746-1.926c0,3.06,2.034,5.13,4.68,5.13a4.051,4.051,0,0,0,3.672-2.016V0h1.656V-13.32H144.63V-8.1a4.3,4.3,0,0,0-3.654-1.926C138.312-10.026,136.278-8.046,136.278-4.968Zm8.352.018a3.375,3.375,0,0,1-3.348,3.672,3.378,3.378,0,0,1-3.33-3.69,3.331,3.331,0,0,1,3.33-3.636A3.38,3.38,0,0,1,144.63-4.95Zm8.622-.018c0,3.06,2.034,5.13,4.662,5.13a4.12,4.12,0,0,0,3.69-2V0h1.656V-9.864H161.6v1.8a4.094,4.094,0,0,0-3.672-1.962C155.286-10.026,153.252-8.046,153.252-4.968Zm8.352.018a3.375,3.375,0,0,1-3.348,3.672,3.378,3.378,0,0,1-3.33-3.69,3.331,3.331,0,0,1,3.33-3.636A3.38,3.38,0,0,1,161.6-4.95Zm6.066-.414c0-2.286,1.188-2.988,2.754-2.988h.432v-1.692a3.322,3.322,0,0,0-3.186,1.782v-1.6h-1.638V0h1.638Zm9.27-3.276a2.894,2.894,0,0,1,3.114,2.988h-6.228A3.055,3.055,0,0,1,176.94-8.64Zm4.608,5.6h-1.764a2.711,2.711,0,0,1-2.772,1.818,3.1,3.1,0,0,1-3.2-3.1h7.884a8.88,8.88,0,0,0,.054-.99,4.522,4.522,0,0,0-4.734-4.716c-2.88,0-4.878,1.962-4.878,5.076A4.752,4.752,0,0,0,177.012.162,4.435,4.435,0,0,0,181.548-3.042Zm10.908,1.17-3.1-7.992h-1.818L191.52-.108l-1.944,4.752h1.692l5.94-14.508h-1.692Zm15.75-3.078a4.815,4.815,0,0,0-4.986-5.076,4.825,4.825,0,0,0-4.986,5.076A4.789,4.789,0,0,0,203.148.162,4.891,4.891,0,0,0,208.206-4.95Zm-8.3,0c0-2.484,1.566-3.654,3.294-3.654a3.314,3.314,0,0,1,3.33,3.654,3.349,3.349,0,0,1-3.384,3.672C201.438-1.278,199.908-2.448,199.908-4.95Zm19.206-4.914h-1.638v5.418c0,2.124-1.134,3.168-2.826,3.168-1.656,0-2.754-1.026-2.754-3.024V-9.864h-1.62v5.778a3.848,3.848,0,0,0,4.05,4.23,3.626,3.626,0,0,0,3.15-1.6V0h1.638ZM228.618,0h1.692l2.376-7.83L235.062,0h1.692l3.078-9.864h-1.62l-2.232,8.3-2.394-8.3h-1.674l-2.448,8.28L227.2-9.864h-1.674Zm12.834,0h1.638V-9.864h-1.638Zm.846-11.466a1.091,1.091,0,0,0,1.08-1.116A1.091,1.091,0,0,0,242.3-13.7a1.1,1.1,0,0,0-1.116,1.116A1.1,1.1,0,0,0,242.3-11.466ZM246.24-2.7c0,1.98.99,2.7,2.736,2.7h1.476V-1.386h-1.206c-1.008,0-1.368-.342-1.368-1.314V-8.514h2.574v-1.35h-2.574v-2.484H246.24v2.484h-1.278v1.35h1.278ZM252.432,0h1.638V-5.454c0-2.124,1.152-3.168,2.826-3.168,1.656,0,2.754,1.026,2.754,3.042V0h1.62V-5.814c0-2.826-1.746-4.23-3.942-4.23a3.712,3.712,0,0,0-3.258,1.6V-13.32h-1.638Zm16.686-2.7c0,1.98.99,2.7,2.736,2.7h1.476V-1.386h-1.206c-1.008,0-1.368-.342-1.368-1.314V-8.514h2.574v-1.35h-2.574v-2.484h-1.638v2.484H267.84v1.35h1.278ZM275.31,0h1.638V-5.454c0-2.124,1.152-3.168,2.826-3.168,1.656,0,2.754,1.026,2.754,3.042V0h1.62V-5.814c0-2.826-1.746-4.23-3.942-4.23a3.712,3.712,0,0,0-3.258,1.6V-13.32H275.31Zm15.714-8.64a2.894,2.894,0,0,1,3.114,2.988H287.91A3.055,3.055,0,0,1,291.024-8.64Zm4.608,5.6h-1.764A2.711,2.711,0,0,1,291.1-1.224a3.1,3.1,0,0,1-3.2-3.1h7.884a8.877,8.877,0,0,0,.054-.99,4.522,4.522,0,0,0-4.734-4.716c-2.88,0-4.878,1.962-4.878,5.076A4.752,4.752,0,0,0,291.1.162,4.435,4.435,0,0,0,295.632-3.042Zm8.8-3.546V-11.2h2.412c1.872,0,2.664.864,2.664,2.322,0,1.4-.792,2.286-2.664,2.286Zm6.75-2.286c0-2.052-1.386-3.672-4.338-3.672H302.8V0h1.638V-5.238h2.412C309.96-5.238,311.184-6.966,311.184-8.874Zm8.748.018c0,1.4-.81,2.412-2.664,2.412h-2.412V-11.2h2.412C319.14-11.2,319.932-10.278,319.932-8.856Zm-6.714-3.69V0h1.638V-5.13h1.98L319.824,0h1.962l-3.15-5.256a3.538,3.538,0,0,0,2.988-3.6c0-2.052-1.4-3.69-4.356-3.69ZM336.15-6.282a6.178,6.178,0,0,0-6.3-6.408,6.189,6.189,0,0,0-6.3,6.408,6.189,6.189,0,0,0,6.3,6.408A6.178,6.178,0,0,0,336.15-6.282Zm-10.926,0c0-3.078,1.98-4.986,4.626-4.986s4.626,1.908,4.626,4.986c0,3.06-1.98,4.986-4.626,4.986S325.224-3.222,325.224-6.282Zm16.992-6.264H338.31V0h3.906c4.122,0,6.66-2.358,6.66-6.246S346.338-12.546,342.216-12.546Zm-2.268,11.2v-9.864h2.268c3.276,0,4.986,1.908,4.986,4.968s-1.71,4.9-4.986,4.9ZM351-4.626A4.382,4.382,0,0,0,355.716.126a4.4,4.4,0,0,0,4.734-4.752v-7.92h-1.638v7.938c0,2.3-1.224,3.294-3.078,3.294s-3.1-.99-3.1-3.294v-7.938H351Zm11.574-1.656a6.155,6.155,0,0,0,6.264,6.39,5.9,5.9,0,0,0,5.814-3.762H372.69a3.959,3.959,0,0,1-3.852,2.34c-2.628,0-4.59-1.908-4.59-4.968,0-3.078,1.962-4.986,4.59-4.986A3.947,3.947,0,0,1,372.69-8.91h1.962a5.905,5.905,0,0,0-5.814-3.8A6.185,6.185,0,0,0,362.574-6.282Zm13.734-4.932h3.438V0h1.638V-11.214h3.42v-1.332h-8.5ZM386.388,3.06h1.62l4.932-20.016H391.3Zm13.194-9.342a6.155,6.155,0,0,0,6.264,6.39,5.9,5.9,0,0,0,5.814-3.762H409.7a3.959,3.959,0,0,1-3.852,2.34c-2.628,0-4.59-1.908-4.59-4.968,0-3.078,1.962-4.986,4.59-4.986A3.947,3.947,0,0,1,409.7-8.91h1.962a5.905,5.905,0,0,0-5.814-3.8A6.185,6.185,0,0,0,399.582-6.282Zm26.5,0a6.178,6.178,0,0,0-6.3-6.408,6.189,6.189,0,0,0-6.3,6.408,6.189,6.189,0,0,0,6.3,6.408A6.178,6.178,0,0,0,426.078-6.282Zm-10.926,0c0-3.078,1.98-4.986,4.626-4.986S424.4-9.36,424.4-6.282c0,3.06-1.98,4.986-4.626,4.986S415.152-3.222,415.152-6.282ZM428.238,0h1.638V-9.306L434.034,0h1.152l4.14-9.288V0h1.638V-12.456h-1.746L434.61-2.16,430-12.456h-1.764Zm17.136-6.588V-11.2h2.412c1.872,0,2.664.864,2.664,2.322,0,1.4-.792,2.286-2.664,2.286Zm6.75-2.286c0-2.052-1.386-3.672-4.338-3.672h-4.05V0h1.638V-5.238h2.412C450.9-5.238,452.124-6.966,452.124-8.874ZM462.582,0h1.728l-4.518-12.474H457.9L453.366,0h1.728L456.1-2.79h5.472Zm-1.476-4.122H456.57l2.268-6.336Zm13.41-8.442v9.972l-6.588-9.972H466.29V0h1.638V-9.99L474.516,0h1.638V-12.564ZM482-4.734V0h1.638V-4.734l4.086-7.812H485.91l-3.1,6.354-3.1-6.354H477.9Zm6.732-4.356h1.548a2.15,2.15,0,0,1,2.394-2.25A2.207,2.207,0,0,1,495.072-9c0,2.178-1.746,2.574-3.8,2.574h-.522l.072,2.844h1.422l.054-1.71c2.52,0,4.338-1.08,4.338-3.708,0-2.286-1.62-3.708-3.978-3.708S488.718-11.268,488.736-9.09Zm3.87,8.082a1.091,1.091,0,0,0-1.08-1.116,1.1,1.1,0,0,0-1.116,1.116A1.1,1.1,0,0,0,491.526.108,1.091,1.091,0,0,0,492.606-1.008Z" transform="translate(258.722 2564.525)" fill="#03363d"/>
    <path id="Path_6711" data-name="Path 6711" d="M3.634-5.474a3.676,3.676,0,0,0,.322,1.61,2.908,2.908,0,0,0,.9,1.092,3.825,3.825,0,0,0,1.323.621,6.394,6.394,0,0,0,1.622.2,5.207,5.207,0,0,0,1.61-.219,3.257,3.257,0,0,0,1.081-.563,2.036,2.036,0,0,0,.6-.794,2.375,2.375,0,0,0,.184-.908,1.963,1.963,0,0,0-.425-1.391,2.431,2.431,0,0,0-.932-.632,19.479,19.479,0,0,0-2.036-.61Q6.716-7.36,5.014-7.82a6.14,6.14,0,0,1-1.76-.724,4.2,4.2,0,0,1-1.115-1,3.513,3.513,0,0,1-.586-1.173,4.7,4.7,0,0,1-.173-1.265,4.273,4.273,0,0,1,.518-2.15A4.6,4.6,0,0,1,3.266-15.64,6.018,6.018,0,0,1,5.2-16.526a8.467,8.467,0,0,1,2.185-.287,8.592,8.592,0,0,1,2.426.333,5.984,5.984,0,0,1,2,1,4.9,4.9,0,0,1,1.369,1.644,4.86,4.86,0,0,1,.506,2.265H10.81a2.771,2.771,0,0,0-1.081-2.242,4.292,4.292,0,0,0-2.461-.656,5.383,5.383,0,0,0-1.035.1,3.288,3.288,0,0,0-.966.345,2.12,2.12,0,0,0-.725.656,1.772,1.772,0,0,0-.287,1.035A1.762,1.762,0,0,0,4.8-10.96a3.5,3.5,0,0,0,1.415.748q.092.023.724.2t1.415.379l1.53.4q.748.2,1.069.288a4.793,4.793,0,0,1,1.4.69,4.424,4.424,0,0,1,1,1,4.131,4.131,0,0,1,.6,1.207,4.414,4.414,0,0,1,.2,1.288A4.646,4.646,0,0,1,13.582-2.4,4.783,4.783,0,0,1,12.1-.805,6.449,6.449,0,0,1,10.005.1,10.012,10.012,0,0,1,7.613.391,9.843,9.843,0,0,1,4.968.046,6.191,6.191,0,0,1,2.806-1.012,5.177,5.177,0,0,1,1.334-2.84,6.087,6.087,0,0,1,.759-5.474ZM24.449-6.992a4.228,4.228,0,0,0-.265-1.2,3.187,3.187,0,0,0-.6-1,2.961,2.961,0,0,0-.92-.69,2.71,2.71,0,0,0-1.208-.265,3.151,3.151,0,0,0-1.253.242,2.867,2.867,0,0,0-.966.667,3.3,3.3,0,0,0-.644,1,3.49,3.49,0,0,0-.264,1.242ZM18.331-5.267a4.567,4.567,0,0,0,.2,1.334,3.287,3.287,0,0,0,.587,1.127,2.827,2.827,0,0,0,.989.77,3.263,3.263,0,0,0,1.426.288,3.15,3.15,0,0,0,1.852-.494,2.923,2.923,0,0,0,1.046-1.484H26.91A4.944,4.944,0,0,1,26.2-2,4.961,4.961,0,0,1,24.978-.725a5.262,5.262,0,0,1-1.6.782,6.435,6.435,0,0,1-1.852.264,6.3,6.3,0,0,1-2.484-.46,5.135,5.135,0,0,1-1.829-1.288A5.466,5.466,0,0,1,16.089-3.4a8.035,8.035,0,0,1-.38-2.53,7.157,7.157,0,0,1,.4-2.4,6.153,6.153,0,0,1,1.15-2,5.5,5.5,0,0,1,1.806-1.368,5.476,5.476,0,0,1,2.392-.506,5.329,5.329,0,0,1,2.519.587,5.526,5.526,0,0,1,1.851,1.553A6.286,6.286,0,0,1,26.9-7.855a6.8,6.8,0,0,1,.172,2.588Zm10.741-6.624h2.461v2.3h.046a2.654,2.654,0,0,1,.449-.943,4.373,4.373,0,0,1,.805-.839,4.068,4.068,0,0,1,1.046-.61,3.133,3.133,0,0,1,1.173-.23,5.688,5.688,0,0,1,.632.023l.357.046v2.53q-.276-.046-.563-.08a4.728,4.728,0,0,0-.563-.035,3.014,3.014,0,0,0-1.254.264,2.879,2.879,0,0,0-1.023.782,3.832,3.832,0,0,0-.69,1.276,5.524,5.524,0,0,0-.253,1.748V0H29.072Zm6.923,0h2.852L41.86-2.76h.046l2.9-9.131h2.714L43.263,0H40.319Zm13.179-4.531H51.8v2.484H49.174Zm0,4.531H51.8V0H49.174Zm13.5,3.979A2.46,2.46,0,0,0,61.79-9.58a2.889,2.889,0,0,0-1.828-.564,3.77,3.77,0,0,0-1.081.173,2.565,2.565,0,0,0-1.058.644,3.61,3.61,0,0,0-.805,1.311,6.241,6.241,0,0,0-.322,2.2,6.431,6.431,0,0,0,.173,1.472,4.024,4.024,0,0,0,.552,1.311A2.99,2.99,0,0,0,58.4-2.1a2.781,2.781,0,0,0,1.449.357,2.638,2.638,0,0,0,1.9-.713,3.314,3.314,0,0,0,.932-2H65.3a5.76,5.76,0,0,1-1.76,3.553A5.368,5.368,0,0,1,59.846.322a6.079,6.079,0,0,1-2.472-.471,5.241,5.241,0,0,1-1.806-1.288,5.47,5.47,0,0,1-1.115-1.944,7.594,7.594,0,0,1-.38-2.438,8.33,8.33,0,0,1,.368-2.507,5.742,5.742,0,0,1,1.1-2.035,5.166,5.166,0,0,1,1.828-1.357,6.171,6.171,0,0,1,2.564-.495,7.167,7.167,0,0,1,1.967.264,5.18,5.18,0,0,1,1.656.793,4.223,4.223,0,0,1,1.185,1.334A4.568,4.568,0,0,1,65.3-7.912Zm12.926.92a4.228,4.228,0,0,0-.264-1.2,3.187,3.187,0,0,0-.6-1,2.961,2.961,0,0,0-.92-.69,2.71,2.71,0,0,0-1.207-.265,3.151,3.151,0,0,0-1.254.242,2.867,2.867,0,0,0-.966.667,3.3,3.3,0,0,0-.644,1,3.49,3.49,0,0,0-.264,1.242ZM69.483-5.267a4.567,4.567,0,0,0,.2,1.334,3.287,3.287,0,0,0,.587,1.127,2.827,2.827,0,0,0,.989.77,3.263,3.263,0,0,0,1.426.288,3.15,3.15,0,0,0,1.852-.494,2.923,2.923,0,0,0,1.047-1.484h2.484A4.944,4.944,0,0,1,77.349-2,4.961,4.961,0,0,1,76.13-.725a5.262,5.262,0,0,1-1.6.782A6.435,6.435,0,0,1,72.68.322,6.3,6.3,0,0,1,70.2-.138a5.135,5.135,0,0,1-1.828-1.288A5.466,5.466,0,0,1,67.241-3.4a8.035,8.035,0,0,1-.38-2.53,7.157,7.157,0,0,1,.4-2.4,6.153,6.153,0,0,1,1.15-2,5.5,5.5,0,0,1,1.806-1.368,5.476,5.476,0,0,1,2.392-.506,5.329,5.329,0,0,1,2.519.587,5.526,5.526,0,0,1,1.852,1.553A6.286,6.286,0,0,1,78.05-7.855a6.8,6.8,0,0,1,.173,2.588Z" transform="translate(258.893 2727.337)" fill="#2e384d"/>
    <path id="Path_6714" data-name="Path 6714" d="M11.891,0H.9a6.56,6.56,0,0,1,.966-3.5,8.837,8.837,0,0,1,2.576-2.6Q5.221-6.67,6.072-7.21A12.932,12.932,0,0,0,7.636-8.372,6.186,6.186,0,0,0,8.809-9.718a3.194,3.194,0,0,0,.483-1.667,4.556,4.556,0,0,0-.1-.931,2.464,2.464,0,0,0-.4-.92,2.373,2.373,0,0,0-.828-.713,2.883,2.883,0,0,0-1.38-.287,2.49,2.49,0,0,0-1.3.311,2.321,2.321,0,0,0-.828.851A4.245,4.245,0,0,0,3.99-11.8a9.229,9.229,0,0,0-.173,1.587H1.2a8.236,8.236,0,0,1,.357-2.473,5.484,5.484,0,0,1,1.069-1.967,5.047,5.047,0,0,1,1.737-1.3,5.637,5.637,0,0,1,2.381-.471,5.586,5.586,0,0,1,2.461.483,4.733,4.733,0,0,1,1.6,1.219,4.458,4.458,0,0,1,.863,1.6,5.843,5.843,0,0,1,.253,1.644,4.862,4.862,0,0,1-.3,1.748,5.629,5.629,0,0,1-.8,1.438A8.137,8.137,0,0,1,9.66-7.084q-.644.552-1.334,1.035t-1.38.92q-.69.437-1.276.874a7.5,7.5,0,0,0-1.023.908,2.579,2.579,0,0,0-.6,1h7.843Zm6.141-9.43a6.074,6.074,0,0,0,1.288-.092,3.584,3.584,0,0,0,1.15-.4,2.249,2.249,0,0,0,.816-.793A2.333,2.333,0,0,0,21.6-11.96a2.1,2.1,0,0,0-.7-1.656,2.623,2.623,0,0,0-1.806-.621,2.461,2.461,0,0,0-1.2.276,2.456,2.456,0,0,0-.84.747,3.352,3.352,0,0,0-.495,1.058,3.978,3.978,0,0,0-.138,1.208H13.8a6.645,6.645,0,0,1,.437-2.174,5.469,5.469,0,0,1,1.069-1.737,4.75,4.75,0,0,1,1.645-1.15,5.5,5.5,0,0,1,2.185-.414,6.336,6.336,0,0,1,1.851.276,5.414,5.414,0,0,1,1.633.805A3.946,3.946,0,0,1,23.782-14a3.911,3.911,0,0,1,.437,1.875,4.016,4.016,0,0,1-.552,2.128,3.158,3.158,0,0,1-1.725,1.322v.046a3.324,3.324,0,0,1,2.15,1.369A4.491,4.491,0,0,1,24.863-4.6a4.493,4.493,0,0,1-.46,2.058A4.673,4.673,0,0,1,23.161-1a5.75,5.75,0,0,1-1.817.977,6.864,6.864,0,0,1-2.185.345,6.807,6.807,0,0,1-2.45-.4,4.707,4.707,0,0,1-1.748-1.138A4.916,4.916,0,0,1,13.892-2.99a7.225,7.225,0,0,1-.391-2.3h2.622a3.642,3.642,0,0,0,.725,2.45,2.764,2.764,0,0,0,2.312.977,3.288,3.288,0,0,0,2.2-.747,2.63,2.63,0,0,0,.886-2.128,2.663,2.663,0,0,0-.368-1.495,2.38,2.38,0,0,0-.966-.84,3.91,3.91,0,0,0-1.345-.357,12.6,12.6,0,0,0-1.53-.046ZM36.409,4.393q-.69-1.1-1.3-2.277A18.307,18.307,0,0,1,34.051-.356a17.793,17.793,0,0,1-.7-2.749A18.058,18.058,0,0,1,33.1-6.21a17.832,17.832,0,0,1,.862-5.474,21.27,21.27,0,0,1,2.45-5.129h2.139a23.3,23.3,0,0,0-2.1,5.094,20.509,20.509,0,0,0-.725,5.509,21.607,21.607,0,0,0,.69,5.52,20.047,20.047,0,0,0,2.139,5.083ZM40.94-5.888h4.876v-7.084H45.77Zm9.43,2.07H48.3V0H45.816V-3.818h-6.9v-2.6l6.9-9.683H48.3V-5.888h2.07ZM56.4-9.43a6.074,6.074,0,0,0,1.288-.092,3.584,3.584,0,0,0,1.15-.4,2.249,2.249,0,0,0,.817-.793,2.333,2.333,0,0,0,.31-1.242,2.1,2.1,0,0,0-.7-1.656,2.623,2.623,0,0,0-1.806-.621,2.461,2.461,0,0,0-1.2.276,2.456,2.456,0,0,0-.84.747,3.352,3.352,0,0,0-.494,1.058,3.978,3.978,0,0,0-.138,1.208H52.164a6.645,6.645,0,0,1,.437-2.174,5.469,5.469,0,0,1,1.069-1.737,4.75,4.75,0,0,1,1.645-1.15,5.5,5.5,0,0,1,2.185-.414,6.336,6.336,0,0,1,1.852.276,5.413,5.413,0,0,1,1.633.805A3.946,3.946,0,0,1,62.146-14a3.911,3.911,0,0,1,.437,1.875,4.016,4.016,0,0,1-.552,2.128,3.158,3.158,0,0,1-1.725,1.322v.046a3.324,3.324,0,0,1,2.151,1.369A4.491,4.491,0,0,1,63.227-4.6a4.493,4.493,0,0,1-.46,2.058A4.673,4.673,0,0,1,61.525-1a5.75,5.75,0,0,1-1.817.977,6.864,6.864,0,0,1-2.185.345,6.806,6.806,0,0,1-2.45-.4,4.707,4.707,0,0,1-1.748-1.138A4.916,4.916,0,0,1,52.256-2.99a7.225,7.225,0,0,1-.391-2.3h2.622a3.642,3.642,0,0,0,.725,2.45,2.764,2.764,0,0,0,2.312.977,3.288,3.288,0,0,0,2.2-.747A2.63,2.63,0,0,0,60.6-4.738a2.663,2.663,0,0,0-.368-1.495,2.38,2.38,0,0,0-.966-.84,3.91,3.91,0,0,0-1.346-.357A12.6,12.6,0,0,0,56.4-7.475Zm11.5-2.415a7.5,7.5,0,0,0,.092,1.207,3.409,3.409,0,0,0,.3.977,1.765,1.765,0,0,0,.54.656,1.355,1.355,0,0,0,.816.241A1.407,1.407,0,0,0,70.472-9a1.721,1.721,0,0,0,.552-.656,3.663,3.663,0,0,0,.31-.977,6.684,6.684,0,0,0,.1-1.207,7.8,7.8,0,0,0-.08-1.127,3.468,3.468,0,0,0-.287-.989,1.877,1.877,0,0,0-.552-.7,1.4,1.4,0,0,0-.874-.265,1.4,1.4,0,0,0-.874.265,1.78,1.78,0,0,0-.54.7,3.463,3.463,0,0,0-.265.989A9.079,9.079,0,0,0,67.9-11.845Zm1.771,4.577A3.924,3.924,0,0,1,67.9-7.636a3.293,3.293,0,0,1-1.2-.989,4.058,4.058,0,0,1-.667-1.449,7.283,7.283,0,0,1-.207-1.771,6.958,6.958,0,0,1,.219-1.76,4.088,4.088,0,0,1,.69-1.46,3.425,3.425,0,0,1,1.2-.989,3.8,3.8,0,0,1,1.737-.368,3.8,3.8,0,0,1,1.736.368,3.425,3.425,0,0,1,1.2.989,4.088,4.088,0,0,1,.69,1.46,6.958,6.958,0,0,1,.218,1.76,7.283,7.283,0,0,1-.207,1.771,4.058,4.058,0,0,1-.667,1.449,3.293,3.293,0,0,1-1.2.989A3.924,3.924,0,0,1,69.667-7.268Zm9.775,3.013a7.5,7.5,0,0,0,.092,1.208,3.409,3.409,0,0,0,.3.977,1.765,1.765,0,0,0,.54.656,1.355,1.355,0,0,0,.817.242,1.407,1.407,0,0,0,.828-.242,1.721,1.721,0,0,0,.552-.656,3.662,3.662,0,0,0,.311-.977,6.684,6.684,0,0,0,.1-1.208,7.8,7.8,0,0,0-.08-1.127,3.469,3.469,0,0,0-.288-.989,1.877,1.877,0,0,0-.552-.7,1.4,1.4,0,0,0-.874-.264,1.4,1.4,0,0,0-.874.264,1.78,1.78,0,0,0-.54.7,3.463,3.463,0,0,0-.264.989A9.079,9.079,0,0,0,79.442-4.255ZM81.213.322a3.923,3.923,0,0,1-1.771-.368,3.293,3.293,0,0,1-1.2-.989,4.058,4.058,0,0,1-.667-1.449,7.283,7.283,0,0,1-.207-1.771,6.958,6.958,0,0,1,.218-1.76,4.087,4.087,0,0,1,.69-1.46,3.425,3.425,0,0,1,1.2-.989,3.8,3.8,0,0,1,1.736-.368,3.8,3.8,0,0,1,1.737.368,3.425,3.425,0,0,1,1.2.989,4.088,4.088,0,0,1,.69,1.46,6.958,6.958,0,0,1,.219,1.76,7.283,7.283,0,0,1-.207,1.771,4.058,4.058,0,0,1-.667,1.449,3.293,3.293,0,0,1-1.2.989A3.924,3.924,0,0,1,81.213.322ZM78.867-16.652h1.748l-8.9,17.2H69.92ZM88.9-16.813q.69,1.1,1.288,2.288a19.934,19.934,0,0,1,1.047,2.484,18.716,18.716,0,0,1,.713,2.748,17.293,17.293,0,0,1,.264,3.105,17.832,17.832,0,0,1-.862,5.474A20.852,20.852,0,0,1,88.9,4.393H86.756a22.826,22.826,0,0,0,2.1-5.072,20.51,20.51,0,0,0,.724-5.508,21.607,21.607,0,0,0-.69-5.52,20.429,20.429,0,0,0-2.139-5.106Z" transform="translate(607.294 2727.337)" fill="#2e384d"/>
    <path id="Path_6719" data-name="Path 6719" d="M1.166-12.848a8.846,8.846,0,0,0,1.54-.132,4.806,4.806,0,0,0,1.353-.44,3.468,3.468,0,0,0,1.034-.792A2.424,2.424,0,0,0,5.654-15.4H7.7V0H4.95V-10.868H1.166Zm17.182-2.86a4.474,4.474,0,0,1,2.695.759,5.216,5.216,0,0,1,1.628,1.936,8.644,8.644,0,0,1,.792,2.585A18.578,18.578,0,0,1,23.672-7.7a18.578,18.578,0,0,1-.209,2.728,8.644,8.644,0,0,1-.792,2.585A5.216,5.216,0,0,1,21.043-.451a4.474,4.474,0,0,1-2.695.759,4.474,4.474,0,0,1-2.695-.759,5.216,5.216,0,0,1-1.628-1.936,8.644,8.644,0,0,1-.792-2.585A18.578,18.578,0,0,1,13.024-7.7a18.578,18.578,0,0,1,.209-2.728,8.644,8.644,0,0,1,.792-2.585,5.216,5.216,0,0,1,1.628-1.936A4.474,4.474,0,0,1,18.348-15.708Zm0,13.926a2.018,2.018,0,0,0,1.364-.473,3.2,3.2,0,0,0,.869-1.276,7.611,7.611,0,0,0,.451-1.881A18.845,18.845,0,0,0,21.164-7.7a18.573,18.573,0,0,0-.132-2.277,7.777,7.777,0,0,0-.451-1.881,3.2,3.2,0,0,0-.869-1.287,2.018,2.018,0,0,0-1.364-.473,2.008,2.008,0,0,0-1.375.473,3.252,3.252,0,0,0-.858,1.287,7.777,7.777,0,0,0-.451,1.881A18.573,18.573,0,0,0,15.532-7.7a18.845,18.845,0,0,0,.132,2.288,7.611,7.611,0,0,0,.451,1.881,3.262,3.262,0,0,0,.858,1.276A2.008,2.008,0,0,0,18.348-1.782ZM30.58-15.708a4.474,4.474,0,0,1,2.695.759A5.216,5.216,0,0,1,34.9-13.013a8.644,8.644,0,0,1,.792,2.585A18.578,18.578,0,0,1,35.9-7.7a18.578,18.578,0,0,1-.209,2.728A8.644,8.644,0,0,1,34.9-2.387,5.216,5.216,0,0,1,33.275-.451,4.474,4.474,0,0,1,30.58.308a4.474,4.474,0,0,1-2.7-.759,5.216,5.216,0,0,1-1.628-1.936,8.644,8.644,0,0,1-.792-2.585A18.578,18.578,0,0,1,25.256-7.7a18.578,18.578,0,0,1,.209-2.728,8.644,8.644,0,0,1,.792-2.585,5.216,5.216,0,0,1,1.628-1.936A4.474,4.474,0,0,1,30.58-15.708Zm0,13.926a2.018,2.018,0,0,0,1.364-.473,3.2,3.2,0,0,0,.869-1.276,7.611,7.611,0,0,0,.451-1.881A18.845,18.845,0,0,0,33.4-7.7a18.573,18.573,0,0,0-.132-2.277,7.777,7.777,0,0,0-.451-1.881,3.2,3.2,0,0,0-.869-1.287,2.018,2.018,0,0,0-1.364-.473,2.008,2.008,0,0,0-1.375.473,3.252,3.252,0,0,0-.858,1.287A7.777,7.777,0,0,0,27.9-9.977,18.573,18.573,0,0,0,27.764-7.7,18.845,18.845,0,0,0,27.9-5.412a7.611,7.611,0,0,0,.451,1.881,3.262,3.262,0,0,0,.858,1.276A2.008,2.008,0,0,0,30.58-1.782Z" transform="translate(879.219 2726.337)" fill="#2e384d"/>
    <path id="Path_6710" data-name="Path 6710" d="M8.74-14.467a4.6,4.6,0,0,0-2.265.529,4.442,4.442,0,0,0-1.553,1.415,6.381,6.381,0,0,0-.885,2.012,9.268,9.268,0,0,0-.287,2.3,9.268,9.268,0,0,0,.287,2.3A6.381,6.381,0,0,0,4.922-3.9,4.442,4.442,0,0,0,6.475-2.484a4.6,4.6,0,0,0,2.265.529,4.6,4.6,0,0,0,2.266-.529A4.442,4.442,0,0,0,12.558-3.9a6.381,6.381,0,0,0,.885-2.012,9.268,9.268,0,0,0,.287-2.3,9.268,9.268,0,0,0-.287-2.3,6.381,6.381,0,0,0-.885-2.012,4.442,4.442,0,0,0-1.553-1.415A4.6,4.6,0,0,0,8.74-14.467Zm0-2.346a7.634,7.634,0,0,1,3.3.69,7.39,7.39,0,0,1,2.472,1.863,8.283,8.283,0,0,1,1.553,2.737,10.068,10.068,0,0,1,.541,3.312,10.139,10.139,0,0,1-.541,3.335,8.283,8.283,0,0,1-1.553,2.737A7.26,7.26,0,0,1,12.041-.287a7.744,7.744,0,0,1-3.3.679,7.744,7.744,0,0,1-3.3-.679A7.26,7.26,0,0,1,2.967-2.139,8.283,8.283,0,0,1,1.414-4.876,10.14,10.14,0,0,1,.874-8.211a10.068,10.068,0,0,1,.541-3.312A8.283,8.283,0,0,1,2.967-14.26a7.39,7.39,0,0,1,2.473-1.863A7.634,7.634,0,0,1,8.74-16.813Zm8.947,4.922h2.852L23.552-2.76H23.6l2.9-9.131H29.21L24.955,0H22.011Zm21.275,4.9a4.228,4.228,0,0,0-.264-1.2,3.187,3.187,0,0,0-.6-1,2.961,2.961,0,0,0-.92-.69,2.71,2.71,0,0,0-1.208-.265,3.151,3.151,0,0,0-1.254.242,2.867,2.867,0,0,0-.966.667,3.3,3.3,0,0,0-.644,1,3.49,3.49,0,0,0-.264,1.242ZM32.844-5.267a4.567,4.567,0,0,0,.2,1.334,3.287,3.287,0,0,0,.586,1.127,2.827,2.827,0,0,0,.989.77,3.263,3.263,0,0,0,1.426.288,3.15,3.15,0,0,0,1.852-.494,2.923,2.923,0,0,0,1.046-1.484h2.484A4.944,4.944,0,0,1,40.71-2,4.961,4.961,0,0,1,39.491-.725a5.262,5.262,0,0,1-1.6.782,6.435,6.435,0,0,1-1.852.264,6.3,6.3,0,0,1-2.484-.46,5.135,5.135,0,0,1-1.828-1.288A5.466,5.466,0,0,1,30.6-3.4a8.035,8.035,0,0,1-.379-2.53,7.157,7.157,0,0,1,.4-2.4,6.153,6.153,0,0,1,1.15-2,5.5,5.5,0,0,1,1.806-1.368,5.476,5.476,0,0,1,2.392-.506,5.329,5.329,0,0,1,2.519.587,5.526,5.526,0,0,1,1.851,1.553,6.286,6.286,0,0,1,1.069,2.219,6.8,6.8,0,0,1,.173,2.588Zm10.741-6.624h2.461v2.3h.046a2.654,2.654,0,0,1,.448-.943,4.373,4.373,0,0,1,.805-.839,4.068,4.068,0,0,1,1.047-.61,3.133,3.133,0,0,1,1.173-.23,5.689,5.689,0,0,1,.632.023l.356.046v2.53q-.276-.046-.563-.08a4.728,4.728,0,0,0-.563-.035,3.014,3.014,0,0,0-1.254.264,2.879,2.879,0,0,0-1.023.782,3.832,3.832,0,0,0-.69,1.276,5.524,5.524,0,0,0-.253,1.748V0H43.585Zm6.9,0h1.978v-3.565h2.622v3.565h2.369v1.955H55.085v6.348a6.332,6.332,0,0,0,.035.713,1.231,1.231,0,0,0,.161.506.77.77,0,0,0,.38.31,1.867,1.867,0,0,0,.69.1q.276,0,.552-.012a2.742,2.742,0,0,0,.552-.08V-.023L56.6.069a7.7,7.7,0,0,1-.851.046,5.8,5.8,0,0,1-1.667-.2A2.226,2.226,0,0,1,53.1-.655a1.984,1.984,0,0,1-.483-.955,7.183,7.183,0,0,1-.15-1.311V-9.936H50.485Zm8.924-4.531h2.622v2.484H59.409Zm0,4.531h2.622V0H59.409Zm5.474,0h2.484v1.656h.069a6.733,6.733,0,0,1,.644-.805,3.513,3.513,0,0,1,.77-.621,3.9,3.9,0,0,1,.978-.4,4.853,4.853,0,0,1,1.265-.149,4.308,4.308,0,0,1,2.012.483,2.731,2.731,0,0,1,1.323,1.495,5.293,5.293,0,0,1,1.541-1.449,4.155,4.155,0,0,1,2.185-.529,4.3,4.3,0,0,1,2.933.92,3.926,3.926,0,0,1,1.046,3.082V0H79.511V-6.946q0-.713-.046-1.3A2.653,2.653,0,0,0,79.2-9.257a1.5,1.5,0,0,0-.656-.656,2.591,2.591,0,0,0-1.2-.23,2.22,2.22,0,0,0-1.932.828,3.959,3.959,0,0,0-.6,2.346V0H72.2V-7.636a3.236,3.236,0,0,0-.449-1.875,1.886,1.886,0,0,0-1.645-.633,2.407,2.407,0,0,0-.978.207,2.436,2.436,0,0,0-.828.6,2.993,2.993,0,0,0-.575.966A3.672,3.672,0,0,0,67.5-7.061V0H64.883Zm28.175,4.9a4.228,4.228,0,0,0-.264-1.2,3.187,3.187,0,0,0-.6-1,2.961,2.961,0,0,0-.92-.69,2.71,2.71,0,0,0-1.207-.265,3.151,3.151,0,0,0-1.254.242,2.867,2.867,0,0,0-.966.667,3.3,3.3,0,0,0-.644,1,3.49,3.49,0,0,0-.264,1.242ZM86.94-5.267a4.567,4.567,0,0,0,.2,1.334,3.287,3.287,0,0,0,.587,1.127,2.827,2.827,0,0,0,.989.77,3.263,3.263,0,0,0,1.426.288,3.15,3.15,0,0,0,1.852-.494,2.923,2.923,0,0,0,1.047-1.484h2.484A4.944,4.944,0,0,1,94.806-2,4.961,4.961,0,0,1,93.587-.725a5.262,5.262,0,0,1-1.6.782,6.435,6.435,0,0,1-1.852.264,6.3,6.3,0,0,1-2.484-.46,5.135,5.135,0,0,1-1.828-1.288A5.466,5.466,0,0,1,84.7-3.4a8.035,8.035,0,0,1-.38-2.53,7.157,7.157,0,0,1,.4-2.4,6.153,6.153,0,0,1,1.15-2,5.5,5.5,0,0,1,1.806-1.368,5.476,5.476,0,0,1,2.392-.506,5.329,5.329,0,0,1,2.519.587,5.526,5.526,0,0,1,1.852,1.553,6.286,6.286,0,0,1,1.069,2.219,6.8,6.8,0,0,1,.173,2.588Z" transform="translate(258.893 2674.5)" fill="#2e384d"/>
    <path id="Path_6715" data-name="Path 6715" d="M5.244-9.43a6.074,6.074,0,0,0,1.288-.092,3.584,3.584,0,0,0,1.15-.4,2.249,2.249,0,0,0,.817-.793,2.333,2.333,0,0,0,.311-1.242,2.1,2.1,0,0,0-.7-1.656A2.623,2.623,0,0,0,6.3-14.237a2.461,2.461,0,0,0-1.2.276,2.456,2.456,0,0,0-.839.747,3.352,3.352,0,0,0-.494,1.058,3.978,3.978,0,0,0-.138,1.208H1.012a6.645,6.645,0,0,1,.437-2.174,5.469,5.469,0,0,1,1.069-1.737,4.75,4.75,0,0,1,1.645-1.15,5.5,5.5,0,0,1,2.185-.414,6.336,6.336,0,0,1,1.852.276,5.414,5.414,0,0,1,1.633.805A3.946,3.946,0,0,1,10.994-14a3.911,3.911,0,0,1,.437,1.875,4.016,4.016,0,0,1-.552,2.128A3.158,3.158,0,0,1,9.154-8.671v.046A3.324,3.324,0,0,1,11.3-7.256,4.491,4.491,0,0,1,12.075-4.6a4.493,4.493,0,0,1-.46,2.058A4.673,4.673,0,0,1,10.373-1a5.75,5.75,0,0,1-1.817.977A6.864,6.864,0,0,1,6.371.322a6.807,6.807,0,0,1-2.45-.4A4.707,4.707,0,0,1,2.174-1.219,4.916,4.916,0,0,1,1.1-2.99a7.225,7.225,0,0,1-.391-2.3H3.335a3.642,3.642,0,0,0,.724,2.45,2.764,2.764,0,0,0,2.312.977,3.288,3.288,0,0,0,2.2-.747,2.63,2.63,0,0,0,.885-2.128,2.663,2.663,0,0,0-.368-1.495,2.38,2.38,0,0,0-.966-.84,3.91,3.91,0,0,0-1.345-.357,12.6,12.6,0,0,0-1.53-.046ZM23.621,4.393q-.69-1.1-1.3-2.277A18.307,18.307,0,0,1,21.264-.356a17.793,17.793,0,0,1-.7-2.749,18.059,18.059,0,0,1-.253-3.105,17.832,17.832,0,0,1,.862-5.474,21.27,21.27,0,0,1,2.449-5.129H25.76a23.3,23.3,0,0,0-2.1,5.094,20.509,20.509,0,0,0-.724,5.509,21.607,21.607,0,0,0,.69,5.52A20.047,20.047,0,0,0,25.76,4.393ZM26.8-13.432a9.248,9.248,0,0,0,1.61-.138,5.024,5.024,0,0,0,1.414-.46,3.626,3.626,0,0,0,1.081-.828,2.535,2.535,0,0,0,.586-1.242h2.139V0H30.751V-11.362H26.8Zm17.963-2.99a4.678,4.678,0,0,1,2.818.793,5.453,5.453,0,0,1,1.7,2.024,9.037,9.037,0,0,1,.828,2.7,19.423,19.423,0,0,1,.218,2.852A19.423,19.423,0,0,1,50.105-5.2a9.037,9.037,0,0,1-.828,2.7,5.453,5.453,0,0,1-1.7,2.024,4.678,4.678,0,0,1-2.818.794A4.678,4.678,0,0,1,41.94-.472a5.453,5.453,0,0,1-1.7-2.024,9.036,9.036,0,0,1-.828-2.7,19.422,19.422,0,0,1-.219-2.852A19.422,19.422,0,0,1,39.41-10.9a9.036,9.036,0,0,1,.828-2.7,5.453,5.453,0,0,1,1.7-2.024A4.678,4.678,0,0,1,44.758-16.422Zm0,14.559a2.11,2.11,0,0,0,1.426-.495,3.35,3.35,0,0,0,.909-1.334,7.957,7.957,0,0,0,.472-1.966A19.7,19.7,0,0,0,47.7-8.05a19.418,19.418,0,0,0-.138-2.38,8.13,8.13,0,0,0-.472-1.966,3.34,3.34,0,0,0-.909-1.346,2.11,2.11,0,0,0-1.426-.495,2.1,2.1,0,0,0-1.437.495,3.4,3.4,0,0,0-.9,1.346,8.13,8.13,0,0,0-.472,1.966,19.418,19.418,0,0,0-.138,2.38,19.7,19.7,0,0,0,.138,2.392,7.957,7.957,0,0,0,.472,1.966,3.41,3.41,0,0,0,.9,1.334A2.1,2.1,0,0,0,44.758-1.863ZM57.546-16.422a4.678,4.678,0,0,1,2.818.793,5.453,5.453,0,0,1,1.7,2.024,9.037,9.037,0,0,1,.828,2.7,19.423,19.423,0,0,1,.218,2.852A19.423,19.423,0,0,1,62.894-5.2a9.037,9.037,0,0,1-.828,2.7,5.453,5.453,0,0,1-1.7,2.024,4.678,4.678,0,0,1-2.818.794,4.678,4.678,0,0,1-2.818-.794,5.453,5.453,0,0,1-1.7-2.024A9.036,9.036,0,0,1,52.2-5.2,19.422,19.422,0,0,1,51.98-8.05,19.422,19.422,0,0,1,52.2-10.9a9.036,9.036,0,0,1,.828-2.7,5.453,5.453,0,0,1,1.7-2.024A4.678,4.678,0,0,1,57.546-16.422Zm0,14.559a2.11,2.11,0,0,0,1.426-.495,3.35,3.35,0,0,0,.909-1.334,7.957,7.957,0,0,0,.472-1.966A19.7,19.7,0,0,0,60.49-8.05a19.418,19.418,0,0,0-.138-2.38,8.13,8.13,0,0,0-.472-1.966,3.34,3.34,0,0,0-.909-1.346,2.11,2.11,0,0,0-1.426-.495,2.1,2.1,0,0,0-1.437.495,3.4,3.4,0,0,0-.9,1.346,8.13,8.13,0,0,0-.472,1.966A19.418,19.418,0,0,0,54.6-8.05a19.7,19.7,0,0,0,.138,2.392,7.957,7.957,0,0,0,.472,1.966,3.41,3.41,0,0,0,.9,1.334A2.1,2.1,0,0,0,57.546-1.863ZM67.9-11.845a7.5,7.5,0,0,0,.092,1.207,3.409,3.409,0,0,0,.3.977,1.765,1.765,0,0,0,.54.656,1.355,1.355,0,0,0,.816.241A1.407,1.407,0,0,0,70.472-9a1.721,1.721,0,0,0,.552-.656,3.663,3.663,0,0,0,.31-.977,6.684,6.684,0,0,0,.1-1.207,7.8,7.8,0,0,0-.08-1.127,3.468,3.468,0,0,0-.287-.989,1.877,1.877,0,0,0-.552-.7,1.4,1.4,0,0,0-.874-.265,1.4,1.4,0,0,0-.874.265,1.78,1.78,0,0,0-.54.7,3.463,3.463,0,0,0-.265.989A9.079,9.079,0,0,0,67.9-11.845Zm1.771,4.577A3.924,3.924,0,0,1,67.9-7.636a3.293,3.293,0,0,1-1.2-.989,4.058,4.058,0,0,1-.667-1.449,7.283,7.283,0,0,1-.207-1.771,6.958,6.958,0,0,1,.219-1.76,4.088,4.088,0,0,1,.69-1.46,3.425,3.425,0,0,1,1.2-.989,3.8,3.8,0,0,1,1.737-.368,3.8,3.8,0,0,1,1.736.368,3.425,3.425,0,0,1,1.2.989,4.088,4.088,0,0,1,.69,1.46,6.958,6.958,0,0,1,.218,1.76,7.283,7.283,0,0,1-.207,1.771,4.058,4.058,0,0,1-.667,1.449,3.293,3.293,0,0,1-1.2.989A3.924,3.924,0,0,1,69.667-7.268Zm9.775,3.013a7.5,7.5,0,0,0,.092,1.208,3.409,3.409,0,0,0,.3.977,1.765,1.765,0,0,0,.54.656,1.355,1.355,0,0,0,.817.242,1.407,1.407,0,0,0,.828-.242,1.721,1.721,0,0,0,.552-.656,3.662,3.662,0,0,0,.311-.977,6.684,6.684,0,0,0,.1-1.208,7.8,7.8,0,0,0-.08-1.127,3.469,3.469,0,0,0-.288-.989,1.877,1.877,0,0,0-.552-.7,1.4,1.4,0,0,0-.874-.264,1.4,1.4,0,0,0-.874.264,1.78,1.78,0,0,0-.54.7,3.463,3.463,0,0,0-.264.989A9.079,9.079,0,0,0,79.442-4.255ZM81.213.322a3.923,3.923,0,0,1-1.771-.368,3.293,3.293,0,0,1-1.2-.989,4.058,4.058,0,0,1-.667-1.449,7.283,7.283,0,0,1-.207-1.771,6.958,6.958,0,0,1,.218-1.76,4.087,4.087,0,0,1,.69-1.46,3.425,3.425,0,0,1,1.2-.989,3.8,3.8,0,0,1,1.736-.368,3.8,3.8,0,0,1,1.737.368,3.425,3.425,0,0,1,1.2.989,4.088,4.088,0,0,1,.69,1.46,6.958,6.958,0,0,1,.219,1.76,7.283,7.283,0,0,1-.207,1.771,4.058,4.058,0,0,1-.667,1.449,3.293,3.293,0,0,1-1.2.989A3.924,3.924,0,0,1,81.213.322ZM78.867-16.652h1.748l-8.9,17.2H69.92ZM88.9-16.813q.69,1.1,1.288,2.288a19.934,19.934,0,0,1,1.047,2.484,18.716,18.716,0,0,1,.713,2.748,17.293,17.293,0,0,1,.264,3.105,17.832,17.832,0,0,1-.862,5.474A20.852,20.852,0,0,1,88.9,4.393H86.756a22.826,22.826,0,0,0,2.1-5.072,20.51,20.51,0,0,0,.724-5.508,21.607,21.607,0,0,0-.69-5.52,20.429,20.429,0,0,0-2.139-5.106Z" transform="translate(607.294 2674.5)" fill="#2e384d"/>
    <path id="Path_6718" data-name="Path 6718" d="M6.116-13.728a2.542,2.542,0,0,0-1.716.605,2.18,2.18,0,0,0-.7,1.749,2.092,2.092,0,0,0,.682,1.683,2.581,2.581,0,0,0,1.738.583,2.581,2.581,0,0,0,1.738-.583,2.092,2.092,0,0,0,.682-1.683,2.18,2.18,0,0,0-.7-1.749A2.542,2.542,0,0,0,6.116-13.728Zm0,14.036a6.882,6.882,0,0,1-2.167-.33A5.005,5.005,0,0,1,2.222-.979,4.363,4.363,0,0,1,1.089-2.508,4.868,4.868,0,0,1,.682-4.532a3.9,3.9,0,0,1,.759-2.442A3.633,3.633,0,0,1,3.5-8.294v-.044A3.281,3.281,0,0,1,1.881-9.559a3.378,3.378,0,0,1-.561-1.947A3.932,3.932,0,0,1,2.563-14.6a5.158,5.158,0,0,1,3.553-1.111A5.158,5.158,0,0,1,9.669-14.6a3.932,3.932,0,0,1,1.243,3.091,3.378,3.378,0,0,1-.561,1.947A3.281,3.281,0,0,1,8.734-8.338v.044a3.633,3.633,0,0,1,2.057,1.32,3.9,3.9,0,0,1,.759,2.442,4.868,4.868,0,0,1-.407,2.024A4.363,4.363,0,0,1,10.01-.979a5.005,5.005,0,0,1-1.727.957A6.882,6.882,0,0,1,6.116.308Zm0-1.98a3.018,3.018,0,0,0,2.09-.748,2.687,2.687,0,0,0,.836-2.112,2.479,2.479,0,0,0-.836-1.991,3.1,3.1,0,0,0-2.09-.715,3.1,3.1,0,0,0-2.09.715A2.479,2.479,0,0,0,3.19-4.532,2.687,2.687,0,0,0,4.026-2.42,3.018,3.018,0,0,0,6.116-1.672ZM18.348-15.708a4.474,4.474,0,0,1,2.695.759,5.216,5.216,0,0,1,1.628,1.936,8.644,8.644,0,0,1,.792,2.585A18.578,18.578,0,0,1,23.672-7.7a18.578,18.578,0,0,1-.209,2.728,8.644,8.644,0,0,1-.792,2.585A5.216,5.216,0,0,1,21.043-.451a4.474,4.474,0,0,1-2.695.759,4.474,4.474,0,0,1-2.695-.759,5.216,5.216,0,0,1-1.628-1.936,8.644,8.644,0,0,1-.792-2.585A18.578,18.578,0,0,1,13.024-7.7a18.578,18.578,0,0,1,.209-2.728,8.644,8.644,0,0,1,.792-2.585,5.216,5.216,0,0,1,1.628-1.936A4.474,4.474,0,0,1,18.348-15.708Zm0,13.926a2.018,2.018,0,0,0,1.364-.473,3.2,3.2,0,0,0,.869-1.276,7.611,7.611,0,0,0,.451-1.881A18.845,18.845,0,0,0,21.164-7.7a18.573,18.573,0,0,0-.132-2.277,7.777,7.777,0,0,0-.451-1.881,3.2,3.2,0,0,0-.869-1.287,2.018,2.018,0,0,0-1.364-.473,2.008,2.008,0,0,0-1.375.473,3.252,3.252,0,0,0-.858,1.287,7.777,7.777,0,0,0-.451,1.881A18.573,18.573,0,0,0,15.532-7.7a18.845,18.845,0,0,0,.132,2.288,7.611,7.611,0,0,0,.451,1.881,3.262,3.262,0,0,0,.858,1.276A2.008,2.008,0,0,0,18.348-1.782Z" transform="translate(891.854 2673.5)" fill="#2e384d"/>
    <path id="Path_6712" data-name="Path 6712" d="M5.874-15.708H8.8L14.85,0H11.9L10.428-4.158H4.158L2.684,0H-.154Zm-.968,9.46H9.7L7.348-13H7.282ZM16.06-11.374h2.376v1.54h.044a3.1,3.1,0,0,1,1.474-1.419A4.9,4.9,0,0,1,22-11.682a5.432,5.432,0,0,1,2.343.473A4.62,4.62,0,0,1,26-9.911a5.638,5.638,0,0,1,.99,1.925,8.153,8.153,0,0,1,.33,2.354,8.327,8.327,0,0,1-.3,2.222,5.78,5.78,0,0,1-.9,1.9A4.509,4.509,0,0,1,24.6-.187a4.547,4.547,0,0,1-2.178.5,6.2,6.2,0,0,1-1.1-.1A4.749,4.749,0,0,1,20.262-.11a4.164,4.164,0,0,1-.935-.561,3.11,3.11,0,0,1-.715-.8h-.044V4.2H16.06Zm8.756,5.7a5.66,5.66,0,0,0-.2-1.5,4.065,4.065,0,0,0-.594-1.287,3.067,3.067,0,0,0-.99-.9A2.69,2.69,0,0,0,21.67-9.7a2.766,2.766,0,0,0-2.387,1.1,4.854,4.854,0,0,0-.8,2.926,5.826,5.826,0,0,0,.209,1.595,3.59,3.59,0,0,0,.627,1.265,3.131,3.131,0,0,0,1,.836,2.855,2.855,0,0,0,1.353.308,2.8,2.8,0,0,0,1.452-.352,3.07,3.07,0,0,0,.979-.913,3.7,3.7,0,0,0,.55-1.276A6.485,6.485,0,0,0,24.816-5.676Zm4.686-5.7h2.376v1.54h.044A3.1,3.1,0,0,1,33.4-11.253a4.9,4.9,0,0,1,2.046-.429,5.432,5.432,0,0,1,2.343.473,4.62,4.62,0,0,1,1.661,1.3,5.638,5.638,0,0,1,.99,1.925,8.153,8.153,0,0,1,.33,2.354,8.327,8.327,0,0,1-.3,2.222,5.78,5.78,0,0,1-.9,1.9,4.509,4.509,0,0,1-1.529,1.32,4.547,4.547,0,0,1-2.178.5,6.2,6.2,0,0,1-1.1-.1A4.749,4.749,0,0,1,33.7-.11a4.164,4.164,0,0,1-.935-.561,3.11,3.11,0,0,1-.715-.8H32.01V4.2H29.5Zm8.756,5.7a5.66,5.66,0,0,0-.2-1.5,4.065,4.065,0,0,0-.594-1.287,3.067,3.067,0,0,0-.99-.9A2.69,2.69,0,0,0,35.112-9.7a2.766,2.766,0,0,0-2.387,1.1,4.854,4.854,0,0,0-.8,2.926,5.826,5.826,0,0,0,.209,1.595,3.59,3.59,0,0,0,.627,1.265,3.131,3.131,0,0,0,1,.836,2.855,2.855,0,0,0,1.353.308,2.8,2.8,0,0,0,1.452-.352,3.07,3.07,0,0,0,.979-.913,3.7,3.7,0,0,0,.55-1.276A6.485,6.485,0,0,0,38.258-5.676ZM49.346-15.708h6.93A6.586,6.586,0,0,1,59-15.224a4.305,4.305,0,0,1,1.628,1.21,4.109,4.109,0,0,1,.781,1.584,6.727,6.727,0,0,1,.209,1.584,6.593,6.593,0,0,1-.209,1.573A4.116,4.116,0,0,1,60.632-7.7,4.212,4.212,0,0,1,59-6.5a6.721,6.721,0,0,1-2.728.473H52.1V0h-2.75ZM52.1-8.272h4.026a3.587,3.587,0,0,0,.946-.132,2.708,2.708,0,0,0,.891-.429,2.2,2.2,0,0,0,.66-.792,2.718,2.718,0,0,0,.253-1.243,3.213,3.213,0,0,0-.22-1.276,2.039,2.039,0,0,0-.594-.8,2.113,2.113,0,0,0-.858-.407,4.657,4.657,0,0,0-1.034-.11H52.1ZM71.478-6.688a4.044,4.044,0,0,0-.253-1.144,3.048,3.048,0,0,0-.572-.957,2.833,2.833,0,0,0-.88-.66A2.593,2.593,0,0,0,68.618-9.7a3.014,3.014,0,0,0-1.2.231,2.742,2.742,0,0,0-.924.638,3.155,3.155,0,0,0-.616.957,3.339,3.339,0,0,0-.253,1.188Zm-5.852,1.65a4.368,4.368,0,0,0,.187,1.276,3.144,3.144,0,0,0,.561,1.078,2.7,2.7,0,0,0,.946.737,3.121,3.121,0,0,0,1.364.275,3.013,3.013,0,0,0,1.771-.473,2.8,2.8,0,0,0,1-1.419h2.376a4.729,4.729,0,0,1-.682,1.65A4.745,4.745,0,0,1,71.984-.693a5.033,5.033,0,0,1-1.529.748,6.155,6.155,0,0,1-1.771.253,6.022,6.022,0,0,1-2.376-.44,4.912,4.912,0,0,1-1.749-1.232,5.228,5.228,0,0,1-1.078-1.892,7.686,7.686,0,0,1-.363-2.42,6.846,6.846,0,0,1,.385-2.3,5.885,5.885,0,0,1,1.1-1.914A5.261,5.261,0,0,1,66.33-11.2a5.238,5.238,0,0,1,2.288-.484,5.1,5.1,0,0,1,2.409.561A5.286,5.286,0,0,1,72.8-9.636a6.013,6.013,0,0,1,1.023,2.123,6.508,6.508,0,0,1,.165,2.475ZM75.9-11.374h2.354v2.2H78.3a2.539,2.539,0,0,1,.429-.9,4.183,4.183,0,0,1,.77-.8,3.891,3.891,0,0,1,1-.583,3,3,0,0,1,1.122-.22,5.441,5.441,0,0,1,.6.022l.341.044V-9.2q-.264-.044-.539-.077a4.522,4.522,0,0,0-.539-.033,2.883,2.883,0,0,0-1.2.253,2.754,2.754,0,0,0-.979.748,3.666,3.666,0,0,0-.66,1.221,5.284,5.284,0,0,0-.242,1.672V0H75.9Zm6.622,0h1.87v-.946a4.851,4.851,0,0,1,.264-1.749,2.485,2.485,0,0,1,.7-1.034,2.319,2.319,0,0,1,1-.484,5.57,5.57,0,0,1,1.177-.121,7.181,7.181,0,0,1,1.76.154V-13.6a3.59,3.59,0,0,0-.517-.1,5.532,5.532,0,0,0-.649-.033,1.53,1.53,0,0,0-.869.242,1.061,1.061,0,0,0-.363.946v1.166h2.134V-9.5H86.9V0H84.392V-9.5h-1.87ZM95.788.308a6.194,6.194,0,0,1-2.431-.451,5.184,5.184,0,0,1-1.8-1.243,5.316,5.316,0,0,1-1.122-1.892,7.283,7.283,0,0,1-.385-2.42,7.213,7.213,0,0,1,.385-2.4,5.316,5.316,0,0,1,1.122-1.892,5.184,5.184,0,0,1,1.8-1.243,6.194,6.194,0,0,1,2.431-.451,6.194,6.194,0,0,1,2.431.451,5.184,5.184,0,0,1,1.8,1.243A5.316,5.316,0,0,1,101.145-8.1a7.213,7.213,0,0,1,.385,2.4,7.283,7.283,0,0,1-.385,2.42,5.316,5.316,0,0,1-1.122,1.892,5.184,5.184,0,0,1-1.8,1.243A6.194,6.194,0,0,1,95.788.308Zm0-1.98a2.877,2.877,0,0,0,1.452-.352,3.06,3.06,0,0,0,1.012-.924,4.033,4.033,0,0,0,.583-1.287A5.758,5.758,0,0,0,99.022-5.7a5.8,5.8,0,0,0-.187-1.452,3.892,3.892,0,0,0-.583-1.287A3.108,3.108,0,0,0,97.24-9.35,2.877,2.877,0,0,0,95.788-9.7a2.877,2.877,0,0,0-1.452.352,3.108,3.108,0,0,0-1.012.913,3.892,3.892,0,0,0-.583,1.287A5.8,5.8,0,0,0,92.554-5.7a5.758,5.758,0,0,0,.187,1.463,4.033,4.033,0,0,0,.583,1.287,3.06,3.06,0,0,0,1.012.924A2.877,2.877,0,0,0,95.788-1.672Zm7.832-9.7h2.354v2.2h.044a2.539,2.539,0,0,1,.429-.9,4.183,4.183,0,0,1,.77-.8,3.891,3.891,0,0,1,1-.583,3,3,0,0,1,1.122-.22,5.441,5.441,0,0,1,.6.022l.341.044V-9.2q-.264-.044-.539-.077a4.522,4.522,0,0,0-.539-.033,2.883,2.883,0,0,0-1.2.253,2.754,2.754,0,0,0-.979.748,3.666,3.666,0,0,0-.66,1.221,5.284,5.284,0,0,0-.242,1.672V0H103.62Zm7.744,0h2.376V-9.79h.066a6.44,6.44,0,0,1,.616-.77,3.361,3.361,0,0,1,.737-.594,3.727,3.727,0,0,1,.935-.385,4.642,4.642,0,0,1,1.21-.143,4.12,4.12,0,0,1,1.925.462,2.613,2.613,0,0,1,1.265,1.43,5.063,5.063,0,0,1,1.474-1.386,3.975,3.975,0,0,1,2.09-.506,4.109,4.109,0,0,1,2.805.88,3.755,3.755,0,0,1,1,2.948V0h-2.508V-6.644q0-.682-.044-1.243a2.538,2.538,0,0,0-.253-.968,1.439,1.439,0,0,0-.627-.627,2.479,2.479,0,0,0-1.144-.22,2.124,2.124,0,0,0-1.848.792,3.787,3.787,0,0,0-.572,2.244V0H118.36V-7.3a3.1,3.1,0,0,0-.429-1.793,1.8,1.8,0,0,0-1.573-.605,2.3,2.3,0,0,0-.935.2,2.33,2.33,0,0,0-.792.572,2.863,2.863,0,0,0-.55.924,3.513,3.513,0,0,0-.209,1.254V0h-2.508ZM140.03-2.53a1.331,1.331,0,0,0,.121.66.51.51,0,0,0,.473.2h.264a1.644,1.644,0,0,0,.352-.044V.022q-.132.044-.341.1t-.429.1q-.22.044-.44.066t-.374.022A2.418,2.418,0,0,1,138.38,0a1.534,1.534,0,0,1-.66-1.078,4.436,4.436,0,0,1-1.837,1.056,7.234,7.234,0,0,1-2.1.33A5.152,5.152,0,0,1,132.308.1a3.868,3.868,0,0,1-1.243-.616,2.952,2.952,0,0,1-.858-1.034,3.186,3.186,0,0,1-.319-1.463,3.379,3.379,0,0,1,.385-1.716,2.852,2.852,0,0,1,1.012-1.034,4.57,4.57,0,0,1,1.408-.539q.781-.165,1.573-.253a12.869,12.869,0,0,1,1.3-.187,6.091,6.091,0,0,0,1.089-.187,1.668,1.668,0,0,0,.748-.407,1.12,1.12,0,0,0,.275-.825,1.285,1.285,0,0,0-.231-.792,1.55,1.55,0,0,0-.572-.473,2.471,2.471,0,0,0-.759-.22,6.082,6.082,0,0,0-.792-.055,3.15,3.15,0,0,0-1.738.44,1.716,1.716,0,0,0-.77,1.364h-2.508a3.775,3.775,0,0,1,.528-1.826,3.647,3.647,0,0,1,1.177-1.166,4.815,4.815,0,0,1,1.617-.616,9.628,9.628,0,0,1,1.848-.176,7.785,7.785,0,0,1,1.65.176,4.687,4.687,0,0,1,1.463.572,3.169,3.169,0,0,1,1.045,1.023,2.807,2.807,0,0,1,.4,1.529ZM137.522-5.7a3.044,3.044,0,0,1-1.408.451q-.836.077-1.672.231a5.361,5.361,0,0,0-.77.187,2.319,2.319,0,0,0-.66.33,1.449,1.449,0,0,0-.451.55,1.881,1.881,0,0,0-.165.825,1.053,1.053,0,0,0,.242.7,1.758,1.758,0,0,0,.583.451,2.7,2.7,0,0,0,.748.231,4.643,4.643,0,0,0,.737.066,4.084,4.084,0,0,0,.9-.11,3,3,0,0,0,.913-.374,2.4,2.4,0,0,0,.715-.671,1.7,1.7,0,0,0,.286-1Zm5.214-5.676h2.376V-9.7l.044.044a4.205,4.205,0,0,1,1.5-1.485,3.986,3.986,0,0,1,2.046-.539,4.251,4.251,0,0,1,2.948.968,3.7,3.7,0,0,1,1.078,2.9V0h-2.508V-7.15a3.09,3.09,0,0,0-.572-1.947,2.078,2.078,0,0,0-1.65-.605,2.725,2.725,0,0,0-1.144.231,2.481,2.481,0,0,0-.858.638,3,3,0,0,0-.55.957,3.416,3.416,0,0,0-.2,1.166V0h-2.508Zm20.306,3.806a2.353,2.353,0,0,0-.847-1.595,2.764,2.764,0,0,0-1.749-.539,3.606,3.606,0,0,0-1.034.165,2.453,2.453,0,0,0-1.012.616,3.453,3.453,0,0,0-.77,1.254,5.97,5.97,0,0,0-.308,2.1,6.152,6.152,0,0,0,.165,1.408,3.85,3.85,0,0,0,.528,1.254,2.86,2.86,0,0,0,.935.891,2.66,2.66,0,0,0,1.386.341,2.524,2.524,0,0,0,1.815-.682,3.17,3.17,0,0,0,.891-1.914h2.508a5.509,5.509,0,0,1-1.683,3.4A5.135,5.135,0,0,1,160.336.308a5.815,5.815,0,0,1-2.365-.451,5.013,5.013,0,0,1-1.727-1.232,5.232,5.232,0,0,1-1.067-1.859,7.264,7.264,0,0,1-.363-2.332,7.968,7.968,0,0,1,.352-2.4,5.493,5.493,0,0,1,1.056-1.947,4.941,4.941,0,0,1,1.749-1.3,5.9,5.9,0,0,1,2.453-.473,6.855,6.855,0,0,1,1.881.253,4.954,4.954,0,0,1,1.584.759,4.04,4.04,0,0,1,1.133,1.276,4.369,4.369,0,0,1,.528,1.826Zm12.364.88a4.045,4.045,0,0,0-.253-1.144,3.048,3.048,0,0,0-.572-.957,2.832,2.832,0,0,0-.88-.66,2.592,2.592,0,0,0-1.155-.253,3.014,3.014,0,0,0-1.2.231,2.742,2.742,0,0,0-.924.638,3.155,3.155,0,0,0-.616.957,3.338,3.338,0,0,0-.253,1.188Zm-5.852,1.65a4.368,4.368,0,0,0,.187,1.276,3.144,3.144,0,0,0,.561,1.078,2.7,2.7,0,0,0,.946.737,3.121,3.121,0,0,0,1.364.275,3.013,3.013,0,0,0,1.771-.473,2.8,2.8,0,0,0,1-1.419h2.376a4.729,4.729,0,0,1-.682,1.65,4.745,4.745,0,0,1-1.166,1.221,5.033,5.033,0,0,1-1.529.748,6.155,6.155,0,0,1-1.771.253,6.022,6.022,0,0,1-2.376-.44,4.912,4.912,0,0,1-1.749-1.232,5.228,5.228,0,0,1-1.078-1.892,7.686,7.686,0,0,1-.363-2.42,6.846,6.846,0,0,1,.385-2.3,5.885,5.885,0,0,1,1.1-1.914,5.26,5.26,0,0,1,1.727-1.309,5.238,5.238,0,0,1,2.288-.484,5.1,5.1,0,0,1,2.409.561,5.286,5.286,0,0,1,1.771,1.485,6.012,6.012,0,0,1,1.023,2.123,6.508,6.508,0,0,1,.165,2.475Z" transform="translate(258.893 2779.541)" fill="#2e384d"/>
    <path id="Path_6713" data-name="Path 6713" d="M11.891,0H.9a6.56,6.56,0,0,1,.966-3.5,8.837,8.837,0,0,1,2.576-2.6Q5.221-6.67,6.072-7.21A12.932,12.932,0,0,0,7.636-8.372,6.186,6.186,0,0,0,8.809-9.718a3.194,3.194,0,0,0,.483-1.667,4.556,4.556,0,0,0-.1-.931,2.464,2.464,0,0,0-.4-.92,2.373,2.373,0,0,0-.828-.713,2.883,2.883,0,0,0-1.38-.287,2.49,2.49,0,0,0-1.3.311,2.321,2.321,0,0,0-.828.851A4.245,4.245,0,0,0,3.99-11.8a9.229,9.229,0,0,0-.173,1.587H1.2a8.236,8.236,0,0,1,.357-2.473,5.484,5.484,0,0,1,1.069-1.967,5.047,5.047,0,0,1,1.737-1.3,5.637,5.637,0,0,1,2.381-.471,5.586,5.586,0,0,1,2.461.483,4.733,4.733,0,0,1,1.6,1.219,4.458,4.458,0,0,1,.863,1.6,5.843,5.843,0,0,1,.253,1.644,4.862,4.862,0,0,1-.3,1.748,5.629,5.629,0,0,1-.8,1.438A8.137,8.137,0,0,1,9.66-7.084q-.644.552-1.334,1.035t-1.38.92q-.69.437-1.276.874a7.5,7.5,0,0,0-1.023.908,2.579,2.579,0,0,0-.6,1h7.843Zm2.116-13.432a9.248,9.248,0,0,0,1.61-.138,5.024,5.024,0,0,0,1.414-.46,3.626,3.626,0,0,0,1.081-.828A2.535,2.535,0,0,0,18.7-16.1h2.139V0H17.963V-11.362H14.007Zm22.4,17.825q-.69-1.1-1.3-2.277A18.307,18.307,0,0,1,34.051-.356a17.793,17.793,0,0,1-.7-2.749A18.058,18.058,0,0,1,33.1-6.21a17.832,17.832,0,0,1,.862-5.474,21.27,21.27,0,0,1,2.45-5.129h2.139a23.3,23.3,0,0,0-2.1,5.094,20.509,20.509,0,0,0-.725,5.509,21.607,21.607,0,0,0,.69,5.52,20.047,20.047,0,0,0,2.139,5.083ZM40.94-5.888h4.876v-7.084H45.77Zm9.43,2.07H48.3V0H45.816V-3.818h-6.9v-2.6l6.9-9.683H48.3V-5.888h2.07ZM56.4-9.43a6.074,6.074,0,0,0,1.288-.092,3.584,3.584,0,0,0,1.15-.4,2.249,2.249,0,0,0,.817-.793,2.333,2.333,0,0,0,.31-1.242,2.1,2.1,0,0,0-.7-1.656,2.623,2.623,0,0,0-1.806-.621,2.461,2.461,0,0,0-1.2.276,2.456,2.456,0,0,0-.84.747,3.352,3.352,0,0,0-.494,1.058,3.978,3.978,0,0,0-.138,1.208H52.164a6.645,6.645,0,0,1,.437-2.174,5.469,5.469,0,0,1,1.069-1.737,4.75,4.75,0,0,1,1.645-1.15,5.5,5.5,0,0,1,2.185-.414,6.336,6.336,0,0,1,1.852.276,5.413,5.413,0,0,1,1.633.805A3.946,3.946,0,0,1,62.146-14a3.911,3.911,0,0,1,.437,1.875,4.016,4.016,0,0,1-.552,2.128,3.158,3.158,0,0,1-1.725,1.322v.046a3.324,3.324,0,0,1,2.151,1.369A4.491,4.491,0,0,1,63.227-4.6a4.493,4.493,0,0,1-.46,2.058A4.673,4.673,0,0,1,61.525-1a5.75,5.75,0,0,1-1.817.977,6.864,6.864,0,0,1-2.185.345,6.806,6.806,0,0,1-2.45-.4,4.707,4.707,0,0,1-1.748-1.138A4.916,4.916,0,0,1,52.256-2.99a7.225,7.225,0,0,1-.391-2.3h2.622a3.642,3.642,0,0,0,.725,2.45,2.764,2.764,0,0,0,2.312.977,3.288,3.288,0,0,0,2.2-.747A2.63,2.63,0,0,0,60.6-4.738a2.663,2.663,0,0,0-.368-1.495,2.38,2.38,0,0,0-.966-.84,3.91,3.91,0,0,0-1.346-.357A12.6,12.6,0,0,0,56.4-7.475Zm11.5-2.415a7.5,7.5,0,0,0,.092,1.207,3.409,3.409,0,0,0,.3.977,1.765,1.765,0,0,0,.54.656,1.355,1.355,0,0,0,.816.241A1.407,1.407,0,0,0,70.472-9a1.721,1.721,0,0,0,.552-.656,3.663,3.663,0,0,0,.31-.977,6.684,6.684,0,0,0,.1-1.207,7.8,7.8,0,0,0-.08-1.127,3.468,3.468,0,0,0-.287-.989,1.877,1.877,0,0,0-.552-.7,1.4,1.4,0,0,0-.874-.265,1.4,1.4,0,0,0-.874.265,1.78,1.78,0,0,0-.54.7,3.463,3.463,0,0,0-.265.989A9.079,9.079,0,0,0,67.9-11.845Zm1.771,4.577A3.924,3.924,0,0,1,67.9-7.636a3.293,3.293,0,0,1-1.2-.989,4.058,4.058,0,0,1-.667-1.449,7.283,7.283,0,0,1-.207-1.771,6.958,6.958,0,0,1,.219-1.76,4.088,4.088,0,0,1,.69-1.46,3.425,3.425,0,0,1,1.2-.989,3.8,3.8,0,0,1,1.737-.368,3.8,3.8,0,0,1,1.736.368,3.425,3.425,0,0,1,1.2.989,4.088,4.088,0,0,1,.69,1.46,6.958,6.958,0,0,1,.218,1.76,7.283,7.283,0,0,1-.207,1.771,4.058,4.058,0,0,1-.667,1.449,3.293,3.293,0,0,1-1.2.989A3.924,3.924,0,0,1,69.667-7.268Zm9.775,3.013a7.5,7.5,0,0,0,.092,1.208,3.409,3.409,0,0,0,.3.977,1.765,1.765,0,0,0,.54.656,1.355,1.355,0,0,0,.817.242,1.407,1.407,0,0,0,.828-.242,1.721,1.721,0,0,0,.552-.656,3.662,3.662,0,0,0,.311-.977,6.684,6.684,0,0,0,.1-1.208,7.8,7.8,0,0,0-.08-1.127,3.469,3.469,0,0,0-.288-.989,1.877,1.877,0,0,0-.552-.7,1.4,1.4,0,0,0-.874-.264,1.4,1.4,0,0,0-.874.264,1.78,1.78,0,0,0-.54.7,3.463,3.463,0,0,0-.264.989A9.079,9.079,0,0,0,79.442-4.255ZM81.213.322a3.923,3.923,0,0,1-1.771-.368,3.293,3.293,0,0,1-1.2-.989,4.058,4.058,0,0,1-.667-1.449,7.283,7.283,0,0,1-.207-1.771,6.958,6.958,0,0,1,.218-1.76,4.087,4.087,0,0,1,.69-1.46,3.425,3.425,0,0,1,1.2-.989,3.8,3.8,0,0,1,1.736-.368,3.8,3.8,0,0,1,1.737.368,3.425,3.425,0,0,1,1.2.989,4.088,4.088,0,0,1,.69,1.46,6.958,6.958,0,0,1,.219,1.76,7.283,7.283,0,0,1-.207,1.771,4.058,4.058,0,0,1-.667,1.449,3.293,3.293,0,0,1-1.2.989A3.924,3.924,0,0,1,81.213.322ZM78.867-16.652h1.748l-8.9,17.2H69.92ZM88.9-16.813q.69,1.1,1.288,2.288a19.934,19.934,0,0,1,1.047,2.484,18.716,18.716,0,0,1,.713,2.748,17.293,17.293,0,0,1,.264,3.105,17.832,17.832,0,0,1-.862,5.474A20.852,20.852,0,0,1,88.9,4.393H86.756a22.826,22.826,0,0,0,2.1-5.072,20.51,20.51,0,0,0,.724-5.508,21.607,21.607,0,0,0-.69-5.52,20.429,20.429,0,0,0-2.139-5.106Z" transform="translate(607.294 2780.541)" fill="#2e384d"/>
    <path id="Path_6720" data-name="Path 6720" d="M6.116-15.708a4.474,4.474,0,0,1,2.695.759,5.216,5.216,0,0,1,1.628,1.936,8.644,8.644,0,0,1,.792,2.585A18.578,18.578,0,0,1,11.44-7.7a18.578,18.578,0,0,1-.209,2.728,8.644,8.644,0,0,1-.792,2.585A5.216,5.216,0,0,1,8.811-.451,4.474,4.474,0,0,1,6.116.308a4.474,4.474,0,0,1-2.7-.759A5.216,5.216,0,0,1,1.793-2.387,8.644,8.644,0,0,1,1-4.972,18.578,18.578,0,0,1,.792-7.7,18.578,18.578,0,0,1,1-10.428a8.644,8.644,0,0,1,.792-2.585,5.216,5.216,0,0,1,1.628-1.936A4.474,4.474,0,0,1,6.116-15.708Zm0,13.926A2.018,2.018,0,0,0,7.48-2.255a3.2,3.2,0,0,0,.869-1.276A7.611,7.611,0,0,0,8.8-5.412,18.845,18.845,0,0,0,8.932-7.7,18.573,18.573,0,0,0,8.8-9.977a7.777,7.777,0,0,0-.451-1.881,3.2,3.2,0,0,0-.869-1.287,2.018,2.018,0,0,0-1.364-.473,2.008,2.008,0,0,0-1.375.473,3.252,3.252,0,0,0-.858,1.287,7.777,7.777,0,0,0-.451,1.881A18.573,18.573,0,0,0,3.3-7.7a18.845,18.845,0,0,0,.132,2.288,7.611,7.611,0,0,0,.451,1.881,3.262,3.262,0,0,0,.858,1.276A2.008,2.008,0,0,0,6.116-1.782Z" transform="translate(904.489 2779.541)" fill="#2e384d"/>
    <path id="Path_6709" data-name="Path 6709" d="M.168-14.994H12.306v2.268H7.539V0H4.914V-12.726H.168ZM20.706-2.415a1.27,1.27,0,0,0,.115.63.487.487,0,0,0,.451.189h.252a1.569,1.569,0,0,0,.336-.042V.021q-.126.042-.326.095t-.41.094q-.21.042-.42.063t-.357.021A2.308,2.308,0,0,1,19.131,0a1.464,1.464,0,0,1-.63-1.029A4.234,4.234,0,0,1,16.747-.021a6.905,6.905,0,0,1-2.005.315,4.918,4.918,0,0,1-1.407-.2,3.692,3.692,0,0,1-1.187-.588,2.818,2.818,0,0,1-.819-.987,3.041,3.041,0,0,1-.3-1.4,3.225,3.225,0,0,1,.368-1.638,2.723,2.723,0,0,1,.966-.987A4.363,4.363,0,0,1,13.7-6.016q.746-.158,1.5-.242a12.285,12.285,0,0,1,1.239-.178,5.814,5.814,0,0,0,1.04-.179A1.592,1.592,0,0,0,18.2-7a1.07,1.07,0,0,0,.263-.787,1.226,1.226,0,0,0-.221-.756A1.48,1.48,0,0,0,17.692-9a2.359,2.359,0,0,0-.725-.21,5.806,5.806,0,0,0-.756-.053,3.007,3.007,0,0,0-1.659.42,1.638,1.638,0,0,0-.735,1.3H11.424a3.6,3.6,0,0,1,.5-1.743A3.482,3.482,0,0,1,13.051-10.4a4.6,4.6,0,0,1,1.543-.588,9.19,9.19,0,0,1,1.764-.168,7.431,7.431,0,0,1,1.575.168,4.474,4.474,0,0,1,1.4.546,3.025,3.025,0,0,1,1,.976A2.679,2.679,0,0,1,20.706-8ZM18.312-5.439a2.906,2.906,0,0,1-1.344.431q-.8.074-1.6.22a5.117,5.117,0,0,0-.735.179,2.214,2.214,0,0,0-.63.315,1.383,1.383,0,0,0-.431.525,1.8,1.8,0,0,0-.158.787,1,1,0,0,0,.231.672,1.678,1.678,0,0,0,.557.43,2.577,2.577,0,0,0,.714.22,4.432,4.432,0,0,0,.7.063,3.9,3.9,0,0,0,.861-.105,2.864,2.864,0,0,0,.871-.357,2.294,2.294,0,0,0,.683-.641,1.62,1.62,0,0,0,.273-.955ZM33.327-.567A4.621,4.621,0,0,1,31.951,3.1,5.82,5.82,0,0,1,27.993,4.3a8.287,8.287,0,0,1-1.649-.168,4.9,4.9,0,0,1-1.512-.567,3.645,3.645,0,0,1-1.144-1.05,3.192,3.192,0,0,1-.546-1.6h2.394a1.917,1.917,0,0,0,.357.819,1.839,1.839,0,0,0,.6.494,2.276,2.276,0,0,0,.767.231,7.113,7.113,0,0,0,.882.053,2.792,2.792,0,0,0,2.121-.714,2.892,2.892,0,0,0,.672-2.058V-1.911h-.042A3.641,3.641,0,0,1,29.515-.5a3.691,3.691,0,0,1-1.879.5A4.961,4.961,0,0,1,25.42-.452a4.215,4.215,0,0,1-1.512-1.239,5.148,5.148,0,0,1-.872-1.816,8.572,8.572,0,0,1-.273-2.205A6.407,6.407,0,0,1,23.1-7.791a5.3,5.3,0,0,1,.966-1.733,4.627,4.627,0,0,1,1.543-1.186,4.7,4.7,0,0,1,2.069-.441,4.166,4.166,0,0,1,1.89.431,2.922,2.922,0,0,1,1.323,1.354h.042v-1.491h2.394ZM28.014-1.89a2.64,2.64,0,0,0,1.354-.325,2.659,2.659,0,0,0,.9-.861,3.79,3.79,0,0,0,.5-1.218,6.1,6.1,0,0,0,.157-1.376,5.357,5.357,0,0,0-.168-1.344,3.612,3.612,0,0,0-.514-1.155,2.487,2.487,0,0,0-.9-.8,2.82,2.82,0,0,0-1.333-.294,2.519,2.519,0,0,0-1.344.336,2.691,2.691,0,0,0-.882.872,3.76,3.76,0,0,0-.483,1.218,6.418,6.418,0,0,0-.147,1.355,5.152,5.152,0,0,0,.168,1.313,3.625,3.625,0,0,0,.514,1.145,2.745,2.745,0,0,0,.882.819A2.5,2.5,0,0,0,28.014-1.89Z" transform="translate(258.722 2624.5)" fill="#505f79"/>
    <path id="Path_6716" data-name="Path 6716" d="M1.52-14.28H8.34a5.291,5.291,0,0,1,3.54,1.02,3.554,3.554,0,0,1,1.18,2.84,4.147,4.147,0,0,1-.3,1.69,3.689,3.689,0,0,1-.7,1.08,2.734,2.734,0,0,1-.79.59q-.39.18-.57.24v.04a2.551,2.551,0,0,1,.69.2,2.036,2.036,0,0,1,.69.51,2.778,2.778,0,0,1,.53.91,4.022,4.022,0,0,1,.21,1.4,12.669,12.669,0,0,0,.19,2.29A3.013,3.013,0,0,0,13.6,0H10.92a2.333,2.333,0,0,1-.33-1.02q-.05-.56-.05-1.08a10.3,10.3,0,0,0-.12-1.69,2.947,2.947,0,0,0-.44-1.18,1.862,1.862,0,0,0-.87-.69A3.839,3.839,0,0,0,7.7-5.88H4.02V0H1.52Zm2.5,6.5h4.1a2.6,2.6,0,0,0,1.82-.57,2.21,2.21,0,0,0,.62-1.71,2.645,2.645,0,0,0-.2-1.11,1.617,1.617,0,0,0-.55-.67,2.021,2.021,0,0,0-.8-.32,5.3,5.3,0,0,0-.93-.08H4.02Zm18.36,1.7a3.677,3.677,0,0,0-.23-1.04,2.771,2.771,0,0,0-.52-.87,2.575,2.575,0,0,0-.8-.6,2.357,2.357,0,0,0-1.05-.23,2.74,2.74,0,0,0-1.09.21,2.493,2.493,0,0,0-.84.58,2.869,2.869,0,0,0-.56.87,3.035,3.035,0,0,0-.23,1.08Zm-5.32,1.5a3.971,3.971,0,0,0,.17,1.16,2.858,2.858,0,0,0,.51.98,2.458,2.458,0,0,0,.86.67,2.838,2.838,0,0,0,1.24.25,2.739,2.739,0,0,0,1.61-.43,2.542,2.542,0,0,0,.91-1.29h2.16a4.3,4.3,0,0,1-.62,1.5A4.314,4.314,0,0,1,22.84-.63a4.575,4.575,0,0,1-1.39.68,5.6,5.6,0,0,1-1.61.23,5.475,5.475,0,0,1-2.16-.4,4.465,4.465,0,0,1-1.59-1.12,4.753,4.753,0,0,1-.98-1.72,6.987,6.987,0,0,1-.33-2.2,6.224,6.224,0,0,1,.35-2.09,5.35,5.35,0,0,1,1-1.74,4.782,4.782,0,0,1,1.57-1.19,4.762,4.762,0,0,1,2.08-.44,4.634,4.634,0,0,1,2.19.51,4.806,4.806,0,0,1,1.61,1.35,5.466,5.466,0,0,1,.93,1.93,5.916,5.916,0,0,1,.15,2.25ZM28.12-3.32a1.718,1.718,0,0,0,.76,1.4,2.991,2.991,0,0,0,1.58.4,6.1,6.1,0,0,0,.73-.05,3.177,3.177,0,0,0,.77-.19,1.448,1.448,0,0,0,.59-.41.984.984,0,0,0,.21-.71,1.007,1.007,0,0,0-.32-.72,2.217,2.217,0,0,0-.77-.45,7.461,7.461,0,0,0-1.07-.29q-.6-.12-1.22-.26a11.451,11.451,0,0,1-1.23-.34,3.969,3.969,0,0,1-1.06-.54,2.5,2.5,0,0,1-.75-.87,2.78,2.78,0,0,1-.28-1.31,2.352,2.352,0,0,1,.41-1.41,3.143,3.143,0,0,1,1.04-.92,4.528,4.528,0,0,1,1.4-.49,8.224,8.224,0,0,1,1.47-.14,6.726,6.726,0,0,1,1.53.17,4.158,4.158,0,0,1,1.32.55,3.23,3.23,0,0,1,.98.99,3.427,3.427,0,0,1,.49,1.47H32.32a1.419,1.419,0,0,0-.75-1.1,3.113,3.113,0,0,0-1.35-.28,4.831,4.831,0,0,0-.57.04,2.636,2.636,0,0,0-.62.15,1.3,1.3,0,0,0-.49.32.765.765,0,0,0-.2.55.87.87,0,0,0,.29.68,2.3,2.3,0,0,0,.76.43,7.461,7.461,0,0,0,1.07.29q.6.12,1.24.26.62.14,1.22.34a3.934,3.934,0,0,1,1.07.54,2.624,2.624,0,0,1,.76.86,2.6,2.6,0,0,1,.29,1.28,2.781,2.781,0,0,1-.42,1.56A3.321,3.321,0,0,1,33.53-.48,4.958,4.958,0,0,1,32.04.1a7.539,7.539,0,0,1-1.62.18A7.051,7.051,0,0,1,28.61.06a4.219,4.219,0,0,1-1.44-.67,3.237,3.237,0,0,1-.96-1.12,3.563,3.563,0,0,1-.37-1.59Zm8.72-7.02H39v1.4h.04a2.819,2.819,0,0,1,1.34-1.29,4.45,4.45,0,0,1,1.86-.39,4.938,4.938,0,0,1,2.13.43,4.2,4.2,0,0,1,1.51,1.18,5.126,5.126,0,0,1,.9,1.75,7.412,7.412,0,0,1,.3,2.14,7.57,7.57,0,0,1-.27,2.02,5.255,5.255,0,0,1-.82,1.73A4.1,4.1,0,0,1,44.6-.17a4.134,4.134,0,0,1-1.98.45,5.634,5.634,0,0,1-1-.09,4.317,4.317,0,0,1-.96-.29,3.786,3.786,0,0,1-.85-.51,2.827,2.827,0,0,1-.65-.73h-.04V3.82H36.84ZM44.8-5.16a5.146,5.146,0,0,0-.18-1.36,3.7,3.7,0,0,0-.54-1.17,2.788,2.788,0,0,0-.9-.82,2.446,2.446,0,0,0-1.24-.31,2.514,2.514,0,0,0-2.17,1,4.413,4.413,0,0,0-.73,2.66,5.3,5.3,0,0,0,.19,1.45,3.263,3.263,0,0,0,.57,1.15,2.846,2.846,0,0,0,.91.76,2.6,2.6,0,0,0,1.23.28,2.547,2.547,0,0,0,1.32-.32,2.791,2.791,0,0,0,.89-.83,3.366,3.366,0,0,0,.5-1.16A5.9,5.9,0,0,0,44.8-5.16ZM53.74.28a5.631,5.631,0,0,1-2.21-.41,4.713,4.713,0,0,1-1.64-1.13,4.833,4.833,0,0,1-1.02-1.72,6.621,6.621,0,0,1-.35-2.2,6.557,6.557,0,0,1,.35-2.18,4.833,4.833,0,0,1,1.02-1.72,4.713,4.713,0,0,1,1.64-1.13,5.631,5.631,0,0,1,2.21-.41,5.631,5.631,0,0,1,2.21.41,4.713,4.713,0,0,1,1.64,1.13,4.833,4.833,0,0,1,1.02,1.72,6.557,6.557,0,0,1,.35,2.18,6.621,6.621,0,0,1-.35,2.2,4.833,4.833,0,0,1-1.02,1.72A4.713,4.713,0,0,1,55.95-.13,5.631,5.631,0,0,1,53.74.28Zm0-1.8a2.616,2.616,0,0,0,1.32-.32,2.782,2.782,0,0,0,.92-.84,3.666,3.666,0,0,0,.53-1.17,5.235,5.235,0,0,0,.17-1.33,5.273,5.273,0,0,0-.17-1.32,3.538,3.538,0,0,0-.53-1.17,2.825,2.825,0,0,0-.92-.83,2.616,2.616,0,0,0-1.32-.32,2.616,2.616,0,0,0-1.32.32,2.825,2.825,0,0,0-.92.83,3.538,3.538,0,0,0-.53,1.17,5.273,5.273,0,0,0-.17,1.32,5.235,5.235,0,0,0,.17,1.33,3.666,3.666,0,0,0,.53,1.17,2.782,2.782,0,0,0,.92.84A2.616,2.616,0,0,0,53.74-1.52Zm7.12-8.82h2.16v1.52l.04.04a3.823,3.823,0,0,1,1.36-1.35,3.624,3.624,0,0,1,1.86-.49,3.865,3.865,0,0,1,2.68.88,3.368,3.368,0,0,1,.98,2.64V0H67.66V-6.5a2.809,2.809,0,0,0-.52-1.77,1.889,1.889,0,0,0-1.5-.55,2.477,2.477,0,0,0-1.04.21,2.255,2.255,0,0,0-.78.58,2.726,2.726,0,0,0-.5.87,3.106,3.106,0,0,0-.18,1.06V0H60.86Zm13.2,7.02a1.718,1.718,0,0,0,.76,1.4,2.991,2.991,0,0,0,1.58.4,6.1,6.1,0,0,0,.73-.05,3.177,3.177,0,0,0,.77-.19,1.448,1.448,0,0,0,.59-.41.984.984,0,0,0,.21-.71,1.007,1.007,0,0,0-.32-.72,2.217,2.217,0,0,0-.77-.45,7.461,7.461,0,0,0-1.07-.29q-.6-.12-1.22-.26a11.451,11.451,0,0,1-1.23-.34,3.969,3.969,0,0,1-1.06-.54,2.5,2.5,0,0,1-.75-.87A2.78,2.78,0,0,1,72-7.66a2.352,2.352,0,0,1,.41-1.41,3.143,3.143,0,0,1,1.04-.92,4.529,4.529,0,0,1,1.4-.49,8.224,8.224,0,0,1,1.47-.14,6.726,6.726,0,0,1,1.53.17,4.158,4.158,0,0,1,1.32.55,3.23,3.23,0,0,1,.98.99,3.427,3.427,0,0,1,.49,1.47H78.26a1.419,1.419,0,0,0-.75-1.1,3.113,3.113,0,0,0-1.35-.28,4.831,4.831,0,0,0-.57.04,2.636,2.636,0,0,0-.62.15,1.3,1.3,0,0,0-.49.32.765.765,0,0,0-.2.55.87.87,0,0,0,.29.68,2.3,2.3,0,0,0,.76.43,7.461,7.461,0,0,0,1.07.29q.6.12,1.24.26.62.14,1.22.34a3.934,3.934,0,0,1,1.07.54,2.624,2.624,0,0,1,.76.86,2.6,2.6,0,0,1,.29,1.28,2.781,2.781,0,0,1-.42,1.56A3.321,3.321,0,0,1,79.47-.48,4.958,4.958,0,0,1,77.98.1a7.539,7.539,0,0,1-1.62.18A7.05,7.05,0,0,1,74.55.06a4.219,4.219,0,0,1-1.44-.67,3.237,3.237,0,0,1-.96-1.12,3.563,3.563,0,0,1-.37-1.59ZM89.82-6.08a3.676,3.676,0,0,0-.23-1.04,2.771,2.771,0,0,0-.52-.87,2.575,2.575,0,0,0-.8-.6,2.357,2.357,0,0,0-1.05-.23,2.74,2.74,0,0,0-1.09.21,2.493,2.493,0,0,0-.84.58,2.869,2.869,0,0,0-.56.87,3.035,3.035,0,0,0-.23,1.08ZM84.5-4.58a3.971,3.971,0,0,0,.17,1.16,2.859,2.859,0,0,0,.51.98,2.458,2.458,0,0,0,.86.67,2.838,2.838,0,0,0,1.24.25,2.739,2.739,0,0,0,1.61-.43,2.542,2.542,0,0,0,.91-1.29h2.16a4.3,4.3,0,0,1-.62,1.5A4.314,4.314,0,0,1,90.28-.63a4.575,4.575,0,0,1-1.39.68,5.6,5.6,0,0,1-1.61.23,5.475,5.475,0,0,1-2.16-.4,4.465,4.465,0,0,1-1.59-1.12,4.753,4.753,0,0,1-.98-1.72,6.987,6.987,0,0,1-.33-2.2,6.224,6.224,0,0,1,.35-2.09,5.35,5.35,0,0,1,1-1.74,4.782,4.782,0,0,1,1.57-1.19,4.762,4.762,0,0,1,2.08-.44,4.634,4.634,0,0,1,2.19.51,4.806,4.806,0,0,1,1.61,1.35,5.466,5.466,0,0,1,.93,1.93,5.916,5.916,0,0,1,.15,2.25ZM95.56-3.32a1.718,1.718,0,0,0,.76,1.4,2.991,2.991,0,0,0,1.58.4,6.1,6.1,0,0,0,.73-.05,3.177,3.177,0,0,0,.77-.19,1.448,1.448,0,0,0,.59-.41.984.984,0,0,0,.21-.71,1.007,1.007,0,0,0-.32-.72,2.217,2.217,0,0,0-.77-.45,7.461,7.461,0,0,0-1.07-.29q-.6-.12-1.22-.26a11.451,11.451,0,0,1-1.23-.34,3.969,3.969,0,0,1-1.06-.54,2.5,2.5,0,0,1-.75-.87,2.78,2.78,0,0,1-.28-1.31,2.352,2.352,0,0,1,.41-1.41,3.143,3.143,0,0,1,1.04-.92,4.529,4.529,0,0,1,1.4-.49,8.224,8.224,0,0,1,1.47-.14,6.726,6.726,0,0,1,1.53.17,4.158,4.158,0,0,1,1.32.55,3.23,3.23,0,0,1,.98.99,3.427,3.427,0,0,1,.49,1.47H99.76a1.419,1.419,0,0,0-.75-1.1,3.113,3.113,0,0,0-1.35-.28,4.831,4.831,0,0,0-.57.04,2.636,2.636,0,0,0-.62.15,1.3,1.3,0,0,0-.49.32.765.765,0,0,0-.2.55.87.87,0,0,0,.29.68,2.3,2.3,0,0,0,.76.43,7.461,7.461,0,0,0,1.07.29q.6.12,1.24.26.62.14,1.22.34a3.934,3.934,0,0,1,1.07.54,2.624,2.624,0,0,1,.76.86,2.6,2.6,0,0,1,.29,1.28,2.781,2.781,0,0,1-.42,1.56,3.321,3.321,0,0,1-1.09,1.04A4.958,4.958,0,0,1,99.48.1a7.539,7.539,0,0,1-1.62.18A7.05,7.05,0,0,1,96.05.06a4.219,4.219,0,0,1-1.44-.67,3.237,3.237,0,0,1-.96-1.12,3.563,3.563,0,0,1-.37-1.59Z" transform="translate(569.219 2625.5)" fill="#505f79"/>
    <path id="Path_6717" data-name="Path 6717" d="M1.42-14.28H4.06L10.58-3.76h.04V-14.28H13V0H10.36L3.86-10.5H3.8V0H1.42Zm14.54,0h6.3a5.987,5.987,0,0,1,2.48.44,3.914,3.914,0,0,1,1.48,1.1,3.736,3.736,0,0,1,.71,1.44,6.116,6.116,0,0,1,.19,1.44,5.994,5.994,0,0,1-.19,1.43A3.742,3.742,0,0,1,26.22-7a3.829,3.829,0,0,1-1.48,1.09,6.11,6.11,0,0,1-2.48.43h-3.8V0h-2.5Zm2.5,6.76h3.66a3.261,3.261,0,0,0,.86-.12,2.462,2.462,0,0,0,.81-.39,2,2,0,0,0,.6-.72,2.471,2.471,0,0,0,.23-1.13,2.921,2.921,0,0,0-.2-1.16,1.853,1.853,0,0,0-.54-.73,1.921,1.921,0,0,0-.78-.37,4.234,4.234,0,0,0-.94-.1h-3.7ZM30.94-4.76a3.2,3.2,0,0,0,.28,1.4,2.529,2.529,0,0,0,.78.95,3.326,3.326,0,0,0,1.15.54,5.56,5.56,0,0,0,1.41.17,4.528,4.528,0,0,0,1.4-.19,2.832,2.832,0,0,0,.94-.49,1.77,1.77,0,0,0,.52-.69,2.065,2.065,0,0,0,.16-.79,1.707,1.707,0,0,0-.37-1.21,2.114,2.114,0,0,0-.81-.55,16.939,16.939,0,0,0-1.77-.53q-1.01-.25-2.49-.65a5.339,5.339,0,0,1-1.53-.63,3.65,3.65,0,0,1-.97-.87,3.055,3.055,0,0,1-.51-1.02,4.091,4.091,0,0,1-.15-1.1,3.716,3.716,0,0,1,.45-1.87,4,4,0,0,1,1.19-1.31,5.233,5.233,0,0,1,1.68-.77,7.362,7.362,0,0,1,1.9-.25,7.471,7.471,0,0,1,2.11.29,5.2,5.2,0,0,1,1.74.87,4.262,4.262,0,0,1,1.19,1.43,4.226,4.226,0,0,1,.44,1.97h-2.5a2.41,2.41,0,0,0-.94-1.95,3.732,3.732,0,0,0-2.14-.57,4.681,4.681,0,0,0-.9.09,2.86,2.86,0,0,0-.84.3,1.843,1.843,0,0,0-.63.57,1.541,1.541,0,0,0-.25.9,1.532,1.532,0,0,0,.47,1.19,3.044,3.044,0,0,0,1.23.65q.08.02.63.17t1.23.33l1.33.35q.65.17.93.25a4.167,4.167,0,0,1,1.22.6,3.847,3.847,0,0,1,.87.87,3.592,3.592,0,0,1,.52,1.05,3.838,3.838,0,0,1,.17,1.12,4.04,4.04,0,0,1-.49,2.05A4.159,4.159,0,0,1,38.3-.7a5.608,5.608,0,0,1-1.82.79A8.706,8.706,0,0,1,34.4.34a8.559,8.559,0,0,1-2.3-.3,5.384,5.384,0,0,1-1.88-.92,4.5,4.5,0,0,1-1.28-1.59,5.293,5.293,0,0,1-.5-2.29Z" transform="translate(845.738 2625.5)" fill="#505f79"/>
    <g id="Group_Copy_2" data-name="Group Copy 2" transform="translate(306.964 2610.5)">
      <rect id="Rectangle" width="13.784" height="13.784" transform="translate(0)" fill="none"/>
      <g id="Group_27" data-name="Group 27" transform="translate(3.073 1.122)">
        <path id="Shape" d="M.093,4.3,3.558.121a.364.364,0,0,1,.542,0L7.547,4.3a.363.363,0,0,1-.271.6H.363A.363.363,0,0,1,.093,4.3Z" transform="translate(0 0)" fill="#0052cc"/>
        <path id="Shape-2" data-name="Shape" d="M.093-3.666,3.558.514a.364.364,0,0,0,.542,0L7.547-3.666a.363.363,0,0,0-.271-.6H.363A.363.363,0,0,0,.093-3.666Z" transform="translate(0 10.905)" fill="#dfe1e6"/>
      </g>
    </g>
    <g id="Group_Copy_2-2" data-name="Group Copy 2" transform="translate(685.915 2610.5)">
      <rect id="Rectangle-2" data-name="Rectangle" width="13.784" height="13.784" transform="translate(0)" fill="none"/>
      <g id="Group_27-2" data-name="Group 27" transform="translate(3.073 1.122)">
        <path id="Shape-3" data-name="Shape" d="M.093,4.3,3.558.121a.364.364,0,0,1,.542,0L7.547,4.3a.363.363,0,0,1-.271.6H.363A.363.363,0,0,1,.093,4.3Z" transform="translate(0 0)" fill="#0052cc"/>
        <path id="Shape-4" data-name="Shape" d="M.093-3.666,3.558.514a.364.364,0,0,0,.542,0L7.547-3.666a.363.363,0,0,0-.271-.6H.363A.363.363,0,0,0,.093-3.666Z" transform="translate(0 10.905)" fill="#dfe1e6"/>
      </g>
    </g>
    <g id="Group_Copy_2-3" data-name="Group Copy 2" transform="translate(902.705 2610.5)">
      <rect id="Rectangle-3" data-name="Rectangle" width="13.784" height="13.784" transform="translate(0)" fill="none"/>
      <g id="Group_27-3" data-name="Group 27" transform="translate(3.073 1.122)">
        <path id="Shape-5" data-name="Shape" d="M.093,4.3,3.558.121a.364.364,0,0,1,.542,0L7.547,4.3a.363.363,0,0,1-.271.6H.363A.363.363,0,0,1,.093,4.3Z" transform="translate(0 0)" fill="#0052cc"/>
        <path id="Shape-6" data-name="Shape" d="M.093-3.666,3.558.514a.364.364,0,0,0,.542,0L7.547-3.666a.363.363,0,0,0-.271-.6H.363A.363.363,0,0,0,.093-3.666Z" transform="translate(0 10.905)" fill="#dfe1e6"/>
      </g>
    </g>
    <path id="Path_6708" data-name="Path 6708" d="M0,0H672.778" transform="translate(258.722 2583.037)" fill="none" stroke="#e5e5e5" stroke-width="1"/>
  </g>
</svg>
