<svg xmlns="http://www.w3.org/2000/svg" width="50" height="50" viewBox="0 0 50 50">
  <g id="Group_9325" data-name="Group 9325" transform="translate(-596.939 -1515.5)">
    <path id="Path_6658" data-name="Path 6658" d="M552.489,50.6a25,25,0,1,0-25-25A25,25,0,0,0,552.489,50.6Z" transform="translate(69.45 1514.9)" fill="#52bd95" opacity="0.183"/>
    <g id="support-24px" transform="translate(604.438 1523)">
      <g id="Group_9313" data-name="Group 9313">
        <rect id="Rectangle_4214" data-name="Rectangle 4214" width="35" height="35" fill="none"/>
      </g>
      <g id="Group_9314" data-name="Group 9314" transform="translate(2.886 2.886)">
        <path id="Path_6640" data-name="Path 6640" d="M16.432,2A14.432,14.432,0,1,0,30.865,16.432,14.438,14.438,0,0,0,16.432,2ZM27.2,12.276l-4.012,1.66a7.19,7.19,0,0,0-4.258-4.243l1.66-4.012A11.492,11.492,0,0,1,27.2,12.276ZM16.432,20.762a4.33,4.33,0,1,1,4.33-4.33A4.324,4.324,0,0,1,16.432,20.762ZM12.29,5.666l1.689,4.012a7.217,7.217,0,0,0-4.3,4.286L5.666,12.29A11.523,11.523,0,0,1,12.29,5.666ZM5.666,20.574l4.012-1.66a7.17,7.17,0,0,0,4.286,4.272L12.276,27.2A11.54,11.54,0,0,1,5.666,20.574ZM20.589,27.2l-1.66-4.012A7.185,7.185,0,0,0,23.187,18.9L27.2,20.589A11.557,11.557,0,0,1,20.589,27.2Z" transform="translate(-2 -2)" fill="#03363d"/>
      </g>
    </g>
  </g>
</svg>
