<svg xmlns="http://www.w3.org/2000/svg" xmlns:xlink="http://www.w3.org/1999/xlink" width="655.586" height="415.331" viewBox="0 0 655.586 415.331">
  <defs>
    <filter id="Path_6046" x="109.358" y="14.685" width="184.832" height="184.831" filterUnits="userSpaceOnUse">
      <feOffset dy="6" input="SourceAlpha"/>
      <feGaussianBlur stdDeviation="6" result="blur"/>
      <feFlood flood-color="#d0c4c4" flood-opacity="0.184"/>
      <feComposite operator="in" in2="blur"/>
      <feComposite in="SourceGraphic"/>
    </filter>
    <filter id="Path_6046-2" x="240.392" y="138.516" width="220.634" height="220.633" filterUnits="userSpaceOnUse">
      <feOffset dy="6" input="SourceAlpha"/>
      <feGaussianBlur stdDeviation="6" result="blur-2"/>
      <feFlood flood-color="#d0c4c4" flood-opacity="0.184"/>
      <feComposite operator="in" in2="blur-2"/>
      <feComposite in="SourceGraphic"/>
    </filter>
    <filter id="Path_6652" x="391.28" y="0" width="159.202" height="159.202" filterUnits="userSpaceOnUse">
      <feOffset dy="3" input="SourceAlpha"/>
      <feGaussianBlur stdDeviation="3" result="blur-3"/>
      <feFlood flood-color="#decdcd" flood-opacity="0.161"/>
      <feComposite operator="in" in2="blur-3"/>
      <feComposite in="SourceGraphic"/>
    </filter>
    <filter id="Path_6654" x="480.601" y="220.274" width="174.985" height="174.985" filterUnits="userSpaceOnUse">
      <feOffset dy="3" input="SourceAlpha"/>
      <feGaussianBlur stdDeviation="3" result="blur-4"/>
      <feFlood flood-color="#decdcd" flood-opacity="0.161"/>
      <feComposite operator="in" in2="blur-4"/>
      <feComposite in="SourceGraphic"/>
    </filter>
    <filter id="Path_6654-2" x="43.99" y="223.578" width="186.822" height="186.823" filterUnits="userSpaceOnUse">
      <feOffset dy="3" input="SourceAlpha"/>
      <feGaussianBlur stdDeviation="3" result="blur-5"/>
      <feFlood flood-color="#decdcd" flood-opacity="0.161"/>
      <feComposite operator="in" in2="blur-5"/>
      <feComposite in="SourceGraphic"/>
    </filter>
  </defs>
  <g id="Group_9386" data-name="Group 9386" transform="translate(-233.5 -2417)">
    <g id="Group_9373" data-name="Group 9373" transform="translate(-20.727 51.301)">
      <path id="Path_6697" data-name="Path 6697" d="M.78-12.04H4.5V0H6.78V-12.04h3.7V-13.9H.78ZM12.78,0h2.28V-11.02H12.78Zm1.16-12.48a1.439,1.439,0,0,0,1.44-1.46,1.439,1.439,0,0,0-1.44-1.46,1.443,1.443,0,0,0-1.46,1.46A1.443,1.443,0,0,0,13.94-12.48ZM17.3-5.52c0,3.46,2.24,5.7,5.4,5.7a4.95,4.95,0,0,0,5.08-3.66H25.32A2.517,2.517,0,0,1,22.7-1.74c-1.84,0-3.06-1.36-3.06-3.78,0-2.4,1.22-3.76,3.06-3.76a2.575,2.575,0,0,1,2.62,1.74h2.46A4.794,4.794,0,0,0,22.7-11.2C19.54-11.2,17.3-8.96,17.3-5.52ZM30.06,0h2.28V-4.74L36.42,0H39.5L34.42-5.5l5.08-5.52H36.34l-4,4.82v-8.6H30.06ZM45.78-9.28A2.862,2.862,0,0,1,48.86-6.5h-6.1A3,3,0,0,1,45.78-9.28Zm5.16,6H48.48a2.668,2.668,0,0,1-2.6,1.54,3.031,3.031,0,0,1-3.14-2.92h8.42a7.033,7.033,0,0,0,.08-1.12,5.139,5.139,0,0,0-5.36-5.42c-3.26,0-5.5,2.22-5.5,5.68a5.346,5.346,0,0,0,5.5,5.7A5.035,5.035,0,0,0,50.94-3.28Zm2.9.22C53.84-.82,55.06,0,57.02,0h1.8V-1.9h-1.4c-.96,0-1.28-.34-1.28-1.16v-6.1h2.68v-1.86H56.14v-2.74h-2.3v2.74h-1.3v1.86h1.3Zm15.3-.02c-.12-3.98-6.34-2.74-6.34-4.96,0-.74.64-1.24,1.86-1.24a1.823,1.823,0,0,1,2.06,1.62H69c-.12-2.2-1.76-3.54-4.26-3.54-2.6,0-4.24,1.42-4.24,3.18,0,4.04,6.4,2.8,6.4,4.96,0,.76-.7,1.32-2.02,1.32a2.011,2.011,0,0,1-2.2-1.64H60.32c.1,2,1.96,3.56,4.6,3.56C67.52.18,69.14-1.22,69.14-3.08ZM71.32,3.5h2.24L79-18.88H76.74ZM10.88,24.06c0-5.08-7.36-3.12-7.36-6.26,0-1.34,1.02-1.98,2.34-1.94A2.175,2.175,0,0,1,8.2,17.7h2.52c-.2-2.38-2.08-3.78-4.74-3.78-2.84,0-4.78,1.52-4.78,3.96,0,5.12,7.38,2.94,7.38,6.3,0,1.18-.9,2.04-2.5,2.04A2.231,2.231,0,0,1,3.6,24.16H1.16c0,2.46,2.14,3.98,4.92,3.98C9.18,28.14,10.88,26.14,10.88,24.06Zm12.68-7.08H21.28v6.14c0,2.02-1.1,3.06-2.78,3.06-1.66,0-2.76-1.04-2.76-3.06V16.98H13.48v6.48a4.306,4.306,0,0,0,4.54,4.7,4.1,4.1,0,0,0,3.26-1.48V28h2.28Zm5.28,1.62V16.98H26.56V33.24h2.28V26.4a4.982,4.982,0,0,0,3.84,1.78c2.9,0,5.18-2.34,5.18-5.74s-2.28-5.64-5.18-5.64A4.808,4.808,0,0,0,28.84,18.6Zm6.7,3.84a3.475,3.475,0,0,1-3.36,3.76,3.435,3.435,0,0,1-3.34-3.72,3.429,3.429,0,0,1,3.34-3.7A3.384,3.384,0,0,1,35.54,22.44ZM42.4,18.6V16.98H40.12V33.24H42.4V26.4a4.982,4.982,0,0,0,3.84,1.78c2.9,0,5.18-2.34,5.18-5.74s-2.28-5.64-5.18-5.64A4.808,4.808,0,0,0,42.4,18.6Zm6.7,3.84a3.475,3.475,0,0,1-3.36,3.76,3.435,3.435,0,0,1-3.34-3.72,3.429,3.429,0,0,1,3.34-3.7A3.384,3.384,0,0,1,49.1,22.44Zm15.08.04a5.62,5.62,0,1,0-11.24,0,5.373,5.373,0,0,0,5.52,5.7A5.52,5.52,0,0,0,64.18,22.48Zm-8.92,0c0-2.5,1.54-3.7,3.26-3.7,1.7,0,3.32,1.2,3.32,3.7a3.394,3.394,0,0,1-3.38,3.72C56.74,26.2,55.26,24.98,55.26,22.48Zm13.46-.28c0-2.34,1.04-3.04,2.72-3.04h.58V16.8a3.59,3.59,0,0,0-3.3,1.78v-1.6H66.44V28h2.28Zm5.76,2.74c0,2.24,1.22,3.06,3.18,3.06h1.8V26.1h-1.4c-.96,0-1.28-.34-1.28-1.16v-6.1h2.68V16.98H76.78V14.24h-2.3v2.74h-1.3v1.86h1.3Zm15.3-.02c-.12-3.98-6.34-2.74-6.34-4.96,0-.74.64-1.24,1.86-1.24a1.823,1.823,0,0,1,2.06,1.62h2.28c-.12-2.2-1.76-3.54-4.26-3.54-2.6,0-4.24,1.42-4.24,3.18,0,4.04,6.4,2.8,6.4,4.96,0,.76-.7,1.32-2.02,1.32a2.011,2.011,0,0,1-2.2-1.64H80.96c.1,2,1.96,3.56,4.6,3.56C88.16,28.18,89.78,26.78,89.78,24.92Z" transform="translate(273.728 2463.3)" fill="#091e42"/>
      <path id="Path_6701" data-name="Path 6701" d="M.74-6.98A6.941,6.941,0,0,0,7.84.12,6.609,6.609,0,0,0,14.3-4.04H11.56A3.884,3.884,0,0,1,7.84-1.86c-2.76,0-4.76-1.98-4.76-5.12s2-5.1,4.76-5.1A3.884,3.884,0,0,1,11.56-9.9H14.3a6.626,6.626,0,0,0-6.46-4.18A6.953,6.953,0,0,0,.74-6.98ZM16.96,0h2.28V-6.16c0-2.02,1.1-3.06,2.78-3.06,1.66,0,2.76,1.04,2.76,3.06V0h2.26V-6.5c0-3.08-1.92-4.7-4.38-4.7a4.368,4.368,0,0,0-3.42,1.46V-14.8H16.96ZM29.18-5.56c0,3.4,2.3,5.74,5.16,5.74A4.743,4.743,0,0,0,38.2-1.64V0h2.3V-11.02H38.2v1.6a4.691,4.691,0,0,0-3.82-1.78C31.48-11.2,29.18-8.96,29.18-5.56Zm9.02.04A3.424,3.424,0,0,1,34.86-1.8a3.472,3.472,0,0,1-3.34-3.76,3.381,3.381,0,0,1,3.34-3.66A3.417,3.417,0,0,1,38.2-5.52Zm5.66,2.46C43.86-.82,45.08,0,47.04,0h1.8V-1.9h-1.4c-.96,0-1.28-.34-1.28-1.16v-6.1h2.68v-1.86H46.16v-2.74h-2.3v2.74h-1.3v1.86h1.3Zm9.36-6.32V-14.8H50.94V0h2.28V-1.6A4.683,4.683,0,0,0,57.06.18c2.9,0,5.18-2.34,5.18-5.74s-2.26-5.64-5.18-5.64A4.711,4.711,0,0,0,53.22-9.38Zm6.7,3.82A3.475,3.475,0,0,1,56.56-1.8a3.435,3.435,0,0,1-3.34-3.72,3.429,3.429,0,0,1,3.34-3.7A3.384,3.384,0,0,1,59.92-5.56ZM75-5.52a5.435,5.435,0,0,0-5.62-5.68,5.435,5.435,0,0,0-5.62,5.68A5.373,5.373,0,0,0,69.28.18,5.52,5.52,0,0,0,75-5.52Zm-8.92,0c0-2.5,1.54-3.7,3.26-3.7,1.7,0,3.32,1.2,3.32,3.7A3.394,3.394,0,0,1,69.28-1.8C67.56-1.8,66.08-3.02,66.08-5.52ZM77.62-3.06C77.62-.82,78.84,0,80.8,0h1.8V-1.9H81.2c-.96,0-1.28-.34-1.28-1.16v-6.1H82.6v-1.86H79.92v-2.74h-2.3v2.74h-1.3v1.86h1.3Z" transform="translate(806.182 2447.8)" fill="#091e42"/>
      <path id="Path_6699" data-name="Path 6699" d="M.74-6.98A6.941,6.941,0,0,0,7.84.12,6.609,6.609,0,0,0,14.3-4.04H11.56A3.884,3.884,0,0,1,7.84-1.86c-2.76,0-4.76-1.98-4.76-5.12s2-5.1,4.76-5.1A3.884,3.884,0,0,1,11.56-9.9H14.3a6.626,6.626,0,0,0-6.46-4.18A6.953,6.953,0,0,0,.74-6.98Zm24.44,3.9c-.12-3.98-6.34-2.74-6.34-4.96,0-.74.64-1.24,1.86-1.24a1.823,1.823,0,0,1,2.06,1.62h2.28c-.12-2.2-1.76-3.54-4.26-3.54-2.6,0-4.24,1.42-4.24,3.18,0,4.04,6.4,2.8,6.4,4.96,0,.76-.7,1.32-2.02,1.32a2.011,2.011,0,0,1-2.2-1.64H16.36c.1,2,1.96,3.56,4.6,3.56C23.56.18,25.18-1.22,25.18-3.08Zm1.16-7.94L30.52,0h2.72l4.2-11.02H35.02L31.9-2.04l-3.12-8.98ZM44.36,0h2.28V-6.08h4.6V-7.94h-4.6v-4.1h5.9V-13.9H44.36Zm10.3,0h2.28V-11.02H54.66Zm1.16-12.48a1.439,1.439,0,0,0,1.44-1.46,1.439,1.439,0,0,0-1.44-1.46,1.443,1.443,0,0,0-1.46,1.46A1.443,1.443,0,0,0,55.82-12.48ZM59.94,0h2.28V-14.8H59.94Zm9.92-9.28A2.862,2.862,0,0,1,72.94-6.5h-6.1A3,3,0,0,1,69.86-9.28Zm5.16,6H72.56a2.668,2.668,0,0,1-2.6,1.54,3.031,3.031,0,0,1-3.14-2.92h8.42a7.033,7.033,0,0,0,.08-1.12,5.139,5.139,0,0,0-5.36-5.42c-3.26,0-5.5,2.22-5.5,5.68a5.346,5.346,0,0,0,5.5,5.7A5.035,5.035,0,0,0,75.02-3.28Z" transform="translate(571.436 2741.959)" fill="#091e42"/>
      <path id="Path_6698" data-name="Path 6698" d="M1.5,0H3.78V-9.52L8.04,0H9.62l4.24-9.52V0h2.28V-13.9H13.7L8.84-3,3.96-13.9H1.5ZM18.38-5.56c0,3.4,2.3,5.74,5.16,5.74A4.743,4.743,0,0,0,27.4-1.64V0h2.3V-11.02H27.4v1.6a4.691,4.691,0,0,0-3.82-1.78C20.68-11.2,18.38-8.96,18.38-5.56Zm9.02.04A3.424,3.424,0,0,1,24.06-1.8a3.472,3.472,0,0,1-3.34-3.76,3.381,3.381,0,0,1,3.34-3.66A3.417,3.417,0,0,1,27.4-5.52ZM32.7,0h2.28V-11.02H32.7Zm1.16-12.48a1.439,1.439,0,0,0,1.44-1.46,1.439,1.439,0,0,0-1.44-1.46,1.443,1.443,0,0,0-1.46,1.46A1.443,1.443,0,0,0,33.86-12.48ZM37.98,0h2.28V-14.8H37.98Z" transform="translate(252.727 2686.85)" fill="#091e42"/>
      <path id="Path_6700" data-name="Path 6700" d="M10.88-3.94c0-5.08-7.36-3.12-7.36-6.26,0-1.34,1.02-1.98,2.34-1.94A2.175,2.175,0,0,1,8.2-10.3h2.52c-.2-2.38-2.08-3.78-4.74-3.78-2.84,0-4.78,1.52-4.78,3.96C1.2-5,8.58-7.18,8.58-3.82c0,1.18-.9,2.04-2.5,2.04A2.231,2.231,0,0,1,3.6-3.84H1.16C1.16-1.38,3.3.14,6.08.14,9.18.14,10.88-1.86,10.88-3.94Zm13.2-1.58a5.435,5.435,0,0,0-5.62-5.68,5.435,5.435,0,0,0-5.62,5.68A5.373,5.373,0,0,0,18.36.18,5.52,5.52,0,0,0,24.08-5.52Zm-8.92,0c0-2.5,1.54-3.7,3.26-3.7,1.7,0,3.32,1.2,3.32,3.7A3.394,3.394,0,0,1,18.36-1.8C16.64-1.8,15.16-3.02,15.16-5.52Zm10.42,0c0,3.46,2.24,5.7,5.4,5.7a4.95,4.95,0,0,0,5.08-3.66H33.6a2.517,2.517,0,0,1-2.62,1.74c-1.84,0-3.06-1.36-3.06-3.78,0-2.4,1.22-3.76,3.06-3.76A2.575,2.575,0,0,1,33.6-7.54h2.46a4.794,4.794,0,0,0-5.08-3.66C27.82-11.2,25.58-8.96,25.58-5.52ZM38.34,0h2.28V-11.02H38.34ZM39.5-12.48a1.439,1.439,0,0,0,1.44-1.46A1.439,1.439,0,0,0,39.5-15.4a1.443,1.443,0,0,0-1.46,1.46A1.443,1.443,0,0,0,39.5-12.48Zm3.36,6.92c0,3.4,2.3,5.74,5.16,5.74a4.743,4.743,0,0,0,3.86-1.82V0h2.3V-11.02h-2.3v1.6a4.691,4.691,0,0,0-3.82-1.78C45.16-11.2,42.86-8.96,42.86-5.56Zm9.02.04A3.424,3.424,0,0,1,48.54-1.8,3.472,3.472,0,0,1,45.2-5.56a3.381,3.381,0,0,1,3.34-3.66A3.417,3.417,0,0,1,51.88-5.52ZM57.18,0h2.28V-14.8H57.18ZM67.66,0h2.28V-9.52L74.2,0h1.58l4.24-9.52V0H82.3V-13.9H79.86L75-3,70.12-13.9H67.66ZM89.94-9.28A2.862,2.862,0,0,1,93.02-6.5h-6.1A3,3,0,0,1,89.94-9.28Zm5.16,6H92.64a2.668,2.668,0,0,1-2.6,1.54A3.031,3.031,0,0,1,86.9-4.66h8.42a7.033,7.033,0,0,0,.08-1.12,5.139,5.139,0,0,0-5.36-5.42c-3.26,0-5.5,2.22-5.5,5.68a5.346,5.346,0,0,0,5.5,5.7A5.035,5.035,0,0,0,95.1-3.28Zm1.78-2.28c0,3.4,2.3,5.74,5.2,5.74a4.569,4.569,0,0,0,3.82-1.84V0h2.3V-14.8h-2.3v5.32a5.076,5.076,0,0,0-3.8-1.72C99.18-11.2,96.88-8.96,96.88-5.56Zm9.02.04a3.424,3.424,0,0,1-3.34,3.72,3.472,3.472,0,0,1-3.34-3.76,3.381,3.381,0,0,1,3.34-3.66A3.417,3.417,0,0,1,105.9-5.52ZM111.2,0h2.28V-11.02H111.2Zm1.16-12.48a1.439,1.439,0,0,0,1.44-1.46,1.439,1.439,0,0,0-1.44-1.46,1.443,1.443,0,0,0-1.46,1.46A1.443,1.443,0,0,0,112.36-12.48Zm3.36,6.92c0,3.4,2.3,5.74,5.16,5.74a4.743,4.743,0,0,0,3.86-1.82V0h2.3V-11.02h-2.3v1.6a4.691,4.691,0,0,0-3.82-1.78C118.02-11.2,115.72-8.96,115.72-5.56Zm9.02.04A3.424,3.424,0,0,1,121.4-1.8a3.472,3.472,0,0,1-3.34-3.76,3.381,3.381,0,0,1,3.34-3.66A3.417,3.417,0,0,1,124.74-5.52Z" transform="translate(757.82 2780.85)" fill="#091e42"/>
      <g id="Group_9319" data-name="Group 9319" transform="translate(382.085 2392.885)">
        <g transform="matrix(1, 0, 0, 1, -127.86, -27.19)" filter="url(#Path_6046)">
          <path id="Path_6046-3" data-name="Path 6046" d="M294.531,437.446a73.916,73.916,0,1,0-73.916-73.915A73.913,73.913,0,0,0,294.531,437.446Z" transform="translate(-92.76 -262.43)" fill="#03363d" stroke="#ededed" stroke-width="1"/>
        </g>
        <g id="Group_9320" data-name="Group 9320" transform="translate(42.003 49.712)">
          <path id="Path_5258" data-name="Path 5258" d="M2128.831,73.938v35.624h-29.46Z" transform="translate(-2099.37 -61.153)" fill="#fff"/>
          <path id="Path_5259" data-name="Path 5259" d="M2128.831,71.668a14.73,14.73,0,1,1-29.46,0Zm4.9,48.4a14.73,14.73,0,0,1,29.461,0Z" transform="translate(-2099.37 -71.668)" fill="#fff"/>
          <path id="Path_5260" data-name="Path 5260" d="M2105.47,107.292V71.668h29.462Z" transform="translate(-2071.111 -71.668)" fill="#fff"/>
        </g>
      </g>
      <g id="Group_9374" data-name="Group 9374" transform="translate(-21.601 -34.793)">
        <g id="Group_9318" data-name="Group 9318" transform="translate(534.72 2551.509)">
          <g transform="matrix(1, 0, 0, 1, -258.89, -151.02)" filter="url(#Path_6046-2)">
            <path id="Path_6046-4" data-name="Path 6046" d="M312.432,473.248a91.817,91.817,0,1,0-91.817-91.816A91.814,91.814,0,0,0,312.432,473.248Z" transform="translate(38.28 -138.6)" fill="#1f7244" stroke="#d8f1e9" stroke-width="1"/>
          </g>
          <path id="Path_6051" data-name="Path 6051" d="M266.095,376.339l72.476-71.184-3.816,1.512-50.451,35.4L230.056,303.3v66.485a6.674,6.674,0,0,0,6.817,6.552Z" transform="translate(-188.315 -242.791)" fill="#1f7244"/>
        </g>
        <g id="csv-file-variant-with-graphs" transform="translate(575.403 2601.784)">
          <path id="Path_6693" data-name="Path 6693" d="M60.27,75.909c.11.007.219.016.33.016H85.755A5.342,5.342,0,0,0,91.09,70.59V12.28a5.342,5.342,0,0,0-5.336-5.336H60.6c-.111,0-.22.01-.33.017V0L11.176,6.552v69.81L60.27,83.084Zm0-24.689h8.14v3.05H60.27Zm0-.381V47.733h8.14v3.106Zm0-3.487V43.788h8.14v3.563Zm0-3.945V39.418h8.14v3.989Zm0-4.314v-3.8h8.14v3.8Zm0-4.126v-3.8h8.14v3.8ZM60.6,9.994H85.755a2.289,2.289,0,0,1,2.287,2.287V70.592a2.29,2.29,0,0,1-2.287,2.287H60.6a2.092,2.092,0,0,1-.33-.034V54.6h27V30.46h-.017V26.716H60.27V10.027A2.172,2.172,0,0,1,60.6,9.994ZM86.884,31.166V54.213H83.326V32.279H80.883V54.213H78.848V34.532H76.405V54.213H74.613V36.758H72.169V54.213H68.736V31.166H86.884Zm-8.973-.325v-3.8h9.011V30.46h-.039v.381Zm-.326,0H68.575v-3.8h9.011v3.8Zm-54,14.753a7.908,7.908,0,0,0,2.809-.472l.512,2.826a8.962,8.962,0,0,1-3.825.584c-5-.133-7.518-3.508-7.518-7.888,0-5.246,3.446-8.257,7.846-8.372a8.23,8.23,0,0,1,3.677.614l-.692,2.876a6.836,6.836,0,0,0-2.832-.543c-2.627.044-4.639,1.761-4.639,5.222C18.92,43.554,20.629,45.544,23.582,45.594Zm9.373,3.2A9.937,9.937,0,0,1,28.572,47.7l.7-2.99a8.757,8.757,0,0,0,3.889,1.069c1.639.028,2.513-.664,2.513-1.734,0-1.024-.755-1.612-2.653-2.325-2.585-.945-4.248-2.424-4.248-4.758,0-2.74,2.192-4.895,5.886-4.991a9.479,9.479,0,0,1,4.1.728l-.818,3.034a7.4,7.4,0,0,0-3.35-.728c-1.543.025-2.287.761-2.287,1.6,0,1.036.881,1.486,2.922,2.275,2.835,1.066,4.186,2.591,4.186,4.932C39.413,46.6,37.317,48.912,32.955,48.8Zm17.483.211-4.55-.118-5.356-16.8,4.127-.106,2.063,7.127c.585,2.017,1.12,3.964,1.527,6.093h.078c.434-2.047.975-4.073,1.568-6.03L52.131,31.8l4.293-.109Z" fill="#fff"/>
        </g>
      </g>
      <g id="Group_9373-2" data-name="Group 9373" transform="translate(3.071 -68.892)">
        <g transform="matrix(1, 0, 0, 1, 251.16, 2434.59)" filter="url(#Path_6652)">
          <g id="Path_6652-2" data-name="Path 6652" transform="translate(400.28 6)" fill="#0b5fff">
            <path d="M70.6,0A70.6,70.6,0,1,1,0,70.6,70.6,70.6,0,0,1,70.6,0Z" stroke="none"/>
            <path d="M 70.60085296630859 1 C 61.20436096191406 1 52.08945465087891 2.840103149414062 43.50936126708984 6.469192504882812 C 39.38543701171875 8.213455200195312 35.4078369140625 10.3724365234375 31.68704986572266 12.88616943359375 C 28.0013427734375 15.37619018554688 24.53545379638672 18.23582458496094 21.3856201171875 21.38565826416016 C 18.23577880859375 24.53549957275391 15.37614440917969 28.00140380859375 12.88613891601562 31.68711090087891 C 10.37242126464844 35.40791320800781 8.21343994140625 39.38553619384766 6.469161987304688 43.50946044921875 C 2.840087890625 52.08956909179688 1 61.20449829101562 1 70.60100555419922 C 1 79.99751281738281 2.840087890625 89.11244201660156 6.469161987304688 97.69255065917969 C 8.21343994140625 101.8164825439453 10.37242126464844 105.7940979003906 12.88613891601562 109.514892578125 C 15.37614440917969 113.2006072998047 18.23577880859375 116.6665191650391 21.3856201171875 119.8163528442383 C 24.53545379638672 122.9661865234375 28.0013427734375 125.8258209228516 31.68704986572266 128.3158416748047 C 35.4078369140625 130.8295745849609 39.38543701171875 132.9885559082031 43.50936126708984 134.7328186035156 C 52.08945465087891 138.3619079589844 61.20436096191406 140.2020111083984 70.60085296630859 140.2020111083984 C 79.99734497070312 140.2020111083984 89.11223602294922 138.3619079589844 97.69232177734375 134.7328186035156 C 101.8162536621094 132.9885559082031 105.7938537597656 130.8295745849609 109.5146484375 128.3158416748047 C 113.2003479003906 125.8258209228516 116.6662521362305 122.9661865234375 119.8160858154297 119.8163528442383 C 122.9659118652344 116.6665191650391 125.8255462646484 113.2006072998047 128.3155670166016 109.514892578125 C 130.8292846679688 105.7940979003906 132.9882659912109 101.8164825439453 134.7325439453125 97.69255065917969 C 138.3616180419922 89.11244201660156 140.2017059326172 79.99751281738281 140.2017059326172 70.60100555419922 C 140.2017059326172 61.20449829101562 138.3616180419922 52.08956909179688 134.7325439453125 43.50946044921875 C 132.9882659912109 39.38553619384766 130.8292846679688 35.40791320800781 128.3155670166016 31.68711090087891 C 125.8255462646484 28.00140380859375 122.9659118652344 24.53549957275391 119.8160858154297 21.38565826416016 C 116.6662521362305 18.23582458496094 113.2003479003906 15.37619018554688 109.5146484375 12.88616943359375 C 105.7938537597656 10.3724365234375 101.8162536621094 8.213455200195312 97.69232177734375 6.469192504882812 C 89.11223602294922 2.840103149414062 79.99734497070312 1 70.60085296630859 1 M 70.60085296630859 0 C 109.5926208496094 0 141.2017059326172 31.60915374755859 141.2017059326172 70.60100555419922 C 141.2017059326172 109.5928573608398 109.5926208496094 141.2020111083984 70.60085296630859 141.2020111083984 C 31.60906982421875 141.2020111083984 0 109.5928573608398 0 70.60100555419922 C 0 31.60915374755859 31.60906982421875 0 70.60085296630859 0 Z" stroke="none" fill="rgba(26,105,255,0.25)"/>
          </g>
        </g>
        <path id="Path_6653" data-name="Path 6653" d="M52.7,0H7.526C3.369,0,0,3.095,0,6.913V48.391C0,52.21,3.369,55.3,7.526,55.3H52.7c4.155,0,7.525-3.095,7.525-6.913V6.913C60.222,3.1,56.852,0,52.7,0ZM38.146,10.138a2.013,2.013,0,0,1,4.011,0v24.63a2.013,2.013,0,0,1-4.011,0ZM28.1,9.207a2.013,2.013,0,0,1,4.011,0V35.938a2.013,2.013,0,0,1-4.011,0Zm-10.037.931a2.013,2.013,0,0,1,4.012,0v24.63a2.013,2.013,0,0,1-4.012,0ZM8.028,13.825a1.931,1.931,0,0,1,2.005-1.843,1.931,1.931,0,0,1,2.007,1.843V30.406a1.931,1.931,0,0,1-2.007,1.843,1.928,1.928,0,0,1-2.005-1.843ZM51.494,41.946c-.321.244-7.749,5.975-21.386,5.975S9.037,42.192,8.726,41.946a1.741,1.741,0,0,1-.218-2.6,2.133,2.133,0,0,1,2.825-.2c.119.09,6.758,5.091,18.774,5.091,12.161,0,18.691-5.038,18.771-5.086a2.123,2.123,0,0,1,2.824.2A1.745,1.745,0,0,1,51.494,41.946Zm.69-11.539a2.013,2.013,0,0,1-4.011,0V13.825a2.013,2.013,0,0,1,4.011,0Z" transform="translate(691.925 2483.541)" fill="#fff"/>
      </g>
      <g id="Group_9321" data-name="Group 9321" transform="translate(51.15 3.112)">
        <g transform="matrix(1, 0, 0, 1, 203.08, 2362.59)" filter="url(#Path_6654)">
          <path id="Path_6654-3" data-name="Path 6654" d="M78.492,0A78.493,78.493,0,1,1,0,78.493,78.493,78.493,0,0,1,78.492,0Z" transform="translate(489.6 226.27)" fill="#485a96"/>
        </g>
        <path id="Path_6594" data-name="Path 6594" d="M29.422,80.078V43.548H42.778l2-14.229H29.422V20.2c0-4.133,1.232-6.941,7.663-6.941H45.3V.545C43.9.389,39,0,33.308,0,21.485,0,13.356,6.629,13.356,18.83V29.318H0V43.548H13.356v36.53Z" transform="translate(748.522 2627.315)" fill="#fff"/>
      </g>
      <g id="Group_9323" data-name="Group 9323" transform="translate(-385.066 6.578)">
        <g transform="matrix(1, 0, 0, 1, 639.29, 2359.12)" filter="url(#Path_6654-2)">
          <g id="Path_6654-4" data-name="Path 6654" transform="translate(52.99 229.58)" fill="#f44336">
            <path d="M 84.41114807128906 168.3226623535156 C 78.71756744384766 168.3226623535156 73.02768707275391 167.7490692138672 67.49960327148438 166.6178588867188 C 62.11225128173828 165.5154418945312 56.81308746337891 163.8704833984375 51.74929428100586 161.7286987304688 C 46.77733612060547 159.6257171630859 41.98181533813477 157.0227966308594 37.4959831237793 153.9922180175781 C 33.05262756347656 150.9903411865234 28.87429428100586 147.5428924560547 25.07700157165527 143.7455902099609 C 21.27973175048828 139.9483032226562 17.83227348327637 135.7699432373047 14.83041858673096 131.3265991210938 C 11.79983520507812 126.8407440185547 9.196918487548828 122.0452194213867 7.093960762023926 117.0732421875 C 4.952147960662842 112.0094451904297 3.307189702987671 106.7102584838867 2.204793930053711 101.3229064941406 C 1.073564767837524 95.7947998046875 0.5000022649765015 90.10492706298828 0.5000022649765015 84.41132354736328 C 0.5000022649765015 78.71772003173828 1.073564767837524 73.02784729003906 2.204793930053711 67.49974060058594 C 3.307189702987671 62.11238479614258 4.952147960662842 56.81319808959961 7.093960762023926 51.74940872192383 C 9.196918487548828 46.77742767333984 11.79983520507812 41.98190689086914 14.83041858673096 37.49605178833008 C 17.83227348327637 33.05270004272461 21.27973175048828 28.87434387207031 25.07700157165527 25.07707405090332 C 28.87429428100586 21.27978134155273 33.05262756347656 17.83232307434082 37.4959831237793 14.83044815063477 C 41.98181533813477 11.79986476898193 46.77733612060547 9.196949005126953 51.74929428100586 7.093969345092773 C 56.81308746337891 4.952157020568848 62.11225128173828 3.307219266891479 67.49960327148438 2.204802751541138 C 73.02768707275391 1.073594331741333 78.71756744384766 0.5000110268592834 84.41114807128906 0.5000110268592834 C 90.10472869873047 0.5000110268592834 95.79460906982422 1.073594331741333 101.3227081298828 2.204802751541138 C 106.7100448608398 3.307219266891479 112.0092086791992 4.952157020568848 117.0730056762695 7.093969345092773 C 122.0449829101562 9.196949005126953 126.8404846191406 11.79986476898193 131.3263092041016 14.83044815063477 C 135.7696685791016 17.83232307434082 139.9480285644531 21.27978134155273 143.7453002929688 25.07707405090332 C 147.5425720214844 28.87434387207031 150.9900207519531 33.05270004272461 153.9918823242188 37.49605178833008 C 157.0224609375 41.98190689086914 159.6253814697266 46.77742767333984 161.7283630371094 51.74940872192383 C 163.8701477050781 56.81319808959961 165.5151062011719 62.11238479614258 166.6175079345703 67.49974060058594 C 167.7487335205078 73.02784729003906 168.3222961425781 78.71772003173828 168.3222961425781 84.41132354736328 C 168.3222961425781 90.10492706298828 167.7487335205078 95.7947998046875 166.6175079345703 101.3229064941406 C 165.5151062011719 106.7102584838867 163.8701477050781 112.0094451904297 161.7283630371094 117.0732421875 C 159.6253814697266 122.0452194213867 157.0224609375 126.8407440185547 153.9918823242188 131.3265991210938 C 150.9900207519531 135.7699432373047 147.5425720214844 139.9483032226562 143.7453002929688 143.7455902099609 C 139.9480285644531 147.5428924560547 135.7696685791016 150.9903411865234 131.3263092041016 153.9922180175781 C 126.8404846191406 157.0227966308594 122.0449829101562 159.6257171630859 117.0730056762695 161.7286987304688 C 112.0092086791992 163.8704833984375 106.7100448608398 165.5154418945312 101.3227081298828 166.6178588867188 C 95.79460906982422 167.7490692138672 90.10472869873047 168.3226623535156 84.41114807128906 168.3226623535156 Z" stroke="none"/>
            <path d="M 84.41114807128906 1 C 78.75114440917969 1 73.09501647949219 1.570144653320312 67.59982299804688 2.694625854492188 C 62.24481964111328 3.790435791015625 56.97745513916016 5.425521850585938 51.94406127929688 7.554458618164062 C 47.00182342529297 9.644866943359375 42.23495483398438 12.23223876953125 37.77586364746094 15.2447509765625 C 33.35888671875 18.22880554199219 29.205322265625 21.65582275390625 25.43055725097656 25.43060302734375 C 21.65577697753906 29.20538330078125 18.22877502441406 33.35897827148438 15.24472045898438 37.77595520019531 C 12.23220825195312 42.23503875732422 9.64483642578125 47.00193023681641 7.554458618164062 51.94416809082031 C 5.425491333007812 56.97758483886719 3.790435791015625 62.24495697021484 2.694625854492188 67.5999755859375 C 1.570144653320312 73.09516906738281 1 78.75131988525391 1 84.41132354736328 C 1 90.07132720947266 1.570144653320312 95.72747802734375 2.694625854492188 101.2226715087891 C 3.790435791015625 106.5776977539062 5.425491333007812 111.8450622558594 7.554458618164062 116.8784790039062 C 9.64483642578125 121.8207092285156 12.23220825195312 126.5876007080078 15.24472045898438 131.0466918945312 C 18.22877502441406 135.4636688232422 21.65577697753906 139.6172637939453 25.43055725097656 143.3920440673828 C 29.205322265625 147.1668243408203 33.35888671875 150.5938415527344 37.77586364746094 153.577880859375 C 42.23495483398438 156.5904083251953 47.00182342529297 159.1777801513672 51.94406127929688 161.2681884765625 C 56.97745513916016 163.3971252441406 62.24481964111328 165.0322113037109 67.59982299804688 166.1280212402344 C 73.09501647949219 167.2525024414062 78.75114440917969 167.8226470947266 84.41114807128906 167.8226470947266 C 90.07115173339844 167.8226470947266 95.72727966308594 167.2525024414062 101.2224502563477 166.1280212402344 C 106.5774688720703 165.0322113037109 111.8448181152344 163.3971252441406 116.8782119750977 161.2681884765625 C 121.8204498291016 159.1777801513672 126.5873260498047 156.5904083251953 131.0464172363281 153.577880859375 C 135.46337890625 150.5938415527344 139.6169586181641 147.1668243408203 143.3917388916016 143.3920440673828 C 147.1665191650391 139.6172637939453 150.5935211181641 135.4636688232422 153.5775756835938 131.0466918945312 C 156.590087890625 126.5876007080078 159.1774597167969 121.8207092285156 161.2678375244141 116.8784790039062 C 163.3968048095703 111.8450622558594 165.0318603515625 106.5776977539062 166.1276702880859 101.2226715087891 C 167.2521514892578 95.72747802734375 167.8222961425781 90.07132720947266 167.8222961425781 84.41132354736328 C 167.8222961425781 78.75131988525391 167.2521514892578 73.09516906738281 166.1276702880859 67.5999755859375 C 165.0318603515625 62.24495697021484 163.3968048095703 56.97758483886719 161.2678375244141 51.94416809082031 C 159.1774597167969 47.00193023681641 156.590087890625 42.23503875732422 153.5775756835938 37.77595520019531 C 150.5935211181641 33.35897827148438 147.1665191650391 29.20538330078125 143.3917388916016 25.43060302734375 C 139.6169586181641 21.65582275390625 135.46337890625 18.22880554199219 131.0464172363281 15.2447509765625 C 126.5873260498047 12.23223876953125 121.8204498291016 9.644866943359375 116.8782119750977 7.554458618164062 C 111.8448181152344 5.425521850585938 106.5774688720703 3.790435791015625 101.2224502563477 2.694625854492188 C 95.72727966308594 1.570144653320312 90.07115173339844 1 84.41114807128906 1 M 84.41114807128906 0 C 131.0301208496094 0 168.8222961425781 37.792236328125 168.8222961425781 84.41132354736328 C 168.8222961425781 131.0304107666016 131.0301208496094 168.8226470947266 84.41114807128906 168.8226470947266 C 37.79214477539062 168.8226470947266 0 131.0304107666016 0 84.41132354736328 C 0 37.792236328125 37.79214477539062 0 84.41114807128906 0 Z" stroke="none" fill="#ededed"/>
          </g>
        </g>
      </g>
    </g>
    <g id="gmail" transform="translate(323 2635)">
      <rect id="Rectangle_4248" data-name="Rectangle 4248" width="64.968" height="64.968" transform="translate(10.969 64)" fill="#fcccc8"/>
      <path id="Path_6694" data-name="Path 6694" d="M256,173.674l32.5,25.663V148.672Z" transform="translate(-212.669 -70.34)" fill="#fcccc8"/>
      <path id="Path_6695" data-name="Path 6695" d="M78.537,64H75.828l-32.5,25.663L10.833,64H8.124A8.127,8.127,0,0,0,0,72.124v48.747A8.127,8.127,0,0,0,8.124,129h2.708V78.332l32.5,25,32.5-25V129h2.708a8.127,8.127,0,0,0,8.124-8.124V72.124A8.127,8.127,0,0,0,78.537,64Z" fill="#fff"/>
    </g>
  </g>
</svg>
