<?xml version="1.0" encoding="UTF-8"?> <svg xmlns="http://www.w3.org/2000/svg" width="34.093" height="60.205" viewBox="0 0 34.093 60.205"><g id="icon_1_" data-name="icon (1)" transform="translate(-5.951)"><path id="Path_41" data-name="Path 41" d="M35.663,0H10.332A4.382,4.382,0,0,0,5.951,4.386V55.824a4.38,4.38,0,0,0,4.381,4.381H35.663a4.382,4.382,0,0,0,4.381-4.381V4.386A4.385,4.385,0,0,0,35.663,0ZM16.747,2.663H29.253c.316,0,.573.472.573,1.055s-.257,1.057-.573,1.057H16.747c-.318,0-.57-.474-.57-1.057S16.429,2.663,16.747,2.663ZM23,55.877a2.8,2.8,0,1,1,2.793-2.8A2.8,2.8,0,0,1,23,55.877Zm13.762-9.585H9.235V7.4H36.762V46.292Z" fill="#f8632d"></path></g></svg> 