<?xml version="1.0" encoding="UTF-8"?> <svg xmlns="http://www.w3.org/2000/svg" width="49.416" height="60.395" viewBox="0 0 49.416 60.395"><g id="computer-tablet" transform="translate(-36.541)"><path id="Path_40" data-name="Path 40" d="M83.94,2.016A6.609,6.609,0,0,0,79.093,0H43.4a6.609,6.609,0,0,0-4.847,2.016,6.61,6.61,0,0,0-2.016,4.847v46.67A6.882,6.882,0,0,0,43.4,60.4H79.093a6.883,6.883,0,0,0,6.864-6.862V6.863A6.615,6.615,0,0,0,83.94,2.016ZM63.179,56.836a2.692,2.692,0,1,1,.816-1.93A2.638,2.638,0,0,1,63.179,56.836Zm17.287-8.794a1.391,1.391,0,0,1-1.373,1.373H43.4a1.391,1.391,0,0,1-1.372-1.373V6.863A1.392,1.392,0,0,1,43.4,5.491H79.093a1.391,1.391,0,0,1,1.373,1.373Z" transform="translate(0 0)" fill="#7644af"></path></g></svg> 