<?xml version="1.0" encoding="UTF-8"?> <svg xmlns="http://www.w3.org/2000/svg" width="70.474" height="70.369" viewBox="0 0 70.474 70.369"><g id="star_2_" data-name="star (2)" transform="translate(0 -0.036)"><path id="Path_1618" data-name="Path 1618" d="M16,16.2v8.075a2.2,2.2,0,0,0,2.2,2.2h3.3a1.835,1.835,0,0,1,0,3.67H18.2a2.2,2.2,0,0,0,0,4.4h3.3a6.24,6.24,0,0,0,0-12.48H20.4V18.4h5.139a2.2,2.2,0,1,0,0-4.4H18.2A2.2,2.2,0,0,0,16,16.2Z" transform="translate(30.983 27.041)" fill="#403294"></path><path id="Path_1619" data-name="Path 1619" d="M11,30.087A19.087,19.087,0,1,0,30.087,11,19.109,19.109,0,0,0,11,30.087Zm33.769,0A14.682,14.682,0,1,1,30.087,15.4,14.7,14.7,0,0,1,44.769,30.087Z" transform="translate(21.301 21.232)" fill="#403294"></path><path id="Path_1620" data-name="Path 1620" d="M13.431,37.546,10.4,56.1a2.2,2.2,0,0,0,3.239,2.279l13.851-7.655a2.2,2.2,0,1,0-2.135-3.853l-9.878,5.462,2.475-15.178a2.211,2.211,0,0,0-.6-1.894L6.772,24.412,21.3,22.192a2.2,2.2,0,0,0,1.659-1.239l6.4-13.637,6.4,13.637a2.194,2.194,0,0,0,1.659,1.239l14.532,2.22-.907.925a2.2,2.2,0,0,0,3.157,3.077l3.9-3.993a2.2,2.2,0,0,0-1.245-3.715L39.251,18.014,31.358,1.194a2.293,2.293,0,0,0-3.985,0l-7.9,16.823L1.871,20.706A2.2,2.2,0,0,0,.626,24.421Z" transform="translate(0)" fill="#403294"></path></g></svg> 