<?xml version="1.0" encoding="UTF-8"?> <svg xmlns="http://www.w3.org/2000/svg" width="60.085" height="43.146" viewBox="0 0 60.085 43.146"><g id="letter" transform="translate(0 -67.36)"><g id="Group_4292" data-name="Group 4292" transform="translate(0 67.362)"><g id="Group_4290" data-name="Group 4290" transform="translate(0)"><path id="Path_2" data-name="Path 2" d="M54.166,110.507H6.048A6.023,6.023,0,0,1,0,104.459V73.41a6.023,6.023,0,0,1,6.048-6.048H54.032A6.023,6.023,0,0,1,60.08,73.41v31.048A5.911,5.911,0,0,1,54.166,110.507ZM6.048,71.394A2.067,2.067,0,0,0,4.032,73.41v31.048a2.067,2.067,0,0,0,2.016,2.016H54.032a2.067,2.067,0,0,0,2.016-2.016V73.41a2.067,2.067,0,0,0-2.016-2.016Z" transform="translate(0 -67.362)" fill="#9a272c"></path></g><path id="Path_3" data-name="Path 3" d="M38.489,104.775a1.725,1.725,0,0,1-1.344-.538L10.263,80.448a2,2,0,0,1,2.688-2.957l25.537,22.581L64.026,77.491a2,2,0,1,1,2.688,2.957l-26.882,23.79A2.837,2.837,0,0,1,38.489,104.775Z" transform="translate(-8.381 -75.743)" fill="#9a272c"></path><g id="Group_4291" data-name="Group 4291" transform="translate(0.399 19.216)"><path id="Path_4" data-name="Path 4" d="M5.194,242.236a2.158,2.158,0,0,1-1.478-.672,1.949,1.949,0,0,1,.134-2.823l19.086-18.011a2,2,0,1,1,2.688,2.957L6.672,241.7A2.818,2.818,0,0,1,5.194,242.236Z" transform="translate(-3.174 -220.189)" fill="#9a272c"></path><path id="Path_5" data-name="Path 5" d="M312.2,242.607a1.726,1.726,0,0,1-1.344-.538l-19.086-18.011a2,2,0,0,1,2.688-2.957l19.086,18.011a2.079,2.079,0,0,1,.134,2.823A2.158,2.158,0,0,1,312.2,242.607Z" transform="translate(-254.937 -220.56)" fill="#9a272c"></path></g></g></g></svg> 