<?xml version="1.0" encoding="UTF-8"?> <svg xmlns="http://www.w3.org/2000/svg" xmlns:xlink="http://www.w3.org/1999/xlink" viewBox="0 0 248 192"><defs><clipPath id="clip-custom_1"><rect width="248" height="192"></rect></clipPath></defs><g id="custom_1" data-name="custom – 1" clip-path="url(#clip-custom_1)"><rect width="248" height="192" fill="rgba(255,255,255,0)"></rect><g id="_--Marketing_Logos_Sprocket" data-name="--Marketing/Logos/Sprocket" transform="translate(53 25)"><path id="Marketing_Logos_Sprocket" data-name="Marketing/Logos/Sprocket" d="M103.883,103.047c-11.077,0-20.056-8.569-20.056-19.137s8.979-19.139,20.056-19.139,20.056,8.569,20.056,19.139-8.979,19.137-20.056,19.137m6-55.982V30.04a13.078,13.078,0,0,0,7.919-11.812v-.393c0-7.2-6.173-13.092-13.719-13.092h-.41c-7.546,0-13.719,5.891-13.719,13.092v.393a13.081,13.081,0,0,0,7.919,11.814V47.065a39.83,39.83,0,0,0-18.493,7.768L30.4,18.47a14,14,0,0,0,.552-3.686C30.958,6.631,24.041.011,15.493,0S.01,6.593,0,14.748,6.907,29.524,15.455,29.533a15.869,15.869,0,0,0,7.623-1.978L71.262,63.326a35.836,35.836,0,0,0,.6,41.985L57.207,119.3a13.08,13.08,0,0,0-3.633-.564c-7.022,0-12.716,5.432-12.716,12.133S46.551,143,53.573,143s12.716-5.432,12.716-12.135A11.468,11.468,0,0,0,65.7,127.4l14.495-13.832a40.13,40.13,0,0,0,23.689,7.671c21.605,0,39.117-16.713,39.117-37.328,0-18.663-14.368-34.082-33.113-36.845" transform="translate(0 0)" fill="#ff7a59" fill-rule="evenodd"></path></g></g></svg> 