<?xml version="1.0" encoding="UTF-8"?> <svg xmlns="http://www.w3.org/2000/svg" xmlns:xlink="http://www.w3.org/1999/xlink" width="1112px" height="599px" viewBox="0 0 1112 599"><!-- Generator: Sketch 54.1 (76490) - https://sketchapp.com --><title>Group 22</title><desc>Created with Sketch.</desc><defs><polygon id="path-1" points="0 0.619948549 1111.74153 0.619948549 1111.74153 4.01792414 0 4.01792414"></polygon></defs><g id="survey-builder" stroke="none" stroke-width="1" fill="none" fill-rule="evenodd"><g id="Group-22" transform="translate(0.000000, -1.000000)"><g id="Group-3" transform="translate(0.000000, 579.462000)"><mask id="mask-2" fill="white"><use xlink:href="#path-1"></use></mask><g id="Clip-2"></g><path d="M665.8105,0.8534 C664.3105,0.8534 662.8095,0.8364 661.3115,0.8824 C660.3335,0.9124 659.1025,0.8474 659.0075,2.1794 C658.8815,3.9374 660.3535,3.7304 661.4685,3.8104 C662.2985,3.8694 663.1345,3.8304 663.9675,3.8304 C817.4475,3.8314 952.9275,3.8354 1106.4075,3.7804 C1108.3355,3.7794 1111.7245,4.9724 1111.7415,2.0204 C1111.7535,-0.2336 1108.4785,0.9154 1106.7485,0.9144 C1030.0925,0.8424 971.4365,0.8524 894.7795,0.8524 C818.4565,0.8524 742.1335,0.8524 665.8105,0.8534 M163.7795,0.8494 C240.4365,0.8494 317.0925,0.8394 393.7485,0.9114 C395.4785,0.9134 398.7535,-0.2366 398.7415,2.0184 C398.7245,4.9694 395.3355,3.7764 393.4075,3.7774 C239.9275,3.8334 158.4475,3.8284 4.9675,3.8284 C4.1345,3.8284 3.2985,3.8664 2.4685,3.8074 C1.3535,3.7284 -0.1185,3.9354 0.0075,2.1764 C0.1025,0.8444 1.3335,0.9094 2.3115,0.8794 C3.8095,0.8334 5.3105,0.8514 6.8105,0.8504 C83.1335,0.8504 87.4565,0.8504 163.7795,0.8494" id="Fill-1" fill="#959EAD" mask="url(#mask-2)"></path></g><path d="M645.9941,105.4233 C640.6181,97.9083 635.2401,90.3953 629.8721,82.8753 C629.5881,82.4773 629.2341,82.0413 629.1721,81.5873 C628.8711,79.4033 635.1951,73.7563 638.4221,73.4593 C642.3051,73.1013 645.4351,74.9813 645.4831,78.7403 C645.5431,83.4303 648.1661,84.4173 651.6971,85.5193 C655.1261,86.5883 658.6111,86.0823 662.0361,86.5903 C659.3071,95.0983 654.6231,101.9413 645.9941,105.4233" id="Fill-4" fill="#2BBCFF"></path><path d="M693.082,184.271 C683.162,165.518 672.061,147.513 659.149,130.592 C666.813,148.466 673.472,166.652 678.87,185.293 C683.608,184.965 688.499,186.751 693.082,184.271 M617.714,184.594 C600.136,171.327 581.938,159.191 561.375,150.792 C541.458,142.657 522.812,144.283 504.682,155.707 C489.415,165.325 476.601,177.558 465.227,191.417 C463.804,193.152 462.635,194.488 459.936,194.106 C422.515,188.813 385.146,183.255 348.605,173.288 C337.682,170.309 326.86,166.975 316.928,161.35 C309.052,156.891 308.249,154.908 311.793,146.53 C319.243,128.919 330.399,113.522 341.216,97.926 C372.485,52.84 416.549,29.551 470.107,23.307 C510.731,18.57 549.517,24.99 584.957,46.451 C614.981,64.632 635.478,91.356 651.188,122.146 C661.507,142.37 669.369,163.563 675.794,185.311 C657.889,185.332 639.982,185.371 622.076,185.34 C620.622,185.337 619.168,184.854 617.714,184.594" id="Fill-8" fill="#FFFFFF"></path><g id="Group-12" transform="translate(85.000000, 0.462000)" fill="#5444C4"><path d="M593.5439,178.6107 C588.8239,163.5797 583.5199,148.7627 576.8109,134.2327 C577.1029,135.4207 577.6449,136.2647 578.1819,137.0377 C587.7579,150.8237 596.2219,165.2907 604.5249,179.8587 C605.3979,181.3917 606.0909,183.2257 608.0829,183.8107 C609.1609,184.9157 610.4379,185.2857 611.9319,184.8477 C599.1859,160.3437 584.5569,137.0547 567.1949,115.5287 C564.6039,112.3157 562.1139,109.0397 560.9939,104.9617 C561.1179,103.1597 560.0159,101.8387 559.2039,100.4057 C556.0809,94.8957 552.0989,89.9757 548.4859,84.8017 C547.2859,83.0837 545.3849,81.3607 547.2559,79.0677 C549.1569,76.7377 551.2379,74.4197 554.6429,74.6627 C557.6499,74.8777 558.8109,77.0497 559.3099,79.6967 C559.6879,81.7077 560.1949,83.7177 562.2189,84.6487 C566.9669,86.8317 571.8119,88.5097 577.0359,86.1287 C593.2299,83.9367 604.4899,72.9687 605.6709,58.2397 C606.9039,42.8487 598.1579,30.3827 582.6859,25.6497 C580.8079,25.0747 579.6299,24.1547 578.5819,22.4497 C561.5109,-5.3373 525.6769,-6.9803 506.4049,19.1497 C504.9219,21.1617 503.6079,21.8387 501.0639,21.4277 C490.5669,19.7357 480.4809,21.3457 470.9799,26.1317 C468.7859,27.2357 466.8849,27.6127 464.4189,26.8487 C447.9399,21.7407 431.0449,18.8217 413.7899,18.6897 C347.4899,18.1777 292.3489,40.8707 253.2439,96.5127 C242.4239,111.9097 231.4829,127.2747 224.1159,144.7337 C219.8219,154.9097 220.9359,157.8597 230.4829,163.4447 C232.9749,164.9027 234.0589,166.2877 233.5769,169.2597 C232.2679,177.3337 232.1299,185.5127 232.1049,193.6697 C231.9919,230.1937 234.8199,266.5547 238.3389,302.8717 C239.2929,312.7167 234.0139,319.9417 224.5779,320.6357 C186.7069,323.4237 148.8269,326.0887 110.9489,328.7847 C90.3479,330.2517 69.7439,331.6877 49.1419,333.1487 C43.6579,333.5367 39.5659,336.0127 37.7779,341.3837 C35.1849,349.1747 40.5329,355.8207 49.9319,356.8027 C82.7249,360.2297 115.5169,363.6597 148.3039,367.1437 C194.6699,372.0687 241.0279,377.0717 287.3979,381.9717 C296.7509,382.9597 299.8259,380.9247 303.3489,372.1047 C326.1269,315.0647 348.9009,258.0227 371.6759,200.9817 C372.1079,199.8987 372.4769,198.7887 372.9609,197.7307 C373.4659,196.6267 374.4359,196.4117 375.4669,196.8327 C376.6539,197.3177 375.9199,198.2077 375.7019,198.8927 C375.3509,200.0007 374.8789,201.0707 374.4469,202.1527 C353.7749,253.9387 333.1129,305.7277 312.4179,357.5037 C309.5779,364.6097 306.8889,371.8067 303.4749,378.6337 C302.2239,381.1347 301.3739,383.2097 301.6749,385.9837 C304.8149,414.9567 307.8539,443.9417 310.9579,472.9187 C313.8499,499.9087 316.8329,526.8887 319.6359,553.8877 C319.9329,556.7407 320.9609,557.4797 323.6669,557.3827 C329.1589,557.1847 334.6689,557.1627 340.1599,557.3767 C343.0069,557.4877 343.7779,556.4777 344.0289,553.7427 C345.8119,534.3397 347.8149,514.9567 349.6719,495.5597 C353.8139,452.2907 357.8679,409.0137 362.0349,365.7477 C367.1929,312.2057 372.4979,258.6777 377.5149,205.1237 C377.9729,200.2297 379.4019,196.4127 382.5759,192.6817 C395.6269,177.3397 409.8639,163.4887 427.9889,154.1487 C440.9149,147.4867 454.2009,146.1057 468.1219,150.7257 C490.3979,158.1197 509.8549,170.4107 528.1339,184.8077 C529.6849,184.7497 531.3849,185.6997 532.7139,184.1317 C532.4019,181.6527 530.3079,180.5837 528.6409,179.3397 C511.7589,166.7467 494.1129,155.5287 474.2519,148.0237 C455.8349,141.0647 438.4819,142.6197 421.5119,152.5497 C405.8879,161.6937 393.0649,173.9517 381.3559,187.4767 C378.4189,190.8677 375.6659,192.2287 371.0949,191.6037 C339.7139,187.3167 308.4499,182.3587 277.6319,174.9967 C263.0629,171.5157 248.4689,167.8837 235.0329,160.8707 C225.4009,155.8437 224.6299,153.4757 229.4839,143.5607 C229.7039,143.1117 229.9409,142.6707 230.1539,142.2187 C238.7269,124.0147 250.4659,107.8017 262.2789,91.6767 C282.0839,64.6467 308.4679,46.4837 339.6879,34.8657 C372.1789,22.7747 405.5799,20.4157 439.5779,25.5497 C473.9089,30.7347 503.7269,45.5547 528.2809,70.1117 C542.8469,84.6787 554.3139,101.6967 563.7909,120.0267 C573.4679,138.7417 580.8779,158.3557 587.2809,178.3827 C588.0389,180.7547 588.6329,183.2317 590.7939,184.8487 L593.8699,184.8307 C595.2239,182.6867 594.1659,180.5907 593.5439,178.6107 M6.5679,343.1317 C13.1949,346.4287 12.7789,347.0137 7.5349,352.2917 C5.1579,354.6847 1.3149,356.2357 1.2729,360.2437 C1.1349,373.7837 1.2209,387.3247 1.2209,400.8657 C9.7629,387.1757 17.4119,373.2757 24.9819,359.3307 C25.4979,358.3797 25.5549,357.0997 25.5679,355.9697 C25.6289,350.8137 25.5879,345.6557 25.6069,340.4987 C25.6129,338.8187 25.6889,337.3187 23.6899,336.4007 C16.1879,332.9537 8.7589,329.3437 0.8059,325.5587 C1.0479,332.4137 -1.6411,339.0477 6.5679,343.1317 M385.2999,598.4347 C371.1359,598.4347 357.5729,598.5177 344.0129,598.3827 C340.0119,598.3427 338.4309,594.5237 336.0319,592.1557 C330.6949,586.8857 330.1099,586.4607 326.7989,593.1167 C322.7839,601.1877 316.1849,598.4857 309.1679,598.8347 C313.0989,590.6147 316.7999,582.9017 320.4709,575.1747 C321.2209,573.5957 322.6119,573.8607 323.9029,573.8557 C329.2319,573.8377 334.5619,573.8897 339.8899,573.8247 C341.4659,573.8057 342.8019,574.3047 344.1299,575.0357 C357.3899,582.3357 370.6559,589.6227 383.9089,596.9337 C384.2739,597.1347 384.5119,597.5697 385.2999,598.4347" id="Fill-10"></path></g><path d="M989.563208,583.3154 L501.968192,583.3154 C490.810946,583.3154 481.7657,578.0904 481.7657,571.6464 L481.7657,196.9844 C481.7657,190.5404 490.810946,185.3154 501.968192,185.3154 L989.563208,185.3154 C1000.72045,185.3154 1009.7657,190.5404 1009.7657,196.9844 L1009.7657,571.6464 C1009.7657,578.0904 1000.72045,583.3154 989.563208,583.3154" id="Fill-13" fill="#000639"></path><path d="M656.999999,485.228286 C657.00191,479.904437 652.219822,475.093176 646.836034,475.001369 C641.433144,474.90765 636.939491,479.636666 637.000616,485.350695 C637.057921,490.76922 641.456066,495.006686 647.012724,494.999992 C652.492975,494.993298 656.999044,490.58465 656.999999,485.228286 M678.378654,475.001788 C673.098423,474.893719 668.131662,479.701345 668.002642,485.047402 C667.874579,490.341816 672.418922,494.941912 677.834862,494.999294 C683.7621,495.061457 687.953791,491.015094 687.999665,485.185118 C688.043627,479.646832 683.760189,475.111769 678.378654,475.001788 M678.155454,441.000149 C672.678395,440.970509 668.061758,445.367684 668.000573,450.672213 C667.938431,455.950926 672.94417,461.072837 678.092356,460.999216 C683.657369,460.918902 687.958518,456.636461 687.999627,451.131148 C688.04456,445.170725 684.02257,441.032657 678.155454,441.000149 M646.717195,460.999743 C652.126638,461.039871 656.948928,456.375438 656.999528,451.052709 C657.052038,445.631571 652.7157,441.112363 647.353993,441.002488 C641.598941,440.883059 637.077388,445.076463 637.00101,450.60461 C636.923678,456.278939 641.29725,460.959615 646.717195,460.999743 M668.001362,519.61711 C667.9067,524.870847 672.760282,529.944968 677.93323,529.999426 C683.549845,530.057705 687.979839,525.673381 687.999919,520.034619 C688.020955,514.147454 683.960048,510.021088 678.124466,510.000069 C672.678051,509.980006 668.097937,514.33089 668.001362,519.61711 M637.000323,519.702121 C637.041383,514.311321 641.448219,510.009571 646.941724,510.000018 C652.537402,509.98951 657.159089,514.585494 656.995802,519.997311 C656.830605,525.483642 652.115339,530.097777 646.776527,529.998425 C641.20854,529.894296 636.957353,525.41677 637.000323,519.702121" id="Fill-15" fill="#F4F5FA"></path><path d="M531.7139,485.4638 C531.7119,472.6868 531.6939,459.9088 531.7199,447.1308 C531.7329,440.8338 535.2729,437.2798 541.5409,437.2748 C563.5999,437.2568 585.6589,437.2548 607.7179,437.2738 C613.9129,437.2788 617.7729,440.9168 617.7869,447.0628 C617.8509,472.8588 617.8469,498.6548 617.7879,524.4498 C617.7749,530.2768 613.7999,534.2458 607.9949,534.2608 C585.6949,534.3208 563.3949,534.3198 541.0949,534.2638 C535.5349,534.2508 531.7489,530.2458 531.7299,524.5188 C531.6859,511.5008 531.7159,498.4828 531.7139,485.4638" id="Fill-17" fill="#F4F5FA"></path><path d="M712.787961,135.015232 L686,105.462 L712.787961,135.015232 Z M764.758498,124.474844 L773.060935,92.6414688 L764.758498,124.474844 Z M803,160.295375 L839.2462,147.434929 L803,160.295375 Z" id="Combined-Shape" stroke="#5444C4" stroke-width="6" stroke-linecap="round" stroke-linejoin="round"></path><text id="1010" font-family="HelveticaNowText-Regular, Helvetica Now Text" font-size="21.7146" font-weight="normal" fill="#A8ACB7"><tspan x="548.9609" y="466.416473">1010</tspan></text><text id="1010" font-family="HelveticaNowText-Regular, Helvetica Now Text" font-size="21.7146" font-weight="normal" fill="#A8ACB7"><tspan x="548.9609" y="494">1010</tspan></text><text id="1010" font-family="HelveticaNowText-Regular, Helvetica Now Text" font-size="21.7146" font-weight="normal" fill="#A8ACB7"><tspan x="548.9609" y="521">1010</tspan></text><path d="M553.488,318.432 L562.96,318.432 L562.96,364 L553.68,364 L535.632,334.752 L535.632,364 L526.16,364 L526.16,318.432 L535.44,318.432 L553.488,347.68 L553.488,318.432 Z M586.128,365.088 C576.208,365.088 569.232,357.6 569.232,347.616 C569.232,337.632 576.208,330.144 586.128,330.144 C596.048,330.144 603.024,337.632 603.024,347.616 C603.024,357.6 596.048,365.088 586.128,365.088 Z M586.128,358.048 C591.184,358.048 594.32,353.952 594.32,347.616 C594.32,341.28 591.184,337.184 586.128,337.184 C581.072,337.184 577.936,341.28 577.936,347.616 C577.936,353.952 581.072,358.048 586.128,358.048 Z M646.224,318.432 L655.248,318.432 L655.248,364 L647.248,364 L646.928,359.904 C644.688,363.36 641.424,365.088 637.328,365.088 C629.008,365.088 623.12,357.984 623.12,347.36 C623.12,336.544 629.136,330.144 636.624,330.144 C640.848,330.144 643.984,331.552 646.224,334.304 L646.224,318.432 Z M639.248,357.152 C643.6,357.152 646.672,353.312 646.672,347.36 C646.672,341.408 643.6,337.632 639.248,337.632 C634.896,337.632 631.824,341.344 631.824,347.36 C631.824,353.44 634.896,357.152 639.248,357.152 Z M692.176,364 L683.024,364 C682.768,362.848 682.512,361.824 682.32,360.672 C680.08,363.36 676.496,364.96 672.144,364.96 C665.168,364.96 660.688,360.928 660.688,354.912 C660.688,349.664 664.08,346.272 670.736,344.928 L682.256,342.624 L682.256,340.192 C682.256,337.76 680.272,336.608 676.688,336.608 C672.976,336.608 671.248,337.888 670.8,340.96 L662.544,340.832 C663.184,333.6 667.728,330.208 676.624,330.208 C686.096,330.208 690.896,334.368 690.896,342.496 L690.896,357.088 C690.896,360.16 691.216,362.336 692.176,364 Z M674.704,358.304 C678.992,358.304 682.256,355.68 682.256,350.816 L682.256,348.384 L673.808,350.176 C671.056,350.752 669.52,352.16 669.52,354.336 C669.52,356.704 671.376,358.304 674.704,358.304 Z M709.2,337.44 L709.2,353.632 C709.2,355.872 710.096,356.768 712.336,356.768 L715.344,356.768 L715.344,364 L709.456,364 C702.8,364 700.176,361.376 700.176,354.72 L700.176,337.44 L695.696,337.632 L695.696,330.976 L700.176,331.104 L700.176,320.8 L709.2,320.8 L709.2,331.168 L715.344,330.976 L715.344,337.632 L709.2,337.44 Z M749.712,364 L740.56,364 C740.304,362.848 740.048,361.824 739.856,360.672 C737.616,363.36 734.032,364.96 729.68,364.96 C722.704,364.96 718.224,360.928 718.224,354.912 C718.224,349.664 721.616,346.272 728.272,344.928 L739.792,342.624 L739.792,340.192 C739.792,337.76 737.808,336.608 734.224,336.608 C730.512,336.608 728.784,337.888 728.336,340.96 L720.08,340.832 C720.72,333.6 725.264,330.208 734.16,330.208 C743.632,330.208 748.432,334.368 748.432,342.496 L748.432,357.088 C748.432,360.16 748.752,362.336 749.712,364 Z M732.24,358.304 C736.528,358.304 739.792,355.68 739.792,350.816 L739.792,348.384 L731.344,350.176 C728.592,350.752 727.056,352.16 727.056,354.336 C727.056,356.704 728.912,358.304 732.24,358.304 Z M786.64,325.664 C784.08,325.664 782.864,326.88 782.864,329.44 L782.864,331.168 L789.136,330.976 L789.136,337.632 L782.864,337.44 L782.864,364 L773.84,364 L773.84,337.44 L769.232,337.632 L769.232,330.976 L773.84,331.168 L773.84,328.992 C773.84,322.144 777.552,318.432 784.4,318.432 L789.136,318.432 L789.136,325.664 L786.64,325.664 Z M808.784,365.088 C798.864,365.088 791.888,357.6 791.888,347.616 C791.888,337.632 798.864,330.144 808.784,330.144 C818.704,330.144 825.68,337.632 825.68,347.616 C825.68,357.6 818.704,365.088 808.784,365.088 Z M808.784,358.048 C813.84,358.048 816.976,353.952 816.976,347.616 C816.976,341.28 813.84,337.184 808.784,337.184 C803.728,337.184 800.592,341.28 800.592,347.616 C800.592,353.952 803.728,358.048 808.784,358.048 Z M851.792,330.976 L860.816,330.976 L860.816,364 L851.984,364 L851.856,359.52 C849.68,363.104 846.544,364.832 842.32,364.832 C835.472,364.832 831.504,360.288 831.504,353.12 L831.504,330.976 L840.528,330.976 L840.528,351.072 C840.528,354.528 842.128,356.704 845.328,356.704 C849.168,356.704 851.792,353.568 851.792,348.64 L851.792,330.976 Z M886.992,330.144 C893.84,330.144 897.808,334.688 897.808,341.856 L897.808,364 L888.784,364 L888.784,343.904 C888.784,340.448 887.184,338.272 883.984,338.272 C880.144,338.272 877.52,341.408 877.52,346.336 L877.52,364 L868.496,364 L868.496,330.976 L877.328,330.976 L877.456,335.456 C879.632,331.872 882.768,330.144 886.992,330.144 Z M926.864,318.432 L935.888,318.432 L935.888,364 L927.888,364 L927.568,359.904 C925.328,363.36 922.064,365.088 917.968,365.088 C909.648,365.088 903.76,357.984 903.76,347.36 C903.76,336.544 909.776,330.144 917.264,330.144 C921.488,330.144 924.624,331.552 926.864,334.304 L926.864,318.432 Z M919.888,357.152 C924.24,357.152 927.312,353.312 927.312,347.36 C927.312,341.408 924.24,337.632 919.888,337.632 C915.536,337.632 912.464,341.344 912.464,347.36 C912.464,353.44 915.536,357.152 919.888,357.152 Z M946.512,349.024 L944.016,330.016 L944.016,318.432 L953.488,318.432 L953.488,330.016 L951.056,349.024 L946.512,349.024 Z M943.888,364 L943.888,354.4 L953.616,354.4 L953.616,364 L943.888,364 Z" id="Nodatafound!" fill="#FFFFFF" fill-rule="nonzero"></path><path d="M536.4,282.867 C526.251,282.867 519.264,274.962 519.264,263.844 C519.264,252.828 526.251,245.025 536.4,245.025 C546.6,245.025 553.587,252.828 553.587,263.844 C553.587,275.064 546.6,282.867 536.4,282.867 Z M536.451,278.634 C543.744,278.634 548.742,272.973 548.742,263.844 C548.742,254.919 543.642,249.258 536.451,249.258 C529.209,249.258 524.109,254.919 524.109,263.844 C524.109,272.871 529.209,278.634 536.451,278.634 Z M572.049,282.663 C564.501,282.663 559.401,277.104 559.401,268.842 C559.401,260.376 564.654,255.021 572.202,255.021 C579.546,255.021 584.748,260.274 584.748,268.638 C584.748,276.9 579.444,282.663 572.049,282.663 Z M572.049,278.736 C577.149,278.736 580.056,274.605 580.056,268.638 C580.056,262.671 577.149,258.948 572.049,258.948 C567.051,258.948 564.093,262.875 564.093,268.842 C564.093,274.809 567.102,278.736 572.049,278.736 Z M602.496,282.663 C594.948,282.663 589.848,277.104 589.848,268.842 C589.848,260.376 595.101,255.021 602.649,255.021 C609.993,255.021 615.195,260.274 615.195,268.638 C615.195,276.9 609.891,282.663 602.496,282.663 Z M602.496,278.736 C607.596,278.736 610.503,274.605 610.503,268.638 C610.503,262.671 607.596,258.948 602.496,258.948 C597.498,258.948 594.54,262.875 594.54,268.842 C594.54,274.809 597.549,278.736 602.496,278.736 Z M632.943,282.663 C625.395,282.663 620.295,277.104 620.295,268.842 C620.295,260.376 625.548,255.021 633.096,255.021 C640.44,255.021 645.642,260.274 645.642,268.638 C645.642,276.9 640.338,282.663 632.943,282.663 Z M632.943,278.736 C638.043,278.736 640.95,274.605 640.95,268.638 C640.95,262.671 638.043,258.948 632.943,258.948 C627.945,258.948 624.987,262.875 624.987,268.842 C624.987,274.809 627.996,278.736 632.943,278.736 Z M664.971,255.123 C671.652,255.123 676.293,260.274 676.293,268.23 C676.293,276.39 671.907,282.561 664.767,282.561 C661.401,282.561 658.647,281.031 656.964,278.787 L656.964,292.404 L652.272,292.404 L652.272,255.684 L656.352,255.684 L656.352,259.917 C657.882,257.01 661.095,255.123 664.971,255.123 Z M664.308,278.532 C668.847,278.532 671.601,274.35 671.601,268.23 C671.601,262.212 668.847,259.152 664.308,259.152 C659.922,259.152 656.709,262.314 656.709,268.536 C656.709,274.758 659.922,278.532 664.308,278.532 Z M691.848,282.663 C685.218,282.663 681.495,279.705 680.883,273.687 L685.371,273.687 C685.83,277.359 688.023,278.889 692.052,278.889 C696.336,278.889 698.325,277.257 698.325,274.758 C698.325,272.667 696.948,271.494 694.194,270.933 L688.89,269.811 C683.79,268.74 681.597,266.394 681.597,262.671 C681.597,258.081 684.912,255.072 691.389,255.072 C697.356,255.072 701.436,257.673 702.099,263.334 L697.458,263.334 C696.948,260.274 694.959,258.795 691.236,258.795 C687.921,258.795 685.932,259.917 685.932,262.263 C685.932,263.946 686.901,265.119 690.012,265.782 L695.112,266.904 C700.569,268.128 702.813,270.525 702.813,274.35 C702.813,279.501 698.784,282.663 691.848,282.663 Z M710.565,273.432 L709.188,256.143 L709.188,245.688 L713.931,245.688 L713.931,256.143 L712.554,273.432 L710.565,273.432 Z M708.933,282 L708.933,276.849 L714.186,276.849 L714.186,282 L708.933,282 Z" id="Oooops!" fill="#FFFFFF" fill-rule="nonzero"></path></g></g></svg> 