<?xml version="1.0" encoding="UTF-8"?> <svg xmlns="http://www.w3.org/2000/svg" width="60.767" height="60.787" viewBox="0 0 60.767 60.787"><g id="speech-bubble" transform="translate(-0.082)"><g id="Group_4293" data-name="Group 4293" transform="translate(5.459 15.64)"><path id="Path_6" data-name="Path 6" d="M82.959,145.313a8.909,8.909,0,0,0,3.931,1.111c1.38,0,1.951-.481,1.951-1.231s-.451-1.111-2.16-1.682c-3.032-1.021-4.2-2.671-4.173-4.412,0-2.731,2.342-4.8,5.972-4.8a9.838,9.838,0,0,1,4.143.84l-.81,3.152a7.188,7.188,0,0,0-3.181-.842c-1.111,0-1.741.451-1.741,1.2,0,.69.57,1.051,2.372,1.682,2.79.959,3.961,2.372,3.991,4.532,0,2.731-2.16,4.741-6.363,4.741a10.382,10.382,0,0,1-4.741-1.019Z" transform="translate(-82.149 -134.299)" fill="#2355a3"></path><path id="Path_7" data-name="Path 7" d="M171.573,139.309c0-1.829-.06-3.391-.12-4.681h3.842l.209,1.981h.09a5.092,5.092,0,0,1,4.442-2.31,4.158,4.158,0,0,1,4.021,2.489h.06a6.552,6.552,0,0,1,1.891-1.769,5.3,5.3,0,0,1,2.793-.72c2.82,0,4.953,1.981,4.953,6.361V149.3h-4.442v-7.983c0-2.132-.693-3.363-2.162-3.363a2.231,2.231,0,0,0-2.1,1.592,3.824,3.824,0,0,0-.179,1.171V149.3h-4.442v-8.224c0-1.861-.66-3.122-2.1-3.122a2.323,2.323,0,0,0-2.13,1.652,3.03,3.03,0,0,0-.179,1.141V149.3h-4.442Z" transform="translate(-157.71 -134.299)" fill="#2355a3"></path><path id="Path_8" data-name="Path 8" d="M335.276,145.313a8.909,8.909,0,0,0,3.931,1.111c1.38,0,1.951-.481,1.951-1.231s-.451-1.111-2.16-1.682c-3.032-1.021-4.2-2.671-4.173-4.412,0-2.731,2.342-4.8,5.972-4.8a9.844,9.844,0,0,1,4.143.84l-.81,3.152a7.188,7.188,0,0,0-3.182-.842c-1.111,0-1.741.451-1.741,1.2,0,.69.57,1.051,2.372,1.682,2.79.959,3.961,2.372,3.991,4.532,0,2.731-2.16,4.741-6.363,4.741a10.382,10.382,0,0,1-4.741-1.019Z" transform="translate(-295.637 -134.299)" fill="#2355a3"></path></g><g id="Group_4294" data-name="Group 4294" transform="translate(0.082)"><path id="Path_9" data-name="Path 9" d="M47.7,60.787l-19.012-15.6H6.363A6.344,6.344,0,0,1,.082,38.795V6.392A6.344,6.344,0,0,1,6.363,0h48.2a6.344,6.344,0,0,1,6.281,6.392V38.8a6.344,6.344,0,0,1-6.281,6.392H47.7v15.6ZM6.363,3.8A2.544,2.544,0,0,0,3.88,6.392V38.8a2.544,2.544,0,0,0,2.483,2.594H30.048L43.9,52.757V41.389H54.567A2.544,2.544,0,0,0,57.051,38.8V6.392A2.544,2.544,0,0,0,54.567,3.8Z" transform="translate(-0.082)" fill="#2355a3"></path></g></g></svg> 