<?xml version="1.0" encoding="UTF-8"?> <!-- Generator: Adobe Illustrator 21.1.0, SVG Export Plug-In . SVG Version: 6.00 Build 0) --> <svg xmlns="http://www.w3.org/2000/svg" xmlns:xlink="http://www.w3.org/1999/xlink" id="Layer_1" x="0px" y="0px" viewBox="0 0 412 290" style="enable-background:new 0 0 412 290;" xml:space="preserve"> <style type="text/css"> .st0{fill:#F5941F;} .st1{fill:#FFFFFF;} .st2{fill:#CFCFCF;} .st3{fill:#73E3E2;} .st4{fill:#231F20;} .st5{fill:#EB8175;} .st6{fill:#14103D;} .st7{fill:#231C61;} .st8{fill:#A8A8A8;} .st9{fill:#C8C6F2;} .st10{fill:#D8D7FD;} .st11{fill:#E16C5F;} .st12{clip-path:url(#SVGID_2_);enable-background:new ;} .st13{clip-path:url(#SVGID_4_);} .st14{clip-path:url(#SVGID_6_);enable-background:new ;} .st15{clip-path:url(#SVGID_8_);} .st16{fill:#F5D100;} .st17{fill:#F1AB00;} .st18{fill:#E1AD9D;} .st19{fill:#091218;} .st20{fill:#1B2934;} .st21{fill:#AF5D04;} .st22{clip-path:url(#SVGID_10_);enable-background:new ;} .st23{clip-path:url(#SVGID_12_);} .st24{clip-path:url(#SVGID_14_);enable-background:new ;} .st25{clip-path:url(#SVGID_16_);} </style> <g> <polygon class="st0" points="363.4,51.9 356.2,51.9 332.4,51.9 325.2,51.9 325.2,122.6 363.4,122.6 "></polygon> </g> <g> <rect x="341.3" y="201.3" class="st1" width="6" height="10.4"></rect> </g> <g> <polygon class="st0" points="354.7,35.3 352.6,35.3 335.9,35.3 333.9,35.3 333.9,50.4 354.7,50.4 "></polygon> </g> <g> <polygon class="st0" points="320.5,211.6 339.8,211.6 339.8,199.8 348.8,199.8 348.8,211.6 368,211.6 368,196.6 320.5,196.6 "></polygon> </g> <g> <polygon class="st0" points="323.7,124.1 320.5,124.1 320.5,195.1 368,195.1 368,124.1 364.9,124.1 "></polygon> </g> <g> <rect x="1.5" y="213.1" class="st1" width="408.7" height="12.9"></rect> </g> <g> <path class="st1" d="M410.2,226H1.5v-12.9h408.7V226z M410.9,211.6H0.7c-0.4,0-0.7,0.3-0.7,0.7v14.4c0,0.4,0.3,0.7,0.7,0.7h410.2 c0.4,0,0.7-0.3,0.7-0.7v-14.4C411.7,212,411.3,211.6,410.9,211.6z"></path> </g> <g> <path class="st2" d="M167.7,110.1h2.6c0.4,0,0.7,0.3,0.7,0.7v5.7c0,0.4-0.3,0.7-0.7,0.7h-2.6v1.3H220v-1.3h-2.6 c-0.4,0-0.7-0.3-0.7-0.7v-5.7c0-0.4,0.3-0.7,0.7-0.7h2.6v-1.3h-52.3V110.1z"></path> </g> <g> <polygon class="st2" points="248.9,207.5 248.9,211.6 299,211.6 299,207.5 293.6,207.5 254.3,207.5 "></polygon> </g> <g> <polygon class="st2" points="263.9,201.8 255,201.8 255,206 292.9,206 292.9,201.8 284,201.8 "></polygon> </g> <g> <polygon class="st2" points="223.9,41.5 203.8,41.5 191.3,41.5 191.3,44.1 248.7,44.1 248.7,41.5 243.9,41.5 "></polygon> </g> <g> <polygon class="st0" points="190,82.9 190.5,82.9 197.1,82.9 197.7,82.9 199.5,75.2 188.1,75.2 "></polygon> </g> <g> <rect x="191.3" y="84.4" class="st1" width="5.1" height="0.9"></rect> </g> <g> <path class="st1" d="M323.3,39l-8.2-8.2l2.4-2.4l5.8-5.8L323.3,39L323.3,39z M305.8,40.1l8.2-8.2l8.2,8.2H305.8z M304.7,22.6 l5.8,5.8l2.4,2.4l-8.2,8.2V22.6z M322.2,21.5l-5.8,5.8l-2.4,2.4l-2.4-2.4l-5.8-5.8H322.2z M303.2,39l-8.2-8.2l2.4-2.4l5.8-5.8 L303.2,39L303.2,39z M285.8,40.1l5.8-5.8l2.4-2.4l8.2,8.2H285.8z M284.7,22.6l8.2,8.2l-2.4,2.4l-5.8,5.8L284.7,22.6L284.7,22.6z M302.2,21.5l-5.8,5.8l-2.4,2.4l-8.2-8.2L302.2,21.5L302.2,21.5z M292.9,201.8v4.2H255v-4.2h8.9h20H292.9z M299,207.5v4.2h-50.2 v-4.2h5.4h39.4H299z M250.2,54.5v-9.7v-3.3h13v13L250.2,54.5L250.2,54.5z M245.7,40.1l8.2-8.2l8.2,8.2h-12.7H245.7z M248.7,44.1 h-57.4v-2.6h12.5h20h20h4.8V44.1z M199.5,75.2l-1.8,7.6h-0.6h-6.6H190l-1.8-7.6H199.5z M196.4,85.3h-5.1v-0.9h5.1V85.3z M185.6,40.1l17.5-17.5v17.5h-12.5H185.6z M204.6,22.6l8.2,8.2l-2.4,2.4l-5.8,5.8L204.6,22.6L204.6,22.6z M222.1,21.5l-8.2,8.2 l-8.2-8.2H222.1z M222.1,40.1h-16.4l5.8-5.8l2.4-2.4l2.4,2.4L222.1,40.1z M217.3,33.2l-2.4-2.4l8.2-8.2V39L217.3,33.2z M224.6,22.6 l5.8,5.8l2.4,2.4l-8.2,8.2L224.6,22.6L224.6,22.6z M242.1,21.5l-8.2,8.2l-2.4-2.4l-5.8-5.8L242.1,21.5L242.1,21.5z M242.1,40.1 h-16.4l8.2-8.2l2.4,2.4L242.1,40.1z M237.3,33.2l-2.4-2.4l8.2-8.2V39L237.3,33.2z M244.6,22.6l5.8,5.8l2.4,2.4l-8.2,8.2V22.6z M263.2,22.6V39l-8.2-8.2l2.4-2.4L263.2,22.6z M262.1,21.5l-5.8,5.8l-2.4,2.4l-2.4-2.4l-5.8-5.8H262.1z M264.7,182.8l5.8,5.8 l2.4,2.4l-8.2,8.2V182.8z M264.7,162.8l5.8,5.8l2.4,2.4l-8.2,8.2V162.8z M264.7,142.8l8.2,8.2l-8.2,8.2V142.8z M264.7,122.7 l5.8,5.8l2.4,2.4l-2.4,2.4l-5.8,5.8V122.7z M264.7,102.7l8.2,8.2l-8.2,8.2V102.7z M264.7,82.7l5.8,5.8l2.4,2.4l-8.2,8.2V82.7z M264.7,62.6l5.8,5.8l2.4,2.4l-8.2,8.2V62.6z M264.7,55.3V42.6l8.2,8.2l-8.2,8.2V55.3z M264.7,22.6l5.8,5.8l2.4,2.4l-8.2,8.2V22.6z M264.7,2.5l5.8,5.8l2.4,2.4l-8.2,8.2V2.5z M282.2,1.5l-8.2,8.2l-2.4-2.4l-5.8-5.8H282.2z M277.4,13.2l-2.4-2.4l8.2-8.2V19 L277.4,13.2z M277.4,33.2l-2.4-2.4l8.2-8.2V39L277.4,33.2z M277.4,53.2l-2.4-2.4l2.4-2.4l5.8-5.8V59L277.4,53.2z M277.4,73.3 l-2.4-2.4l8.2-8.2v16.4L277.4,73.3z M277.4,93.3l-2.4-2.4l8.2-8.2v16.4L277.4,93.3z M277.4,113.3l-2.4-2.4l2.4-2.4l5.8-5.8v16.4 L277.4,113.3z M275,130.9l8.2-8.2v16.4L275,130.9z M277.4,153.4L275,151l2.4-2.4l5.8-5.8v16.4L277.4,153.4z M277.4,173.4L275,171 l8.2-8.2v16.4L277.4,173.4z M277.4,193.4L275,191l8.2-8.2v16.4L277.4,193.4z M276.4,194.5l5.8,5.8h-16.4l8.2-8.2L276.4,194.5z M282.2,181.8l-8.2,8.2l-2.4-2.4l-5.8-5.8L282.2,181.8L282.2,181.8z M276.4,174.5l5.8,5.8h-16.4l8.2-8.2L276.4,174.5z M282.2,161.7 l-8.2,8.2l-2.4-2.4l-5.8-5.8L282.2,161.7L282.2,161.7z M276.4,154.4l5.8,5.8h-16.4l8.2-8.2L276.4,154.4z M282.2,141.7l-5.8,5.8 l-2.4,2.4l-8.2-8.2H282.2z M282.2,140.2h-16.4l5.8-5.8l2.4-2.4L282.2,140.2z M282.2,121.7l-8.2,8.2l-2.4-2.4l-5.8-5.8L282.2,121.7 L282.2,121.7z M276.4,114.4l5.8,5.8h-16.4l8.2-8.2L276.4,114.4z M282.2,101.6l-5.8,5.8l-2.4,2.4l-8.2-8.2H282.2z M276.4,94.3 l5.8,5.8h-16.4l8.2-8.2L276.4,94.3z M282.2,81.6l-8.2,8.2l-2.4-2.4l-5.8-5.8L282.2,81.6L282.2,81.6z M276.4,74.3l5.8,5.8h-16.4 l8.2-8.2L276.4,74.3z M282.2,61.6l-8.2,8.2l-2.4-2.4l-5.8-5.8L282.2,61.6L282.2,61.6z M276.4,54.3l5.8,5.8h-16.4l8.2-8.2 L276.4,54.3z M282.2,41.5l-5.8,5.8l-2.4,2.4l-8.2-8.2H282.2z M276.4,34.2l5.8,5.8h-16.4l8.2-8.2L276.4,34.2z M265.7,20l8.2-8.2 l2.4,2.4l5.8,5.8H265.7z M282.2,21.5l-8.2,8.2l-2.4-2.4l-5.8-5.8L282.2,21.5L282.2,21.5z M193.8,93.3l24.1,13.9h-48.2L193.8,93.3z M220,110.1h-2.6c-0.4,0-0.7,0.3-0.7,0.7v5.7c0,0.4,0.3,0.7,0.7,0.7h2.6v1.3h-52.3v-1.3h2.6c0.4,0,0.7-0.3,0.7-0.7v-5.7 c0-0.4-0.3-0.7-0.7-0.7h-2.6v-1.3H220V110.1z M324.7,20.6c0,0,0-0.1,0-0.1c0,0,0,0,0-0.1c0-0.1-0.1-0.1-0.1-0.2 c-0.1-0.1-0.1-0.1-0.2-0.1c0,0,0,0-0.1,0c0,0-0.1,0-0.1,0c0,0-0.1,0-0.1,0h-20h-19.3V0.7c0-0.1,0-0.1,0-0.1c0,0,0-0.1,0-0.1 c0,0,0,0,0-0.1c0-0.1-0.1-0.1-0.1-0.2c-0.1-0.1-0.1-0.1-0.2-0.1c0,0,0,0-0.1,0c0,0-0.1,0-0.1,0c0,0-0.1,0-0.1,0h-20 c-0.1,0-0.1,0-0.1,0c0,0-0.1,0-0.1,0c0,0,0,0-0.1,0c-0.1,0-0.1,0.1-0.2,0.1c-0.1,0.1-0.1,0.1-0.1,0.2c0,0,0,0,0,0.1 c0,0,0,0.1,0,0.1c0,0,0,0.1,0,0.1V20h-19.3h-20h-20c0,0,0,0-0.1,0c0,0-0.1,0-0.1,0c0,0-0.1,0-0.1,0c0,0,0,0-0.1,0 c0,0-0.1,0-0.1,0.1c0,0,0,0-0.1,0l-20,20c-0.2,0.2-0.3,0.5-0.2,0.8c0.1,0.3,0.4,0.5,0.7,0.5h6v3.3c0,0.4,0.3,0.7,0.7,0.7h2.5v28.1 h-5.9c-0.2,0-0.4,0.1-0.6,0.3c-0.1,0.2-0.2,0.4-0.1,0.6l2.2,9.1c0.1,0.3,0.4,0.6,0.7,0.6h0.4V86c0,0.4,0.3,0.7,0.7,0.7h2.6v0.4 c-1.3,0.3-2.3,1.5-2.3,3c0,1,0.5,1.9,1.3,2.5l-25.5,14.7l0,0c-0.2,0.1-0.4,0.4-0.4,0.6v2.8c0,0.4,0.3,0.7,0.7,0.7h2.6v4.2H167 c-0.4,0-0.7,0.3-0.7,0.7v2.8c0,0.4,0.3,0.7,0.7,0.7h53.7c0.4,0,0.7-0.3,0.7-0.7v-2.8c0-0.4-0.3-0.7-0.7-0.7h-2.6v-4.2h2.6 c0.4,0,0.7-0.3,0.7-0.7V108c0-0.3-0.2-0.5-0.4-0.6l0,0l-25.5-14.7c0.4-0.3,0.8-0.7,1-1.2l-1.3-0.6c-0.3,0.5-0.8,0.9-1.4,0.9 c-0.9,0-1.6-0.7-1.6-1.6c0-0.9,0.7-1.6,1.6-1.6c0.4,0,0.7-0.3,0.7-0.7v-1.1h2.6c0.4,0,0.7-0.3,0.7-0.7v-1.6h0.4 c0.3,0,0.6-0.2,0.7-0.6l2.2-9.1c0.1-0.2,0-0.5-0.1-0.6c-0.1-0.2-0.4-0.3-0.6-0.3h-5.9V45.6h54.1v9.7c0,0.4,0.3,0.7,0.7,0.7h13.7 v4.8v20v20v20v20v20v20v19.3h-8.9c-0.4,0-0.7,0.3-0.7,0.7v4.9h-5.4c-0.4,0-0.7,0.3-0.7,0.7v5.7c0,0.4,0.3,0.7,0.7,0.7h51.7 c0.4,0,0.7-0.3,0.7-0.7v-5.7c0-0.4-0.3-0.7-0.7-0.7h-5.4V201c0-0.4-0.3-0.7-0.7-0.7h-8.9V181v-20v-20v-20v-20v-20v-20V41.5H304h20 c0.1,0,0.2,0,0.3-0.1c0,0,0,0,0.1,0c0.1,0,0.1-0.1,0.2-0.1c0.1-0.1,0.1-0.1,0.1-0.2c0,0,0,0,0-0.1c0,0,0-0.1,0-0.1c0,0,0-0.1,0-0.1 v-20C324.8,20.7,324.7,20.7,324.7,20.6z"></path> </g> <g> <rect x="99.1" y="181.5" class="st3" width="6.4" height="10.8"></rect> </g> <g> <rect x="91.2" y="169.2" class="st3" width="6.4" height="10.8"></rect> </g> <g> <rect x="91.2" y="181.5" class="st3" width="6.4" height="10.8"></rect> </g> <g> <rect x="83.3" y="169.2" class="st3" width="6.4" height="10.8"></rect> </g> <g> <rect x="75.5" y="169.2" class="st3" width="6.4" height="10.8"></rect> </g> <g> <rect x="114.8" y="181.5" class="st3" width="6.7" height="10.8"></rect> </g> <g> <rect x="114.8" y="169.2" class="st3" width="6.7" height="10.8"></rect> </g> <g> <rect x="99.1" y="169.2" class="st3" width="6.4" height="10.8"></rect> </g> <g> <polygon class="st2" points="50.4,167.7 51.9,167.7 58.2,167.7 59.7,167.7 66.1,167.7 67.6,167.7 74,167.7 75.5,167.7 81.8,167.7 83.3,167.7 89.7,167.7 91.2,167.7 97.6,167.7 99.1,167.7 105.4,167.7 106.9,167.7 113.3,167.7 114.8,167.7 123,167.7 125.5,167.7 125.5,146.9 39.6,165.1 39.6,167.7 42.1,167.7 "></polygon> </g> <g> <rect x="75.5" y="181.5" class="st3" width="6.4" height="10.8"></rect> </g> <g> <rect x="106.9" y="181.5" class="st3" width="6.4" height="10.8"></rect> </g> <g> <rect x="106.9" y="169.2" class="st3" width="6.4" height="10.8"></rect> </g> <g> <rect x="83.3" y="181.5" class="st3" width="6.4" height="10.8"></rect> </g> <g> <rect x="43.6" y="169.2" class="st3" width="6.7" height="10.8"></rect> </g> <g> <rect x="39.6" y="201.2" class="st1" width="85.9" height="2.8"></rect> </g> <g> <rect x="43.6" y="181.5" class="st3" width="6.7" height="10.8"></rect> </g> <g> <rect x="39.6" y="205.4" class="st2" width="85.9" height="6.2"></rect> </g> <g> <polygon class="st2" points="114.8,193.9 113.3,193.9 106.9,193.9 105.4,193.9 99.1,193.9 97.6,193.9 91.2,193.9 89.7,193.9 83.3,193.9 81.8,193.9 75.5,193.9 74,193.9 67.6,193.9 66.1,193.9 59.7,193.9 58.2,193.9 51.9,193.9 50.4,193.9 42.1,193.9 39.6,193.9 39.6,199.7 125.5,199.7 125.5,193.9 123,193.9 "></polygon> </g> <g> <rect x="67.6" y="169.2" class="st3" width="6.4" height="10.8"></rect> </g> <g> <rect x="67.6" y="181.5" class="st3" width="6.4" height="10.8"></rect> </g> <g> <rect x="59.7" y="169.2" class="st3" width="6.4" height="10.8"></rect> </g> <g> <rect x="51.9" y="181.5" class="st3" width="6.4" height="10.8"></rect> </g> <g> <rect x="59.7" y="181.5" class="st3" width="6.4" height="10.8"></rect> </g> <g> <rect x="51.9" y="169.2" class="st3" width="6.4" height="10.8"></rect> </g> <g> <path class="st4" d="M38.9,161.6c0.1,0,0.1,0,0.2,0l87.4-19.3c0.4-0.1,0.7-0.5,0.6-0.9c-0.1-0.4-0.5-0.7-0.9-0.6l-87.4,19.3 c-0.4,0.1-0.7,0.5-0.6,0.9C38.2,161.4,38.5,161.6,38.9,161.6z"></path> </g> <g> <rect x="159.7" y="135.7" class="st3" width="9.3" height="9.3"></rect> </g> <g> <rect x="159.7" y="178.7" class="st3" width="9.3" height="9.3"></rect> </g> <g> <rect x="159.7" y="146.5" class="st3" width="9.3" height="9.2"></rect> </g> <g> <rect x="159.7" y="157.2" class="st3" width="9.3" height="9.2"></rect> </g> <g> <rect x="170.5" y="200.2" class="st3" width="9.3" height="11.4"></rect> </g> <g> <rect x="170.5" y="157.2" class="st3" width="9.3" height="9.2"></rect> </g> <g> <rect x="170.5" y="168" class="st3" width="9.3" height="9.2"></rect> </g> <g> <rect x="170.5" y="178.7" class="st3" width="9.3" height="9.3"></rect> </g> <g> <rect x="170.5" y="189.5" class="st3" width="9.3" height="9.3"></rect> </g> <g> <rect x="148.9" y="189.5" class="st3" width="9.3" height="9.3"></rect> </g> <g> <rect x="148.9" y="157.2" class="st3" width="9.3" height="9.2"></rect> </g> <g> <rect x="148.9" y="178.7" class="st3" width="9.3" height="9.3"></rect> </g> <g> <rect x="148.9" y="168" class="st3" width="9.3" height="9.2"></rect> </g> <g> <rect x="148.9" y="200.2" class="st3" width="9.3" height="11.4"></rect> </g> <g> <rect x="170.5" y="146.5" class="st3" width="9.3" height="9.2"></rect> </g> <g> <rect x="148.9" y="125.6" class="st3" width="9.3" height="8.6"></rect> </g> <g> <rect x="159.7" y="200.2" class="st3" width="9.3" height="11.4"></rect> </g> <g> <rect x="148.9" y="146.5" class="st3" width="9.3" height="9.2"></rect> </g> <g> <rect x="159.7" y="189.5" class="st3" width="9.3" height="9.3"></rect> </g> <g> <rect x="148.9" y="135.7" class="st3" width="9.3" height="9.3"></rect> </g> <g> <rect x="159.7" y="168" class="st3" width="9.3" height="9.2"></rect> </g> <g> <rect x="192.1" y="168" class="st3" width="9.3" height="9.2"></rect> </g> <g> <rect x="202.9" y="178.7" class="st3" width="9.3" height="9.3"></rect> </g> <g> <rect x="202.9" y="200.2" class="st3" width="9.3" height="11.4"></rect> </g> <g> <rect x="192.1" y="146.5" class="st3" width="9.3" height="9.2"></rect> </g> <g> <rect x="192.1" y="157.2" class="st3" width="9.3" height="9.2"></rect> </g> <g> <rect x="202.9" y="189.5" class="st3" width="9.3" height="9.3"></rect> </g> <g> <rect x="213.7" y="189.5" class="st3" width="9.3" height="9.3"></rect> </g> <g> <rect x="170.5" y="135.7" class="st3" width="9.3" height="9.3"></rect> </g> <g> <rect x="213.7" y="200.2" class="st3" width="9.3" height="11.4"></rect> </g> <g> <rect x="202.9" y="168" class="st3" width="9.3" height="9.2"></rect> </g> <g> <rect x="181.3" y="178.7" class="st3" width="9.3" height="9.3"></rect> </g> <g> <rect x="181.3" y="189.5" class="st3" width="9.3" height="9.3"></rect> </g> <g> <rect x="181.3" y="168" class="st3" width="9.3" height="9.2"></rect> </g> <g> <rect x="181.3" y="200.2" class="st3" width="9.3" height="11.4"></rect> </g> <g> <rect x="192.1" y="200.2" class="st3" width="9.3" height="11.4"></rect> </g> <g> <rect x="192.1" y="178.7" class="st3" width="9.3" height="9.3"></rect> </g> <g> <rect x="192.1" y="189.5" class="st3" width="9.3" height="9.3"></rect> </g> <g> <rect x="181.3" y="157.2" class="st3" width="9.3" height="9.2"></rect> </g> <g> <rect x="181.3" y="146.5" class="st3" width="9.3" height="9.2"></rect> </g> <g> <path class="st1" d="M223,198.7h-9.3v-9.3h9.3V198.7z M223,211.6h-9.3v-11.4h9.3V211.6z M212.2,177.2h-9.3V168h9.3V177.2z M212.2,188h-9.3v-9.3h9.3V188z M212.2,198.7h-9.3v-9.3h9.3V198.7z M212.2,211.6h-9.3v-11.4h9.3V211.6z M201.4,155.7h-9.3v-9.2h9.3 V155.7z M201.4,166.5h-9.3v-9.2h9.3V166.5z M201.4,177.2h-9.3V168h9.3V177.2z M201.4,188h-9.3v-9.3h9.3V188z M201.4,198.7h-9.3 v-9.3h9.3V198.7z M201.4,211.6h-9.3v-11.4h9.3V211.6z M190.6,155.7h-9.3v-9.2h9.3V155.7z M190.6,166.5h-9.3v-9.2h9.3V166.5z M190.6,177.2h-9.3V168h9.3V177.2z M190.6,188h-9.3v-9.3h9.3V188z M190.6,198.7h-9.3v-9.3h9.3V198.7z M190.6,211.6h-9.3v-11.4h9.3 V211.6z M179.8,145h-9.3v-9.3h9.3V145z M179.8,155.7h-9.3v-9.2h9.3V155.7z M179.8,166.5h-9.3v-9.2h9.3V166.5z M179.8,177.2h-9.3 V168h9.3V177.2z M179.8,188h-9.3v-9.3h9.3V188z M179.8,198.7h-9.3v-9.3h9.3V198.7z M179.8,211.6h-9.3v-11.4h9.3V211.6z M169,145 h-9.3v-9.3h9.3V145z M169,155.7h-9.3v-9.2h9.3V155.7z M169,166.5h-9.3v-9.2h9.3V166.5z M169,177.2h-9.3V168h9.3V177.2z M169,188 h-9.3v-9.3h9.3V188z M169,198.7h-9.3v-9.3h9.3V198.7z M169,211.6h-9.3v-11.4h9.3V211.6z M158.2,134.3h-9.3v-8.6h9.3V134.3z M158.2,145h-9.3v-9.3h9.3V145z M158.2,155.7h-9.3v-9.2h9.3V155.7z M158.2,166.5h-9.3v-9.2h9.3V166.5z M158.2,177.2h-9.3V168h9.3 V177.2z M158.2,188h-9.3v-9.3h9.3V188z M158.2,198.7h-9.3v-9.3h9.3V198.7z M158.2,211.6h-9.3v-11.4h9.3V211.6z M227.9,198.7h-3.4 v-9.3h3.4c0.4,0,0.7-0.3,0.7-0.7c0-0.4-0.3-0.7-0.7-0.7h-3.4h-10.8v-9.3h3.6c0.4,0,0.7-0.3,0.7-0.7c0-0.4-0.3-0.7-0.7-0.7h-3.6V168 h3.6c0.4,0,0.7-0.3,0.7-0.7c0-0.4-0.3-0.7-0.7-0.7h-3.6h-10.8v-9.2h2.9c0.4,0,0.7-0.3,0.7-0.7c0-0.4-0.3-0.7-0.7-0.7h-2.9v-9.2h2.9 c0.4,0,0.7-0.3,0.7-0.7c0-0.4-0.3-0.7-0.7-0.7h-2.9h-10.8h-1.5h-9.3v-9.3h3c0.4,0,0.7-0.3,0.7-0.7c0-0.4-0.3-0.7-0.7-0.7h-3h-10.8 H169h-9.3v-10.1h-12.3v10.1H144c-0.4,0-0.7,0.3-0.7,0.7c0,0.4,0.3,0.7,0.7,0.7h3.4v9.3h-2.9c-0.4,0-0.7,0.3-0.7,0.7 c0,0.4,0.3,0.7,0.7,0.7h2.9v9.2h-2.9c-0.4,0-0.7,0.3-0.7,0.7c0,0.4,0.3,0.7,0.7,0.7h2.9v9.2h-3.6c-0.4,0-0.7,0.3-0.7,0.7 c0,0.4,0.3,0.7,0.7,0.7h3.6v9.2h-3.6c-0.4,0-0.7,0.3-0.7,0.7c0,0.4,0.3,0.7,0.7,0.7h3.6v9.3H144c-0.4,0-0.7,0.3-0.7,0.7 c0,0.4,0.3,0.7,0.7,0.7h3.4v9.3H144c-0.4,0-0.7,0.3-0.7,0.7c0,0.4,0.3,0.7,0.7,0.7h3.4v12.9h10.8h1.5h9.3h1.5h9.3h1.5h9.3h1.5h9.3 h1.5h9.3h1.5h10.8v-12.9h3.4c0.4,0,0.7-0.3,0.7-0.7C228.7,199,228.3,198.7,227.9,198.7z"></path> </g> <g> <path class="st4" d="M338.9,39.3c-0.4,0-0.7,0.3-0.7,0.7v6.1c0,0.4,0.3,0.7,0.7,0.7c0.4,0,0.7-0.3,0.7-0.7v-6.1 C339.6,39.7,339.3,39.3,338.9,39.3z"></path> </g> <g> <path class="st4" d="M344.3,39.3c-0.4,0-0.7,0.3-0.7,0.7v6.1c0,0.4,0.3,0.7,0.7,0.7c0.4,0,0.7-0.3,0.7-0.7v-6.1 C345,39.7,344.7,39.3,344.3,39.3z"></path> </g> <g> <path class="st4" d="M349.7,39.3c-0.4,0-0.7,0.3-0.7,0.7v6.1c0,0.4,0.3,0.7,0.7,0.7c0.4,0,0.7-0.3,0.7-0.7v-6.1 C350.4,39.7,350.1,39.3,349.7,39.3z"></path> </g> <g> <path class="st4" d="M336.2,56c-0.4,0-0.7,0.3-0.7,0.7v6.1c0,0.4,0.3,0.7,0.7,0.7c0.4,0,0.7-0.3,0.7-0.7v-6.1 C336.9,56.4,336.6,56,336.2,56z"></path> </g> <g> <path class="st4" d="M341.6,56c-0.4,0-0.7,0.3-0.7,0.7v6.1c0,0.4,0.3,0.7,0.7,0.7c0.4,0,0.7-0.3,0.7-0.7v-6.1 C342.3,56.4,342,56,341.6,56z"></path> </g> <g> <path class="st4" d="M347,56c-0.4,0-0.7,0.3-0.7,0.7v6.1c0,0.4,0.3,0.7,0.7,0.7c0.4,0,0.7-0.3,0.7-0.7v-6.1 C347.7,56.4,347.4,56,347,56z"></path> </g> <g> <path class="st4" d="M352.4,56c-0.4,0-0.7,0.3-0.7,0.7v6.1c0,0.4,0.3,0.7,0.7,0.7c0.4,0,0.7-0.3,0.7-0.7v-6.1 C353.1,56.4,352.8,56,352.4,56z"></path> </g> <g> <path class="st4" d="M336.2,66.7c-0.4,0-0.7,0.3-0.7,0.7v6.1c0,0.4,0.3,0.7,0.7,0.7c0.4,0,0.7-0.3,0.7-0.7v-6.1 C336.9,67,336.6,66.7,336.2,66.7z"></path> </g> <g> <path class="st4" d="M341.6,66.7c-0.4,0-0.7,0.3-0.7,0.7v6.1c0,0.4,0.3,0.7,0.7,0.7c0.4,0,0.7-0.3,0.7-0.7v-6.1 C342.3,67,342,66.7,341.6,66.7z"></path> </g> <g> <path class="st4" d="M347,66.7c-0.4,0-0.7,0.3-0.7,0.7v6.1c0,0.4,0.3,0.7,0.7,0.7c0.4,0,0.7-0.3,0.7-0.7v-6.1 C347.7,67,347.4,66.7,347,66.7z"></path> </g> <g> <path class="st4" d="M352.4,66.7c-0.4,0-0.7,0.3-0.7,0.7v6.1c0,0.4,0.3,0.7,0.7,0.7c0.4,0,0.7-0.3,0.7-0.7v-6.1 C353.1,67,352.8,66.7,352.4,66.7z"></path> </g> <g> <path class="st4" d="M336.2,77.4c-0.4,0-0.7,0.3-0.7,0.7v6.1c0,0.4,0.3,0.7,0.7,0.7c0.4,0,0.7-0.3,0.7-0.7v-6.1 C336.9,77.7,336.6,77.4,336.2,77.4z"></path> </g> <g> <path class="st4" d="M341.6,77.4c-0.4,0-0.7,0.3-0.7,0.7v6.1c0,0.4,0.3,0.7,0.7,0.7c0.4,0,0.7-0.3,0.7-0.7v-6.1 C342.3,77.7,342,77.4,341.6,77.4z"></path> </g> <g> <path class="st4" d="M347,77.4c-0.4,0-0.7,0.3-0.7,0.7v6.1c0,0.4,0.3,0.7,0.7,0.7c0.4,0,0.7-0.3,0.7-0.7v-6.1 C347.7,77.7,347.4,77.4,347,77.4z"></path> </g> <g> <path class="st4" d="M352.4,77.4c-0.4,0-0.7,0.3-0.7,0.7v6.1c0,0.4,0.3,0.7,0.7,0.7c0.4,0,0.7-0.3,0.7-0.7v-6.1 C353.1,77.7,352.8,77.4,352.4,77.4z"></path> </g> <g> <path class="st4" d="M336.2,88c-0.4,0-0.7,0.3-0.7,0.7v6.1c0,0.4,0.3,0.7,0.7,0.7c0.4,0,0.7-0.3,0.7-0.7v-6.1 C336.9,88.4,336.6,88,336.2,88z"></path> </g> <g> <path class="st4" d="M341.6,88c-0.4,0-0.7,0.3-0.7,0.7v6.1c0,0.4,0.3,0.7,0.7,0.7c0.4,0,0.7-0.3,0.7-0.7v-6.1 C342.3,88.4,342,88,341.6,88z"></path> </g> <g> <path class="st4" d="M347,88c-0.4,0-0.7,0.3-0.7,0.7v6.1c0,0.4,0.3,0.7,0.7,0.7c0.4,0,0.7-0.3,0.7-0.7v-6.1 C347.7,88.4,347.4,88,347,88z"></path> </g> <g> <path class="st4" d="M352.4,88c-0.4,0-0.7,0.3-0.7,0.7v6.1c0,0.4,0.3,0.7,0.7,0.7c0.4,0,0.7-0.3,0.7-0.7v-6.1 C353.1,88.4,352.8,88,352.4,88z"></path> </g> <g> <path class="st4" d="M336.2,98.7c-0.4,0-0.7,0.3-0.7,0.7v6.1c0,0.4,0.3,0.7,0.7,0.7c0.4,0,0.7-0.3,0.7-0.7v-6.1 C336.9,99,336.6,98.7,336.2,98.7z"></path> </g> <g> <path class="st4" d="M341.6,98.7c-0.4,0-0.7,0.3-0.7,0.7v6.1c0,0.4,0.3,0.7,0.7,0.7c0.4,0,0.7-0.3,0.7-0.7v-6.1 C342.3,99,342,98.7,341.6,98.7z"></path> </g> <g> <path class="st4" d="M347,98.7c-0.4,0-0.7,0.3-0.7,0.7v6.1c0,0.4,0.3,0.7,0.7,0.7c0.4,0,0.7-0.3,0.7-0.7v-6.1 C347.7,99,347.4,98.7,347,98.7z"></path> </g> <g> <path class="st4" d="M352.4,98.7c-0.4,0-0.7,0.3-0.7,0.7v6.1c0,0.4,0.3,0.7,0.7,0.7c0.4,0,0.7-0.3,0.7-0.7v-6.1 C353.1,99,352.8,98.7,352.4,98.7z"></path> </g> <g> <path class="st4" d="M336.2,109.4c-0.4,0-0.7,0.3-0.7,0.7v6.1c0,0.4,0.3,0.7,0.7,0.7c0.4,0,0.7-0.3,0.7-0.7v-6.1 C336.9,109.7,336.6,109.4,336.2,109.4z"></path> </g> <g> <path class="st4" d="M341.6,109.4c-0.4,0-0.7,0.3-0.7,0.7v6.1c0,0.4,0.3,0.7,0.7,0.7c0.4,0,0.7-0.3,0.7-0.7v-6.1 C342.3,109.7,342,109.4,341.6,109.4z"></path> </g> <g> <path class="st4" d="M347,109.4c-0.4,0-0.7,0.3-0.7,0.7v6.1c0,0.4,0.3,0.7,0.7,0.7c0.4,0,0.7-0.3,0.7-0.7v-6.1 C347.7,109.7,347.4,109.4,347,109.4z"></path> </g> <g> <path class="st4" d="M352.4,109.4c-0.4,0-0.7,0.3-0.7,0.7v6.1c0,0.4,0.3,0.7,0.7,0.7c0.4,0,0.7-0.3,0.7-0.7v-6.1 C353.1,109.7,352.8,109.4,352.4,109.4z"></path> </g> <g> <path class="st4" d="M336.2,128.1c-0.4,0-0.7,0.3-0.7,0.7v6.1c0,0.4,0.3,0.7,0.7,0.7c0.4,0,0.7-0.3,0.7-0.7v-6.1 C336.9,128.5,336.6,128.1,336.2,128.1z"></path> </g> <g> <path class="st4" d="M341.6,128.1c-0.4,0-0.7,0.3-0.7,0.7v6.1c0,0.4,0.3,0.7,0.7,0.7c0.4,0,0.7-0.3,0.7-0.7v-6.1 C342.3,128.5,342,128.1,341.6,128.1z"></path> </g> <g> <path class="st4" d="M347,128.1c-0.4,0-0.7,0.3-0.7,0.7v6.1c0,0.4,0.3,0.7,0.7,0.7c0.4,0,0.7-0.3,0.7-0.7v-6.1 C347.7,128.5,347.4,128.1,347,128.1z"></path> </g> <g> <path class="st4" d="M352.4,128.1c-0.4,0-0.7,0.3-0.7,0.7v6.1c0,0.4,0.3,0.7,0.7,0.7c0.4,0,0.7-0.3,0.7-0.7v-6.1 C353.1,128.5,352.8,128.1,352.4,128.1z"></path> </g> <g> <path class="st4" d="M357.8,128.1c-0.4,0-0.7,0.3-0.7,0.7v6.1c0,0.4,0.3,0.7,0.7,0.7c0.4,0,0.7-0.3,0.7-0.7v-6.1 C358.5,128.5,358.2,128.1,357.8,128.1z"></path> </g> <g> <path class="st4" d="M330.8,128.1c-0.4,0-0.7,0.3-0.7,0.7v6.1c0,0.4,0.3,0.7,0.7,0.7c0.4,0,0.7-0.3,0.7-0.7v-6.1 C331.5,128.5,331.2,128.1,330.8,128.1z"></path> </g> <g> <path class="st4" d="M336.2,139.3c-0.4,0-0.7,0.3-0.7,0.7v6.1c0,0.4,0.3,0.7,0.7,0.7c0.4,0,0.7-0.3,0.7-0.7V140 C336.9,139.6,336.6,139.3,336.2,139.3z"></path> </g> <g> <path class="st4" d="M341.6,139.3c-0.4,0-0.7,0.3-0.7,0.7v6.1c0,0.4,0.3,0.7,0.7,0.7c0.4,0,0.7-0.3,0.7-0.7V140 C342.3,139.6,342,139.3,341.6,139.3z"></path> </g> <g> <path class="st4" d="M347,139.3c-0.4,0-0.7,0.3-0.7,0.7v6.1c0,0.4,0.3,0.7,0.7,0.7c0.4,0,0.7-0.3,0.7-0.7V140 C347.7,139.6,347.4,139.3,347,139.3z"></path> </g> <g> <path class="st4" d="M352.4,139.3c-0.4,0-0.7,0.3-0.7,0.7v6.1c0,0.4,0.3,0.7,0.7,0.7c0.4,0,0.7-0.3,0.7-0.7V140 C353.1,139.6,352.8,139.3,352.4,139.3z"></path> </g> <g> <path class="st4" d="M357.8,139.3c-0.4,0-0.7,0.3-0.7,0.7v6.1c0,0.4,0.3,0.7,0.7,0.7c0.4,0,0.7-0.3,0.7-0.7V140 C358.5,139.6,358.2,139.3,357.8,139.3z"></path> </g> <g> <path class="st4" d="M330.8,139.3c-0.4,0-0.7,0.3-0.7,0.7v6.1c0,0.4,0.3,0.7,0.7,0.7c0.4,0,0.7-0.3,0.7-0.7V140 C331.5,139.6,331.2,139.3,330.8,139.3z"></path> </g> <g> <path class="st4" d="M336.2,150.5c-0.4,0-0.7,0.3-0.7,0.7v6.1c0,0.4,0.3,0.7,0.7,0.7c0.4,0,0.7-0.3,0.7-0.7v-6.1 C336.9,150.8,336.6,150.5,336.2,150.5z"></path> </g> <g> <path class="st4" d="M341.6,150.5c-0.4,0-0.7,0.3-0.7,0.7v6.1c0,0.4,0.3,0.7,0.7,0.7c0.4,0,0.7-0.3,0.7-0.7v-6.1 C342.3,150.8,342,150.5,341.6,150.5z"></path> </g> <g> <path class="st4" d="M347,150.5c-0.4,0-0.7,0.3-0.7,0.7v6.1c0,0.4,0.3,0.7,0.7,0.7c0.4,0,0.7-0.3,0.7-0.7v-6.1 C347.7,150.8,347.4,150.5,347,150.5z"></path> </g> <g> <path class="st4" d="M352.4,150.5c-0.4,0-0.7,0.3-0.7,0.7v6.1c0,0.4,0.3,0.7,0.7,0.7c0.4,0,0.7-0.3,0.7-0.7v-6.1 C353.1,150.8,352.8,150.5,352.4,150.5z"></path> </g> <g> <path class="st4" d="M357.8,150.5c-0.4,0-0.7,0.3-0.7,0.7v6.1c0,0.4,0.3,0.7,0.7,0.7c0.4,0,0.7-0.3,0.7-0.7v-6.1 C358.5,150.8,358.2,150.5,357.8,150.5z"></path> </g> <g> <path class="st4" d="M330.8,150.5c-0.4,0-0.7,0.3-0.7,0.7v6.1c0,0.4,0.3,0.7,0.7,0.7c0.4,0,0.7-0.3,0.7-0.7v-6.1 C331.5,150.8,331.2,150.5,330.8,150.5z"></path> </g> <g> <path class="st4" d="M336.2,161.6c-0.4,0-0.7,0.3-0.7,0.7v6.1c0,0.4,0.3,0.7,0.7,0.7c0.4,0,0.7-0.3,0.7-0.7v-6.1 C336.9,162,336.6,161.6,336.2,161.6z"></path> </g> <g> <path class="st4" d="M341.6,161.6c-0.4,0-0.7,0.3-0.7,0.7v6.1c0,0.4,0.3,0.7,0.7,0.7c0.4,0,0.7-0.3,0.7-0.7v-6.1 C342.3,162,342,161.6,341.6,161.6z"></path> </g> <g> <path class="st4" d="M347,161.6c-0.4,0-0.7,0.3-0.7,0.7v6.1c0,0.4,0.3,0.7,0.7,0.7c0.4,0,0.7-0.3,0.7-0.7v-6.1 C347.7,162,347.4,161.6,347,161.6z"></path> </g> <g> <path class="st4" d="M352.4,161.6c-0.4,0-0.7,0.3-0.7,0.7v6.1c0,0.4,0.3,0.7,0.7,0.7c0.4,0,0.7-0.3,0.7-0.7v-6.1 C353.1,162,352.8,161.6,352.4,161.6z"></path> </g> <g> <path class="st4" d="M357.8,161.6c-0.4,0-0.7,0.3-0.7,0.7v6.1c0,0.4,0.3,0.7,0.7,0.7c0.4,0,0.7-0.3,0.7-0.7v-6.1 C358.5,162,358.2,161.6,357.8,161.6z"></path> </g> <g> <path class="st4" d="M330.8,161.6c-0.4,0-0.7,0.3-0.7,0.7v6.1c0,0.4,0.3,0.7,0.7,0.7c0.4,0,0.7-0.3,0.7-0.7v-6.1 C331.5,162,331.2,161.6,330.8,161.6z"></path> </g> <g> <path class="st4" d="M336.2,172.8c-0.4,0-0.7,0.3-0.7,0.7v6.1c0,0.4,0.3,0.7,0.7,0.7c0.4,0,0.7-0.3,0.7-0.7v-6.1 C336.9,173.1,336.6,172.8,336.2,172.8z"></path> </g> <g> <path class="st4" d="M341.6,172.8c-0.4,0-0.7,0.3-0.7,0.7v6.1c0,0.4,0.3,0.7,0.7,0.7c0.4,0,0.7-0.3,0.7-0.7v-6.1 C342.3,173.1,342,172.8,341.6,172.8z"></path> </g> <g> <path class="st4" d="M347,172.8c-0.4,0-0.7,0.3-0.7,0.7v6.1c0,0.4,0.3,0.7,0.7,0.7c0.4,0,0.7-0.3,0.7-0.7v-6.1 C347.7,173.1,347.4,172.8,347,172.8z"></path> </g> <g> <path class="st4" d="M352.4,172.8c-0.4,0-0.7,0.3-0.7,0.7v6.1c0,0.4,0.3,0.7,0.7,0.7c0.4,0,0.7-0.3,0.7-0.7v-6.1 C353.1,173.1,352.8,172.8,352.4,172.8z"></path> </g> <g> <path class="st4" d="M357.8,172.8c-0.4,0-0.7,0.3-0.7,0.7v6.1c0,0.4,0.3,0.7,0.7,0.7c0.4,0,0.7-0.3,0.7-0.7v-6.1 C358.5,173.1,358.2,172.8,357.8,172.8z"></path> </g> <g> <path class="st4" d="M330.8,172.8c-0.4,0-0.7,0.3-0.7,0.7v6.1c0,0.4,0.3,0.7,0.7,0.7c0.4,0,0.7-0.3,0.7-0.7v-6.1 C331.5,173.1,331.2,172.8,330.8,172.8z"></path> </g> <g> <path class="st4" d="M336.2,184c-0.4,0-0.7,0.3-0.7,0.7v6.1c0,0.4,0.3,0.7,0.7,0.7c0.4,0,0.7-0.3,0.7-0.7v-6.1 C336.9,184.3,336.6,184,336.2,184z"></path> </g> <g> <path class="st4" d="M341.6,184c-0.4,0-0.7,0.3-0.7,0.7v6.1c0,0.4,0.3,0.7,0.7,0.7c0.4,0,0.7-0.3,0.7-0.7v-6.1 C342.3,184.3,342,184,341.6,184z"></path> </g> <g> <path class="st4" d="M347,184c-0.4,0-0.7,0.3-0.7,0.7v6.1c0,0.4,0.3,0.7,0.7,0.7c0.4,0,0.7-0.3,0.7-0.7v-6.1 C347.7,184.3,347.4,184,347,184z"></path> </g> <g> <path class="st4" d="M352.4,184c-0.4,0-0.7,0.3-0.7,0.7v6.1c0,0.4,0.3,0.7,0.7,0.7c0.4,0,0.7-0.3,0.7-0.7v-6.1 C353.1,184.3,352.8,184,352.4,184z"></path> </g> <g> <path class="st4" d="M357.8,184c-0.4,0-0.7,0.3-0.7,0.7v6.1c0,0.4,0.3,0.7,0.7,0.7c0.4,0,0.7-0.3,0.7-0.7v-6.1 C358.5,184.3,358.2,184,357.8,184z"></path> </g> <g> <path class="st4" d="M330.8,184c-0.4,0-0.7,0.3-0.7,0.7v6.1c0,0.4,0.3,0.7,0.7,0.7c0.4,0,0.7-0.3,0.7-0.7v-6.1 C331.5,184.3,331.2,184,330.8,184z"></path> </g> <g> <path class="st4" d="M336.2,207.9c0.4,0,0.7-0.3,0.7-0.7v-6.1c0-0.4-0.3-0.7-0.7-0.7c-0.4,0-0.7,0.3-0.7,0.7v6.1 C335.4,207.6,335.8,207.9,336.2,207.9z"></path> </g> <g> <path class="st4" d="M352.4,207.9c0.4,0,0.7-0.3,0.7-0.7v-6.1c0-0.4-0.3-0.7-0.7-0.7c-0.4,0-0.7,0.3-0.7,0.7v6.1 C351.6,207.6,352,207.9,352.4,207.9z"></path> </g> <g> <path class="st4" d="M357.8,207.9c0.4,0,0.7-0.3,0.7-0.7v-6.1c0-0.4-0.3-0.7-0.7-0.7c-0.4,0-0.7,0.3-0.7,0.7v6.1 C357,207.6,357.4,207.9,357.8,207.9z"></path> </g> <g> <path class="st4" d="M330.8,207.9c0.4,0,0.7-0.3,0.7-0.7v-6.1c0-0.4-0.3-0.7-0.7-0.7c-0.4,0-0.7,0.3-0.7,0.7v6.1 C330,207.6,330.4,207.9,330.8,207.9z"></path> </g> <g> <path class="st1" d="M117.4,100.3c0-0.8,0.7-1.5,1.5-1.5c0.8,0,1.5,0.7,1.5,1.5c0,0.8-0.7,1.5-1.5,1.5 C118.1,101.7,117.4,101.1,117.4,100.3z M123.4,100.3c0-0.8,0.7-1.5,1.5-1.5c0.8,0,1.5,0.7,1.5,1.5c0,0.8-0.7,1.5-1.5,1.5 C124,101.7,123.4,101.1,123.4,100.3z M129.3,100.3c0-0.8,0.7-1.5,1.5-1.5c0.8,0,1.5,0.7,1.5,1.5c0,0.8-0.7,1.5-1.5,1.5 C130,101.7,129.3,101.1,129.3,100.3z M135.3,100.3c0-0.8,0.7-1.5,1.5-1.5c0.8,0,1.5,0.7,1.5,1.5c0,0.8-0.7,1.5-1.5,1.5 C135.9,101.7,135.3,101.1,135.3,100.3z M141.2,100.3c0-0.8,0.7-1.5,1.5-1.5c0.8,0,1.5,0.7,1.5,1.5c0,0.8-0.7,1.5-1.5,1.5 C141.9,101.7,141.2,101.1,141.2,100.3z"></path> </g> <g> <path class="st1" d="M230.8,129.5h-23.9c-0.4,0-0.7-0.3-0.7-0.7c0-0.4,0.3-0.7,0.7-0.7h23.9c0.4,0,0.7,0.3,0.7,0.7 C231.5,129.2,231.2,129.5,230.8,129.5z"></path> </g> <g> <path class="st4" d="M240.8,8.8H227c-0.4,0-0.7-0.3-0.7-0.7c0-0.4,0.3-0.7,0.7-0.7h13.8c0.4,0,0.7,0.3,0.7,0.7 C241.5,8.5,241.2,8.8,240.8,8.8z"></path> </g> <g> <path class="st1" d="M238.1,160.4c-1.1,0-2,0.9-2,2c0,1.1,0.9,2,2,2c1.1,0,2-0.9,2-2C240.1,161.3,239.2,160.4,238.1,160.4z M238.1,165.9c-1.9,0-3.5-1.6-3.5-3.5c0-1.9,1.6-3.5,3.5-3.5c1.9,0,3.5,1.6,3.5,3.5C241.6,164.3,240.1,165.9,238.1,165.9z"></path> </g> <g> <path class="st1" d="M233.9,72.4c-1.9,0-3.5,1.6-3.5,3.5c0,1.9,1.6,3.5,3.5,3.5c1.9,0,3.5-1.6,3.5-3.5 C237.4,73.9,235.8,72.4,233.9,72.4z M233.9,80.8c-2.8,0-5-2.2-5-5c0-2.8,2.2-5,5-5c2.7,0,5,2.2,5,5 C238.9,78.6,236.6,80.8,233.9,80.8z"></path> </g> <g> <path class="st1" d="M303.6,142.3h-7.7c-0.4,0-0.7-0.3-0.7-0.7c0-0.4,0.3-0.7,0.7-0.7h7.7c0.4,0,0.7,0.3,0.7,0.7 C304.4,142,304,142.3,303.6,142.3z"></path> </g> <g> <path class="st1" d="M299.8,146.2c-0.4,0-0.7-0.3-0.7-0.7v-7.7c0-0.4,0.3-0.7,0.7-0.7c0.4,0,0.7,0.3,0.7,0.7v7.7 C300.5,145.9,300.2,146.2,299.8,146.2z"></path> </g> <g> <path class="st0" d="M262,52.6c0,0.4-0.3,0.7-0.7,0.7h-9.2c-0.4,0-0.7-0.3-0.7-0.7v-9.2c0-0.4,0.3-0.7,0.7-0.7h9.2 c0.4,0,0.7,0.3,0.7,0.7V52.6z M250.2,41.5v13h13v-13H250.2z"></path> </g> <g> <polygon class="st5" points="162.7,240.4 168.8,246.3 161.9,250 155.9,244.2 "></polygon> </g> <g> <path class="st6" d="M119.8,196.3l4.1,18c0.8,3.6,2.4,7.1,4.6,10.3l26.8,24.1l10.6-8.6L143,215.8l-8.4-32L119.8,196.3z"></path> </g> <g> <path class="st6" d="M161.7,249.9l-2.2,7l-2.5,3.5c-1.2,1.6-1.1,3.8,0.1,5.3l0.6,0.7l17.1-15.9l-6.8-6.4L161.7,249.9z"></path> </g> <g> <polyline class="st6" points="174.9,250.5 157.7,266.6 156.3,265.1 173.5,249.1 174.9,250.5 "></polyline> </g> <g> <polygon class="st5" points="104.1,251.4 101.8,259 93.9,256.9 96.2,249.4 "></polygon> </g> <g> <path class="st7" d="M114.6,176.2l-22,74.4l13.9,3.5l12.4-37.3l15.2-24.4c0.8-1.1,1.5-2.2,2.2-3.4c1.2-2.2,1.8-4.7,1.7-7.1 l-0.1-4.8L114.6,176.2z"></path> </g> <g> <path class="st6" d="M94.4,256.2l-6.9,2.6l-4.3,0.1c-2,0.1-3.7,1.4-4.2,3.4l-0.2,0.9l23.3,3.8l0.9-9.4L94.4,256.2z"></path> </g> <g> <polyline class="st6" points="102,267.1 78.6,263.3 78.9,261.3 102.3,265.1 102,267.1 "></polyline> </g> <g> <polygon class="st1" points="83.9,100.6 75,114.5 79.2,117.5 88.5,102.9 "></polygon> </g> <g> <path class="st1" d="M72.3,77.6c0,0,4.1,17.2,24.9,24c0.6,0.2,1.1,0.7,1.1,1.3c0.3,2,0.3,6.3-4.3,7.6c-0.4,0.1-0.9,0-1.3-0.2 c-3.2-2-18.8-11.2-34.1-8.5L72.3,77.6z"></path> </g> <g> <path class="st8" d="M72.3,77.6c0,0-3.8,17.2-13.6,24.1C58.7,101.8,60.1,86.7,72.3,77.6z"></path> </g> <g> <path class="st5" d="M72.1,113.6c-0.6,3.2,2,7,5.1,7.7c3.2,0.6,6.2-1.4,6.9-4.5c0.6-3.2-2-7-5.1-7.7 C75.8,108.4,72.7,110.4,72.1,113.6z"></path> </g> <g> <polyline class="st5" points="88.8,122.8 82.6,116.4 78.6,121.4 88.8,128.8 "></polyline> </g> <g> <path class="st9" d="M87.8,116.9l-6.5,9.7l17.8,16.3c1.1,0.3,2.2,0.4,3.3,0.3l23.5-3.1c3.7-0.2,6.6-3.3,6.4-7 c-0.2-3.7,0.5-9.1-3.2-8.9l-27.3,5.6L87.8,116.9z"></path> </g> <g> <path class="st10" d="M140.6,139.1c0.6-5.1-1.7-10.2-6.1-13c-2-1.3-3.9-2.1-5.3-1.9c-4.7,0.8-9.5,2.9-11.6,9.3 c-3.5,10.8-4.5,42.6-4.5,42.6l25.2,0.9L140.6,139.1z"></path> </g> <g> <polygon class="st9" points="131.3,139.9 138.9,167.8 140.4,144.2 "></polygon> </g> <g> <path class="st5" d="M162.2,194.9c2.4-2.2,2.6-6.8,0.4-9.2c-2.2-2.4-5.9-2.6-8.2-0.4c-2.4,2.2-2.6,6.8-0.4,9.2 C156.1,196.9,159.8,197.1,162.2,194.9z"></path> </g> <g> <polyline class="st5" points="150.7,175.1 155.3,186.4 161.5,184.8 157.7,172.7 "></polyline> </g> <g> <path class="st10" d="M151,183.8l12.6-2.8l-8.6-29.3c-0.3-1.1-0.8-2.1-1.5-3l-15.7-19.6c-2.1-3-5.7-2.5-8.8-0.4 c-3,2.1-3.8,6.3-1.7,9.4l15.1,18.2L151,183.8z"></path> </g> <g> <path class="st5" d="M123.3,120.4l0.5,4.4c0.2,1.6,1.3,2.9,2.8,3.4c2.9,0.9,5.8-1.5,5.3-4.5l-1.1-6.9L123.3,120.4z"></path> </g> <g> <path class="st11" d="M123.7,124.3c0,0,7.8-0.3,8.3-7c0.6-6.7-7.7-2.7-7.7-2.7l-1,6.6L123.7,124.3z"></path> </g> <g> <ellipse transform="matrix(0.6336 -0.7737 0.7737 0.6336 -38.4769 138.0603)" class="st5" cx="126.5" cy="109.7" rx="12" ry="12"></ellipse> </g> <g> <defs> <ellipse id="SVGID_1_" transform="matrix(0.6336 -0.7737 0.7737 0.6336 -38.4769 138.0603)" cx="126.5" cy="109.7" rx="12" ry="12"></ellipse> </defs> <clipPath id="SVGID_2_"> <use xlink:href="#SVGID_1_" style="overflow:visible;"></use> </clipPath> <g class="st12"> <g> <defs> <rect id="SVGID_3_" x="113" y="96" width="27" height="28"></rect> </defs> <clipPath id="SVGID_4_"> <use xlink:href="#SVGID_3_" style="overflow:visible;"></use> </clipPath> <g class="st13"> <path class="st5" d="M130.2,113c0,0-4.2,8.8,2.6,10.8c6.8,1.9,7.6-16.7,7.6-16.7l-8.1-13.6l-17.6-0.1l-1.1,11.1 c0,0,2.3,2.1,17.1,3.3L130.2,113z"></path> </g> </g> </g> </g> <g> <defs> <ellipse id="SVGID_5_" transform="matrix(0.6336 -0.7737 0.7737 0.6336 -38.4769 138.0603)" cx="126.5" cy="109.7" rx="12" ry="12"></ellipse> </defs> <clipPath id="SVGID_6_"> <use xlink:href="#SVGID_5_" style="overflow:visible;"></use> </clipPath> <g class="st14"> <g> <defs> <rect id="SVGID_7_" x="113" y="96" width="27" height="28"></rect> </defs> <clipPath id="SVGID_8_"> <use xlink:href="#SVGID_7_" style="overflow:visible;"></use> </clipPath> <g class="st15"> <polygon class="st5" points="125.3,104 128.7,113.4 134.8,109.4 "></polygon> </g> </g> </g> </g> <g> <ellipse transform="matrix(0.6337 -0.7736 0.7736 0.6337 -38.8743 143.0186)" class="st11" cx="131.6" cy="112.6" rx="3.4" ry="3.4"></ellipse> </g> <g> <path class="st16" d="M114.1,105.5c0,0-0.6-9.8,6.6-14.2c5.9-3.7,14-1.7,17.2,4.5c1.5,2.9,2.4,6.9,1.4,12.6L114.1,105.5z"></path> </g> <g> <path class="st17" d="M121.6,106.6l-0.3,0l0.6-5.9c0.1-1.4-0.8-2.7-2.2-2.9c-1.4-0.2-2.7,0.7-3,2.1l-1.1,5.8l-0.3-0.1l1.1-5.8 c0.3-1.6,1.8-2.6,3.3-2.3c1.5,0.2,2.6,1.7,2.4,3.2L121.6,106.6z"></path> </g> <g> <path class="st1" d="M139.4,108.9C139.4,108.9,139.4,108.9,139.4,108.9l-27.5-3.1c-0.3,0-0.5-0.3-0.5-0.6c0-0.3,0.3-0.5,0.6-0.5 l27.5,3.1c0.3,0,0.5,0.3,0.5,0.6C139.9,108.7,139.7,108.9,139.4,108.9z"></path> </g> <g> <path class="st6" d="M211.4,263.7l-8.8,0.3l-5.2-1.6c-2.4-0.8-5,0.2-6.4,2.2l-0.7,1l25.8,14.3l5-10.7L211.4,263.7z"></path> </g> <g> <path class="st6" d="M216.2,280l-26-14.4l0.9-1.6c0.2-0.3,0.6-0.4,0.9-0.3l25.4,14L216.2,280"></path> </g> <g> <polygon class="st5" points="221.2,269.1 228.1,257.3 221.2,245.1 211.4,263.7 "></polygon> </g> <g> <path class="st6" d="M274.7,201.2c0,0-36.8-10.6-40.3-0.6c-3.5,9.9-25,53.9-25,53.9l16,8.4l24-41.7l32.3-2.8L274.7,201.2z"></path> </g> <g> <path class="st6" d="M244.8,277.1l-7.2,4.6l-5.3,1.1c-2.4,0.5-4.3,2.5-4.5,5l-0.1,1.2l29.5,0l-0.8-11.8L244.8,277.1z"></path> </g> <g> <path class="st6" d="M257.3,289l-29.7,0l0-1.9c0-0.4,0.3-0.7,0.7-0.7l29.1,0L257.3,289"></path> </g> <g> <polygon class="st5" points="256.3,277.1 257.3,257.3 245.5,256 244.8,277.1 "></polygon> </g> <g> <path class="st7" d="M279.7,199.5l-34.7,1.6c0,0-5,0.3-4.7,11.9c0.3,11.7,0.3,58.7,0.3,58.7l16.7,0.6l3.2-49.2l34.7-0.4 c7.3-0.1,14.1-4.3,17-11c1.1-2.6,1.6-5.4,1-8.5L279.7,199.5z"></path> </g> <g> <path class="st18" d="M246.7,192.5c0,3.3-2.2,3.8-5.5,3.8c-3.3,0-6.4-0.5-6.4-3.8c0-3.3,2.7-6,5.9-6 C244.1,186.5,246.7,189.2,246.7,192.5z"></path> </g> <g> <path class="st18" d="M250.9,195.9l-6.9,0c-1.8,0-3.3-1.5-3.3-3.3c0-1.8,1.5-3.3,3.3-3.3l6.9,0c1.8,0,3.3,1.5,3.3,3.3 C254.2,194.4,252.7,195.9,250.9,195.9z"></path> </g> <g> <path class="st0" d="M250.7,196.6l-2.3-11.3l28.3-3.1l5.7-33.1c0.6-3,4.9-6.7,7.9-6.2l-0.9-0.2c3,0.6,5.8,4.1,5.2,7.1l-5.5,39.6 c-0.4,2.1-2,3.8-4.1,4.4L250.7,196.6z"></path> </g> <g> <path class="st0" d="M307.2,143.7c0.6,0,1.2,0.2,1.7,0.4l0.3,0.1c4.9,1.9,8.2,7.1,8.4,12l-4.4,46.9c-29.3-0.3-33.5-3.6-33.5-3.6 l2.3-48c0.4-4.5,2.4-8.8,7.6-9.2L307.2,143.7z"></path> </g> <g> <path class="st5" d="M274.9,196.2c0.2,3.3-2,3.9-5.3,4.2c-3.3,0.2-6.4-0.1-6.6-3.3c-0.2-3.3,2.3-6.1,5.5-6.4 C271.8,190.4,274.7,192.9,274.9,196.2z"></path> </g> <g> <path class="st5" d="M279.3,199.3l-6.9,0.5c-1.8,0.1-3.4-1.2-3.5-3c-0.1-1.8,1.2-3.4,3-3.5l6.9-0.5c1.8-0.1,3.4,1.2,3.5,3 C282.5,197.6,281.1,199.1,279.3,199.3z"></path> </g> <g> <path class="st0" d="M279.1,200l-3-11.1l30.9-5l-1.8-28.7c0.4-3,3.7-6.5,6.7-6.1c3,0.4,6,3.7,5.7,6.7l2.2,34.4 c-0.3,2.2-1.8,4-3.8,4.6L279.1,200z"></path> </g> <g> <path class="st19" d="M225.7,161.8l33.7,3.2c1.1,0.1,2,1,2.1,2.1l3.5,30.3c0.2,1.5-1.1,2.8-2.6,2.6l-34.2-3.2c-1.1-0.1-2-1-2.1-2.1 l-3-30.3C223,163,224.2,161.7,225.7,161.8z"></path> </g> <g> <path class="st20" d="M223.8,161.7l33.7,3.2c1.1,0.1,2,1,2.1,2.1l3.5,30.3c0.2,1.5-1.1,2.8-2.6,2.6l-34.2-3.2c-1.1-0.1-2-1-2.1-2.1 l-3-30.3C221,162.8,222.3,161.5,223.8,161.7z"></path> </g> <g> <path class="st19" d="M264.1,197.7l23,2.2c0.7,0.1,1.2,0.7,1.2,1.4c-0.1,0.7-0.7,1.2-1.4,1.2l-24.4-2.2L264.1,197.7z"></path> </g> <g> <ellipse transform="matrix(9.374092e-02 -0.9956 0.9956 9.374092e-02 39.3392 400.2215)" class="st1" cx="239.5" cy="178.5" rx="2.5" ry="3.7"></ellipse> </g> <g> <polygon class="st21" points="304.1,161.8 304.8,183.4 276.1,188.9 301.4,181 "></polygon> </g> <g> <path class="st5" d="M288.8,140.8l1.9,5.2c0.7,1.9,2.4,3.1,4.4,3.3c3.8,0.3,6.5-3.6,5-7l-3.4-7.9L288.8,140.8z"></path> </g> <g> <path class="st11" d="M290.5,145.4c0,0,9.5-1.8,8.1-10.1c-1.4-8.3-10.3-1.8-10.3-1.8l0.9,8.3L290.5,145.4z"></path> </g> <g> <ellipse transform="matrix(0.4235 -0.9059 0.9059 0.4235 51.8569 335.2932)" class="st5" cx="289.4" cy="126.9" rx="14.9" ry="14.9"></ellipse> </g> <g> <defs> <ellipse id="SVGID_9_" transform="matrix(0.4235 -0.9059 0.9059 0.4235 51.8569 335.2932)" cx="289.4" cy="126.9" rx="14.9" ry="14.9"></ellipse> </defs> <clipPath id="SVGID_10_"> <use xlink:href="#SVGID_9_" style="overflow:visible;"></use> </clipPath> <g class="st22"> <g> <defs> <rect id="SVGID_11_" x="272" y="109" width="35" height="35"></rect> </defs> <clipPath id="SVGID_12_"> <use xlink:href="#SVGID_11_" style="overflow:visible;"></use> </clipPath> <g class="st23"> <path class="st5" d="M294.9,129.8c0,0-2.3,11.9,6.4,12.2c8.8,0.3,4-22.4,4-22.4l-13.9-13.9l-21.2,5.2l2.1,13.7 c0,0,3.4,1.8,21.6-1.2L294.9,129.8z"></path> </g> </g> </g> </g> <g> <defs> <ellipse id="SVGID_13_" transform="matrix(0.4235 -0.9059 0.9059 0.4235 51.8569 335.2932)" cx="289.4" cy="126.9" rx="14.9" ry="14.9"></ellipse> </defs> <clipPath id="SVGID_14_"> <use xlink:href="#SVGID_13_" style="overflow:visible;"></use> </clipPath> <g class="st24"> <g> <defs> <rect id="SVGID_15_" x="272" y="109" width="35" height="35"></rect> </defs> <clipPath id="SVGID_16_"> <use xlink:href="#SVGID_15_" style="overflow:visible;"></use> </clipPath> <g class="st25"> <polygon class="st5" points="286.2,120.5 293.2,130.7 299.2,124.1 "></polygon> </g> </g> </g> </g> <g> <ellipse transform="matrix(0.4235 -0.9059 0.9059 0.4235 54.1306 342.7571)" class="st11" cx="296.4" cy="128.8" rx="4.2" ry="4.2"></ellipse> </g> <g> <path class="st16" d="M273,124.4c0,0-3.2-11.7,4.4-19c6.3-6,16.5-5.6,22.1,1c2.6,3.1,4.7,7.8,4.9,14.9L273,124.4z"></path> </g> <g> <path class="st17" d="M274.5,124.2l-0.1-7.3c0-1.9,1.5-3.5,3.4-3.6c1.9-0.1,3.5,1.3,3.7,3.2l0.7,7.3l-0.3,0l-0.7-7.3 c-0.2-1.7-1.7-3-3.4-3c-1.8,0.1-3.2,1.6-3.2,3.3l0.1,7.3L274.5,124.2z"></path> </g> <g> <path class="st1" d="M270.2,125.2c-0.3,0-0.5-0.2-0.6-0.5c0-0.3,0.2-0.6,0.5-0.6l34.1-3.3c0.3,0,0.6,0.2,0.6,0.5 c0,0.3-0.2,0.6-0.5,0.6L270.2,125.2C270.3,125.2,270.3,125.2,270.2,125.2z"></path> </g> </svg> 