<?xml version="1.0" encoding="UTF-8"?> <svg xmlns="http://www.w3.org/2000/svg" width="56.043" height="60.141" viewBox="0 0 56.043 60.141"><g id="domain-registration" transform="translate(-1.09)"><g id="Group_4295" data-name="Group 4295" transform="translate(1.09)"><path id="Path_48" data-name="Path 48" d="M10.78,11.745a29.744,29.744,0,0,0,2.558,1.765c-.449,1.083-.848,2.225-1.2,3.406h3.622c.207-.605.4-1.22.639-1.795a29.2,29.2,0,0,0,5.223,1.795H35.658a28.53,28.53,0,0,0,5.285-1.827c.235.583.43,1.21.645,1.827h3.554a34.89,34.89,0,0,0-1.2-3.406,28.058,28.058,0,0,0,2.556-1.765,25.772,25.772,0,0,1,4.1,5.17h5.052a30.011,30.011,0,0,0-54.006,0H6.683A25.742,25.742,0,0,1,10.78,11.745Zm33.093-2.21c-.462.331-.927.656-1.41.957A25.642,25.642,0,0,0,40.507,7.4,24.863,24.863,0,0,1,43.873,9.534ZM39.522,12.07a26.21,26.21,0,0,1-4.691,1.654,41.475,41.475,0,0,0-2.02-8.781A16.7,16.7,0,0,1,39.522,12.07Zm-11.228-7.6c.115,0,.226-.015.342-.015s.227.013.342.015c.823,1.348,1.814,4.712,2.545,9.828a24.643,24.643,0,0,1-2.885.184,24.513,24.513,0,0,1-2.885-.184C26.481,9.183,27.472,5.819,28.295,4.471ZM24.444,5a41.765,41.765,0,0,0-2,8.73,26.154,26.154,0,0,1-4.61-1.616A17.079,17.079,0,0,1,24.444,5ZM16.763,7.4A27.034,27.034,0,0,0,14.8,10.491c-.481-.3-.945-.624-1.408-.955A24.808,24.808,0,0,1,16.763,7.4Z" transform="translate(-0.611)" fill="#0076ff"></path><path id="Path_49" data-name="Path 49" d="M46.491,28.172A30.493,30.493,0,0,0,43.935,26.4c.445-1.079.846-2.221,1.2-3.4H41.585c-.2.616-.406,1.24-.641,1.825A28.967,28.967,0,0,0,35.658,23H21.618A29.334,29.334,0,0,0,16.4,24.795c-.239-.577-.434-1.193-.643-1.795h-3.62a35.721,35.721,0,0,0,1.2,3.406,29.856,29.856,0,0,0-2.558,1.763A25.638,25.638,0,0,1,6.688,23H1.638a30.008,30.008,0,0,0,54,0H50.588A25.86,25.86,0,0,1,46.491,28.172Zm-33.1,2.21c.462-.331.928-.658,1.408-.955a27.007,27.007,0,0,0,1.958,3.092A25.169,25.169,0,0,1,13.394,30.382Zm4.432-2.573a26.6,26.6,0,0,1,4.61-1.613,41.877,41.877,0,0,0,2,8.73A17.207,17.207,0,0,1,17.826,27.809Zm11.151,7.634c-.115,0-.226.015-.342.015s-.227-.011-.342-.015c-.823-1.348-1.816-4.714-2.545-9.828a22.473,22.473,0,0,1,5.772,0C30.784,30.73,29.8,34.1,28.976,35.444Zm3.832-.474a41.421,41.421,0,0,0,2.02-8.781,26.365,26.365,0,0,1,4.691,1.656A16.659,16.659,0,0,1,32.808,34.97Zm7.7-2.453a26.4,26.4,0,0,0,1.956-3.094c.483.3.947.628,1.41.959A24.852,24.852,0,0,1,40.5,32.517Z" transform="translate(-0.608 20.227)" fill="#0076ff"></path><path id="Path_50" data-name="Path 50" d="M8.053,24.771l1.2-4.2a27.8,27.8,0,0,0,.782-3.716h.049c.244,1.466.464,2.545.757,3.716l1.124,4.2h3.494l3.665-11.944H15.483l-1.026,4.738c-.269,1.37-.513,2.712-.684,4.08h-.049c-.244-1.37-.562-2.708-.88-4.056l-1.2-4.762H8.715l-1.27,4.909c-.293,1.171-.635,2.543-.88,3.909H6.516c-.2-1.37-.44-2.689-.684-3.936l-.953-4.888H1.09L4.559,24.77H8.053Z" transform="translate(-1.09 11.276)" fill="#0076ff"></path><path id="Path_51" data-name="Path 51" d="M24.569,17.564c-.273,1.37-.511,2.712-.68,4.082h-.051c-.242-1.37-.562-2.71-.878-4.058l-1.2-4.762H18.825l-1.27,4.909c-.293,1.173-.635,2.543-.88,3.911h-.049c-.2-1.37-.44-2.691-.684-3.937l-.953-4.888H11.2l3.469,11.948h3.494l1.2-4.2a28.026,28.026,0,0,0,.782-3.718h.049c.244,1.466.466,2.545.759,3.718l1.124,4.2H25.57L29.23,12.82H25.587Z" transform="translate(7.803 11.274)" fill="#0076ff"></path><path id="Path_52" data-name="Path 52" d="M34.686,17.564c-.271,1.37-.513,2.712-.682,4.082h-.047c-.242-1.37-.564-2.71-.881-4.058l-1.2-4.762H28.943L27.67,17.735c-.291,1.173-.635,2.543-.881,3.911h-.045c-.2-1.37-.438-2.691-.682-3.937l-.955-4.888H21.316l3.475,11.948h3.488l1.2-4.2a28.332,28.332,0,0,0,.782-3.718h.045c.242,1.466.462,2.545.756,3.718l1.124,4.2h3.494L39.345,12.82H35.7Z" transform="translate(16.697 11.274)" fill="#0076ff"></path></g></g></svg> 