<?xml version="1.0" encoding="UTF-8"?> <svg xmlns="http://www.w3.org/2000/svg" width="60.535" height="60.535" viewBox="0 0 60.535 60.535"><g id="XMLID_468_" transform="translate(0)"><path id="XMLID_469_" d="M110.4,99.184c-.12-.058-4.627-2.277-5.428-2.565a3.118,3.118,0,0,0-1.05-.232,1.786,1.786,0,0,0-1.518.9c-.45.669-1.813,2.262-2.234,2.738-.055.063-.13.138-.175.138s-.738-.287-.949-.379c-4.835-2.1-8.5-7.15-9.007-8a.5.5,0,0,1-.075-.178,1.454,1.454,0,0,1,.264-.312c.245-.243.511-.563.769-.873.122-.147.244-.294.364-.432a4.855,4.855,0,0,0,.732-1.162l.1-.2a2.1,2.1,0,0,0-.061-1.978c-.107-.213-2.01-4.806-2.212-5.288-.487-1.164-1.129-1.706-2.023-1.706-.083,0,0,0-.348.015a10.8,10.8,0,0,0-3.748.964c-1.081.681-2.909,2.854-2.909,6.673,0,3.438,2.182,6.684,3.118,7.919.023.031.066.094.128.185,3.587,5.239,8.059,9.122,12.593,10.933,4.364,1.743,6.431,1.945,7.606,1.945h0a11.886,11.886,0,0,0,1.238-.073l.221-.021c1.508-.134,4.821-1.851,5.575-3.945.594-1.65.75-3.452.355-4.106A2.844,2.844,0,0,0,110.4,99.184Z" transform="translate(-65.332 -64.28)" fill="#287216"></path><path id="XMLID_470_" d="M30.805,0A29.655,29.655,0,0,0,1.072,29.51,29.293,29.293,0,0,0,5.149,44.433L.042,59.5a.786.786,0,0,0,.983,1l15.708-4.991a29.78,29.78,0,0,0,43.8-26A29.654,29.654,0,0,0,30.805,0Zm0,52.869a23.555,23.555,0,0,1-12.959-3.863.786.786,0,0,0-.669-.092l-7.869,2.5,2.54-7.494a.786.786,0,0,0-.11-.717A23.042,23.042,0,0,1,7.254,29.51,23.55,23.55,0,1,1,30.805,52.869Z" transform="translate(0)" fill="#287216"></path></g></svg> 