<svg xmlns="http://www.w3.org/2000/svg" xmlns:xlink="http://www.w3.org/1999/xlink" viewBox="0 0 1440 355"><defs><style>.a{clip-path:url(#b);}.b{fill:none;stroke:#ecebed;}.c{fill:#f0c933;}.d{fill:#e0436b;stroke:#ebebeb;stroke-width:0.572px;}.e{fill:#7252a4;}.f{fill:#453264;}.g{fill:#fff;}</style><clipPath id="b"><rect width="1440" height="355"/></clipPath></defs><g id="a" class="a"><rect class="g" width="1440" height="355"/><g transform="translate(7725 2823)"><path class="b" d="M2005,18471.98c360.276,0,1190.524,217.432,1441.1,0" transform="translate(-9729 -21168)"/><path class="b" d="M2005,18471.98c360.276,0,1190.524,217.432,1441.1,0" transform="translate(-9729 -21190)"/><path class="b" d="M2005,18471.98c360.276,0,1190.524,217.432,1441.1,0" transform="translate(-9730 -21214)"/><path class="b" d="M2005,18471.98c360.276,0,1190.524,217.432,1441.1,0" transform="translate(-9729 -21242)"/><path class="b" d="M2005,18471.98c360.276,0,1190.524,217.432,1441.1,0" transform="translate(-9729 -21266)"/><path class="b" d="M2005,18471.98c360.276,0,1190.524,217.432,1441.1,0" transform="translate(-9730 -21290)"/><path class="b" d="M2005,18471.98c360.276,0,1190.524,217.432,1441.1,0" transform="translate(-9729 -21147)"/><path class="b" d="M2005,18471.98c360.276,0,1190.524,217.432,1441.1,0" transform="translate(-9729 -21124)"/><path class="b" d="M2005,18471.98c360.276,0,1190.524,217.432,1441.1,0" transform="translate(-9729 -21099)"/><path class="b" d="M2005,18471.98c360.276,0,1190.524,217.432,1441.1,0" transform="translate(-9729 -21071)"/><path class="b" d="M2005,18471.98c360.276,0,1190.524,217.432,1441.1,0" transform="translate(-9729 -21041)"/><path class="c" d="M23.785,47.544c13.1.8,22.6-9.394,23.727-23.66S36.889-1.754,23.785.224,1.037,10.319.058,23.884,10.681,46.747,23.785,47.544Z" transform="matrix(0.777, 0.629, -0.629, 0.777, -6745.444, -2755.02)"/><path class="d" d="M17.191,34.262a16.8,16.8,0,0,0,17.07-17.08C34.262,7.749,25.9-1.062,17.191.1S-1.193,6.871.12,17.182,7.327,34.262,17.191,34.262Z" transform="matrix(0.777, 0.629, -0.629, 0.777, -6542.069, -2633.865)"/><path class="e" d="M11.29,22.5A11.034,11.034,0,0,0,22.5,11.284C22.5,5.09,17.007-.7,11.29.068S-.784,4.512.079,11.284,4.812,22.5,11.29,22.5Z" transform="matrix(0.777, 0.629, -0.629, 0.777, -6419.95, -2517.902)"/><path class="f" d="M17.125,34.23c9.435.574,16.27-6.764,17.083-17.034S26.559-1.263,17.125.162.747,7.429.042,17.2,7.69,33.656,17.125,34.23Z" transform="matrix(0.777, 0.629, -0.629, 0.777, -7413.171, -2697.1)"/><path class="f" d="M5.623,11.24c3.1.189,5.342-2.221,5.609-5.593A5.058,5.058,0,0,0,5.623.053C2.525.521.245,2.44.014,5.646S2.525,11.051,5.623,11.24Z" transform="matrix(-0.454, 0.891, -0.891, -0.454, -6700.789, -2557.43)"/></g></g></svg>