<svg xmlns="http://www.w3.org/2000/svg" width="1442.431" height="346.594" viewBox="0 0 1442.431 346.594">
  <g id="Group_4717" data-name="Group 4717" transform="translate(2 -1638.48)">
    <path id="Path_1690" data-name="Path 1690" d="M2005,18471.98c360.276,0,1190.524,217.432,1441.1,0" transform="translate(-2006 -16711)" fill="none" stroke="#ecebed" stroke-width="1"/>
    <path id="Path_1696" data-name="Path 1696" d="M2005,18471.98c360.276,0,1190.524,217.432,1441.1,0" transform="translate(-2006 -16733)" fill="none" stroke="#ecebed" stroke-width="1"/>
    <path id="Path_1697" data-name="Path 1697" d="M2005,18471.98c360.276,0,1190.524,217.432,1441.1,0" transform="translate(-2007 -16757)" fill="none" stroke="#ecebed" stroke-width="1"/>
    <path id="Path_1698" data-name="Path 1698" d="M2005,18471.98c360.276,0,1190.524,217.432,1441.1,0" transform="translate(-2006 -16785)" fill="none" stroke="#ecebed" stroke-width="1"/>
    <path id="Path_1699" data-name="Path 1699" d="M2005,18471.98c360.276,0,1190.524,217.432,1441.1,0" transform="translate(-2006 -16809)" fill="none" stroke="#ecebed" stroke-width="1"/>
    <path id="Path_1700" data-name="Path 1700" d="M2005,18471.98c360.276,0,1190.524,217.432,1441.1,0" transform="translate(-2007 -16833)" fill="none" stroke="#ecebed" stroke-width="1"/>
    <path id="Path_1691" data-name="Path 1691" d="M2005,18471.98c360.276,0,1190.524,217.432,1441.1,0" transform="translate(-2006 -16690)" fill="none" stroke="#ecebed" stroke-width="1"/>
    <path id="Path_1692" data-name="Path 1692" d="M2005,18471.98c360.276,0,1190.524,217.432,1441.1,0" transform="translate(-2006 -16667)" fill="none" stroke="#ecebed" stroke-width="1"/>
    <path id="Path_1693" data-name="Path 1693" d="M2005,18471.98c360.276,0,1190.524,217.432,1441.1,0" transform="translate(-2006 -16642)" fill="none" stroke="#ecebed" stroke-width="1"/>
    <path id="Path_1694" data-name="Path 1694" d="M2005,18471.98c360.276,0,1190.524,217.432,1441.1,0" transform="translate(-2006 -16614)" fill="none" stroke="#ecebed" stroke-width="1"/>
    <path id="Path_1695" data-name="Path 1695" d="M2005,18471.98c360.276,0,1190.524,217.432,1441.1,0" transform="translate(-2006 -16584)" fill="none" stroke="#ecebed" stroke-width="1"/>
    <path id="Shape" d="M17.191,34.262a16.8,16.8,0,0,0,17.07-17.08C34.262,7.749,25.9-1.062,17.191.1S-1.193,6.871.12,17.182,7.327,34.262,17.191,34.262Z" transform="matrix(0.777, 0.629, -0.629, 0.777, 1259.931, 1882.135)" fill="#e0436b" stroke="#ebebeb" stroke-width="0.572"/>
    <path id="Shape-2" data-name="Shape" d="M11.29,22.5A11.034,11.034,0,0,0,22.5,11.284C22.5,5.09,17.007-.7,11.29.068S-.784,4.512.079,11.284,4.812,22.5,11.29,22.5Z" transform="matrix(0.777, 0.629, -0.629, 0.777, 1348.05, 1886.098)" fill="#7252a4"/>
  </g>
</svg>
