<svg xmlns="http://www.w3.org/2000/svg" width="1442.43" height="411.902" viewBox="0 0 1442.43 411.902">
  <g id="Group_4588" data-name="Group 4588" transform="translate(1 -2066.172)">
    <path id="Path_1690" data-name="Path 1690" d="M2005,18471.98c360.276,0,1190.524,217.432,1441.1,0" transform="translate(-2005 -16218)" fill="none" stroke="#ecebed" stroke-width="1"/>
    <path id="Path_1696" data-name="Path 1696" d="M2005,18471.98c360.276,0,1190.524,217.432,1441.1,0" transform="translate(-2005 -16240)" fill="none" stroke="#ecebed" stroke-width="1"/>
    <path id="Path_1697" data-name="Path 1697" d="M2005,18471.98c360.276,0,1190.524,217.432,1441.1,0" transform="translate(-2006 -16264)" fill="none" stroke="#ecebed" stroke-width="1"/>
    <path id="Path_1698" data-name="Path 1698" d="M2005,18471.98c360.276,0,1190.524,217.432,1441.1,0" transform="translate(-2005 -16292)" fill="none" stroke="#ecebed" stroke-width="1"/>
    <path id="Path_1699" data-name="Path 1699" d="M2005,18471.98c360.276,0,1190.524,217.432,1441.1,0" transform="translate(-2005 -16316)" fill="none" stroke="#ecebed" stroke-width="1"/>
    <path id="Path_1700" data-name="Path 1700" d="M2005,18471.98c360.276,0,1190.524,217.432,1441.1,0" transform="translate(-2006 -16340)" fill="none" stroke="#ecebed" stroke-width="1"/>
    <path id="Path_1691" data-name="Path 1691" d="M2005,18471.98c360.276,0,1190.524,217.432,1441.1,0" transform="translate(-2005 -16197)" fill="none" stroke="#ecebed" stroke-width="1"/>
    <path id="Path_1692" data-name="Path 1692" d="M2005,18471.98c360.276,0,1190.524,217.432,1441.1,0" transform="translate(-2005 -16174)" fill="none" stroke="#ecebed" stroke-width="1"/>
    <path id="Path_1693" data-name="Path 1693" d="M2005,18471.98c360.276,0,1190.524,217.432,1441.1,0" transform="translate(-2005 -16149)" fill="none" stroke="#ecebed" stroke-width="1"/>
    <path id="Path_1694" data-name="Path 1694" d="M2005,18471.98c360.276,0,1190.524,217.432,1441.1,0" transform="translate(-2005 -16121)" fill="none" stroke="#ecebed" stroke-width="1"/>
    <path id="Path_1695" data-name="Path 1695" d="M2005,18471.98c360.276,0,1190.524,217.432,1441.1,0" transform="translate(-2005 -16091)" fill="none" stroke="#ecebed" stroke-width="1"/>
    <path id="Shape" d="M23.785,47.544c13.1.8,22.6-9.394,23.727-23.66S36.889-1.754,23.785.224,1.037,10.319.058,23.884,10.681,46.747,23.785,47.544Z" transform="matrix(0.777, 0.629, -0.629, 0.777, 978.556, 2194.98)" fill="#f0c933"/>
    <path id="Shape-2" data-name="Shape" d="M17.191,34.262a16.8,16.8,0,0,0,17.07-17.08C34.262,7.749,25.9-1.062,17.191.1S-1.193,6.871.12,17.182,7.327,34.262,17.191,34.262Z" transform="matrix(0.777, 0.629, -0.629, 0.777, 1181.931, 2316.135)" fill="#e0436b" stroke="#ebebeb" stroke-width="0.572"/>
    <path id="Shape-3" data-name="Shape" d="M11.29,22.5A11.034,11.034,0,0,0,22.5,11.284C22.5,5.09,17.007-.7,11.29.068S-.784,4.512.079,11.284,4.812,22.5,11.29,22.5Z" transform="matrix(0.777, 0.629, -0.629, 0.777, 1304.05, 2432.098)" fill="#7252a4"/>
    <path id="Shape-4" data-name="Shape" d="M17.125,34.23c9.435.574,16.27-6.764,17.083-17.034S26.559-1.263,17.125.162.747,7.429.042,17.2,7.69,33.656,17.125,34.23Z" transform="matrix(0.777, 0.629, -0.629, 0.777, 310.829, 2252.9)" fill="#453264"/>
    <path id="Shape-5" data-name="Shape" d="M17.125,34.23c9.435.574,16.27-6.764,17.083-17.034S26.559-1.263,17.125.162.747,7.429.042,17.2,7.69,33.656,17.125,34.23Z" transform="matrix(0.777, 0.629, -0.629, 0.777, 353.829, 2358.9)" fill="#fff" stroke="#707070" stroke-width="0.572"/>
    <path id="Shape-6" data-name="Shape" d="M5.623,11.24c3.1.189,5.342-2.221,5.609-5.593A5.058,5.058,0,0,0,5.623.053C2.525.521.245,2.44.014,5.646S2.525,11.051,5.623,11.24Z" transform="matrix(-0.454, 0.891, -0.891, -0.454, 1023.211, 2392.57)" fill="#453264"/>
    <path id="Shape-7" data-name="Shape" d="M51.52,0a51.52,51.52,0,0,1,51.52,51.52c0,28.454-3.324,61.913,0,89.489s-23.075,54.966-51.52,51.52S0,172.74,0,141.01V51.52C0,20.341,23.067,0,51.52,0Z" transform="matrix(0.777, 0.629, -0.629, 0.777, 575.701, 2066.172)" fill="#6759ae"/>
  </g>
</svg>
