<svg xmlns="http://www.w3.org/2000/svg" width="141.658" height="129.09" viewBox="0 0 141.658 129.09">
  <g id="Group_4349" data-name="Group 4349" transform="matrix(0.951, 0.309, -0.309, 0.951, 709.938, -2294.719)">
    <g id="Path_1557" data-name="Path 1557" transform="translate(62 2410.845)" fill="none">
      <path d="M48.256-12.046C61.3-33.954,96.512,7.972,96.512,32.666s-21.6,44.713-48.256,44.713S0,57.361,0,32.666,35.212,9.862,48.256-12.046Z" stroke="none"/>
      <path d="M 58.04827880859375 -17.18185424804688 C 54.35186004638672 -17.18185424804688 51.34637069702148 -15.28188323974609 49.11527633666992 -11.53471374511719 C 46.46564483642578 -7.084575653076172 42.69038391113281 -3.200252532958984 37.57373809814453 0.340240478515625 C 33.09693908691406 3.438007354736328 28.17958831787109 5.896316528320312 23.42412567138672 8.273685455322266 C 17.45285797119141 11.25886917114258 11.81275177001953 14.07850074768066 7.6676025390625 17.83453178405762 C 3.118675231933594 21.9564380645752 1 26.66939353942871 1 32.66646957397461 C 1 38.5583610534668 2.245491027832031 44.27426910400391 4.701904296875 49.65542221069336 C 7.077201843261719 54.85891723632812 10.479248046875 59.53360748291016 14.81353759765625 63.54963684082031 C 19.15324401855469 67.57070159912109 24.20803070068359 70.72821044921875 29.83750915527344 72.93444061279297 C 35.67001724243164 75.22023773193359 41.86690902709961 76.37924194335938 48.25604629516602 76.37924194335938 C 54.64518356323242 76.37924194335938 60.84207534790039 75.22023773193359 66.67458343505859 72.93444061279297 C 72.30406188964844 70.72821044921875 77.35884857177734 67.57070159912109 81.69855499267578 63.54963684082031 C 86.03284454345703 59.53360748291016 89.43489074707031 54.85891723632812 91.81018829345703 49.65542221069336 C 94.2666015625 44.27426910400391 95.51209259033203 38.5583610534668 95.51209259033203 32.66646957397461 C 95.51209259033203 28.07639312744141 94.22412109375 22.56587028503418 91.78741455078125 16.73063850402832 C 89.47290802001953 11.18802261352539 86.21559906005859 5.539562225341797 82.36764526367188 0.3958854675292969 C 78.49812316894531 -4.776622772216797 74.25164794921875 -9.14093017578125 70.08729553222656 -12.22525405883789 C 65.70918273925781 -15.4678840637207 61.5461540222168 -17.18185424804688 58.04827880859375 -17.18185424804688 M 58.04827499389648 -18.18185043334961 C 73.75013732910156 -18.18185043334961 96.51209259033203 12.81196022033691 96.51209259033203 32.66646957397461 C 96.51209259033203 57.36063766479492 74.90711975097656 77.37924194335938 48.25604629516602 77.37924194335938 C 21.60497283935547 77.37924194335938 0 57.36063766479492 0 32.66646957397461 C 0 7.972301483154297 35.21179962158203 9.861869812011719 48.25604629516602 -12.04629898071289 C 50.81250762939453 -16.33994293212891 54.22084808349609 -18.18185043334961 58.04827499389648 -18.18185043334961 Z" stroke="none" fill="#fff"/>
    </g>
    <g id="Path_1558" data-name="Path 1558" transform="translate(69.087 2412.532)" fill="none">
      <path d="M48.256-12.046C61.3-33.954,96.512,7.972,96.512,32.666s-21.6,44.713-48.256,44.713S0,57.361,0,32.666,35.212,9.862,48.256-12.046Z" stroke="none"/>
      <path d="M 58.04827880859375 -17.18185424804688 C 54.35186004638672 -17.18185424804688 51.34637069702148 -15.28188323974609 49.11527633666992 -11.53471374511719 C 46.46564483642578 -7.084575653076172 42.69038391113281 -3.200252532958984 37.57373809814453 0.340240478515625 C 33.09693908691406 3.438007354736328 28.17958831787109 5.896316528320312 23.42412567138672 8.273685455322266 C 17.45285797119141 11.25886917114258 11.81275177001953 14.07850074768066 7.6676025390625 17.83453178405762 C 3.118675231933594 21.9564380645752 1 26.66939353942871 1 32.66646957397461 C 1 38.5583610534668 2.245491027832031 44.27426910400391 4.701904296875 49.65542221069336 C 7.077201843261719 54.85891723632812 10.479248046875 59.53360748291016 14.81353759765625 63.54963684082031 C 19.15324401855469 67.57070159912109 24.20803070068359 70.72821044921875 29.83750915527344 72.93444061279297 C 35.67001724243164 75.22023773193359 41.86690902709961 76.37924194335938 48.25604629516602 76.37924194335938 C 54.64518356323242 76.37924194335938 60.84207534790039 75.22023773193359 66.67458343505859 72.93444061279297 C 72.30406188964844 70.72821044921875 77.35884857177734 67.57070159912109 81.69855499267578 63.54963684082031 C 86.03284454345703 59.53360748291016 89.43489074707031 54.85891723632812 91.81018829345703 49.65542221069336 C 94.2666015625 44.27426910400391 95.51209259033203 38.5583610534668 95.51209259033203 32.66646957397461 C 95.51209259033203 28.07639312744141 94.22412109375 22.56587028503418 91.78741455078125 16.73063850402832 C 89.47290802001953 11.18802261352539 86.21559906005859 5.539562225341797 82.36764526367188 0.3958854675292969 C 78.49812316894531 -4.776622772216797 74.25164794921875 -9.14093017578125 70.08729553222656 -12.22525405883789 C 65.70918273925781 -15.4678840637207 61.5461540222168 -17.18185424804688 58.04827880859375 -17.18185424804688 M 58.04827499389648 -18.18185043334961 C 73.75013732910156 -18.18185043334961 96.51209259033203 12.81196022033691 96.51209259033203 32.66646957397461 C 96.51209259033203 57.36063766479492 74.90711975097656 77.37924194335938 48.25604629516602 77.37924194335938 C 21.60497283935547 77.37924194335938 0 57.36063766479492 0 32.66646957397461 C 0 7.972301483154297 35.21179962158203 9.861869812011719 48.25604629516602 -12.04629898071289 C 50.81250762939453 -16.33994293212891 54.22084808349609 -18.18185043334961 58.04827499389648 -18.18185043334961 Z" stroke="none" fill="#fff"/>
    </g>
    <g id="Path_1559" data-name="Path 1559" transform="translate(75.836 2412.532)" fill="none">
      <path d="M48.256-12.046C61.3-33.954,96.512,7.972,96.512,32.666s-21.6,44.713-48.256,44.713S0,57.361,0,32.666,35.212,9.862,48.256-12.046Z" stroke="none"/>
      <path d="M 58.04827880859375 -17.18185424804688 C 54.35186004638672 -17.18185424804688 51.34637069702148 -15.28188323974609 49.11527633666992 -11.53471374511719 C 46.46564483642578 -7.084575653076172 42.69038391113281 -3.200252532958984 37.57373809814453 0.340240478515625 C 33.09693908691406 3.438007354736328 28.17958831787109 5.896316528320312 23.42412567138672 8.273685455322266 C 17.45285797119141 11.25886917114258 11.81275177001953 14.07850074768066 7.6676025390625 17.83453178405762 C 3.118675231933594 21.9564380645752 1 26.66939353942871 1 32.66646957397461 C 1 38.5583610534668 2.245491027832031 44.27426910400391 4.701904296875 49.65542221069336 C 7.077201843261719 54.85891723632812 10.479248046875 59.53360748291016 14.81353759765625 63.54963684082031 C 19.15324401855469 67.57070159912109 24.20803070068359 70.72821044921875 29.83750915527344 72.93444061279297 C 35.67001724243164 75.22023773193359 41.86690902709961 76.37924194335938 48.25604629516602 76.37924194335938 C 54.64518356323242 76.37924194335938 60.84207534790039 75.22023773193359 66.67458343505859 72.93444061279297 C 72.30406188964844 70.72821044921875 77.35884857177734 67.57070159912109 81.69855499267578 63.54963684082031 C 86.03284454345703 59.53360748291016 89.43489074707031 54.85891723632812 91.81018829345703 49.65542221069336 C 94.2666015625 44.27426910400391 95.51209259033203 38.5583610534668 95.51209259033203 32.66646957397461 C 95.51209259033203 28.07639312744141 94.22412109375 22.56587028503418 91.78741455078125 16.73063850402832 C 89.47290802001953 11.18802261352539 86.21559906005859 5.539562225341797 82.36764526367188 0.3958854675292969 C 78.49812316894531 -4.776622772216797 74.25164794921875 -9.14093017578125 70.08729553222656 -12.22525405883789 C 65.70918273925781 -15.4678840637207 61.5461540222168 -17.18185424804688 58.04827880859375 -17.18185424804688 M 58.04827499389648 -18.18185043334961 C 73.75013732910156 -18.18185043334961 96.51209259033203 12.81196022033691 96.51209259033203 32.66646957397461 C 96.51209259033203 57.36063766479492 74.90711975097656 77.37924194335938 48.25604629516602 77.37924194335938 C 21.60497283935547 77.37924194335938 0 57.36063766479492 0 32.66646957397461 C 0 7.972301483154297 35.21179962158203 9.861869812011719 48.25604629516602 -12.04629898071289 C 50.81250762939453 -16.33994293212891 54.22084808349609 -18.18185043334961 58.04827499389648 -18.18185043334961 Z" stroke="none" fill="#fff"/>
    </g>
    <g id="Path_1560" data-name="Path 1560" transform="translate(83.935 2412.532)" fill="none">
      <path d="M48.256-12.046C61.3-33.954,96.512,7.972,96.512,32.666s-21.6,44.713-48.256,44.713S0,57.361,0,32.666,35.212,9.862,48.256-12.046Z" stroke="none"/>
      <path d="M 58.04827880859375 -17.18185424804688 C 54.35186004638672 -17.18185424804688 51.34637069702148 -15.28188323974609 49.11527633666992 -11.53471374511719 C 46.46564483642578 -7.084575653076172 42.69038391113281 -3.200252532958984 37.57373809814453 0.340240478515625 C 33.09693908691406 3.438007354736328 28.17958831787109 5.896316528320312 23.42412567138672 8.273685455322266 C 17.45285797119141 11.25886917114258 11.81275177001953 14.07850074768066 7.6676025390625 17.83453178405762 C 3.118675231933594 21.9564380645752 1 26.66939353942871 1 32.66646957397461 C 1 38.5583610534668 2.245491027832031 44.27426910400391 4.701904296875 49.65542221069336 C 7.077201843261719 54.85891723632812 10.479248046875 59.53360748291016 14.81353759765625 63.54963684082031 C 19.15324401855469 67.57070159912109 24.20803070068359 70.72821044921875 29.83750915527344 72.93444061279297 C 35.67001724243164 75.22023773193359 41.86690902709961 76.37924194335938 48.25604629516602 76.37924194335938 C 54.64518356323242 76.37924194335938 60.84207534790039 75.22023773193359 66.67458343505859 72.93444061279297 C 72.30406188964844 70.72821044921875 77.35884857177734 67.57070159912109 81.69855499267578 63.54963684082031 C 86.03284454345703 59.53360748291016 89.43489074707031 54.85891723632812 91.81018829345703 49.65542221069336 C 94.2666015625 44.27426910400391 95.51209259033203 38.5583610534668 95.51209259033203 32.66646957397461 C 95.51209259033203 28.07639312744141 94.22412109375 22.56587028503418 91.78741455078125 16.73063850402832 C 89.47290802001953 11.18802261352539 86.21559906005859 5.539562225341797 82.36764526367188 0.3958854675292969 C 78.49812316894531 -4.776622772216797 74.25164794921875 -9.14093017578125 70.08729553222656 -12.22525405883789 C 65.70918273925781 -15.4678840637207 61.5461540222168 -17.18185424804688 58.04827880859375 -17.18185424804688 M 58.04827499389648 -18.18185043334961 C 73.75013732910156 -18.18185043334961 96.51209259033203 12.81196022033691 96.51209259033203 32.66646957397461 C 96.51209259033203 57.36063766479492 74.90711975097656 77.37924194335938 48.25604629516602 77.37924194335938 C 21.60497283935547 77.37924194335938 0 57.36063766479492 0 32.66646957397461 C 0 7.972301483154297 35.21179962158203 9.861869812011719 48.25604629516602 -12.04629898071289 C 50.81250762939453 -16.33994293212891 54.22084808349609 -18.18185043334961 58.04827499389648 -18.18185043334961 Z" stroke="none" fill="#fff"/>
    </g>
  </g>
</svg>
