<?xml version="1.0" encoding="UTF-8"?> <svg xmlns="http://www.w3.org/2000/svg" viewBox="0 0 30.624 34.096"><defs><style>.a{fill:#ffa30e;}</style></defs><g transform="translate(0)"><path class="a" d="M40.549,0H14.917a1.173,1.173,0,0,0-1.173,1.173V7.937H12.271a1.173,1.173,0,1,0,0,2.346h1.473v5.591H12.271a1.173,1.173,0,0,0,0,2.346h1.473v5.591H12.271a1.173,1.173,0,0,0,0,2.346h1.473v6.764A1.173,1.173,0,0,0,14.917,34.1H40.549a1.173,1.173,0,0,0,1.173-1.173V1.173A1.173,1.173,0,0,0,40.549,0ZM39.376,31.75H16.09V26.158h1.473a1.173,1.173,0,1,0,0-2.346H16.09V18.221h1.473a1.173,1.173,0,1,0,0-2.346H16.09V10.283h1.473a1.173,1.173,0,0,0,0-2.346H16.09V2.346H39.376v29.4Z" transform="translate(-11.098)"></path><path class="a" d="M96.8,60.4a4.825,4.825,0,1,0-4.825-4.825A4.83,4.83,0,0,0,96.8,60.4Zm0-7.3a2.479,2.479,0,1,1-2.479,2.479A2.481,2.481,0,0,1,96.8,53.094Z" transform="translate(-79.326 -42.811)"></path><path class="a" d="M82.157,125.9a1.173,1.173,0,0,0,1.173-1.173V122.7a2.363,2.363,0,0,1,2.36-2.36h3.7a2.363,2.363,0,0,1,2.36,2.36v2.027a1.173,1.173,0,0,0,2.346,0V122.7a4.711,4.711,0,0,0-4.706-4.706h-3.7a4.711,4.711,0,0,0-4.706,4.706v2.027A1.173,1.173,0,0,0,82.157,125.9Z" transform="translate(-70.054 -99.537)"></path></g></svg> 