<svg xmlns="http://www.w3.org/2000/svg" width="70.737" height="70.599" viewBox="0 0 70.737 70.599">
  <path id="rating" d="M11.45,43.415a2.762,2.762,0,0,0,3.833-.76,24.033,24.033,0,0,1,39.9-.049,2.763,2.763,0,0,0,4.585-3.085A29.491,29.491,0,0,0,45.23,28.206a15.612,15.612,0,1,0-19.8-.062A29.483,29.483,0,0,0,10.69,39.582,2.763,2.763,0,0,0,11.45,43.415ZM35.369,6.026A10.086,10.086,0,1,1,25.283,16.112,10.1,10.1,0,0,1,35.369,6.026Zm11.019,43.4L42.269,52.4a1.729,1.729,0,0,0-.635,1.941l1.659,4.808a1.744,1.744,0,0,1,.088.623,1.822,1.822,0,0,1-2.864,1.318L36.4,58.116a1.759,1.759,0,0,0-2.056,0l-4.119,2.973a1.821,1.821,0,0,1-2.865-1.318,1.771,1.771,0,0,1,.09-.623L29.1,54.339a1.729,1.729,0,0,0-.635-1.941L24.35,49.426a1.864,1.864,0,0,1,1.028-3.334h5.092a1.591,1.591,0,0,0,1.663-1.007l1.573-4.839a1.753,1.753,0,0,1,3.326,0l1.573,4.839a1.591,1.591,0,0,0,1.663,1.007H45.36A1.864,1.864,0,0,1,46.388,49.426ZM70.013,59.1l-4.119,2.972a1.729,1.729,0,0,0-.635,1.941l1.659,4.808a1.744,1.744,0,0,1,.088.623,1.822,1.822,0,0,1-2.864,1.318l-4.119-2.972a1.759,1.759,0,0,0-2.056,0L53.847,70.76a1.821,1.821,0,0,1-2.865-1.318,1.771,1.771,0,0,1,.09-.623l1.657-4.808a1.729,1.729,0,0,0-.635-1.941L47.975,59.1A1.864,1.864,0,0,1,49,55.764h5.092a1.591,1.591,0,0,0,1.663-1.007l1.573-4.839a1.753,1.753,0,0,1,3.326,0l1.573,4.839a1.591,1.591,0,0,0,1.663,1.007h5.092A1.864,1.864,0,0,1,70.013,59.1Zm-47.251,0-4.119,2.972a1.729,1.729,0,0,0-.635,1.941l1.659,4.808a1.743,1.743,0,0,1,.088.623,1.822,1.822,0,0,1-2.864,1.318l-4.119-2.972a1.759,1.759,0,0,0-2.056,0L6.6,70.76a1.821,1.821,0,0,1-2.865-1.318,1.771,1.771,0,0,1,.09-.623L5.479,64.01a1.729,1.729,0,0,0-.635-1.941L.724,59.1a1.864,1.864,0,0,1,1.028-3.334H6.844a1.591,1.591,0,0,0,1.663-1.007l1.573-4.839a1.753,1.753,0,0,1,3.326,0l1.573,4.839a1.591,1.591,0,0,0,1.663,1.007h5.092A1.864,1.864,0,0,1,22.763,59.1Z" transform="translate(0 -0.5)" fill="#ff991f"/>
</svg>
