<?xml version="1.0" encoding="utf-8"?>
<!-- Generator: Adobe Illustrator 21.1.0, SVG Export Plug-In . SVG Version: 6.00 Build 0)  -->
<svg version="1.1" id="Layer_1" xmlns="http://www.w3.org/2000/svg" xmlns:xlink="http://www.w3.org/1999/xlink" x="0px" y="0px"
	 viewBox="0 0 70.1 77.4" style="enable-background:new 0 0 70.1 77.4;" xml:space="preserve">
<style type="text/css">
	.st0{fill:#00875A;}
</style>
<path class="st0" d="M69.8,36c-0.4-0.7-1.2-1.1-2-1.1c-6.9,0-13.3,3.5-16.9,9.4H22.9c-3.1,0-6.1,1.2-8.3,3.4L0.7,61.6
	c-0.9,0.9-0.9,2.4,0,3.3c5.7,5.7,11.7,11.7,11.8,11.7c0.9,0.9,2.4,0.9,3.3,0l8.9-8.9h19.7c6.1,0,11.8-3.4,14.6-8.8
	c0.1-0.1,7.2-13.7,10.8-20.7C70.2,37.6,70.2,36.7,69.8,36z M54.8,56.8c-2,3.9-6,6.3-10.4,6.3H23.7c-0.6,0-1.2,0.2-1.7,0.7l-8,7.9
	c-1.9-1.9-5.1-5.1-8.4-8.4l12.2-12.2c1.3-1.3,3.1-2.1,5-2.1h25.4l-1.8,3.4c-0.4,0.8-1.2,1.3-2.1,1.3h-16c-1.3-0.1-2.4,1-2.4,2.3
	s1,2.4,2.3,2.4c0.1,0,0.1,0,0.2,0h16c2.6,0,5-1.5,6.3-3.8l3.6-6.9c1.9-3.7,5.3-6.4,9.3-7.5C59.8,47.3,54.9,56.7,54.8,56.8z"/>
<g transform="translate(0 0)">
	<g transform="translate(0 0)">
		<path class="st0" d="M41.6,21.2c1.5-1.6,2.3-3.6,2.3-5.8c0-4.7-3.7-8.5-8.4-8.6c-4.7,0.1-8.5,3.9-8.6,8.6c0,2.2,0.9,4.3,2.4,5.8
			c-4.1,2.3-6.6,6.5-6.6,11.2v2.1c0,1.2,0.9,2.1,2.1,2.1H46c1.2,0,2.1-0.9,2.1-2.1v-2.1C48.1,27.8,45.6,23.5,41.6,21.2z M35.5,11.1
			c2.3,0.1,4.2,2,4.2,4.4c0,2.3-1.9,4.2-4.2,4.2c-2.4,0-4.3-1.9-4.4-4.2C31.2,13.1,33.1,11.1,35.5,11.1z M27,32.4
			c0.1-4.7,3.9-8.5,8.6-8.6c4.7,0,8.5,3.9,8.4,8.6H27z"/>
	</g>
</g>
</svg>
