<svg id="_24px" data-name="24px" xmlns="http://www.w3.org/2000/svg" width="38.898" height="38.898" viewBox="0 0 38.898 38.898">
  <path id="Path_1137" data-name="Path 1137" d="M0,0H38.9V38.9H0Z" fill="none"/>
  <circle id="Ellipse_56" data-name="Ellipse 56" cx="2.334" cy="2.334" r="2.334" transform="translate(22.851 12.949)"/>
  <circle id="Ellipse_57" data-name="Ellipse 57" cx="2.334" cy="2.334" r="2.334" transform="translate(11.425 12.949)"/>
  <path id="Path_1138" data-name="Path 1138" d="M18.13,2A16.147,16.147,0,1,0,34.293,18.147,16.139,16.139,0,0,0,18.13,2Zm.016,29.064A12.917,12.917,0,1,1,31.064,18.147,12.914,12.914,0,0,1,18.147,31.064Zm0-9.688A8.873,8.873,0,0,0,9.88,27.027h2.7a6.419,6.419,0,0,1,11.141,0h2.7A8.873,8.873,0,0,0,18.147,21.376Z" transform="translate(1.302 1.302)"/>
</svg>
