<?xml version="1.0" encoding="utf-8"?>
<!-- Generator: Adobe Illustrator 21.1.0, SVG Export Plug-In . SVG Version: 6.00 Build 0)  -->
<svg version="1.1" id="Layer_1" xmlns="http://www.w3.org/2000/svg" xmlns:xlink="http://www.w3.org/1999/xlink" x="0px" y="0px"
	 viewBox="0 0 30 30" style="enable-background:new 0 0 30 30;" xml:space="preserve">
<style type="text/css">
	.st0{fill:#FFFFFF;}
	.st1{fill:#FEFEFE;}
	.st2{fill:#FF991F;}
</style>
<circle class="st0" cx="15.2" cy="15.4" r="13.7"/>
<g id="Group_4588" transform="translate(-349 -1815)">
	<path id="Rectangle_3053" class="st1" d="M364,1815L364,1815c8.3,0,15,6.7,15,15l0,0c0,8.3-6.7,15-15,15l0,0c-8.3,0-15-6.7-15-15
		l0,0C349,1821.7,355.7,1815,364,1815z"/>
	<g id="exclamation" transform="translate(349 1815)">
		<g id="Group_4469">
			<g id="Group_4468">
				<path id="Path_1650" class="st2" d="M15,0C6.7,0,0,6.7,0,15s6.7,15,15,15c8.3,0,15-6.7,15-15C30,6.7,23.3,0,15,0C15,0,15,0,15,0
					z M15,27.6C8,27.6,2.3,22,2.3,15C2.3,8,8,2.3,15,2.3C22,2.3,27.6,8,27.6,15c0,0,0,0,0,0C27.6,22,22,27.6,15,27.6
					C15,27.6,15,27.6,15,27.6z"/>
			</g>
		</g>
		<g id="Group_4471" transform="translate(13.82 7.547)">
			<g id="Group_4470">
				<path id="Path_1651" class="st2" d="M1.2,0C0.5,0,0,0.5,0,1.2c0,0,0,0,0,0v7.5c0,0.6,0.5,1.2,1.2,1.2s1.2-0.5,1.2-1.2
					c0,0,0,0,0,0V1.2C2.3,0.5,1.8,0,1.2,0z"/>
			</g>
		</g>
		<g id="Group_4473" transform="translate(13.41 18.866)">
			<g id="Group_4472">
				<circle id="Ellipse_142" class="st2" cx="1.6" cy="1.6" r="1.6"/>
			</g>
		</g>
	</g>
</g>
</svg>
