<svg id="_24px_4_" data-name="24px (4)" xmlns="http://www.w3.org/2000/svg" width="38.964" height="38.964" viewBox="0 0 38.964 38.964">
  <path id="Path_1128" data-name="Path 1128" d="M0,0H38.964V38.964H0Z" fill="none"/>
  <circle id="Ellipse_46" data-name="Ellipse 46" cx="2.5" cy="2.5" r="2.5" transform="translate(22.303 13)"/>
  <circle id="Ellipse_47" data-name="Ellipse 47" cx="2.5" cy="2.5" r="2.5" transform="translate(11.303 13)"/>
  <path id="Path_1129" data-name="Path 1129" d="M0,0H38.964V38.964H0Z" fill="none"/>
  <circle id="Ellipse_48" data-name="Ellipse 48" cx="2.5" cy="2.5" r="2.5" transform="translate(22.303 13)"/>
  <circle id="Ellipse_49" data-name="Ellipse 49" cx="2.5" cy="2.5" r="2.5" transform="translate(11.303 13)"/>
  <path id="Path_1130" data-name="Path 1130" d="M18.219,2A16.235,16.235,0,1,0,34.47,18.235,16.227,16.227,0,0,0,18.219,2Zm.016,29.223A12.988,12.988,0,1,1,31.223,18.235,12.984,12.984,0,0,1,18.235,31.223Zm0-4.059a8.921,8.921,0,0,0,8.312-5.682H23.836a6.454,6.454,0,0,1-11.2,0H9.923A8.921,8.921,0,0,0,18.235,27.164Z" transform="translate(1.247 1.247)"/>
</svg>
