<svg id="_24px_1_" data-name="24px (1)" xmlns="http://www.w3.org/2000/svg" width="38.898" height="38.898" viewBox="0 0 38.898 38.898">
  <path id="Path_1135" data-name="Path 1135" d="M0,0H38.9V38.9H0Z" fill="none"/>
  <circle id="Ellipse_54" data-name="Ellipse 54" cx="2.334" cy="2.334" r="2.334" transform="translate(22.542 13.214)"/>
  <circle id="Ellipse_55" data-name="Ellipse 55" cx="2.334" cy="2.334" r="2.334" transform="translate(11.66 13.214)"/>
  <path id="Path_1136" data-name="Path 1136" d="M18.189,2A16.205,16.205,0,1,0,34.41,18.205,16.2,16.2,0,0,0,18.189,2Zm.016,29.169A12.964,12.964,0,1,1,31.169,18.205,12.961,12.961,0,0,1,18.205,31.169Zm-8.1-9.723c1.264,3.792,4.408,6.482,8.1,6.482s6.839-2.69,8.1-6.482Z" transform="translate(1.244 1.244)"/>
</svg>
