<?xml version="1.0" encoding="UTF-8"?> <svg xmlns="http://www.w3.org/2000/svg" viewBox="0 0 70.429 70.444"><defs><style>.a{fill:#5243aa;}</style></defs><g transform="translate(-0.05)"><g transform="translate(0.05)"><path class="a" d="M60.94,80.547H33.49V53.1a1.988,1.988,0,0,0-2-2A31.443,31.443,0,1,0,62.937,82.543,2.007,2.007,0,0,0,60.94,80.547ZM31.493,109.993a27.449,27.449,0,0,1-2-54.826V82.543a1.988,1.988,0,0,0,2,2H58.869A27.476,27.476,0,0,1,31.493,109.993Z" transform="translate(-0.05 -43.542)"></path><path class="a" d="M283.59,31.34A31.438,31.438,0,0,0,252.147,0a1.988,1.988,0,0,0-2,2V31.443a1.988,1.988,0,0,0,2,2h29.447a1.988,1.988,0,0,0,2-2Zm-29.447-1.878V4.082a27.468,27.468,0,0,1,25.38,25.379h-25.38Z" transform="translate(-213.16)"></path></g></g></svg> 