<svg xmlns="http://www.w3.org/2000/svg" width="58.631" height="75.313" viewBox="0 0 58.631 75.313">
  <g id="rating_1_" data-name="rating (1)" transform="translate(-56.593)">
    <path id="Path_1614" data-name="Path 1614" d="M118.5,34.833l3.208,2.331L131.8,31.857l10.092,5.306,3.208-2.331-1.927-11.238,8.165-7.959-1.225-3.771-11.284-1.64L133.778,0h-3.965l-5.046,10.225-11.284,1.64-1.225,3.771,8.165,7.959Zm6.678-12.782L118.552,15.6l9.151-1.33L131.8,5.974l4.092,8.292,9.151,1.33-6.622,6.455,1.563,9.114-8.185-4.3-8.185,4.3Z" transform="translate(-47.46)" fill="#064"/>
    <path id="Path_1615" data-name="Path 1615" d="M115.214,248.463a6.962,6.962,0,0,0-2.34-4.9h0a7.1,7.1,0,0,0-9.857.477l-.046.047s-4.764,5.079-5.8,6.18a7.064,7.064,0,0,0-5.757-2.972h-.076l-14.76-.061A16.984,16.984,0,0,0,59.736,261.57l-3.143,19.906H76.768l1.572-9.219H96.258l17.066-18.545a7.248,7.248,0,0,0,1.889-5.248Zm-42.177,28.59H61.768L64.1,262.259a12.563,12.563,0,0,1,12.409-10.6h.052l14.837.062h.017a2.648,2.648,0,0,1,2.645,2.64v.02a2.648,2.648,0,0,1-2.645,2.631h-8.36v4.422h8.36a7.078,7.078,0,0,0,6.988-6.009c6.558-7,7.839-8.359,7.84-8.359a2.658,2.658,0,0,1,3.7-.188,2.574,2.574,0,0,1,.856,1.815,2.8,2.8,0,0,1-.727,2.028L94.318,267.834H74.609Z" transform="translate(0 -206.162)" fill="#064"/>
  </g>
</svg>
