<?xml version="1.0" encoding="utf-8"?>
<!-- Generator: Adobe Illustrator 15.0.0, SVG Export Plug-In  -->
<!DOCTYPE svg PUBLIC "-//W3C//DTD SVG 1.1//EN" "http://www.w3.org/Graphics/SVG/1.1/DTD/svg11.dtd" [
	<!ENTITY ns_flows "http://ns.adobe.com/Flows/1.0/">
]>
<svg version="1.1"
	 xmlns="http://www.w3.org/2000/svg" xmlns:xlink="http://www.w3.org/1999/xlink" xmlns:a="http://ns.adobe.com/AdobeSVGViewerExtensions/3.0/"
	 x="0px" y="0px" width="600px" height="600px" viewBox="-13.965 -14 600 600" enable-background="new -13.965 -14 600 600"
	 xml:space="preserve">
<defs>
</defs>
<path fill="#0661FA" d="M16.572,3.306C9.325,6.993,3.604,13.604,1.061,21.359c-2.289,6.739-0.636,55.688,2.67,80.354
	C17.082,201.9,55.096,291.027,119.176,371.507c17.037,21.486,59.501,63.952,81.116,81.243
	c80.863,64.334,169.353,102.095,271.573,115.698c15.766,2.161,27.718,2.797,50.094,2.925l29.243,0.127l6.23-3.814
	c3.94-2.416,7.755-6.23,10.171-10.045l3.814-6.229l0.381-64.334c0.255-41.702-0.128-65.859-0.89-68.783
	c-1.781-6.103-9.409-14.748-15.894-18.055c-4.323-2.288-8.645-2.924-26.19-3.814c-34.328-1.652-61.663-6.103-90.144-14.493
	c-17.418-5.085-27.081-5.595-35.726-1.653c-4.069,1.907-15.767,12.587-42.212,38.905c-36.235,36.107-36.616,36.362-40.049,34.836
	c-1.907-0.889-9.536-5.085-16.91-9.28c-63.316-36.362-118.877-88.49-159.436-149.137c-9.026-13.604-23.14-37.252-26.318-44.245
	c-1.652-3.56-1.398-3.814,34.837-40.049c26.445-26.573,36.998-38.016,38.905-42.211c3.814-8.519,3.433-17.799-1.653-35.345
	c-8.391-28.989-12.841-56.324-14.493-90.525c-1.271-23.14-2.543-27.462-10.681-35.218C156.556-0.127,157.827,0,87.264,0H23.311
	L16.572,3.306z"/>
<path fill="#0661FA" d="M285.985,32.294v32.167l15.002,0.762c45.643,2.162,93.32,21.741,129.938,53.273
	c44.499,38.523,73.232,96.373,75.902,152.569l0.764,15.002h32.421h32.421l-0.764-17.545
	c-4.322-101.205-68.273-196.433-161.723-241.187C375.111,10.68,330.866,0,297.3,0h-11.315V32.294z"/>
<path fill="#0661FA" d="M285.985,159.563v32.421h6.738c21.995,0.127,50.093,14.621,66.621,34.583
	c11.316,13.604,20.726,37.507,20.726,52.764v6.738h32.421h32.421v-8.646c0-4.705-0.89-13.477-1.907-19.58
	c-9.918-56.705-51.238-104.637-106.163-123.073c-11.951-4.068-31.785-7.628-41.956-7.628h-8.9V159.563z"/>
</svg>
