<?xml version="1.0" encoding="UTF-8"?> <svg xmlns="http://www.w3.org/2000/svg" viewBox="0 0 70.096 77.378"><defs><style>.a{fill:#008da6;}</style></defs><g transform="translate(-0.5 -4)"><path class="a" d="M70.258,242.136A2.352,2.352,0,0,0,68.245,241a19.87,19.87,0,0,0-16.928,9.409h-27.9a11.683,11.683,0,0,0-8.316,3.445L1.189,267.766a2.354,2.354,0,0,0,0,3.327C6.9,276.806,12.9,282.757,12.957,282.816a2.352,2.352,0,0,0,3.317,0l8.922-8.881H44.9a16.414,16.414,0,0,0,14.585-8.823c.072-.137,7.2-13.734,10.839-20.663A2.352,2.352,0,0,0,70.258,242.136ZM55.32,262.927a11.723,11.723,0,0,1-10.417,6.3H24.225a2.352,2.352,0,0,0-1.66.685l-7.953,7.916c-1.874-1.862-5.1-5.07-8.433-8.4l12.248-12.248a7.011,7.011,0,0,1,4.99-2.067H48.791l-1.805,3.445a2.345,2.345,0,0,1-2.083,1.26H28.93a2.352,2.352,0,1,0,0,4.7H44.9a7.038,7.038,0,0,0,6.251-3.781l3.631-6.928a15.18,15.18,0,0,1,9.259-7.523C60.29,253.441,55.38,262.813,55.32,262.927Zm0,0" transform="translate(0 -202.121)"></path><path class="a" d="M123.876,37.768h25.086a2.091,2.091,0,0,0,2.09-2.09V10.452a2.091,2.091,0,0,0-2.09-2.09H142.69V6.271a6.271,6.271,0,0,0-12.543,0v2.09h-6.271a2.09,2.09,0,0,0-2.09,2.09V35.677A2.09,2.09,0,0,0,123.876,37.768Zm10.452-31.5a2.09,2.09,0,0,1,4.181,0v2.09h-4.181Zm-8.362,6.271h4.181v2.09a2.09,2.09,0,0,0,4.181,0v-2.09h4.181v2.09a2.09,2.09,0,0,0,4.181,0v-2.09h4.181V33.587h-20.9Zm0,0" transform="translate(-100.807 4)"></path></g></svg> 