<svg xmlns="http://www.w3.org/2000/svg" viewBox="0 0 48.397 35.733"><defs><style>.a{fill:#e4e8f0;}</style></defs><g transform="translate(0 -25.905)"><path class="a" d="M0,42.282H11.738c-.2,8.555-2.627,9.526-5.675,9.8l-1.175.146v9.407l1.355-.073c3.98-.224,8.379-.941,11.315-4.565,2.573-3.177,3.708-8.366,3.708-16.333V25.905H0Z" transform="translate(0 0)"/><path class="a" d="M111,25.905V42.282h11.582c-.2,8.555-2.549,9.526-5.6,9.8l-1.1.146v9.407l1.276-.073c3.98-.224,8.419-.941,11.354-4.565,2.573-3.177,3.746-8.366,3.746-16.333V25.905Z" transform="translate(-83.868 0)"/></g></svg>