<?xml version="1.0" encoding="utf-8"?>
<!-- Generator: Adobe Illustrator 21.1.0, SVG Export Plug-In . SVG Version: 6.00 Build 0)  -->
<svg version="1.1" id="Layer_1" xmlns="http://www.w3.org/2000/svg" xmlns:xlink="http://www.w3.org/1999/xlink" x="0px" y="0px"
	 viewBox="0 0 29.8 30.1" style="enable-background:new 0 0 29.8 30.1;" xml:space="preserve">
<style type="text/css">
	.st0{fill:#FFFFFF;}
	.st1{fill:#FEFEFE;}
	.st2{fill:#02193B;}
</style>
<circle class="st0" cx="15.2" cy="15" r="13.7"/>
<g id="Group_4587" transform="translate(-967 -1747)">
	<path id="Path_1687" class="st1" d="M981.6,1747.7c8,0,14.5,6.4,14.5,14.4c0,0.1,0,0.1,0,0.2c0,8-6.5,14.6-14.6,14.6
		s-14.6-6.5-14.6-14.6S973.5,1747.7,981.6,1747.7C981.6,1747.7,981.6,1747.7,981.6,1747.7z"/>
	<path id="reload" class="st2" d="M969.7,1768.4c-0.6,0.2-1.3,0-1.5-0.6c-3.2-7.6,0.5-16.3,8.1-19.5c5.3-2.2,11.3-1.2,15.6,2.6v-2.7
		c0-0.6,0.6-1.2,1.2-1.1c0.6,0,1.1,0.5,1.1,1.1v5.6c0,0.7-0.5,1.2-1.1,1.2c0,0,0,0-0.1,0h-5.7c-0.6,0-1.2-0.6-1.1-1.2
		c0-0.6,0.5-1.1,1.1-1.1h3c-5.2-4.6-13.1-4.2-17.7,1c-3.2,3.6-4.1,8.7-2.2,13.2C970.5,1767.4,970.3,1768.1,969.7,1768.4z
		 M995.7,1756.3c-0.2-0.6-0.9-0.9-1.5-0.7c-0.6,0.2-0.9,0.9-0.7,1.5c0,0,0,0,0,0.1c2.6,6.4-0.4,13.8-6.8,16.4
		c-4.5,1.8-9.6,1-13.2-2.2h3c0.6,0,1.2-0.6,1.1-1.2c0-0.6-0.5-1.1-1.1-1.1h-5.7c-0.7,0-1.2,0.5-1.2,1.2c0,0,0,0,0,0.1v5.6
		c0,0.6,0.6,1.2,1.2,1.1c0.6,0,1.1-0.5,1.1-1.1v-2.7c6.2,5.4,15.6,4.8,21.1-1.4C996.9,1767.6,997.9,1761.6,995.7,1756.3z"/>
</g>
</svg>
