<svg xmlns="http://www.w3.org/2000/svg" xmlns:xlink="http://www.w3.org/1999/xlink" viewBox="0 0 414 300"><defs><clipPath id="b"><rect width="414" height="300"/></clipPath></defs><g id="a" clip-path="url(#b)"><rect width="414" height="300" fill="rgba(255,255,255,0)"/><g transform="translate(-1 -2170)"><path d="M2005,18471.98c103.25,0,341.188,217.432,413,0" transform="translate(-2004 -16204.311)" fill="none" stroke="#ecebed" stroke-width="1"/><path d="M2005,18471.98c103.25,0,341.188,217.432,413,0" transform="translate(-2004 -16221.926)" fill="none" stroke="#ecebed" stroke-width="1"/><path d="M2005,18471.98c103.25,0,341.188,217.432,413,0" transform="translate(-2005 -16241.145)" fill="none" stroke="#ecebed" stroke-width="1"/><path d="M2005,18471.98c103.25,0,341.188,217.432,413,0" transform="translate(-2004 -16254)" fill="none" stroke="#ecebed" stroke-width="1"/><path d="M2005,18471.98c103.25,0,341.188,217.432,413,0" transform="translate(-2004 -16278)" fill="none" stroke="#ecebed" stroke-width="1"/><path d="M2005,18471.98c103.25,0,341.188,217.432,413,0" transform="translate(-2005 -16302)" fill="none" stroke="#ecebed" stroke-width="1"/><path d="M2005,18471.98c103.25,0,341.188,217.432,413,0" transform="translate(-2004 -16187.494)" fill="none" stroke="#ecebed" stroke-width="1"/><path d="M2005,18471.98c103.25,0,341.188,217.432,413,0" transform="translate(-2004 -16169.078)" fill="none" stroke="#ecebed" stroke-width="1"/><path d="M2005,18471.98c103.25,0,341.188,217.432,413,0" transform="translate(-2004 -16149.061)" fill="none" stroke="#ecebed" stroke-width="1"/><path d="M2005,18471.98c103.25,0,341.188,217.432,413,0" transform="translate(-2004 -16132.617)" fill="none" stroke="#ecebed" stroke-width="1"/><path d="M2005,18471.98c103.25,0,341.188,217.432,413,0" transform="translate(-2004 -16102.617)" fill="none" stroke="#ecebed" stroke-width="1"/><path d="M18.162,28.951c6.194,2.019,9.361-2.089,8.137-9.331S18.214,5.055,12.36,4.472,3.016,6.9,4.223,13.8,11.968,26.932,18.162,28.951Z" transform="matrix(0.777, 0.629, -0.629, 0.777, 123.4, 2271.625)" fill="#453264"/><path d="M18.162,28.951c6.194,2.019,9.361-2.089,8.137-9.331S18.214,5.055,12.36,4.472,3.016,6.9,4.223,13.8,11.968,26.932,18.162,28.951Z" transform="matrix(0.777, 0.629, -0.629, 0.777, 145.254, 2362.408)" fill="#fff" stroke="#707070" stroke-width="0.572"/><path d="M6.272,12.538c3.456.21,5.959-2.477,6.257-6.239A5.642,5.642,0,0,0,6.272.059C2.817.581.274,2.721.015,6.3S2.817,12.327,6.272,12.538Z" transform="matrix(0.777, 0.629, -0.629, 0.777, 361.05, 2290.383)" fill="#f0c933"/><path d="M4.533,9.035a4.431,4.431,0,0,0,4.5-4.5c0-2.488-2.206-4.811-4.5-4.5s-4.848,1.785-4.5,4.5S1.932,9.035,4.533,9.035Z" transform="matrix(0.777, 0.629, -0.629, 0.777, 326.68, 2348.332)" fill="#e0436b" stroke="#ebebeb" stroke-width="0.572"/><path d="M2.977,5.933A2.91,2.91,0,0,0,5.933,2.976,2.906,2.906,0,0,0,2.977.018C1.47.22-.207,1.19.021,2.976S1.269,5.933,2.977,5.933Z" transform="matrix(0.777, 0.629, -0.629, 0.777, 356.883, 2363.912)" fill="#7252a4"/><path d="M1.483,2.964A1.442,1.442,0,0,0,2.962,1.489,1.334,1.334,0,0,0,1.483.014,1.588,1.588,0,0,0,0,1.489,1.451,1.451,0,0,0,1.483,2.964Z" transform="matrix(-0.454, 0.891, -0.891, -0.454, 284.826, 2368.488)" fill="#453264"/></g></g></svg>