<?xml version="1.0" encoding="UTF-8"?>
<!-- Generator: Adobe Illustrator 21.1.0, SVG Export Plug-In . SVG Version: 6.00 Build 0)  -->
<svg version="1.1" id="Layer_1" xmlns="http://www.w3.org/2000/svg" xmlns:xlink="http://www.w3.org/1999/xlink" x="0px" y="0px" viewBox="0 0 350 188.3" style="enable-background:new 0 0 350 188.3;" xml:space="preserve">
<style type="text/css">
	.st0{fill:#EBECF0;}
	.st1{fill:none;stroke:#E4E8F0;}
	.st2{fill:#1664D7;}
	.st3{fill:url(#Path_1_1_);}
	.st4{opacity:0.821;fill:#FCFCFC;enable-background:new    ;}
	.st5{fill:#A4C5E6;}
	.st6{opacity:0.707;fill:#114798;enable-background:new    ;}
	.st7{fill:#CEDEF5;}
	.st8{fill:#E8724D;}
	.st9{fill:#F77E66;}
	.st10{fill:#D86648;}
	
		.st11{opacity:0.15;fill:none;stroke:#F0F5F7;stroke-width:0.75;stroke-linecap:round;stroke-miterlimit:10;enable-background:new    ;}
	.st12{opacity:0.1;fill:none;stroke:#FFFFFF;stroke-width:3;stroke-linecap:round;stroke-miterlimit:10;enable-background:new    ;}
	.st13{opacity:0.2;fill:#204458;enable-background:new    ;}
	
		.st14{opacity:0.1;fill:none;stroke:#FFFFFF;stroke-width:12;stroke-linecap:round;stroke-miterlimit:10;enable-background:new    ;}
	.st15{opacity:0.1;fill:#141414;enable-background:new    ;}
	.st16{opacity:5.000000e-02;fill:#FFFFFF;enable-background:new    ;}
	.st17{fill:#662B1B;}
	.st18{fill:none;}
	.st19{fill:#D36142;}
	.st20{opacity:5.000000e-02;fill:none;stroke:#2D2D2D;stroke-width:5;stroke-miterlimit:10;enable-background:new    ;}
	.st21{opacity:8.000000e-02;fill:#FFFFFF;enable-background:new    ;}
	.st22{opacity:0.1;fill:none;stroke:#FFFFFF;stroke-width:7;stroke-linecap:round;stroke-miterlimit:10;enable-background:new    ;}
	.st23{fill:none;stroke:#E6E6E6;stroke-linecap:round;stroke-miterlimit:10;}
	.st24{fill:none;stroke:#FFFFFF;stroke-width:2;stroke-linecap:round;stroke-miterlimit:10;}
	.st25{fill:url(#Ellipse_7-2_2_);}
	.st26{fill:url(#Ellipse_8-2_2_);}
	.st27{fill:url(#Ellipse_9-2_2_);}
	.st28{fill:url(#Ellipse_10_1_);}
	.st29{opacity:0.1;fill:#F5F5F5;enable-background:new    ;}
	.st30{fill:#FFFFFF;}
	.st31{fill:url(#Path_34_1_);}
	.st32{fill:url(#Path_35_1_);}
	.st33{fill:#E7E7E7;}
</style>
<g id="Group_14" transform="translate(-686 -234.654)">
	<g id="Rectangle_1" transform="translate(1036.002 455.578) rotate(180)">
		<path class="st0" d="M5,33h340c2.8,0,5,2.2,5,5v178c0,2.8-2.2,5-5,5H5c-2.8,0-5-2.2-5-5V38C0,35.2,2.2,33,5,33z"/>
		<path class="st1" d="M5,33.5h340c2.5,0,4.5,2,4.5,4.5v178c0,2.5-2,4.5-4.5,4.5H5c-2.5,0-4.5-2-4.5-4.5V38    C0.5,35.5,2.5,33.5,5,33.5z"/>
	</g>
	<path id="Rectangle_2" class="st2" d="M1031,422.6H691c-2.8,0-5-2.2-5-5v-178c0-2.8,2.2-5,5-5h340c2.8,0,5,2.2,5,5v178   C1036,420.3,1033.8,422.6,1031,422.6z"/>
	
		<linearGradient id="Path_1_1_" gradientUnits="userSpaceOnUse" x1="1129.4167" y1="-21.0543" x2="1128.9437" y2="-19.4835" gradientTransform="matrix(350.0037 0 0 188 -394362.1875 4152.0034)">
		<stop offset="0" style="stop-color:#0052CC"/>
		<stop offset="1" style="stop-color:#271CA3"/>
	</linearGradient>
	<path id="Path_1" class="st3" d="M691,235h340c2.8,0.1,5.1,2.4,5,5.3V423H686V240.3C685.9,237.4,688.2,235.1,691,235z"/>
	<path id="Subtraction_1" class="st4" d="M796.7,423h-7.4C791.7,422.6,794.2,422.6,796.7,423L796.7,423z M788.3,423h-75   c-2.6-13.7,6.4-26.9,20.1-29.5c12.2-2.3,24.2,4.6,28.4,16.2c2.5-1.2,5.2-1.8,7.9-1.7C778.7,408,786.5,414.3,788.3,423L788.3,423z"/>
	<path id="Path_3" class="st4" d="M851.4,272.7c-0.6,0-1.3,0.1-1.9,0.2c-0.8-4.2-4.9-6.9-9.1-6.1c-0.6,0.1-1.2,0.3-1.7,0.6   c-1.9-5.4-7.8-8.2-13.2-6.3c-5.4,1.9-8.2,7.8-6.3,13.2c0,0.1,0,0.1,0.1,0.2c-4.7,0.2-8.4,4.2-8.2,9c0.2,4.5,3.9,8.1,8.5,8.2h31.8   c5.2,0,9.5-4.2,9.5-9.5C860.9,276.9,856.6,272.7,851.4,272.7L851.4,272.7z"/>
	<path id="Subtraction_2" class="st5" d="M847,423h-45c3.2-9.2,13.3-14.2,22.5-11c5.1,1.7,9,5.7,10.9,10.7c1.7-0.8,3.6-1.2,5.6-1.2   S845.1,422,847,423L847,423L847,423z"/>
	<path id="Subtraction_5" class="st6" d="M1033.5,423H951c-0.1-0.8-0.2-1.6-0.2-2.4c-0.1-7.9,6.2-14.4,14.1-14.5l0,0   c-3.3-8.9,1.2-18.8,10.1-22.1c8.9-3.3,18.8,1.2,22.1,10.1c0,0.1,0.1,0.2,0.1,0.2c1.7-0.8,3.5-1.2,5.4-1.2c6.1,0,11.4,4.3,12.6,10.3   c1-0.2,2.1-0.3,3.1-0.3l0,0c8.7,0,15.8,7.1,15.8,15.8C1034,420.4,1033.8,421.7,1033.5,423L1033.5,423z"/>
	<path id="Subtraction_4" class="st7" d="M998.8,423H867.3c4.3-6.7,11.6-10.8,19.6-11c-5.4-14.7,2.1-30.9,16.8-36.4   c14.7-5.4,30.9,2.1,36.4,16.8c0,0.1,0.1,0.2,0.1,0.3c2.8-1.3,5.8-2,8.9-2c10.1,0,18.8,7.1,20.8,17   C981.8,405.4,993.9,411.7,998.8,423L998.8,423L998.8,423z"/>
	<g id="Group_6" transform="translate(931.115 329)">
		<g id="Group_5" transform="translate(-22.601)">
			<path id="Path_13" class="st8" d="M67.7,23.2h9.2L77.6,94H67.4L67.7,23.2z"/>
			<path id="Path_14" class="st8" d="M104.6-5.9v29.3H37v-41.2h55.7C99.3-17.8,104.6-12.5,104.6-5.9z"/>
			<circle id="Ellipse_1" class="st9" cx="56.5" cy="4.8" r="3.2"/>
			<circle id="Ellipse_2" class="st9" cx="56.5" cy="4.8" r="1.8"/>
			<path id="Path_15" class="st9" d="M65.2-28.7l-9.7,0.5v-5l9.7,0.5V-28.7z"/>
			<rect id="Rectangle_5" x="49.1" y="20.6" class="st8" width="55.5" height="2.7"/>
			<rect id="Rectangle_6" x="49.1" y="20.6" class="st8" width="12.4" height="2.7"/>
			<rect id="Rectangle_7" x="61.5" y="20.6" class="st10" width="12.4" height="2.7"/>
			<rect id="Rectangle_8" x="73.8" y="20.6" class="st8" width="12.4" height="2.7"/>
			<rect id="Rectangle_9" x="86.2" y="20.6" class="st10" width="12.4" height="2.7"/>
			<path id="Path_16" class="st8" d="M42.6-16.6L42.6-16.6c-2.3-0.4-3.8-2.5-3.4-4.7s2.5-3.7,4.7-3.3H44c0.3,0.1,0.6,0.4,0.5,0.8     c-0.1,0.3-0.4,0.5-0.7,0.5c-1.5-0.3-3,0.6-3.3,2.2c-0.3,1.5,0.6,3,2.2,3.3h0.1c0.3,0,0.6,0.4,0.5,0.7     C43.2-16.8,42.9-16.6,42.6-16.6L42.6-16.6z"/>
			<path id="Path_17" class="st11" d="M39.9-21.3c0.4-1.9,2.2-3.1,4-2.7l0,0"/>
			<path id="Path_18" class="st12" d="M53.9,4.8c0-1.4,1.2-2.6,2.6-2.6"/>
			<path id="Path_19" class="st13" d="M76.8,25.3L67.6,28v-4.8h9.2V25.3z"/>
			<path id="Path_20" class="st14" d="M69.5,33.1v54.8"/>
			<circle id="Ellipse_3" class="st8" cx="54.7" cy="22" r="0.7"/>
			<circle id="Ellipse_4" class="st8" cx="67.7" cy="22" r="0.7"/>
			<circle id="Ellipse_5" class="st8" cx="80.6" cy="22" r="0.7"/>
			<circle id="Ellipse_6" class="st8" cx="93.6" cy="22" r="0.7"/>
			<rect id="Rectangle_10" x="49.2" y="19.4" class="st15" width="55.4" height="1.2"/>
			<path id="Path_21" class="st16" d="M104.6-5.9v2.6H37v-14.5h55.7C99.3-17.8,104.6-12.5,104.6-5.9z"/>
			<path id="Path_22" class="st17" d="M49.1-5.8v29.2H25V-5.8c0-6.7,5.4-12,12.1-12S49.1-12.5,49.1-5.8L49.1-5.8z"/>
			<g id="Group_3" transform="translate(20.169 32.74)">
				<rect id="Rectangle_11" x="0" y="-33.2" class="st18" width="29" height="25.2"/>
			</g>
			<g id="Group_4" transform="translate(25.583 55.983) rotate(180)">
				<path id="Path_23" class="st19" d="M13.5,74.2L13.5,74.2c-3.2,0-6.3-1.2-8.5-3.5c-2.3-2.2-3.5-5.3-3.5-8.5v-29h24.1v29      C25.6,68.9,20.2,74.2,13.5,74.2L13.5,74.2z"/>
				<path id="Path_24" class="st8" d="M12,74.1L12,74.1c-3.2,0-6.2-1.3-8.5-3.5C1.3,68.4,0,65.3,0,62.1V33.2h24.1v28.9      c0,3.2-1.3,6.2-3.5,8.5C18.3,72.8,15.2,74.1,12,74.1z"/>
				<path id="Path_25" class="st20" d="M12,71.6L12,71.6C6.2,71.6,1.5,66.9,1.5,61V35.3h21.1V61C22.6,66.8,17.9,71.6,12,71.6      L12,71.6z"/>
				<path id="Path_26" class="st21" d="M20,40.9C16.1,36.5,9.3,36.1,4.9,40l0,0"/>
			</g>
			<path id="Path_27" class="st22" d="M63.2-14.8h27.4"/>
			<rect id="Rectangle_12" x="55.5" y="-29" class="st9" width="2.1" height="31.5"/>
		</g>
	</g>
	<g id="Group_13" transform="translate(756.51 274.99) rotate(4.992)">
		<g id="Group_8" transform="translate(20.751 70.553)">
			<path id="Path_29" class="st23" d="M13.7-12.1L9.6-24.6"/>
			<path id="Path_30" class="st23" d="M22-12.1l4.1-12.5"/>
			<path id="Path_31" class="st24" d="M9.6,4.5L-2.9-32.9"/>
			<path id="Path_32" class="st24" d="M26.2,4.5l12.5-37.4"/>
		</g>
		<g id="Group_10">
			<g transform="matrix(1, -0.09, 0.09, 1, -73.77, -34.06)">
				
					<linearGradient id="Ellipse_7-2_2_" gradientUnits="userSpaceOnUse" x1="-239.6028" y1="-15.431" x2="-240.1028" y2="-14.431" gradientTransform="matrix(84.3977 7.3689 -7.3689 84.3977 20247.041 3072.9753)">
					<stop offset="0" style="stop-color:#FFFFFF"/>
					<stop offset="1" style="stop-color:#FFFFFF"/>
				</linearGradient>
				<circle id="Ellipse_7-2_1_" class="st25" cx="109.2" cy="53" r="42"/>
			</g>
			<g transform="matrix(1, -0.09, 0.09, 1, -73.77, -34.06)">
				
					<linearGradient id="Ellipse_8-2_2_" gradientUnits="userSpaceOnUse" x1="-238.2556" y1="-15.3314" x2="-239.2556" y2="-14.3314" gradientTransform="matrix(63.2977 5.5267 -7.3689 84.3976 15112.3086 2624.6516)">
					<stop offset="0" style="stop-color:#E09B3D"/>
					<stop offset="0.3" style="stop-color:#C74C4D"/>
					<stop offset="0.6" style="stop-color:#C21975"/>
					<stop offset="1" style="stop-color:#7024C4"/>
				</linearGradient>
				<path id="Ellipse_8-2_1_" class="st26" d="M112.8,11.1c17.3,1.5,29.8,21.5,27.7,44.6c-2,23.1-17.7,40.6-35,39.1      S75.7,73.3,77.7,50.2S95.5,9.6,112.8,11.1z"/>
			</g>
			<g transform="matrix(1, -0.09, 0.09, 1, -73.77, -34.06)">
				
					<linearGradient id="Ellipse_9-2_2_" gradientUnits="userSpaceOnUse" x1="-235.994" y1="-15.4309" x2="-236.494" y2="-14.4309" gradientTransform="matrix(41.2398 3.6007 -7.3689 84.3976 9743.9678 2155.9272)">
					<stop offset="0" style="stop-color:#FFFFFF"/>
					<stop offset="1" style="stop-color:#FFFFFF"/>
				</linearGradient>
				<path id="Ellipse_9-2_1_" class="st27" d="M112.3,11c11.3,1,18.8,20.5,16.8,43.6c-2,23.1-12.8,41.1-24.1,40.1      c-11.3-1-18.8-20.5-16.8-43.6S101,10,112.3,11z"/>
			</g>
			<g id="Group_9" transform="translate(31.127)">
				
					<linearGradient id="Ellipse_10_1_" gradientUnits="userSpaceOnUse" x1="-389.2903" y1="0.4721" x2="-390.2903" y2="1.4721" gradientTransform="matrix(19.894 0 1.567201e-05 83.362 7760.7417 -75.6445)">
					<stop offset="0" style="stop-color:#E09B3D"/>
					<stop offset="0.3" style="stop-color:#C74C4D"/>
					<stop offset="0.6" style="stop-color:#C21975"/>
					<stop offset="1" style="stop-color:#7024C4"/>
				</linearGradient>
				<path id="Ellipse_10" class="st28" d="M7.2-32.9c5.5,0,9.9,18.7,9.9,41.7s-4.5,41.7-9.9,41.7c-5.5,0-9.9-18.7-9.9-41.7      C-2.7-14.2,1.7-32.9,7.2-32.9z"/>
				<path id="Path_33" class="st29" d="M7.5-32.9C1.8-32.9-2.9-14.3-2.9,8.6c0,22.9,4.6,41.5,10.4,41.5L7.5-32.9z"/>
			</g>
		</g>
		<g transform="matrix(1, -0.09, 0.09, 1, -73.77, -34.06)">
			<path id="Rectangle_13-2_1_" class="st30" d="M89.4,117.8l27.5,2.4c0.6,0,1,0.5,0.9,1.1l-0.2,1.8c0,0.6-0.5,1-1.1,0.9L89,121.6     c-0.6,0-1-0.5-0.9-1.1l0.2-1.8C88.3,118.2,88.8,117.8,89.4,117.8z"/>
		</g>
		<g id="Group_12" transform="translate(36.945 86.739)">
			<g id="Group_11" transform="translate(2.067)">
				
					<linearGradient id="Path_34_1_" gradientUnits="userSpaceOnUse" x1="-353.6159" y1="62.8761" x2="-353.6159" y2="63.4973" gradientTransform="matrix(4.98 4.644815e-05 -4.075504e-05 8.3001 1760.3047 -554.6978)">
					<stop offset="0" style="stop-color:#FA8461;stop-opacity:0"/>
					<stop offset="1" style="stop-color:#FFD033"/>
				</linearGradient>
				<path id="Path_34" class="st31" d="M-0.4-24.6c1.4,0,2.5-1.1,2.5-2.5l0,0c0-1.4-1.2-5.8-2.5-5.8c-1.3,0-2.5,4.5-2.5,5.8      C-2.9-25.7-1.7-24.6-0.4-24.6L-0.4-24.6z"/>
				
					<linearGradient id="Path_35_1_" gradientUnits="userSpaceOnUse" x1="-324.0107" y1="99.8494" x2="-324.0107" y2="100.3704" gradientTransform="matrix(3.32 1.523733e-05 5.994321e-06 5.4003 1075.1133 -569.5513)">
					<stop offset="0" style="stop-color:#EA8E3F;stop-opacity:0"/>
					<stop offset="1" style="stop-color:#FFFFFF"/>
				</linearGradient>
				<path id="Path_35" class="st32" d="M-0.4-25c0.9,0,1.6-0.7,1.7-1.6l0,0c0-0.9-0.8-3.8-1.7-3.8c-0.8,0-1.7,2.9-1.7,3.8      C-2-25.7-1.3-25-0.4-25L-0.4-25z"/>
			</g>
			
				<rect id="Rectangle_14" x="0.5" y="-32.1" transform="matrix(5.747665e-06 1 -1 5.747665e-06 -25.4557 -29.1798)" class="st33" width="2.8" height="9.5"/>
			<path id="Path_36" class="st30" d="M-1.9-25.8l6.6,0c0,1-0.8,1.9-1.9,1.9l-2.8,0C-1.1-23.9-1.9-24.8-1.9-25.8z"/>
		</g>
	</g>
</g>
</svg>