<svg xmlns="http://www.w3.org/2000/svg" width="54" height="54" viewBox="0 0 54 54">
  <path id="iconmonstr-smiley-18" d="M41.431,24.136c.382,2.934-3.652,5.535-5.031,8.847-2.218,5.578,5.411,8.431,7.9,3.15,2.095-4.442-1.022-9.506-2.871-12Zm.243,7.677c-.916.963-2.147.142-1.285-.918a13.121,13.121,0,0,0,1.5-2.333C42.179,29.322,42.422,31.03,41.674,31.813ZM40.5,22.5l-1.7,1.138a4.488,4.488,0,0,0-3.929-2.133,4.64,4.64,0,0,0-3.926,2.133L29.25,22.5c.632-1.683,2.711-4.5,5.623-4.5S39.863,20.821,40.5,22.5Zm-15.75,0-1.7,1.138a4.488,4.488,0,0,0-3.929-2.133A4.64,4.64,0,0,0,15.2,23.643L13.5,22.5c.632-1.683,2.711-4.5,5.623-4.5S24.113,20.821,24.75,22.5ZM27,0A27,27,0,1,0,54,27,27,27,0,0,0,27,0Zm0,49.5A22.5,22.5,0,1,1,49.5,27,22.526,22.526,0,0,1,27,49.5Zm8.059-9.128a5.393,5.393,0,0,1-2.3-.007,27.749,27.749,0,0,0-5.765-.634,27.8,27.8,0,0,0-5.765.634c-2.5.524-4.374-.54-5.074-2.284-1.922-4.795,3.208-8.926,10.836-8.926a16.854,16.854,0,0,1,6.89,1.323,8.359,8.359,0,0,0-1.159,3.573c-4.043-1.966-14.308-1.219-12.942,2.516.31.848,3.632-.628,7.211-.628a34.256,34.256,0,0,1,5.924.839,6.63,6.63,0,0,0,2.144,3.593Z" fill="#e95b5b"/>
</svg>
