<svg _ngcontent-lnk-c2="" xmlns:xlink="http://www.w3.org/1999/xlink" data-name="Component 130 – 1" height="18" id="Component_130_1" viewBox="0 0 18 18" width="18" xmlns="http://www.w3.org/2000/svg"><defs _ngcontent-lnk-c2=""><clipPath _ngcontent-lnk-c2="" id="clip-path"><path _ngcontent-lnk-c2="" d="M2,18a2,2,0,0,1-2-1.994V3.994A2,2,0,0,1,2,2H3V1A1,1,0,0,1,5,1V2h8V1a1,1,0,0,1,2,0V2h1a2,2,0,0,1,2,1.994V16.006A2,2,0,0,1,16,18Zm.255-3.282a1,1,0,0,0,.993,1H14.758a1,1,0,0,0,.992-1V6.571H2.25ZM12,14V12h2v2ZM8,14V12h2v2ZM4,14V12H6v2Zm8-4V8h2v2ZM8,10V8h2v2ZM4,10V8H6v2Z" data-name="Combined Shape" fill="#172b4d" id="Combined_Shape" transform="translate(3 3)"></path></clipPath><clipPath _ngcontent-lnk-c2="" id="clip-path-2"><rect _ngcontent-lnk-c2="" fill="none" height="24" width="24"></rect></clipPath></defs><g _ngcontent-lnk-c2="" clip-path="url(#clip-path)" data-name="Group 39" id="Group_39" transform="translate(-3 -3)"><g _ngcontent-lnk-c2="" clip-path="url(#clip-path-2)" data-name="↳ 🎨Color" id="_Color"><path _ngcontent-lnk-c2="" d="M0,24H24V0H0Z" fill="#172b4d" id="N500"></path></g></g></svg>