<svg xmlns="http://www.w3.org/2000/svg" width="54" height="54" viewBox="0 0 54 54">
  <path id="iconmonstr-smiley-2" d="M27,4.5A22.5,22.5,0,1,1,4.5,27,22.526,22.526,0,0,1,27,4.5ZM27,0A27,27,0,1,0,54,27,27,27,0,0,0,27,0ZM39.391,31.367A18.8,18.8,0,0,1,27,35.712a18.8,18.8,0,0,1-12.393-4.345L13.5,32.477C16.036,36.347,20.7,40.5,27,40.5s10.962-4.153,13.5-8.023ZM19.125,18A3.375,3.375,0,1,0,22.5,21.375,3.375,3.375,0,0,0,19.125,18Zm15.75,0a3.375,3.375,0,1,0,3.375,3.375A3.375,3.375,0,0,0,34.875,18Z" fill="#58bf2b"/>
</svg>
