<svg xmlns="http://www.w3.org/2000/svg" width="26.872" height="34.189" viewBox="0 0 26.872 34.189"><defs><style>.a{fill:#ff5630;}</style></defs><g transform="translate(-54.41)"><path class="a" d="M206.823,79.961a3.418,3.418,0,1,0-3.417-3.418A3.422,3.422,0,0,0,206.823,79.961Z" transform="translate(-138.977 -68.208)"/><path class="a" d="M81.282,3.268a.767.767,0,0,0-.756-.767V1.631A1.048,1.048,0,0,0,79.02.686a1.317,1.317,0,0,0-2.473.631V2.5h-.71a1.422,1.422,0,0,0-2.714,0H62.569a1.422,1.422,0,0,0-2.714,0h-.71V1.317A1.317,1.317,0,0,0,56.672.686a1.048,1.048,0,0,0-1.506.945V2.5a.767.767,0,0,0,0,1.534V4.9a1.048,1.048,0,0,0,1.506.945,1.317,1.317,0,0,0,2.473-.631V4.035h.645V9.664a3.213,3.213,0,0,0,.82,2.047l3.1,3.248v17.5a1.726,1.726,0,1,0,3.452,0V23.838h1.362v8.614a1.726,1.726,0,1,0,3.452,0l0-17.493,3.1-3.248a3.213,3.213,0,0,0,.82-2.047V4.035h.645V5.217a1.317,1.317,0,0,0,2.473.631A1.048,1.048,0,0,0,80.526,4.9V4.035A.767.767,0,0,0,81.282,3.268ZM73.058,9.634A.655.655,0,0,1,73,9.769l-2.687,2.814H65.375L62.688,9.769a.651.651,0,0,1-.054-.135v-5.6H73.058v5.6Z" transform="translate(0)"/></g></svg>