<svg xmlns="http://www.w3.org/2000/svg" width="35.121" height="33.068" viewBox="0 0 35.121 33.068"><defs><style>.a{fill:#36b37e;}</style></defs><g transform="translate(0 -8.798)"><g transform="translate(0 8.798)"><path class="a" d="M105.326,192.579l-1.338-3.572L101.78,192l.533,1.424.127,6.094A1.559,1.559,0,0,0,104,201.044h.033a1.559,1.559,0,0,0,1.526-1.591l-.133-6.36A1.559,1.559,0,0,0,105.326,192.579Z" transform="translate(-89.902 -167.976)"/><circle class="a" cx="2.692" cy="2.692" r="2.692" transform="translate(8.064 2.221)"/><path class="a" d="M19.938,38.179a1.3,1.3,0,0,0-1.821.241L14.7,42.872l-1.47.292a1.809,1.809,0,0,0-.883-.233l-3.243-.013A1.819,1.819,0,0,0,7.28,44.73l0,1.184,1.907-1.57L5.933,48.633a1.3,1.3,0,0,0-.174,1.215L7.57,54.823a1.3,1.3,0,0,0,2.441-.89L8.472,49.711,11.4,45.733l-.193.483-1.4,3.516,1.376,3.774a2.547,2.547,0,0,1-3.389,3.216l-.811,1.1L.873,60.91a1.559,1.559,0,0,0,1.372,2.8L8.7,60.451a1.559,1.559,0,0,0,.568-.474l4.6-6.233a1.882,1.882,0,0,0,.265-1.267l.028-6.849,1.533-.3a1.3,1.3,0,0,0,.778-.484L20.179,40A1.3,1.3,0,0,0,19.938,38.179Z" transform="translate(0 -34.514)"/><path class="a" d="M249,195.2a1.653,1.653,0,0,0-.159,1.125l.759,6.316a1.559,1.559,0,0,0,3.1-.372l-.728-6.052.852-3.848Z" transform="translate(-219.772 -170.945)"/><circle class="a" cx="2.692" cy="2.692" r="2.692" transform="translate(27.087 2.015)"/><path class="a" d="M191.466,26.107v0l-1.141-7.836a1.819,1.819,0,0,0-2.062-1.538l-3.2.466-3.005-2.013-1.443-5.422a1.3,1.3,0,0,0-2.511.668l1.569,5.895a1.3,1.3,0,0,0,.533.745l2.962,1.983,4.028-1.126-4.268,2.488-4.033-1.98a1.3,1.3,0,0,0-1.145,2.332c5.151,2.527,4.781,2.349,4.883,2.386a1.3,1.3,0,0,0,1.1-.1l4.611-2.773-4.1,3.915.417,2.867,2.15-.345-5.1,3.777a1.559,1.559,0,0,0-.473.569l-3.244,6.46a1.559,1.559,0,0,0,2.8,1.366l3.077-6.117c5.211-3.862,4.072-3.028,6.936-5.1A1.642,1.642,0,0,0,191.466,26.107Z" transform="translate(-156.361 -8.798)"/></g></g></svg>