<svg xmlns="http://www.w3.org/2000/svg" width="16.471" height="35.612" viewBox="0 0 16.471 35.612"><defs><style>.a{fill:#ffab00;}</style></defs><g transform="translate(-15.459)"><g transform="translate(15.459 0)"><circle class="a" cx="3.281" cy="3.281" r="3.281" transform="translate(4.892)"/><path class="a" d="M24.774,11.106a6.685,6.685,0,0,0-2.509.027c-5.454.57-7.225,6.2-6.725,10.488.217,1.855,3.5,1.875,3.279,0a10.032,10.032,0,0,1,.828-5.6v6.115c0,.072.008.14.012.209,0,.033-.011.061-.011.095,0,4.853-.009,9.7-.234,14.552-.1,2.155,3.65,2.147,3.749,0,.176-3.8.221-7.6.231-11.405a4.867,4.867,0,0,0,.533,0c.011,3.8.054,7.605.229,11.4.1,2.147,3.849,2.155,3.749,0-.225-4.849-.233-9.7-.233-14.552a1.643,1.643,0,0,0-.057-.419c-.005-2.107-.1-4.216-.068-6.321A9.579,9.579,0,0,1,28.57,21.62c-.22,1.873,3.062,1.854,3.279,0C32.361,17.24,30.5,11.467,24.774,11.106Z" transform="translate(-15.459 -2.993)"/></g></g></svg>