<svg xmlns="http://www.w3.org/2000/svg" width="159.293" height="24.256" viewBox="0 0 159.293 24.256">
  <g id="Group_3325" data-name="Group 3325" transform="translate(-79 -1035.836)">
    <g id="Group_1" data-name="Group 1" transform="translate(-518 594.836)">
      <path id="Path" d="M0,.75a.75.75,0,1,1,.75.75A.75.75,0,0,1,0,.75" transform="translate(617.18 454.036)" fill="#2684ff"/>
      <path id="Path-2" data-name="Path" d="M0,1.132A1.132,1.132,0,1,1,1.132,2.263,1.132,1.132,0,0,1,0,1.132" transform="translate(609.689 458.573)" fill="#02193b"/>
      <path id="Path-3" data-name="Path" d="M0,1.11A1.11,1.11,0,1,1,1.11,2.22,1.11,1.11,0,0,1,0,1.11" transform="translate(614.235 458.013)" fill="#02193b"/>
      <path id="Path-4" data-name="Path" d="M0,1.171A1.172,1.172,0,1,1,1.172,2.342,1.171,1.171,0,0,1,0,1.171" transform="translate(617.156 442.454)" fill="#02193b"/>
      <path id="Path-5" data-name="Path" d="M0,.756a.756.756,0,1,1,.756.756A.756.756,0,0,1,0,.756" transform="translate(619.68 456.693)" fill="#02193b"/>
      <path id="Path-6" data-name="Path" d="M0,.792a.793.793,0,1,1,.793.792A.793.793,0,0,1,0,.792" transform="translate(615.468 442.926)" fill="#02193b"/>
      <path id="Path-7" data-name="Path" d="M0,.593a.593.593,0,1,1,.593.593A.593.593,0,0,1,0,.593" transform="translate(613.876 442.672)" fill="#02193b"/>
      <path id="Path-8" data-name="Path" d="M0,.749A.749.749,0,1,1,.749,1.5.749.749,0,0,1,0,.749" transform="translate(618.136 453.212)" fill="#02193b"/>
      <path id="Path-9" data-name="Path" d="M0,.74a.741.741,0,1,1,.741.74A.74.74,0,0,1,0,.74" transform="translate(613.574 456.304)" fill="#02193b"/>
      <path id="Path-10" data-name="Path" d="M0,.7a.7.7,0,1,1,.7.7A.7.7,0,0,1,0,.7" transform="translate(607.211 454.597)" fill="#02193b"/>
      <path id="Path-11" data-name="Path" d="M0,.551A.551.551,0,1,1,.551,1.1.551.551,0,0,1,0,.551" transform="translate(612.469 456.836)" fill="#2684ff"/>
      <path id="Path-12" data-name="Path" d="M0,.551A.551.551,0,1,1,.551,1.1.551.551,0,0,1,0,.551" transform="translate(621.144 462.716)" fill="#02193b"/>
      <path id="Path-13" data-name="Path" d="M0,.551A.551.551,0,1,1,.551,1.1.551.551,0,0,1,0,.551" transform="translate(605.449 458.023)" fill="#02193b"/>
      <path id="Path-14" data-name="Path" d="M0,.5a.5.5,0,1,1,.5.5A.5.5,0,0,1,0,.5" transform="translate(604.282 446.213)" fill="#02193b"/>
      <path id="Path-15" data-name="Path" d="M0,.417A.417.417,0,1,1,.417.833.417.417,0,0,1,0,.417" transform="translate(600.878 446.126)" fill="#02193b"/>
      <path id="Path-16" data-name="Path" d="M0,.525a.525.525,0,1,1,.525.525A.525.525,0,0,1,0,.525" transform="translate(618.938 450.158)" fill="#02193b"/>
      <path id="Path-17" data-name="Path" d="M0,.431A.431.431,0,1,1,.431.861.431.431,0,0,1,0,.431" transform="translate(599.736 449.938)" fill="#02193b"/>
      <path id="Path-18" data-name="Path" d="M0,.431A.431.431,0,1,1,.431.861.431.431,0,0,1,0,.431" transform="translate(600.733 451.484)" fill="#2684ff"/>
      <path id="Path-19" data-name="Path" d="M0,.441A.441.441,0,1,1,.441.882.441.441,0,0,1,0,.441" transform="translate(611.594 442.47)" fill="#02193b"/>
      <path id="Path-20" data-name="Path" d="M0,.449A.449.449,0,1,1,.449.9.449.449,0,0,1,0,.449" transform="translate(601.176 447.562)" fill="#02193b"/>
      <path id="Path-21" data-name="Path" d="M0,.629a.63.63,0,1,1,.63.629A.629.629,0,0,1,0,.629" transform="translate(615.631 455.426)" fill="#02193b"/>
      <path id="Path-22" data-name="Path" d="M0,.629a.63.63,0,1,1,.63.629A.629.629,0,0,1,0,.629" transform="translate(621.695 462.121)" fill="#02193b"/>
      <path id="Path-23" data-name="Path" d="M0,.635a.636.636,0,1,1,.636.635A.635.635,0,0,1,0,.635" transform="translate(618.418 463.985)" fill="#02193b"/>
      <path id="Path-24" data-name="Path" d="M0,.494A.494.494,0,1,1,.494.987.494.494,0,0,1,0,.494" transform="translate(606.457 447.785)" fill="#02193b"/>
      <path id="Path-25" data-name="Path" d="M0,.9a.9.9,0,1,1,.9.9A.9.9,0,0,1,0,.9" transform="translate(612.553 444.262)" fill="#2684ff"/>
      <path id="Path-26" data-name="Path" d="M0,.98a.98.98,0,1,1,.98.979A.98.98,0,0,1,0,.98" transform="translate(619.615 459.463)" fill="#2684ff"/>
      <path id="Path-27" data-name="Path" d="M0,.9a.9.9,0,1,1,.9.9A.9.9,0,0,1,0,.9" transform="translate(616.148 441.749)" fill="#2684ff"/>
      <path id="Path-28" data-name="Path" d="M0,.888a.888.888,0,1,1,.888.888A.888.888,0,0,1,0,.888" transform="translate(607.027 452.572)" fill="#2684ff"/>
      <path id="Path-29" data-name="Path" d="M0,.892a.892.892,0,1,1,.892.892A.892.892,0,0,1,0,.892" transform="translate(616.022 456.154)" fill="#2684ff"/>
      <path id="Path-30" data-name="Path" d="M0,.888a.888.888,0,1,1,.888.888A.888.888,0,0,1,0,.888" transform="translate(620.85 446.184)" fill="#2684ff"/>
      <path id="Path-31" data-name="Path" d="M0,.645a.645.645,0,1,1,.645.645A.645.645,0,0,1,0,.645" transform="translate(618.278 461.381)" fill="#02193b"/>
      <path id="Path-32" data-name="Path" d="M0,.41A.41.41,0,1,1,.41.82.41.41,0,0,1,0,.41" transform="translate(602.41 454.592)" fill="#02193b"/>
      <path id="Path-33" data-name="Path" d="M0,.282A.282.282,0,1,1,.282.563.282.282,0,0,1,0,.282" transform="translate(601.837 453.613)" fill="#2684ff"/>
      <path id="Path-34" data-name="Path" d="M0,.4A.4.4,0,1,1,.4.8.4.4,0,0,1,0,.4" transform="translate(600.977 454.509)" fill="#02193b"/>
      <path id="Path-35" data-name="Path" d="M0,.645a.645.645,0,1,1,.645.645A.645.645,0,0,1,0,.645" transform="translate(605.091 456.51)" fill="#2684ff"/>
      <path id="Path-36" data-name="Path" d="M0,.651A.651.651,0,1,1,.651,1.3.651.651,0,0,1,0,.651" transform="translate(611.95 441.02)" fill="#2684ff"/>
      <path id="Path-37" data-name="Path" d="M0,.748A.749.749,0,1,1,.749,1.5.748.748,0,0,1,0,.748" transform="translate(617.206 458.375)" fill="#2684ff"/>
      <path id="Path-38" data-name="Path" d="M0,.627a.628.628,0,1,1,.628.627A.628.628,0,0,1,0,.627" transform="translate(609.912 444.584)" fill="#2684ff"/>
      <path id="Path-39" data-name="Path" d="M0,.8a.8.8,0,1,1,.8.8A.8.8,0,0,1,0,.8" transform="translate(610.925 459.498)" fill="#2684ff"/>
      <path id="Path-40" data-name="Path" d="M0,.592a.593.593,0,1,1,.593.592A.592.592,0,0,1,0,.592" transform="translate(621.332 461.435)" fill="#2684ff"/>
      <path id="Path-41" data-name="Path" d="M0,.395a.4.4,0,1,1,.4.4.4.4,0,0,1-.4-.4" transform="translate(606.758 447.114)" fill="#2684ff"/>
      <path id="Path-42" data-name="Path" d="M0,.395a.4.4,0,1,1,.4.4.4.4,0,0,1-.4-.4" transform="translate(600.417 453.497)" fill="#02193b"/>
      <path id="Path-43" data-name="Path" d="M0,.4a.4.4,0,1,1,.4.4A.4.4,0,0,1,0,.4" transform="translate(612.203 443.613)" fill="#2684ff"/>
      <path id="Path-44" data-name="Path" d="M0,.4A.4.4,0,1,1,.4.8.4.4,0,0,1,0,.4" transform="translate(618.327 459.639)" fill="#2684ff"/>
      <path id="Path-45" data-name="Path" d="M0,.507a.507.507,0,1,1,.507.507A.507.507,0,0,1,0,.507" transform="translate(619.971 444.046)" fill="#2684ff"/>
      <path id="Path-46" data-name="Path" d="M0,.444A.444.444,0,1,1,.444.887.444.444,0,0,1,0,.444" transform="translate(611.318 441.127)" fill="#2684ff"/>
      <path id="Path-47" data-name="Path" d="M0,.395a.4.4,0,1,1,.4.4.4.4,0,0,1-.4-.4" transform="translate(614.046 460.111)" fill="#2684ff"/>
      <path id="Path-48" data-name="Path" d="M0,.5a.5.5,0,1,1,.5.5A.5.5,0,0,1,0,.5" transform="translate(608.14 446.056)" fill="#2684ff"/>
      <path id="Path-49" data-name="Path" d="M0,.395a.4.4,0,1,1,.4.4.4.4,0,0,1-.4-.4" transform="translate(620.936 463.267)" fill="#2684ff"/>
      <path id="Path-50" data-name="Path" d="M0,.453A.453.453,0,1,1,.453.905.453.453,0,0,1,0,.453" transform="translate(611.84 445.258)" fill="#2684ff"/>
      <path id="Path-51" data-name="Path" d="M0,.446A.446.446,0,1,1,.446.891.446.446,0,0,1,0,.446" transform="translate(616.382 457.986)" fill="#2684ff"/>
      <path id="Path-52" data-name="Path" d="M0,.395a.4.4,0,1,1,.4.4.4.4,0,0,1-.4-.4" transform="translate(608.987 456.461)" fill="#2684ff"/>
      <path id="Path-53" data-name="Path" d="M0,.395a.4.4,0,1,1,.4.4.4.4,0,0,1-.4-.4" transform="translate(600.769 444.574)" fill="#2684ff"/>
      <path id="Path-54" data-name="Path" d="M0,.4A.4.4,0,1,1,.4.79.4.4,0,0,1,0,.4" transform="translate(598.369 454.263)" fill="#02193b"/>
      <path id="Path-55" data-name="Path" d="M0,.395a.4.4,0,1,1,.4.4.4.4,0,0,1-.4-.4" transform="translate(597.033 456.112)" fill="#2684ff"/>
      <path id="Path-56" data-name="Path" d="M0,.395a.4.4,0,1,1,.4.4.4.4,0,0,1-.4-.4" transform="translate(608.014 457.345)" fill="#2684ff"/>
      <path id="Path-57" data-name="Path" d="M0,.395a.4.4,0,1,1,.4.4.4.4,0,0,1-.4-.4" transform="translate(617.447 447.502)" fill="#2684ff"/>
      <path id="Path-58" data-name="Path" d="M0,.395a.4.4,0,1,1,.4.4.4.4,0,0,1-.4-.4" transform="translate(603.047 455.952)" fill="#2684ff"/>
      <path id="Path-59" data-name="Path" d="M0,.455A.456.456,0,1,1,.456.911.456.456,0,0,1,0,.455" transform="translate(605.651 446.24)" fill="#2684ff"/>
      <path id="Path-60" data-name="Path" d="M0,.317A.317.317,0,1,1,.317.634.317.317,0,0,1,0,.317" transform="translate(599.058 445.163)" fill="#b3d4ff"/>
      <path id="Path-61" data-name="Path" d="M0,.455A.456.456,0,1,1,.456.911.456.456,0,0,1,0,.455" transform="translate(609.457 443.157)" fill="#02193b"/>
      <path id="Path-62" data-name="Path" d="M0,.4A.4.4,0,1,1,.4.79.4.4,0,0,1,0,.4" transform="translate(616.839 454.614)" fill="#02193b"/>
      <path id="Path-63" data-name="Path" d="M0,.395a.4.4,0,1,1,.4.4.4.4,0,0,1-.4-.4" transform="translate(608.387 444.92)" fill="#2684ff"/>
      <path id="Path-64" data-name="Path" d="M0,.449A.449.449,0,1,1,.449.9.449.449,0,0,1,0,.449" transform="translate(617.822 457.462)" fill="#2684ff"/>
      <path id="Path-65" data-name="Path" d="M0,.494A.494.494,0,1,1,.494.987.494.494,0,0,1,0,.494" transform="translate(620.101 454.845)" fill="#2684ff"/>
      <path id="Path-66" data-name="Path" d="M0,.395a.4.4,0,1,1,.4.4.4.4,0,0,1-.4-.4" transform="translate(615.016 455.828)" fill="#2684ff"/>
      <path id="Path-67" data-name="Path" d="M0,.45A.45.45,0,1,1,.45.9.45.45,0,0,1,0,.45" transform="translate(613.415 443.344)" fill="#2684ff"/>
      <path id="Path-68" data-name="Path" d="M0,.392A.392.392,0,1,1,.392.784.392.392,0,0,1,0,.392" transform="translate(618.489 450.507)" fill="#b3d4ff"/>
      <path id="Path-69" data-name="Path" d="M0,.395a.4.4,0,1,1,.4.4.4.4,0,0,1-.4-.4" transform="translate(619.054 460.336)" fill="#2684ff"/>
      <path id="Path-70" data-name="Path" d="M0,.671a.672.672,0,1,1,.672.671A.672.672,0,0,1,0,.671" transform="translate(608.752 454.557)" fill="#2684ff"/>
      <path id="Path-71" data-name="Path" d="M0,.376A.376.376,0,1,1,.376.751.376.376,0,0,1,0,.376" transform="translate(599.772 457.053)" fill="#2684ff"/>
      <path id="Path-72" data-name="Path" d="M0,.45A.45.45,0,1,1,.45.9.45.45,0,0,1,0,.45" transform="translate(602.468 458.54)" fill="#2684ff"/>
      <path id="Path-73" data-name="Path" d="M0,.671a.672.672,0,1,1,.672.671A.672.672,0,0,1,0,.671" transform="translate(602.182 444.837)" fill="#2684ff"/>
      <path id="Path-74" data-name="Path" d="M0,.592a.593.593,0,1,1,.593.592A.592.592,0,0,1,0,.592" transform="translate(609.67 455.236)" fill="#2684ff"/>
      <path id="Path-75" data-name="Path" d="M0,.464A.464.464,0,1,1,.464.928.464.464,0,0,1,0,.464" transform="translate(610.536 455.633)" fill="#2684ff"/>
      <path id="Path-76" data-name="Path" d="M0,.663a.663.663,0,1,1,.663.663A.663.663,0,0,1,0,.663" transform="translate(607.896 447.505)" fill="#02193b"/>
      <path id="Path-77" data-name="Path" d="M0,.749A.75.75,0,1,1,.75,1.5.75.75,0,0,1,0,.749" transform="translate(612.948 441)" fill="#02193b"/>
      <path id="Path-78" data-name="Path" d="M0,.395a.4.4,0,1,1,.4.4.4.4,0,0,1-.4-.4" transform="translate(614.209 441.02)" fill="#2684ff"/>
      <path id="Path-79" data-name="Path" d="M0,1.11A1.11,1.11,0,1,1,1.11,2.22,1.11,1.11,0,0,1,0,1.11" transform="translate(620.927 447.217)" fill="#02193b"/>
      <path id="Path-80" data-name="Path" d="M0,.958a.958.958,0,1,1,.958.958A.958.958,0,0,1,0,.958" transform="translate(621.44 451.914)" fill="#2684ff"/>
      <path id="Path-81" data-name="Path" d="M0,.74a.741.741,0,1,1,.741.74A.74.74,0,0,1,0,.74" transform="translate(621.736 453.072)" fill="#02193b"/>
      <path id="Path-82" data-name="Path" d="M0,.463A.463.463,0,1,1,.463.925.463.463,0,0,1,0,.463" transform="translate(621.112 453.573)" fill="#2684ff"/>
      <path id="Path-83" data-name="Path" d="M0,.48a.48.48,0,1,1,.48.48A.48.48,0,0,1,0,.48" transform="translate(621.918 454.178)" fill="#2684ff"/>
      <path id="Path-84" data-name="Path" d="M0,.747a.747.747,0,1,1,.747.747A.747.747,0,0,1,0,.747" transform="translate(618.002 445.796)" fill="#02193b"/>
      <path id="Path-85" data-name="Path" d="M0,.747a.747.747,0,1,1,.747.747A.747.747,0,0,1,0,.747" transform="translate(607.082 442.301)" fill="#02193b"/>
      <path id="Path-86" data-name="Path" d="M0,.494A.494.494,0,1,1,.494.987.494.494,0,0,1,0,.494" transform="translate(607.847 458.691)" fill="#02193b"/>
      <path id="Path-87" data-name="Path" d="M0,.731a.732.732,0,1,1,.732.731A.732.732,0,0,1,0,.731" transform="translate(621.007 454.774)" fill="#b3d4ff"/>
      <path id="Path-88" data-name="Path" d="M0,.682a.682.682,0,1,1,.682.682A.682.682,0,0,1,0,.682" transform="translate(620.179 449.42)" fill="#b3d4ff"/>
      <path id="Path-89" data-name="Path" d="M0,.672a.672.672,0,1,1,.672.672A.672.672,0,0,1,0,.672" transform="translate(614.084 456.856)" fill="#b3d4ff"/>
      <path id="Path-90" data-name="Path" d="M0,.462A.462.462,0,1,1,.462.923.462.462,0,0,1,0,.462" transform="translate(601.133 456)" fill="#b3d4ff"/>
      <path id="Path-91" data-name="Path" d="M0,.666a.666.666,0,1,1,.666.666A.666.666,0,0,1,0,.666" transform="translate(619.646 453.666)" fill="#b3d4ff"/>
      <path id="Path-92" data-name="Path" d="M0,.736a.737.737,0,1,1,.737.736A.737.737,0,0,1,0,.736" transform="translate(615.734 459.157)" fill="#b3d4ff"/>
      <path id="Path-93" data-name="Path" d="M0,.666a.666.666,0,1,1,.666.666A.666.666,0,0,1,0,.666" transform="translate(618.734 447.047)" fill="#b3d4ff"/>
      <path id="Path-94" data-name="Path" d="M0,.666a.666.666,0,1,1,.666.666A.666.666,0,0,1,0,.666" transform="translate(602.696 446.389)" fill="#b3d4ff"/>
      <path id="Path-95" data-name="Path" d="M0,.686a.686.686,0,1,1,.686.686A.686.686,0,0,1,0,.686" transform="translate(602.427 450.03)" fill="#b3d4ff"/>
      <path id="Path-96" data-name="Path" d="M0,.666a.666.666,0,1,1,.666.666A.666.666,0,0,1,0,.666" transform="translate(607.279 445.461)" fill="#b3d4ff"/>
      <path id="Path-97" data-name="Path" d="M0,.539a.539.539,0,1,1,.539.539A.539.539,0,0,1,0,.539" transform="translate(607.802 456.139)" fill="#b3d4ff"/>
      <path id="Path-98" data-name="Path" d="M0,.666a.666.666,0,1,1,.666.666A.666.666,0,0,1,0,.666" transform="translate(619.295 455.513)" fill="#b3d4ff"/>
      <path id="Path-99" data-name="Path" d="M0,.666a.666.666,0,1,1,.666.666A.666.666,0,0,1,0,.666" transform="translate(618.577 456.347)" fill="#b3d4ff"/>
      <path id="Path-100" data-name="Path" d="M0,.666a.666.666,0,1,1,.666.666A.666.666,0,0,1,0,.666" transform="translate(613.649 459.04)" fill="#b3d4ff"/>
      <path id="Path-101" data-name="Path" d="M0,.666a.666.666,0,1,1,.666.666A.666.666,0,0,1,0,.666" transform="translate(610.449 443.662)" fill="#b3d4ff"/>
      <path id="Path-102" data-name="Path" d="M0,.478A.478.478,0,1,1,.478.956.478.478,0,0,1,0,.478" transform="translate(614.499 455.973)" fill="#b3d4ff"/>
      <path id="Path-103" data-name="Path" d="M0,.471A.471.471,0,1,1,.471.942.471.471,0,0,1,0,.471" transform="translate(599.109 451.924)" fill="#02193b"/>
      <path id="Path-104" data-name="Path" d="M0,.444A.444.444,0,1,1,.444.888.444.444,0,0,1,0,.444" transform="translate(608.516 443.891)" fill="#b3d4ff"/>
      <path id="Path-105" data-name="Path" d="M0,.444A.444.444,0,1,1,.444.888.444.444,0,0,1,0,.444" transform="translate(605.443 451.111)" fill="#b3d4ff"/>
      <path id="Path-106" data-name="Path" d="M0,.456A.456.456,0,1,1,.456.911.456.456,0,0,1,0,.456" transform="translate(608.224 453.553)" fill="#02193b"/>
      <path id="Path-107" data-name="Path" d="M0,.444A.444.444,0,1,1,.444.888.444.444,0,0,1,0,.444" transform="translate(622.567 449.546)" fill="#2684ff"/>
      <path id="Path-108" data-name="Path" d="M0,.659a.66.66,0,1,1,.66.659A.659.659,0,0,1,0,.659" transform="translate(619.922 448.101)" fill="#b3d4ff"/>
      <path id="Path-109" data-name="Path" d="M0,.671a.672.672,0,1,1,.671.671A.671.671,0,0,1,0,.671" transform="translate(610.907 445.01)" fill="#b3d4ff"/>
      <path id="Path-110" data-name="Path" d="M0,.444A.444.444,0,1,1,.444.888.444.444,0,0,1,0,.444" transform="translate(609.141 457.371)" fill="#b3d4ff"/>
      <path id="Path-111" data-name="Path" d="M0,.457A.457.457,0,1,1,.457.914.457.457,0,0,1,0,.457" transform="translate(608.617 441.997)" fill="#b3d4ff"/>
      <path id="Path-112" data-name="Path" d="M0,.444A.444.444,0,1,1,.444.888.444.444,0,0,1,0,.444" transform="translate(616.518 444.008)" fill="#b3d4ff"/>
      <path id="Path-113" data-name="Path" d="M0,.452A.452.452,0,1,1,.452.9.452.452,0,0,1,0,.452" transform="translate(611.951 456.073)" fill="#02193b"/>
      <path id="Path-114" data-name="Path" d="M0,.549A.55.55,0,1,1,.55,1.1.55.55,0,0,1,0,.549" transform="translate(605.565 444.18)" fill="#b3d4ff"/>
      <path id="Path-115" data-name="Path" d="M0,.511a.511.511,0,1,1,.511.511A.511.511,0,0,1,0,.511" transform="translate(604.688 455.399)" fill="#b3d4ff"/>
      <path id="Path-116" data-name="Path" d="M0,.488A.488.488,0,1,1,.488.976.488.488,0,0,1,0,.488" transform="translate(610.68 441.966)" fill="#b3d4ff"/>
      <path id="Path-117" data-name="Path" d="M0,.444A.444.444,0,1,1,.444.888.444.444,0,0,1,0,.444" transform="translate(618.481 451.115)" fill="#b3d4ff"/>
      <path id="Path-118" data-name="Path" d="M0,.5A.5.5,0,1,1,.5,1,.5.5,0,0,1,0,.5" transform="translate(604.181 450.36)" fill="#02193b"/>
      <path id="Path-119" data-name="Path" d="M0,.444A.444.444,0,1,1,.444.888.444.444,0,0,1,0,.444" transform="translate(615.485 441.305)" fill="#b3d4ff"/>
      <path id="Path-120" data-name="Path" d="M0,.461A.462.462,0,1,1,.462.923.462.462,0,0,1,0,.461" transform="translate(614.657 444.929)" fill="#b3d4ff"/>
      <path id="Path-121" data-name="Path" d="M0,.447A.447.447,0,1,1,.447.894.447.447,0,0,1,0,.447" transform="translate(619.865 458.409)" fill="#02193b"/>
      <path id="Path-122" data-name="Path" d="M0,.447A.447.447,0,1,1,.447.894.447.447,0,0,1,0,.447" transform="translate(607.102 457.753)" fill="#b3d4ff"/>
      <path id="Path-123" data-name="Path" d="M0,.454A.455.455,0,1,1,.455.909.455.455,0,0,1,0,.454" transform="translate(612.527 445.01)" fill="#b3d4ff"/>
      <path id="Path-124" data-name="Path" d="M0,.444A.444.444,0,1,1,.444.888.444.444,0,0,1,0,.444" transform="translate(621.516 449.754)" fill="#02193b"/>
      <path id="Path-125" data-name="Path" d="M0,.444A.444.444,0,1,1,.444.888.444.444,0,0,1,0,.444" transform="translate(622.679 450.833)" fill="#02193b"/>
      <path id="Path-126" data-name="Path" d="M0,.3a.3.3,0,1,1,.3.3A.3.3,0,0,1,0,.3" transform="translate(611.504 458.574)" fill="#b3d4ff"/>
      <path id="Path-127" data-name="Path" d="M0,.3A.3.3,0,1,1,.3.6.3.3,0,0,1,0,.3" transform="translate(609.972 458.008)" fill="#b3d4ff"/>
      <path id="Path-128" data-name="Path" d="M0,.3a.3.3,0,1,1,.3.3A.3.3,0,0,1,0,.3" transform="translate(606.062 447.623)" fill="#b3d4ff"/>
      <path id="Path-129" data-name="Path" d="M0,.3a.3.3,0,1,1,.3.3A.3.3,0,0,1,0,.3" transform="translate(604.13 458.261)" fill="#b3d4ff"/>
      <path id="Path-130" data-name="Path" d="M0,.465A.465.465,0,1,1,.465.93.465.465,0,0,1,0,.465" transform="translate(616.586 445.509)" fill="#2684ff"/>
      <path id="Path-131" data-name="Path" d="M0,.324A.325.325,0,1,1,.325.649.325.325,0,0,1,0,.324" transform="translate(614.017 458.341)" fill="#b3d4ff"/>
      <path id="Path-132" data-name="Path" d="M0,.328A.328.328,0,1,1,.328.656.328.328,0,0,1,0,.328" transform="translate(611.216 455.851)" fill="#b3d4ff"/>
      <path id="Path-133" data-name="Path" d="M0,.3a.3.3,0,1,1,.3.3A.3.3,0,0,1,0,.3" transform="translate(621.517 460.901)" fill="#b3d4ff"/>
      <path id="Path-134" data-name="Path" d="M0,.423A.423.423,0,1,1,.423.846.423.423,0,0,1,0,.423" transform="translate(607.3 453.958)" fill="#b3d4ff"/>
      <path id="Path-135" data-name="Path" d="M0,.3a.3.3,0,1,1,.3.3A.3.3,0,0,1,0,.3" transform="translate(608.839 454.051)" fill="#02193b"/>
      <path id="Path-136" data-name="Path" d="M0,.535a.535.535,0,1,1,.535.535A.535.535,0,0,1,0,.535" transform="translate(617.559 444.136)" fill="#b3d4ff"/>
      <path id="Path-137" data-name="Path" d="M0,.3a.3.3,0,1,1,.3.3A.3.3,0,0,1,0,.3" transform="translate(622.863 450.269)" fill="#2684ff"/>
      <path id="Path-138" data-name="Path" d="M0,.35A.35.35,0,1,1,.35.7.35.35,0,0,1,0,.35" transform="translate(614.673 460.409)" fill="#b3d4ff"/>
      <path id="Path-139" data-name="Path" d="M0,.35A.35.35,0,1,1,.35.7.35.35,0,0,1,0,.35" transform="translate(605.479 459.356)" fill="#b3d4ff"/>
      <path id="Path-140" data-name="Path" d="M0,.385A.385.385,0,1,1,.385.769.385.385,0,0,1,0,.385" transform="translate(618.591 460.655)" fill="#b3d4ff"/>
      <path id="Path-141" data-name="Path" d="M0,.379A.379.379,0,1,1,.379.758.379.379,0,0,1,0,.379" transform="translate(620.332 450.52)" fill="#b3d4ff"/>
      <path id="Path-142" data-name="Path" d="M0,.33A.33.33,0,1,1,.33.66.33.33,0,0,1,0,.33" transform="translate(606.035 453.721)" fill="#b3d4ff"/>
      <path id="Path-143" data-name="Path" d="M0,.508a.508.508,0,1,1,.508.508A.508.508,0,0,1,0,.508" transform="translate(608.62 459.18)" fill="#b3d4ff"/>
      <path id="Path-144" data-name="Path" d="M0,.33A.33.33,0,1,1,.33.66.33.33,0,0,1,0,.33" transform="translate(599.817 455.25)" fill="#b3d4ff"/>
      <path id="Path-145" data-name="Path" d="M0,.3a.3.3,0,1,1,.3.3A.3.3,0,0,1,0,.3" transform="translate(604.682 448.778)" fill="#02193b"/>
      <path id="Path-146" data-name="Path" d="M0,.3a.3.3,0,1,1,.3.3A.3.3,0,0,1,0,.3" transform="translate(601.216 449.862)" fill="#b3d4ff"/>
      <path id="Path-147" data-name="Path" d="M0,.353A.353.353,0,1,1,.353.706.353.353,0,0,1,0,.353" transform="translate(598.085 449.463)" fill="#2684ff"/>
      <path id="Path-148" data-name="Path" d="M0,.336A.337.337,0,1,1,.337.673.337.337,0,0,1,0,.336" transform="translate(603.804 449.462)" fill="#2684ff"/>
      <path id="Path-149" data-name="Path" d="M0,.3a.3.3,0,1,1,.3.3A.3.3,0,0,1,0,.3" transform="translate(600.374 448.881)" fill="#b3d4ff"/>
      <path id="Path-150" data-name="Path" d="M0,.413A.414.414,0,1,1,.414.827.414.414,0,0,1,0,.413" transform="translate(604.785 445.333)" fill="#b3d4ff"/>
      <path id="Path-151" data-name="Path" d="M0,.3a.3.3,0,1,1,.3.3A.3.3,0,0,1,0,.3" transform="translate(617.659 453.665)" fill="#b3d4ff"/>
      <path id="Path-152" data-name="Path" d="M0,.3a.3.3,0,1,1,.3.3A.3.3,0,0,1,0,.3" transform="translate(616.261 441.514)" fill="#b3d4ff"/>
      <path id="Path-153" data-name="Path" d="M0,.3a.3.3,0,1,1,.3.3A.3.3,0,0,1,0,.3" transform="translate(619.488 446.343)" fill="#b3d4ff"/>
      <path id="Path-154" data-name="Path" d="M0,.3a.3.3,0,1,1,.3.3A.3.3,0,0,1,0,.3" transform="translate(611.671 455.979)" fill="#b3d4ff"/>
      <path id="Path-155" data-name="Path" d="M0,.339A.34.34,0,1,1,.34.679.34.34,0,0,1,0,.339" transform="translate(609.284 441.767)" fill="#b3d4ff"/>
      <path id="Path-156" data-name="Path" d="M0,.374A.374.374,0,1,1,.374.747.374.374,0,0,1,0,.374" transform="translate(618.441 449.995)" fill="#b3d4ff"/>
      <path id="Path-157" data-name="Path" d="M0,.441A.442.442,0,1,1,.442.883.441.441,0,0,1,0,.441" transform="translate(617.733 447.947)" fill="#b3d4ff"/>
      <path id="Path-158" data-name="Path" d="M0,.3a.3.3,0,1,1,.3.3A.3.3,0,0,1,0,.3" transform="translate(612.434 459.365)" fill="#b3d4ff"/>
      <path id="Path-159" data-name="Path" d="M0,.308A.308.308,0,1,1,.308.617.308.308,0,0,1,0,.308" transform="translate(619.463 453.419)" fill="#b3d4ff"/>
      <path id="Path-160" data-name="Path" d="M0,.308A.308.308,0,1,1,.308.617.308.308,0,0,1,0,.308" transform="translate(620.354 462.364)" fill="#b3d4ff"/>
      <path id="Path-161" data-name="Path" d="M0,.3a.3.3,0,1,1,.3.3A.3.3,0,0,1,0,.3" transform="translate(606.533 458.694)" fill="#b3d4ff"/>
      <path id="Path-162" data-name="Path" d="M0,.3a.3.3,0,1,1,.3.3A.3.3,0,0,1,0,.3" transform="translate(617.409 462.708)" fill="#b3d4ff"/>
      <path id="Path-163" data-name="Path" d="M0,.322A.322.322,0,1,1,.322.643.322.322,0,0,1,0,.322" transform="translate(617.881 453.252)" fill="#b3d4ff"/>
      <path id="Path-164" data-name="Path" d="M0,.451A.451.451,0,1,1,.451.9.451.451,0,0,1,0,.451" transform="translate(604.915 448.09)" fill="#b3d4ff"/>
      <path id="Path-165" data-name="Path" d="M0,.494A.494.494,0,1,1,.494.988.494.494,0,0,1,0,.494" transform="translate(618.296 449.178)" fill="#02193b"/>
      <path id="Path-166" data-name="Path" d="M0,.494A.494.494,0,1,1,.494.987.494.494,0,0,1,0,.494" transform="translate(610.091 456.746)" fill="#02193b"/>
      <path id="Path-167" data-name="Path" d="M0,.494A.494.494,0,1,1,.494.987.494.494,0,0,1,0,.494" transform="translate(602.119 451.944)" fill="#2684ff"/>
      <path id="Path-168" data-name="Path" d="M0,.456A.456.456,0,1,1,.456.911.456.456,0,0,1,0,.456" transform="translate(614.789 441.159)" fill="#2684ff"/>
      <path id="Path-169" data-name="Path" d="M0,.4A.4.4,0,1,1,.4.8.4.4,0,0,1,0,.4" transform="translate(610.675 441.271)" fill="#2684ff"/>
      <path id="Path-170" data-name="Path" d="M0,.749A.75.75,0,1,1,.75,1.5.75.75,0,0,1,0,.749" transform="translate(609.623 441.469)" fill="#02193b"/>
      <path id="Path-171" data-name="Path" d="M0,.893a.893.893,0,1,1,.893.893A.893.893,0,0,1,0,.893" transform="translate(608.888 445.313)" fill="#2684ff"/>
      <path id="Path-172" data-name="Path" d="M0,.537a.537.537,0,1,1,.537.537A.537.537,0,0,1,0,.537" transform="translate(608.494 447.086)" fill="#02193b"/>
      <path id="Path-173" data-name="Path" d="M0,.451A.452.452,0,1,1,.452.9.451.451,0,0,1,0,.451" transform="translate(600.965 457.684)" fill="#02193b"/>
      <path id="Path-174" data-name="Path" d="M0,.616a.616.616,0,1,1,.616.616A.616.616,0,0,1,0,.616" transform="translate(606.663 444.055)" fill="#2684ff"/>
      <path id="Path-175" data-name="Path" d="M0,.616a.616.616,0,1,1,.616.616A.616.616,0,0,1,0,.616" transform="translate(605.523 442.729)" fill="#2684ff"/>
      <path id="Path-176" data-name="Path" d="M0,.616a.616.616,0,1,1,.616.616A.616.616,0,0,1,0,.616" transform="translate(602.204 448.375)" fill="#2684ff"/>
      <path id="Path-177" data-name="Path" d="M0,.517a.517.517,0,1,1,.517.517A.517.517,0,0,1,0,.517" transform="translate(599.52 447.211)" fill="#2684ff"/>
      <path id="Path-178" data-name="Path" d="M0,.522a.522.522,0,1,1,.522.522A.522.522,0,0,1,0,.522" transform="translate(616.282 455.058)" fill="#02193b"/>
      <path id="Path-179" data-name="Path" d="M0,.472A.472.472,0,1,1,.472.943.472.472,0,0,1,0,.472" transform="translate(609.255 459.598)" fill="#2684ff"/>
      <path id="Path-180" data-name="Path" d="M0,.562a.562.562,0,1,1,.562.562A.562.562,0,0,1,0,.562" transform="translate(619.306 450.976)" fill="#2684ff"/>
      <path id="Path-181" data-name="Path" d="M0,.5A.5.5,0,1,1,.5,1,.5.5,0,0,1,0,.5" transform="translate(603.919 452.156)" fill="#02193b"/>
      <path id="Path-182" data-name="Path" d="M0,.714a.715.715,0,1,1,.715.714A.715.715,0,0,1,0,.714" transform="translate(604.936 453.013)" fill="#b3d4ff"/>
      <path id="Path-183" data-name="Path" d="M0,.47a.471.471,0,1,1,.471.47A.471.471,0,0,1,0,.47" transform="translate(605.888 452.093)" fill="#2684ff"/>
      <path id="Path-184" data-name="Path" d="M0,.814a.814.814,0,1,1,.814.814A.814.814,0,0,1,0,.814" transform="translate(617.986 462.927)" fill="#2684ff"/>
      <path id="Path-185" data-name="Path" d="M0,.494A.494.494,0,1,1,.494.987.494.494,0,0,1,0,.494" transform="translate(620.101 462.955)" fill="#02193b"/>
      <path id="Path-186" data-name="Path" d="M0,.494A.494.494,0,1,1,.494.987.494.494,0,0,1,0,.494" transform="translate(603.97 459.004)" fill="#2684ff"/>
      <path id="Path-187" data-name="Path" d="M0,1.171A1.172,1.172,0,1,1,1.172,2.342,1.171,1.171,0,0,1,0,1.171" transform="translate(606.132 448.964)" fill="#02193b"/>
      <path id="Path-188" data-name="Path" d="M0,1.171A1.172,1.172,0,1,1,1.172,2.342,1.171,1.171,0,0,1,0,1.171" transform="translate(605.737 454.968)" fill="#02193b"/>
      <path id="Path-189" data-name="Path" d="M0,.792a.793.793,0,1,1,.793.792A.793.793,0,0,1,0,.792" transform="translate(606.756 450.514)" fill="#02193b"/>
      <path id="Path-190" data-name="Path" d="M0,.525a.525.525,0,1,1,.525.525A.525.525,0,0,1,0,.525" transform="translate(607.389 451.616)" fill="#02193b"/>
      <path id="Path-191" data-name="Path" d="M0,.669a.669.669,0,1,1,.669.669A.669.669,0,0,1,0,.669" transform="translate(616.07 459.96)" fill="#02193b"/>
      <path id="Path-192" data-name="Path" d="M0,.7a.7.7,0,1,1,.7.7A.7.7,0,0,1,0,.7" transform="translate(620.01 446.545)" fill="#02193b"/>
      <path id="Path-193" data-name="Path" d="M0,.694a.694.694,0,1,1,.694.694A.694.694,0,0,1,0,.694" transform="translate(618.958 449.065)" fill="#2684ff"/>
      <path id="Path-194" data-name="Path" d="M0,.336A.336.336,0,1,1,.336.672.336.336,0,0,1,0,.336" transform="translate(597 447.742)" fill="#b3d4ff"/>
      <path id="Path-195" data-name="Path" d="M0,.69a.691.691,0,1,1,.691.69A.691.691,0,0,1,0,.69" transform="translate(618.441 458.1)" fill="#02193b"/>
      <path id="Path-196" data-name="Path" d="M0,.753a.753.753,0,1,1,.753.753A.753.753,0,0,1,0,.753" transform="translate(612.246 459.702)" fill="#02193b"/>
      <path id="Path-197" data-name="Path" d="M0,.7a.7.7,0,1,1,.7.7A.7.7,0,0,1,0,.7" transform="translate(619.648 451.76)" fill="#02193b"/>
      <path id="Path-198" data-name="Path" d="M0,.723a.723.723,0,1,1,.723.723A.723.723,0,0,1,0,.723" transform="translate(615.425 444.576)" fill="#2684ff"/>
      <path id="Path-199" data-name="Path" d="M0,.668a.668.668,0,1,1,.668.668A.668.668,0,0,1,0,.668" transform="translate(617.457 459.787)" fill="#02193b"/>
      <path id="Path-200" data-name="Path" d="M0,.657a.657.657,0,1,1,.657.657A.657.657,0,0,1,0,.657" transform="translate(620.759 455.633)" fill="#2684ff"/>
      <path id="Path-201" data-name="Path" d="M0,.709a.709.709,0,1,1,.709.709A.709.709,0,0,1,0,.709" transform="translate(611.163 457.325)" fill="#02193b"/>
      <path id="Path-202" data-name="Path" d="M0,.666a.666.666,0,1,1,.666.666A.666.666,0,0,1,0,.666" transform="translate(619.023 462.371)" fill="#2684ff"/>
      <path id="Path-203" data-name="Path" d="M0,.464A.464.464,0,1,1,.464.928.464.464,0,0,1,0,.464" transform="translate(612.469 458.243)" fill="#2684ff"/>
      <path id="Path-204" data-name="Path" d="M0,.685a.685.685,0,1,1,.685.685A.685.685,0,0,1,0,.685" transform="translate(618.136 454.654)" fill="#2684ff"/>
      <path id="Path-205" data-name="Path" d="M0,.685a.686.686,0,1,1,.686.685A.685.685,0,0,1,0,.685" transform="translate(616.762 446.37)" fill="#2684ff"/>
      <path id="Path-206" data-name="Path" d="M0,.668a.669.669,0,1,1,.669.668A.669.669,0,0,1,0,.668" transform="translate(617.729 455.734)" fill="#02193b"/>
      <path id="Path-207" data-name="Path" d="M0,.7a.7.7,0,1,1,.7.7A.7.7,0,0,1,0,.7" transform="translate(622.002 448.74)" fill="#2684ff"/>
      <path id="Path-208" data-name="Path" d="M0,.705a.705.705,0,1,1,.705.705A.705.705,0,0,1,0,.705" transform="translate(618.359 444.525)" fill="#2684ff"/>
      <path id="Path-209" data-name="Path" d="M0,.449A.449.449,0,1,1,.449.9.449.449,0,0,1,0,.449" transform="translate(603.028 453.153)" fill="#02193b"/>
      <path id="Path-210" data-name="Path" d="M0,.666a.666.666,0,1,1,.666.666A.666.666,0,0,1,0,.666" transform="translate(616.489 444.633)" fill="#02193b"/>
      <path id="Path-211" data-name="Path" d="M0,.5A.5.5,0,1,1,.5,1,.5.5,0,0,1,0,.5" transform="translate(618.136 452.575)" fill="#02193b"/>
      <path id="Path-212" data-name="Path" d="M0,.453A.453.453,0,1,1,.453.906.453.453,0,0,1,0,.453" transform="translate(609.116 446.698)" fill="#02193b"/>
      <path id="Path-213" data-name="Path" d="M0,.5A.5.5,0,1,1,.5,1,.5.5,0,0,1,0,.5" transform="translate(618.065 448.49)" fill="#02193b"/>
      <path id="Path-214" data-name="Path" d="M0,.444A.444.444,0,1,1,.444.888.444.444,0,0,1,0,.444" transform="translate(621.474 450.905)" fill="#02193b"/>
      <path id="Path-215" data-name="Path" d="M0,.459A.46.46,0,1,1,.46.919.459.459,0,0,1,0,.459" transform="translate(614.078 445.299)" fill="#2684ff"/>
      <path id="Path-216" data-name="Path" d="M0,.451A.452.452,0,1,1,.452.9.451.451,0,0,1,0,.451" transform="translate(603.83 447.827)" fill="#02193b"/>
      <path id="Path-217" data-name="Path" d="M0,.483A.483.483,0,1,1,.483.966.483.483,0,0,1,0,.483" transform="translate(620.803 449.029)" fill="#2684ff"/>
      <path id="Path-218" data-name="Path" d="M0,.444A.444.444,0,1,1,.444.888.444.444,0,0,1,0,.444" transform="translate(602.363 457.141)" fill="#02193b"/>
      <path id="Path-219" data-name="Path" d="M0,.446A.447.447,0,1,1,.447.893.447.447,0,0,1,0,.446" transform="translate(613.181 460.348)" fill="#02193b"/>
      <path id="Path-220" data-name="Path" d="M0,.478A.479.479,0,1,1,.479.956.478.478,0,0,1,0,.478" transform="translate(620.008 463.54)" fill="#02193b"/>
      <path id="Path-221" data-name="Path" d="M0,.444A.444.444,0,1,1,.444.888.444.444,0,0,1,0,.444" transform="translate(616.423 460.795)" fill="#02193b"/>
      <path id="Path-222" data-name="Path" d="M0,.456A.456.456,0,1,1,.456.912.456.456,0,0,1,0,.456" transform="translate(620.171 458.973)" fill="#02193b"/>
      <path id="Path-223" data-name="Path" d="M0,.444A.444.444,0,1,1,.444.888.444.444,0,0,1,0,.444" transform="translate(604.137 444.08)" fill="#b3d4ff"/>
      <path id="Path-224" data-name="Path" d="M0,.444A.444.444,0,1,1,.444.888.444.444,0,0,1,0,.444" transform="translate(617.677 463.005)" fill="#02193b"/>
      <path id="Path-225" data-name="Path" d="M0,.456A.456.456,0,1,1,.456.912.456.456,0,0,1,0,.456" transform="translate(621.205 460.783)" fill="#02193b"/>
      <path id="Path-226" data-name="Path" d="M0,.437A.437.437,0,1,1,.437.874.437.437,0,0,1,0,.437" transform="translate(603.681 454.472)" fill="#2684ff"/>
      <path id="Path-227" data-name="Path" d="M0,.329A.329.329,0,1,1,.329.658.329.329,0,0,1,0,.329" transform="translate(616.698 461.444)" fill="#02193b"/>
      <path id="Path-228" data-name="Path" d="M0,.393A.393.393,0,1,1,.393.785.393.393,0,0,1,0,.393" transform="translate(622.767 451.481)" fill="#02193b"/>
      <path id="Path-229" data-name="Path" d="M0,.3a.3.3,0,1,1,.3.3A.3.3,0,0,1,0,.3" transform="translate(622.902 452.091)" fill="#02193b"/>
      <path id="Path-230" data-name="Path" d="M0,.3A.3.3,0,1,1,.3.6.3.3,0,0,1,0,.3" transform="translate(598.295 447.415)" fill="#02193b"/>
      <path id="Path-231" data-name="Path" d="M0,.326A.327.327,0,1,1,.326.653.326.326,0,0,1,0,.326" transform="translate(613.414 457.912)" fill="#02193b"/>
      <path id="Path-232" data-name="Path" d="M0,.347A.347.347,0,1,1,.347.694.347.347,0,0,1,0,.347" transform="translate(613.888 460.506)" fill="#02193b"/>
      <path id="Path-233" data-name="Path" d="M0,.3a.3.3,0,1,1,.3.3A.3.3,0,0,1,0,.3" transform="translate(609.223 458.402)" fill="#2684ff"/>
      <path id="Path-234" data-name="Path" d="M0,.3a.3.3,0,1,1,.3.3A.3.3,0,0,1,0,.3" transform="translate(606.996 459.243)" fill="#02193b"/>
      <path id="Path-235" data-name="Path" d="M0,.376A.377.377,0,1,1,.377.753.377.377,0,0,1,0,.376" transform="translate(614.742 445.548)" fill="#2684ff"/>
      <path id="Path-236" data-name="Path" d="M0,.31A.31.31,0,1,1,.31.62.31.31,0,0,1,0,.31" transform="translate(617.114 462.198)" fill="#02193b"/>
      <path id="Path-237" data-name="Path" d="M0,.3a.3.3,0,1,1,.3.3A.3.3,0,0,1,0,.3" transform="translate(619.192 452.399)" fill="#2684ff"/>
      <path id="Path-238" data-name="Path" d="M0,.475A.475.475,0,1,1,.475.95.475.475,0,0,1,0,.475" transform="translate(620.511 456.622)" fill="#2684ff"/>
      <path id="Path-239" data-name="Path" d="M0,.312A.312.312,0,1,1,.312.623.312.312,0,0,1,0,.312" transform="translate(619.921 457.934)" fill="#02193b"/>
      <path id="Path-240" data-name="Path" d="M0,.343A.343.343,0,1,1,.343.686.343.343,0,0,1,0,.343" transform="translate(621.174 460.312)" fill="#02193b"/>
      <path id="Path-241" data-name="Path" d="M0,.343A.343.343,0,1,1,.343.686.343.343,0,0,1,0,.343" transform="translate(619.802 464.018)" fill="#02193b"/>
      <path id="Path-242" data-name="Path" d="M0,.3a.3.3,0,1,1,.3.3A.3.3,0,0,1,0,.3" transform="translate(612.723 456.154)" fill="#02193b"/>
      <path id="Path-243" data-name="Path" d="M0,.346A.346.346,0,1,1,.346.691.346.346,0,0,1,0,.346" transform="translate(615.304 456.725)" fill="#02193b"/>
      <path id="Path-244" data-name="Path" d="M0,.2A.2.2,0,1,1,.2.4.2.2,0,0,1,0,.2" transform="translate(613.451 458.634)" fill="#2684ff"/>
      <path id="Path-245" data-name="Path" d="M0,.24A.24.24,0,1,1,.24.48.24.24,0,0,1,0,.24" transform="translate(620.771 463.778)" fill="#2684ff"/>
      <path id="Path-246" data-name="Path" d="M0,.2A.2.2,0,1,1,.2.4.2.2,0,0,1,0,.2" transform="translate(613.232 456.179)" fill="#02193b"/>
      <path id="Path-247" data-name="Path" d="M0,.2A.2.2,0,1,1,.2.4.2.2,0,0,1,0,.2" transform="translate(615.807 457.173)" fill="#02193b"/>
      <path id="Path-248" data-name="Path" d="M0,.222A.222.222,0,1,1,.222.444.222.222,0,0,1,0,.222" transform="translate(618.333 452.178)" fill="#02193b"/>
      <path id="Path-249" data-name="Path" d="M0,.2A.2.2,0,1,1,.2.4.2.2,0,0,1,0,.2" transform="translate(619.646 464.479)" fill="#02193b"/>
      <path id="Path-250" data-name="Path" d="M0,.274A.274.274,0,1,1,.274.549.274.274,0,0,1,0,.274" transform="translate(604.13 457.155)" fill="#02193b"/>
      <path id="Path-251" data-name="Path" d="M0,.224A.224.224,0,1,1,.224.448.224.224,0,0,1,0,.224" transform="translate(620.312 453.195)" fill="#2684ff"/>
      <path id="Path-252" data-name="Path" d="M0,.23A.23.23,0,1,1,.23.46.23.23,0,0,1,0,.23" transform="translate(622.929 452.606)" fill="#02193b"/>
      <path id="Path-253" data-name="Path" d="M0,.174A.174.174,0,1,1,.174.349.174.174,0,0,1,0,.174" transform="translate(616.853 461.947)" fill="#2684ff"/>
      <path id="Path-254" data-name="Path" d="M0,.162A.162.162,0,1,1,.162.324.162.162,0,0,1,0,.162" transform="translate(619.866 463.913)" fill="#2684ff"/>
      <path id="Path-255" data-name="Path" d="M0,.175A.175.175,0,1,1,.175.349.175.175,0,0,1,0,.175" transform="translate(618.419 451.781)" fill="#02193b"/>
      <path id="Path-256" data-name="Path" d="M0,.174A.174.174,0,1,1,.174.348.174.174,0,0,1,0,.174" transform="translate(621.227 460.059)" fill="#02193b"/>
      <path id="Path-257" data-name="Path" d="M0,.233A.233.233,0,1,1,.233.466.233.233,0,0,1,0,.233" transform="translate(616.068 457.868)" fill="#02193b"/>
      <path id="Path-258" data-name="Path" d="M0,.218A.219.219,0,1,1,.218.437.218.218,0,0,1,0,.218" transform="translate(619.35 461.225)" fill="#02193b"/>
      <path id="Path-259" data-name="Path" d="M0,.191A.191.191,0,1,1,.191.382.191.191,0,0,1,0,.191" transform="translate(617.282 461.616)" fill="#02193b"/>
      <path id="Path-260" data-name="Path" d="M0,.681a.681.681,0,1,1,.681.681A.681.681,0,0,1,0,.681" transform="translate(619.991 445.028)" fill="#02193b"/>
      <path id="Path-261" data-name="Path" d="M0,.3A.3.3,0,1,1,.3.6.3.3,0,0,1,0,.3" transform="translate(620.736 444.595)" fill="#2684ff"/>
      <path id="Path-262" data-name="Path" d="M0,.275A.275.275,0,1,1,.275.55.275.275,0,0,1,0,.275" transform="translate(621.057 444.98)" fill="#2684ff"/>
      <path id="Path-263" data-name="Path" d="M0,.149A.16.16,0,1,1,.15.32.16.16,0,0,1,0,.149" transform="translate(621.778 445.774)" fill="#02193b"/>
      <path id="Path-264" data-name="Path" d="M0,.2A.2.2,0,1,1,.2.4.2.2,0,0,1,0,.2" transform="translate(621.539 445.509)" fill="#02193b"/>
      <path id="Path-265" data-name="Path" d="M0,.132A.132.132,0,1,1,.132.264.132.132,0,0,1,0,.132" transform="translate(621.938 445.974)" fill="#02193b"/>
      <path id="Path-266" data-name="Path" d="M0,.74a.741.741,0,1,1,.741.74A.74.74,0,0,1,0,.74" transform="translate(618.883 443.321)" fill="#02193b"/>
      <path id="Path-267" data-name="Path" d="M0,.481A.482.482,0,1,1,.482.963.481.481,0,0,1,0,.481" transform="translate(618.766 442.993)" fill="#2684ff"/>
      <path id="Path-268" data-name="Path" d="M0,.471A.471.471,0,1,1,.471.942.471.471,0,0,1,0,.471" transform="translate(616.014 445.925)" fill="#b3d4ff"/>
      <path id="Path-269" data-name="Path" d="M0,.444A.444.444,0,1,1,.444.888.444.444,0,0,1,0,.444" transform="translate(615.301 445.659)" fill="#02193b"/>
      <path id="Path-270" data-name="Path" d="M0,.2A.2.2,0,1,1,.2.4.2.2,0,0,1,0,.2" transform="translate(615.816 446.322)" fill="#02193b"/>
      <path id="Path-271" data-name="Path" d="M0,.157A.157.157,0,1,1,.157.313.157.157,0,0,1,0,.157" transform="translate(616.271 446.678)" fill="#02193b"/>
      <path id="Path-272" data-name="Path" d="M0,.132A.132.132,0,1,1,.132.264.132.132,0,0,1,0,.132" transform="translate(616.469 446.86)" fill="#02193b"/>
      <path id="Path-273" data-name="Path" d="M0,.2a.2.2,0,1,1,.2.2A.2.2,0,0,1,0,.2" transform="translate(616.065 446.444)" fill="#02193b"/>
      <path id="Path-274" data-name="Path" d="M0,.5a.5.5,0,1,1,.5.5A.5.5,0,0,1,0,.5" transform="translate(621.167 451.555)" fill="#2684ff"/>
      <path id="Path-275" data-name="Path" d="M0,.474A.475.475,0,1,1,.475.949.475.475,0,0,1,0,.474" transform="translate(620.494 452.32)" fill="#b3d4ff"/>
      <path id="Path-276" data-name="Path" d="M0,.475A.475.475,0,1,1,.475.949.475.475,0,0,1,0,.475" transform="translate(620.625 461.683)" fill="#b3d4ff"/>
      <path id="Path-277" data-name="Path" d="M0,.4A.4.4,0,1,1,.4.79.4.4,0,0,1,0,.4" transform="translate(620.419 461.035)" fill="#02193b"/>
      <path id="Path-278" data-name="Path" d="M0,.356A.356.356,0,1,1,.356.712.356.356,0,0,1,0,.356" transform="translate(619.876 461.486)" fill="#02193b"/>
      <path id="Path-279" data-name="Path" d="M0,.135A.135.135,0,1,1,.135.27.135.135,0,0,1,0,.135" transform="translate(615.84 457.528)" fill="#02193b"/>
      <path id="Path-280" data-name="Path" d="M0,.3a.3.3,0,1,1,.3.3A.3.3,0,0,1,0,.3" transform="translate(609.992 446.455)" fill="#02193b"/>
      <path id="Path-281" data-name="Path" d="M0,.669a.669.669,0,1,1,.669.669A.669.669,0,0,1,0,.669" transform="translate(607.413 448.279)" fill="#2684ff"/>
      <path id="Path-282" data-name="Path" d="M0,.569a.569.569,0,1,1,.569.569A.569.569,0,0,1,0,.569" transform="translate(609.343 444.422)" fill="#02193b"/>
      <path id="Path-283" data-name="Path" d="M0,.417A.417.417,0,1,1,.417.833.417.417,0,0,1,0,.417" transform="translate(610.706 445.71)" fill="#2684ff"/>
      <path id="Path-284" data-name="Path" d="M0,.686a.686.686,0,1,1,.686.686A.686.686,0,0,1,0,.686" transform="translate(605.201 449.13)" fill="#b3d4ff"/>
      <path id="Path-285" data-name="Path" d="M0,.554a.554.554,0,1,1,.554.554A.554.554,0,0,1,0,.554" transform="translate(604.721 452.312)" fill="#b3d4ff"/>
      <path id="Path-286" data-name="Path" d="M52.845,16.276c-.376,0-.673,0-.9-.022v-.785h.874c1.095,0,1.9-.748,2.467-2.286.111-.277.254-.652.4-1.054L51.028.269h1.009l2.378,6.12c.374.948.947,2.487,1.75,4.663.26-.749.6-1.7,1.1-3.076l0-.013.429-1.193.129-.359L60.09.269H61.1L56.164,13.384C55.4,15.411,54.41,16.276,52.845,16.276Zm-7.379-4.17a4.739,4.739,0,0,1-3.92-1.808,6.883,6.883,0,0,1-1.262-4.245,6.98,6.98,0,0,1,1.229-4.237A5.057,5.057,0,0,1,49.265,1.8a6.91,6.91,0,0,1,1.225,4.206v.337H41.226a5.717,5.717,0,0,0,1.181,3.606,3.918,3.918,0,0,0,3.081,1.3,3.713,3.713,0,0,0,3.835-3.228h.942A4.694,4.694,0,0,1,45.465,12.106ZM45.4.852A3.8,3.8,0,0,0,42.449,2.1a5.53,5.53,0,0,0-1.2,3.4h8.276C49.361,2.587,47.818.852,45.4.852ZM15.23,12.106a4.04,4.04,0,0,1-3.048-1.121A4.468,4.468,0,0,1,11.1,7.779V.269h.92v7.42a3.759,3.759,0,0,0,.875,2.676,3.283,3.283,0,0,0,2.489.911,3.627,3.627,0,0,0,2.692-1.143A4.824,4.824,0,0,0,19.2,6.7V.269h.92V11.837h-.9V9.393A4.171,4.171,0,0,1,15.23,12.106Zm-10.52,0C1.836,12.106.164,10.752,0,8.295H.942c.157,1.993,1.425,3,3.768,3a4.685,4.685,0,0,0,2.644-.608,2.093,2.093,0,0,0,.878-1.835c0-1.333-.83-2-2.961-2.376l-1.278-.2A5.569,5.569,0,0,1,1.242,5.2,2.649,2.649,0,0,1,.359,3.071C.359,1.148,1.893,0,4.463,0A5.248,5.248,0,0,1,7.7.858,3.368,3.368,0,0,1,8.927,3.43H7.985C7.82,1.64,6.7.807,4.463.807c-2.024,0-3.185.817-3.185,2.242,0,1.345.821,1.995,3.028,2.4l1.256.2c2.531.452,3.612,1.4,3.612,3.161a2.85,2.85,0,0,1-1.223,2.463A5.629,5.629,0,0,1,4.71,12.106ZM35.1,11.837h-.987L29.428.269h.987L32.9,6.479c.695,1.736,1.284,3.255,1.7,4.394L34.951,10l.111-.283.129-.328.033-.084.084-.214,0-.01c.3-.76.628-1.6,1.024-2.62L38.826.269h.987L35.1,11.836Zm-12.292,0V.269h.875V2.981A4.226,4.226,0,0,1,27.858.134a6.142,6.142,0,0,1,.7.022v.874a4.862,4.862,0,0,0-.628-.022,4.09,4.09,0,0,0-3.107,1.208,4.625,4.625,0,0,0-1.088,3.209v6.411h-.92Z" transform="translate(628.618 447.029)" fill="#080c14"/>
      <path id="Path-287" data-name="Path" d="M36.6,12a5.623,5.623,0,0,1-3.616-1.038,3.7,3.7,0,0,1-1.305-3.01H33.82c.015,1.563.917,2.29,2.84,2.29,1.5,0,2.323-.59,2.323-1.661,0-.881-.572-1.284-2.356-1.661l-.969-.194A5.472,5.472,0,0,1,32.886,5.5a2.98,2.98,0,0,1-.922-2.261c0-2,1.632-3.242,4.26-3.242A5.371,5.371,0,0,1,39.7.986,3.472,3.472,0,0,1,40.9,3.677H38.79a1.864,1.864,0,0,0-.643-1.444,3.021,3.021,0,0,0-1.89-.476,2.67,2.67,0,0,0-1.541.377,1.2,1.2,0,0,0-.524,1.042c0,.931.566,1.358,2.243,1.693l1,.193a6.111,6.111,0,0,1,2.915,1.205,2.78,2.78,0,0,1,.894,2.2,3.13,3.13,0,0,1-1.234,2.612A5.676,5.676,0,0,1,36.6,12ZM4.922,12A5.622,5.622,0,0,1,1.305,10.96,3.7,3.7,0,0,1,0,7.95H2.146c.015,1.563.917,2.29,2.84,2.29,1.5,0,2.323-.59,2.323-1.661,0-.881-.572-1.285-2.356-1.661l-.969-.194A5.475,5.475,0,0,1,1.212,5.5,2.981,2.981,0,0,1,.29,3.242C.29,1.242,1.923,0,4.55,0A5.368,5.368,0,0,1,8.021.986,3.471,3.471,0,0,1,9.229,3.677H7.116a1.865,1.865,0,0,0-.643-1.444,3.023,3.023,0,0,0-1.89-.476,2.673,2.673,0,0,0-1.541.377,1.2,1.2,0,0,0-.524,1.042c0,.93.566,1.358,2.243,1.693l1,.193A6.108,6.108,0,0,1,8.675,6.269a2.78,2.78,0,0,1,.894,2.2,3.131,3.131,0,0,1-1.234,2.612A5.676,5.676,0,0,1,4.922,12Zm42.226-.016c-3.011,0-4.808-1.706-4.808-4.564V.258h2.178V7.435A2.7,2.7,0,0,0,45.2,9.424a3.15,3.15,0,0,0,3.888,0,2.7,2.7,0,0,0,.686-1.989V.258h2.178v7.16a4.421,4.421,0,0,1-1.285,3.389A5.06,5.06,0,0,1,47.148,11.982Zm-24.413-.241h-2.1V.258h2.421l3.211,5.112C27.235,6.936,27.9,8.065,28.3,8.822c-.045-1.649-.065-3.417-.065-5.564v-3h2.1V11.74H27.914L24.719,6.628c-1.074-1.684-1.707-2.806-2.049-3.451.045,1.267.064,2.983.064,5.564v3Zm41.081,0v-3.5c0-2.177.02-3.986.064-5.693-.237.811-.531,1.7-.871,2.645l-2.323,6.547H58.894L56.555,5.193C56.189,4.114,55.9,3.257,55.7,2.58c.044,1.681.064,3.479.064,5.66v3.5h-2.1V.258h3.163l1.985,5.58c.235.716.462,1.44.756,2.384l.182.583.046.146c.35-1.2.693-2.283,1.017-3.225L62.735.258H65.9V11.74Zm-44.55,0H10.827V.258H19.3V2.209H13.005V4.919h5.7V6.789h-5.7v3h6.261V11.74Z" transform="translate(690.396 447.125)" fill="#080c14"/>
    </g>
  </g>
</svg>
