<svg xmlns="http://www.w3.org/2000/svg" width="12" height="12" viewBox="0 0 12 12">
  <g id="Group_4210" data-name="Group 4210" transform="translate(-328 -447)">
    <rect id="Rectangle" width="12" height="12" transform="translate(328 447)" fill="none"/>
    <g id="Group_4209" data-name="Group 4209">
      <path id="Shape" d="M.081,3.744,3.1.105a.317.317,0,0,1,.472,0l3,3.638a.316.316,0,0,1-.236.527H.316A.316.316,0,0,1,.081,3.744Z" transform="translate(330.675 447.977)" fill="#0052cc"/>
      <path id="Shape-2" data-name="Shape" d="M.081-3.744,3.1-.105a.317.317,0,0,0,.472,0l3-3.638a.316.316,0,0,0-.236-.527H.316A.316.316,0,0,0,.081-3.744Z" transform="translate(330.675 458.023)" fill="#dfe1e6"/>
    </g>
  </g>
</svg>
