<svg xmlns="http://www.w3.org/2000/svg" width="35" height="24" viewBox="0 0 35 24"><defs><style>.a,.c{fill:#fff;}.a{stroke:#d5d5d5;}.b{fill:#0079be;}</style></defs><g transform="translate(0.5 0.5)"><rect class="a" width="34" height="23" rx="4"/><g transform="translate(7.251 3.776)"><path class="b" d="M11.251,15.216c4.159.02,7.954-3.392,7.954-7.542A7.77,7.77,0,0,0,11.251,0H7.672A7.5,7.5,0,0,0,0,7.674a7.623,7.623,0,0,0,7.672,7.542Z" transform="translate(0 0)"/><path class="c" d="M7.689.629a6.965,6.965,0,1,0,6.964,6.965A6.965,6.965,0,0,0,7.689.629ZM3.276,7.594a4.422,4.422,0,0,1,2.833-4.12v8.239A4.42,4.42,0,0,1,3.276,7.594Zm5.993,4.121V3.474a4.412,4.412,0,0,1,0,8.241Z" transform="translate(0 0)"/></g></g></svg>