<svg xmlns="http://www.w3.org/2000/svg" xmlns:xlink="http://www.w3.org/1999/xlink" width="35" height="24" viewBox="0 0 35 24"><defs><style>.a{fill:#fff;stroke:#d5d5d5;}.b{fill:#231f20;}.c{fill:url(#a);}.d{opacity:0.65;fill:url(#b);}</style><linearGradient id="a" x1="0.756" y1="0.901" x2="0.41" y2="0.359" gradientUnits="objectBoundingBox"><stop offset="0" stop-color="#f89f21"/><stop offset="0.25" stop-color="#f79a23"/><stop offset="0.533" stop-color="#f78e22"/><stop offset="0.62" stop-color="#f68721"/><stop offset="0.723" stop-color="#f48220"/><stop offset="1" stop-color="#f27623"/></linearGradient><linearGradient id="b" x1="0.701" y1="0.893" x2="0.195" y2="-0.096" gradientUnits="objectBoundingBox"><stop offset="0" stop-color="#f68721" stop-opacity="0"/><stop offset="0.359" stop-color="#e27027" stop-opacity="0.271"/><stop offset="0.703" stop-color="#d4612c" stop-opacity="0.529"/><stop offset="0.982" stop-color="#d15d2d" stop-opacity="0.741"/></linearGradient></defs><g transform="translate(0.5 0.5)"><rect class="a" width="34" height="23" rx="4"/><g transform="translate(2.752 9.162)"><path class="b" d="M1.4.177H.045V4.9H1.389a2.456,2.456,0,0,0,1.684-.545A2.368,2.368,0,0,0,3.93,2.54,2.345,2.345,0,0,0,1.4.177ZM2.472,3.722a1.745,1.745,0,0,1-1.26.375H.965V.976h.247a1.706,1.706,0,0,1,1.26.382,1.589,1.589,0,0,1,.51,1.175A1.619,1.619,0,0,1,2.472,3.722Z" transform="translate(-0.045 -0.042)"/><rect class="b" width="1" height="4.72" transform="translate(4.309 0.135)"/><path class="b" d="M7.526,1.988c-.552-.2-.715-.339-.715-.594,0-.3.289-.523.686-.523a.952.952,0,0,1,.742.382L8.721.622A2.065,2.065,0,0,0,7.334.1,1.386,1.386,0,0,0,5.862,1.451c0,.65.3.983,1.161,1.294a3.668,3.668,0,0,1,.637.269.565.565,0,0,1,.276.488.673.673,0,0,1-.715.666,1.089,1.089,0,0,1-1-.629l-.595.573a1.835,1.835,0,0,0,1.634.9,1.522,1.522,0,0,0,1.628-1.55C8.883,2.711,8.573,2.371,7.526,1.988Zm1.648.552A2.444,2.444,0,0,0,11.665,5a2.547,2.547,0,0,0,1.154-.275V3.644a1.472,1.472,0,0,1-1.111.517,1.543,1.543,0,0,1-1.585-1.628A1.569,1.569,0,0,1,11.666.912a1.543,1.543,0,0,1,1.154.531V.36A2.35,2.35,0,0,0,11.687.07,2.483,2.483,0,0,0,9.174,2.54Z" transform="translate(-0.045 -0.042)"/><path class="b" d="M20.12,3.347,18.861.177H17.855l2,4.841h.5L22.393.177h-1Z" transform="translate(-0.045 -0.042)"/><path class="b" d="M22.809,4.9H25.42V4.1H23.729V2.824h1.629v-.8H23.729V.976H25.42v-.8H22.809Z" transform="translate(-0.045 -0.042)"/><path class="b" d="M29.066,1.57c0-.884-.609-1.393-1.67-1.393H26.03V4.9h.92V3h.12l1.274,1.9h1.132L27.99,2.908A1.255,1.255,0,0,0,29.066,1.57Zm-1.847.78H26.95V.92h.283c.573,0,.885.24.885.7C28.118,2.094,27.807,2.35,27.219,2.35Z" transform="translate(-0.045 -0.042)"/><g transform="translate(13.076)"><circle class="c" cx="2.511" cy="2.511" r="2.511"/><circle class="d" cx="2.511" cy="2.511" r="2.511"/></g></g></g></svg>