<svg xmlns="http://www.w3.org/2000/svg" xmlns:xlink="http://www.w3.org/1999/xlink" width="265" height="128" viewBox="0 0 265 128">
  <defs>
    <style>
      .cls-1 {
        fill: #fff;
      }

      .cls-2 {
        clip-path: url(#clip-path);
      }

      .cls-3 {
        fill: #dfe1f7;
      }

      .cls-4 {
        fill: #b1b2f3;
      }

      .cls-5 {
        fill: #112b46;
      }

      .cls-6 {
        fill: #6262a0;
      }

      .cls-7 {
        fill: #56548c;
      }

      .cls-8 {
        fill: #02193b;
      }

      .cls-9 {
        fill: #2980ff;
      }

      .cls-10 {
        fill: #bcbec0;
      }

      .cls-11 {
        fill: #808285;
      }

      .cls-12 {
        fill: #d1d3d4;
      }

      .cls-13 {
        fill: #d4d6d8;
      }

      .cls-14 {
        fill: #d1ae88;
      }

      .cls-15 {
        fill: #e6e7e8;
      }

      .cls-16 {
        fill: #b7babc;
      }

      .cls-17 {
        fill: #e8c8a1;
      }

      .cls-18 {
        fill: #dbdcdd;
      }

      .cls-19 {
        fill: #a1cfe2;
      }

      .cls-20 {
        fill: #b79370;
      }

      .cls-21 {
        opacity: 0.41;
      }

      .cls-22 {
        fill: #0b5fff;
      }

      .cls-23 {
        fill: #f4dec6;
      }
    </style>
    <clipPath id="clip-path">
      <rect id="Rectangle_8004" data-name="Rectangle 8004" class="cls-1" width="265" height="128" rx="5" transform="translate(140 1194)"/>
    </clipPath>
  </defs>
  <g id="Mask_Group_20" data-name="Mask Group 20" class="cls-2" transform="translate(-140 -1194)">
    <g id="Designed_By_Freepik" data-name="Designed By Freepik" transform="translate(98.16 1188.644)">
      <path id="Path_7487" data-name="Path 7487" class="cls-3" d="M151.026,102.713s18.643,13.7,29.252-7.791C160.383,81.53,151.026,102.713,151.026,102.713Z"/>
      <path id="Path_7488" data-name="Path 7488" class="cls-1" d="M160.261,92.852l4.383,2.574c1.113.661,2.209,1.3,3.061,1.739l1.026.591h0l-9.061,2.417-4.713-2.783-.157.243,4.539,2.643-7.635,2.035v.278l11.93-3.165-3.913,6.73.261.139,4.052-6.957,7.878-1.948-2.765,7.252.261.1,2.765-7.53,5.217-1.391v-.278l-8.174,2.174h-.139c-.661-.348-2.835-1.6-4.835-2.783-1.009-.574-1.965-1.148-2.661-1.565l-.852-.5-.313-.191Z"/>
      <path id="Path_7489" data-name="Path 7489" class="cls-3" d="M116.7,101.513s-18.643,13.722-29.252-7.791C107.357,80.348,116.7,101.513,116.7,101.513Z"/>
      <path id="Path_7490" data-name="Path 7490" class="cls-1" d="M107.478,91.652l-4.4,2.591-3.043,1.739-1.026.574h0l8.974,2.574,4.8-2.783.157.261-4.557,2.522,7.652,2.035v.278L104.1,98.278l3.9,6.73-.243.139L103.7,98.191,95.9,96.1l2.765,7.252-.261.1-2.835-7.443-5.217-1.374v-.3l8.139,2.174h.139c.661-.348,2.835-1.617,4.835-2.783l2.626-1.565.852-.487.313-.191Z"/>
      <path id="Path_7491" data-name="Path 7491" class="cls-3" d="M77.826,23.287s-30.748,9.5-15.5,39.13C93.739,51.252,77.826,23.287,77.826,23.287Z"/>
      <path id="Path_7492" data-name="Path 7492" class="cls-1" d="M81.217,41.739l-6.435,2.783-4.5,1.948-1.5.661h-.1l4.783-12.174L80.539,31.9l-.157-.383-6.713,2.9,3.965-10.07-.365-.157L70.957,40.1l-4.3-9.913-.383.157,4.47,10.3L66.609,51.078,60.87,42l-.33.209L66.5,51.548,63.774,58.5l.365.157,4.313-10.887.209-.1c.922-.452,4.139-1.826,7.1-3.1l3.965-1.739,1.252-.539.487-.191Z"/>
      <path id="Path_7493" data-name="Path 7493" class="cls-4" d="M42.348,60.7S35.617,87.774,64.47,89.739C70.243,61.409,42.348,60.7,42.348,60.7Z"/>
      <path id="Path_7494" data-name="Path 7494" class="cls-1" d="M57.583,66.452l-.87,6.087c-.209,1.53-.435,3.061-.574,4.209-.087.574-.139,1.061-.174,1.409v.1L49.113,69.27,50,62.609h-.348L48.8,68.887l-5.774-7.6-.278.209,9.009,11.843-9.3-1.252v.348l9.635,1.3L58,81.5l-9.3.243v.348l9.617-.261,3.913,5.217.278-.209-6.157-8.087v-.191c0-.9.5-3.9.887-6.661.191-1.391.383-2.713.539-3.7a7.29,7.29,0,0,1,.157-1.165v-.452Z"/>
      <path id="Path_7495" data-name="Path 7495" class="cls-3" d="M228.922,67.913S205.9,65.565,207.67,89.5C231.617,90.9,228.922,67.913,228.922,67.913Z"/>
      <path id="Path_7496" data-name="Path 7496" class="cls-1" d="M225.983,81.1h-9.861l6.487-6.626h5.548v-.3h-5.217l5.548-5.635-.209-.209-8.7,8.8V69.339h-.3v8.07l-5.67,5.757-1.3-7.652h-.278l1.339,7.843L209.6,87.183l.209.209,5.913-6h10.191Z"/>
      <path id="Path_7497" data-name="Path 7497" class="cls-5" d="M195.739,107.2v2.539L185.165,115.6v-2.522Z"/>
      <path id="Path_7498" data-name="Path 7498" class="cls-6" d="M185.165,113.078V115.6l-13.791-4.591V108.47Z"/>
      <path id="Path_7499" data-name="Path 7499" class="cls-7" d="M195.739,107.2l-10.574,5.878-13.791-4.609,7.635-4.122v1.27l8.278,2.435,2.9-1.27v-1.426Z"/>
      <path id="Path_7500" data-name="Path 7500" class="cls-5" d="M190.191,105.357v1.426l-2.9,1.27V99.217l2.9.157Z"/>
      <path id="Path_7501" data-name="Path 7501" class="cls-6" d="M187.287,99.217v8.835l-8.278-2.435v-6.87Z"/>
      <path id="Path_7502" data-name="Path 7502" class="cls-8" d="M206.191,99.913l-4.5,1.791V26.817l4.5.87Z"/>
      <path id="Path_7503" data-name="Path 7503" class="cls-7" d="M156.33,97.5V44.157l45.357-17.339V101.7Z"/>
      <path id="Path_7504" data-name="Path 7504" class="cls-9" d="M199.861,29.774V97.061l-41.7-2.313V45.722l20.365-7.791Z"/>
      <path id="Path_7505" data-name="Path 7505" class="cls-4" d="M121.635,38.9a4.922,4.922,0,0,0-.609-2.1l.609-.348a6.417,6.417,0,0,0-1.183-1.478l-.47.539a4.765,4.765,0,0,0-1.93-1.061l.191-.678h0a5.93,5.93,0,0,0-1.548-.209h-.33v.7a5.009,5.009,0,0,0-2.122.626l-.33-.609a5.1,5.1,0,0,0-1.478,1.183l.522.452a4.87,4.87,0,0,0-1.061,1.93l-.591-.191h0a5.791,5.791,0,0,0-.209,1.53v.33h.713a4.678,4.678,0,0,0,.609,2.1l-.609.348a5.618,5.618,0,0,0,1.165,1.478l.47-.522a5.1,5.1,0,0,0,1.93,1.061l-.191.661h0a5.93,5.93,0,0,0,1.548.209h.33v-.7a4.922,4.922,0,0,0,2.052-.678l.348.609a5.983,5.983,0,0,0,1.461-1.183l-.522-.47a4.87,4.87,0,0,0,1.061-1.93l.678.191h0a6.018,6.018,0,0,0,.209-1.548v-.33Zm-6.157,4.574h0v0Zm4.1-3.478a2.991,2.991,0,0,1-2.87,2.174,3.2,3.2,0,0,1-.817-.1,3.026,3.026,0,0,1-2.191-2.887,2.748,2.748,0,0,1,.122-.817,2.991,2.991,0,0,1,2.87-2.174,2.591,2.591,0,0,1,.817.122,2.974,2.974,0,0,1,2.174,2.87A3.287,3.287,0,0,1,119.583,40Z"/>
      <path id="Path_7506" data-name="Path 7506" class="cls-10" d="M98.47,109.478V111.7l-6.991,5.287V114.9Z"/>
      <path id="Path_7507" data-name="Path 7507" class="cls-11" d="M91.478,114.9v2.087s-6.852-.591-8.7-1.948c-1.478-1.13-1.635-4.07-1.652-4.643l2.035-1.13s-.678,3.2.765,4.278S91.478,114.9,91.478,114.9Z"/>
      <path id="Path_7508" data-name="Path 7508" class="cls-10" d="M81.165,110.4l-7.53,4.191a2.227,2.227,0,0,1-.783.278v-6.609l31.2-17.009h1.2v5.774l-12.417,6.957L83.2,109.322Z"/>
      <path id="Path_7509" data-name="Path 7509" class="cls-10" d="M105.252,41.93V91.252h-1.2v-48.7l-31.2-7.27V33.148l31.3,7.53A1.3,1.3,0,0,1,105.252,41.93Z"/>
      <path id="Path_7510" data-name="Path 7510" class="cls-9" d="M104.052,42.626V91.252l-31.2,17.009V35.287Z"/>
      <path id="Path_7511" data-name="Path 7511" class="cls-12" d="M98.47,109.565l-6.957,5.426s-5.948-.174-7.513-1.357-.765-4.278-.765-4.278l9.635-5.339-.087,1.739c.122,1.739,1.061,1.983,2.243,2.5Z"/>
      <path id="Path_7512" data-name="Path 7512" class="cls-11" d="M72.852,114.87h-.435A1.739,1.739,0,0,0,72.852,114.87Z"/>
      <path id="Path_7513" data-name="Path 7513" class="cls-10" d="M72.852,108.261v6.609a1.739,1.739,0,0,1-.435,0,2.383,2.383,0,0,1-2.435-2.348V34.939A1.983,1.983,0,0,1,72,33.043a1.739,1.739,0,0,1,.487,0h.365Z"/>
      <path id="Path_7514" data-name="Path 7514" class="cls-11" d="M72.417,114.9H71.165a6.5,6.5,0,0,1-6.626-6.365V38.07a5.217,5.217,0,0,1,5.217-5.078H72a1.983,1.983,0,0,0-2.017,1.948v77.617a2.383,2.383,0,0,0,2.435,2.348Z"/>
      <path id="Path_7515" data-name="Path 7515" class="cls-13" d="M162.5,89.93a5.6,5.6,0,0,1-.383,2.765,3.583,3.583,0,0,1-1.53-1.217Z"/>
      <path id="Path_7516" data-name="Path 7516" class="cls-5" d="M166.7,92.957c-1.548.643-2.817-1.478-2.817-1.478h0L167.5,88.7a34,34,0,0,1-.3,4.087A3.478,3.478,0,0,1,166.7,92.957Z"/>
      <path id="Path_7517" data-name="Path 7517" class="cls-14" d="M140.139,68.243c5.078.7,6.209,0,8.035-1.617,0,0,5.809-2.087,10.887,10.435a39.27,39.27,0,0,1,3.478,12.922l-1.913,1.548-6.017,4.817a11.27,11.27,0,0,0-1.565-3.27A33.722,33.722,0,0,0,140.07,80.557c-8.7-5.217-7.67-.417-13.513,1.2s-7.826-2.452-7.322-3.722,7.183-5.739,10.539-7.965l1.635-1.061C133.1,68.035,135.078,67.53,140.139,68.243Z"/>
      <path id="Path_7518" data-name="Path 7518" class="cls-8" d="M199.861,29.774V65.9c-13.635,11.9-32.609,26.383-32.661,26.8.174-1.426.261-2.783.3-4.087.278-12.174-5.078-19.13-9.339-22.9a23.636,23.636,0,0,0-4.313-3.009s-.87.5-1.965,1.217a1.548,1.548,0,0,1,0-1.339,74.175,74.175,0,0,1,6.33-6.174c5.322-4.9,13.183-11.983,20.365-18.47Z"/>
      <path id="Path_7519" data-name="Path 7519" class="cls-15" d="M153.843,62.7c3.026,1.6,14.052,8.7,13.652,25.913l-3.67,2.8L162.087,92.7a5.6,5.6,0,0,0,.383-2.765,39.27,39.27,0,0,0-3.478-12.922C153.913,64.539,148.1,66.574,148.1,66.574a29.567,29.567,0,0,1,3.7-2.713C153.043,63.2,153.843,62.7,153.843,62.7Z"/>
      <path id="Path_7520" data-name="Path 7520" class="cls-16" d="M100.87,94.017a8.348,8.348,0,0,0,1.739-1.461l-1.739-2-.8,1.113Z"/>
      <path id="Path_7521" data-name="Path 7521" class="cls-17" d="M153.843,98.9a2.226,2.226,0,0,1-2.139.557l-.539-.157a3.374,3.374,0,0,1,.3.852h0a3.478,3.478,0,0,1-.748,3.478,2.957,2.957,0,0,1-3.583.9l-.348-.191a3.478,3.478,0,0,1,.574,1.426,3.113,3.113,0,0,1-3.739,3.339,2.331,2.331,0,0,1-.522-.209,3.478,3.478,0,0,1,.226.539,2.209,2.209,0,0,1-.4,2.052c-.991,1.2-2.817.852-4.678,0l-3.1-1.339-5.009-2.1s.713-1.3-1.148-3.687a2.33,2.33,0,0,0-3.165-.922s.765-3.948-1.635-5.513c-1.409-.922-2.539-.226-3.478,1.009,0,0-.174-3.026-2.243-3.478-1.513-.383-2.383.5-3.339,2.122,0,0-.73-3.6-2.678-3.478a4.365,4.365,0,0,0-3.478,3.026l-6.991-4.957-1.113-.835H100.7c.174-4.383,2.087-13.722,12.348-24.713a36.346,36.346,0,0,0,5.583,2.678c2.122.574,2.713,0,6.087-.191a15.2,15.2,0,0,1,5.791.574c-3.357,2.226-10.713,7.3-11.113,8.348s1.478,5.339,7.322,3.722,4.783-6.4,13.513-1.2a33.722,33.722,0,0,1,12.817,12.522,11.27,11.27,0,0,1,1.5,3.27,2.522,2.522,0,0,1-.7,2.557Z"/>
      <path id="Path_7522" data-name="Path 7522" class="cls-14" d="M135.148,110.209s-4.348,2.661-7.687,1.339a7.514,7.514,0,0,1-1.061-.5h0l-.417-.226a4.07,4.07,0,0,1-1.739-5.043,4,4,0,0,1,1.635-2.243h0l.261-.139a2.348,2.348,0,0,1,2.9,1.061c1.861,2.383,1.148,3.687,1.148,3.687Z"/>
      <path id="Path_7523" data-name="Path 7523" class="cls-14" d="M125.93,110.783h-.174l-2.765.33a3.13,3.13,0,0,1-1.983-.4l-.4-.278A8.122,8.122,0,0,1,118.383,108a9.409,9.409,0,0,1,.835-5.809,14.521,14.521,0,0,1,1.565-3.217,5.221,5.221,0,0,1,.383-.487,2.122,2.122,0,0,1,3.026-.522c2.139,1.391,1.739,4.609,1.739,5.357v.157h0a4,4,0,0,0-1.635,2.243,4.07,4.07,0,0,0,1.635,5.061Z"/>
      <path id="Path_7524" data-name="Path 7524" class="cls-14" d="M120.609,110.452h-.157a33.511,33.511,0,0,1-3.9.157,4.852,4.852,0,0,1-4.243-2.783,2.939,2.939,0,0,1-.348-.8,2.26,2.26,0,0,1-.122-.574c-.3-2.087,1.009-4.591,2.261-6.852.4-.73.765-1.391,1.1-1.965.122-.191.226-.383.348-.557.835-1.252,1.739-1.913,2.991-1.565,1.739.452,2.157,2.73,2.226,3.374a1.425,1.425,0,0,1,0,.174,14.521,14.521,0,0,0-1.565,3.217,9.409,9.409,0,0,0-.835,5.809,8.122,8.122,0,0,0,2.243,2.365Z"/>
      <path id="Path_7525" data-name="Path 7525" class="cls-14" d="M114.1,99.53c-1.252,2.261-2.557,4.765-2.261,6.852h-.122a9.825,9.825,0,0,1-1.843-.661,2.991,2.991,0,0,1-1.739-2.748,22.608,22.608,0,0,1,.33-4.07,8.262,8.262,0,0,1,.574-1.826,4.365,4.365,0,0,1,3.478-3.026c1.739,0,2.47,2.626,2.643,3.339V97.6C114.87,98.139,114.5,98.8,114.1,99.53Z"/>
      <path id="Path_7526" data-name="Path 7526" class="cls-18" d="M100.7,91.339a14.713,14.713,0,0,0,.174,2.678l-9.583-3.478C91.843,73.93,103.9,60.974,103.9,60.974c3.217,1.739,6.678,3.861,9.809,5.565C103.443,77.478,100.87,86.957,100.7,91.339Z"/>
      <path id="Path_7527" data-name="Path 7527" class="cls-15" d="M103.809,60.87h0l-.365.435-.1.122-.452.557-.348.4-.817,1.061-.226.313-.974,1.357-.47.678-.33.487-.278.417c-.174.3-.365.574-.557.87l-.278.47c-.278.47-.574.939-.852,1.443-.1.157-.191.33-.3.5l-.574,1.043-.522,1.009h0l-.278.557c-.643,1.322-1.287,2.748-1.861,4.226-.157.4-.313.817-.452,1.235s-.313.887-.452,1.339l-.209.661a42.992,42.992,0,0,0-1.548,7.235c0,.452-.1.922-.139,1.374s0,1.13-.087,1.739c0,1.183-2.191,1.409-3.009,1.443-2.243.1-7.913-3.183-12.765-6.243l-2.574-1.739V38.522c2.557,1.617,6.748,4.435,11.183,7.461,8.087,5.53,16.991,11.739,18.191,12.539C102.713,58.835,104.5,60.157,103.809,60.87Z"/>
      <path id="Path_7528" data-name="Path 7528" class="cls-18" d="M84.035,45.983a9.148,9.148,0,0,0-6.678,3.965c-3.374,5.217-4.974,24.974-1.93,35.809l-2.574-1.739v-45.5C75.409,40.139,79.6,42.957,84.035,45.983Z"/>
      <path id="Path_7529" data-name="Path 7529" class="cls-19" d="M161.913,94.47H162"/>
      <path id="Path_7530" data-name="Path 7530" class="cls-20" d="M130.522,79.774l.174-.157c.122-.087.278-.261.5-.417a5.7,5.7,0,0,1,2.226-.939,8.017,8.017,0,0,1,3.478.157,18.122,18.122,0,0,1,1.739.539l.9.33.452.157.487.191a27.912,27.912,0,0,1,3.374,1.739c1.043.626,1.983,1.235,2.835,1.739a10.33,10.33,0,0,0,2.122.887,6.52,6.52,0,0,0,.643.157h.1a4.8,4.8,0,0,1-.678,0,8.5,8.5,0,0,1-2.313-.557,30.263,30.263,0,0,1-3.043-1.409c-1.078-.557-2.191-1.217-3.339-1.739l-.417-.174-.452-.174-.9-.33c-.591-.226-1.165-.452-1.739-.609a8.365,8.365,0,0,0-3.13-.452,6.643,6.643,0,0,0-2.191.557c-.261.1-.452.243-.574.3Z"/>
      <path id="Path_7531" data-name="Path 7531" class="cls-20" d="M151.461,100.157v-.122a1.058,1.058,0,0,0-.209-.383c-.1-.157-.487-.748-.852-1.27s-.8-1.113-1.287-1.739-.991-1.287-1.53-1.93-1.1-1.27-1.617-1.861a18.488,18.488,0,0,0-1.5-1.548c-.47-.417-.435-.417-.643-.591s-.348-.33-.5-.435l-.452-.348.522.278a4.955,4.955,0,0,1,.557.365,7.288,7.288,0,0,1,.713.522,18.73,18.73,0,0,1,1.617,1.443,24.991,24.991,0,0,1,1.739,1.861c.539.661,1.061,1.339,1.513,1.983s.852,1.287,1.165,1.843a12.765,12.765,0,0,1,.7,1.391,1.074,1.074,0,0,0,.139.4Z"/>
      <path id="Path_7532" data-name="Path 7532" class="cls-20" d="M146.783,104.348l-.33-.365c-.209-.226-.522-.539-.87-.939l-1.235-1.287-1.339-1.548-1.374-1.548c-.435-.47-.852-.939-1.217-1.3l-.922-.87-.365-.313.417.243a9.982,9.982,0,0,1,1.061.73c.4.348.87.748,1.357,1.217s.939.974,1.409,1.513.922,1.078,1.322,1.6.765,1.026,1.078,1.443.539.8.713,1.061Z"/>
      <path id="Path_7533" data-name="Path 7533" class="cls-20" d="M143.1,108.957l-.33-.226c-.226-.157-.539-.383-.887-.661s-.783-.591-1.217-.957l-1.357-1.148-1.322-1.2c-.417-.383-.783-.765-1.1-1.078l-.765-.8-.278-.278.348.243c.209.157.522.365.87.643l1.217.974c.452.348.9.748,1.357,1.148s.9.8,1.322,1.2l1.1,1.078c.33.313.591.609.765.8Z"/>
      <path id="Path_7534" data-name="Path 7534" class="cls-17" d="M128.922,71.774l.226-.261a8.03,8.03,0,0,1,.661-.643,10.77,10.77,0,0,1,1.009-.8A9.305,9.305,0,0,1,132.1,69.3a7.269,7.269,0,0,1,1.391-.557l.678-.157h.626a3.374,3.374,0,0,1,.922.087h-.07a7.791,7.791,0,0,0-.887.1l-.557.139-.626.209a12.362,12.362,0,0,0-1.3.574c-.452.226-.87.47-1.27.7s-.783.452-1.078.661l-.765.487Z"/>
      <path id="Path_7535" data-name="Path 7535" class="cls-20" d="M120.609,110.452l-.452-.348a8.5,8.5,0,0,1-1.113-1.009,5.443,5.443,0,0,1-1.183-1.739,2.817,2.817,0,0,1-.157-1.27,4.191,4.191,0,0,1,.122-.643l.191-.591c.243-.783.5-1.565.783-2.278a21.079,21.079,0,0,1,.852-1.93c.278-.557.574-.991.765-1.3l.348-.452-.261.5c-.157.33-.348.8-.591,1.357s-.452,1.252-.7,1.965-.487,1.513-.73,2.3l-.174.591a2.243,2.243,0,0,0-.052.487,2.817,2.817,0,0,0,.1,1.078,5.5,5.5,0,0,0,.974,1.739,13.2,13.2,0,0,0,.974,1.13Z"/>
      <path id="Path_7536" data-name="Path 7536" class="cls-20" d="M125.826,103.5l-.174.3c-.1.191-.243.487-.4.817a5.547,5.547,0,0,0-.417,1.217,7.636,7.636,0,0,0-.243,1.426,6.4,6.4,0,0,0,0,1.426,2.661,2.661,0,0,0,.487,1.13,8.7,8.7,0,0,0,.557.713l.243.261-.3-.191a3.93,3.93,0,0,1-.73-.609,2.887,2.887,0,0,1-.7-1.2,5.217,5.217,0,0,1-.122-1.565,7.235,7.235,0,0,1,.313-1.53,6.436,6.436,0,0,1,.591-1.2,4.452,4.452,0,0,1,.591-.748Z"/>
      <path id="Path_7537" data-name="Path 7537" class="cls-20" d="M130.139,108.1h0v.174a1.079,1.079,0,0,1,0,.226,1.342,1.342,0,0,1,0,.261v.243a1.943,1.943,0,0,0-.087.226,1.023,1.023,0,0,1,0,.139h0v-.661a.991.991,0,0,1,0-.243.871.871,0,0,1,0-.226V108.1Z"/>
      <path id="Path_7538" data-name="Path 7538" class="cls-20" d="M115.2,97.565l-.174.365c-.1.243-.261.591-.47.991s-.435.87-.678,1.357-.5,1.043-.73,1.583a17.08,17.08,0,0,0-.643,1.6,7.985,7.985,0,0,0-.261.765,6.53,6.53,0,0,0-.174.678,1.041,1.041,0,0,1-.122.609,2.625,2.625,0,0,0,0,.452v0a3.479,3.479,0,0,1,0-.47,4,4,0,0,1,0-.626,6.139,6.139,0,0,1,.1-.73,6.572,6.572,0,0,1,.174-.8,13.113,13.113,0,0,1,.609-1.739c.243-.557.522-1.078.8-1.583s.591-.922.835-1.3.487-.661.643-.87Z"/>
      <path id="Path_7539" data-name="Path 7539" class="cls-4" d="M154.122,29.565v-.678H140.87v-7.53h12.643v8.209h1.27v-8.9a.678.678,0,0,0-.678-.7H140.087a.661.661,0,0,0-.487.209.7.7,0,0,0-.209.487v8.9a.783.783,0,0,0,.209.5.713.713,0,0,0,.487.191h14.035a.748.748,0,0,0,.487-.191.765.765,0,0,0,.174-.5Z"/>
      <path id="Path_7540" data-name="Path 7540" class="cls-4" d="M139.652,21.2l6.957,5.583a.661.661,0,0,0,.852,0l6.957-5.583a.713.713,0,0,0,.122-.974.7.7,0,0,0-.974-.1l-6.591,5.217L140.4,20.122a.7.7,0,0,0-.87,1.078Z"/>
      <g id="Group_7085" data-name="Group 7085" class="cls-21">
        <rect id="Rectangle_8067" data-name="Rectangle 8067" class="cls-9" width="6.643" height="1.113" transform="translate(152.626 121.096)"/>
        <path id="Path_7541" data-name="Path 7541" class="cls-9" d="M164.261,118.87h-.191a2.209,2.209,0,0,1,.748,1.739,2.244,2.244,0,0,1-.748,1.739h.191a1.739,1.739,0,0,0,0-3.322Z"/>
        <path id="Path_7542" data-name="Path 7542" class="cls-9" d="M164.261,120.539a1.739,1.739,0,1,1-1.739-1.739A1.739,1.739,0,0,1,164.261,120.539Z"/>
        <rect id="Rectangle_8068" data-name="Rectangle 8068" class="cls-9" width="17.722" height="2.209" transform="translate(150.417 115.009)"/>
        <path id="Path_7543" data-name="Path 7543" class="cls-9" d="M166.957,123.861v-.383H151.53a.73.73,0,0,1-.748-.73V113.9a.73.73,0,0,1,.748-.73h15.426a.73.73,0,0,1,.73.73v8.852a.73.73,0,0,1-.73.73v.748a1.478,1.478,0,0,0,1.478-1.478V113.9a1.478,1.478,0,0,0-1.478-1.478H151.53a1.478,1.478,0,0,0-1.478,1.478v8.852a1.478,1.478,0,0,0,1.478,1.478h15.426Z"/>
      </g>
      <path id="Path_7544" data-name="Path 7544" class="cls-9" d="M225.826,77.93s-37.5,0-30.7,38.261C233.948,114.557,225.826,77.93,225.826,77.93Z"/>
      <path id="Path_7545" data-name="Path 7545" class="cls-1" d="M223.252,99.67l-8.209.835-5.687.609-1.9.243h-.139l9.513-11.843,8.922-.991v-.47l-8.452.939,8.017-10.017-.365-.3-12.5,15.652-1.374-12.522h-.47L212.035,94.8l-8.209,10.226L200.47,92.852l-.452.122,3.478,12.435-5.443,6.783.365.3,8.539-10.574h.261c1.2-.191,5.217-.626,8.974-1.009l4.991-.522,1.6-.157h.591Z"/>
      <path id="Path_7546" data-name="Path 7546" class="cls-22" d="M51.513,87.252s37.513,0,30.7,38.261C43.478,123.861,51.513,87.252,51.513,87.252Z"/>
      <path id="Path_7547" data-name="Path 7547" class="cls-1" d="M54.087,108.991s4.1.4,8.209.835l5.687.609,1.9.226h.139L60.5,98.8l-8.922-.974v-.47l8.452.922-8.017-10,.365-.3L64.9,103.635,66.278,91.1h.47L65.322,104.1l8.191,10.226,3.357-12.174.452.122-3.478,12.435L79.27,121.5l-.365.3L70.452,111.3h-.261c-1.2-.174-5.217-.609-8.974-.991l-4.991-.522-1.583-.226h-.609Z"/>
      <g id="Group_7086" data-name="Group 7086" class="cls-21">
        <path id="Path_7548" data-name="Path 7548" class="cls-9" d="M94.174,29.287A4.87,4.87,0,0,1,93.5,28.5a2.559,2.559,0,0,1-.157-.3V28.07a1.969,1.969,0,0,1,0-.261A4.209,4.209,0,0,1,94,26.957a22.781,22.781,0,0,0,1.739-1.826,5.913,5.913,0,0,0,.73-1.252,4.278,4.278,0,0,0,.313-1.583.87.87,0,0,0-.226-.557A.835.835,0,0,0,96,21.513H87.6a.835.835,0,0,0-.557.226.87.87,0,0,0-.226.557,4.435,4.435,0,0,0,.661,2.278,12.852,12.852,0,0,0,1.965,2.243,4.869,4.869,0,0,1,.678.783,1.739,1.739,0,0,1,.157.3.643.643,0,0,1,0,.157.522.522,0,0,1,0,.243,3.652,3.652,0,0,1-.661.852,22.782,22.782,0,0,0-1.739,1.739,5.912,5.912,0,0,0-.73,1.252,4.209,4.209,0,0,0-.313,1.583.765.765,0,0,0,.783.783h8.417a.765.765,0,0,0,.783-.783,4.313,4.313,0,0,0-.661-2.261,12.4,12.4,0,0,0-1.983-2.174Zm-5.061-5.113a3.93,3.93,0,0,1-.522-.887.975.975,0,0,1,0-.209h6.574a3.339,3.339,0,0,1-.3.678A11.879,11.879,0,0,1,93.13,25.7a8.522,8.522,0,0,0-.887,1.043,3.479,3.479,0,0,0-.313.626v.174a2.7,2.7,0,0,0-.139-.4,4.974,4.974,0,0,0-.957-1.27,20.52,20.52,0,0,1-1.722-1.7Zm-.591,8.87a3.67,3.67,0,0,1,.3-.661,11.878,11.878,0,0,1,1.739-1.948,8.522,8.522,0,0,0,.887-1.043,3.478,3.478,0,0,0,.313-.626v-.174a2.7,2.7,0,0,0,.139.4,4.974,4.974,0,0,0,.957,1.27A20.521,20.521,0,0,1,94.452,32a3.931,3.931,0,0,1,.522.887v.191Z"/>
      </g>
      <path id="Path_7549" data-name="Path 7549" class="cls-3" d="M207.461,31.93l-.383-.139a6.243,6.243,0,0,0,.313-1.13h.4a6.609,6.609,0,0,1-.33,1.27Zm.47-2h-.4a7.3,7.3,0,0,1,.1-1.2h.417c-.035.4-.07.835-.122,1.2Zm.157-2.052h-.417V26.661h.4v1.165Zm-.417-2.017v-1.2h.4v1.2Zm0-2.017v-1.2h.417v1.217Zm-.174-2a5.772,5.772,0,0,0-.191-1.183h.4a9.563,9.563,0,0,0,.191,1.2Zm-48.035-1.2h-.383a5.721,5.721,0,0,1,.243-1.183h.4Zm47.67-.765q-.139-.574-.313-1.148l.383-.122c.122.383.226.783.33,1.183Zm-18.852-.243H188.1v-.4a3.374,3.374,0,0,0,1.113-.139l.139.383a3.809,3.809,0,0,1-1.165.157Zm-1.026-.139a4.4,4.4,0,0,1-.626-.209l-.539-.261.209-.348a3.164,3.164,0,0,0,.487.226,2.469,2.469,0,0,0,.574.191Zm2.887-.417-.226-.33a3.478,3.478,0,0,0,.835-.783l.33.243a4.018,4.018,0,0,1-1.026.922Zm-30.278-.417-.383-.087a5.674,5.674,0,0,1,.226-1.183h.3a5.681,5.681,0,0,1-.226,1.27Zm25.548-.157a3.374,3.374,0,0,1-.765-1.009l.348-.191a3.583,3.583,0,0,0,.7.9Zm21.148-.539c-.139-.365-.3-.748-.452-1.113l.365-.157c.174.365.33.748.47,1.13Zm-15.043-.47-.365-.191a4.261,4.261,0,0,0,.348-1.1h.4a4.73,4.73,0,0,1-.47,1.287Zm-7.2-.783a5.55,5.55,0,0,1-.243-1.235h.4a4.8,4.8,0,0,0,.226,1.148Zm-24.052,0-.383-.087c.087-.435.191-.817.3-1.183l.4.1a4.335,4.335,0,0,0-.4,1.13Zm45.513-.539-.574-1.061.348-.209c.191.365.4.713.574,1.078Zm-13.791-.7h-.4v-.139a3.914,3.914,0,0,0,0-.765v-.3l.4-.087V14.5a4.5,4.5,0,0,1,0,.835Zm-31.165-.7-.383-.122c.1-.313.226-.609.348-.887a1.739,1.739,0,0,1,.122-.261l.365.174-.209.226c-.122.261-.226.539-.33.835Zm23.53-.122h-.4a7.618,7.618,0,0,1,.122-1.235h.4a9.409,9.409,0,0,0-.122,1.235Zm20.33-.261c-.209-.33-.452-.661-.7-.974l.33-.243c.243.33.487.661.713,1.009Zm-13.5-.887a5.93,5.93,0,0,0-.417-1.1l.365-.174a8.3,8.3,0,0,1,.452,1.148Zm-29.652-.574-.348-.191a10.437,10.437,0,0,1,.643-1.043l.33.226C161.948,12.261,161.739,12.591,161.53,12.939Zm41.948-.139c-.243-.3-.522-.591-.8-.87l.278-.3c.3.3.574.609.835.9Zm-18.852-.087-.383-.1a7.289,7.289,0,0,1,.4-1.183l.365.157a8.7,8.7,0,0,0-.383,1.13Zm5.774-.991a9.094,9.094,0,0,0-.7-.974l.313-.243a10.659,10.659,0,0,1,.73,1.009Zm11.7-.348c-.3-.278-.609-.539-.922-.783l.261-.313c.313.243.626.522.922.8Zm-39.461,0-.33-.243c.261-.33.539-.643.817-.939l.348.243a4.3,4.3,0,0,0-.835.852Zm22.713-.417-.365-.191a7.771,7.771,0,0,1,.7-1.043l.313.261a5.912,5.912,0,0,0-.643.887Zm3.826-.7c-.278-.278-.574-.539-.887-.8l.243-.313a10.626,10.626,0,0,1,.922.817Zm11.374,0c-.33-.226-.661-.452-1.009-.661l.209-.33,1.026.661ZM164.035,10l-.278-.313c.3-.261.609-.539.939-.783l.243.33a9.546,9.546,0,0,0-.939.609Zm22.609-.5-.278-.3a7.167,7.167,0,0,1,.7-.574l-.33-.209.191-.348a11.93,11.93,0,0,1,1.043.661l-.226.33-.383-.365a7.2,7.2,0,0,0-.8.643Zm12.3-.278-.47-.261-.609-.278.174-.365.609.278.487.261ZM165.565,8.7l-.226-.33a10.435,10.435,0,0,1,1.043-.643l.191.348a9.826,9.826,0,0,0-1.009.626Zm22.609-.383L188,7.948a6.1,6.1,0,0,1,1.148-.47l.122.383a7.635,7.635,0,0,0-1.113.365Zm8.887,0c-.365-.139-.748-.278-1.13-.383l.1-.383c.4.1.783.243,1.165.383Zm-11.113-.33c-.348-.174-.713-.33-1.1-.487l.157-.383,1.13.5Zm9.2-.261a9.1,9.1,0,0,1-1.165-.209v-.4a5.832,5.832,0,0,1,1.2.226Zm-27.826,0-.174-.365,1.113-.5.157.383a10.435,10.435,0,0,0-1.13.383Zm22.73,0-.1-.383a10.774,10.774,0,0,0,1.235-.209v.4a11.635,11.635,0,0,0-1.165.017Zm3.148-.209h-1.183V6.957h1.235Zm-9.078-.226-1.148-.365.122-.383,1.165.383Zm-14.957-.261-.139-.383c.383-.139.783-.261,1.183-.365l.1.383a11.079,11.079,0,0,0-1.183.191Zm13.043-.313-1.165-.278V6.052l1.2.261Zm-11.13-.243v-.4l1.1-.417v.4c-.348.07-.73.139-1.13.243Zm9.165-.174L179.061,6.1V5.7l1.2.191ZM173.061,6.1V5.7c.4,0,.8-.1,1.217-.122v.4Zm5.217-.087h-1.2V5.357H178.3Zm-3.217,0V5.357H176.3v.383h-1.217Z"/>
      <path id="Path_7550" data-name="Path 7550" class="cls-3" d="M56.835,40.243,56.574,40l.313-.261.261.3Zm-.783-.922c-.261-.3-.522-.609-.765-.939l.313-.243c.243.313.5.626.765.922Zm-1.27-1.583c-.261-.348-.487-.678-.7-1.009l.33-.226c.209.33.435.643.7.991ZM53.652,36c-.209-.365-.4-.748-.574-1.1l.365-.174c.157.348.348.7.557,1.061Zm-.887-1.861a8.33,8.33,0,0,1-.365-1.183h.4a7.6,7.6,0,0,0,.348,1.13Zm-.487-2a4.453,4.453,0,0,1,0-.678V30.9h.4v.539a4.018,4.018,0,0,0,0,.643Zm.417-2.017h-.417a5.753,5.753,0,0,1,.209-1.217l.4.087a8.816,8.816,0,0,0-.191,1.165Zm.4-1.93-.383-.139A8.417,8.417,0,0,1,53.2,26.9l.348.191a7.635,7.635,0,0,0-.452,1.13Zm.852-1.739-.33-.226a6.852,6.852,0,0,1,.783-.974l.3.278a7.531,7.531,0,0,0-.783.922Zm1.3-1.461-.243-.3a7.113,7.113,0,0,1,1.009-.73l.209.348A9.7,9.7,0,0,0,55.252,24.991Zm1.739-1.043-.174-.365a11.531,11.531,0,0,1,1.165-.435l.122.383a10.522,10.522,0,0,0-1.183.417Zm9.878-.191v-.4a5.843,5.843,0,0,0,1.165-.122v.4a6.748,6.748,0,0,1-1.235.122Zm-.835,0-1.217-.139v-.4l1.2.139ZM64.017,23.5h-.191l-1.009-.157v-.4l1.026.157h.174Zm4.9-.087-.157-.365a3.878,3.878,0,0,0,1.009-.574l.243.33a4,4,0,0,1-1.165.591Zm-10.052,0-.087-.4.5-.1L60,22.817v.417h-.678Zm3.148-.139H60.835v-.4H62.07Zm8.7-.974-.3-.278a6.73,6.73,0,0,0,.73-.939l.33.226a6.244,6.244,0,0,1-.9.922ZM71.9,20.557l-.365-.174c.174-.365.33-.73.487-1.1l.365.157a4.368,4.368,0,0,0-.626,1.061Zm18.817-.678-.452-.748-.139-.383.365-.157.157.383c.1.261.191.5.3.748ZM72.678,18.7l-.365-.157c.139-.348.313-.748.5-1.13l.365.191a2.938,2.938,0,0,0-.643,1.043Zm17.27-.7a8.7,8.7,0,0,0-.522-1.061l.348-.209a9.582,9.582,0,0,1,.539,1.113Zm-16.5-1.13-.4-.226.1-.157a6.19,6.19,0,0,1,.8-.835l.278.313a5.217,5.217,0,0,0-.678.713Zm15.409-.643a4.678,4.678,0,0,0-.8-.852l.261-.313a5.409,5.409,0,0,1,.852.922Zm-14.07-.7-.226-.33a9.217,9.217,0,0,1,1.078-.626l.174.365A8.331,8.331,0,0,0,74.783,15.53Zm12.574-.591a8.591,8.591,0,0,0-1.061-.522l.157-.365a7.321,7.321,0,0,1,1.113.539Zm-10.835-.313v-.383c.383-.139.765-.278,1.183-.4l.1.4A7.844,7.844,0,0,0,76.522,14.626Zm9.009-.47-1.078-.243v-.4a12.173,12.173,0,0,1,1.2.3Zm-7.113-.122-.087-.383,1.217-.226v.4Zm5.217-.261H82.452v-.487a9.374,9.374,0,0,1,1.235.087Zm-3.183,0v-.4H81.67v.417a4.654,4.654,0,0,0-1.2-.052Z"/>
      <path id="Path_7551" data-name="Path 7551" class="cls-3" d="M125.409,43.165v-.4a5.5,5.5,0,0,0,1.183-.087v.4A9.826,9.826,0,0,1,125.409,43.165Zm-.817,0a3.7,3.7,0,0,1-1.235-.139v-.4a8.783,8.783,0,0,0,1.183.122Zm2.87-.209-.087-.4,1.165-.278.122.383c-.4.122-.8.209-1.2.3Zm1.965-.557-.139-.383a10.433,10.433,0,0,0,1.1-.47l.191.348a11.446,11.446,0,0,1-1.148.5Zm1.861-.9-.209-.33a6.555,6.555,0,0,0,.922-.73l.278.3a6.242,6.242,0,0,1-.991.765Zm1.548-1.409-.33-.226c0-.122.174-.243.243-.365l-.417-.122.122-.383.5.139a.266.266,0,0,1,.139-.278l.365.157V39.2h.226v.4h-.4A5.045,5.045,0,0,1,132.835,40.087Zm1.583-.47v-.4h.261a3.617,3.617,0,0,0,.835-.278l.174.383a4.574,4.574,0,0,1-.939.3Zm-2.87-.557a3.809,3.809,0,0,1-1.043-.713l.278-.3a3.478,3.478,0,0,0,.939.643Zm4.817-.243L136.1,38.5a2.678,2.678,0,0,0,.678-.887l.365.174a3.565,3.565,0,0,1-.783,1.026Zm-2.609-.557-.4-.1a6.051,6.051,0,0,0,.174-1.165h.383A6.957,6.957,0,0,1,133.757,38.261Zm-3.791-.557a2.174,2.174,0,0,1-.243-.852.487.487,0,0,1,0-.157c0-.1,0-.191,0-.278h.4v.365a1.739,1.739,0,0,0,.209.7Zm7.478-.661-.4-.1a6.957,6.957,0,0,0,.209-1.165h.4a7.583,7.583,0,0,1-.261,1.235Zm-3.948-.817a2.626,2.626,0,0,0-.33-1.078l.348-.209a3.043,3.043,0,0,1,.383,1.235Zm-3.165-.487-.365-.157a3.165,3.165,0,0,1,.783-1.043l.261.313a2.678,2.678,0,0,0-.678.852Zm7.357-.748h-.4V33.739h.4v1.235Zm-5.026-.33a1.391,1.391,0,0,0-1.009-.139l-.1-.383a1.739,1.739,0,0,1,1.322.174Zm4.591-1.739V31.7h.417v1.2Z"/>
      <path id="Path_7552" data-name="Path 7552" class="cls-3" d="M110.191,34.435h-.4v-.243a4.122,4.122,0,0,0-.1-.9l.4-.087a4.8,4.8,0,0,1,.1.991Zm-.748-1.913a6.661,6.661,0,0,0-.557-1.026l.33-.191a5.635,5.635,0,0,1,.591,1.1Zm-1.026-1.739c-.243-.278-.522-.574-.817-.87l.278-.278a10.33,10.33,0,0,1,.852.9Zm-1.409-1.391c-.3-.261-.609-.5-.939-.748l.226-.313a8.469,8.469,0,0,1,.974.748Zm-1.6-1.183-1.043-.609.191-.348c.365.191.713.4,1.061.609Zm-1.739-.957c-.365-.174-.748-.33-1.113-.47l.157-.383q.577.215,1.13.487Zm-1.861-.73a10.94,10.94,0,0,0-1.148-.278v-.4a12.017,12.017,0,0,1,1.2.3Zm-1.93-.365H99.3v-.4H99.9Z"/>
      <path id="Path_7553" data-name="Path 7553" class="cls-3" d="M184.852,118.157h-.765v-.417H185.3v.417Zm1.27,0v-.417h1.217v.4Zm-2.835,0H182.07v-.4h1.217Zm-2.035,0h-1.217v-.4h1.217Zm6.957,0v-.4h.209v.417Zm-8.9,0h-1.217v-.417h1.2Zm-2.017,0H176.07v-.4h1.217Zm-2.035,0h-1.339v-.591h1.217Zm-2.017,0h-1.217v-.417h1.217Z"/>
      <path id="Path_7554" data-name="Path 7554" class="cls-3" d="M187.983,125.217a10.431,10.431,0,0,0-1.1-.47l.139-.383a9.617,9.617,0,0,1,1.13.487Zm-1.9-.661-1.165-.278.087-.383a12.179,12.179,0,0,1,1.2.278Zm-1.948-.4q-.591-.1-1.2-.157v-.4a7.292,7.292,0,0,1,1.217.157Zm-2-.243h-1.2v-.4h.226l.974.1Zm-2.017-.191-1.2-.122v-.4l1.2.122Zm-1.983-.243a10.7,10.7,0,0,1-1.2-.209v-.4a11.939,11.939,0,0,0,1.183.209Zm-2-.4a10.439,10.439,0,0,1-1.183-.365l.156-.383a9.586,9.586,0,0,0,1.13.365Zm-1.93-.7a7.2,7.2,0,0,1-1.078-.609l.226-.348a6.573,6.573,0,0,0,1.026.591Z"/>
      <path id="Path_7555" data-name="Path 7555" class="cls-3" d="M180.052,130.557a2.069,2.069,0,0,0-.261-.313l.3-.278.3.348Zm-.835-.852c-.278-.226-.591-.47-.939-.713l.226-.33a9.476,9.476,0,0,1,.974.748Zm-1.617-1.148c-.33-.209-.678-.417-1.043-.609l.209-.365,1.043.626Zm-1.739-.991-1.1-.522.174-.365c.348.157.73.33,1.1.522Zm-1.826-.835c-.435-.157-.8-.3-1.13-.383l.1-.383a10.436,10.436,0,0,1,1.165.4Z"/>
      <path id="Path_7556" data-name="Path 7556" class="cls-3" d="M82.157,131.478l-.191-.365.243-.122.191.348Zm.939-.626-.261-.313c.3-.243.574-.5.835-.765h0l.278.3h0a5.356,5.356,0,0,1-.852.783Zm1.5-1.374-.261-.313.922-.783.261.3c-.3.261-.626.522-.922.8Zm1.53-1.3-.261-.313.957-.765.243.313ZM87.7,126.9l-.243-.313.957-.748.243.33Zm1.6-1.217-.243-.33.974-.73.243.33Zm1.617-1.217-.243-.33.974-.661.243.313Zm1.617-1.2-.226-.33.974-.713.243.33Zm1.635-1.2-.261-.33.974-.73.243.33Z"/>
      <path id="Path_7557" data-name="Path 7557" class="cls-3" d="M90.939,133.357l-.383-.139h0c.122-.33.261-.678.417-1.061l.365.157c-.157.365-.3.73-.417,1.043Zm.748-1.843-.383-.157c.157-.365.313-.748.487-1.113l.383.191Zm.817-1.843-.365-.174.557-1.078.365.191c-.191.33-.365.7-.557,1.061Zm.957-1.739-.348-.209c.209-.383.452-.73.661-1.043l.33.243c-.191.278-.435.626-.643.991Zm1.13-1.635-.3-.261a5.914,5.914,0,0,1,.887-.87l.261.313a6.175,6.175,0,0,0-.852.8Z"/>
      <path id="Path_7558" data-name="Path 7558" class="cls-23" d="M116.3,69.374h.348a5.958,5.958,0,0,1,.939.209l1.339.191h5.791l-.365.122c-.226,0-.539.174-.939.243l-.643.139h-.73a11.793,11.793,0,0,1-1.583,0h-.817a1.859,1.859,0,0,1-.765-.1,10.208,10.208,0,0,1-1.357-.348,8.852,8.852,0,0,1-.9-.383Z"/>
    </g>
  </g>
</svg>
