<svg xmlns="http://www.w3.org/2000/svg" width="35" height="24" viewBox="0 0 35 24"><defs><style>.a{fill:#fff;stroke:#d5d5d5;}.b{fill:#ff5f00;}.c{fill:#eb001b;}.d{fill:#f79e1b;}</style></defs><g transform="translate(0.5 0.5)"><rect class="a" width="34" height="23" rx="6"/><g transform="translate(5.4 4.243)"><path class="b" d="M15.591,13.5H9.208V2.027h6.383Z" transform="translate(-0.6 -0.467)"/><path class="c" d="M9.277-7.422a7.284,7.284,0,0,1,2.786-5.736,7.264,7.264,0,0,0-4.509-1.56A7.3,7.3,0,0,0,.26-7.422a7.3,7.3,0,0,0,7.295,7.3,7.264,7.264,0,0,0,4.509-1.56A7.284,7.284,0,0,1,9.277-7.422" transform="translate(-0.26 14.717)"/><path class="d" d="M12.06-7.422a7.3,7.3,0,0,1-7.295,7.3A7.266,7.266,0,0,1,.256-1.686,7.283,7.283,0,0,0,3.043-7.422,7.283,7.283,0,0,0,.256-13.158a7.266,7.266,0,0,1,4.509-1.56,7.3,7.3,0,0,1,7.295,7.3" transform="translate(11.54 14.717)"/></g></g></svg>