<?xml version="1.0" encoding="utf-8"?>
<!-- Generator: Adobe Illustrator 24.1.2, SVG Export Plug-In . SVG Version: 6.00 Build 0)  -->
<svg version="1.1" id="Capa_1" xmlns="http://www.w3.org/2000/svg" xmlns:xlink="http://www.w3.org/1999/xlink" x="0px" y="0px"
	 viewBox="0 0 512 512" style="enable-background:new 0 0 512 512;" xml:space="preserve">
<style type="text/css">
	.st0{fill:#0B5FFF;}
	.st1{fill:#277AFF;}
	.st2{fill:#FEE218;}
	.st3{fill:#CD494C;}
	.st4{fill:#FFFFFF;}
	.st5{fill:#8FBDFF;}
	.st6{fill:#22A84A;}
	.st7{display:none;}
	.st8{display:inline;fill:#FFFFFF;}
	.st9{font-family:'Roboto-Bold';}
	.st10{font-size:116.4723px;}
</style>
<path class="st0" d="M428.6,412.7H40c-17.7,0-32-14.3-32-32V136.8c0-17.7,14.3-32,32-32h388.6c17.7,0,32,14.3,32,32v243.9
	C460.6,398.3,446.3,412.7,428.6,412.7z"/>
<g>
	<path class="st1" d="M214.7,104.8c-99.8,75.7-170.1,172.6-206.4,279c-0.2-1.3-0.3-2.6-0.3-4V136c0-15.2,10.6-28,24.8-31.2H214.7
		L214.7,104.8z"/>
	<path class="st1" d="M253.9,412.7C353.7,337,424,240,460.3,133.6c0.2,1.3,0.3,2.6,0.3,4v243.8c0,15.2-10.6,28-24.8,31.2
		L253.9,412.7L253.9,412.7z"/>
</g>
<circle class="st2" cx="317.7" cy="191.8" r="39"/>
<circle class="st3" cx="373.6" cy="191.8" r="39"/>
<g>
	<path class="st4" d="M141.9,289.9H66.2c-8.8,0-16-7.2-16-16s7.2-16,16-16h75.7c8.8,0,16,7.2,16,16
		C157.9,282.7,150.8,289.9,141.9,289.9z"/>
	<path class="st4" d="M209.5,207.8H66.2c-8.8,0-16-7.2-16-16s7.2-16,16-16h143.3c8.8,0,16,7.2,16,16
		C225.5,200.6,218.4,207.8,209.5,207.8z"/>
</g>
<path class="st5" d="M113.1,372H66.2c-8.8,0-16-7.2-16-16s7.2-16,16-16h46.9c8.8,0,16,7.2,16,16S121.9,372,113.1,372z"/>
<path class="st5" d="M209.5,372h-46.9c-8.8,0-16-7.2-16-16s7.2-16,16-16h46.9c8.8,0,16,7.2,16,16S218.4,372,209.5,372z"/>
<path class="st5" d="M306,372h-46.9c-8.8,0-16-7.2-16-16s7.2-16,16-16H306c8.8,0,16,7.2,16,16S314.8,372,306,372z"/>
<g>
	<g>
		<circle class="st6" cx="425.5" cy="349" r="79.9"/>
	</g>
	<g class="st7">
		<path class="st8" d="M413,381.5c-3.4,0-6.8-1.3-9.4-3.8l-16-16c-2.3-2.3-2.3-6.1,0-8.4s6.1-2.3,8.4,0l16,16c0.6,0.6,1.5,0.6,2.1,0
			l41-41c2.3-2.3,6.1-2.3,8.4,0s2.3,6.1,0,8.4l-41,41C419.8,380.2,416.4,381.5,413,381.5L413,381.5z"/>
	</g>
	<text transform="matrix(1 0 0 1 396.1484 393.8418)" class="st4 st9 st10">1</text>
</g>
</svg>
