<svg xmlns="http://www.w3.org/2000/svg" width="86.263" height="119.62" viewBox="0 0 86.263 119.62"><defs><style>.a{fill:#091e42;}.b{fill:#42526e;}</style></defs><g transform="translate(-939.376 -4016.232)"><path class="a" d="M409.37,1126.011a10,10,0,1,0-6.006,19.084,10.311,10.311,0,0,0,3.11.494,10.016,10.016,0,0,0,2.9-19.578Z" transform="matrix(0.951, -0.309, 0.309, 0.951, 233.004, 3168.805)"/><path class="b" d="M439.133,1131a9.707,9.707,0,0,0-5.891-4.9,10.589,10.589,0,0,0-2.538-.477,10.036,10.036,0,0,1-4.9,18.722c-.19,0-.381,0-.574-.019a10.777,10.777,0,0,0,2,.858,10.319,10.319,0,0,0,3.11.494A10.077,10.077,0,0,0,439.133,1131Z" transform="matrix(0.951, -0.309, 0.309, 0.951, 210.274, 3176.1)"/><path class="a" d="M500.188,670.546c-4.125-7.223-11.071-12.4-20.636-15.4s-18.274-2.752-25.88.764a28.058,28.058,0,0,0-14.411,15.412,4.678,4.678,0,0,0,2.924,6.243l5.695,1.793a4.68,4.68,0,0,0,5.684-2.576,15.045,15.045,0,0,1,7.43-8.043c3.977-1.855,8.775-1.914,14.261-.193s9.313,4.574,11.424,8.481,2.31,8.587.623,13.95c-2.327,7.392-6.011,11.7-10.951,12.82-5.2,1.173-12.508.247-21.731-2.757l-2.468-.775a4.682,4.682,0,0,0-5.865,3.056l-6.753,21.468a4.678,4.678,0,0,0,3.058,5.865l5.778,1.819a4.676,4.676,0,0,0,5.865-3.058l4.375-13.9a.338.338,0,0,1,.411-.223c10.857,3.1,19.879,3.307,26.818.63,7.379-2.853,12.721-9.379,15.874-19.4C504.854,686.539,504.344,677.8,500.188,670.546Z" transform="matrix(0.951, -0.309, 0.309, 0.951, 320.141, 3550.796)"/><path class="b" d="M613.708,670.539c-4.125-7.223-11.071-12.4-20.636-15.4A39.513,39.513,0,0,0,576.35,653.3a45.31,45.31,0,0,1,8.446,1.833c9.572,3.011,16.513,8.2,20.643,15.412,4.149,7.254,4.661,15.993,1.519,25.973-3.154,10.02-8.493,16.546-15.873,19.4a27.8,27.8,0,0,1-6.977,1.652,33.313,33.313,0,0,0,15.251-1.652c7.38-2.853,12.721-9.379,15.875-19.4C618.374,686.532,617.864,677.793,613.708,670.539Z" transform="matrix(0.951, -0.309, 0.309, 0.951, 212.18, 3585.882)"/></g></svg>