<svg xmlns="http://www.w3.org/2000/svg" width="35" height="24" viewBox="0 0 35 24"><defs><style>.a{fill:#212673;}.b{fill:#00579f;}.c{fill:#faa61a;}.d{fill:#fff;}</style></defs><rect class="a" width="35" height="24" rx="4"/><g transform="translate(3.329 7.749)"><path class="b" d="M12.262,9.1H9.981L11.408.273h2.281Z" transform="translate(-0.056 -0.113)"/><path class="b" d="M20.534.488A5.623,5.623,0,0,0,18.487.113c-2.253,0-3.84,1.2-3.85,2.92-.019,1.267,1.136,1.971,2,2.394.883.432,1.183.714,1.183,1.1-.009.591-.713.864-1.37.864a4.541,4.541,0,0,1-2.141-.469l-.3-.141-.319,1.981a6.945,6.945,0,0,0,2.545.47c2.394,0,3.953-1.183,3.971-3.014.009-1-.6-1.774-1.915-2.4-.8-.4-1.287-.676-1.287-1.089.009-.376.413-.76,1.314-.76a3.877,3.877,0,0,1,1.7.338l.206.094Zm3.033,5.483c.188-.507.911-2.469.911-2.469-.009.019.188-.516.3-.845l.159.76s.432,2.112.526,2.554Zm2.817-5.7H24.618A1.126,1.126,0,0,0,23.426,1L20.036,9.1h2.394l.479-1.324h2.93c.066.31.272,1.324.272,1.324h2.113ZM8.075.273,5.84,6.29,5.6,5.07a6.754,6.754,0,0,0-3.155-3.7L4.488,9.088H6.9L10.488.273Z" transform="translate(-0.056 -0.113)"/><path class="c" d="M3.765.273H.094L.056.451A7.635,7.635,0,0,1,5.6,5.07L4.8,1.014A.944.944,0,0,0,3.765.273Z" transform="translate(-0.056 -0.113)"/><path class="d" d="M2.454,1.42A9.3,9.3,0,0,0,.056.451L.094.273H3.765A.944.944,0,0,1,4.8,1.014l.8,4.055L5.84,6.29,8.075.273h2.413L6.9,9.088H4.488ZM12.262,9.1H9.981L11.408.273h2.282ZM20.534.488l-.31,1.906L20.017,2.3a3.877,3.877,0,0,0-1.7-.338c-.9,0-1.3.385-1.314.76,0,.413.489.685,1.287,1.089,1.315.629,1.924,1.4,1.915,2.4-.018,1.831-1.577,3.014-3.971,3.014a6.945,6.945,0,0,1-2.545-.47l.319-1.981.3.141a4.541,4.541,0,0,0,2.141.469c.657,0,1.361-.273,1.37-.864,0-.385-.3-.667-1.183-1.1-.864-.423-2.019-1.127-2-2.394.01-1.718,1.6-2.92,3.85-2.92A5.623,5.623,0,0,1,20.534.488ZM26.383.273,28.224,9.1H26.111s-.207-1.014-.272-1.324H22.91L22.431,9.1H20.036L23.426,1A1.126,1.126,0,0,1,24.618.273Zm-2.817,5.7h1.9c-.094-.441-.526-2.554-.526-2.554l-.159-.76c-.113.329-.31.864-.3.845C24.478,3.5,23.755,5.464,23.567,5.971Z" transform="translate(-0.056 -0.113)"/></g></svg>