<svg xmlns="http://www.w3.org/2000/svg" width="522.844" height="213.793" viewBox="0 0 522.844 213.793">
  <g id="Group_10505" data-name="Group 10505" transform="translate(20363.197 -7859.366)">
    <g id="_5471" data-name="5471" transform="translate(-20363.197 7859.366)">
      <g id="Group_10299" data-name="Group 10299" transform="translate(0 18.885)">
        <path id="Path_9471" data-name="Path 9471" d="M222.1,1658.874H149.61l1.28-35.571.037-1.074.009-.224,59.613-2.725,8.561-.39.248,3.319,1.093,14.6,0,.022.4,5.3v0l.175,2.309Z" transform="translate(-138.331 -1464.186)" fill="#e2b897"/>
        <path id="Path_9472" data-name="Path 9472" d="M187.431,1672.681H149.46l.681-36.15.015-.721.651.224,6.947,2.386,17.261,5.93.028.009,11.432,3.928Z" transform="translate(-138.209 -1477.993)" fill="#e2b897"/>
        <path id="Path_9473" data-name="Path 9473" d="M301.16,1052.895l-20.836,2.441-.511-14.028-.035-.966-.068-1.845,17.047-2,1.109-.129.931,4.677Z" transform="translate(-244.495 -988.838)" fill="#f8bd8c"/>
        <path id="Path_9474" data-name="Path 9474" d="M139.984,1099.137s-24.278,10.115-24.951,12.139-3.372,7.755-3.372,7.755,11.8,28.66,8.767,38.439-1.012,25.963-1.012,31.021-2.024,7.081,1.685,8.43,15.848.675,22.591,0,20.569.208,23.6.778,21.242-2.465,21.242-2.465,2.36-12.812,1.685-19.22.243-21.581.121-23.939,1.155-3.372.011-9.1,4.588-37.09,4.588-37.09l-27.987-10.2Z" transform="translate(-107.363 -1037.236)" fill="#9f96ee"/>
        <g id="Group_10288" data-name="Group 10288" transform="translate(25.937 60.442)">
          <path id="Path_9475" data-name="Path 9475" d="M250.667,1108.04l-3.5,11.708-15.406-7.773,3.733-3.935Z" transform="translate(-231.304 -1107.764)" fill="#9f96ee"/>
          <path id="Path_9476" data-name="Path 9476" d="M245.312,1118.92l-16.032-8.09,4.071-4.29h15.662Zm-15.121-8.248,14.781,7.458,3.3-11.039H233.589Z" transform="translate(-229.28 -1106.54)" fill="#675bcc" stroke="#675bcc" stroke-width="1"/>
        </g>
        <g id="Group_10289" data-name="Group 10289" transform="translate(41.926 55.217)">
          <path id="Path_9477" data-name="Path 9477" d="M318.2,1085.02l4.721,11.708,17.576-12.374-4.2-4.524Z" transform="translate(-317.83 -1079.519)" fill="#9f96ee" stroke="#675bcc" stroke-width="1"/>
          <path id="Path_9478" data-name="Path 9478" d="M321.156,1095.776l-4.966-12.316,18.556-5.321,4.528,4.879Zm-4.224-11.955,4.476,11.1,17.031-11.992-3.867-4.169Z" transform="translate(-316.19 -1078.14)" fill="#675bcc"/>
        </g>
        <g id="Group_10290" data-name="Group 10290" transform="translate(0 69.06)">
          <path id="Path_9479" data-name="Path 9479" d="M104.616,1153.38s10.373,4.018,9.422,44.7l37.787-8.673,4.633,19.143s-41.469,17.945-52.232,17.647-17.728-49.354-15.511-54.739,2.824-13.053,15.487-17.839Z" transform="translate(-88.304 -1153.38)" fill="#9f96ee"/>
        </g>
        <path id="Path_9480" data-name="Path 9480" d="M435.774,1338.293l9.736-3.643-2.416,14.7-7.609.381-1.665-10.411Z" transform="translate(-370.252 -1232.24)" fill="#f8bd8c"/>
        <path id="Path_9481" data-name="Path 9481" d="M240.428,1372.991l-7.955,1.834-.318-1.928-.524-3.2.545.2Z" transform="translate(-205.261 -1260.842)" fill="#f8bd8c"/>
        <path id="Path_9482" data-name="Path 9482" d="M292.362,1151.533l-6.235,44.372-39.59-5.324L241.86,1210.1s53.621,13.016,64.218,9.466,5.611-52.357,2.808-58.57-4.7-11.07-8.441-12.253-8.082,2.787-8.082,2.787Z" transform="translate(-213.609 -1080.36)" fill="#9f96ee"/>
        <path id="Path_9483" data-name="Path 9483" d="M299.092,1041.047a7.957,7.957,0,0,1-4.533,4.493c-4.953,1.779-11.149-1.937-14.453-4.232l-.035-.966q.428.066.973.114a29.45,29.45,0,0,0,9.536-.9,17,17,0,0,0,6.472-3.056l1.109-.129Z" transform="translate(-244.789 -988.838)" fill="#eab186"/>
        <path id="Path_9484" data-name="Path 9484" d="M263.62,850.7c.909,11.493-4.522,21.321-12.961,21.989s-16.017-8.11-16.926-19.6,5.2-21.351,13.635-22.019S262.711,839.2,263.62,850.7Z" transform="translate(-206.903 -821.274)" fill="#f8bd8c"/>
        <path id="Path_9485" data-name="Path 9485" d="M254.006,970.632c-8.079,1.2-16-7.148-17.7-18.626-.162-1.106-.256-2.2-.311-3.277,1.888,11.155,9.685,19.18,17.614,18.006,7.284-1.078,12.192-9.549,11.843-19.625.04.189.068.377.094.567C267.249,959.153,262.085,969.43,254.006,970.632Z" transform="translate(-208.827 -916)" fill="#1a1a1a"/>
        <path id="Path_9486" data-name="Path 9486" d="M268.667,782.03s-.1,8.542,2.031,9.778,4.559-1.012,6.491-1.349,5.839-.67,8.579,1.717,5.089,9.344,5.089,9.344l.6,2.331s1.6.4,1.77-1.788-.281-11.381,0-12.279a2.573,2.573,0,0,0-.843-2.809c-1.012-1.012-2.3-2.585-1.912-3.26s2.079-2.416.449-3.934-9.5-2.473-10.958-1.124S273.049,774.837,268.667,782.03Z" transform="translate(-235.484 -778.013)" fill="#1a1a1a"/>
        <path id="Path_9487" data-name="Path 9487" d="M210.212,796.514s-7.67.843-7.839,7.587c0,0-.927,1.518-2.782,3.963s.337,6.575.843,9.02,1.545,4.467,1.488,5.2a2.052,2.052,0,0,0,2.613,1.573,3.035,3.035,0,0,0,1.547-2.062s.112-9.515,1.518-11.2a19.058,19.058,0,0,1,5.17-4.046,3.12,3.12,0,0,0,1.685-2.191c0-.169-1.742-9.385-1.742-9.385Z" transform="translate(-178.519 -791.85)" fill="#1a1a1a"/>
        <path id="Path_9488" data-name="Path 9488" d="M224.1,947.936c1.056,2.173.67,4.539-.867,5.286s-3.635-.41-4.693-2.583-.67-4.539.867-5.286S223.042,945.764,224.1,947.936Z" transform="translate(-194.094 -914.381)" fill="#f8bd8c"/>
        <path id="Path_9489" data-name="Path 9489" d="M385.85,923.344c-.276,2.4-1.875,4.187-3.571,3.992s-2.846-2.3-2.57-4.7,1.875-4.187,3.571-3.992S386.126,920.943,385.85,923.344Z" transform="translate(-326.063 -892.76)" fill="#f8bd8c"/>
        <path id="Path_9490" data-name="Path 9490" d="M254.5,911.927a23.125,23.125,0,0,0-3.2.423,9.162,9.162,0,0,0-2.861,1.012l-.039.024a.877.877,0,0,1-.942-1.479,10.753,10.753,0,0,1,3.433-1.369,24.766,24.766,0,0,1,3.486-.567.978.978,0,1,1,.184,1.948l-.026,0Z" transform="translate(-217.849 -885.69)" fill="#1a1a1a"/>
        <path id="Path_9491" data-name="Path 9491" d="M271.21,937.373a1.311,1.311,0,1,1-1.5-1.327A1.429,1.429,0,0,1,271.21,937.373Z" transform="translate(-235.457 -906.962)" fill="#1a1a1a"/>
        <path id="Path_9492" data-name="Path 9492" d="M330.732,905.207a23.055,23.055,0,0,1,3.214-.313,9.131,9.131,0,0,1,3.015.337l.044.015a.877.877,0,0,0,.583-1.654,10.717,10.717,0,0,0-3.656-.554,24.411,24.411,0,0,0-3.523.239.978.978,0,1,0,.263,1.939l.026,0Z" transform="translate(-285.176 -880.036)" fill="#1a1a1a"/>
        <path id="Path_9493" data-name="Path 9493" d="M345.762,928.567a1.311,1.311,0,1,0,1.163-1.634A1.428,1.428,0,0,0,345.762,928.567Z" transform="translate(-298.39 -899.532)" fill="#1a1a1a"/>
        <path id="Path_9494" data-name="Path 9494" d="M293.1,1019.444c.443.3,1.987-.07,2.486-.177a3.814,3.814,0,0,0,2.355-1.24c.609-.843.326-2.11.25-3.072-.022-.274.026-1.032-.2-1.258,0,0,2.228-.335,2.248-.337a15.5,15.5,0,0,0,.491,3.426,2.209,2.209,0,0,0,1.617,1.242,7.005,7.005,0,0,0,2.2.145c.178-.013,1.919-.162,1.935-.344a.682.682,0,0,1-.234.388,43.786,43.786,0,0,1-3.648,3.234s-5.957.506-6.125.337S293.107,1019.45,293.1,1019.444Z" transform="translate(-255.422 -970.061)" fill="#1a1a1a"/>
        <path id="Path_9495" data-name="Path 9495" d="M305.067,996.9a6.585,6.585,0,0,1-4.531,2.953c-2.778.539-5.368-.4-6.366-2.158,0-.028.028-.053.053-.081a6.964,6.964,0,0,1,1.106-.769l8.159-.971A2.182,2.182,0,0,1,305.067,996.9Z" transform="translate(-256.295 -955.789)" fill="#fcfcfc"/>
        <g id="Group_10291" data-name="Group 10291" transform="translate(36.825 39.159)">
          <path id="Path_9496" data-name="Path 9496" d="M288.789,1002.2c-.175-1.7-.66-7.138.05-8.758v-.11l.243-.274a7.35,7.35,0,0,1,1.268-.892,10.147,10.147,0,0,1,4.752-1.284,18.024,18.024,0,0,1,2.868.1l.23.028c.263.031.521.063.78.118A2.833,2.833,0,0,1,301,992.465a10.362,10.362,0,0,1,1.032,2.992c.059.258.12.515.184.769a11.788,11.788,0,0,1,.381,4.147l-1.341-.138a10.553,10.553,0,0,0-.348-3.68c-.066-.261-.127-.528-.191-.795a9.159,9.159,0,0,0-.883-2.616,1.5,1.5,0,0,0-1.135-.706c-.219-.048-.434-.072-.651-.1l-.235-.028a16.547,16.547,0,0,0-2.651-.09,8.834,8.834,0,0,0-4.14,1.108,5.99,5.99,0,0,0-.94.642l-.011.015c-.392.6-.281,4.657.068,8.068Z" transform="translate(-288.464 -990.859)" fill="#1a1a1a"/>
        </g>
        <g id="Group_10292" data-name="Group 10292" transform="translate(40.821 28.73)">
          <path id="Path_9497" data-name="Path 9497" d="M310.367,941.74a.182.182,0,0,1-.162-.1.184.184,0,0,1,.075-.248l1.45-.773a1.128,1.128,0,0,0,.653-1.132l-.736-5.109a.183.183,0,0,1,.156-.208.185.185,0,0,1,.208.156l.736,5.109a1.494,1.494,0,0,1-.844,1.509l-1.45.773A.181.181,0,0,1,310.367,941.74Z" transform="translate(-310.183 -934.171)" fill="#1a1a1a"/>
        </g>
        <g id="Group_10293" data-name="Group 10293" transform="translate(36.438 165.99)">
          <path id="Path_9498" data-name="Path 9498" d="M299.206,1702.217a.368.368,0,0,1-.368-.359c-.143-6.092-.517-15.988-.916-17.046-1.338-.8-7.942-2.859-11.3-3.852a.369.369,0,1,1,.21-.707c.407.121,10,2.966,11.556,3.981.243.158.546.357.909,9.1.175,4.23.276,8.467.278,8.509a.369.369,0,0,1-.359.377A.016.016,0,0,0,299.206,1702.217Zm-1.3-17.448Z" transform="translate(-286.358 -1680.239)" fill="#666b6d"/>
        </g>
        <g id="Group_10294" data-name="Group 10294" transform="translate(24.826 94.856)">
          <path id="Path_9499" data-name="Path 9499" d="M225.154,1313.089a.366.366,0,0,1-.368-.349c-.053-1.095-1.527-18.571-1.542-18.748a.367.367,0,1,1,.732-.061c.057.67,1.3,15.377,1.514,18.321,2.062-.552,10.919-2.911,14.464-3.612a.368.368,0,0,1,.144.721c-3.979.787-14.74,3.687-14.847,3.716A.435.435,0,0,1,225.154,1313.089Z" transform="translate(-223.243 -1293.593)" fill="#675bcc"/>
        </g>
        <g id="Group_10295" data-name="Group 10295" transform="translate(4.937 124.113)">
          <path id="Path_9500" data-name="Path 9500" d="M127.3,1470a10.2,10.2,0,0,1-3.109-.406c-5.278-1.729-8.89-15.916-9.041-16.52a.368.368,0,0,1,.714-.18c.037.144,3.661,14.395,8.557,16,4.969,1.628,16.944-2.616,17.064-2.659a.368.368,0,0,1,.248.694C141.316,1467.08,133.062,1470,127.3,1470Z" transform="translate(-115.139 -1452.619)" fill="#675bcc"/>
        </g>
        <g id="Group_10296" data-name="Group 10296" transform="translate(45.573 126.828)">
          <path id="Path_9501" data-name="Path 9501" d="M336.377,1473.722a.367.367,0,0,1-.166-.7l11.2-5.611a.367.367,0,0,1,.329.657l-11.2,5.611A.369.369,0,0,1,336.377,1473.722Z" transform="translate(-336.009 -1467.376)" fill="#675bcc"/>
        </g>
        <g id="Group_10297" data-name="Group 10297" transform="translate(71.794 95.686)">
          <path id="Path_9502" data-name="Path 9502" d="M478.9,1318.149a.31.31,0,0,1-.059-.006.368.368,0,0,1-.305-.421l3.095-19.309a.368.368,0,1,1,.727.116l-3.095,19.309A.366.366,0,0,1,478.9,1318.149Z" transform="translate(-478.536 -1298.103)" fill="#675bcc"/>
        </g>
        <g id="Group_10298" data-name="Group 10298" transform="translate(58.684 135.941)">
          <path id="Path_9503" data-name="Path 9503" d="M426.193,1520.52c-.018,0-.039,0-.057,0l-18.549-2.88a.368.368,0,1,1,.112-.727l18.549,2.879a.367.367,0,0,1-.055.73Z" transform="translate(-407.276 -1516.906)" fill="#675bcc"/>
        </g>
      </g>
      <g id="Group_10323" data-name="Group 10323" transform="translate(117.97 0)">
        <g id="Group_10300" data-name="Group 10300" transform="translate(49.126 45.228)">
          <path id="Path_9504" data-name="Path 9504" d="M999.883,921.2l-3.343,12.214,7.21,8.441,10.3-5.164-.432-12.864Z" transform="translate(-996.54 -921.2)" fill="#f8bd8c"/>
        </g>
        <g id="Group_10301" data-name="Group 10301" transform="translate(58.559 153.009)">
          <path id="Path_9505" data-name="Path 9505" d="M1078.527,1507.03v60.564H1047.81v-59.03l28.7-1.433Z" transform="translate(-1047.81 -1507.03)" fill="#31185e"/>
        </g>
        <g id="Group_10302" data-name="Group 10302" transform="translate(19.883 155.823)">
          <path id="Path_9506" data-name="Path 9506" d="M886.249,1522.33l-1.051,2.907-1.034,2.87-3.481,9.635-4.419,12.233-7.094,30.106H841.382c.017.084.024.127.024.127l-3.816.092.026-.221,1.531-12.33.224-1.809.6-4.837.563-4.528.425-3.422,1.987-16.016.541-4.358,1.3-10.45Z" transform="translate(-837.59 -1522.33)" fill="#31185e"/>
        </g>
        <g id="Group_10303" data-name="Group 10303" transform="translate(0 55.198)">
          <path id="Path_9507" data-name="Path 9507" d="M779.433,975.39s-15.1,9.219-21.757,12.459-11.006,7.974-12.542,10.715-5.12,5.232-4.863,6.977-5.887,9.219-7.168,15.449-3.584,26.911-3.584,27.657,4.1,17.94,4.1,17.94,12.03,11.96,14.59,14.7,10.238,7.227,11.263,7.227,7.424-4.235,7.168-8.472-2.048-16.444-3.84-18.438a34.878,34.878,0,0,1-4.408-5.054,12.1,12.1,0,0,1-.968-1.923c-1.28-3.24,2.3-10.963,2.3-10.963s11.519-27.409,11.006-31.146,3.328-16.943,2.3-20.431S779.433,975.39,779.433,975.39Z" transform="translate(-729.52 -975.39)" fill="#69f"/>
        </g>
        <g id="Group_10304" data-name="Group 10304" transform="translate(19.71 55.198)">
          <path id="Path_9508" data-name="Path 9508" d="M907.552,1009.014s2.559,35.145,2.3,41.127-1.5,9.468.018,16.2.786,8.72,0,11.212-10.513,2.243-10.513,2.243l-45.579-2.655-17.132-24.755,22.269-69.268,7.935-7.723s9.087,7.723,16.637,3.115c0,0,20.988,11.835,23.932,14.078S907.552,1009.014,907.552,1009.014Z" transform="translate(-836.65 -975.39)" fill="#69f"/>
        </g>
        <g id="Group_10305" data-name="Group 10305" transform="translate(86.858 73.305)">
          <path id="Path_9509" data-name="Path 9509" d="M1205.554,1073.81s7.337,7.31,7.168,12.126,1.877,22.756,1.536,27.906.511,5.315,1.194,9.136,3.5,11.462,3.755,19.934,3.967,14.577,1.407,18.812-4.48,5.481-4.48,5.481-.64-6.465-1.792-7.094-6.638-2.25-6.638-2.25l-6.075-67.108Z" transform="translate(-1201.63 -1073.81)" fill="#69f"/>
        </g>
        <g id="Group_10306" data-name="Group 10306" transform="translate(50.754 46.128)">
          <path id="Path_9510" data-name="Path 9510" d="M1005.452,926.89c-.736-1.716,4.909,9.5,10.671,8.873,4.942-.539,5.148-9.674,5.148-9.674s-1.755,2.885-6.971,2.892c-5.817.007-8.847-2.092-8.847-2.092Z" transform="translate(-1005.387 -926.09)" fill="#eab186"/>
        </g>
        <g id="Group_10307" data-name="Group 10307" transform="translate(70.038 27.748)">
          <path id="Path_9511" data-name="Path 9511" d="M1117.029,830.84c-.132,2.465-1.768,4.381-3.65,4.279s-3.3-2.182-3.168-4.647,1.768-4.381,3.65-4.279S1117.162,828.375,1117.029,830.84Z" transform="translate(-1110.202 -826.189)" fill="#f2b588"/>
        </g>
        <g id="Group_10308" data-name="Group 10308" transform="translate(42.759 26.241)">
          <path id="Path_9512" data-name="Path 9512" d="M968.759,822.65c-.132,2.465-1.768,4.381-3.65,4.279s-3.3-2.182-3.168-4.647,1.768-4.381,3.65-4.279S968.892,820.185,968.759,822.65Z" transform="translate(-961.932 -817.999)" fill="#f2b588"/>
        </g>
        <g id="Group_10309" data-name="Group 10309" transform="translate(44.85 11.563)">
          <path id="Path_9513" data-name="Path 9513" d="M1003.776,758.936c-1.786,10.5-7.872,19.513-16.26,19.06s-12.79-8.264-14.115-20.7c-1.161-10.91,7.872-19.513,16.26-19.06S1005.619,748.108,1003.776,758.936Z" transform="translate(-973.3 -738.217)" fill="#f8bd8c"/>
        </g>
        <g id="Group_10310" data-name="Group 10310" transform="translate(41.359)">
          <path id="Path_9514" data-name="Path 9514" d="M969.039,691.073c.024.694-.083,1.812-.015,2.149a3.25,3.25,0,0,0,1.463,2.259,3.906,3.906,0,0,0,1.786.357c2.228.059,4.555-.9,6.693-.8a5.38,5.38,0,0,1,2.566,1.317c1.545,1.03,4.388.789,4.39.789,1.457,2.037,1.6,5.072,3.083,6.954a9.466,9.466,0,0,0,1.016-.8c2-1.682,2.116-1.987,1.468-4.625-.519-2.112.9-3.014,1.621-4.706.986-2.322,2.7-4.471.955-6.279a25.322,25.322,0,0,1-5.372-7.317c-.808-1.717-1.891-3.591-3.663-3.921-2.857-.532-5.032,2.607-7.907.692a8.308,8.308,0,0,0-3.28-1.753,4.971,4.971,0,0,0-3.553,1.334,19.051,19.051,0,0,1-3.976,2.874c-2.489,1.082-5.35,1.514-7.394,3.534a13.583,13.583,0,0,0-2.809,4.99c-.583,1.531-1.619,3.291-1.77,4.938-.171,1.853.909,5.823,2.375,6.995a5.556,5.556,0,0,1,1.231,1.919s2.254-4.149,2.633-5.1a14.2,14.2,0,0,1,3.514-4.3,15.654,15.654,0,0,1,2.716-1.7C967.475,690.566,969,689.83,969.039,691.073Z" transform="translate(-954.323 -675.366)" fill="#31185e"/>
        </g>
        <g id="Group_10311" data-name="Group 10311" transform="translate(50.648 28.803)">
          <path id="Path_9515" data-name="Path 9515" d="M1007.452,833.313a1.322,1.322,0,1,1-1.249-1.391A1.322,1.322,0,0,1,1007.452,833.313Z" transform="translate(-1004.81 -831.92)" fill="#1b191b"/>
        </g>
        <g id="Group_10312" data-name="Group 10312" transform="translate(66.414 29.652)">
          <path id="Path_9516" data-name="Path 9516" d="M1093.152,837.932a1.322,1.322,0,1,1-1.249-1.391A1.323,1.323,0,0,1,1093.152,837.932Z" transform="translate(-1090.51 -836.54)" fill="#1b191b"/>
        </g>
        <g id="Group_10314" data-name="Group 10314" transform="translate(47.915 23.881)">
          <g id="Group_10313" data-name="Group 10313">
            <path id="Path_9517" data-name="Path 9517" d="M990.839,807.678a.886.886,0,0,1-.335-1.7,9.233,9.233,0,0,1,7.62,0,.886.886,0,0,1-.839,1.56,7.465,7.465,0,0,0-6.1.079A.846.846,0,0,1,990.839,807.678Z" transform="translate(-989.96 -805.168)" fill="#31185e"/>
          </g>
        </g>
        <g id="Group_10316" data-name="Group 10316" transform="translate(64.013 24.657)">
          <g id="Group_10315" data-name="Group 10315">
            <path id="Path_9518" data-name="Path 9518" d="M1078.278,811.682a.885.885,0,0,1-.226-1.72,9.228,9.228,0,0,1,7.606.478.886.886,0,0,1-.936,1.5,7.453,7.453,0,0,0-6.093-.305A1,1,0,0,1,1078.278,811.682Z" transform="translate(-1077.455 -809.385)" fill="#31185e"/>
          </g>
        </g>
        <g id="Group_10317" data-name="Group 10317" transform="translate(45.091 25.721)">
          <path id="Path_9519" data-name="Path 9519" d="M1005.349,817.893h0a.93.93,0,0,0-.254-.506.665.665,0,0,0-.1-.088,0,0,0,0,0,0,0,.893.893,0,0,0-.228-.127,9.47,9.47,0,0,0-1.312-.379c-.335-.075-.87-.177-1.533-.281-.635-.1-1.387-.21-2.191-.3h-.005a33.015,33.015,0,0,0-3.58-.219h0a15.668,15.668,0,0,0-1.818.1c-.184.024-.357.046-.517.072-2.116.326-2.211.844-2.193,1.133a.053.053,0,0,1-.083.05,3.478,3.478,0,0,0-2.992-.162.054.054,0,0,1-.077-.059c.053-.305,0-.892-2.568-1.49-.05-.013-.1-.024-.153-.033a17.508,17.508,0,0,0-2.153-.309h0c-.9-.079-1.831-.114-2.721-.12h0c-1.315-.011-2.528.042-3.37.1-.326.024-.592.046-.791.07a11,11,0,0,0-1.422.25.832.832,0,0,0-.438.272l0,0a.89.89,0,0,0-.226.546c0,.017,0,.033,0,.05a.879.879,0,0,0,.523.821.943.943,0,0,1,.4.318c.326.434.408.8.8.986a.047.047,0,0,1,.031.05,10.556,10.556,0,0,0,.285,3.431,3.882,3.882,0,0,0,.981,1.694,4.148,4.148,0,0,0,1.67.964,8.726,8.726,0,0,0,2.232.4,8.251,8.251,0,0,0,2.316-.178,4.487,4.487,0,0,0,3.19-2.986,10.549,10.549,0,0,0,.684-3.643.325.325,0,0,0,.331-.077l.015,0a.552.552,0,0,0,.07-.062,3.038,3.038,0,0,1,3.678.2c.018.026,0,.048.017.07H991.8a.429.429,0,0,0,.3.121.056.056,0,0,1,.061.061,11.033,11.033,0,0,0,.329,3.632,4.5,4.5,0,0,0,2.861,3.313,8.253,8.253,0,0,0,2.287.427,8.819,8.819,0,0,0,2.261-.155,4.9,4.9,0,0,0,1.163-.4,3.666,3.666,0,0,0,1.759-1.963,10.5,10.5,0,0,0,.648-3.38.051.051,0,0,1,.037-.048c.4-.138.491-.5.861-.9a.99.99,0,0,1,.385-.263.91.91,0,0,0,.372-.248.935.935,0,0,0,.234-.565c0-.017,0-.031,0-.05A.616.616,0,0,0,1005.349,817.893Zm-18.611,3.965a4.17,4.17,0,0,1-2.969,2.791,8.685,8.685,0,0,1-4.362-.212,3.874,3.874,0,0,1-1.56-.9,3.6,3.6,0,0,1-.885-1.558,10.414,10.414,0,0,1-.241-3.61v-.007a3.422,3.422,0,0,1,1.027-1.856,1.661,1.661,0,0,1,.293-.175,10.6,10.6,0,0,1,5.782-.223c2.313.506,3.185,1.115,3.521,1.794.011.024.024.048.037.072A8.945,8.945,0,0,1,986.738,821.857Zm16.42-2.055a10.459,10.459,0,0,1-.629,3.562,3.337,3.337,0,0,1-1.7,1.856,4.658,4.658,0,0,1-.99.322,8.688,8.688,0,0,1-4.36-.261,4.183,4.183,0,0,1-2.651-3.094,9.014,9.014,0,0,1-.221-3.926.586.586,0,0,0,.044-.066c.407-.638,1.339-1.15,3.692-1.4a11.088,11.088,0,0,1,5.484.716c.086.04.167.085.241.127a2.976,2.976,0,0,1,1.093,2.16Z" transform="translate(-974.61 -815.172)" fill="#1b191b"/>
        </g>
        <g id="Group_10318" data-name="Group 10318" transform="translate(56.332 42.61)">
          <path id="Path_9520" data-name="Path 9520" d="M1038.556,908.394a5.389,5.389,0,0,1-2.791-.769.137.137,0,1,1,.156-.226,5.162,5.162,0,0,0,5.913-.4.138.138,0,1,1,.162.224A5.816,5.816,0,0,1,1038.556,908.394Z" transform="translate(-1035.705 -906.968)"/>
        </g>
        <g id="Group_10319" data-name="Group 10319" transform="translate(58.717 34.995)">
          <path id="Path_9521" data-name="Path 9521" d="M1049.471,869.536a.133.133,0,0,1-.074-.022c-.028-.017-.666-.43-.719-.94-.046-.456.143-2.771.152-2.868a.139.139,0,1,1,.276.022c-.068.824-.188,2.473-.153,2.817.031.313.438.637.593.734a.139.139,0,0,1,.042.191A.137.137,0,0,1,1049.471,869.536Z" transform="translate(-1048.671 -865.578)"/>
        </g>
        <g id="Group_10320" data-name="Group 10320" transform="translate(26.095 95.122)">
          <path id="Path_9522" data-name="Path 9522" d="M871.724,1204.917a.36.36,0,0,1-.156-.035.368.368,0,0,1-.175-.489c.4-.846,3.751-10.884,3.808-11.657a.368.368,0,0,1,.734.053c-.068.92-3.52,11.162-3.878,11.916A.369.369,0,0,1,871.724,1204.917Z" transform="translate(-871.358 -1192.395)" fill="#2245b5"/>
        </g>
        <g id="Group_10321" data-name="Group 10321" transform="translate(51.373 56.156)">
          <path id="Path_9523" data-name="Path 9523" d="M1018.907,984.69a15.174,15.174,0,0,1-5.2-1.008c-.267-.1-4.011-2.005-4.76-2.388a.368.368,0,1,1,.335-.655c1.692.863,4.46,2.267,4.678,2.353,6.546,2.384,9.681-.473,9.71-.5a.368.368,0,0,1,.508.532A7.789,7.789,0,0,1,1018.907,984.69Z" transform="translate(-1008.752 -980.598)" fill="#2245b5"/>
        </g>
        <g id="Group_10322" data-name="Group 10322" transform="translate(58.19 170.863)">
          <path id="Path_9524" data-name="Path 9524" d="M1046.177,1617.049a.368.368,0,0,1-.346-.493l4.417-12.234a.368.368,0,1,1,.692.25l-4.417,12.235A.366.366,0,0,1,1046.177,1617.049Z" transform="translate(-1045.808 -1604.078)" fill="#9e4aff"/>
        </g>
      </g>
      <g id="Group_10350" data-name="Group 10350" transform="translate(249.461 2.219)">
        <g id="Group_10348" data-name="Group 10348">
          <g id="Group_10345" data-name="Group 10345">
            <g id="Group_10324" data-name="Group 10324" transform="translate(33.717 48.965)">
              <path id="Path_9525" data-name="Path 9525" d="M1649.509,971.177l-22.019.39,1.556-18h18.517Z" transform="translate(-1627.49 -953.57)" fill="#f8bd8c"/>
            </g>
            <g id="Group_10325" data-name="Group 10325" transform="translate(28.246 14.158)">
              <path id="Path_9526" data-name="Path 9526" d="M1629.71,785.791c0,11.758-7.08,21.29-15.811,21.29s-15.811-9.532-15.811-21.29c0-4.881-1.174-12.36.878-15.951,2.89-5.06,9.824-5.339,14.932-5.339,5.08,0,11.094-1.183,13.986,3.83C1629.964,771.935,1629.71,780.873,1629.71,785.791Z" transform="translate(-1597.753 -764.379)" fill="#1a1a1a"/>
            </g>
            <g id="Group_10326" data-name="Group 10326" transform="translate(23.705)">
              <path id="Path_9527" data-name="Path 9527" d="M1611.976,714.044s1.687-16.5-.909-19.229-1.148-3.508-3.946-4.289-2.839-2.21-7.451-2.21a24.312,24.312,0,0,0-5.595-.519c-1.428,0-3.762-1.17-7.07.649s-5.416-.714-7.8,2.355-3.291,1.413-5.367,6.22.65,7.146,1.168,12.343a23.242,23.242,0,0,0,3.247,9.355l32.984-1.058Z" transform="translate(-1573.069 -687.427)" fill="#1a1a1a"/>
            </g>
            <g id="Group_10327" data-name="Group 10327" transform="translate(28.246 10.702)">
              <path id="Path_9528" data-name="Path 9528" d="M1629.71,767.011c0,11.758-7.08,21.29-15.811,21.29s-15.811-9.532-15.811-21.29c0-4.881-1.174-12.36.878-15.951,2.89-5.059,9.824-5.339,14.932-5.339,5.08,0,11.094-1.183,13.986,3.831C1629.964,753.157,1629.71,762.095,1629.71,767.011Z" transform="translate(-1597.753 -745.599)" fill="#f8bd8c"/>
            </g>
            <g id="Group_10328" data-name="Group 10328" transform="translate(25.955 29.019)">
              <path id="Path_9529" data-name="Path 9529" d="M1591.142,849.447c.2,2.5-.931,4.631-2.537,4.763s-3.074-1.786-3.281-4.285.931-4.631,2.537-4.763S1590.938,846.948,1591.142,849.447Z" transform="translate(-1585.301 -845.156)" fill="#f8bd8c"/>
            </g>
            <g id="Group_10329" data-name="Group 10329" transform="translate(56.636 29.038)">
              <path id="Path_9530" data-name="Path 9530" d="M1752.141,849.348c-.362,2.48.636,4.68,2.232,4.914s3.181-1.588,3.543-4.068-.636-4.68-2.232-4.914S1752.5,846.868,1752.141,849.348Z" transform="translate(-1752.066 -845.26)" fill="#f8bd8c"/>
            </g>
            <g id="Group_10330" data-name="Group 10330" transform="translate(31.091 21.45)">
              <path id="Path_9531" data-name="Path 9531" d="M1621.822,804.02c-.383-.011-.718,0-1.071.013s-.7.039-1.045.072c-.7.068-1.389.164-2.079.3a15.711,15.711,0,0,0-2.059.545,9.558,9.558,0,0,0-1.972.946.82.82,0,0,0,.668,1.479l.042-.013c.585-.167,1.187-.3,1.8-.412s1.24-.191,1.869-.258,1.27-.1,1.908-.134c.32-.017.64-.026.959-.035s.65-.013.935-.017h.035a1.242,1.242,0,0,0,.013-2.484Z" transform="translate(-1613.219 -804.015)" fill="#1a1a1a"/>
            </g>
            <g id="Group_10331" data-name="Group 10331" transform="translate(46.777 21.452)">
              <path id="Path_9532" data-name="Path 9532" d="M1707.91,805.9a9.508,9.508,0,0,0-1.972-.946,15.879,15.879,0,0,0-2.059-.545c-.69-.136-1.385-.232-2.079-.3-.348-.033-.7-.059-1.045-.072s-.688-.024-1.071-.013a1.242,1.242,0,0,0,.017,2.484h.031c.285,0,.62,0,.935.017s.638.02.958.035c.638.029,1.277.074,1.908.134s1.255.153,1.869.258,1.211.245,1.8.412l.044.013a.82.82,0,0,0,.666-1.479Z" transform="translate(-1698.479 -804.025)" fill="#1a1a1a"/>
            </g>
            <g id="Group_10332" data-name="Group 10332" transform="translate(35.271 28.434)">
              <path id="Path_9533" data-name="Path 9533" d="M1638.243,843.41a1.179,1.179,0,1,1-1.152-1.43A1.313,1.313,0,0,1,1638.243,843.41Z" transform="translate(-1635.94 -841.98)" fill="#1a1a1a"/>
            </g>
            <g id="Group_10333" data-name="Group 10333" transform="translate(50.302 28.434)">
              <path id="Path_9534" data-name="Path 9534" d="M1719.943,843.41a1.179,1.179,0,1,1-1.152-1.43A1.313,1.313,0,0,1,1719.943,843.41Z" transform="translate(-1717.64 -841.98)" fill="#1a1a1a"/>
            </g>
            <g id="Group_10334" data-name="Group 10334" transform="translate(42.345 32.452)">
              <path id="Path_9535" data-name="Path 9535" d="M1676.461,869.927h0c-.169-.007-1.659-.088-2-.563a.369.369,0,0,1-.053-.335c.2-.67.966-5.094.973-5.139a.092.092,0,0,1,.182.031c-.031.182-.771,4.482-.979,5.161a.187.187,0,0,0,.028.175c.241.342,1.42.467,1.854.486a.092.092,0,0,1,.088.1A.1.1,0,0,1,1676.461,869.927Z" transform="translate(-1674.39 -863.814)" fill="#2c2a30"/>
            </g>
            <g id="Group_10335" data-name="Group 10335" transform="translate(26.643 5.55)">
              <path id="Path_9536" data-name="Path 9536" d="M1589.04,724.685s3.538,5.093,6.839,4.2,5.173-4.671,6.737-2.962,4.274,1.433,6.39.1,1.424.379,4.2.815,4.129-.427,6.162,2.153,4.117,1.347,3.424-2.153-5.418-11.011-9.585-8.866S1589.04,724.685,1589.04,724.685Z" transform="translate(-1589.04 -717.591)" fill="#1a1a1a"/>
            </g>
            <g id="Group_10336" data-name="Group 10336" transform="translate(27.463 24.221)">
              <path id="Path_9537" data-name="Path 9537" d="M1626.195,819.662c-.068-.02-.136-.035-.206-.052a21.17,21.17,0,0,0-3.411-.471,31.79,31.79,0,0,0-3.6-.015h0a23.558,23.558,0,0,0-5.565.856,6.654,6.654,0,0,1-6.286,0,24.649,24.649,0,0,0-6.169-.881h-.005a30.177,30.177,0,0,0-3.757.1,18.961,18.961,0,0,0-2.87.467.014.014,0,0,0-.009,0c-.28.07-.55.145-.813.228l.127,2.355a.927.927,0,0,1,.666.138.78.78,0,0,1,.153.14,1.093,1.093,0,0,1,.208.4c.059.2.136.535.232.958.145.629.333,1.444.574,2.246a8.145,8.145,0,0,0,1.122,2.528,3.616,3.616,0,0,0,1.216.97,10.531,10.531,0,0,0,4.982.714c2.635-.114,4.362-1.286,5.1-3.273.175-.471.329-.925.473-1.35a11.673,11.673,0,0,1,1.15-2.876,1.1,1.1,0,0,1,1.533,0,10.844,10.844,0,0,1,1.108,2.754c.154.462.326.957.515,1.472.736,1.985,2.463,3.159,5.1,3.273a10.6,10.6,0,0,0,4.955-.7,3.611,3.611,0,0,0,1.24-.981,10.506,10.506,0,0,0,1.387-3.485c.116-.447.215-.874.3-1.24.1-.443.18-.8.243-1.006a1.026,1.026,0,0,1,.291-.486.456.456,0,0,1,.076-.059.906.906,0,0,1,.659-.134l.127-2.355C1626.763,819.809,1626.484,819.73,1626.195,819.662Zm-19.5,7.411a4.385,4.385,0,0,1-3.683,2.241,8.929,8.929,0,0,1-4.993-.765,1.562,1.562,0,0,1-.175-.121,4.765,4.765,0,0,1-1.223-2.331c-.1-.355-.177-.694-.236-.982-.033-.16-.072-.346-.107-.552v0c-.206-1.179-.353-2.964.587-3.615,1.1-.767,3.882-.824,5.722-.71,1.387.085,4.388.454,4.954,1.531.409.775.088,2.616-.337,3.991A8,8,0,0,1,1606.7,827.072Zm17.445-1.958c-.007.033-.015.068-.022.1a6.207,6.207,0,0,1-1.422,3.2,1.323,1.323,0,0,1-.189.134,8.935,8.935,0,0,1-4.993.765,4.379,4.379,0,0,1-3.681-2.241,8.8,8.8,0,0,1-.572-1.507c-.392-1.35-.666-3.06-.278-3.8.568-1.078,3.569-1.446,4.956-1.531,1.84-.114,4.618-.057,5.722.71,1,.69.771,2.653.55,3.821C1624.189,824.892,1624.164,825.01,1624.143,825.115Z" transform="translate(-1593.5 -819.081)" fill="#1a1a1a"/>
            </g>
            <g id="Group_10343" data-name="Group 10343" transform="translate(0 57.801)">
              <g id="Group_10337" data-name="Group 10337" transform="translate(77.184 9.153)">
                <path id="Path_9538" data-name="Path 9538" d="M1865,1051.35s13.042,5.4,15.7,8.548,11.712,30.035,11.712,44.142,2.129,35.767,0,39.844-11.712,24.293-18.1,28.958-9.006,4.316-9.006,4.316l-1.562-21,6.842-33.219-3.472-50.055Z" transform="translate(-1863.75 -1051.35)" fill="#f8b870"/>
              </g>
              <g id="Group_10338" data-name="Group 10338" transform="translate(8.438 114.212)">
                <path id="Path_9539" data-name="Path 9539" d="M1525.6,1631.826c-.655,3.058-1.487,15.051-2.246,28.241-.03.554-.062,1.108-.094,1.665H1490.2c-.362-20.068.313-39.342.313-39.342s.311.016.874.05c.287.02.64.041,1.052.07l.121.009a.092.092,0,0,1,.022,0c3,.206,8.86.681,14.825,1.564,3.117.462,6.263,1.034,9.044,1.739,3.9.986,7.089,2.232,8.465,3.792a4.122,4.122,0,0,1,.261.327v0c.052.075.1.147.144.224A2.269,2.269,0,0,1,1525.6,1631.826Z" transform="translate(-1490.089 -1622.39)" fill="#755faa"/>
              </g>
              <g id="Group_10339" data-name="Group 10339" transform="translate(22.902 117.644)">
                <path id="Path_9540" data-name="Path 9540" d="M1624.553,1641.04v35.909h-36.6l-.316-1.418-.136-.247-7.194-13.215-8.251-14.957-1.362-2.469-.155-.282-1.834-3.321Z" transform="translate(-1568.71 -1641.04)" fill="#755faa"/>
              </g>
              <g id="Group_10340" data-name="Group 10340" transform="translate(0.004)">
                <path id="Path_9541" data-name="Path 9541" d="M1477.959,1001.6h22.02l2.854,5.148,19.848,3.946s13.232,6.349,13.62,7.379,5.059,54.224,3.113,67.266-.778,27.455-2.725,33.975-80.555,2.745-80.555,2.745-15.955-96.78-10.9-101.242,30.484-11.383,31.326-12.869S1477.959,1001.6,1477.959,1001.6Z" transform="translate(-1444.246 -1001.6)" fill="#ff7c90"/>
              </g>
              <g id="Group_10341" data-name="Group 10341" transform="translate(0 5.573)">
                <path id="Path_9542" data-name="Path 9542" d="M1539.4,1110.6c-1.945,13.127-.776,27.634-2.725,34.2-.7,2.364-10.983,5.567-24.315,5.906-10.1.256-21.91-2.717-31.944-2.958q-1.137-.028-2.25-.05c-12.441-.258-22.048-.132-22.048-.132s-15.955-97.411-10.9-101.9c4.438-3.937,24.543-9.782,29.987-12.167l15.78,27.856,13.782-29.461,17.894,3.582s13.232,6.39,13.62,7.425S1541.342,1097.475,1539.4,1110.6Z" transform="translate(-1444.226 -1031.89)" fill="#f8b870"/>
              </g>
              <g id="Group_10342" data-name="Group 10342" transform="translate(76.815 42.039)">
                <path id="Path_9543" data-name="Path 9543" d="M1863.293,1256.027a.369.369,0,0,1-.368-.362l-.234-16.68c-.029-2.081-.931-8.4-.938-8.465a.368.368,0,1,1,.729-.1c.037.261.916,6.43.948,8.558l.234,16.68a.369.369,0,0,1-.363.374Z" transform="translate(-1861.749 -1230.101)" fill="#b08174"/>
              </g>
            </g>
            <g id="Group_10344" data-name="Group 10344" transform="translate(38.968 43.872)">
              <path id="Path_9544" data-name="Path 9544" d="M1656.03,925.949c.349,1.8,2.809,3.074,5.646,2.87,2.465-.177,4.423-1.413,4.879-2.929Z" transform="translate(-1656.03 -925.89)" fill="#fff"/>
            </g>
          </g>
          <g id="Group_10346" data-name="Group 10346" transform="translate(39.109 72.854)">
            <path id="Path_9545" data-name="Path 9545" d="M1664.675,1103.792a.371.371,0,0,1-.32-.186l-7.506-13.25a.368.368,0,0,1,.64-.364l7.155,12.628,8.883-18.989a.368.368,0,0,1,.666.313l-9.184,19.636a.37.37,0,0,1-.318.212Z" transform="translate(-1656.801 -1083.42)" fill="#b08174"/>
          </g>
          <g id="Group_10347" data-name="Group 10347" transform="translate(27.495 178.44)">
            <path id="Path_9546" data-name="Path 9546" d="M1632.279,1661.449a78.785,78.785,0,0,1-15.051-1.417c-13.732-2.7-23.062-1.853-23.154-1.843a.368.368,0,0,1-.07-.733c.094-.009,9.53-.861,23.365,1.855a78.9,78.9,0,0,0,26.373.554.368.368,0,0,1,.167.717A70.471,70.471,0,0,1,1632.279,1661.449Z" transform="translate(-1593.672 -1657.323)" fill="#1d1647"/>
          </g>
        </g>
        <g id="Group_10349" data-name="Group 10349" transform="translate(46.465 187.185)">
          <path id="Path_9547" data-name="Path 9547" d="M1697.148,1721.029a.369.369,0,0,1-.368-.368v-9.939a.367.367,0,0,1,.007-.077l1.168-5.5a.368.368,0,0,1,.719.153l-1.159,5.464v9.9A.369.369,0,0,1,1697.148,1721.029Z" transform="translate(-1696.78 -1704.853)" fill="#1d1647"/>
        </g>
      </g>
      <g id="Group_10379" data-name="Group 10379" transform="translate(75.768 49.485)">
        <g id="Group_10375" data-name="Group 10375">
          <g id="Group_10351" data-name="Group 10351" transform="translate(20.636 1.739)">
            <path id="Path_9548" data-name="Path 9548" d="M630.863,954.427s4.557-1.685,8.678.419c4.388,2.243,6.614,4.484,7.624,23.319s.9,28.252,1.008,29.709-35.874,1.008-35.874,1.008V962.022Z" transform="translate(-612.3 -953.789)" fill="#0b0635"/>
          </g>
          <g id="Group_10352" data-name="Group 10352" transform="translate(0 56.006)">
            <path id="Path_9549" data-name="Path 9549" d="M521.164,1248.75s-18.321,2-17.977,33.567-6.384,29.369-.881,51.854c0,0,12.448,2.519,19.583-2.57l-.723-62.1V1248.75Z" transform="translate(-500.133 -1248.75)" fill="#fcfcfc"/>
          </g>
          <g id="Group_10353" data-name="Group 10353" transform="translate(6.95 114.474)">
            <path id="Path_9550" data-name="Path 9550" d="M596.647,1616.384l.026-.221H537.91a144.884,144.884,0,0,1,3.58-14.43c.153-.53.309-1.069.467-1.608l.009-.031c.581-1.985,1.2-4.02,1.823-6.057l.03-.1c2.852-9.271,5.968-18.584,7.674-23.6a.013.013,0,0,0,0-.007c.4-1.181.727-2.125.947-2.772v0c.226-.648.348-1,.348-1h38.238c.11.318.305,1.141.567,2.359v0c.066.3.134.631.208.983.756,3.637,1.921,9.721,3.15,16.306,0,0,0,0,0,0,.1.511.191,1.021.289,1.536.55,2.953,1.108,5.974,1.645,8.892.063.342.125.681.186,1.021q.2,1.1.4,2.171c.011.063.024.125.033.186q.185,1.007.362,1.981c.116.627.226,1.24.339,1.842,1.185,6.505,2.081,11.486,2.234,12.33.017.085.024.127.024.127Z" transform="translate(-537.91 -1566.55)" fill="#ff7c90"/>
          </g>
          <g id="Group_10354" data-name="Group 10354" transform="translate(12.525 54.988)">
            <path id="Path_9551" data-name="Path 9551" d="M577.551,1244.971s-8.308,2.414-7.188,19.879-8.3,39.121,5.267,41.64l37.388-.465a6.443,6.443,0,0,0,6.362-6.443v-55l-7.837-1.36-33.992,1.751Z" transform="translate(-568.213 -1243.22)" fill="#fcfcfc"/>
          </g>
          <g id="Group_10355" data-name="Group 10355" transform="translate(31.21 39.232)">
            <path id="Path_9552" data-name="Path 9552" d="M683.3,1168.792l-13.528.407.465-11.618h12.391Z" transform="translate(-669.77 -1157.58)" fill="#f8bd8c"/>
          </g>
          <g id="Group_10356" data-name="Group 10356" transform="translate(26.833 48.727)">
            <path id="Path_9553" data-name="Path 9553" d="M649.187,1209.19h17.268a2.388,2.388,0,0,1,2.3,1.983l.981,4.993-23.759.922.883-5.8A2.4,2.4,0,0,1,649.187,1209.19Z" transform="translate(-645.98 -1209.19)" fill="#fcfcfc"/>
          </g>
          <g id="Group_10357" data-name="Group 10357" transform="translate(30.996 40.343)">
            <path id="Path_9554" data-name="Path 9554" d="M681.932,1166.713a5.612,5.612,0,0,1-4.182,3.474c-3.446.386-6.805-3.435-8.465-5.551-.331-.423-.491-.776-.675-1.016a8.04,8.04,0,0,0,1.523.758,17.2,17.2,0,0,0,6.068,1.012,10.025,10.025,0,0,0,4.539-1.012l1.047-.017Z" transform="translate(-668.61 -1163.62)" fill="#eab186"/>
          </g>
          <g id="Group_10359" data-name="Group 10359" transform="translate(24.196 9.079)">
            <g id="Group_10358" data-name="Group 10358">
              <path id="Path_9555" data-name="Path 9555" d="M657.582,1010.191c.293,9.339-5.273,17.092-12.43,17.316s-13.2-7.164-13.491-16.5,5.273-17.092,12.43-17.316S657.289,1000.852,657.582,1010.191Z" transform="translate(-631.65 -993.683)" fill="#f8bd8c"/>
            </g>
          </g>
          <g id="Group_10360" data-name="Group 10360" transform="translate(47.514 23.408)">
            <path id="Path_9556" data-name="Path 9556" d="M763.957,1074.771c0,1.934-1.678,3.8-3.061,3.8s-2.506-1.568-2.506-3.5a3.664,3.664,0,0,1,3.221-3.5C763,1071.57,763.957,1072.838,763.957,1074.771Z" transform="translate(-758.39 -1071.57)" fill="#f8bd8c"/>
          </g>
          <g id="Group_10362" data-name="Group 10362" transform="translate(38.912 18.076)">
            <g id="Group_10361" data-name="Group 10361">
              <path id="Path_9557" data-name="Path 9557" d="M718.078,1045.076a1.041,1.041,0,0,1-.315-.05,6.719,6.719,0,0,0-4.69-.048,1.01,1.01,0,0,1-.876-1.82,8.69,8.69,0,0,1,6.193-.052,1.01,1.01,0,0,1-.313,1.969Z" transform="translate(-711.633 -1042.586)"/>
            </g>
          </g>
          <g id="Group_10364" data-name="Group 10364" transform="translate(25.01 19.19)">
            <g id="Group_10363" data-name="Group 10363">
              <path id="Path_9558" data-name="Path 9558" d="M637.086,1051.619a1.009,1.009,0,0,1-.579-1.836,8.688,8.688,0,0,1,6.114-.992,1.008,1.008,0,1,1-.329,1.989,6.747,6.747,0,0,0-4.642.666A.994.994,0,0,1,637.086,1051.619Z" transform="translate(-636.076 -1048.645)"/>
            </g>
          </g>
          <g id="Group_10366" data-name="Group 10366" transform="translate(35.94 26.004)">
            <g id="Group_10365" data-name="Group 10365">
              <path id="Path_9559" data-name="Path 9559" d="M696.656,1089.8h-1.008a.167.167,0,0,1-.167-.167v-3.784a.167.167,0,1,1,.335,0v3.615h.841a.168.168,0,0,1,0,.337Z" transform="translate(-695.48 -1085.68)"/>
            </g>
          </g>
          <g id="Group_10367" data-name="Group 10367" transform="translate(28.483 23.943)">
            <path id="Path_9560" data-name="Path 9560" d="M657.191,1075.889a1.15,1.15,0,1,1-1.12-1.409A1.291,1.291,0,0,1,657.191,1075.889Z" transform="translate(-654.95 -1074.48)"/>
          </g>
          <g id="Group_10368" data-name="Group 10368" transform="translate(41.516 22.536)">
            <path id="Path_9561" data-name="Path 9561" d="M728.031,1068.237a1.15,1.15,0,1,1-1.12-1.407A1.291,1.291,0,0,1,728.031,1068.237Z" transform="translate(-725.79 -1066.83)"/>
          </g>
          <g id="Group_10369" data-name="Group 10369" transform="translate(33.084 34.281)">
            <path id="Path_9562" data-name="Path 9562" d="M679.96,1131.193c.379,1.729,2.414,2.854,4.667,2.531a4.224,4.224,0,0,0,3.729-3.054Z" transform="translate(-679.96 -1130.67)" fill="#fcfcfc"/>
          </g>
          <g id="Group_10370" data-name="Group 10370" transform="translate(14.525)">
            <path id="Path_9563" data-name="Path 9563" d="M603.413,946.347c3.518,7.056-4.975,9.591-8.191,13.408-3.514,4.175-5.944,12.415-5.755,17.9.517,14.97,5.578,26.971-4.294,40.672,2.046-8.319-1.065-14.68-3.659-22.23-2.854-8.3-2.806-16.818-1.82-25.446.741-6.5.984-17.016,5.873-21.925C588.374,945.909,601.172,941.851,603.413,946.347Z" transform="translate(-579.084 -944.337)" fill="#0b0635"/>
          </g>
          <g id="Group_10371" data-name="Group 10371" transform="translate(38.041 8.088)">
            <path id="Path_9564" data-name="Path 9564" d="M706.9,989.35a12.4,12.4,0,0,0,5.1,4.469c4.991,2.408,6.06,10.338,6.06,10.338l2.026-1.1L716.163,988.3Z" transform="translate(-706.9 -988.3)" fill="#0b0635"/>
          </g>
          <g id="Group_10372" data-name="Group 10372" transform="translate(63.785 120.328)">
            <path id="Path_9565" data-name="Path 9565" d="M849.978,1625.928l-2.486-.813a.932.932,0,0,1,.033-1c.342-.563,1.157-.545,1.553-.5a7.2,7.2,0,0,1,1.22.35,8.056,8.056,0,0,1,1.97-1.617,4.162,4.162,0,0,1,.2-2.257,3.592,3.592,0,0,1-.911-2.577s-.1-.184-.259-.469c-.131.059-.383.173-.545.267-.226.13-.247.87-.156,1.313a9.851,9.851,0,0,1,.048,2.66,1.547,1.547,0,0,1-1.674,1.323c-.918-.031-.948-.931-1.126-1.729a11.659,11.659,0,0,1-.039-2.984,12.256,12.256,0,0,0-.583-3.514,9.414,9.414,0,0,1-.175-2.449,15.266,15.266,0,0,1,.692-2.855,3.9,3.9,0,0,1,.138-2.162c.467-1.028-1.05-8.536-1.05-8.536l7.674.866-.714,8.494s2.4,5.028,3.2,7.289,1.374,3.452,1.262,4.574c0,0-1.166,4.518-2.364,5.517-1.227,1.023-3.957,2.817-4.756,2.879a24.117,24.117,0,0,1-3.144-.241,2.356,2.356,0,0,1-.889-.23s-.368.006-.085-.763S848.085,1626.18,849.978,1625.928Z" transform="translate(-846.83 -1598.37)" fill="#f8bd8c"/>
          </g>
          <g id="Group_10373" data-name="Group 10373" transform="translate(59.465 55.554)">
            <path id="Path_9566" data-name="Path 9566" d="M823.35,1246.3s10.739-.769,14.521,14.293,3.385,20.707,3.185,30.3,10.989,28.533.833,40.74a79.87,79.87,0,0,0-16.562-5.907s-1.393-1.52-.6-17.349-1.382-62.078-1.382-62.078Z" transform="translate(-823.35 -1246.294)" fill="#fcfcfc"/>
          </g>
          <g id="Group_10374" data-name="Group 10374" transform="translate(9.049 141.863)">
            <path id="Path_9567" data-name="Path 9567" d="M553.128,1715.42s-3.19.2-3.808.188c0,0,.046,4.448,1.9,5.963l.044.037Z" transform="translate(-549.32 -1715.42)" fill="#eab186"/>
          </g>
        </g>
        <g id="Group_10376" data-name="Group 10376" transform="translate(16.772 80.514)">
          <path id="Path_9568" data-name="Path 9568" d="M592.613,1411.44a.368.368,0,0,1-.366-.329,26.1,26.1,0,0,1,.434-7.381,8.6,8.6,0,0,0-.3-4.638,30.331,30.331,0,0,1-1.041-6.39c-.414-6.662,2.061-10.417,2.165-10.573a.368.368,0,1,1,.611.412c-.039.057-2.438,3.74-2.04,10.117a29.693,29.693,0,0,0,1.021,6.252,9.317,9.317,0,0,1,.3,4.977,25.8,25.8,0,0,0-.421,7.147.369.369,0,0,1-.328.4A.382.382,0,0,1,592.613,1411.44Z" transform="translate(-591.297 -1381.966)" fill="#ccdde7"/>
        </g>
        <g id="Group_10377" data-name="Group 10377" transform="translate(58.381 93.745)">
          <path id="Path_9569" data-name="Path 9569" d="M818.843,1475.788a.256.256,0,0,1-.039,0,.367.367,0,0,1-.328-.4,39.3,39.3,0,0,0,.261-8.1c-.14-1.354-.307-2.714-.469-4.027-.361-2.918-.732-5.935-.81-9a.368.368,0,0,1,.736-.018c.077,3.028.431,5.895.806,8.929.162,1.317.331,2.679.471,4.04a39.937,39.937,0,0,1-.261,8.251A.37.37,0,0,1,818.843,1475.788Z" transform="translate(-817.459 -1453.878)" fill="#ccdde7"/>
        </g>
        <g id="Group_10378" data-name="Group 10378" transform="translate(19.575 117.891)">
          <path id="Path_9570" data-name="Path 9570" d="M629.093,1585.856H606.9a.368.368,0,0,1,0-.736h22.2a.368.368,0,1,1,0,.736Z" transform="translate(-606.53 -1585.12)" fill="#dc4070"/>
        </g>
      </g>
      <g id="Group_10402" data-name="Group 10402" transform="translate(358.996 5.217)">
        <g id="Group_10380" data-name="Group 10380" transform="translate(43.851 44.616)">
          <rect id="Rectangle_4486" data-name="Rectangle 4486" width="18.256" height="16.462" fill="#f8bd8c"/>
        </g>
        <g id="Group_10381" data-name="Group 10381" transform="translate(43.849 45.952)">
          <path id="Path_9571" data-name="Path 9571" d="M2296.186,953.5v5.118a8.72,8.72,0,0,1-5.462,2.633c-4.934.443-9.76-3.221-12.794-6.058v-1.7l.044.013a35.507,35.507,0,0,0,10.159,1.349,20.376,20.376,0,0,0,7.6-1.349Z" transform="translate(-2277.93 -953.49)" fill="#eab186"/>
        </g>
        <g id="Group_10382" data-name="Group 10382" transform="translate(34.865 25.815)">
          <path id="Path_9572" data-name="Path 9572" d="M2234.75,848.794c.227,2.751-.848,5.083-2.4,5.212s-3-2-3.223-4.748.848-5.083,2.4-5.212S2234.524,846.042,2234.75,848.794Z" transform="translate(-2229.096 -844.04)" fill="#f2b588"/>
        </g>
        <g id="Group_10383" data-name="Group 10383" transform="translate(64.875 25.826)">
          <path id="Path_9573" data-name="Path 9573" d="M2397.879,849.406c-.327,2.741-1.845,4.813-3.393,4.629s-2.537-2.555-2.211-5.3,1.845-4.813,3.393-4.629S2398.207,846.665,2397.879,849.406Z" transform="translate(-2392.213 -844.098)" fill="#f2b588"/>
        </g>
        <g id="Group_10384" data-name="Group 10384" transform="translate(38.06 10.843)">
          <ellipse id="Ellipse_371" data-name="Ellipse 371" cx="14.816" cy="19.754" rx="14.816" ry="19.754" fill="#f8bd8c"/>
        </g>
        <g id="Group_10385" data-name="Group 10385" transform="translate(27.59 0.717)">
          <path id="Path_9574" data-name="Path 9574" d="M2211.193,708.488c-.442,0-4.41-2.911-9.525,1.939s-3.939,3.91-5.35,5.2-1.058,2.659-2.94,3.856-2.233,1.786-1.411,3.2,1.4,2.822-.418,3.762-2.522,1.176-1.581,2,.147,1.911,2.263,2.263,3.262.578,3.615,1.479,1.146.9,2.2,1.255,1.235.53,1.588,1.058.732.353.732.353,2.138-5.218,2.246-7.458.813.052,2.489-2.241,2.017-2.1,3.439-3.9a14.688,14.688,0,0,1,1.746-1.956C2211.456,718.013,2211.193,708.488,2211.193,708.488Z" transform="translate(-2189.552 -707.622)" fill="#692478"/>
        </g>
        <g id="Group_10387" data-name="Group 10387" transform="translate(52.487 32.179)">
          <g id="Group_10386" data-name="Group 10386">
            <path id="Path_9575" data-name="Path 9575" d="M2325.385,882.956c-.169,0-.293-.005-.339-.007a.176.176,0,0,1,.016-.351c.7.033,1.914-.042,2.193-.377s.14-2.177-.039-3.389a.177.177,0,0,1,.35-.052c.075.513.429,3.106-.039,3.667C2327.151,882.9,2325.981,882.956,2325.385,882.956Z" transform="translate(-2324.878 -878.629)" fill="#080305"/>
          </g>
        </g>
        <g id="Group_10388" data-name="Group 10388" transform="translate(48.085 40.471)">
          <path id="Path_9576" data-name="Path 9576" d="M2300.95,923.7h9.788s-3.117,5.129-7.926,1.809C2302.648,925.395,2300.95,923.7,2300.95,923.7Z" transform="translate(-2300.95 -923.7)" fill="#fff"/>
        </g>
        <g id="Group_10389" data-name="Group 10389" transform="translate(41.6 22.62)">
          <path id="Path_9577" data-name="Path 9577" d="M2273.474,828.177c-.574.061-1.178.107-1.761.153s-1.17.1-1.748.158-1.148.136-1.711.215-1.111.2-1.659.309l-.035.007a.715.715,0,0,1-.484-1.33,7.863,7.863,0,0,1,1.838-.684,12.845,12.845,0,0,1,1.891-.293,15.041,15.041,0,0,1,1.888-.018,11.225,11.225,0,0,1,1.878.243.628.628,0,0,1-.07,1.236Z" transform="translate(-2265.701 -826.672)" fill="#080305"/>
        </g>
        <g id="Group_10390" data-name="Group 10390" transform="translate(55.891 22.621)">
          <path id="Path_9578" data-name="Path 9578" d="M2343.872,826.943a11.013,11.013,0,0,1,1.878-.243,15.765,15.765,0,0,1,1.887.018,12.857,12.857,0,0,1,1.892.292,7.84,7.84,0,0,1,1.838.684.715.715,0,0,1-.482,1.33l-.037-.007c-.548-.112-1.1-.217-1.66-.309s-1.135-.155-1.711-.215-1.161-.109-1.748-.158-1.185-.092-1.761-.153l-.028,0a.628.628,0,0,1-.557-.69A.636.636,0,0,1,2343.872,826.943Z" transform="translate(-2343.381 -826.68)" fill="#080305"/>
        </g>
        <g id="Group_10391" data-name="Group 10391" transform="translate(44.205 27.392)">
          <path id="Path_9579" data-name="Path 9579" d="M2282.3,854.212a1.265,1.265,0,1,1-1.22-1.6A1.451,1.451,0,0,1,2282.3,854.212Z" transform="translate(-2279.86 -852.61)" fill="#080305"/>
        </g>
        <g id="Group_10392" data-name="Group 10392" transform="translate(58.805 27.392)">
          <path id="Path_9580" data-name="Path 9580" d="M2361.659,854.212a1.265,1.265,0,1,1-1.22-1.6A1.451,1.451,0,0,1,2361.659,854.212Z" transform="translate(-2359.22 -852.61)" fill="#080305"/>
        </g>
        <g id="Group_10393" data-name="Group 10393" transform="translate(46.644)">
          <path id="Path_9581" data-name="Path 9581" d="M2293.2,712.1s.353,6.927,6.879,8.634c0,0,1.853-.189,3.264,2.467s-.088,2.371,1.588,3.225,1.5-.1,4.145,1.043,1.764,1.921,3.7,3.049,5.733.272,6.261-.675,1.411-1.233,1.676-2.182a32.421,32.421,0,0,0,0-5.124s-3.175-2.278-4.233-4.934.353-3.8-1.939-5.5-5.819-3.225-6.526-3.985-1.588-4.554-4.585-4.364-6.7-.109-8.025-.007a2.575,2.575,0,0,0-2.2,2.475C2293.02,707.452,2293.2,712.1,2293.2,712.1Z" transform="translate(-2293.119 -703.723)" fill="#692478"/>
        </g>
        <g id="Group_10394" data-name="Group 10394" transform="translate(16.05 146.336)">
          <path id="Path_9582" data-name="Path 9582" d="M2202.05,1561.139h-33.825c-.683-8.849-1.282-17.9-1.37-23.3-.019-1.086,0-2.728,0-2.728l-1.6,26.024H2126.83c.029-7.313.419-16.231,1.464-26.795.037-.361.073-.725.112-1.087q.535-5.263,1.3-11.062.273-2.073.581-4.219.328-2.279.7-4.636.268-1.741.563-3.527c.09-.559.184-1.124.28-1.689v0c.167-.992.337-1.991.517-3q.513-2.945,1.089-6h62.575s.269,1.082.694,3.032c.149.672.313,1.444.491,2.313a.041.041,0,0,1,0,.015c.031.153.064.309.1.467.379,1.849.815,4.086,1.268,6.64.353,1.983.716,4.156,1.071,6.482.585,3.836,1.152,8.091,1.614,12.606q.113,1.107.221,2.235A180,180,0,0,1,2202.05,1561.139Z" transform="translate(-2126.83 -1499.12)" fill="#ff7c90"/>
        </g>
        <g id="Group_10395" data-name="Group 10395" transform="translate(77.621 61.802)">
          <path id="Path_9583" data-name="Path 9583" d="M2462.805,1039.64s13.7,4.288,16.49,6.789,12.3,23.855,12.3,35.059,2.236,28.408,0,31.646-12.3,19.3-19.007,23-9.456,3.427-9.456,3.427l-1.641-16.679,7.184-26.385-3.645-39.758Z" transform="translate(-2461.49 -1039.64)" fill="#755faa"/>
        </g>
        <g id="Group_10396" data-name="Group 10396" transform="translate(13.537 57.191)">
          <path id="Path_9584" data-name="Path 9584" d="M2135.771,1015.929c1.5-.561,5.528-1.7,8.345-.655s9.6,2.1,12.829.655a18.089,18.089,0,0,1,10.327-1.014c2.92.622,11.16,2.325,15.958,6.259s7.716,78.15,3.284,84.446c-1.549,2.2-9.261,9.692-21.474,7.444-9.758-1.8-20.823,6.057-31.234.71a35.8,35.8,0,0,0-14.619-4.219s-9.8-65.563-4.38-80.511C2114.806,1029.043,2115.432,1023.534,2135.771,1015.929Z" transform="translate(-2113.171 -1014.58)" fill="#755faa"/>
        </g>
        <g id="Group_10397" data-name="Group 10397" transform="translate(55.707 170.685)">
          <path id="Path_9585" data-name="Path 9585" d="M2342.747,1643.479h-.013a.368.368,0,0,1-.355-.381c.063-1.9,1.091-3.247,2.646-5.295a50.263,50.263,0,0,0,4.13-6.152.367.367,0,0,1,.64.361,50.891,50.891,0,0,1-4.186,6.235c-1.521,2-2.441,3.212-2.5,4.874A.367.367,0,0,1,2342.747,1643.479Z" transform="translate(-2342.378 -1631.464)" fill="#1d1647"/>
        </g>
        <g id="Group_10398" data-name="Group 10398" transform="translate(0 59.55)">
          <path id="Path_9586" data-name="Path 9586" d="M2075.987,1027.4s-11.177,6.842-16,9.681a23.9,23.9,0,0,0-9.087,9.388c-1.113,2.4-3.709,4.585-3.523,6.114s-4.265,8.079-5.192,13.537-2.6,23.581-2.6,24.236,2.968,15.721,2.968,15.721,8.715,10.479,10.57,12.882,7.418,6.333,8.16,6.333,5.378-3.711,5.192-7.423-1.483-14.411-2.781-16.157a29.534,29.534,0,0,1-3.194-4.428,11.625,11.625,0,0,1-.7-1.685c-.927-2.839,1.669-9.607,1.669-9.607s8.345-24.017,7.974-27.291,2.41-14.847,1.669-17.9S2075.987,1027.4,2075.987,1027.4Z" transform="translate(-2039.59 -1027.4)" fill="#755faa"/>
        </g>
        <g id="Group_10399" data-name="Group 10399" transform="translate(30.728 154.183)">
          <path id="Path_9587" data-name="Path 9587" d="M2216.29,1546.067c-6.518,0-9.471-3.543-9.6-3.7a.367.367,0,1,1,.57-.464c.046.055,3.071,3.643,9.641,3.417a47.666,47.666,0,0,0,10.858-1.441c.475-.114.924-.223,1.38-.322,4.156-.913,9.918-2,11.969-.856a.368.368,0,1,1-.357.644c-2.046-1.135-9.127.42-11.454.931-.447.1-.894.206-1.365.318a48.4,48.4,0,0,1-11.006,1.461C2216.712,1546.063,2216.5,1546.067,2216.29,1546.067Z" transform="translate(-2206.609 -1541.769)" fill="#1d1647"/>
        </g>
        <g id="Group_10400" data-name="Group 10400" transform="translate(21.103 100.717)">
          <path id="Path_9588" data-name="Path 9588" d="M2155.071,1276.378a.369.369,0,0,1-.361-.293,15.006,15.006,0,0,1,1.271-10.593,55.672,55.672,0,0,0,3.6-8.695c.62-1.772,1.258-3.6,2.016-5.409a.368.368,0,1,1,.679.285c-.749,1.786-1.385,3.606-2,5.367a57.277,57.277,0,0,1-3.65,8.807,14.294,14.294,0,0,0-1.2,10.088.368.368,0,0,1-.283.436A.553.553,0,0,1,2155.071,1276.378Z" transform="translate(-2154.293 -1251.162)" fill="#1d1647"/>
        </g>
        <g id="Group_10401" data-name="Group 10401" transform="translate(43.483 57.321)">
          <path id="Path_9589" data-name="Path 9589" d="M2283.965,1017.641c-2.8,0-7.56-1.564-7.775-1.636a.368.368,0,0,1,.232-.7c.055.018,5.565,1.827,8.064,1.573a19.988,19.988,0,0,1,2.982-.086,2.515,2.515,0,0,0,.85-.035.367.367,0,0,1,.4.618,2.2,2.2,0,0,1-1.275.151,19.266,19.266,0,0,0-2.881.083A4.667,4.667,0,0,1,2283.965,1017.641Z" transform="translate(-2275.937 -1015.287)" fill="#1d1647"/>
        </g>
      </g>
      <g id="Group_10434" data-name="Group 10434" transform="translate(421.839 47.216)">
        <g id="Group_10403" data-name="Group 10403" transform="translate(16.705 0.004)">
          <path id="Path_9590" data-name="Path 9590" d="M2538.9,982.034c-3.146,4.046-8.091,7.341-13.338,7.49-.5.013-1.352.072-2.491.162-8.344.66-31.931,3.139-42.35,4.244-3.111.327-5.048.539-5.058.539-1.249.134-2.193-4.414-2.239-5.083a11.918,11.918,0,0,1,1.794-6.563c1.143-2.027,3.641-4.382,2.719-6.932-.813-2.261-3.937-2.734-5.295-4.715a5,5,0,0,1-.05-4.945,11.83,11.83,0,0,1,5.543-5.264c1.974-.909,3.672-1.968,4.559-3.808a6.189,6.189,0,0,0,.467-1.348c.616-2.769.053-6.257,1.943-8.689,1.573-2.024,5.394-4.158,8.991-8.2q.85-.958,1.735-1.8c.131-.125.265-.252.4-.373,3.034-2.782,6.27-4.5,8.991-4.684,3.372-.224,8.991.561,10.228,3.821s2.809,2.809,4.833,4.046,6.631,2.248,7.677,9.291a25.722,25.722,0,0,1-.022,7.179,2.575,2.575,0,0,0,.881,2.068,7.959,7.959,0,0,0,.94.791c3.448,2.548,7.044,4.644,9.144,7.944S2542.052,977.989,2538.9,982.034Z" transform="translate(-2471.967 -932.026)" fill="#231347"/>
        </g>
        <g id="Group_10404" data-name="Group 10404" transform="translate(64.331 24.378)">
          <path id="Path_9591" data-name="Path 9591" d="M2750.147,1090.144c-3.146,4.045-8.092,7.341-13.339,7.49-.5.013-1.354.072-2.491.162a20.149,20.149,0,0,0,.4-4.955c-.287-2.7-.458-1.5-1.056-3.3s1.2-4.644,1.046-6.743-2.544-3.444-3.6-7.192a6.475,6.475,0,0,1,1.234-6.094l6.835-5a2.575,2.575,0,0,0,.882,2.068,8.178,8.178,0,0,0,.94.791c3.448,2.548,7.045,4.644,9.144,7.944S2753.293,1086.1,2750.147,1090.144Z" transform="translate(-2730.836 -1064.51)" fill="#31185e"/>
        </g>
        <g id="Group_10405" data-name="Group 10405" transform="translate(42.315 38.787)">
          <path id="Path_9592" data-name="Path 9592" d="M2627.114,1159.5a22,22,0,0,1-4.463,1.42h-7.9a19.927,19.927,0,0,1-3.582-1.1l.094-4.266.642-10.1.051-.8.116-1.827,13.2.355.219,1.722.429,3.372.933,7.352Z" transform="translate(-2611.17 -1142.83)" fill="#f8bd8c"/>
        </g>
        <g id="Group_10406" data-name="Group 10406" transform="translate(60.681 24.841)">
          <path id="Path_9593" data-name="Path 9593" d="M2716.407,1070.886a2.768,2.768,0,1,1-1.834-3.782A2.99,2.99,0,0,1,2716.407,1070.886Z" transform="translate(-2710.993 -1067.025)" fill="#f8bd8c"/>
        </g>
        <g id="Group_10407" data-name="Group 10407" transform="translate(19.719 51.515)">
          <path id="Path_9594" data-name="Path 9594" d="M2551.2,1220.065l-2.653,62.016-19.581.618-37.622,1.185-3-64.834,22.692-7.039s5.4,4.052,15.594.074a10.024,10.024,0,0,1,2.9.5c2.454.609,6.123,1.671,9.75,2.76a12.12,12.12,0,0,0,6.594,2.738A14.309,14.309,0,0,1,2551.2,1220.065Z" transform="translate(-2488.35 -1212.01)" fill="#fff"/>
        </g>
        <g id="Group_10408" data-name="Group 10408" transform="translate(16.709 4.722)">
          <path id="Path_9595" data-name="Path 9595" d="M2493.366,985.859s1.2,6.1-.975,9.994-3.071,4.123-2.171,7.677,1.093,2.75.9,4.828c-.1,1.115-5.385,4.132-10.375,6.5-3.111.327-5.049.539-5.058.539-1.249.134-2.193-4.414-2.239-5.083a11.916,11.916,0,0,1,1.794-6.563c1.142-2.027,3.641-4.382,2.719-6.932-.813-2.261-3.937-2.734-5.3-4.715a5,5,0,0,1-.05-4.945,11.83,11.83,0,0,1,5.543-5.264c1.974-.909,3.672-1.969,4.559-3.808a6.19,6.19,0,0,0,.467-1.349c.616-2.769.053-6.257,1.943-8.689,1.573-2.024,5.394-4.158,8.991-8.2q.85-.958,1.735-1.8c.131-.125.265-.252.4-.373l1.28,14.3Z" transform="translate(-2471.987 -957.67)" fill="#31185e"/>
        </g>
        <g id="Group_10409" data-name="Group 10409" transform="translate(37.114 8.501)">
          <path id="Path_9596" data-name="Path 9596" d="M2608.3,995.743c0,9.683-5.534,17.531-12.361,17.531s-13.037-7.4-13.037-17.082,6.209-17.982,13.037-17.982S2608.3,986.06,2608.3,995.743Z" transform="translate(-2582.9 -978.21)" fill="#f8bd8c"/>
        </g>
        <g id="Group_10410" data-name="Group 10410" transform="translate(39.278 19.135)">
          <path id="Path_9597" data-name="Path 9597" d="M2600.5,1038.234a9.357,9.357,0,0,0-1.157-.265,11.942,11.942,0,0,0-1.231-.147,12.348,12.348,0,0,0-2.474.073l-.013,0a.853.853,0,0,1-.25-1.687,14.171,14.171,0,0,1,2.83-.188,13.568,13.568,0,0,1,1.415.118,10.771,10.771,0,0,1,1.444.283.95.95,0,0,1-.5,1.834l-.031-.009Z" transform="translate(-2594.661 -1036.014)"/>
        </g>
        <g id="Group_10411" data-name="Group 10411" transform="translate(52.121 19.305)">
          <path id="Path_9598" data-name="Path 9598" d="M2665.191,1037.266a10.893,10.893,0,0,1,1.452-.247,14.275,14.275,0,0,1,4.242.175.853.853,0,0,1-.291,1.682l-.013,0a12.332,12.332,0,0,0-2.472-.134c-.414.016-.826.059-1.234.116a9.383,9.383,0,0,0-1.163.237l-.031.009a.95.95,0,1,1-.524-1.827Z" transform="translate(-2664.467 -1036.936)"/>
        </g>
        <g id="Group_10412" data-name="Group 10412" transform="translate(42.06 22.823)">
          <path id="Path_9599" data-name="Path 9599" d="M2612.1,1057.385a1.171,1.171,0,1,1-1.161-1.325A1.251,1.251,0,0,1,2612.1,1057.385Z" transform="translate(-2609.78 -1056.06)"/>
        </g>
        <g id="Group_10413" data-name="Group 10413" transform="translate(54.103 23.048)">
          <path id="Path_9600" data-name="Path 9600" d="M2677.562,1058.6a1.171,1.171,0,1,1-1.161-1.325A1.251,1.251,0,0,1,2677.562,1058.6Z" transform="translate(-2675.24 -1057.28)"/>
        </g>
        <g id="Group_10414" data-name="Group 10414" transform="translate(34.685 24.921)">
          <path id="Path_9601" data-name="Path 9601" d="M2575.131,1069.022a2.912,2.912,0,1,1-4.156-1.148A3.054,3.054,0,0,1,2575.131,1069.022Z" transform="translate(-2569.696 -1067.461)" fill="#f8bd8c"/>
        </g>
        <g id="Group_10415" data-name="Group 10415" transform="translate(40.185)">
          <path id="Path_9602" data-name="Path 9602" d="M2632.964,958.448c-1.974,1.726-4.342,3.772-4.6,4.163-.449.675-4.436.758-3.781-.281.215-.342,1.083-5.449-1.95-5s-3.258-1.349-4.042-2.585-.118-4.495,0-5.659-1.573-2.881-3.709-2.1-6.519,2.7-7.755,1.91-.224-3.258-3.821-2.7-3.709-4.158-3.709-4.158l.386-4.945c3.151-3,6.55-4.868,9.39-5.058,3.373-.224,8.991.561,10.227,3.821s2.81,2.809,4.833,4.046,6.631,2.248,7.677,9.291C2633.041,955.45,2631.017,956.506,2632.964,958.448Z" transform="translate(-2599.59 -932.006)" fill="#31185e"/>
        </g>
        <g id="Group_10416" data-name="Group 10416" transform="translate(23.353 119.475)">
          <path id="Path_9603" data-name="Path 9603" d="M2567.192,1628.281H2508.1c.247-9.077,2.351-19.643,4.491-28.232q.32-1.289.64-2.513c1.489-5.711,2.905-10.281,3.628-12.522.313-.971.493-1.5.493-1.5l7.974-.427,2.272-.123,17.8-.955,11.291-.605s.046.874.211,2.353a70.016,70.016,0,0,0,3.232,14.667,45.952,45.952,0,0,0,2.628,6.189C2565.686,1610.259,2566.793,1620.291,2567.192,1628.281Z" transform="translate(-2508.1 -1581.4)" fill="#f8b870"/>
        </g>
        <g id="Group_10417" data-name="Group 10417" transform="translate(9.793 51.399)">
          <path id="Path_9604" data-name="Path 9604" d="M2464.576,1211.387a.3.3,0,0,1,.351.322c-.285,2.934-2.086,21.325-2.5,22.153-.449.9-.9,4.646-1.049,7.642a75.055,75.055,0,0,0,0,8.242,105.614,105.614,0,0,0,1.049,11.537c.449,2.846,2.322,12.925,2.436,15.734a29.549,29.549,0,0,0,.787,6.528c.563,2.463,1.461,4.824,1.236,6.509s-23.489,8.54-23.489,8.54a6.614,6.614,0,0,1-2.7-4.046c-.337-2.473-1.91-3.709-2.248-6.294s-1.2-17.752.6-25.06-4.945-12.7-4.646-13.9.224-22.289,2.36-24.313,7.5-6.967,11.688-7.418,5.731-2.248,7.979-3.709C2458.343,1212.616,2463.17,1211.648,2464.576,1211.387Z" transform="translate(-2434.397 -1211.381)" fill="#69f"/>
        </g>
        <g id="Group_10418" data-name="Group 10418" transform="translate(25.313 53.677)">
          <path id="Path_9605" data-name="Path 9605" d="M2527.072,1260.26a.37.37,0,0,1-.3-.158,2.329,2.329,0,0,1-.11-2.427,4.766,4.766,0,0,0,.064-3.588,16.724,16.724,0,0,0-2.14-4.018,10.475,10.475,0,0,1-2-4.285,15.118,15.118,0,0,1,.839-5.188c.541-2,1.1-4.077.616-4.986a10.359,10.359,0,0,0-2.714-2.671,8.348,8.348,0,0,1-2.485-2.5c-.23-.521-.2-1.511,2.758-4.084,1.54-1.343,3.187-2.511,3.2-2.522a.368.368,0,1,1,.425.6c-3.03,2.143-6.047,4.949-5.713,5.709a8.084,8.084,0,0,0,2.269,2.221,10.836,10.836,0,0,1,2.907,2.9c.622,1.167.05,3.282-.556,5.523a14.826,14.826,0,0,0-.821,4.9,9.8,9.8,0,0,0,1.88,3.98,17.634,17.634,0,0,1,2.223,4.191,5.518,5.518,0,0,1-.07,4.066c-.252.714-.4,1.145.022,1.763a.367.367,0,0,1-.094.511A.349.349,0,0,1,2527.072,1260.26Z" transform="translate(-2518.757 -1223.763)" fill="#2245b5"/>
        </g>
        <g id="Group_10419" data-name="Group 10419" transform="translate(0 59.829)">
          <path id="Path_9606" data-name="Path 9606" d="M2393.33,1262.6c-.6,1.269-8.134,9-8.9,14.634s-3.468,7.744-3.243,14.783-.675,9.387,2.473,12.906,3.146,6.57,5.394,11.029-.206,6.57,4.279,9.387,6.285-12.2,9.655-15.018,1.348-2.41,0-7.07-6.967-9.12-7.192-10.763,1.424-3.735,1.8-5.03c.3-1.045,3.146-25.461,3.6-28.526s-2.371-1.126-2.371-1.126Z" transform="translate(-2381.168 -1257.202)" fill="#69f"/>
        </g>
        <g id="Group_10420" data-name="Group 10420" transform="translate(14.654 74.526)">
          <path id="Path_9607" data-name="Path 9607" d="M2464.447,1383.111a.365.365,0,0,1-.138-.028.37.37,0,0,1-.2-.48c1.66-4.066,2.026-4.524,2.631-5.28a12.622,12.622,0,0,0,.879-1.218,11.4,11.4,0,0,1,1.284-1.7,1.756,1.756,0,0,0,.554-1.2,2.546,2.546,0,0,0-.973-2.156c-.209-.085-.285-.418-.813-3.262-.432-2.32-2.285-6.338-4.5-7.536-1.084-.583-2.329-1.429-2.346-2.8a5.525,5.525,0,0,1,.51-2.072l.065-.166a42.722,42.722,0,0,0,2.246-10.084c.158-1.288.2-2.6.232-3.869s.072-2.565.228-3.858a.368.368,0,1,1,.73.087c-.151,1.26-.187,2.546-.223,3.792-.037,1.286-.074,2.616-.237,3.937a43.347,43.347,0,0,1-2.289,10.259l-.064.167a4.968,4.968,0,0,0-.46,1.8c.011.979,1,1.639,1.96,2.158,2.452,1.321,4.41,5.523,4.879,8.049.381,2.049.526,2.664.576,2.844a3.245,3.245,0,0,1,1.212,2.839,2.437,2.437,0,0,1-.734,1.562,10.688,10.688,0,0,0-1.211,1.6,13,13,0,0,1-.923,1.281c-.565.7-.905,1.131-2.524,5.1A.375.375,0,0,1,2464.447,1383.111Zm4.539-12.544h0Z" transform="translate(-2460.819 -1337.086)" fill="#2245b5"/>
        </g>
        <g id="Group_10421" data-name="Group 10421" transform="translate(42.482 119.52)">
          <path id="Path_9608" data-name="Path 9608" d="M2612.446,1583.532a.368.368,0,0,1-.02-.736l21.172-1.148a.369.369,0,0,1,.041.736l-21.173,1.148A.07.07,0,0,0,2612.446,1583.532Z" transform="translate(-2612.077 -1581.647)" fill="#b08174"/>
        </g>
        <g id="Group_10422" data-name="Group 10422" transform="translate(58.779 51.614)">
          <path id="Path_9609" data-name="Path 9609" d="M2728.525,1264.146c1.8,7.306.937,22.475.6,25.06s-1.911,3.821-2.248,6.292a6.427,6.427,0,0,1-2.476,3.886.525.525,0,0,1-.473.087c-2.515-.747-23.027-6.885-23.237-8.467-.226-1.685.675-4.046,1.234-6.509.112-.495.208-.94.287-1.36a31.44,31.44,0,0,0,.5-5.168c.112-2.809,1.983-12.886,2.434-15.734a106.157,106.157,0,0,0,1.049-11.537,75.182,75.182,0,0,0,0-8.242c-.151-3-.6-6.743-1.049-7.642-.4-.8-2.029-18.028-2.374-21.686a.411.411,0,0,1,0-.107.526.526,0,0,1,.613-.464c1.667.278,5.959,1.085,7.751,2.252.482.315.933.644,1.385.971a12.121,12.121,0,0,0,6.594,2.738,14.376,14.376,0,0,1,5.326,1.985,20.224,20.224,0,0,1,6.622,5.93c2.416,3.841,1.5,9.365,1.687,13.664.14,3.185-.365,7.041.414,10.15C2733.469,1251.446,2726.728,1256.838,2728.525,1264.146Z" transform="translate(-2700.656 -1212.547)" fill="#5994fb"/>
        </g>
        <g id="Group_10423" data-name="Group 10423" transform="translate(65.536 53.675)">
          <path id="Path_9610" data-name="Path 9610" d="M2738.086,1260.528a.373.373,0,0,1-.21-.066.369.369,0,0,1-.094-.511c.427-.616.274-1.049.022-1.763a5.537,5.537,0,0,1-.07-4.066,17.651,17.651,0,0,1,2.223-4.191,9.793,9.793,0,0,0,1.88-3.98,14.828,14.828,0,0,0-.821-4.9c-.605-2.241-1.177-4.357-.556-5.523a10.834,10.834,0,0,1,2.907-2.9,8.081,8.081,0,0,0,2.268-2.221c.351-.8-2.366-3.737-5.087-6.005a.368.368,0,1,1,.471-.567c1.427,1.188,6.025,5.2,5.287,6.868a8.392,8.392,0,0,1-2.486,2.5,10.415,10.415,0,0,0-2.713,2.672c-.484.909.075,2.98.616,4.986a15.12,15.12,0,0,1,.839,5.188,10.463,10.463,0,0,1-2,4.285,16.841,16.841,0,0,0-2.139,4.02,4.776,4.776,0,0,0,.064,3.588,2.337,2.337,0,0,1-.11,2.427A.351.351,0,0,1,2738.086,1260.528Z" transform="translate(-2737.384 -1223.75)" fill="#2245b5"/>
        </g>
        <g id="Group_10424" data-name="Group 10424" transform="translate(77.345 59.829)">
          <path id="Path_9611" data-name="Path 9611" d="M2813.07,1262.6c.6,1.269,8.134,9,8.9,14.634s3.468,7.744,3.241,14.783.676,9.387-2.472,12.906-3.146,6.57-5.395,11.029.206,6.57-4.279,9.387-6.285-12.2-9.655-15.018-1.348-2.41,0-7.07,6.967-9.12,7.192-10.763-1.424-3.735-1.8-5.03c-.3-1.045-3.146-25.461-3.6-28.526s2.371-1.126,2.371-1.126Z" transform="translate(-2801.569 -1257.202)" fill="#69f"/>
        </g>
        <g id="Group_10425" data-name="Group 10425" transform="translate(71.94 91.24)">
          <path id="Path_9612" data-name="Path 9612" d="M2777.6,1461.479a.372.372,0,0,1-.329-.2,11.053,11.053,0,0,0-2.224-2.73c-.254-.232-.5-.445-.747-.65-1.3-1.1-2.428-2.049-2.018-4.708a5.959,5.959,0,0,1,1.2-2.9,8.18,8.18,0,0,0,1.459-3.343c.85-3.727,6.346-18.168,6.579-18.781a.368.368,0,0,1,.688.261c-.057.149-5.711,15.005-6.548,18.683a8.914,8.914,0,0,1-1.571,3.6,5.287,5.287,0,0,0-1.074,2.592c-.346,2.25.495,2.96,1.766,4.035.248.21.506.427.771.67a11.532,11.532,0,0,1,2.383,2.94.368.368,0,0,1-.162.495A.439.439,0,0,1,2777.6,1461.479Z" transform="translate(-2772.194 -1427.93)" fill="#2245b5"/>
        </g>
        <g id="Group_10426" data-name="Group 10426" transform="translate(45.968 138.243)">
          <path id="Path_9613" data-name="Path 9613" d="M2636.284,1710.227a.369.369,0,0,1-.368-.368v-21.816l-4.762-3.979a.368.368,0,1,1,.473-.565l4.892,4.09a.371.371,0,0,1,.133.282v21.987A.368.368,0,0,1,2636.284,1710.227Z" transform="translate(-2631.022 -1683.412)" fill="#b08174"/>
        </g>
        <g id="Group_10427" data-name="Group 10427" transform="translate(43.053 40.614)">
          <path id="Path_9614" data-name="Path 9614" d="M2629.2,1156.381a6.133,6.133,0,0,1-4.312,2.62c-3.885.383-7.679-3.223-9.7-5.442l.052-.8c.2.083.431.171.7.256a22.809,22.809,0,0,0,7.136,1.043,13.183,13.183,0,0,0,5.339-1.043l.368-.005Z" transform="translate(-2615.18 -1152.76)" fill="#eab186"/>
        </g>
        <g id="Group_10429" data-name="Group 10429" transform="translate(48.47 25.533)">
          <g id="Group_10428" data-name="Group 10428">
            <path id="Path_9615" data-name="Path 9615" d="M2645.8,1074.909h-1.008a.168.168,0,0,1-.167-.167v-3.784a.167.167,0,1,1,.335,0v3.615h.841a.168.168,0,0,1,0,.337Z" transform="translate(-2644.62 -1070.79)"/>
          </g>
        </g>
        <g id="Group_10430" data-name="Group 10430" transform="translate(46.524 33.888)">
          <path id="Path_9616" data-name="Path 9616" d="M2636.515,1118.32a6.824,6.824,0,0,1-2.347-.425.183.183,0,0,1,.127-.344c2.314.85,4.781.324,6-1.275a.183.183,0,0,1,.258-.035.185.185,0,0,1,.035.258A5.038,5.038,0,0,1,2636.515,1118.32Z" transform="translate(-2634.048 -1116.203)" fill="#1a1a1a"/>
        </g>
        <g id="Group_10431" data-name="Group 10431" transform="translate(36.577 29.958)">
          <path id="Path_9617" data-name="Path 9617" d="M2580.517,1095.109a.269.269,0,1,1-.269-.269A.269.269,0,0,1,2580.517,1095.109Z" transform="translate(-2579.98 -1094.84)"/>
        </g>
        <g id="Group_10432" data-name="Group 10432" transform="translate(62.623 30.05)">
          <path id="Path_9618" data-name="Path 9618" d="M2722.087,1095.609a.269.269,0,1,1-.268-.269A.269.269,0,0,1,2722.087,1095.609Z" transform="translate(-2721.55 -1095.34)"/>
        </g>
        <g id="Group_10433" data-name="Group 10433" transform="translate(35.643 29.248)">
          <circle id="Ellipse_372" data-name="Ellipse 372" cx="0.202" cy="0.202" r="0.202"/>
        </g>
      </g>
      <g id="Group_10470" data-name="Group 10470" transform="translate(317.663 32.021)">
        <g id="Group_10468" data-name="Group 10468">
          <g id="Group_10462" data-name="Group 10462" transform="translate(0.364)">
            <g id="Group_10435" data-name="Group 10435" transform="translate(32.743 49.36)">
              <path id="Path_9619" data-name="Path 9619" d="M2021.213,1130.809l-6.358,7.567-2.02,2.4-17.955,21.369,1.058-29.8a4.648,4.648,0,0,0,4.362-4.638V1117.71l12.748.464q.259,1.719.519,3.444c.029.2.059.39.088.583.006.029.007.055.013.085.1.659.158,1.437.234,2.254.015.166.029.333.046.5.294,2.944.929,6.156,4.4,5.939Z" transform="translate(-1994.88 -1117.71)" fill="#f8bd8c"/>
            </g>
            <g id="Group_10436" data-name="Group 10436" transform="translate(38.163 52.661)">
              <path id="Path_9620" data-name="Path 9620" d="M2037.939,1139.18a5.694,5.694,0,0,1-4.174,3.074c-3.659.4-7.227-3.542-8.987-5.722a6.076,6.076,0,0,1-.438-.629v-.254a8.033,8.033,0,0,0,1.339.618,18.759,18.759,0,0,0,6.441,1.043,10.934,10.934,0,0,0,4.819-1.043l.666-.011c.029.2.059.39.088.583.005.03.007.055.013.085C2037.805,1137.587,2037.864,1138.365,2037.939,1139.18Z" transform="translate(-2024.34 -1135.65)" fill="#eab186"/>
            </g>
            <g id="Group_10437" data-name="Group 10437" transform="translate(25.273 11.119)">
              <path id="Path_9621" data-name="Path 9621" d="M1986.479,945.563s15.219-1.648,9.026-20.694-25.24-14.555-25.24-14.555-14.091,5.742-15.795,17.813,8.515,15.383,8.515,15.383Z" transform="translate(-1954.279 -909.853)"/>
            </g>
            <g id="Group_10438" data-name="Group 10438" transform="translate(40.626)">
              <path id="Path_9622" data-name="Path 9622" d="M2047.937,861.972s4.37-7.339,2.686-9.181-3.8-3.979-8.056-3.216a5.725,5.725,0,0,0-4.75,6.39,30.18,30.18,0,0,0,2.841,6.489C2042.042,864.729,2047.937,861.972,2047.937,861.972Z" transform="translate(-2037.727 -849.416)"/>
            </g>
            <g id="Group_10440" data-name="Group 10440" transform="translate(33.514 22.94)">
              <g id="Group_10439" data-name="Group 10439">
                <path id="Path_9623" data-name="Path 9623" d="M1999.171,989.489c-.87,9.138,4.1,17.088,11.105,17.756s13.388-6.2,14.258-15.338-4.1-17.088-11.105-17.756S2000.042,980.351,1999.171,989.489Z" transform="translate(-1999.073 -974.106)" fill="#f8bd8c"/>
              </g>
            </g>
            <g id="Group_10441" data-name="Group 10441" transform="translate(44.201 20.715)">
              <path id="Path_9624" data-name="Path 9624" d="M2057.16,962.01s5.266,10.606,15.484,16.336,1.006-14.555,1.006-14.555Z" transform="translate(-2057.16 -962.01)"/>
            </g>
            <g id="Group_10442" data-name="Group 10442" transform="translate(29.739 33.855)">
              <path id="Path_9625" data-name="Path 9625" d="M1978.55,1036.883c0,2.086,1.81,4.1,3.3,4.1s2.7-1.691,2.7-3.777a3.953,3.953,0,0,0-3.475-3.777C1979.588,1033.43,1978.55,1034.8,1978.55,1036.883Z" transform="translate(-1978.55 -1033.43)" fill="#f8bd8c"/>
            </g>
            <g id="Group_10443" data-name="Group 10443" transform="translate(55.542 34.914)">
              <path id="Path_9626" data-name="Path 9626" d="M2124.805,1042.643c0,2.086-1.811,4.1-3.3,4.1s-2.7-1.691-2.7-3.777a3.953,3.953,0,0,1,3.475-3.777C2123.767,1039.19,2124.805,1040.557,2124.805,1042.643Z" transform="translate(-2118.8 -1039.19)" fill="#f8bd8c"/>
            </g>
            <g id="Group_10445" data-name="Group 10445" transform="translate(39.902 35.452)">
              <g id="Group_10444" data-name="Group 10444">
                <path id="Path_9627" data-name="Path 9627" d="M2033.79,1043.571a1.157,1.157,0,1,0,1.117-1.461A1.324,1.324,0,0,0,2033.79,1043.571Z" transform="translate(-2033.79 -1042.11)"/>
              </g>
            </g>
            <g id="Group_10447" data-name="Group 10447" transform="translate(51.22 36.171)">
              <g id="Group_10446" data-name="Group 10446">
                <ellipse id="Ellipse_373" data-name="Ellipse 373" cx="1.117" cy="1.461" rx="1.117" ry="1.461"/>
              </g>
            </g>
            <g id="Group_10449" data-name="Group 10449" transform="translate(37.183 31.993)">
              <g id="Group_10448" data-name="Group 10448">
                <path id="Path_9628" data-name="Path 9628" d="M2024.715,1024.848a1.072,1.072,0,0,1-.278,0,7.176,7.176,0,0,0-4.092.429.988.988,0,0,1-1.207-.206.66.66,0,0,1,.3-.99,9.3,9.3,0,0,1,5.4-.646.7.7,0,0,1,.664.835A.9.9,0,0,1,2024.715,1024.848Z" transform="translate(-2019.014 -1023.31)"/>
              </g>
            </g>
            <g id="Group_10451" data-name="Group 10451" transform="translate(50.194 31.899)">
              <g id="Group_10450" data-name="Group 10450">
                <path id="Path_9629" data-name="Path 9629" d="M2095.148,1025.205a1.138,1.138,0,0,1-.263-.088,7.19,7.19,0,0,0-4.027-.841.989.989,0,0,1-1.087-.565.659.659,0,0,1,.587-.852,9.317,9.317,0,0,1,5.335,1.028.7.7,0,0,1,.377,1A.891.891,0,0,1,2095.148,1025.205Z" transform="translate(-2089.734 -1022.799)"/>
              </g>
            </g>
            <g id="Group_10453" data-name="Group 10453" transform="translate(45.672 38.934)">
              <g id="Group_10452" data-name="Group 10452">
                <path id="Path_9630" data-name="Path 9630" d="M2066.152,1064.851a.9.9,0,0,1-.533-.173c-.473-.346-.5-.591-.442-1.148l.23-2.349a.162.162,0,0,1,.175-.144.159.159,0,0,1,.144.175l-.23,2.351c-.05.5-.031.609.313.859a.589.589,0,0,0,.471.1l.6-.125a.16.16,0,1,1,.066.313l-.6.125A1.017,1.017,0,0,1,2066.152,1064.851Z" transform="translate(-2065.156 -1061.037)" fill="#080305"/>
              </g>
            </g>
            <g id="Group_10454" data-name="Group 10454" transform="translate(41.664 46.829)">
              <path id="Path_9631" data-name="Path 9631" d="M2043.37,1103.956c.28,1.8,2.3,3.089,4.64,2.9a4.355,4.355,0,0,0,4.031-2.905Z" transform="translate(-2043.37 -1103.95)" fill="#fff"/>
            </g>
            <g id="Group_10455" data-name="Group 10455" transform="translate(32.293 40.055)">
              <path id="Path_9632" data-name="Path 9632" d="M1993.018,1067.186a.389.389,0,1,1-.532.142A.388.388,0,0,1,1993.018,1067.186Z" transform="translate(-1992.433 -1067.133)" fill="#080305"/>
            </g>
            <g id="Group_10456" data-name="Group 10456" transform="translate(58.609 40.813)">
              <path id="Path_9633" data-name="Path 9633" d="M2136.057,1071.3a.389.389,0,1,1-.532.142A.392.392,0,0,1,2136.057,1071.3Z" transform="translate(-2135.473 -1071.25)" fill="#080305"/>
            </g>
            <g id="Group_10457" data-name="Group 10457" transform="translate(51.503 139.008)">
              <path id="Path_9634" data-name="Path 9634" d="M2113.629,1616.492l-10.641,4.6-6.137-6.458,13.377-9.655,5.7,10.61Z" transform="translate(-2096.85 -1604.98)" fill="#f8bd8c"/>
            </g>
            <g id="Group_10458" data-name="Group 10458" transform="translate(0 149.458)">
              <path id="Path_9635" data-name="Path 9635" d="M1824.921,1688.42l2.4-.786a.9.9,0,0,0-.033-.97c-.331-.545-1.119-.528-1.5-.488a7.193,7.193,0,0,0-1.179.337,7.816,7.816,0,0,0-1.9-1.564,4.013,4.013,0,0,0-.195-2.182,3.467,3.467,0,0,0,.879-2.493s.1-.179.25-.454c.127.057.37.167.526.258.219.125.237.841.151,1.271a9.593,9.593,0,0,0-.046,2.572,1.5,1.5,0,0,0,1.619,1.279c.887-.029.916-.9,1.089-1.672a11.156,11.156,0,0,0,.036-2.885,11.859,11.859,0,0,1,.565-3.4,9.1,9.1,0,0,0,.169-2.366,14.587,14.587,0,0,0-.67-2.76,3.747,3.747,0,0,0-.134-2.088c-.453-1,1.016-8.251,1.016-8.251l-7.418.839.69,8.209s-2.322,4.861-3.091,7.047-1.328,3.337-1.222,4.423c0,0,1.128,4.368,2.285,5.333,1.187.988,3.825,2.723,4.6,2.782a23.322,23.322,0,0,0,3.039-.232,2.3,2.3,0,0,0,.859-.223s.355.006.081-.738S1826.748,1688.663,1824.921,1688.42Z" transform="translate(-1816.909 -1661.78)" fill="#f8bd8c"/>
            </g>
            <g id="Group_10459" data-name="Group 10459" transform="translate(0.003 69.342)">
              <path id="Path_9636" data-name="Path 9636" d="M1837.809,1226.32s-6.417,3.507-7.346,8.458a57.911,57.911,0,0,1-5.729,14.851,45.893,45.893,0,0,0-4.18,10.921c-.309,2.038-4.645,31.3-3.407,38.293s.278,12.424,2.668,13.4,10.029,0,10.029,0l11.149-67.949Z" transform="translate(-1816.924 -1226.32)" fill="#ababab"/>
            </g>
            <g id="Group_10460" data-name="Group 10460" transform="translate(5.781 133.617)">
              <path id="Path_9637" data-name="Path 9637" d="M1909.9,1623.613H1848.33c.14-1.189.293-2.418.458-3.68q.287-2.18.631-4.493.2-1.358.425-2.754v0c.668-4.163,1.481-8.581,2.474-13.162v0q.1-.444.195-.89a.007.007,0,0,1,0-.006c.07-.32.14-.637.213-.958l.017-.076q.475-2.092,1-4.226c.2-.835.416-1.678.635-2.52.883-3.424,1.871-6.9,2.975-10.389v0q.292-.927.6-1.856a3.364,3.364,0,0,1,.668-.441c1.08-.593,3.661-1.628,9.081-2.153v0l.024,0a84.806,84.806,0,0,1,10.11-.287c4.6.11,10.211.506,17.055,1.338,0,0,.377,1.312,1.023,3.406.587,1.9,1.395,4.447,2.338,7.24.87,2.572,1.856,5.352,2.9,8.033.116.3.23.594.348.889a66.616,66.616,0,0,0,4.149,8.925C1907.636,1608.909,1909.028,1616.136,1909.9,1623.613Z" transform="translate(-1848.33 -1575.679)" fill="#190444"/>
            </g>
            <g id="Group_10461" data-name="Group 10461" transform="translate(14.715 62.011)">
              <path id="Path_9638" data-name="Path 9638" d="M1897.576,1241.333c.155-1.549,1-11.924,1-11.924s.545-14.711.031-19.82c-.328-3.209,1.913-9.532,3.624-13.793.3-.738.576-1.406.83-1.994l3.332-1.374,11.416-4.719s-2.274,17.132-1.034,26.423c0,0,18.166-18.99,21.883-27.661,0,0,12.387,2.266,15.485,1.858s10.121,1.442,13.007,23.122,12.183,33.032,12.6,36.958,2.478,8.257-2.478,13.212-13.217,12.591-14.245,14.041-11.149,3.921-11.149,3.921l-10.511-19.079a1.2,1.2,0,0,1,.574-1.678c1.764-.762,4.929-2.136,5.806-2.576,1.238-.62,9.186-4.745,9.186-4.745s-6.244-8.467-7.017-17.448c-.348-4.015-.508-7.184-.576-9.477-.092,7.7-1.078,23.79-7.37,32.084l-3.308,6.195h-41.681a8.562,8.562,0,0,1,0-2.451C1897.352,1258.334,1897.422,1242.88,1897.576,1241.333Z" transform="translate(-1896.892 -1186.47)" fill="#ababab"/>
            </g>
          </g>
          <g id="Group_10463" data-name="Group 10463" transform="translate(0 79.682)">
            <path id="Path_9639" data-name="Path 9639" d="M1819.734,1358.585a.366.366,0,0,1-.1-.013l-2.241-.613c-.526-.144-1.168-.765-1.47-4.318-.151-1.775-.147-3.529-.145-3.722l-.846-10.038a.259.259,0,0,1,0-.053l.537-8.636c.02-.188,1.9-16.989,2.5-20.724a47.218,47.218,0,0,1,3.864-13.32c2.272-4.738,6.1-14.3,6.138-14.4a.368.368,0,0,1,.684.272c-.039.1-3.873,9.681-6.156,14.441a46.562,46.562,0,0,0-3.8,13.118c-.594,3.718-2.474,20.5-2.493,20.672l-.534,8.592.847,10.027a.212.212,0,0,1,0,.035c-.033,3.812.46,7.173,1.074,7.343l2.241.613a.367.367,0,0,1,.257.453A.385.385,0,0,1,1819.734,1358.585Z" transform="translate(-1814.932 -1282.521)" fill="#8e8d8e"/>
          </g>
          <g id="Group_10464" data-name="Group 10464" transform="translate(12.951 105.943)">
            <path id="Path_9640" data-name="Path 9640" d="M1886.924,1450.818a.365.365,0,0,1-.271-.12c-.118-.129-1.164-1.507-1.315-9.927s1.553-14.713,2.009-15.357a.368.368,0,0,1,.6.423c-.311.5-2.026,6.528-1.875,14.919.144,7.966,1.074,9.374,1.133,9.455a.369.369,0,0,1-.033.508A.361.361,0,0,1,1886.924,1450.818Z" transform="translate(-1885.329 -1425.26)" fill="#8e8d8e"/>
          </g>
          <g id="Group_10465" data-name="Group 10465" transform="translate(34.235 61.64)">
            <path id="Path_9641" data-name="Path 9641" d="M2001.743,1212.855a.389.389,0,0,1-.121-.02.365.365,0,0,1-.243-.305,112.461,112.461,0,0,1,.962-26.344.368.368,0,1,1,.729.11,114.609,114.609,0,0,0-1.03,25.374c3.05-3.093,17.785-18.3,21.248-26.98a.368.368,0,0,1,.684.272c-3.906,9.784-21.229,27.056-21.965,27.786A.382.382,0,0,1,2001.743,1212.855Z" transform="translate(-2001.015 -1184.457)" fill="#8e8d8e"/>
          </g>
          <g id="Group_10466" data-name="Group 10466" transform="translate(80.845 104.01)">
            <path id="Path_9642" data-name="Path 9642" d="M2254.726,1462.31a.368.368,0,0,1-.281-.605,111.84,111.84,0,0,1,10.521-10.395l.239-.212c2.368-2.09,5.315-4.69,6.237-7.77,1.144-3.829.322-8.356-2.443-13.462a118.5,118.5,0,0,1-5.81-13.195l-.557-1.418a.368.368,0,1,1,.684-.269q.278.709.557,1.42a117.792,117.792,0,0,0,5.771,13.112c2.863,5.282,3.7,10,2.5,14.023-.98,3.28-4.016,5.959-6.454,8.11l-.239.21a110.867,110.867,0,0,0-10.444,10.318A.37.37,0,0,1,2254.726,1462.31Z" transform="translate(-2254.357 -1414.752)" fill="#8e8d8e"/>
          </g>
          <g id="Group_10467" data-name="Group 10467" transform="translate(65.491 99.75)">
            <path id="Path_9643" data-name="Path 9643" d="M2171.271,1409.8a.283.283,0,0,1-.068-.007.368.368,0,0,1-.292-.43c0-.011.215-1.146.671-3.965s.984-13.344.99-13.451a.368.368,0,0,1,.736.037c-.022.434-.537,10.686-1,13.532s-.673,3.974-.675,3.985A.375.375,0,0,1,2171.271,1409.8Z" transform="translate(-2170.903 -1391.597)" fill="#8e8d8e"/>
          </g>
        </g>
        <g id="Group_10469" data-name="Group 10469" transform="translate(37.448 61.602)">
          <path id="Path_9644" data-name="Path 9644" d="M2024.638,1190.038a5.869,5.869,0,0,1-1.566-.206c-3.435-.944-4.581-4.9-4.592-4.936l.177-.05c.011.039,1.13,3.893,4.465,4.807,3.063.839,6.971-.977,11.615-5.4l.127.132C2030.921,1188.143,2027.489,1190.038,2024.638,1190.038Z" transform="translate(-2018.48 -1184.25)" fill="#080305"/>
        </g>
      </g>
      <g id="Group_10504" data-name="Group 10504" transform="translate(172.832 37.255)">
        <g id="Group_10500" data-name="Group 10500">
          <g id="Group_10471" data-name="Group 10471" transform="translate(88.403 148.82)">
            <path id="Path_9645" data-name="Path 9645" d="M1508.22,1686.76s3.858,1.148,4.621,1.314c0,0-1.321,5.446-4.033,6.776l-.065.031Z" transform="translate(-1508.22 -1686.76)" fill="#eab186"/>
          </g>
          <g id="Group_10499" data-name="Group 10499">
            <g id="Group_10497" data-name="Group 10497">
              <g id="Group_10472" data-name="Group 10472" transform="translate(76.21 61.517)">
                <path id="Path_9646" data-name="Path 9646" d="M1450.81,1212.486a1.787,1.787,0,0,1,2.3.364c6.874,6.044,6.213,16.562,6.117,19.261s2.373,12.544,3.672,16.238,2.872,5.88,3.832,12.31,0,19.141.107,20.709a97.4,97.4,0,0,0,2.026,11.261c.491,1.56-.077,6.3-1.788,7.059s-2.824,1.753-9.127.973-4.688-2.87-4.791-5.781-1.019-5.506-1.047-6.8-.278-3.742-.267-6.995.237-1.989-.4-5.139-5.207-19.079-3.551-23-4.544-17.073-4.445-18.065-1.5-10-1.5-10a30.813,30.813,0,0,1,3.521-7.269,27.245,27.245,0,0,1,5.339-5.12Z" transform="translate(-1441.95 -1212.23)" fill="#1a1a1a"/>
              </g>
              <g id="Group_10473" data-name="Group 10473" transform="translate(31.599 116.97)">
                <path id="Path_9647" data-name="Path 9647" d="M1229.33,1513.64v11.988l-.257,12.111-.041,1.851s0,0,0,.005l-.712,33.392h-28.85l2.815-33.97.313-3.768.085-1.034.155-1.849v0l.6-7.241.576-6.965.375-4.519Z" transform="translate(-1199.47 -1513.64)" fill="#ababab"/>
              </g>
              <g id="Group_10474" data-name="Group 10474" transform="translate(60.944 116.97)">
                <path id="Path_9648" data-name="Path 9648" d="M1388.83,1572.988h-28.85l-.727-34s0,0,0-.005l-.024-1.245-.259-12.111V1513.64h24.942l1.464,17.658v0l.2,2.476.024.274v.009l.132,1.6v0l.819,9.872.011.123.648,7.826Z" transform="translate(-1358.97 -1513.64)" fill="#ababab"/>
              </g>
              <g id="Group_10475" data-name="Group 10475" transform="translate(32.667)">
                <path id="Path_9649" data-name="Path 9649" d="M1205.606,926.222s-1.63-10.215,2.355-15.463,2.717-9.747,2.717-12.183.725-10.121,4.167-12.932,4.892-9,16.126-6.748c0,0,2.9-1.687,10.327-.751s10.509,10.684,10.871,12.746,1.087,6.373,2.9,8.434a13.288,13.288,0,0,1,2.355,11.432c-1.268,4.686-1.326,5.622.423,9.935s.844,5.529.844,5.529S1237.5,934.937,1205.606,926.222Z" transform="translate(-1205.276 -877.861)" fill="#d1d1d3"/>
              </g>
              <g id="Group_10476" data-name="Group 10476" transform="translate(51.819 41.331)">
                <path id="Path_9650" data-name="Path 9650" d="M1327.056,1117.411H1309.37l1.8-12.341.121-.826.252-1.733h13.337l.285,1.946.521,3.566Z" transform="translate(-1309.37 -1102.51)" fill="#f8bd8c"/>
              </g>
              <g id="Group_10477" data-name="Group 10477" transform="translate(53.62 43.064)">
                <path id="Path_9651" data-name="Path 9651" d="M1333.676,1115.709a6.365,6.365,0,0,1-4.43,2.614c-4.029.394-7.959-3.273-10.086-5.567l.121-.826c.182.072.386.145.616.219a24.1,24.1,0,0,0,7.446,1.076,13.937,13.937,0,0,0,5.571-1.076l.241,0Z" transform="translate(-1319.16 -1111.93)" fill="#eab186"/>
              </g>
              <g id="Group_10478" data-name="Group 10478" transform="translate(44.974 5.011)">
                <ellipse id="Ellipse_374" data-name="Ellipse 374" cx="15.086" cy="20.409" rx="15.086" ry="20.409" fill="#f8bd8c"/>
              </g>
              <g id="Group_10479" data-name="Group 10479" transform="translate(43.43 26.141)">
                <path id="Path_9652" data-name="Path 9652" d="M1269.943,1022.8c.78,2.116.1,4.347-1.509,4.982s-3.553-.563-4.333-2.679-.1-4.347,1.509-4.982S1269.165,1020.683,1269.943,1022.8Z" transform="translate(-1263.777 -1019.949)" fill="#f8bd8c"/>
              </g>
              <g id="Group_10480" data-name="Group 10480" transform="translate(72.232 26.14)">
                <path id="Path_9653" data-name="Path 9653" d="M1420.646,1022.793c-.778,2.116-.1,4.347,1.51,4.982s3.552-.565,4.331-2.682.1-4.347-1.51-4.982S1421.425,1020.677,1420.646,1022.793Z" transform="translate(-1420.323 -1019.941)" fill="#f8bd8c"/>
              </g>
              <g id="Group_10482" data-name="Group 10482" transform="translate(48.834 19.018)">
                <g id="Group_10481" data-name="Group 10481">
                  <path id="Path_9654" data-name="Path 9654" d="M1293.962,983.648a.815.815,0,0,1-.751-.513.856.856,0,0,1,.432-1.108,8.245,8.245,0,0,1,7.021-.048.861.861,0,0,1,.337,1.143.8.8,0,0,1-1.1.35,6.664,6.664,0,0,0-5.619.112A.872.872,0,0,1,1293.962,983.648Z" transform="translate(-1293.146 -981.235)" fill="#1a1a1a"/>
                </g>
              </g>
              <g id="Group_10484" data-name="Group 10484" transform="translate(63.311 19.018)">
                <g id="Group_10483" data-name="Group 10483">
                  <path id="Path_9655" data-name="Path 9655" d="M1372.652,983.648a.815.815,0,0,1-.751-.513.856.856,0,0,1,.432-1.108,8.245,8.245,0,0,1,7.021-.048.861.861,0,0,1,.337,1.143.8.8,0,0,1-1.1.35,6.664,6.664,0,0,0-5.619.112A.858.858,0,0,1,1372.652,983.648Z" transform="translate(-1371.836 -981.235)" fill="#1a1a1a"/>
                </g>
              </g>
              <g id="Group_10485" data-name="Group 10485" transform="translate(51.333 24.077)">
                <path id="Path_9656" data-name="Path 9656" d="M1309.39,1010.47a1.379,1.379,0,1,1-1.33-1.74A1.577,1.577,0,0,1,1309.39,1010.47Z" transform="translate(-1306.73 -1008.73)" fill="#1a1a1a"/>
              </g>
              <g id="Group_10486" data-name="Group 10486" transform="translate(66.001 24.077)">
                <path id="Path_9657" data-name="Path 9657" d="M1389.12,1010.47a1.379,1.379,0,1,1-1.33-1.74A1.577,1.577,0,0,1,1389.12,1010.47Z" transform="translate(-1386.46 -1008.73)" fill="#1a1a1a"/>
              </g>
              <g id="Group_10487" data-name="Group 10487" transform="translate(38.906 3.284)">
                <path id="Path_9658" data-name="Path 9658" d="M1258.643,899.27s-8.879,12.68-10.146,19.274-8.516,4.531-9.241,4.719,4.349-20.992,4.349-20.992l15.038-6.561Z" transform="translate(-1239.185 -895.71)" fill="#d1d1d3"/>
              </g>
              <g id="Group_10488" data-name="Group 10488" transform="translate(58.364 2.463)">
                <path id="Path_9659" data-name="Path 9659" d="M1344.95,891.25v4.382a51.849,51.849,0,0,0,7.47,11.526,66.17,66.17,0,0,0,10.985,9.707c.657.482,1.621,1.008,2.226,1.545-.543-3.2-1.536-6.4-2.144-9.6a79.628,79.628,0,0,0-1.779-8.776C1361.436,899.614,1344.95,891.25,1344.95,891.25Z" transform="translate(-1344.95 -891.25)" fill="#d1d1d3"/>
              </g>
              <g id="Group_10489" data-name="Group 10489" transform="translate(27.88 47.628)">
                <path id="Path_9660" data-name="Path 9660" d="M1202.166,1136.74a8.13,8.13,0,0,0-.82,3.14c0,1.527,1.313,5.6-2.134,5.771s-14.757,7.639-17.717,9.845-2.138,6.96-2.138,6.96,6.071,61.493,7.056,62.51,15.138-13.622,20.429-12.985,3.61,1.825,5.744,1.656,2.953-1.867,3.61-1.783a10.957,10.957,0,0,1,3.939,1.273c1.067.763,5.17-.425,7.959,2.121s13.947,11.033,13.947,11.033,1.477-12.052-.984-15.787.984-36.667,0-37.855-1.8-21.049-1.8-21.049-10.378-5.56-13.7-5.687-2.461-8.148-2.461-8.148Z" transform="translate(-1179.252 -1136.74)" fill="#1a1a1a"/>
              </g>
              <g id="Group_10490" data-name="Group 10490" transform="translate(57.59 37.384)">
                <path id="Path_9661" data-name="Path 9661" d="M1343.205,1083.174a6.823,6.823,0,0,1-2.348-.425.183.183,0,1,1,.127-.344c2.315.848,4.782.324,6-1.275a.184.184,0,0,1,.293.223A5.042,5.042,0,0,1,1343.205,1083.174Z" transform="translate(-1340.738 -1081.057)" fill="#1a1a1a"/>
              </g>
              <g id="Group_10491" data-name="Group 10491" transform="translate(71.999 32.698)">
                <path id="Path_9662" data-name="Path 9662" d="M1421.4,1062.228c-.037,0-.075,0-.112,0a2.626,2.626,0,0,1-2.212-1.321.136.136,0,0,1,.05-.188.138.138,0,0,1,.189.05,2.354,2.354,0,0,0,1.983,1.183,2.579,2.579,0,0,0,2.222-1.095,3.867,3.867,0,0,0,.272-3.792,2.1,2.1,0,0,0-1.921-1.2.138.138,0,0,1,0-.276h0a2.365,2.365,0,0,1,2.165,1.347,4.159,4.159,0,0,1-.291,4.077A2.871,2.871,0,0,1,1421.4,1062.228Z" transform="translate(-1419.057 -1055.59)" fill="#1a1a1a"/>
              </g>
              <g id="Group_10492" data-name="Group 10492" transform="translate(42.823 32.884)">
                <path id="Path_9663" data-name="Path 9663" d="M1263.388,1063.052a2.87,2.87,0,0,1-2.348-1.216,3.5,3.5,0,0,1-.144-3.582,2.929,2.929,0,0,1,2.594-1.654h0a.138.138,0,0,1,0,.276,2.625,2.625,0,0,0-2.349,1.507,3.22,3.22,0,0,0,.127,3.3,2.589,2.589,0,0,0,2.223,1.095,2.359,2.359,0,0,0,1.985-1.183.138.138,0,0,1,.189-.05.137.137,0,0,1,.05.188,2.625,2.625,0,0,1-2.212,1.321C1263.464,1063.052,1263.425,1063.052,1263.388,1063.052Z" transform="translate(-1260.475 -1056.6)" fill="#1a1a1a"/>
              </g>
              <g id="Group_10494" data-name="Group 10494" transform="translate(58.611 26.327)">
                <g id="Group_10493" data-name="Group 10493">
                  <path id="Path_9664" data-name="Path 9664" d="M1347.835,1026.557h-.221a1.348,1.348,0,0,1-1.325-1.371v-4a.221.221,0,1,1,.442,0v3.77a1.124,1.124,0,0,0,1.1,1.142h0a.228.228,0,0,1,0,.456Z" transform="translate(-1346.29 -1020.96)" fill="#1a1a1a"/>
                </g>
              </g>
              <g id="Group_10495" data-name="Group 10495" transform="translate(28.954 123.915)">
                <path id="Path_9665" data-name="Path 9665" d="M1209.349,1560.013l-7.941-4.824.558-1.623c.4-.565.841-1.224.327-1.709a1.834,1.834,0,0,0-2.053-.271l-8.875,4.513-6.276,5.135c4.077,4.02,7.089,4.329,8.925,3.858.192.085.383.171.58.248l6.809,2.625a1.476,1.476,0,0,0,1.821-.353c.294-.379.475-1.023-.8-1.794l1.271.771a1.528,1.528,0,0,0,1.911-.392c.385-.5.118-1.244-.613-1.8l.986.482a1.551,1.551,0,0,0,2.04-.519,1.243,1.243,0,0,0-.541-1.672l-1.4-.848,1.63.18c.784.353,1.858.484,2.243-.247a1.349,1.349,0,0,0-.605-1.766Z" transform="translate(-1185.09 -1551.39)" fill="#f8bd8c"/>
              </g>
              <g id="Group_10496" data-name="Group 10496" transform="translate(0 66.385)">
                <path id="Path_9666" data-name="Path 9666" d="M1057.837,1238.69s-17.323,16.405-18.939,18.88a12.177,12.177,0,0,1-3.6,3.724c-1.06.828-.732,1.5-4.34,7.473-2.692,4.454-4.3,11.841-2.451,16.946,1.915,5.28,7.015,8.886,11.742,11.46,5.124,2.789,6.1,3.692,10.191,6.18s5.161,2.962,7.394,5.348c1.334,1.426,4.5,2.1,6.415,2.725.841.272,1.871-.67,2.119-1.544l3.707-12.582s-3.2-7.913-9.613-11.125c-3.656-1.833-7.926-3.748-10.014-5.591-1.7-1.5,4.441-4.679,5.714-5.775,1.049-.9,5.1-4.55,5.825-4.8s2.887-10.638,2.887-10.792S1057.837,1238.69,1057.837,1238.69Z" transform="translate(-1027.715 -1238.69)" fill="#1a1a1a"/>
              </g>
            </g>
            <g id="Group_10498" data-name="Group 10498" transform="translate(59.884 133.978)">
              <path id="Path_9667" data-name="Path 9667" d="M1353.577,1636.715h-.011a.367.367,0,0,1-.357-.377c.022-.826.554-20.254,1.069-22.515.585-2.572,5.244-7.42,5.44-7.624a.368.368,0,0,1,.53.512c-.048.05-4.714,4.9-5.253,7.276-.5,2.191-1.045,22.169-1.05,22.372A.368.368,0,0,1,1353.577,1636.715Z" transform="translate(-1353.209 -1606.086)" fill="#999"/>
            </g>
          </g>
        </g>
        <g id="Group_10501" data-name="Group 10501" transform="translate(30.736 89.311)">
          <path id="Path_9668" data-name="Path 9668" d="M1195.145,1374.735a.368.368,0,0,1-.228-.657,27.946,27.946,0,0,0,5.731-6.208c.282-.414.552-.9.837-1.419a8.158,8.158,0,0,1,2.382-3.1.368.368,0,1,1,.387.625,7.683,7.683,0,0,0-2.125,2.826c-.294.532-.572,1.034-.872,1.476a28.7,28.7,0,0,1-5.882,6.371A.382.382,0,0,1,1195.145,1374.735Z" transform="translate(-1194.776 -1363.301)" fill="#333"/>
        </g>
        <g id="Group_10502" data-name="Group 10502" transform="translate(34.851 114.572)">
          <path id="Path_9669" data-name="Path 9669" d="M1224.588,1506.662a.369.369,0,0,1-.331-.208h0a7.69,7.69,0,0,0-3.567-3.312,12.064,12.064,0,0,1-3.437-1.91.368.368,0,0,1,.521-.521,12.085,12.085,0,0,0,3.2,1.753,8.3,8.3,0,0,1,3.941,3.669.369.369,0,0,1-.171.491A.351.351,0,0,1,1224.588,1506.662Z" transform="translate(-1217.145 -1500.605)" fill="#333"/>
        </g>
        <g id="Group_10503" data-name="Group 10503" transform="translate(84.963 102.289)">
          <path id="Path_9670" data-name="Path 9670" d="M1492.434,1460.526a.364.364,0,0,1-.088-.011.369.369,0,0,1-.27-.445,15.075,15.075,0,0,0-.155-5.442l-.129-.745c-.328-1.882-.341-1.956-.127-2.944.085-.392.2-.927.342-1.84.508-3.256-2.441-14.678-2.471-14.794a.368.368,0,0,1,.712-.186c.123.475,3.017,11.684,2.486,15.092-.146.933-.263,1.481-.35,1.88-.184.848-.184.848.132,2.662l.129.747a15.422,15.422,0,0,1,.144,5.742A.363.363,0,0,1,1492.434,1460.526Z" transform="translate(-1489.524 -1433.844)" fill="#333"/>
        </g>
      </g>
    </g>
  </g>
</svg>
