<svg xmlns="http://www.w3.org/2000/svg" width="500" height="470" viewBox="0 0 541.7 494.389">
  <g id="Group_10107" data-name="Group 10107" transform="translate(-789.787 -132.868)">
    <path id="Path_8213" data-name="Path 8213" d="M411.432,0c-11.062,11.245-26.78,23.724-39.724,29.1l19.231,4.529L311.5,150.761l-158.329,56.98L0,447.585,113.89,430.1,188.6,306.56l150.67-111.942L397.79,38.679,410.257,57.55C407.764,40.784,408.907,17.544,411.432,0Z" transform="translate(923.121 132.868) rotate(7)" fill="#41ce94"/>
    <path id="Path_8214" data-name="Path 8214" d="M230.238,1191.966s-7.215-12.935-8.972-15.684-6.33-13.675-6.493-14.107,3.149-5.6,2.41-5.777-1.557,2.727-2.346,2.379-3.094-7.334-3.543-6.988c-.842.649,1.243,4.334.794,4.568s-1.807-4.057-2.688-3.931,1.674,3.931,1.429,4.266-2.9-3.247-3.378-2.484c-.261.415,2.44,3.129,1.922,3.383s-2.919-1.5-3.174-.993,2.222,1.2,2.961,2.56,2,1.952,2.525,4.472,1.3,11.648,3.988,16.2,8.58,14.631,8.58,14.631Z" transform="translate(583.606 -745.141)" fill="#f79c8d"/>
    <path id="Path_8215" data-name="Path 8215" d="M283.345,1308.74s7.981,8.6,9.169,12.07-1.156,8.426-4.394,8.644-10.44-15.269-10.44-15.269Z" transform="translate(528.505 -866.108)" fill="#ffab00"/>
    <path id="Path_8216" data-name="Path 8216" d="M406.079,1456.438c-.58-.486-1.284-.266-3.3-1.2a12.092,12.092,0,0,0-1.878-.56.231.231,0,0,1-.177-.167c-.612-2.319-3.3-13.043-3.594-16.134-.3-3.163-2.341-16.567-2.651-18.606a.235.235,0,0,0-.294-.191l-5.86,1.633a.234.234,0,0,0-.165.277c.362,1.6,2.614,11.63,3.275,16.708.527,4.048,6.557,17.033,6.678,17.863,0,.007,0,.016,0,.023a.508.508,0,0,0,.5.436c1.488,0,6.256,0,6.529,0C405.4,1456.525,406.262,1456.589,406.079,1456.438Z" transform="translate(443.366 -951.523)" fill="#f48c7f"/>
    <path id="Path_8217" data-name="Path 8217" d="M387.235,1364.776c-3.117-9.458-6.6-9.054-6.6-9.054l2.7,19.884c1.924-.525,4.433-1.7,6.355-2.24A86.136,86.136,0,0,0,387.235,1364.776Z" transform="translate(449.166 -902.313)" fill="#d08d06"/>
    <path id="Path_8218" data-name="Path 8218" d="M330.772,1258.949c-.954-6.22-6.582-10.692-12.467-7.674a13.971,13.971,0,0,0-4.03,3.229c-2.472,3.172-3.1,7.091-5.655,10.169a25.346,25.346,0,0,0,3.422,2.174l1.589-2.119-.548,2.644a38.777,38.777,0,0,0,17.162,3.406A32.945,32.945,0,0,0,330.772,1258.949Z" transform="translate(504.66 -821.078)" fill="#d1d1d3"/>
    <path id="Path_8219" data-name="Path 8219" d="M363.848,1599.182a25.224,25.224,0,0,0-4.493-2.49c-.188-.092-.869-.526-1.115-.674a8.623,8.623,0,0,1-1.787-1.583c-.514-.573-.759-2.413-.874-3.878.3-3.275,5.039-55.785,6.041-61.468,1.032-5.866-.541-14.818-.541-14.818l-3.663-1.381-6.954,24.1.548,18.343a49.022,49.022,0,0,0-1.842,8.446c-.206,3.161,2.362,28.807,2.362,28.807h0a13.535,13.535,0,0,1-.138,2.266c-.188.959-1.238,2.933-.757,3.837a2.417,2.417,0,0,0,1.032,1.128l12.494.2C364.846,1600.026,364.4,1599.588,363.848,1599.182Z" transform="translate(473.419 -1023.438)" fill="#f48c7f"/>
    <path id="Path_8220" data-name="Path 8220" d="M267.7,1503.869s-4.339,6.545-5.371,11.96.759,22.062-1.229,29.161c-1.076,3.841-5.153,9.777-5.773,14.742s-2.777,19.294-2.777,19.294h0a12.675,12.675,0,0,1-1.5,4.231,12.6,12.6,0,0,0-1.635,2.156,6.355,6.355,0,0,0,.22,4.928c.287.626-.021.626.633.828a4.014,4.014,0,0,0,4.818-2.266,11.5,11.5,0,0,0,.945-4.165,19.579,19.579,0,0,1,.683-4.4h0l13.868-34.018,10.04-29.358,2.571-15.12Z" transform="translate(550.6 -1014.922)" fill="#f79c8d"/>
    <path id="Path_8221" data-name="Path 8221" d="M254.042,1868.7a6.151,6.151,0,0,1-6.038-2.53c-.764,1.493-1.135,3.72-.573,4.945.493,1.08,1.938,1.048,3.075,1.092a2.966,2.966,0,0,0,2.729-1.674A9.9,9.9,0,0,0,254.042,1868.7Z" transform="translate(552.026 -1295.697)" fill="#86b1f2"/>
    <path id="Path_8222" data-name="Path 8222" d="M362.709,1874.4a11.273,11.273,0,0,1-7.112-.28c-.353,1-.819,2.256-.571,2.982.3.887.736,1.087,1.117,1.1,3.018.08,11.054.188,13.357.217a.376.376,0,0,0,.291-.619C369.217,1877.113,362.954,1874.551,362.709,1874.4Z" transform="translate(468.952 -1301.823)" fill="#86b1f2"/>
    <path id="Path_8223" data-name="Path 8223" d="M309.384,1547.415c.259.019.521.035.782.051l.041,0c.257.016.516.03.775.044l.048,0c.259.014.521.025.782.037a.208.208,0,0,1,.039,0c.266.012.532.02.8.03a51.768,51.768,0,0,0,8.967-.34c1.2-11.978,1.642-22.911,2.085-25.33,1.073-5.869-.936-15.13-.936-15.13l-.959-.172.608-3.431-16.111,2.032s-4.511,6.545-5.587,11.96.789,22.062-1.278,29.16C299.435,1546.335,304.036,1547.053,309.384,1547.415Z" transform="translate(511.735 -1015.955)" fill="#13375b"/>
    <path id="Path_8224" data-name="Path 8224" d="M317.44,1348.256s-5.745-.367-8.018,2.117,5.041,22.12,5.454,25.28-2.105,11.561-2.105,11.561,13.494,2.722,17.349.163c0,0,.413-22.72,0-24.978s-3.857-11.435-4.683-12.338S317.44,1348.256,317.44,1348.256Z" transform="translate(504.38 -896.546)" fill="#ffab00"/>
    <path id="Path_8225" data-name="Path 8225" d="M347.1,1314.348s-.03.17-.083.459a43.886,43.886,0,0,1-1.908,7.238c-.8,1.525,2.757,6.392,6.185,5.8,1.02-.177-.862-4.47-.773-4.924.174-.871.408-2.059.649-3.277.135-.688.273-1.383.4-2.039.367-1.86.665-3.383.665-3.383Z" transform="translate(476.625 -870.331)" fill="#f7a491"/>
    <path id="Path_8226" data-name="Path 8226" d="M353.3,1314.807c.053-.289.083-.459.083-.459l5.137-.128s-.3,1.52-.665,3.383c-.128.651-.264,1.344-.4,2.027a4.813,4.813,0,0,1-2.452-1.231,6.48,6.48,0,0,1-1.858-2.77C353.212,1315.3,353.265,1315.02,353.3,1314.807Z" transform="translate(470.344 -870.331)" fill="#f47458"/>
    <path id="Path_8227" data-name="Path 8227" d="M350.34,1263.7a4.621,4.621,0,0,0-3.938,1.688c-1.518,1.968-3.153,8.052.617,11.359s7.495-.436,8.048-4.406S355.833,1263.562,350.34,1263.7Z" transform="translate(476.847 -831.389)" fill="#f7a491"/>
    <path id="Path_8228" data-name="Path 8228" d="M387.786,1293.879c-.45.876-1.206,1.362-1.688,1.085s-.507-1.214-.057-2.092,1.206-1.362,1.688-1.085S388.236,1293,387.786,1293.879Z" transform="translate(445.244 -852.983)" fill="#f7a491"/>
    <path id="Path_8229" data-name="Path 8229" d="M343,1260.714s-3.234,5.786-5.548,6.052-2.617,3.341-2.617,3.341.828-7.084,3.119-8.448A8.474,8.474,0,0,1,343,1260.714Z" transform="translate(484.455 -829.048)" fill="#d1d1d3"/>
    <path id="Path_8230" data-name="Path 8230" d="M340.752,1288.162c.188,1.028-.19,1.97-.846,2.105s-1.339-.589-1.527-1.616.19-1.97.846-2.106S340.564,1287.135,340.752,1288.162Z" transform="translate(481.764 -848.99)" fill="#f7a491"/>
    <path id="Path_8231" data-name="Path 8231" d="M361.272,1309.92l3.5.688a1.558,1.558,0,0,1-1.89,1.055C360.994,1311.349,361.272,1309.92,361.272,1309.92Z" transform="translate(464.095 -867.017)" fill="#fff"/>
    <g id="Group_9801" data-name="Group 9801" transform="translate(1071.57 454.469)">
      <rect id="Rectangle_4401" data-name="Rectangle 4401" width="1.461" height="33.472" transform="translate(72.397 122.279) rotate(169.263)" fill="#3c8f7c"/>
      <path id="Path_8232" data-name="Path 8232" d="M1323.347,1783.414h-1.727l6.436-33.314,1.433.273Z" transform="translate(-1318.787 -1660.715)" fill="#3c8f7c"/>
      <path id="Path_8233" data-name="Path 8233" d="M1543.1,1783.414h-1.724l6.433-33.314,1.433.273Z" transform="translate(-1488.147 -1660.715)" fill="#3c8f7c"/>
      <path id="Path_8234" data-name="Path 8234" d="M1376.9,1783.915l1.4.018-6.17-33.183-1.433.272Z" transform="translate(-1356.611 -1661.216)" fill="#184655"/>
      <path id="Path_8235" data-name="Path 8235" d="M1354.4,1434.646c7.662.821,17.58,1.686,27.535,18.582,10.88,18.464,5.153,46.045-3.435,53.709s-36.635,17.127-60.213,2.961c0,0-14.238-8.587-6.931-22.835,11.242-21.927,9.655-26.5,14.682-35.094S1338.132,1432.906,1354.4,1434.646Z" transform="translate(-1309.266 -1417.459)" fill="#d3d3d3"/>
      <path id="Path_8236" data-name="Path 8236" d="M1397.478,1458.264c-6.8-11.532-13.57-15.593-19.625-17.274a50.673,50.673,0,0,1,7.091,9.575c10.88,18.464,5.153,46.044-3.435,53.709-7.616,6.8-30.534,15.006-52.069,6.9a21.915,21.915,0,0,0,4.389,3.763c23.578,14.167,51.625,4.7,60.214-2.961S1408.358,1476.728,1397.478,1458.264Z" transform="translate(-1324.813 -1422.496)" fill="#184655"/>
      <path id="Path_8237" data-name="Path 8237" d="M1392.159,1557.66l-1.97,5.91,6-2.362Z" transform="translate(-1371.63 -1512.409)" fill="#f79c8d"/>
      <path id="Path_8238" data-name="Path 8238" d="M1398.4,1480.99c-.4.016-1.5.383-3.1,3.4-2.048,3.857-5.041,15.508-5.041,15.508l8.933,3.316,1.147-2.431,1.89-18.721S1398.514,1480.985,1398.4,1480.99Z" transform="translate(-1371.684 -1453.323)" fill="#0f0328"/>
      <path id="Path_8239" data-name="Path 8239" d="M1435.664,1473.67a54.61,54.61,0,0,0-11.809,1.681s-2.156,18.46,1.94,32.486c.917,3.14-.76,13.017-.76,13.017l26.471-.349s-3.135-23.876-1.954-27.734,1.208-17.3,1.208-17.3-.181-.028-5.947-1.02A60.264,60.264,0,0,0,1435.664,1473.67Z" transform="translate(-1397.138 -1447.682)" fill="#0f0328"/>
      <path id="Path_8240" data-name="Path 8240" d="M1483.561,1828.8s-.585,6.736-1.662,8.6.057,5.036.112,5.472,2.266,1.057,5.78.683,3.456-1.181,3.174-2.486-2.153-2.983-2.266-4.229,1.076-5.72,1.076-5.72Z" transform="translate(-1441.95 -1721.366)" fill="#f7a491"/>
      <path id="Path_8241" data-name="Path 8241" d="M1363.321,1653.78s-18.272-1.011-22.351,1.451.739,7.52.739,7.52,14.875,6.447,39.779,7.878c5.9.34,6.406-15.324,5.3-16.62S1363.321,1653.78,1363.321,1653.78Z" transform="translate(-1332.435 -1586.166)" fill="#dc9400"/>
      <path id="Path_8242" data-name="Path 8242" d="M1486.951,1874.353c3.619-.383,3.169-2.156,2.878-3.5-.183-.842-1.22-1.834-1.839-2.772a6.013,6.013,0,0,1-2.42,1.172c-1.63.479-3.869-.47-5.293-1.066a17.355,17.355,0,0,0-.484,4.651C1479.851,1873.286,1483.334,1874.735,1486.951,1874.353Z" transform="translate(-1440.672 -1751.638)" fill="#f47458"/>
      <path id="Path_8243" data-name="Path 8243" d="M1487.754,1667.409c-.729,5.506-4.344,32.912-4.344,32.912l8.387,1.037s10.313-35.773,9.786-41.245-4.39-5.933-4.39-5.933S1489.687,1652.837,1487.754,1667.409Z" transform="translate(-1443.472 -1586.768)" fill="#ffab00"/>
      <path id="Path_8244" data-name="Path 8244" d="M1441.022,1490.4c-2.475-.924-3.686,21.3-4.021,30.445a108.327,108.327,0,0,1-13.923-.14c-.894-.066-2.956-.821-3.846-.936a8.919,8.919,0,0,0-2.185-.1,41.093,41.093,0,0,0-5.123,2.3c-.484.507-1.8,1.784-1.574,2.337s2.52-1.539,2.52-1.539l1.124-.629c-1.4,1.362-4.066,3.156-3.681,3.807s2.782-1.183,4.5-2.424c-1.47,1.323-3.3,3.695-2.878,4.064.378.333,2.455-2.41,4.678-3.2.824-.293,1.645.518,2.291.617a4.731,4.731,0,0,0,1.679.094l2.405-.679c.819.073.839.557,1.668.732.961.2,2.536.417,3.759.715,7.045,1.716,9.394,2.511,11.552,2.511C1446.492,1528.36,1446.873,1492.582,1441.022,1490.4Z" transform="translate(-1387.11 -1460.55)" fill="#f7a491"/>
      <path id="Path_8245" data-name="Path 8245" d="M1531.088,1504.278c.464-9.371.4-20.918-4.874-22.888-2.08-.777-5.745,3.9-5.087,23.079A39.748,39.748,0,0,0,1531.088,1504.278Z" transform="translate(-1472.479 -1453.569)" fill="#0f0328"/>
      <path id="Path_8246" data-name="Path 8246" d="M1354.495,1853.93s.732,2.339-.578,3.885-6.756,3.064-7.47,3.9a2.334,2.334,0,0,0-.66,1.55l15.283-.42-.167-4.6-.7-3.3Z" transform="translate(-1337.411 -1740.732)" fill="#f7a491"/>
      <path id="Path_8247" data-name="Path 8247" d="M1345.041,1873.055s3.926,1.583,5.823.647,1.839-1.2,2.388-.848.745,5.05.745,5.05l-17.184.115c-1.195-.027-1.8-.906-.828-1.656a13.842,13.842,0,0,1,1.874-1.11C1339.2,1874.484,1345.041,1873.055,1345.041,1873.055Z" transform="translate(-1329.484 -1755.202)" fill="#f47458"/>
      <path id="Path_8248" data-name="Path 8248" d="M1341.084,1659.356c-1.181-2.477-3.867-5.7-8.594-3.759-4.508,1.853-5.717,6.406-4.3,11.068s10.786,32.073,11.114,35.841l7.476.051s-1.358-21.7-1.693-26.95A50.734,50.734,0,0,0,1341.084,1659.356Z" transform="translate(-1323.419 -1587.426)" fill="#ffab00"/>
      <path id="Path_8249" data-name="Path 8249" d="M1327.878,1563.91h24.991a1.627,1.627,0,0,1,1.507,1.011l7.694,18.769h13.778a.7.7,0,0,1,.7.7h0a.7.7,0,0,1-.7.7h-39.215a2.739,2.739,0,0,1-2.5-1.617l-7.749-17.26A1.632,1.632,0,0,1,1327.878,1563.91Z" transform="translate(-1322.35 -1517.226)" fill="#355389"/>
      <path id="Path_8250" data-name="Path 8250" d="M1391.922,1605.456a1.375,1.375,0,1,0,1.032-1.793A1.47,1.47,0,0,0,1391.922,1605.456Z" transform="translate(-1372.938 -1547.843)" fill="#fff"/>
      <path id="Path_8251" data-name="Path 8251" d="M1466.333,1437.563l1.222,8.059s-4.465,9.6-7.132,8.763c-2.236-.7-.86-9.189-.86-9.189s1.22-4.559.853-6.841S1466.333,1437.563,1466.333,1437.563Z" transform="translate(-1424.771 -1419.487)" fill="#f7a491"/>
      <path id="Path_8252" data-name="Path 8252" d="M1464.168,1438.351c-.364-2.282,5.915-.793,5.915-.793l.1.667a3.717,3.717,0,0,1-.681,1.124,8.278,8.278,0,0,1-5.493,2.486A12.443,12.443,0,0,0,1464.168,1438.351Z" transform="translate(-1428.521 -1419.483)" fill="#f47458" opacity="0.2"/>
      <g id="Group_9800" data-name="Group 9800" transform="translate(31.867)">
        <path id="Path_8253" data-name="Path 8253" d="M1458.944,1380.989c.177-.064,1.422,9.178-.94,11.724s-6.969,3.376-8.621,1.371c-1.828-2.215-1.736-12.151,1.94-14.767S1458.944,1380.989,1458.944,1380.989Z" transform="translate(-1448.218 -1374.315)" fill="#f7a491"/>
        <path id="Path_8254" data-name="Path 8254" d="M1457.129,1360.408a10.2,10.2,0,0,1,5.355,3.055c1.289.152,3.044.865,4.853,3.862a7.494,7.494,0,0,1-2.009,9.772,5.836,5.836,0,0,0-2.554,4.316l-.411-1.2a6.683,6.683,0,0,1-.326-2.819,5.471,5.471,0,0,1,.42-1.695c.624-1.337-1.339-2.227-1.89-3.339-.424-.858-.445-2.819-1.112-4.233l-.8-1.083a5.068,5.068,0,0,0-3.638-1.028C1453.226,1366.424,1453.483,1359.665,1457.129,1360.408Z" transform="translate(-1452.625 -1360.351)" fill="#13375b"/>
        <path id="Path_8255" data-name="Path 8255" d="M1483.389,1413.1c-.019,1.128.493,2.05,1.144,2.062s1.195-.895,1.213-2.023-.493-2.05-1.144-2.062S1483.407,1411.974,1483.389,1413.1Z" transform="translate(-1475.322 -1399.446)" fill="#f7a491"/>
      </g>
      <path id="Path_8256" data-name="Path 8256" d="M1457.5,1432.914l-3.562-.184a1.559,1.559,0,0,0,1.576,1.484C1457.424,1434.367,1457.5,1432.914,1457.5,1432.914Z" transform="translate(-1420.76 -1416.13)" fill="#fff"/>
    </g>
    <g id="Group_9802" data-name="Group 9802" transform="translate(1202.359 411.958)">
      <path id="Path_8257" data-name="Path 8257" d="M1778.308,1203.494c.39,1.6,1.089,4.121,1.089,4.121-.055.695-.261,3.582-.5,7.121l5.2-2.083a56.331,56.331,0,0,1,.17-6.12c.2-.3.526.073,2.122-2.209a4.433,4.433,0,0,0,.546-1.834s.094-1.45-.229-1.583a.675.675,0,0,0-.817.332c-.117.25-.087.832-.2,1.085a1.8,1.8,0,0,1-1.188.537c-.319-.016.039-4.284.039-4.284s.176-1.211.266-1.608c.075-.337.383-1.328.383-1.328s.36-1.438-.085-1.546c-.264-.064-.934,1.1-1.392,2.341a24.562,24.562,0,0,1-.918,2.729c-.332-.044-.155-2.386-.155-2.386a7.614,7.614,0,0,0,.323-1.578c.312-.619.52-1.771-.03-1.865a9.588,9.588,0,0,0-.827,1.443s-.284,1.03-.452,1.509c-.293.849-.337,2.188-.491,2.777-.125.491-.243.289-.3.31a11.877,11.877,0,0,1,.112-1.594,9.487,9.487,0,0,1,.117-1.543,11.284,11.284,0,0,0,.222-1.631c.09-1.211-.674-1.087-.935.02-.1.422-.207.881-.312,1.349-.41,1.814-.4,3.564-.594,3.578-.254.018-.087-3.165-.087-3.165s-.39-1.761-.777-.126a14.353,14.353,0,0,0-.4,3.513A14.007,14.007,0,0,0,1778.308,1203.494Z" transform="translate(-1778.116 -1189.131)" fill="#f8a492"/>
      <path id="Path_8258" data-name="Path 8258" d="M1990.7,1185.147c-.39,1.6-1.09,4.121-1.09,4.121.055.695.262,3.582.5,7.121l-5.2-2.083a56.227,56.227,0,0,0-.17-6.121c-.2-.3-.525.073-2.121-2.208a4.441,4.441,0,0,1-.546-1.835s-.094-1.449.229-1.582a.673.673,0,0,1,.816.333c.12.252.088.832.2,1.082a1.8,1.8,0,0,0,1.188.537c.319-.016-.039-4.284-.039-4.284s-.176-1.211-.266-1.608c-.075-.337-.383-1.328-.383-1.328s-.36-1.436.084-1.546c.264-.064.934,1.1,1.393,2.342a24.68,24.68,0,0,0,.917,2.729c.332-.044.156-2.385.156-2.385a7.6,7.6,0,0,1-.324-1.578c-.312-.619-.521-1.771.03-1.865a9.551,9.551,0,0,1,.828,1.443s.285,1.03.452,1.509c.293.849.338,2.188.491,2.777.126.491.243.289.3.31a12.048,12.048,0,0,0-.112-1.594,9.517,9.517,0,0,0-.117-1.544,11.45,11.45,0,0,1-.222-1.631c-.089-1.211.672-1.087.936.021.1.422.206.881.312,1.349.41,1.814.4,3.564.594,3.578.255.019.088-3.165.088-3.165s.39-1.761.777-.126a26.024,26.024,0,0,1,.3,7.231Z" transform="translate(-1935.291 -1174.989)" fill="#f8a492"/>
      <path id="Path_8259" data-name="Path 8259" d="M1943.575,1810.96a39.85,39.85,0,0,0,3.6,4.016c.718.44-.321,5.637-2.277,5.977-1.1.192-1.716-1.022-1.716-1.022l.316-1.5-4.121-4.245Z" transform="translate(-1902.396 -1665.106)" fill="#f7a491"/>
      <path id="Path_8260" data-name="Path 8260" d="M1877.5,1814.82a39.716,39.716,0,0,0,3.061,4.445c.656.527-1.039,5.55-3.023,5.637-1.119.051-1.571-1.234-1.571-1.234l.505-1.445-3.546-4.738Z" transform="translate(-1851.185 -1668.081)" fill="#f7a491"/>
      <path id="Path_8261" data-name="Path 8261" d="M1879.226,1833.52a29.979,29.979,0,0,1-2.135,2.46,25.1,25.1,0,0,1-2.218,1.789s-1.41,2.562-1.8,3.454c-.858,1.989-1.823,4.206-1.684,5.318.046.358.849.736,1.519.53,2.786-.857,9.91-7.373,10.811-9.123C1884.758,1835.935,1879.226,1833.52,1879.226,1833.52Z" transform="translate(-1849.991 -1682.493)" fill="#13375b"/>
      <path id="Path_8262" data-name="Path 8262" d="M1807.582,1566.675c.259-.724.507-1.394.748-2.025,2.963.647,6.312,1.358,9.754,2.092l.419,12.621c0-.975-2.589,20.131-2.589,20.131s6.69,14.813,11.268,23.448a15.788,15.788,0,0,1-5.479,4.7c-7.1-8.515-16.4-24.1-16.788-26.69C1804.693,1599.457,1804.493,1575.365,1807.582,1566.675Z" transform="translate(-1798.683 -1475.285)" fill="#939393"/>
      <path id="Path_8263" data-name="Path 8263" d="M1878.651,1577.352c-.906,9.834-2.92,28.635-2.75,30.149.5,1.885,9.46,19.283,11.072,21.814-1.279,1.927-3.261,4.011-5.392,4.587-.419.115-15.2-20.918-16.006-22.588-.91-1.887-2.429-12.18-2.456-24.925l-.42-12.62C1868.438,1574.995,1873.713,1576.194,1878.651,1577.352Z" transform="translate(-1843.301 -1482.313)" fill="#ababab"/>
      <path id="Path_8264" data-name="Path 8264" d="M1817.693,1393.92l6.754.927s5.4.1,6.071.1,4.924,24.67,6.151,33.94.277,10.912.277,10.912-8.561,1.926-14.9,1.365c-6.587-.585-14-4.14-14-4.14s5.63-17.815,6.747-23.379S1817.693,1393.92,1817.693,1393.92Z" transform="translate(-1801.185 -1343.711)" fill="#daebfb"/>
      <path id="Path_8265" data-name="Path 8265" d="M1778.25,1260.534s-.433,18.368.26,19.771c1.006,2.044,12.347,16.536,12.347,16.536s-5.417,22.67-7.694,30.5c-.229.789-1.245,5.88-1.245,6.378,0,1.1,4.791,2.5,5.362,2.415.509-.073,4.69-21.638,7.36-32.19a30.181,30.181,0,0,1,4.578-9.97l1.855-2.637-14.246-14.279s-1.757-15.893-1.757-17.212C1785.073,1259.5,1778.943,1259.238,1778.25,1260.534Z" transform="translate(-1778.116 -1240.166)" fill="#1a1a1a"/>
      <path id="Path_8266" data-name="Path 8266" d="M1887.682,1274.023l17.765-18.1s2.474-17.118,2.651-17.762,4.584-.974,6.362-1.149c.571-.055-.3,18.233-1.149,21.3-1,3.621-14.432,20.12-14.432,20.12s-2.406,8.938-1.828,15.492c.963,10.887,3.557,25.865,3.094,26.333-2.887,1.819-13.967,2.014-14.669.883C1877.731,1308.664,1887.682,1274.023,1887.682,1274.023Z" transform="translate(-1858.58 -1222.786)" fill="#1a1a1a"/>
      <path id="Path_8267" data-name="Path 8267" d="M1951.933,1827.89a30.415,30.415,0,0,1-1.8,2.715,25.424,25.424,0,0,1-1.972,2.058s-1.071,2.72-1.339,3.655c-.6,2.083-1.273,4.6-.991,5.683.09.349.858,1.016,1.491.6,2.442-1.592,8.971-9.043,9.639-10.891C1957.729,1829.578,1951.933,1827.89,1951.933,1827.89Z" transform="translate(-1907.314 -1678.154)" fill="#13375b"/>
      <path id="Path_8268" data-name="Path 8268" d="M1861.695,1295.143a18.188,18.188,0,0,0,2.266-.046,10.45,10.45,0,0,1,2.562,0c1.314.277,3.4,1.208,4.094,2.931.867,2.144,3.965,1.826.294,9.963-4.156,9.21-9.01,6.195-9.078,5.988s-2.4-7.8-2.4-7.8-2.905,2.881-2.858,2.752S1852.62,1294.815,1861.695,1295.143Z" transform="translate(-1837.935 -1267.491)" fill="#0e2e35"/>
      <path id="Path_8269" data-name="Path 8269" d="M1876.973,1364.306l-.484,3.6s-1.085,5.192.309,6.192,5.933-6.341,5.933-6.341l-.48-9.13Z" transform="translate(-1853.618 -1316.514)" fill="#f7a491"/>
      <path id="Path_8270" data-name="Path 8270" d="M1884,1361.6a10.336,10.336,0,0,1-5.846,5.772l.41-3.055,5.279-5.676Z" transform="translate(-1855.208 -1316.522)" fill="#f47458"/>
      <path id="Path_8271" data-name="Path 8271" d="M1867.818,1311.5a4.806,4.806,0,0,0-6.894,2.592,36.331,36.331,0,0,0-1.252,4.468c-.867,4.119.493,8.547,2.364,8.905s7.554-1.333,8.869-7.165C1871.714,1316.7,1870.542,1313.065,1867.818,1311.5Z" transform="translate(-1840.761 -1279.712)" fill="#f7a491"/>
      <path id="Path_8272" data-name="Path 8272" d="M1903.027,1348.1a1.4,1.4,0,1,0,1.662-1.394A1.547,1.547,0,0,0,1903.027,1348.1Z" transform="translate(-1874.351 -1307.306)" fill="#f7a491"/>
      <path id="Path_8273" data-name="Path 8273" d="M1877.738,1315.133s-2.321-.273-2.594-1.936-1.977-5.672-6.02-5.8,4.273-1.78,4.559-1.672,3.733,1.381,3.733,1.381,1.828,3.181,1.833,3.456-.216,3.174-.216,3.174Z" transform="translate(-1847.4 -1275.736)" fill="#0e2e35"/>
      <path id="Path_8274" data-name="Path 8274" d="M1870.155,1362.79l-4.142-.72a1.837,1.837,0,0,0,1.63,1.963C1869.855,1364.485,1870.155,1362.79,1870.155,1362.79Z" transform="translate(-1845.851 -1319.165)" fill="#fff"/>
    </g>
    <g id="Group_9805" data-name="Group 9805" transform="translate(986.631 425.126)">
      <path id="Path_8275" data-name="Path 8275" d="M971.35,1430.674a4.181,4.181,0,0,0,.445,1.078,40.922,40.922,0,0,0,4.252,5.658l2.3-5.179s-.374-1.626-1.025-3.951C975.1,1428.86,972.987,1429.2,971.35,1430.674Z" transform="translate(-965.875 -1383.377)" fill="#f8a492"/>
      <path id="Path_8276" data-name="Path 8276" d="M966.487,1358.294s-12.82,5.521-13.235,5.415c-.266-.069-5.259-8.424-5.311-16.281-.025-3.628,3.745-7.995,7.949-7.13,2.117.436,2.085,1.023,5.215,5.575S966.487,1358.294,966.487,1358.294Z" transform="translate(-947.833 -1315.487)" fill="#dbd4d4"/>
      <path id="Path_8277" data-name="Path 8277" d="M1073.648,1850.73s-.305,5.034-.305,5.045a27.393,27.393,0,0,0-.552,2.8c0,2.183,10.366-1.853,8.043-2.821-.211-.087-1.312-.75-1.38-1.493-.106-1.144-.376-3.46-.376-3.46Z" transform="translate(-1044.051 -1708.943)" fill="#f7a491"/>
      <path id="Path_8278" data-name="Path 8278" d="M1079.566,1872.247s-2.433.667-3.681.835-2.889-1.238-3.772-.859c-.97.417-.934,4.181-.934,4.181s13.052,1.071,16.721-.037C1089.357,1875.926,1084.543,1873.8,1079.566,1872.247Z" transform="translate(-1042.809 -1725.455)" fill="#31185e"/>
      <path id="Path_8279" data-name="Path 8279" d="M981.178,1850.73s-.305,5.034-.305,5.045a27.428,27.428,0,0,0-.552,2.8c0,2.183,10.366-1.853,8.043-2.821-.211-.087-1.637-1.245-1.708-1.988-.106-1.145-.05-2.968-.05-2.968Z" transform="translate(-972.788 -1708.943)" fill="#f7a491"/>
      <path id="Path_8280" data-name="Path 8280" d="M986.843,1872.247s-2.433.667-3.681.835-2.889-1.238-3.773-.859c-.97.417-1.009,4.181-1.009,4.181s13.112,1.247,16.8-.037C996.613,1875.866,991.819,1873.8,986.843,1872.247Z" transform="translate(-971.293 -1725.455)" fill="#31185e"/>
      <g id="Group_9803" data-name="Group 9803" transform="translate(11.559 10.552)">
        <path id="Path_8281" data-name="Path 8281" d="M997.88,1318.036l9.13-12.791c.039-.112.122-.341.248-.69.461-1.269,1.417-3.91,2.25-6.539l.009-.028c.262-.917.817-2.52,1.353-4.071.6-1.722,1.337-3.86,1.362-4.224-.023-.062-.067-.174-.124-.324a29.478,29.478,0,0,1-.947-3.839c-.1-.574-.2-1.966.477-1.966,1.071,0,.559,1.392,1.055,2.259a22.068,22.068,0,0,0,.743-2.9l.179-2.719c.034-.2-.183-1.707.566-1.707l.037,0c.674.048.661,1.644.94,4.342.089-.31.177-.686.245-1.03a9.81,9.81,0,0,1,.229-1.424c-.135-.753-.057-1.938.743-1.826.4.057.367,1.711.367,1.711,0,.227-.028,1.977-.016,2.321.083-.587.4-3.091,1.032-3.091.521,0,.562.674.553,1.207-.007.316-.332,3.027-.351,3.343.246-.41.537-2.8.78-2.8,1.016,0,.649,3.4.276,4.284a3.694,3.694,0,0,0-.115.475,8.325,8.325,0,0,1-.872,2.53c-.637,1.092-1.518,2.826-1.651,3.092-.1.542-.4,2.491-.789,4.94-.165,1.048-.344,2.2-.532,3.39l-.009,0c-.035.257-.225,1.078-.948,4.151a36.84,36.84,0,0,1-1.135,4.468c-.429.759-10.275,14.127-10.692,14.7l-.248.335Z" transform="translate(-997.88 -1278.5)" fill="#f7a491"/>
        <path id="Path_8282" data-name="Path 8282" d="M1065.01,1314.2s-.741-1.894-2.059-1.9a1.516,1.516,0,0,1,1.369.234A2.617,2.617,0,0,1,1065.01,1314.2Z" transform="translate(-1048.027 -1304.495)" fill="#f47458"/>
      </g>
      <g id="Group_9804" data-name="Group 9804" transform="translate(0 0)">
        <path id="Path_8283" data-name="Path 8283" d="M984.314,1303.387l-1.174,7.433s4.479,3.6,7.089,2.837c2.19-.637.688-3.5.688-3.5s-1.167-3.967-.809-6.047S984.314,1303.387,984.314,1303.387Z" transform="translate(-974.961 -1286.791)" fill="#f7a491"/>
        <path id="Path_8284" data-name="Path 8284" d="M988.341,1305.638a18.351,18.351,0,0,0,5.068,1.429,9.886,9.886,0,0,1-.119-2.954c.165-.961-1.057-1.188-2.42-1.154-1.784.154-3.374.431-3.374.431l-.227,1.429A3.7,3.7,0,0,0,988.341,1305.638Z" transform="translate(-978.144 -1286.795)" fill="#fe875e"/>
        <path id="Path_8285" data-name="Path 8285" d="M963.579,1254.034c-.186,0,1.771,8.3,4.8,9.733s7.538.683,8.385-1.553c.936-2.475-2.479-10.943-6.736-12.022S963.579,1254.034,963.579,1254.034Z" transform="translate(-959.877 -1246.014)" fill="#f7a491"/>
        <path id="Path_8286" data-name="Path 8286" d="M954.679,1232.88a9.5,9.5,0,0,0-3.9,4.31c-1.135.539-2.507,1.7-3.165,4.839-.81,3.857,2.071,6.83,5.124,7.724s3.525,2.915,3.525,2.915l.346-2.174a8.582,8.582,0,0,0-1.7-2.841c-1.021-.947.484-2.328.617-3.454.1-.867-.537-2.55-.4-3.974,0,0,1.7-2.571,3.369-3.206C961.348,1235.933,957.78,1231.091,954.679,1232.88Z" transform="translate(-947.477 -1232.488)" fill="#13375b"/>
        <path id="Path_8287" data-name="Path 8287" d="M976.527,1285.179c.395.959.234,1.911-.36,2.126s-1.4-.387-1.794-1.346-.234-1.911.36-2.126S976.133,1284.221,976.527,1285.179Z" transform="translate(-968.039 -1272.024)" fill="#f7a491"/>
      </g>
      <path id="Path_8288" data-name="Path 8288" d="M1033.63,1425.187l17.611-2.871s-2-5.046-2.72-5.046-13.318,5.5-13.318,5.5l-1,2.013Z" transform="translate(-1013.872 -1374.892)" fill="#f8a492"/>
      <path id="Path_8289" data-name="Path 8289" d="M984.22,1501.75s-1.757,8.493-1.041,14.935.773,29.316.773,29.316l-2.731,36.6,6.484.142s7.687-36.587,7.543-35.646,2.578-25.759,2.578-25.759l-9.165-20.393Z" transform="translate(-973.481 -1439.381)" fill="#d95a6d"/>
      <path id="Path_8290" data-name="Path 8290" d="M1000.331,1493.216s-1.147,7.649.286,11,12.281,36.266,12.426,38.949,3.752,32.344,3.752,32.344l7.538-.211,1.63-32.977-3.415-41.444-3.316-10.479Z" transform="translate(-987.875 -1431.25)" fill="#ed677b"/>
      <path id="Path_8291" data-name="Path 8291" d="M983.14,1329.173a6.754,6.754,0,0,0,3.591,1.078,11.968,11.968,0,0,0,4.185-1.741l-.342-1.156s-4.486-.653-4.6-.583S983.14,1329.173,983.14,1329.173Z" transform="translate(-974.961 -1305.145)" fill="#f7a491"/>
      <path id="Path_8292" data-name="Path 8292" d="M1069.52,1395.238s6.663,6.286,9.669,5.213,4.252-4.743-3.084-10.109C1069.536,1385.536,1069.52,1395.238,1069.52,1395.238Z" transform="translate(-1041.53 -1353.109)" fill="#f8a492"/>
      <path id="Path_8293" data-name="Path 8293" d="M986.566,1360.494c-.989-5.385-8.162-22.138-8.736-25.223-.277-1.5-4.146-1.535-7.832-1.337-3.892.206-7.759.7-7.759.7s-3.445.566-4.96,1.986-1.92,5.349.261,12.807c1.72,5.887,3.853,9.119,4.908,13.407.213,1.438.4,2.858.64,4.516.387,6.412,0,14.882,0,14.882s18.758,3.891,25.773-2.014C988.857,1380.217,987.58,1366.009,986.566,1360.494Z" transform="translate(-954.063 -1310.603)" fill="#fcfcfc"/>
      <path id="Path_8294" data-name="Path 8294" d="M1039.535,1349.634s-7.359,6.075-7.791,6.075c-.278,0-10.5-7.522-12.864-13.7-1.3-3.417,1.433-7.24,4.559-7.226,2.167.009,3.131.566,7.426,4.19S1039.535,1349.634,1039.535,1349.634Z" transform="translate(-1002.248 -1311.32)" fill="#fcfcfc"/>
    </g>
    <path id="Path_8295" data-name="Path 8295" d="M994.467,644.7c-1.8-1.216-3.644-2.367-5.419-3.617a1.573,1.573,0,0,1-.573-1.2c.234-2.5.61-5,.828-7.5a1.327,1.327,0,0,1,.929-1.385c2.465-.963,4.9-1.993,7.35-3,.4-.163.787-.342,1.473-.637-1.17-3.757-2.323-7.47-3.509-11.277-3.151.626-6.023,1.147-8.871,1.786a1.744,1.744,0,0,1-2.2-.821c-1.321-1.9-2.906-3.619-4.328-5.454a1.428,1.428,0,0,1-.186-1.177c.968-2.5,1.933-5.015,3.05-7.453a1.517,1.517,0,0,0-.78-2.346,7.261,7.261,0,0,1-1.094-.853l-5.431-2.919a3.708,3.708,0,0,1-.681-.142c-2.208-.9-1.782-.885-3.036.959-1.527,2.245-3.018,4.518-4.328,6.481l-9.811-.917c-1.236-3-2.527-6.137-3.828-9.293a37.749,37.749,0,0,0-11.242,3.5c.622,3.1,1.218,6.119,1.839,9.137a1.043,1.043,0,0,1-.452,1.266c-2.078,1.555-4.119,3.163-6.084,4.855a1.225,1.225,0,0,1-1.539.234c-2.514-1.057-5.05-2.055-7.566-3.1a1.057,1.057,0,0,0-1.493.371,33.621,33.621,0,0,0-4.655,9.022c-.23.635.075.91.555,1.222,2.22,1.442,4.406,2.94,6.635,4.366a1.327,1.327,0,0,1,.711,1.6c-.443,2.869-.72,5.763-1.087,8.88l-8.917,3.674a35.174,35.174,0,0,0,3.417,11.4l9.637-1.982c1.855,2.14,3.53,4.172,5.328,6.089a1.689,1.689,0,0,1,.4,2.165c-1.059,2.383-2.025,4.807-3,7.224-.193.477-.573,1.034.172,1.429q4.551,2.4,9.1,4.807c.644.339,1.053.124,1.443-.484,1.452-2.261,3-4.458,4.417-6.74.546-.88,1.131-.915,2.046-.791a61.672,61.672,0,0,0,6.809.615,1.483,1.483,0,0,1,1.67,1.149c1.062,2.8,2.236,5.559,3.344,8.277,2.429,0,9.045-2.073,11.43-3.555-.624-2.981-1.224-6-1.908-9a1.28,1.28,0,0,1,.626-1.525c1.853-1.459,3.6-3.048,5.442-4.525a1.563,1.563,0,0,1,1.291-.248c2.243.878,4.456,1.834,6.669,2.791,1.236.534,1.734.754,2.208.438l5.181-9.637C996.463,646.054,995.923,645.685,994.467,644.7Zm-19.255-3.378a17.708,17.708,0,0,1-23.982,7.211h0a17.709,17.709,0,0,1-7.21-23.982h0A17.708,17.708,0,0,1,968,617.341h0a17.706,17.706,0,0,1,7.21,23.982Z" transform="translate(32.932 -315.232)" fill="#41ce94" opacity="0.24"/>
    <path id="Path_8296" data-name="Path 8296" d="M516.048,876.3c-2.913.284-5.814.67-8.731.894a2.116,2.116,0,0,1-1.626-.754c-1.908-2.8-3.653-5.711-5.58-8.5a1.791,1.791,0,0,1-.225-2.234c1.731-3.115,3.38-6.277,5.055-9.424.271-.509.525-1.03.982-1.927l-13.323-8.7c-2.734,3.353-5.268,6.362-7.676,9.467a2.346,2.346,0,0,1-2.986,1.032c-3-.841-6.123-1.264-9.174-1.947a1.919,1.919,0,0,1-1.2-1.064c-1.144-3.431-2.3-6.864-3.232-10.357-.447-1.677-1.266-2.1-2.823-1.766a9.875,9.875,0,0,1-1.867.053q-4.073.816-8.144,1.629a4.978,4.978,0,0,1-.828.438c-3.069.958-2.61.612-2.33,3.6.342,3.644.743,7.281,1.069,10.442-3.784,2.576-7.321,4.984-10.974,7.467l-11.949-6.362a50.87,50.87,0,0,0-8.671,13.277c3.3,2.683,6.518,5.307,9.752,7.908a1.406,1.406,0,0,1,.617,1.7c-.823,3.4-1.562,6.821-2.149,10.263a1.654,1.654,0,0,1-1.4,1.564c-3.516,1.06-7.006,2.2-10.518,3.275a1.423,1.423,0,0,0-1.232,1.668,45.3,45.3,0,0,0,2.91,13.361c.307.858.86.881,1.626.791,3.543-.408,7.1-.729,10.637-1.16a1.789,1.789,0,0,1,2.108,1.046c2,3.36,4.2,6.6,6.49,10.153-1.867,3.506-3.986,7.488-6.105,11.467a47.353,47.353,0,0,0,13.336,8.905l8.307-10.327c3.763.628,7.245,1.3,10.756,1.748a2.267,2.267,0,0,1,2.275,1.9c.945,3.383,2.023,6.729,3.082,10.077.209.663.291,1.567,1.4,1.335q6.787-1.41,13.572-2.819c.961-.2,1.2-.775,1.082-1.741-.431-3.594-.706-7.206-1.2-10.79-.19-1.383.39-1.922,1.445-2.578a83.664,83.664,0,0,0,7.6-5.2,2,2,0,0,1,2.72-.241c3.507,2,7.093,3.853,10.575,5.724,2.52-2.085,7.612-9.917,8.816-13.5-3.206-2.559-6.424-5.181-9.71-7.71a1.721,1.721,0,0,1-.658-2.122c.672-3.105,1.126-6.256,1.768-9.368a2.1,2.1,0,0,1,1.128-1.365c3.082-1.014,6.2-1.92,9.32-2.825,1.743-.507,2.449-.7,2.667-1.443l-2.89-14.451C519.279,875.991,518.4,876.069,516.048,876.3Zm-22.893,13.017a23.849,23.849,0,0,1-18.712,28.067h0a23.85,23.85,0,0,1-28.067-18.712h0A23.85,23.85,0,0,1,465.089,870.6h0a23.853,23.853,0,0,1,28.067,18.712Z" transform="translate(421.224 -505.576)" fill="#41ce94" opacity="0.43"/>
    <path id="Path_8297" data-name="Path 8297" d="M673.645,577.991c-1.167-.553-2.353-1.067-3.509-1.642a.938.938,0,0,1-.445-.656c-.087-1.493-.087-2.993-.183-4.486a.791.791,0,0,1,.422-.9c1.362-.787,2.7-1.61,4.055-2.42.218-.131.434-.27.81-.507-1.023-2.1-2.032-4.185-3.068-6.318-1.8.649-3.44,1.211-5.057,1.842a1.037,1.037,0,0,1-1.365-.287c-.945-1-2.032-1.869-3.032-2.821a.847.847,0,0,1-.213-.676c.347-1.56.688-3.122,1.129-4.656.211-.736,0-1.083-.667-1.31a4.365,4.365,0,0,1-.718-.4l-3.454-1.231a2.24,2.24,0,0,1-.413-.023c-1.378-.335-1.128-.362-1.7.835-.7,1.456-1.371,2.927-1.966,4.2-2.018.115-3.9.225-5.85.335-1-1.654-2.034-3.383-3.08-5.121a22.454,22.454,0,0,0-6.3,3.057c.642,1.766,1.264,3.488,1.9,5.208a.618.618,0,0,1-.154.784c-1.082,1.1-2.14,2.227-3.144,3.4a.732.732,0,0,1-.885.275c-1.571-.4-3.154-.757-4.725-1.149a.628.628,0,0,0-.844.351,19.985,19.985,0,0,0-1.933,5.72c-.078.395.126.527.436.67,1.434.651,2.853,1.335,4.291,1.977a.786.786,0,0,1,.56.874c0,1.727.092,3.451.151,5.318l-4.915,2.954a20.9,20.9,0,0,0,3.027,6.4c1.924-.709,3.8-1.4,5.491-2.025,1.282,1.091,2.447,2.137,3.676,3.105a1,1,0,0,1,.429,1.236c-.411,1.5-.761,3.007-1.122,4.516-.071.3-.245.658.227.823q2.89,1.008,5.779,2.014c.411.142.628-.02.8-.413.651-1.459,1.369-2.89,2-4.357.243-.566.585-.64,1.133-.649a36.929,36.929,0,0,0,4.057-.245.883.883,0,0,1,1.085.527c.874,1.552,1.809,3.068,2.7,4.568a20.1,20.1,0,0,0,6.4-3.11c-.633-1.7-1.255-3.42-1.927-5.124a.762.762,0,0,1,.232-.954c.961-1.023,1.846-2.112,2.8-3.147a.929.929,0,0,1,.736-.261c1.4.317,2.784.681,4.169,1.046.775.2,1.087.289,1.337.06L675,579.067C674.936,578.608,674.588,578.438,673.645,577.991Zm-11.623-.271a10.531,10.531,0,0,1-13.458,6.378h0a10.532,10.532,0,0,1-6.378-13.458h0a10.531,10.531,0,0,1,13.458-6.378h0a10.533,10.533,0,0,1,6.378,13.458Z" transform="translate(257.573 -282.379)" fill="#41ce94" opacity="0.16"/>
    <path id="Path_8298" data-name="Path 8298" d="M730.385,1749.241l-3.465-.014c.456-15.122.86-38.089.1-39.378a.558.558,0,0,0,.232.174l2.812-.734c.454.229.729.367.823,6.8.048,3.31.03,7.88-.055,13.584C730.684,1739.38,730.39,1749.142,730.385,1749.241Z" transform="translate(182.294 -1174.795)" fill="#355389"/>
    <path id="Path_8299" data-name="Path 8299" d="M701.191,1882.68H677.809a1.949,1.949,0,0,0-1.949,1.949h0a.343.343,0,0,0,.342.342h26.6a.343.343,0,0,0,.342-.342h0A1.954,1.954,0,0,0,701.191,1882.68Z" transform="translate(221.644 -1308.42)" fill="#355389"/>
    <path id="Path_8300" data-name="Path 8300" d="M725.607,1874.3h-2.862a1.536,1.536,0,0,0-1.534,1.534h0a1.534,1.534,0,0,0,1.534,1.534h2.864a1.536,1.536,0,0,0,1.534-1.534h0A1.536,1.536,0,0,0,725.607,1874.3Z" transform="translate(186.694 -1301.962)" fill="#355389"/>
    <rect id="Rectangle_4402" data-name="Rectangle 4402" width="1.383" height="68.937" transform="translate(828.018 507.57)" fill="#13375b"/>
    <path id="Path_8301" data-name="Path 8301" d="M682.892,1382.593a18.561,18.561,0,0,1,1.695-8.942,7.584,7.584,0,0,1,6.758-3.851c8.451-.012,9.525,11.153,14.9,15.46,1.644,1.316,3.481,2.387,5.036,3.807,5.743,5.24,3.156,14.939-2.117,19.535-3.66,3.188-9.41,5-13.921,2.507a14.168,14.168,0,0,1-5.415-5.832,79.515,79.515,0,0,1-4.256-10.827A40.375,40.375,0,0,1,682.892,1382.593Z" transform="translate(216.24 -913.164)" fill="#13375b"/>
    <path id="Path_8302" data-name="Path 8302" d="M564.017,1507.391l18.388-5.126s3.874-5.2,8.857-12.185c1.631,1.613,2.534,4.091,4.176,5.688l-12.171,13.462a2.319,2.319,0,0,1-1.718.766l-16.9.057-5.782.461v-3.7Z" transform="translate(311.802 -1005.859)" fill="#f48c7f"/>
    <path id="Path_8303" data-name="Path 8303" d="M676.125,1495.249s6.312-6.472,7.935-9.282-1.105-.981-3.894-1.72c-1.055-.28-.789-6.468-2.784-4.456a91.734,91.734,0,0,0-7.391,9.07Z" transform="translate(226.167 -997.621)" fill="#59428f"/>
    <path id="Path_8304" data-name="Path 8304" d="M698.583,1467.776s5.665-1.119,8.247,1.041-.553,21.356-.551,24.539,1.775,12.173,1.775,12.173-17.166,3-19.893-1.773c0,0-.775-18.2-.66-20.492s2.66-11.65,3.364-12.652S698.583,1467.776,698.583,1467.776Z" transform="translate(212.681 -988.447)" fill="#755faa"/>
    <path id="Path_8305" data-name="Path 8305" d="M718.7,1430.111s.03.17.083.459a43.435,43.435,0,0,0,1.915,7.229c.807,1.523-2.766,6.383-6.2,5.789-1.023-.177.865-4.466.775-4.92-.174-.869-.411-2.055-.651-3.273-.135-.686-.273-1.383-.4-2.036-.367-1.858-.667-3.378-.667-3.378Z" transform="translate(192.597 -959.542)" fill="#f7a491"/>
    <path id="Path_8306" data-name="Path 8306" d="M718.786,1430.567c-.053-.289-.083-.459-.083-.459l-5.153-.128.668,3.378c.128.649.266,1.342.4,2.025a4.83,4.83,0,0,0,2.461-1.231,6.471,6.471,0,0,0,1.862-2.766C718.877,1431.063,718.825,1430.782,718.786,1430.567Z" transform="translate(192.597 -959.542)" fill="#f47458"/>
    <path id="Path_8307" data-name="Path 8307" d="M704.069,1379.544a4.651,4.651,0,0,1,3.951,1.686c1.523,1.966,3.163,8.041-.619,11.346s-7.518-.436-8.07-4.4S698.56,1379.4,704.069,1379.544Z" transform="translate(203.764 -920.663)" fill="#f7a491"/>
    <path id="Path_8308" data-name="Path 8308" d="M694.268,1409.684c.452.876,1.209,1.36,1.693,1.083s.509-1.213.057-2.087-1.209-1.36-1.693-1.082S693.816,1408.808,694.268,1409.684Z" transform="translate(207.706 -942.232)" fill="#f7a491"/>
    <path id="Path_8309" data-name="Path 8309" d="M719.71,1376.553s3.245,5.777,5.566,6.045,2.626,3.337,2.626,3.337-.83-7.075-3.128-8.44A8.546,8.546,0,0,0,719.71,1376.553Z" transform="translate(187.85 -918.321)" fill="#13375b"/>
    <path id="Path_8310" data-name="Path 8310" d="M741.158,1403.964c-.188,1.025.19,1.968.848,2.1s1.342-.587,1.532-1.615-.19-1.968-.849-2.1S741.348,1402.937,741.158,1403.964Z" transform="translate(171.358 -938.234)" fill="#f7a491"/>
    <g id="Group_9806" data-name="Group 9806" transform="translate(840.482 515.223)">
      <path id="Path_8311" data-name="Path 8311" d="M646.12,1811.322s5.211,6.247,5.245,6.791-.206,6.476-.826,7.02-2.44.929-1.855,1.541c.443.463,3.846.363,6.1.238.658-.036,1.484-5.288,1.745-6.061.378-1.121,1.3-3.646.956-4.428a6.576,6.576,0,0,0-2.1-1.894c-1.19-.768-5.738-7.1-5.738-7.1Z" transform="translate(-595.919 -1765.651)" fill="#f48c7f"/>
      <path id="Path_8312" data-name="Path 8312" d="M661.479,1838.22s-3.5,9.85-4.869,10.328c-.365.126-2.108.447-2.438,1.218a3.357,3.357,0,0,0,0,1.009h7.293s.922-4.342,1.287-6.247c0,0,1.931-4.66,1.715-5.082S661.479,1838.22,661.479,1838.22Z" transform="translate(-602.091 -1789.379)" fill="#b75742"/>
      <path id="Path_8313" data-name="Path 8313" d="M449.424,1827.4s-4.254,5.99-3.881,7.884c.2,1.014,1.094,2.344.58,3.3a2.579,2.579,0,0,1-1.1,1.2l-13.272.213c-.722.011-.245-.452.337-.881a26.929,26.929,0,0,1,4.772-2.635c.2-.1.922-.555,1.183-.713a9.219,9.219,0,0,0,1.9-1.675c.954-1.06,5.144-9.687,5.144-9.687Z" transform="translate(-430.434 -1778.729)" fill="#f7a491"/>
      <path id="Path_8314" data-name="Path 8314" d="M434.841,1872.936a12.051,12.051,0,0,0,7.557-.3c.374,1.059.872,2.388.608,3.153-.321.938-.782,1.15-1.186,1.161-3.206.085-11.745.2-14.189.229a.4.4,0,0,1-.31-.656C427.927,1875.8,434.58,1873.1,434.841,1872.936Z" transform="translate(-427.227 -1815.906)" fill="#b75742"/>
      <path id="Path_8315" data-name="Path 8315" d="M553,1636.974s5.268,6.013,6.612,6.965,14.24,24.7,14.24,24.7l-4.594,3.355s-11.527-14.371-16.939-22.058c-4.578-6.5-2.892-6.087-5.582-10.043a5.284,5.284,0,0,1,.807-6.89q.365-.33.794-.687c3.984-3.321,31.291-7.057,31.291-7.057l17.466,1.711s-14.272,10.008-14.8,10.275-19.707,3.062-20.106,3.062S553,1636.974,553,1636.974Z" transform="translate(-518.62 -1625.26)" fill="#0e0227"/>
      <path id="Path_8316" data-name="Path 8316" d="M548.289,1631.185s3,8.988-1.5,13.182-31.193,3.729-39.981,3.729c0,0-3.6,9.855-3.995,11.451s-17.843,22.236-17.843,22.236l-4.793-3.062s18.776-36.486,20.239-38.084,22.37-7.99,27.564-9.453S548.289,1631.185,548.289,1631.185Z" transform="translate(-468.036 -1629.325)" fill="#0e0227"/>
    </g>
    <path id="Path_8317" data-name="Path 8317" d="M608.4,1504.693l15.944-3.527s5.766-7.408,11.3-13.786c1.631,1.612,2.534,4.091,4.176,5.688l-12.171,13.464a2.321,2.321,0,0,1-1.718.766l-16.9.057-5.782.461v-3.7Z" transform="translate(277.593 -1003.778)" fill="#f7a491"/>
    <path id="Path_8318" data-name="Path 8318" d="M720.487,1486.791s6.311-6.47,7.935-9.281.42-7.522-2.369-8.26-11.7,11.152-11.7,11.152Z" transform="translate(191.981 -989.78)" fill="#755faa"/>
    <g id="Group_9807" data-name="Group 9807" transform="translate(851.526 482.765)">
      <path id="Path_8319" data-name="Path 8319" d="M477.1,1483.73h26.294a1.715,1.715,0,0,1,1.587,1.065l8.1,19.746h14.5a.733.733,0,0,1,.734.733h0a.733.733,0,0,1-.734.734H486.313a2.88,2.88,0,0,1-2.628-1.7l-8.153-18.159A1.717,1.717,0,0,1,477.1,1483.73Z" transform="translate(-475.381 -1483.73)" fill="#b75742"/>
      <path id="Path_8320" data-name="Path 8320" d="M544.476,1527.446a1.446,1.446,0,1,0,1.082-1.887A1.548,1.548,0,0,0,544.476,1527.446Z" transform="translate(-528.601 -1515.947)" fill="#fff"/>
    </g>
    <path id="Path_8321" data-name="Path 8321" d="M445.461,1584.2H366.905a1.665,1.665,0,0,1-1.665-1.665h0a1.665,1.665,0,0,1,1.665-1.665h78.556a1.665,1.665,0,0,1,1.665,1.665h0A1.665,1.665,0,0,1,445.461,1584.2Z" transform="translate(461.026 -1075.828)" fill="#184655"/>
    <path id="Path_8322" data-name="Path 8322" d="M714.52,1426.263l3.562-.184a1.559,1.559,0,0,1-1.576,1.484C714.6,1427.717,714.52,1426.263,714.52,1426.263Z" transform="translate(191.849 -956.536)" fill="#fff"/>
    <path id="Path_8323" data-name="Path 8323" d="M658.9,1651.05l1.608-6.7a10.867,10.867,0,0,1,10.086-8.286l20.377-.823.628-2.073-21.088.853a12.92,12.92,0,0,0-11.994,9.854l-1.709,7.116C657.388,1651.015,658.094,1651.036,658.9,1651.05Z" transform="translate(236.324 -1116.133)" fill="#355389"/>
    <path id="Path_8324" data-name="Path 8324" d="M669.179,1563.1s-28,.479-30.915,0-4.181,3.181-3.312,5.1,3.268,2.658,6.8,2.832,32.89,1,33.715.218c.677-.64,9.577-31.069,12.816-42.2a4.2,4.2,0,0,0-2.853-5.2h0a4.2,4.2,0,0,0-5.2,2.812Z" transform="translate(253.377 -1031.748)" fill="#184655"/>
    <rect id="Rectangle_4403" data-name="Rectangle 4403" width="1.383" height="68.937" transform="translate(905.108 507.57)" fill="#13375b"/>
    <rect id="Rectangle_4404" data-name="Rectangle 4404" width="78.129" height="0.741" transform="translate(828.018 512.033)" fill="#13375b"/>
    <g id="Group_9809" data-name="Group 9809" transform="translate(1045.787 179.711)">
      <path id="Path_8325" data-name="Path 8325" d="M1600.425,145.52s10.151,6.571,35.167,5.676c0,0-26.814,10.125-37.3,11.692l-4.314-17.042Z" transform="translate(-1509.146 -132.114)" fill="#e25a44"/>
      <path id="Path_8326" data-name="Path 8326" d="M1612.152,168.19a25.833,25.833,0,0,1-6.915,8.786l-2.248-8.88.145-4.3Z" transform="translate(-1516.09 -146.201)" fill="#b75742"/>
      <path id="Path_8327" data-name="Path 8327" d="M1474.72,99.839s29.312-1.981,33.869-.307l4.711,18.609s-16.685-1.433-32.938,3.988Z" transform="translate(-1417.238 -96.155)" fill="#f47458"/>
      <path id="Path_8328" data-name="Path 8328" d="M1364.653,994.15s-1.413,2.3-1.285,2.988,1.825,7.908,2.761,8.387,3.3.385,2.773,1.323c-.4.709-4.637,1.651-7.463,2.2-.826.161-3.488-6.071-4.052-6.942-.819-1.266-2.745-4.1-2.567-5.172a8.354,8.354,0,0,1,2-3,13.173,13.173,0,0,0,2.1-3.791Z" transform="translate(-1324.827 -783.036)" fill="#f48c7f"/>
      <path id="Path_8329" data-name="Path 8329" d="M1485.547,998.755s-.477,5.167-.477,5.179c.067.782.044,2.763.218,3.445.649,2.566,11.017-5.107,8.137-5.587a2.821,2.821,0,0,1-1.5-1.532,6.211,6.211,0,0,1,.207-3.279Z" transform="translate(-1425.214 -788.3)" fill="#ffb8b8"/>
      <path id="Path_8330" data-name="Path 8330" d="M1412.007,599.72s3,8.286,3.028,8.412c3.481,13.749,13.005,39.917,13.143,42.632.2,4.008-3.324,29.924-3.324,29.924L1423.043,693l-7.577.984-.165-40.935-7.451-14.607-12.75-29.374Z" transform="translate(-1355.877 -482.147)" fill="#191919"/>
      <path id="Path_8331" data-name="Path 8331" d="M1366.413,619.8l.644,8.41,4.619,34.11-6.176,36.045s3.218,4.2,6.369,4.109l14.465-39.063,3.44-46.171-2.894-9.332Z" transform="translate(-1333.066 -488.459)" fill="#191919"/>
      <path id="Path_8332" data-name="Path 8332" d="M1352.821,1006.37s7.4,11.075,9.245,11.235c.489.041,2.745-.108,3.392.743a10.271,10.271,0,0,1,.607,1.539l-9.288,2.674s-2.511-5.759-3.557-8c0,0-3.841-5.153-3.711-5.743S1352.821,1006.37,1352.821,1006.37Z" transform="translate(-1320.74 -795.536)" fill="#13375b"/>
      <path id="Path_8333" data-name="Path 8333" d="M1484,1024.817l.282-4.82s3.08.472,4.422-.076a43.553,43.553,0,0,0,3.86-2.02c6.015.422,10.788.156,10.334,1.837h0Z" transform="translate(-1424.389 -804.422)" fill="#13375b"/>
      <path id="Path_8334" data-name="Path 8334" d="M1546.68,449.41l4.007,3.073c.773-.594,2.461-3.1,3.552-3.88l-3.66-3.993h0a1.061,1.061,0,0,1-.429-.956,3.146,3.146,0,0,1,.1-.615c.114-.316.215-.693.33-1.007s-.643-.949-1.039-1.062-.528,1.408-.7,1.862a49.49,49.49,0,0,0-1.264,5.72Z" transform="translate(-1472.694 -359.801)" fill="#f48c7f"/>
      <path id="Path_8335" data-name="Path 8335" d="M1421.973,479c-1.126-1.2-2.713-1.874-3.89-3.121l-17.776,12.24s-13.745-16.253-21.207-10.495a124.029,124.029,0,0,0,9.231,13.281c4.564,5.651,11.533,8.348,12.893,7.724C1402.754,497.929,1421.572,479.485,1421.973,479Z" transform="translate(-1343.547 -386.709)" fill="#eb6e64"/>
      <path id="Path_8336" data-name="Path 8336" d="M1224.749,275.717c.587,1.566,1.605,4.032,1.605,4.032.028.709.175,3.651.36,7.256l5-2.741a56.887,56.887,0,0,1-.575-6.2c.163-.326.541.011,1.874-2.491a4.523,4.523,0,0,0,.328-1.922s-.08-1.475-.426-1.571a.689.689,0,0,0-.785.436c-.089.268.014.853-.076,1.119a1.844,1.844,0,0,1-1.133.688c-.321.023-.484-4.334-.484-4.334s.03-1.245.074-1.656c.036-.351.224-1.39.224-1.39s.188-1.5-.276-1.553c-.272-.032-.807,1.229-1.121,2.537a25.989,25.989,0,0,1-.591,2.871c-.342,0-.45-2.392-.45-2.392a7.586,7.586,0,0,0,.133-1.633c.241-.665.309-1.853-.259-1.881a9.637,9.637,0,0,0-.658,1.56s-.163,1.073-.271,1.58c-.193.892-.073,2.252-.156,2.867-.069.512-.209.321-.259.349a12.6,12.6,0,0,1-.082-1.624,9.385,9.385,0,0,1-.069-1.576,11.5,11.5,0,0,0,.025-1.674c-.057-1.234-.811-1.016-.944.135-.051.438-.1.915-.149,1.4-.193,1.883.034,3.649-.163,3.688-.255.051-.475-3.188-.475-3.188s-.61-1.734-.8-.032a14.35,14.35,0,0,0,.03,3.6A13.928,13.928,0,0,0,1224.749,275.717Z" transform="translate(-1224.076 -224.107)" fill="#ffb8b8"/>
      <path id="Path_8337" data-name="Path 8337" d="M1338.583,374.6s-3.016-2.5-4.754,1.195a2.157,2.157,0,0,0-2.734,1.069s-3.105-.539-3.289,4.027c0,0-1.576-.106-1.557,1.752a4.565,4.565,0,0,0,1.1,2.965,2.213,2.213,0,0,0-.191,2.39,2.1,2.1,0,0,0,1.72,1.466s.613,2.376,1.748,2.975a3.448,3.448,0,0,0,2.518.078,1.623,1.623,0,0,0,1.743,1c1.206-.264,2.578-1.61,4.009-1.252s4.91-.624,4.91-.624,3.771-2.257,2.085-6.183a3,3,0,0,0-.241-4.19s.908-3.711-1.991-5.483A6.968,6.968,0,0,0,1338.583,374.6Z" transform="translate(-1302.817 -308.017)" fill="#f47458"/>
      <path id="Path_8338" data-name="Path 8338" d="M1369.083,478.668l-6.139-3.158s-5.453.8-6.13.878-1.949,25.491-2.057,35.009,1.055,11.059,1.055,11.059,8.887.9,15.219-.443c6.584-1.394,13.637-5.894,13.637-5.894s-7.867-17.313-9.676-22.8S1369.083,478.668,1369.083,478.668Z" transform="translate(-1324.781 -386.424)" fill="#ffab00"/>
      <path id="Path_8339" data-name="Path 8339" d="M1258.441,364.186l-20.163-16.118s-4.594-16.992-4.85-17.623-4.752-.424-6.569-.383c-.582.014,2.53,18.384,3.766,21.377,1.458,3.537,17.042,18.565,17.042,18.565s3.525,8.736,3.74,15.43c.358,11.118-.433,26.567.094,26.987,3.139,1.484,14.359.326,14.93-.9C1272.731,397.97,1258.441,364.186,1258.441,364.186Z" transform="translate(-1226.165 -274.286)" fill="#eb6e64"/>
      <path id="Path_8340" data-name="Path 8340" d="M1368.107,444.248l.92,3.534s1.711,5.045.435,6.213-6.7-5.6-6.7-5.6l-.621-9.162Z" transform="translate(-1330.476 -358.464)" fill="#ffb8b8"/>
      <path id="Path_8341" data-name="Path 8341" d="M1362.342,442.19a10.411,10.411,0,0,0,6.545,5.048l-.78-3-5.968-5.02Z" transform="translate(-1330.477 -358.457)" fill="#f47458"/>
      <path id="Path_8342" data-name="Path 8342" d="M1326.4,406.984c.167,1.388,1.092,2.415,2.064,2.3s1.626-1.337,1.456-2.725-1.092-2.415-2.064-2.3S1326.234,405.6,1326.4,406.984Z" transform="translate(-1302.914 -331.507)" fill="#f47458"/>
      <path id="Path_8343" data-name="Path 8343" d="M1346.656,384.052c.1.8,1.135,1.328,2.318,1.183s2.064-.906,1.967-1.7-1.133-1.328-2.318-1.183S1346.56,383.254,1346.656,384.052Z" transform="translate(-1318.538 -314.611)" fill="#f47458"/>
      <path id="Path_8344" data-name="Path 8344" d="M1358.26,394.206a4.837,4.837,0,0,1,6.748,3.066,36.569,36.569,0,0,1,.947,4.561c.585,4.188-1.094,8.534-3,8.765s-7.5-1.849-8.412-7.784C1353.979,399.153,1355.412,395.589,1358.26,394.206Z" transform="translate(-1324.528 -323.396)" fill="#ffb8b8"/>
      <path id="Path_8345" data-name="Path 8345" d="M1352.059,429.565a1.408,1.408,0,1,1-1.573-1.511A1.556,1.556,0,0,1,1352.059,429.565Z" transform="translate(-1320.584 -349.845)" fill="#ffb8b8"/>
      <path id="Path_8346" data-name="Path 8346" d="M1385.906,379.321c2.158,1.321,3.133,3.608,2.181,5.105s-3.472,1.642-5.63.321-3.133-3.607-2.181-5.105S1383.75,378,1385.906,379.321Z" transform="translate(-1344.172 -311.598)" fill="#f47458"/>
      <path id="Path_8347" data-name="Path 8347" d="M1371.985,387.2c.082.677-.67,1.326-1.679,1.447s-1.894-.328-1.977-1.007.67-1.326,1.679-1.447S1371.9,386.521,1371.985,387.2Z" transform="translate(-1335.242 -317.576)" fill="#f47458"/>
      <path id="Path_8348" data-name="Path 8348" d="M1400.229,405.812a1.571,1.571,0,1,1-1.75-1.39A1.579,1.579,0,0,1,1400.229,405.812Z" transform="translate(-1357.418 -331.631)" fill="#f47458"/>
      <path id="Path_8349" data-name="Path 8349" d="M1403.041,483.231s8.522,20.145,11.554,27.248c.328.768,1.977,5.789,2.037,6.291.135,1.112-4.536,3.11-5.121,3.1-.523-.014-7.385-21.29-11.371-31.624a30.721,30.721,0,0,0-5.846-9.515l-1.936-1.6-.188-.6S1400.826,477.3,1403.041,483.231Z" transform="translate(-1353.619 -387.21)" fill="#eb6e64"/>
      <rect id="Rectangle_4405" data-name="Rectangle 4405" width="1.576" height="141.537" transform="translate(55.826 0.387) rotate(-14.206)" fill="#13375b"/>
      <g id="Group_9808" data-name="Group 9808" transform="translate(76.968 82.682)">
        <path id="Path_8350" data-name="Path 8350" d="M1565.007,451.913a4.86,4.86,0,0,0-.277-.924,2.651,2.651,0,0,0-.53-.846,1.547,1.547,0,0,1-.269-.56,1.051,1.051,0,0,0-.119-.222s0,0,0,0a2.284,2.284,0,0,0-.525-.507,2.374,2.374,0,0,1-.564-.612,1.7,1.7,0,0,0-.635-.56c-.252-.124-.447-.126-.537.03-.42.72-2.516,3.018-1.665,4.128a25.958,25.958,0,0,1,1.828,2.337c.262.6,1.184.562,1.734.351A2.1,2.1,0,0,0,1565.007,451.913Z" transform="translate(-1559.682 -447.586)" fill="#ffb8b8"/>
      </g>
    </g>
    <g id="Group_9810" data-name="Group 9810" transform="translate(1114.903 161.791)">
      <path id="Path_8351" data-name="Path 8351" d="M1442.247,341.5a.325.325,0,0,1,.507-.078c.22.229.445.454.67.681.493.5.5.537.571.525.177-.028.181-.346.172-.463a3.737,3.737,0,0,1-.071-.782.573.573,0,0,1,.96-.433c.388.316.759.656,1.129,1,.03-.562.044-1.124.08-1.683a.223.223,0,0,1,.372-.165c.344.271,1.367,1.069,1.7,1.333.087.069.456.433.562.367s.089-.452.1-.539c.053-.482.078-.649.287-2.211a.261.261,0,0,1,.431-.128c1.2,1.436,1.38,1.284,1.489,1.715a.125.125,0,0,1-.145.154c-.229-.023-.284-.046-.883-.624-.156-.149-.3-.3-.454-.461-.216,1.9-.225,2.383-.7,2.525-.33.1-.385,0-2.314-1.521,0,.59-.037,1.177-.062,1.766a.253.253,0,0,1-.422.188c-1.38-1.138-1.372-1.222-1.521-1.291,0,0,0-.1-.025.043-.041.25.195.789.021,1.241a.765.765,0,0,1-1.012.5c-.245-.122-.312-.241-1.05-.952a6.579,6.579,0,0,1-.837,1.307,1.035,1.035,0,0,1-.493.367.27.27,0,0,1-.337-.319C1441.141,343.02,1441.623,342.894,1442.247,341.5Z" transform="translate(-1414.057 -326.054)" fill="#f47458"/>
      <path id="Path_8352" data-name="Path 8352" d="M1412.968,303.286a8.834,8.834,0,0,0,1.571.135c.1,0,.3.021.362-.083.163-.25-.261-.635-.45-1.612-.082-.424-.289-1.291.28-1.463a3.177,3.177,0,0,1,.956-.011c.227.007.457,0,.683,0-.406-1.585-.5-1.5-.337-1.851a.2.2,0,0,1,.271-.08c.319.211.227.167.759,2.163a.313.313,0,0,1-.286.4c-.307-.009-1.7-.119-1.876-.105.011.016,0,.092,0,.108a5.116,5.116,0,0,0,.464,1.819c.19.493.179,1.158-.449,1.3a6.2,6.2,0,0,1-1.576-.037c.285.966.574,1.931.851,2.9a.342.342,0,0,1-.317.436c-.624-.055-1.248-.092-1.871-.122a5.776,5.776,0,0,0,.769,1.6c.248.362-.262.8-.824-.151a5.567,5.567,0,0,1-.715-1.711.346.346,0,0,1,.316-.438c.62.011,1.239.05,1.855.1-.271-.966-.532-1.936-.8-2.9A.317.317,0,0,1,1412.968,303.286Z" transform="translate(-1391.133 -294.808)" fill="#66ccb2"/>
      <path id="Path_8353" data-name="Path 8353" d="M1354.21,286.169a.319.319,0,0,1-.317-.3,7.363,7.363,0,0,1,0-2.537c.09-.443.732-.275.672.156a8.962,8.962,0,0,0-.092,2.062,6.945,6.945,0,0,0,1.488-.188.326.326,0,0,1,.415.3c-.032.546-.218,2.614-.241,2.631a.1.1,0,0,1,.055,0c.216.044.957-.11,1.292-.089.376.023.5.534.516.844.039.626-.429,1.316-.209,1.929.211.589,1.138-.06,1.83.422.534.372.348,1,.128,1.984a.769.769,0,0,1-.349.6.162.162,0,0,1-.193-.021c-.261-.3-.128-.656.048-1.56.023-.115.1-.31.016-.413-.268-.344-1.051.147-1.683-.266a1.447,1.447,0,0,1-.484-1.486c.065-.417.321-.933.186-1.36-.36.018-.723.048-1.078.039a.616.616,0,0,1-.674-.615,11.046,11.046,0,0,1,.087-1.342c.023-.3.046-.594.071-.89A7.856,7.856,0,0,1,1354.21,286.169Z" transform="translate(-1346.87 -283.074)" fill="#07345a"/>
      <path id="Path_8354" data-name="Path 8354" d="M1458.207,387.056c1.493,1.915.087,2.841-.539,2.286a.523.523,0,0,1,.034-.851c.144-.092.376.053.316.229-.048.144.115.183.183.03.091-.206-.055-.466-.147-.649-.213-.427-.482-.982-1.007-1.064-.784-.124-1.633.661-1.2,1.858a2.116,2.116,0,0,0,3.924-.1,2.572,2.572,0,0,0-.915-2.679c-.156-.122.034-.33.193-.262a2.569,2.569,0,0,1,1.179,3.222,2.608,2.608,0,0,1-2.933,1.555,2.481,2.481,0,0,1-2.142-2.667A1.706,1.706,0,0,1,1458.207,387.056Z" transform="translate(-1424.977 -362.272)" fill="#3c8f7c"/>
      <path id="Path_8355" data-name="Path 8355" d="M1326.037,319.679c.206.312.323.947-.1,1.144a.346.346,0,0,1-.5-.2c-.067-.222.055-.427-.145-.6a.468.468,0,0,0-.585.062c-.486.4-.36,1.266-.107,1.759a1.174,1.174,0,0,0,2.048.119,2.648,2.648,0,0,0,.289-.851c.041-.163.3-.234.383-.062a1.578,1.578,0,0,1-.7,1.853,1.876,1.876,0,0,1-2.027-.03,2.428,2.428,0,0,1-.947-2.078C1323.707,319.195,1325.37,318.67,1326.037,319.679Z" transform="translate(-1323.643 -310.887)" fill="#f7cc7f"/>
    </g>
    <path id="Path_8356" data-name="Path 8356" d="M1003.65,1292.7a1.56,1.56,0,0,0,2.117.456c1.713-.853,1.03-2.137,1.03-2.137Z" transform="translate(-30.971 -852.452)" fill="#fff"/>
    <path id="Path_8357" data-name="Path 8357" d="M1381.97,446.274a1.559,1.559,0,0,0,1.711,1.328c1.913-.027,1.856-1.481,1.856-1.481Z" transform="translate(-400.608 -201.321)" fill="#fff"/>
  </g>
</svg>
