<svg xmlns="http://www.w3.org/2000/svg" xmlns:xlink="http://www.w3.org/1999/xlink" width="394.29" height="283.756" viewBox="0 0 394.29 283.756">
  <defs>
    <linearGradient id="linear-gradient" y1="0.5" x2="1" y2="0.5" gradientUnits="objectBoundingBox">
      <stop offset="0" stop-color="#febbba"/>
      <stop offset="1" stop-color="#ff928e"/>
    </linearGradient>
    <linearGradient id="linear-gradient-2" x1="1.314" y1="-0.073" x2="-0.687" y2="1.48" xlink:href="#linear-gradient"/>
    <linearGradient id="linear-gradient-3" x1="1.01" y1="-1.182" x2="0.399" y2="0.558" xlink:href="#linear-gradient"/>
    <linearGradient id="linear-gradient-4" x1="0.7" y1="0.019" x2="-1.5" y2="3.348" xlink:href="#linear-gradient"/>
    <linearGradient id="linear-gradient-5" x1="0.181" y1="1.219" x2="0.572" y2="0.33" xlink:href="#linear-gradient"/>
    <linearGradient id="linear-gradient-6" x1="0.53" y1="0.549" x2="0.112" y2="1.263" xlink:href="#linear-gradient"/>
    <linearGradient id="linear-gradient-7" x1="0.821" y1="0.35" x2="-0.291" y2="1.106" xlink:href="#linear-gradient"/>
    <linearGradient id="linear-gradient-8" x1="0.28" y1="0.152" x2="1.03" y2="1.129" gradientUnits="objectBoundingBox">
      <stop offset="0" stop-color="#090056"/>
      <stop offset="1" stop-color="#020039"/>
    </linearGradient>
    <linearGradient id="linear-gradient-9" x1="2.74" y1="-0.685" x2="-1.811" y2="1.784" xlink:href="#linear-gradient"/>
    <linearGradient id="linear-gradient-10" x1="0" y1="0.5" y2="0.5" xlink:href="#linear-gradient"/>
    <linearGradient id="linear-gradient-11" x1="0.589" y1="0.833" x2="0.309" y2="-0.234" xlink:href="#linear-gradient"/>
    <linearGradient id="linear-gradient-12" x1="0.724" y1="0.148" x2="-0.021" y2="1.392" xlink:href="#linear-gradient"/>
    <linearGradient id="linear-gradient-13" x1="12.014" y1="19.718" x2="10.941" y2="21" xlink:href="#linear-gradient"/>
    <linearGradient id="linear-gradient-14" x1="8.018" y1="13.471" x2="8.924" y2="13.471" xlink:href="#linear-gradient-8"/>
    <linearGradient id="linear-gradient-15" x1="27.817" y1="66.681" x2="30.275" y2="64.033" xlink:href="#linear-gradient"/>
  </defs>
  <g id="Group_10516" data-name="Group 10516" transform="translate(-90.431 -1650)">
    <g id="Group_10286" data-name="Group 10286" transform="translate(162.438 1650)">
      <path id="Path_6541" data-name="Path 6541" d="M593.577,149.129H342.464a3.736,3.736,0,0,0-3.609,3.843V334.126a3.736,3.736,0,0,0,3.609,3.843H593.577a3.736,3.736,0,0,0,3.609-3.843V152.972A3.736,3.736,0,0,0,593.577,149.129Zm2.578,185a2.666,2.666,0,0,1-2.578,2.745H342.464a2.666,2.666,0,0,1-2.578-2.745V152.972a2.666,2.666,0,0,1,2.578-2.745H593.577a2.666,2.666,0,0,1,2.578,2.745Z" transform="translate(-338.854 -149.129)" fill="#3f3d56"/>
      <rect id="Rectangle_4119" data-name="Rectangle 4119" width="257.301" height="1.098" transform="translate(0.515 15.393)" fill="#3f3d56"/>
      <ellipse id="Ellipse_122" data-name="Ellipse 122" cx="3.094" cy="3.294" rx="3.094" ry="3.294" transform="translate(6.187 4.941)" fill="#3f3d56"/>
      <ellipse id="Ellipse_123" data-name="Ellipse 123" cx="3.094" cy="3.294" rx="3.094" ry="3.294" transform="translate(15.082 4.941)" fill="#3f3d56"/>
      <ellipse id="Ellipse_124" data-name="Ellipse 124" cx="3.094" cy="3.294" rx="3.094" ry="3.294" transform="translate(23.977 4.941)" fill="#3f3d56"/>
      <path id="Path_6542" data-name="Path 6542" d="M587.277,217.314H543.964a3.85,3.85,0,0,1,0-7.685h43.313a3.85,3.85,0,0,1,0,7.685Z" transform="translate(-436.454 -176.418)" fill="#ccc"/>
      <path id="Path_6543" data-name="Path 6543" d="M589.075,251.314H486.464a3.85,3.85,0,0,1,0-7.685H589.075a3.85,3.85,0,0,1,0,7.685Z" transform="translate(-408.604 -191.753)" fill="#ccc"/>
      <path id="Path_6544" data-name="Path 6544" d="M730.062,432.176c-10.861,0-19.665-9.373-19.665-20.936s8.8-20.936,19.665-20.936,19.665,9.373,19.665,20.936-8.81,20.923-19.665,20.936Zm0-40.428c-10.112,0-18.309,8.727-18.309,19.492s8.2,19.492,18.309,19.492,18.309-8.727,18.309-19.492-8.2-19.48-18.309-19.492Z" transform="translate(-518.817 -257.911)" fill="#3f3d56"/>
      <path id="Path_6545" data-name="Path 6545" d="M410.326,330.033c-10.861,0-19.665-9.373-19.665-20.936s8.8-20.936,19.665-20.936,19.665,9.373,19.665,20.936S421.182,330.02,410.326,330.033Zm0-40.428c-10.112,0-18.309,8.727-18.309,19.492s8.2,19.492,18.309,19.492,18.309-8.727,18.309-19.492S420.433,289.617,410.326,289.605Z" transform="translate(-188.181 -257.222)" fill="#3f3d56"/>
      <path id="Path_6546" data-name="Path 6546" d="M427.44,328.279a2.009,2.009,0,0,1-1.943-2.066V314.466a2.008,2.008,0,0,1,1.94-2.066h0a2.008,2.008,0,0,1,1.94,2.066v11.747A2.008,2.008,0,0,1,427.44,328.279Zm-5.066,0a1.888,1.888,0,0,1-1.387-.6,2.142,2.142,0,0,1-.58-1.468v-6.328a2.008,2.008,0,0,1,1.94-2.065h.028a2.008,2.008,0,0,1,1.94,2.065v6.328A2.008,2.008,0,0,1,422.374,328.279Zm-5.114,0a2.009,2.009,0,0,1-1.944-2.066V308.148a2.008,2.008,0,0,1,1.94-2.066h0a2.008,2.008,0,0,1,1.94,2.066v18.065A2.008,2.008,0,0,1,417.26,328.279Zm-5.1,0a1.882,1.882,0,0,1-1.374-.6,2.135,2.135,0,0,1-.568-1.462l0-2.713a1.944,1.944,0,1,1,3.88,0v2.713A2.008,2.008,0,0,1,412.164,328.279Z" transform="translate(-197.656 -265.305)" fill="#286efa"/>
      <path id="Path_6547" data-name="Path 6547" d="M988.869,714.033c-10.861,0-19.665-9.373-19.665-20.936s8.8-20.936,19.665-20.936,19.665,9.373,19.665,20.936S999.725,714.02,988.869,714.033Zm0-40.428c-10.112,0-18.309,8.727-18.309,19.492s8.2,19.492,18.309,19.492,18.309-8.727,18.309-19.492S998.976,673.617,988.869,673.605Z" transform="translate(-904.634 -598.678)" fill="#3f3d56"/>
      <path id="Path_6548" data-name="Path 6548" d="M1003.514,703.355,999.68,709.6a2.3,2.3,0,0,1,.474,1.414,2.113,2.113,0,1,1-4.219,0,2.818,2.818,0,0,1,.036-.431l-2.53-1.569a2.005,2.005,0,0,1-2.5.336l-2.692,2.685v2.677a1.946,1.946,0,0,0,1.875,2h15.939a1.951,1.951,0,0,0,1.879-2v-9.926l-2.575-1.823a2.017,2.017,0,0,1-1.85.4Z" transform="translate(-913.858 -612.569)" fill="#286efa"/>
      <path id="Path_6549" data-name="Path 6549" d="M991.98,700.49a2.181,2.181,0,0,1,2.109,2.245h0v.289l2.64,1.573a2.029,2.029,0,0,1,1.336-.509,2.2,2.2,0,0,1,.458.052l3.842-6.332a2.355,2.355,0,0,1,.021-2.625,2.03,2.03,0,0,1,2.35-.8,2.23,2.23,0,0,1,1.443,2.129,2.528,2.528,0,0,1-.057.53l1.818,1.293v-3.746a1.951,1.951,0,0,0-1.879-2H990.122a1.947,1.947,0,0,0-1.874,2v10.728L990,703.529a2.364,2.364,0,0,1,.248-2.058,2.072,2.072,0,0,1,1.728-.959Z" transform="translate(-913.858 -607.894)" fill="#6c63ff"/>
      <path id="Path_6550" data-name="Path 6550" d="M572.394,330.033c-10.861,0-19.665-9.373-19.665-20.936s8.8-20.936,19.665-20.936,19.665,9.373,19.665,20.936S583.25,330.02,572.394,330.033Zm0-40.428c-10.112,0-18.309,8.727-18.309,19.492s8.2,19.492,18.309,19.492S590.7,319.862,590.7,309.1,582.5,289.617,572.394,289.605Z" transform="translate(-420.15 -197.772)" fill="#3f3d56"/>
      <path id="Path_6551" data-name="Path 6551" d="M569.262,327.653a1.432,1.432,0,0,1-1.32-.939,1.6,1.6,0,0,1,.308-1.659l7.266-7.757a1.176,1.176,0,0,1,.864-.382h0a1.177,1.177,0,0,1,.863.381l3.37,3.588a.706.706,0,0,0,.518.229h0a.7.7,0,0,0,.518-.229l4.758-5.074a.272.272,0,0,0,0-.368l-1.539-1.636a.817.817,0,0,1-.159-.85.734.734,0,0,1,.677-.482h5.468a.758.758,0,0,1,.733.78v5.817a.782.782,0,0,1-.452.721.7.7,0,0,1-.8-.169l-1.542-1.641a.234.234,0,0,0-.345,0l-6.443,6.854a1.177,1.177,0,0,1-.863.381h0a1.177,1.177,0,0,1-.864-.381l-3.372-3.589a.718.718,0,0,0-1.036,0l-5.6,5.96A1.377,1.377,0,0,1,569.262,327.653Z" transform="translate(-427.466 -208.739)" fill="#286efa"/>
      <path id="Path_6555" data-name="Path 6555" d="M392.262,390.7a17.951,17.951,0,0,0-3.785-.4c-10.5-.012-19.164,8.756-19.683,19.924s7.289,20.8,17.741,21.894,19.869-6.744,21.4-17.807-5.367-21.454-15.672-23.616Zm1.33,39.261a17.628,17.628,0,0,1-18.973-5.977,20.494,20.494,0,0,1-2.792-20.854,18.282,18.282,0,0,1,16.649-11.382c.542,0,1.078.027,1.609.071,8.776.826,15.756,8.187,16.614,17.522S402.052,427.335,393.593,429.957Z" transform="translate(-358.295 -364.285)" fill="#3f3d56"/>
      <path id="Path_6556" data-name="Path 6556" d="M416.036,414.223c-1.354-6.316-7.255-10.271-13.19-8.841-.279.068-.567.151-.821.234l2.628,12.294,11.548-2.793C416.153,414.831,416.1,414.519,416.036,414.223Z" transform="translate(-374.402 -370.956)" fill="#286efa"/>
      <path id="Path_6557" data-name="Path 6557" d="M406.412,419.482l-11.553,2.793-2.623-12.294c-5.608,1.847-8.873,8.048-7.427,14.1s7.095,9.846,12.85,8.619,9.6-7.039,8.743-13.221Z" transform="translate(-365.898 -373.162)" fill="#286efa"/>
      <path id="Path_6581" data-name="Path 6581" d="M747.52,441.736H733.082a1.65,1.65,0,0,1,0-3.294H747.52a1.65,1.65,0,0,1,0,3.294Z" transform="translate(-529.056 -279.623)" fill="#286efa"/>
      <path id="Path_6582" data-name="Path 6582" d="M747.52,428.736H733.082a1.65,1.65,0,0,1,0-3.294H747.52a1.65,1.65,0,0,1,0,3.294Z" transform="translate(-529.056 -273.76)" fill="#286efa"/>
      <path id="Path_6583" data-name="Path 6583" d="M747.52,415.736H733.082a1.65,1.65,0,0,1,0-3.294H747.52a1.65,1.65,0,0,1,0,3.294Z" transform="translate(-529.056 -267.896)" fill="#286efa"/>
    </g>
    <g id="Group_10284" data-name="Group 10284" transform="translate(42.009 1702.521)">
      <g id="Group_10258" data-name="Group 10258" transform="translate(356.113 155.987)">
        <path id="Path_9268" data-name="Path 9268" d="M1788.541,1220.344a14.987,14.987,0,0,0,2.63-.7,23.893,23.893,0,0,0,2.548-1.061,38.4,38.4,0,0,0,4.791-2.764,61.942,61.942,0,0,0,8.56-7.042,124.659,124.659,0,0,0,14.223-17.189c2.186-3.041,4.336-6.127,6.675-9.107a38.915,38.915,0,0,1,8.107-8.061,21.027,21.027,0,0,1,5.15-2.639,20.608,20.608,0,0,1,5.661-1.082,34.7,34.7,0,0,1,11.238,1.518.247.247,0,0,1-.121.478h0a35.984,35.984,0,0,0-11.038-.975,21.361,21.361,0,0,0-5.322,1.212,19.789,19.789,0,0,0-4.767,2.6,38.556,38.556,0,0,0-7.6,7.956c-2.256,2.955-4.34,6.069-6.513,9.14s-4.4,6.12-6.761,9.073c-.6.731-1.226,1.444-1.838,2.168s-1.221,1.448-1.88,2.131l-1.945,2.075-2.052,1.975a54.636,54.636,0,0,1-9.031,6.949,32.969,32.969,0,0,1-5.111,2.565,18.734,18.734,0,0,1-5.573,1.423.319.319,0,0,1-.072-.634Z" transform="translate(-1788.226 -1170.662)" fill="#fff" opacity="0.5"/>
      </g>
      <g id="Group_10269" data-name="Group 10269" transform="translate(57.371 32.225)">
        <g id="Group_10265" data-name="Group 10265" transform="translate(148.528 63.929)">
          <path id="Path_9288" data-name="Path 9288" d="M1161.491,1132.864s-3.154-8.3-6.838-7.543a25.227,25.227,0,0,0-7.715,3.59l-5.918,8.005s16.616,6.545,22.458,2.794a127.883,127.883,0,0,0,38.4-.585,83.979,83.979,0,0,1-6.037-18.2C1184.988,1127.076,1173.3,1131.664,1161.491,1132.864Z" transform="translate(-1141.02 -1072.64)" fill="url(#linear-gradient)"/>
          <path id="Path_9289" data-name="Path 9289" d="M1432.775,912.87s-24.3,30.6-55.545,48.292a83.979,83.979,0,0,0,6.037,18.2c16.209-2.66,34.97-9.008,50.875-23.112Z" transform="translate(-1322.406 -912.87)" fill="#69f"/>
        </g>
        <path id="Path_9290" data-name="Path 9290" d="M831.91,930.3l1.509,40.515a111.535,111.535,0,0,0,12.248,3.477c2.43-7.822,7.78-17.423,12.162-24.563C841.73,944.042,831.91,930.3,831.91,930.3Z" transform="translate(-755.125 -862.326)" fill="#ed677b"/>
        <path id="Path_9291" data-name="Path 9291" d="M957.777,927.33c-22.079,23.839-39.951,25.243-54.445,20.12-4.382,7.139-9.732,16.739-12.162,24.563,58.964,13,72.848-41.206,72.848-41.206Z" transform="translate(-800.631 -860.045)" fill="url(#linear-gradient-2)"/>
        <path id="Path_9292" data-name="Path 9292" d="M1197.44,907.18a8.088,8.088,0,0,1,7.251-1.873c4.707.859,8.9,2.493,11.83,0s3.964.854,3.964.854l-8.783,6.677Z" transform="translate(-1035.817 -842.425)" fill="url(#linear-gradient-3)"/>
        <path id="Path_9293" data-name="Path 9293" d="M1174.81,915.425s1.743-7.288,7-6.287,17.175,7.483,20.248,6.287,7-4.052,9.017-3.043l-3.551,4.414s9.128-5.266,10.7-2.031l-15.188,8.548S1180.81,921.091,1174.81,915.425Z" transform="translate(-1018.439 -846.003)" fill="url(#linear-gradient-4)"/>
        <path id="Path_9294" data-name="Path 9294" d="M501.425,1019.291s-7.534-96.4,47.387-129.848c0,0,15.355-10.138,34.487,9.495s12.972,40.027-3.085,59.14-32.41,43.072-28.518,62.183c-4.558,2.2-13.392,4.76-25.025,4.781A57.96,57.96,0,0,1,501.425,1019.291Z" transform="translate(-501.076 -828.941)" fill="#ed677b"/>
        <path id="Path_9295" data-name="Path 9295" d="M765.453,771.87c-.014,1.284-18.3,27.26-18.3,27.26s3.282,6.466,18.955,11.714l13.527-27.814Z" transform="translate(-690.037 -740.667)" fill="url(#linear-gradient-5)"/>
        <path id="Path_9296" data-name="Path 9296" d="M795.03,1083.7s34.7,29.061,72.168,16.379a8.927,8.927,0,0,1,7.035.529L885,1106.3a9.618,9.618,0,0,0,12.744-3.567,20.208,20.208,0,0,0,3.026-8.1L879.7,1086.1l1.553-2.586s-10.291-.873-12.984,6.5c0,0-19.6,8.153-52.658-28.207C815.608,1061.812,800.607,1074.566,795.03,1083.7Z" transform="translate(-726.804 -963.313)" fill="url(#linear-gradient-6)"/>
        <path id="Path_9297" data-name="Path 9297" d="M713.851,1065.459a.754.754,0,0,1-.429-.132c-14.652-9.9-21.545-25.881-21.613-26.041a.768.768,0,1,1,1.414-.6c.067.155,6.793,15.729,21.06,25.368a.77.77,0,0,1-.432,1.406Z" transform="translate(-647.493 -945.196)" fill="#cd122e"/>
        <path id="Path_9298" data-name="Path 9298" d="M753.75,950.032a.76.76,0,0,1-.645-.353c-.044-.07-4.51-7.021-13.016-22.249-2.59-4.637-5.988-7.573-10.1-8.724-6.824-1.91-13.4,1.752-13.471,1.79a.768.768,0,0,1-.759-1.335,19.141,19.141,0,0,1,14.042-1.88,19.339,19.339,0,0,1,11.63,9.4c8.476,15.177,12.921,22.1,12.965,22.167a.766.766,0,0,1-.23,1.061A.742.742,0,0,1,753.75,950.032Z" transform="translate(-665.631 -851.853)" fill="#cd122e"/>
        <g id="Group_10266" data-name="Group 10266" transform="translate(52.044)">
          <path id="Path_9299" data-name="Path 9299" d="M801.7,707.73s6.508,14.949,6.944,22.794,2.128,12.937-6.944,14.518-16.716-2.938-20.856-10.755c0,0-6.487-12.043-5.032-16.975S801.7,707.73,801.7,707.73Z" transform="translate(-763.931 -691.413)" fill="url(#linear-gradient-7)"/>
          <path id="Path_9300" data-name="Path 9300" d="M745.329,674.682l.518-.227a1.246,1.246,0,0,0,.608-1.711c-1.279-2.472-3.774-8.135-.552-9.458,4.152-1.7,20.6-5.057,24.147-10.892,3.409-5.61.388-12.849-4.152-14.908a.625.625,0,0,0-.817.267l-.378.717a.617.617,0,0,1-1.137-.116h0a.614.614,0,0,0-1.109-.16c-1.091,1.745-4.036,4.577-11.911,6.03-11.192,2.066-18.591,6.594-18.776,14.33a.617.617,0,0,1-.954.508c-.826-.5-2.149-.74-3.915.745-3.073,2.586-1.815,9.288,4.923,14.8a.611.611,0,0,1-.03.986c-1.221.8-3.043,2.688,1.676,5.211,4.881,2.609,8.525,2.4,9.929,2.163a.616.616,0,0,0,.5-.74l-1.5-6.8a.616.616,0,0,1,.6-.75h2.33Z" transform="translate(-725.311 -637.428)" fill="url(#linear-gradient-8)"/>
          <path id="Path_9301" data-name="Path 9301" d="M785.722,779.817s-2.483-9.548-6.763-6.872,2.221,10.7,5.663,11.057Z" transform="translate(-765.423 -741.128)" fill="url(#linear-gradient-9)"/>
        </g>
        <path id="Path_9302" data-name="Path 9302" d="M1136.27,1206.04s8.817,8.625,10.519,7.369a31.091,31.091,0,0,0,3.616-3.876,3.789,3.789,0,0,0,.258-4.461l-2.08-3.21a6.012,6.012,0,0,0-8.973-1.307A10.888,10.888,0,0,0,1136.27,1206.04Z" transform="translate(-988.844 -1068.738)" fill="url(#linear-gradient-10)"/>
        <path id="Path_9303" data-name="Path 9303" d="M1634.32,1026.371s-1.082-32.092-23.613-72.105a64.156,64.156,0,0,1-7.358-41.281l2.467-15.943s30.92-10.463,65.2-.441c0,0,47.524,29.444,15.761,129.769a62.667,62.667,0,0,1-52.454,0Z" transform="translate(-1346.924 -833.114)" fill="#69f"/>
        <path id="Path_9304" data-name="Path 9304" d="M1639.23,808.26l8.019,19.262a3.84,3.84,0,0,0,2.9,2.307c4.624.794,15.8,2.031,23.145-2.8a1.867,1.867,0,0,0,.5-2.625l-14.812-21.267Z" transform="translate(-1375.069 -764.679)" fill="url(#linear-gradient-11)"/>
        <g id="Group_10267" data-name="Group 10267" transform="translate(282.608 108.879)">
          <path id="Path_9305" data-name="Path 9305" d="M1720.037,1139.993a1.78,1.78,0,0,0-1.126,2.544l23.2,44.477a1.78,1.78,0,0,0,2.073.887l75.875-21.908a1.78,1.78,0,0,0,1.216-2.2l-13.069-45.245a1.782,1.782,0,0,0-2.163-1.228Z" transform="translate(-1718.709 -1114.769)" fill="#bdd0fb"/>
          <path id="Path_9306" data-name="Path 9306" d="M1740.781,1126.54a1.862,1.862,0,0,0-1.316,2.456l18.568,50.437a1.863,1.863,0,0,0,2.265,1.147l75.647-21.84a1.863,1.863,0,0,0,1.3-2.184l-10.484-48.543a1.865,1.865,0,0,0-2.254-1.42Z" transform="translate(-1734.559 -1106.54)" fill="#bdd0fb"/>
          <path id="Path_9307" data-name="Path 9307" d="M1767.421,1132.617a2.306,2.306,0,0,0-1.9,2.8l12.612,54.45a2.3,2.3,0,0,0,2.883,1.694l74.5-21.511a2.3,2.3,0,0,0,1.592-2.787l-11.456-44.446a2.3,2.3,0,0,0-2.576-1.7Z" transform="translate(-1754.612 -1117.709)" fill="#36b37e"/>
        </g>
        <path id="Path_9308" data-name="Path 9308" d="M1875.245,1004.595c5.781-43.678-27.877-77.265-27.877-77.265l-20.028,23.346c15.2,18.953,22.432,36.318,25.735,49.959C1857.452,999.361,1867.994,997.349,1875.245,1004.595Z" transform="translate(-1519.52 -860.045)" fill="#69f"/>
        <path id="Path_9309" data-name="Path 9309" d="M1851.372,1076.7a.512.512,0,0,1-.5-.392c-4.1-16.92-12.721-33.661-25.637-49.759a.512.512,0,0,1,.8-.641c13.009,16.217,21.7,33.092,25.832,50.158a.51.51,0,0,1-.376.617A.432.432,0,0,1,1851.372,1076.7Z" transform="translate(-1517.819 -935.596)" fill="#1a0f90"/>
        <path id="Path_9310" data-name="Path 9310" d="M1870.588,1239.009c3.068,12.677,2.746,22.137,2.279,26.651a3.516,3.516,0,0,1-3.252,3.152c-1.94.137-4.579.313-6.937.45-2.593.149-5.47-1.49-7.395-2.859a1.159,1.159,0,0,0-1.706,1.465c1.437,2.811,5.083,5.313,7.594,6.784a1.2,1.2,0,0,1-.276,2.191l-10.746,3.045c17.656,16.634,29.314-1.977,29.314-1.977a84.243,84.243,0,0,0,13.3-34.942C1885.51,1235.72,1874.968,1237.732,1870.588,1239.009Z" transform="translate(-1537.035 -1098.416)" fill="url(#linear-gradient-12)"/>
        <g id="Group_10268" data-name="Group 10268" transform="translate(253.87 1.793)">
          <path id="Path_9311" data-name="Path 9311" d="M1627.931,694.757c-.336.318-14.211,27.564-14.211,27.564l15.727,7.592,16.987-23.871S1633.569,689.451,1627.931,694.757Z" transform="translate(-1609.349 -682.44)" fill="url(#linear-gradient-13)"/>
          <path id="Path_9312" data-name="Path 9312" d="M1624.825,671.619l-7.843,13.074a2.445,2.445,0,0,1-.429.536c-.933.868-4.129,3.4-6.6-.044-2.1-2.934-4.08-5.6-6.2-6.7a2.506,2.506,0,0,0-3.384,1.114,93.771,93.771,0,0,0-5.368,12.733,2.494,2.494,0,0,0,1.453,3.061,69.556,69.556,0,0,0,15.063,4.394,2.507,2.507,0,0,0,2.372-1.007c2.4-3.291,9.175-12.489,11.486-14.791,2.147-2.14,6.111-1.332,7.9-.819a2.517,2.517,0,0,0,2-.262c1.813-1.091,4.974-3.809,2.082-8.409a2.509,2.509,0,0,1,.778-3.41c2.024-1.33,4.217-3.827,2.126-7.873-2.117-4.094-5.9-4.463-8.472-4.147a2.605,2.605,0,0,1-2.734-1.52,1.657,1.657,0,0,0-1.3-1.019,2.436,2.436,0,0,1-1.97-2.859c.455-2.316.111-5.327-3.588-7.362-6.784-3.73-12.728,2.349-14.239,7.48s6.076,8.757,10.848,9.363c3.5.446,5.426,4.271,6.2,6.269A2.5,2.5,0,0,1,1624.825,671.619Z" transform="translate(-1594.889 -645.155)" fill="url(#linear-gradient-14)"/>
          <path id="Path_9313" data-name="Path 9313" d="M1713.57,804.985s3.017-8.829,6.879-8.5,6.9,4.171,2.114,8.5C1716.61,810.358,1713.57,804.985,1713.57,804.985Z" transform="translate(-1686.025 -761.352)" fill="url(#linear-gradient-15)"/>
        </g>
      </g>
      <g id="Group_10283" data-name="Group 10283" transform="translate(48.422 0)">
        <g id="Group_10281" data-name="Group 10281">
          <path id="Path_9340" data-name="Path 9340" d="M589.7,947.226l-1.256.49-.014,0a.416.416,0,1,1-.3-.775h0l1.286-.5a.414.414,0,0,1,.3.773Z" transform="translate(-558.775 -842.477)" fill="#fff"/>
          <path id="Path_9341" data-name="Path 9341" d="M568.621,956.872l-1.174.664-.012.007a.422.422,0,0,1-.415-.736h0l1.2-.675a.421.421,0,1,1,.413.733Z" transform="translate(-542.601 -849.895)" fill="#fff"/>
          <path id="Path_9342" data-name="Path 9342" d="M549.133,969.4l-1.077.815-.012.009a.428.428,0,0,1-.515-.682h0l1.1-.829a.426.426,0,1,1,.513.68Z" transform="translate(-527.669 -859.534)" fill="#fff"/>
          <path id="Path_9343" data-name="Path 9343" d="M531.447,984.37l-.97.94-.009.009a.433.433,0,0,1-.6-.622h0l.991-.956a.432.432,0,0,1,.6.622Z" transform="translate(-514.133 -871.046)" fill="#fff"/>
          <path id="Path_9344" data-name="Path 9344" d="M515.683,1001.359l-.859,1.044-.007.009a.439.439,0,0,1-.678-.557h0l.875-1.063a.437.437,0,1,1,.675.555Z" transform="translate(-502.082 -884.109)" fill="#fff"/>
          <path id="Path_9345" data-name="Path 9345" d="M501.9,1020.049l-.743,1.13-.007.009a.444.444,0,0,1-.743-.487h0l.757-1.149a.444.444,0,0,1,.74.49Z" transform="translate(-491.56 -898.485)" fill="#fff"/>
          <path id="Path_9346" data-name="Path 9346" d="M490.146,1040.1l-.624,1.2,0,.009a.451.451,0,0,1-.8-.418h0l.638-1.218a.449.449,0,0,1,.8.416Z" transform="translate(-482.598 -913.903)" fill="#fff"/>
          <path id="Path_9347" data-name="Path 9347" d="M480.43,1061.26l-.506,1.256,0,.009a.457.457,0,1,1-.847-.341h0l.515-1.274a.454.454,0,1,1,.842.341Z" transform="translate(-475.205 -930.177)" fill="#fff"/>
          <path id="Path_9348" data-name="Path 9348" d="M472.85,1083.3l-.383,1.3,0,.012a.462.462,0,1,1-.887-.26h0l.39-1.318a.46.46,0,0,1,.882.26Z" transform="translate(-469.461 -947.128)" fill="#fff"/>
          <path id="Path_9349" data-name="Path 9349" d="M467.436,1106.006l-.255,1.328,0,.012a.467.467,0,0,1-.917-.174h0l.262-1.351a.466.466,0,0,1,.914.176Z" transform="translate(-465.387 -964.594)" fill="#fff"/>
          <path id="Path_9350" data-name="Path 9350" d="M464.3,1129.166l-.121,1.346v.012a.473.473,0,1,1-.942-.083h0l.125-1.369a.472.472,0,0,1,.94.086Z" transform="translate(-463.067 -982.408)" fill="#fff"/>
          <path id="Path_9351" data-name="Path 9351" d="M463.474,1152.563l.019,1.351v.012a.478.478,0,1,1-.956.014h0l-.016-1.376a.477.477,0,0,1,.954-.011Z" transform="translate(-462.52 -1000.406)" fill="#fff"/>
          <path id="Path_9352" data-name="Path 9352" d="M464.631,1175.976l.151,1.344,0,.012a.485.485,0,0,1-.963.109h0l-.151-1.367a.483.483,0,1,1,.961-.107Z" transform="translate(-463.4 -1018.419)" fill="#fff"/>
          <path id="Path_9353" data-name="Path 9353" d="M468.054,1199.152l.279,1.323,0,.012a.49.49,0,0,1-.959.2h0l-.281-1.346a.488.488,0,1,1,.956-.2Z" transform="translate(-466.025 -1036.247)" fill="#fff"/>
          <path id="Path_9354" data-name="Path 9354" d="M473.629,1221.916l.4,1.293,0,.012a.5.5,0,1,1-.947.292h0l-.4-1.316a.494.494,0,0,1,.945-.29Z" transform="translate(-470.305 -1053.758)" fill="#fff"/>
          <path id="Path_9355" data-name="Path 9355" d="M481.268,1244.062l.513,1.251,0,.009a.5.5,0,0,1-.928.381h0l-.52-1.274a.5.5,0,1,1,.926-.378Z" transform="translate(-476.173 -1070.792)" fill="#fff"/>
          <path id="Path_9356" data-name="Path 9356" d="M490.867,1265.452l.622,1.2,0,.009a.507.507,0,1,1-.9.464h0l-.629-1.223a.505.505,0,1,1,.9-.462Z" transform="translate(-483.552 -1087.247)" fill="#fff"/>
          <path id="Path_9357" data-name="Path 9357" d="M502.295,1285.916l.724,1.142.007.009a.511.511,0,0,1-.863.548h0l-.733-1.163a.511.511,0,0,1,.866-.543Z" transform="translate(-492.338 -1102.99)" fill="#fff"/>
          <path id="Path_9358" data-name="Path 9358" d="M515.45,1305.311l.822,1.075.007.009a.518.518,0,0,1-.824.629h0l-.831-1.1a.517.517,0,1,1,.824-.624Z" transform="translate(-502.45 -1117.91)" fill="#fff"/>
          <path id="Path_9359" data-name="Path 9359" d="M530.231,1323.463l.912,1,.007.009a.524.524,0,1,1-.775.705h0l-.926-1.019a.522.522,0,1,1,.773-.7Z" transform="translate(-513.81 -1131.873)" fill="#fff"/>
          <path id="Path_9360" data-name="Path 9360" d="M546.6,1340.259l1,.912.009.009a.529.529,0,0,1-.715.78h0l-1.014-.931a.527.527,0,1,1,.713-.777Z" transform="translate(-526.397 -1144.798)" fill="#fff"/>
          <path id="Path_9361" data-name="Path 9361" d="M564.407,1355.467l1.079.815.009.007a.535.535,0,1,1-.645.854h0l-1.1-.833a.533.533,0,1,1,.645-.849Z" transform="translate(-540.095 -1156.499)" fill="#fff"/>
          <path id="Path_9362" data-name="Path 9362" d="M583.588,1368.921l1.151.706.012.007a.54.54,0,1,1-.564.921h0l-1.174-.722a.538.538,0,0,1,.564-.917Z" transform="translate(-554.85 -1166.854)" fill="#fff"/>
          <path id="Path_9363" data-name="Path 9363" d="M604.009,1380.385l1.216.587.012,0a.546.546,0,1,1-.473.984h0l-1.239-.6a.544.544,0,0,1,.473-.979Z" transform="translate(-570.561 -1175.677)" fill="#fff"/>
          <path id="Path_9364" data-name="Path 9364" d="M625.465,1389.8l1.267.469.012,0a.551.551,0,1,1-.381,1.035h0l-1.29-.48a.551.551,0,0,1,.383-1.033Z" transform="translate(-587.069 -1182.924)" fill="#fff"/>
          <path id="Path_9365" data-name="Path 9365" d="M647.706,1397.137l1.307.348.012,0a.557.557,0,1,1-.288,1.077h0l-1.33-.357a.555.555,0,0,1,.288-1.072Z" transform="translate(-604.179 -1188.569)" fill="#fff"/>
          <path id="Path_9366" data-name="Path 9366" d="M670.526,1402.382l1.332.228.012,0a.563.563,0,0,1-.19,1.109h0l-1.358-.234a.561.561,0,0,1,.19-1.1Z" transform="translate(-621.732 -1192.607)" fill="#fff"/>
          <path id="Path_9367" data-name="Path 9367" d="M693.748,1405.534l1.348.107h.012a.569.569,0,1,1-.091,1.135h0l-1.372-.111a.567.567,0,1,1,.09-1.13Z" transform="translate(-639.6 -1195.033)" fill="#fff"/>
          <path id="Path_9368" data-name="Path 9368" d="M717.155,1406.6l1.351-.009h.012a.574.574,0,0,1,.007,1.149h0l-1.376.007a.573.573,0,0,1,0-1.147Z" transform="translate(-657.606 -1195.845)" fill="#fff"/>
          <path id="Path_9369" data-name="Path 9369" d="M740.589,1405.333l1.346-.121h.012a.577.577,0,1,1,.1,1.149h0l-1.372.123a.577.577,0,1,1-.1-1.149Z" transform="translate(-675.637 -1194.786)" fill="#fff"/>
          <path id="Path_9370" data-name="Path 9370" d="M763.863,1402.125l1.332-.232.012,0a.578.578,0,1,1,.2,1.14h0l-1.355.234a.578.578,0,1,1-.2-1.14Z" transform="translate(-693.545 -1192.23)" fill="#fff"/>
          <path id="Path_9371" data-name="Path 9371" d="M786.844,1397.039l1.309-.339.012,0a.579.579,0,0,1,.29,1.121h0l-1.332.344a.579.579,0,0,1-.29-1.121Z" transform="translate(-711.228 -1188.234)" fill="#fff"/>
          <path id="Path_9372" data-name="Path 9372" d="M809.363,1390.122l1.279-.443.012,0a.581.581,0,0,1,.378,1.1h0l-1.3.45a.581.581,0,1,1-.378-1.1Z" transform="translate(-728.555 -1182.831)" fill="#fff"/>
          <path id="Path_9373" data-name="Path 9373" d="M831.292,1381.454l1.239-.543.012,0a.583.583,0,0,1,.469,1.068h0l-1.26.552a.581.581,0,1,1-.467-1.065Z" transform="translate(-745.429 -1176.084)" fill="#fff"/>
          <path id="Path_9374" data-name="Path 9374" d="M852.486,1371.1l1.2-.634.009,0a.584.584,0,0,1,.548,1.031h0l-1.214.643a.584.584,0,0,1-.548-1.031Z" transform="translate(-761.732 -1168.053)" fill="#fff"/>
          <path id="Path_9375" data-name="Path 9375" d="M872.918,1359.31l1.151-.715.007,0a.585.585,0,1,1,.617.993h0l-1.167.724a.584.584,0,1,1-.615-.993Z" transform="translate(-777.447 -1158.919)" fill="#fff"/>
          <path id="Path_9376" data-name="Path 9376" d="M892.567,1346.24l1.107-.784.007,0a.586.586,0,1,1,.678.956h0l-1.121.794a.586.586,0,0,1-.678-.956Z" transform="translate(-792.56 -1148.813)" fill="#fff"/>
          <path id="Path_9377" data-name="Path 9377" d="M911.445,1332.077l1.063-.845.007,0a.588.588,0,0,1,.731.922h0l-1.075.854a.587.587,0,0,1-.729-.919Z" transform="translate(-807.078 -1137.876)" fill="#fff"/>
          <path id="Path_9378" data-name="Path 9378" d="M929.546,1316.958l1.021-.9,0,0a.589.589,0,1,1,.777.884h0l-1.03.9a.589.589,0,1,1-.775-.887Z" transform="translate(-820.995 -1126.213)" fill="#fff"/>
          <path id="Path_9379" data-name="Path 9379" d="M946.944,1301.042l.982-.938,0,0a.589.589,0,1,1,.815.852h0l-.991.945a.589.589,0,0,1-.812-.854Z" transform="translate(-834.368 -1113.946)" fill="#fff"/>
          <path id="Path_9380" data-name="Path 9380" d="M963.7,1284.483l.949-.972,0,0a.591.591,0,1,1,.845.826h0l-.956.979a.591.591,0,0,1-.845-.826Z" transform="translate(-847.243 -1101.193)" fill="#fff"/>
          <path id="Path_9381" data-name="Path 9381" d="M979.923,1267.4l.921-1,0,0a.593.593,0,1,1,.873.8h0l-.926,1.007a.591.591,0,1,1-.87-.8Z" transform="translate(-859.716 -1088.044)" fill="#fff"/>
          <path id="Path_9382" data-name="Path 9382" d="M995.666,1249.886l.9-1.023,0,0a.594.594,0,0,1,.894.782h0l-.9,1.028a.594.594,0,0,1-.891-.785Z" transform="translate(-871.81 -1074.569)" fill="#fff"/>
          <path id="Path_9383" data-name="Path 9383" d="M1011.032,1232.054l.88-1.04,0,0a.594.594,0,1,1,.907.768h0l-.882,1.042a.594.594,0,1,1-.908-.768Z" transform="translate(-883.616 -1060.856)" fill="#fff"/>
          <path id="Path_9384" data-name="Path 9384" d="M1026.116,1214l.866-1.051a.6.6,0,1,1,.921.757v0l-.868,1.054a.6.6,0,1,1-.919-.761Z" transform="translate(-895.203 -1046.977)" fill="#fff"/>
          <path id="Path_9385" data-name="Path 9385" d="M1041,1195.783l.859-1.058a.6.6,0,0,1,.928.752h0l-.859,1.061a.6.6,0,1,1-.928-.754Z" transform="translate(-906.631 -1032.982)" fill="#fff"/>
          <path id="Path_9386" data-name="Path 9386" d="M1055.762,1177.473l.854-1.063a.6.6,0,0,1,.933.752h0l-.856,1.063a.6.6,0,1,1-.931-.752Z" transform="translate(-917.971 -1018.917)" fill="#fff"/>
          <path id="Path_9387" data-name="Path 9387" d="M1070.507,1159.174l.857-1.061a.6.6,0,1,1,.935.754h0l-.856,1.061a.6.6,0,0,1-.935-.754Z" transform="translate(-929.293 -1004.868)" fill="#fff"/>
          <path id="Path_9388" data-name="Path 9388" d="M1085.314,1140.925l.863-1.056a.6.6,0,1,1,.933.761v0l-.863,1.054a.6.6,0,0,1-.933-.761Z" transform="translate(-940.663 -990.86)" fill="#fff"/>
          <path id="Path_9389" data-name="Path 9389" d="M1100.267,1122.792l.877-1.049a.6.6,0,0,1,.926.773l0,0-.875,1.044a.6.6,0,1,1-.926-.771Z" transform="translate(-952.141 -976.944)" fill="#fff"/>
          <path id="Path_9390" data-name="Path 9390" d="M1115.45,1104.882l.893-1.035a.6.6,0,0,1,.915.789h0l0,0-.891,1.031,0,0a.6.6,0,1,1-.912-.789Z" transform="translate(-963.794 -963.206)" fill="#fff"/>
          <path id="Path_9391" data-name="Path 9391" d="M1130.966,1087.267l.917-1.017a.6.6,0,1,1,.9.81h0l0,0-.912,1.01,0,0a.6.6,0,1,1-.9-.808Z" transform="translate(-975.703 -949.702)" fill="#fff"/>
          <path id="Path_9392" data-name="Path 9392" d="M1146.879,1070.026l.942-.991a.606.606,0,0,1,.877.835h0l0,0-.938.984,0,0a.6.6,0,0,1-.877-.833Z" transform="translate(-987.915 -936.49)" fill="#fff"/>
          <path id="Path_9393" data-name="Path 9393" d="M1163.281,1053.261l.975-.961a.607.607,0,1,1,.854.863h0l0,0-.968.954,0,0a.607.607,0,1,1-.852-.866Z" transform="translate(-1000.498 -923.65)" fill="#fff"/>
          <path id="Path_9394" data-name="Path 9394" d="M1180.257,1037.078l1.012-.926a.609.609,0,1,1,.824.9h0l0,0-1,.917,0,0a.609.609,0,0,1-.824-.9Z" transform="translate(-1013.522 -911.262)" fill="#fff"/>
          <path id="Path_9395" data-name="Path 9395" d="M1197.872,1021.628l1.051-.88a.61.61,0,0,1,.782.935h0l0,0-1.04.87,0,0a.61.61,0,0,1-.784-.935Z" transform="translate(-1027.034 -899.447)" fill="#fff"/>
          <path id="Path_9396" data-name="Path 9396" d="M1216.176,1007.016l1.1-.826a.612.612,0,1,1,.736.977h0l-.007,0-1.082.817-.007,0a.612.612,0,1,1-.736-.977Z" transform="translate(-1041.069 -888.281)" fill="#fff"/>
          <path id="Path_9397" data-name="Path 9397" d="M1235.264,993.44l1.14-.764a.612.612,0,0,1,.682,1.017h0l-.007,0-1.126.754-.007,0a.612.612,0,0,1-.682-1.017Z" transform="translate(-1055.705 -877.92)" fill="#fff"/>
          <path id="Path_9398" data-name="Path 9398" d="M1255.1,980.966l1.181-.7a.613.613,0,0,1,.624,1.056h0l-.007,0-1.167.689-.007,0a.613.613,0,1,1-.624-1.056Z" transform="translate(-1070.911 -868.405)" fill="#fff"/>
          <path id="Path_9399" data-name="Path 9399" d="M1275.608,969.645l1.219-.631a.615.615,0,1,1,.564,1.093h0l-.007,0-1.2.622-.007,0a.615.615,0,0,1-.564-1.093Z" transform="translate(-1086.638 -859.776)" fill="#fff"/>
          <path id="Path_9400" data-name="Path 9400" d="M1296.735,959.493l1.251-.562a.616.616,0,0,1,.506,1.123h0l-.007,0-1.237.555-.007,0a.616.616,0,0,1-.815-.311A.61.61,0,0,1,1296.735,959.493Z" transform="translate(-1102.838 -852.045)" fill="#fff"/>
          <path id="Path_9401" data-name="Path 9401" d="M1318.4,950.515l1.281-.492a.618.618,0,1,1,.443,1.154h0l-.007,0-1.265.485-.007,0a.617.617,0,0,1-.446-1.151Z" transform="translate(-1119.454 -845.214)" fill="#fff"/>
          <path id="Path_9402" data-name="Path 9402" d="M1340.544,942.754l1.307-.422a.619.619,0,0,1,.381,1.179h0l-.007,0-1.291.415-.007,0a.622.622,0,0,1-.78-.4A.615.615,0,0,1,1340.544,942.754Z" transform="translate(-1136.43 -839.316)" fill="#fff"/>
          <path id="Path_9403" data-name="Path 9403" d="M1363.086,936.211l1.328-.351a.621.621,0,0,1,.318,1.2h0l-.007,0-1.311.346-.009,0a.621.621,0,0,1-.318-1.2Z" transform="translate(-1153.715 -834.354)" fill="#fff"/>
          <path id="Path_9404" data-name="Path 9404" d="M1385.952,930.9l1.344-.278a.622.622,0,1,1,.253,1.218h0l-.009,0-1.328.274-.009,0a.622.622,0,0,1-.251-1.219Z" transform="translate(-1171.247 -830.334)" fill="#fff"/>
          <path id="Path_9405" data-name="Path 9405" d="M1409.1,926.823l1.358-.207a.623.623,0,1,1,.188,1.232h0l-.009,0-1.342.2-.009,0a.623.623,0,0,1-.186-1.232Z" transform="translate(-1188.994 -827.267)" fill="#fff"/>
          <path id="Path_9406" data-name="Path 9406" d="M1432.43,924.013l1.367-.132a.625.625,0,1,1,.121,1.244h-.009l-1.348.13h-.009a.624.624,0,0,1-.121-1.242Z" transform="translate(-1206.886 -825.169)" fill="#fff"/>
          <path id="Path_9407" data-name="Path 9407" d="M1455.888,922.428l1.372-.06a.625.625,0,0,1,.056,1.249h-.009l-1.355.058h-.009a.624.624,0,1,1-.053-1.246Z" transform="translate(-1224.871 -824.008)" fill="#fff"/>
          <path id="Path_9408" data-name="Path 9408" d="M1479.416,922.07l1.372.014a.627.627,0,0,1-.014,1.253h-.009l-1.355-.014h-.009a.627.627,0,1,1,.016-1.253Z" transform="translate(-1242.91 -823.78)" fill="#fff"/>
          <path id="Path_9409" data-name="Path 9409" d="M1502.945,922.775l1.369.086a.628.628,0,0,1-.079,1.253h-.009l-1.353-.086h-.009a.628.628,0,1,1,.081-1.253Z" transform="translate(-1260.952 -824.321)" fill="#fff"/>
          <path id="Path_9410" data-name="Path 9410" d="M1526.4,924.726l1.362.16a.63.63,0,0,1-.146,1.251h-.009l-1.346-.158h-.009a.631.631,0,0,1,.149-1.253Z" transform="translate(-1278.94 -825.817)" fill="#fff"/>
          <path id="Path_9411" data-name="Path 9411" d="M1549.717,927.948l1.353.234a.63.63,0,0,1-.216,1.242h0l-.009,0-1.334-.232-.009,0a.629.629,0,1,1,.216-1.239Z" transform="translate(-1296.816 -828.287)" fill="#fff"/>
          <path id="Path_9412" data-name="Path 9412" d="M1572.815,932.426l1.337.306a.631.631,0,1,1-.283,1.23h0l-.009,0-1.321-.3-.009,0a.63.63,0,1,1,.285-1.228Z" transform="translate(-1314.524 -831.72)" fill="#fff"/>
          <path id="Path_9413" data-name="Path 9413" d="M1595.641,938.157l1.318.381a.634.634,0,0,1-.35,1.219h0l-.009,0-1.3-.376-.009,0a.634.634,0,0,1,.353-1.218Z" transform="translate(-1332.026 -836.114)" fill="#fff"/>
          <path id="Path_9414" data-name="Path 9414" d="M1618.112,945.135l1.3.453a.634.634,0,0,1-.418,1.2h0l-.009,0-1.279-.448-.009,0a.635.635,0,1,1,.42-1.2Z" transform="translate(-1349.254 -841.465)" fill="#fff"/>
          <path id="Path_9415" data-name="Path 9415" d="M1640.169,953.353l1.27.525a.636.636,0,1,1-.485,1.177h0l-.009,0-1.253-.518-.009,0a.638.638,0,0,1,.487-1.179Z" transform="translate(-1366.166 -847.766)" fill="#fff"/>
          <path id="Path_9416" data-name="Path 9416" d="M1661.748,962.794l1.237.594a.636.636,0,1,1-.552,1.147h0l-.007,0-1.221-.587-.007,0a.635.635,0,1,1,.55-1.144Z" transform="translate(-1382.713 -855.004)" fill="#fff"/>
          <path id="Path_9417" data-name="Path 9417" d="M1682.736,973.443l1.2.664a.639.639,0,0,1-.617,1.119h0l-.007,0-1.186-.657-.007,0a.637.637,0,0,1,.615-1.116Z" transform="translate(-1398.804 -863.168)" fill="#fff"/>
          <path id="Path_9418" data-name="Path 9418" d="M1703.083,985.265l1.163.731a.639.639,0,0,1-.682,1.082h0l-.007,0-1.146-.722-.007,0a.639.639,0,0,1,.68-1.082Z" transform="translate(-1414.402 -872.233)" fill="#fff"/>
          <path id="Path_9419" data-name="Path 9419" d="M1722.733,998.239l1.119.791a.641.641,0,1,1-.74,1.047h0l0,0-1.107-.784,0,0a.639.639,0,1,1,.738-1.044Z" transform="translate(-1429.468 -882.18)" fill="#fff"/>
          <path id="Path_9420" data-name="Path 9420" d="M1741.746,1012.1l1.091.826a.643.643,0,0,1-.778,1.024h0l0,0-1.084-.822,0,0a.642.642,0,0,1,.775-1.023Z" transform="translate(-1444.053 -892.81)" fill="#fff"/>
          <path id="Path_9421" data-name="Path 9421" d="M1760.372,1026.449l1.075.843a.643.643,0,1,1-.794,1.012h0l-1.072-.84a.643.643,0,0,1,.792-1.014Z" transform="translate(-1458.348 -903.829)" fill="#fff"/>
          <path id="Path_9422" data-name="Path 9422" d="M1778.851,1040.963l1.072.84a.645.645,0,1,1-.794,1.017h0l-1.075-.843a.645.645,0,1,1,.8-1.014Z" transform="translate(-1472.533 -914.973)" fill="#fff"/>
          <path id="Path_9423" data-name="Path 9423" d="M1797.425,1055.342l1.086.819,0,0a.646.646,0,0,1-.78,1.031h0l-1.091-.826a.646.646,0,0,1,.78-1.031Z" transform="translate(-1486.802 -926.017)" fill="#fff"/>
          <path id="Path_9424" data-name="Path 9424" d="M1816.33,1069.3l1.109.78.007,0a.646.646,0,1,1-.743,1.058h0l-1.121-.789a.646.646,0,1,1,.745-1.056Z" transform="translate(-1501.332 -936.745)" fill="#fff"/>
          <path id="Path_9425" data-name="Path 9425" d="M1835.744,1082.438l1.147.719.009,0a.648.648,0,0,1-.689,1.1h0l-1.165-.731a.648.648,0,1,1,.689-1.1Z" transform="translate(-1516.254 -946.846)" fill="#fff"/>
          <path id="Path_9426" data-name="Path 9426" d="M1855.94,1094.366l1.2.629.012.007a.65.65,0,0,1-.6,1.151h0l-1.221-.643a.649.649,0,0,1,.606-1.149Z" transform="translate(-1531.793 -956.026)" fill="#fff"/>
          <path id="Path_9427" data-name="Path 9427" d="M1877.057,1104.52l1.249.5.016.007a.651.651,0,1,1-.487,1.207h0l-1.281-.518a.651.651,0,1,1,.487-1.207Z" transform="translate(-1548.049 -963.843)" fill="#fff"/>
          <path id="Path_9428" data-name="Path 9428" d="M1899.126,1112.3l1.3.344.021,0a.652.652,0,0,1-.337,1.26h0l-1.339-.355a.652.652,0,1,1,.337-1.26Z" transform="translate(-1565.049 -969.839)" fill="#fff"/>
          <path id="Path_9429" data-name="Path 9429" d="M1922.023,1117.11l1.33.153.026,0a.653.653,0,0,1-.151,1.3h0l-1.379-.16a.653.653,0,0,1,.151-1.3Z" transform="translate(-1582.701 -973.546)" fill="#fff"/>
          <path id="Path_9430" data-name="Path 9430" d="M1945.355,1118.167l1.335-.067.028,0a.655.655,0,0,1,.065,1.309h0l-1.39.07a.654.654,0,0,1-.063-1.307Z" transform="translate(-1600.697 -974.31)" fill="#fff"/>
          <path id="Path_9431" data-name="Path 9431" d="M1968.6,1114.828l1.309-.283.026,0a.656.656,0,1,1,.278,1.281h0l-1.358.292a.656.656,0,1,1-.276-1.283Z" transform="translate(-1618.627 -971.568)" fill="#fff"/>
          <path id="Path_9432" data-name="Path 9432" d="M1991.118,1107.9l1.253-.478.023-.009a.657.657,0,0,1,.466,1.228h0l-1.3.494a.657.657,0,0,1-.467-1.228Z" transform="translate(-1635.995 -966.075)" fill="#fff"/>
          <path id="Path_9433" data-name="Path 9433" d="M2012.521,1097.877l1.177-.645.019-.009a.658.658,0,1,1,.634,1.153h0l-1.214.666a.658.658,0,1,1-.634-1.153Z" transform="translate(-1652.496 -958.219)" fill="#fff"/>
          <path id="Path_9434" data-name="Path 9434" d="M2032.477,1085.155l1.089-.789.016-.012a.66.66,0,1,1,.775,1.068h0l-1.121.812a.66.66,0,1,1-.775-1.068Z" transform="translate(-1667.875 -948.303)" fill="#fff"/>
          <path id="Path_9435" data-name="Path 9435" d="M2050.8,1070.144l.989-.912.014-.011a.66.66,0,0,1,.9.97h0l-1.017.938a.66.66,0,1,1-.894-.97Z" transform="translate(-1681.99 -936.643)" fill="#fff"/>
          <path id="Path_9436" data-name="Path 9436" d="M2067.352,1053.208l.884-1.017.012-.014a.663.663,0,0,1,1,.87h0l-.908,1.042a.661.661,0,0,1-1-.868Z" transform="translate(-1694.746 -923.516)" fill="#fff"/>
          <path id="Path_9437" data-name="Path 9437" d="M2082.011,1034.65l.773-1.1.01-.014a.663.663,0,1,1,1.086.761h0l-.792,1.133a.663.663,0,0,1-1.086-.761Z" transform="translate(-1706.034 -909.157)" fill="#fff"/>
          <path id="Path_9438" data-name="Path 9438" d="M2094.679,1014.673l.652-1.179.009-.016a.664.664,0,1,1,1.163.643h0l-.67,1.207a.664.664,0,1,1-1.16-.645Z" transform="translate(-1715.793 -893.709)" fill="#fff"/>
          <path id="Path_9439" data-name="Path 9439" d="M2105.231,993.552l.527-1.239.007-.016a.666.666,0,0,1,1.226.52h0l-.541,1.272a.666.666,0,1,1-1.226-.52Z" transform="translate(-1723.918 -877.396)" fill="#fff"/>
          <path id="Path_9440" data-name="Path 9440" d="M2113.523,971.457l.39-1.288,0-.019a.668.668,0,0,1,1.279.388h0l-.4,1.323a.666.666,0,0,1-1.274-.388Z" transform="translate(-1730.308 -860.337)" fill="#fff"/>
          <path id="Path_9441" data-name="Path 9441" d="M2119.462,948.7l.265-1.323,0-.014a.669.669,0,1,1,1.312.262h0l-.272,1.353a.669.669,0,1,1-1.311-.262Z" transform="translate(-1734.879 -842.789)" fill="#fff"/>
          <path id="Path_9442" data-name="Path 9442" d="M2123.28,925.5l.144-1.341,0-.014a.67.67,0,0,1,1.332.144h0l-.149,1.372a.67.67,0,1,1-1.332-.144Z" transform="translate(-1737.82 -824.912)" fill="#fff"/>
          <path id="Path_9443" data-name="Path 9443" d="M2125.04,902.081l.03-1.351v-.014a.671.671,0,1,1,1.342.028h0l-.03,1.379a.67.67,0,1,1-1.339-.03Z" transform="translate(-1739.176 -806.878)" fill="#fff"/>
          <path id="Path_9444" data-name="Path 9444" d="M2124.575,878.649l-.079-1.349v-.014a.672.672,0,0,1,1.342-.079h0l.081,1.374a.672.672,0,1,1-1.342.079Z" transform="translate(-1738.758 -788.845)" fill="#fff"/>
          <path id="Path_9445" data-name="Path 9445" d="M2122.164,855.319l-.183-1.339,0-.012a.674.674,0,0,1,1.334-.183h0l.186,1.365a.674.674,0,0,1-1.335.183Z" transform="translate(-1736.82 -770.897)" fill="#fff"/>
          <path id="Path_9446" data-name="Path 9446" d="M2118.025,832.217l-.281-1.323,0-.012a.675.675,0,0,1,1.321-.281h0l.285,1.346a.675.675,0,1,1-1.321.281Z" transform="translate(-1733.56 -753.131)" fill="#fff"/>
          <path id="Path_9447" data-name="Path 9447" d="M2112.24,809.491l-.374-1.3,0-.012a.676.676,0,0,1,1.3-.371h0l.378,1.323a.676.676,0,1,1-1.3.371Z" transform="translate(-1729.038 -735.662)" fill="#fff"/>
          <path id="Path_9448" data-name="Path 9448" d="M2104.891,787.2l-.462-1.272,0-.012a.678.678,0,0,1,1.274-.462h0l.469,1.293a.678.678,0,1,1-1.274.462Z" transform="translate(-1723.314 -718.527)" fill="#fff"/>
          <path id="Path_9449" data-name="Path 9449" d="M2096.059,765.462l-.545-1.237,0-.009a.68.68,0,0,1,1.244-.548h0l.555,1.258a.678.678,0,0,1-1.242.545Z" transform="translate(-1716.455 -701.831)" fill="#fff"/>
          <path id="Path_9450" data-name="Path 9450" d="M2085.794,744.366l-.626-1.2,0-.009a.679.679,0,0,1,1.2-.629h0l.636,1.219a.679.679,0,0,1-1.2.629Z" transform="translate(-1708.494 -685.631)" fill="#fff"/>
          <path id="Path_9451" data-name="Path 9451" d="M2074.129,724l-.705-1.154-.007-.009a.682.682,0,1,1,1.163-.713h0l.717,1.174a.68.68,0,1,1-1.16.71Z" transform="translate(-1699.457 -669.99)" fill="#fff"/>
          <path id="Path_9452" data-name="Path 9452" d="M2061.105,704.521l-.787-1.1-.009-.012a.678.678,0,0,1,1.1-.794l.81,1.116a.68.68,0,1,1-1.1.8l0,0Z" transform="translate(-1689.372 -655.048)" fill="#fff"/>
          <path id="Path_9453" data-name="Path 9453" d="M2046.6,686.166l-.868-1.037-.007-.007a.667.667,0,0,1,1.021-.859l.887,1.051a.67.67,0,1,1-1.026.863l0,0Z" transform="translate(-1678.15 -640.984)" fill="#fff"/>
          <path id="Path_9454" data-name="Path 9454" d="M2031.018,668.678l-.921-1,0,0a.657.657,0,0,1,.961-.9l.935,1a.66.66,0,1,1-.965.9l0,0Z" transform="translate(-1666.131 -627.583)" fill="#fff"/>
          <path id="Path_9455" data-name="Path 9455" d="M2014.678,651.878l-.961-.961,0,0a.647.647,0,0,1,.912-.917l.972.963a.65.65,0,1,1-.914.924l0,0Z" transform="translate(-1653.541 -614.709)" fill="#fff"/>
          <path id="Path_9456" data-name="Path 9456" d="M1997.78,635.654l-.991-.931,0,0a.636.636,0,0,1,.87-.928l1,.933a.639.639,0,0,1-.87.935l0,0Z" transform="translate(-1640.536 -602.279)" fill="#fff"/>
          <path id="Path_9457" data-name="Path 9457" d="M1980.406,619.912l-1.017-.9,0,0a.626.626,0,0,1,.831-.938l1.026.905a.628.628,0,0,1-.831.942l0,0Z" transform="translate(-1627.168 -590.216)" fill="#fff"/>
          <path id="Path_9458" data-name="Path 9458" d="M1962.656,604.635l-1.035-.882,0,0a.61.61,0,0,1,.787-.933l1.049.877a.618.618,0,0,1-.792.949l0,0Z" transform="translate(-1613.519 -578.515)" fill="#fff"/>
          <path id="Path_9459" data-name="Path 9459" d="M1944.621,589.8l-1.056-.859,0,0a.581.581,0,0,1,.729-.905l1.07.852a.588.588,0,1,1-.734.919l0,0Z" transform="translate(-1599.655 -567.177)" fill="#fff"/>
          <path id="Path_9460" data-name="Path 9460" d="M1926.255,575.349l-1.075-.838,0,0a.551.551,0,0,1,.673-.873l1.089.829a.558.558,0,0,1-.675.889l0,0Z" transform="translate(-1585.539 -556.13)" fill="#fff"/>
          <path id="Path_9461" data-name="Path 9461" d="M1907.59,561.318l-1.091-.812,0,0a.52.52,0,0,1,.617-.838l1.1.805a.528.528,0,0,1-.622.854,0,0,0,0,1,0,0Z" transform="translate(-1571.195 -545.411)" fill="#fff"/>
          <path id="Path_9462" data-name="Path 9462" d="M1888.607,547.711l-1.109-.787,0,0a.491.491,0,0,1,.564-.8l1.123.78a.5.5,0,0,1-.569.819,0,0,0,0,1,0,0Z" transform="translate(-1556.606 -535.018)" fill="#fff"/>
          <path id="Path_9463" data-name="Path 9463" d="M1869.34,534.6l-1.128-.764,0,0a.448.448,0,0,1,.494-.747l1.146.747a.46.46,0,0,1-.5.771s0,0,0,0Z" transform="translate(-1541.804 -525.02)" fill="#fff"/>
          <path id="Path_9464" data-name="Path 9464" d="M1849.748,522.049l-1.149-.729,0,0a.4.4,0,0,1,.422-.678l1.167.713a.412.412,0,1,1-.429.7s0,0,0,0Z" transform="translate(-1526.752 -515.477)" fill="#fff"/>
          <path id="Path_9465" data-name="Path 9465" d="M1829.7,510.181l-1.177-.685,0,0a.351.351,0,0,1,.346-.61l1.2.666a.363.363,0,0,1-.355.634s0,0,0,0Z" transform="translate(-1511.343 -506.459)" fill="#fff"/>
          <path id="Path_9466" data-name="Path 9466" d="M1809.873,499.65l-1.007-.518,0,0a.292.292,0,0,1-.125-.39.289.289,0,0,1,.383-.128l1.028.5a.3.3,0,1,1-.265.543s0,0,0,0Z" transform="translate(-1496.261 -498.583)" fill="#fff"/>
        </g>
      </g>
    </g>
  </g>
</svg>
