<svg xmlns="http://www.w3.org/2000/svg" xmlns:xlink="http://www.w3.org/1999/xlink" width="916" height="916" viewBox="0 0 916 916">
  <defs>
    <filter id="Path_6601" x="213.804" y="405.621" width="75.584" height="75.584" filterUnits="userSpaceOnUse">
      <feOffset dy="3" input="SourceAlpha"/>
      <feGaussianBlur stdDeviation="3" result="blur"/>
      <feFlood flood-color="#decdcd" flood-opacity="0.161"/>
      <feComposite operator="in" in2="blur"/>
      <feComposite in="SourceGraphic"/>
    </filter>
    <filter id="Path_6605" x="413.654" y="447.022" width="75.584" height="75.584" filterUnits="userSpaceOnUse">
      <feOffset dy="3" input="SourceAlpha"/>
      <feGaussianBlur stdDeviation="3" result="blur-2"/>
      <feFlood flood-color="#decdcd" flood-opacity="0.161"/>
      <feComposite operator="in" in2="blur-2"/>
      <feComposite in="SourceGraphic"/>
    </filter>
    <filter id="Path_6602" x="308.759" y="415.227" width="75.584" height="75.584" filterUnits="userSpaceOnUse">
      <feOffset dy="3" input="SourceAlpha"/>
      <feGaussianBlur stdDeviation="3" result="blur-3"/>
      <feFlood flood-color="#6e6d6d" flood-opacity="0.161"/>
      <feComposite operator="in" in2="blur-3"/>
      <feComposite in="SourceGraphic"/>
    </filter>
    <filter id="Path_6606" x="438.322" y="382.596" width="75.584" height="75.584" filterUnits="userSpaceOnUse">
      <feOffset dy="3" input="SourceAlpha"/>
      <feGaussianBlur stdDeviation="3" result="blur-4"/>
      <feFlood flood-color="#decdcd" flood-opacity="0.161"/>
      <feComposite operator="in" in2="blur-4"/>
      <feComposite in="SourceGraphic"/>
    </filter>
    <filter id="Path_6607" x="337.404" y="471.354" width="75.584" height="75.584" filterUnits="userSpaceOnUse">
      <feOffset dy="3" input="SourceAlpha"/>
      <feGaussianBlur stdDeviation="3" result="blur-5"/>
      <feFlood flood-color="#decdcd" flood-opacity="0.161"/>
      <feComposite operator="in" in2="blur-5"/>
      <feComposite in="SourceGraphic"/>
    </filter>
    <filter id="Path_6608" x="256.633" y="450.257" width="75.584" height="75.584" filterUnits="userSpaceOnUse">
      <feOffset dy="3" input="SourceAlpha"/>
      <feGaussianBlur stdDeviation="3" result="blur-6"/>
      <feFlood flood-color="#decdcd" flood-opacity="0.161"/>
      <feComposite operator="in" in2="blur-6"/>
      <feComposite in="SourceGraphic"/>
    </filter>
    <filter id="Path_6603" x="368.678" y="397.48" width="75.584" height="75.584" filterUnits="userSpaceOnUse">
      <feOffset dy="3" input="SourceAlpha"/>
      <feGaussianBlur stdDeviation="3" result="blur-7"/>
      <feFlood flood-color="#decdcd" flood-opacity="0.161"/>
      <feComposite operator="in" in2="blur-7"/>
      <feComposite in="SourceGraphic"/>
    </filter>
    <filter id="Path_6609" x="484.698" y="423.384" width="75.584" height="75.584" filterUnits="userSpaceOnUse">
      <feOffset dy="3" input="SourceAlpha"/>
      <feGaussianBlur stdDeviation="3" result="blur-8"/>
      <feFlood flood-color="#decdcd" flood-opacity="0.161"/>
      <feComposite operator="in" in2="blur-8"/>
      <feComposite in="SourceGraphic"/>
    </filter>
    <filter id="Path_6610" x="177.334" y="457.454" width="75.584" height="75.584" filterUnits="userSpaceOnUse">
      <feOffset dy="3" input="SourceAlpha"/>
      <feGaussianBlur stdDeviation="3" result="blur-9"/>
      <feFlood flood-color="#decdcd" flood-opacity="0.161"/>
      <feComposite operator="in" in2="blur-9"/>
      <feComposite in="SourceGraphic"/>
    </filter>
    <filter id="Path_6611" x="330.371" y="737.346" width="75.584" height="75.584" filterUnits="userSpaceOnUse">
      <feOffset dy="3" input="SourceAlpha"/>
      <feGaussianBlur stdDeviation="3" result="blur-10"/>
      <feFlood flood-color="#decdcd" flood-opacity="0.161"/>
      <feComposite operator="in" in2="blur-10"/>
      <feComposite in="SourceGraphic"/>
    </filter>
    <filter id="Rectangle_4178" x="409.828" y="637.231" width="53.32" height="53.32" filterUnits="userSpaceOnUse">
      <feOffset dy="3" input="SourceAlpha"/>
      <feGaussianBlur stdDeviation="3" result="blur-11"/>
      <feFlood flood-color="#decdcd" flood-opacity="0.161"/>
      <feComposite operator="in" in2="blur-11"/>
      <feComposite in="SourceGraphic"/>
    </filter>
  </defs>
  <g id="Group_9344" data-name="Group 9344" transform="translate(-752 232)">
    <rect id="Rectangle_4213" data-name="Rectangle 4213" width="916" height="916" rx="458" transform="translate(752 -232)" fill="#094144"/>
    <path id="Path_6225" data-name="Path 6225" d="M743.489,432.6c119.294,0,216-96.707,216-216S862.783.6,743.489.6s-216,96.707-216,216S624.2,432.6,743.489,432.6Z" transform="translate(377.319 103.563)" fill="#52bd95" opacity="0.08"/>
    <g id="Group_9288" data-name="Group 9288" transform="translate(208.273 60.662)">
      <g id="Group_9274" data-name="Group 9274" transform="translate(749.721 146.92)">
        <path id="Path_6225-2" data-name="Path 6225" d="M683.8,313.22a156.31,156.31,0,1,0-156.31-156.31A156.31,156.31,0,0,0,683.8,313.22Z" transform="translate(-527.489 -0.6)" fill="#52bd95" opacity="0.144"/>
        <path id="Path_6589" data-name="Path 6589" d="M633.386,212.395a105.9,105.9,0,1,0-105.9-105.9A105.9,105.9,0,0,0,633.386,212.395Z" transform="translate(-476.832 50.056)" fill="#52bd95" opacity="0.08"/>
      </g>
      <path id="Path_6128" data-name="Path 6128" d="M0,0H32.979c42.553,0,38.3,93.5,78.015,93.5H132.27" transform="translate(972.72 311.691) rotate(-90)" fill="none" stroke="#fff" stroke-width="15"/>
      <path id="Path_6201" data-name="Path 6201" d="M0,93.338H32.979C75.532,93.338,71.277,0,110.994,0H132.27" transform="translate(762.691 311.691) rotate(-90)" fill="none" stroke="#fff" stroke-width="15"/>
      <path id="Path_6129" data-name="Path 6129" d="M0,0H32.979c42.553,0,38.3,46.918,78.015,46.918H132.27" transform="translate(946.336 311.691) rotate(-90)" fill="none" stroke="#fff" stroke-width="15"/>
      <path id="Path_6130" data-name="Path 6130" d="M0,0H120.65" transform="translate(918.92 311.691) rotate(-90)" fill="none" stroke="#fff" stroke-width="15"/>
      <path id="Path_6518" data-name="Path 6518" d="M0,0H67.536" transform="translate(909.987 332.978) rotate(90)" fill="none" stroke="#36b37e" stroke-width="15"/>
      <path id="Path_6131" data-name="Path 6131" d="M0,46.918H32.979C75.532,46.918,71.277,0,110.994,0H132.27" transform="translate(840.03 311.691) rotate(-90)" fill="none" stroke="#fff" stroke-width="15"/>
      <g transform="matrix(1, 0, 0, 1, 543.73, -292.66)" filter="url(#Path_6601)">
        <path id="Path_6601-2" data-name="Path 6601" d="M28.792,0A28.792,28.792,0,1,1,0,28.792,28.792,28.792,0,0,1,28.792,0Z" transform="translate(222.8 411.62)" fill="#fff"/>
      </g>
      <g transform="matrix(1, 0, 0, 1, 543.73, -292.66)" filter="url(#Path_6605)">
        <path id="Path_6605-2" data-name="Path 6605" d="M28.792,0A28.792,28.792,0,1,1,0,28.792,28.792,28.792,0,0,1,28.792,0Z" transform="translate(422.65 453.02)" fill="#fff"/>
      </g>
      <g transform="matrix(1, 0, 0, 1, 543.73, -292.66)" filter="url(#Path_6602)">
        <path id="Path_6602-2" data-name="Path 6602" d="M28.792,0A28.792,28.792,0,1,1,0,28.792,28.792,28.792,0,0,1,28.792,0Z" transform="translate(317.76 421.23)" fill="#fff"/>
      </g>
      <g transform="matrix(1, 0, 0, 1, 543.73, -292.66)" filter="url(#Path_6606)">
        <path id="Path_6606-2" data-name="Path 6606" d="M28.792,0A28.792,28.792,0,1,1,0,28.792,28.792,28.792,0,0,1,28.792,0Z" transform="translate(447.32 388.6)" fill="#fff"/>
      </g>
      <g transform="matrix(1, 0, 0, 1, 543.73, -292.66)" filter="url(#Path_6607)">
        <path id="Path_6607-2" data-name="Path 6607" d="M28.792,0A28.792,28.792,0,1,1,0,28.792,28.792,28.792,0,0,1,28.792,0Z" transform="translate(346.4 477.35)" fill="#fff"/>
      </g>
      <g transform="matrix(1, 0, 0, 1, 543.73, -292.66)" filter="url(#Path_6608)">
        <path id="Path_6608-2" data-name="Path 6608" d="M28.792,0A28.792,28.792,0,1,1,0,28.792,28.792,28.792,0,0,1,28.792,0Z" transform="translate(265.63 456.26)" fill="#fff"/>
      </g>
      <g transform="matrix(1, 0, 0, 1, 543.73, -292.66)" filter="url(#Path_6603)">
        <path id="Path_6603-2" data-name="Path 6603" d="M28.792,0A28.792,28.792,0,1,1,0,28.792,28.792,28.792,0,0,1,28.792,0Z" transform="translate(377.68 403.48)" fill="#fff"/>
      </g>
      <g transform="matrix(1, 0, 0, 1, 543.73, -292.66)" filter="url(#Path_6609)">
        <path id="Path_6609-2" data-name="Path 6609" d="M28.792,0A28.792,28.792,0,1,1,0,28.792,28.792,28.792,0,0,1,28.792,0Z" transform="translate(493.7 429.38)" fill="#fff"/>
      </g>
      <g transform="matrix(1, 0, 0, 1, 543.73, -292.66)" filter="url(#Path_6610)">
        <path id="Path_6610-2" data-name="Path 6610" d="M28.792,0A28.792,28.792,0,1,1,0,28.792,28.792,28.792,0,0,1,28.792,0Z" transform="translate(186.33 463.45)" fill="#fff"/>
      </g>
      <path id="Path_6604" data-name="Path 6604" d="M1.072-4.577A3.966,3.966,0,0,0,5.356-.369c2.349,0,4.376-1.382,4.376-4.207V-11.2H7.567v6.634A1.993,1.993,0,0,1,5.387-2.32,1.989,1.989,0,0,1,3.222-4.561V-11.2H1.072Zm16.692,4.1h2.15V-5.467c0-2.349-1.413-3.639-3.394-3.639a3.177,3.177,0,0,0-2.564,1.182v-1.06h-2.15V-.477h2.15v-4.7a1.847,1.847,0,0,1,1.919-2.1,1.84,1.84,0,0,1,1.889,2.1ZM28.559-2.9c-.061-3.117-4.776-2.15-4.776-3.7,0-.491.415-.814,1.213-.814a1.267,1.267,0,0,1,1.428,1.106h2.058c-.123-1.689-1.367-2.81-3.424-2.81-2.1,0-3.363,1.136-3.363,2.549,0,3.117,4.806,2.15,4.806,3.67,0,.491-.461.875-1.305.875A1.412,1.412,0,0,1,23.66-3.164H21.495c.092,1.582,1.582,2.825,3.716,2.825C27.284-.339,28.559-1.444,28.559-2.9Zm2.1-.215c0,1.95,1.09,2.641,2.718,2.641h1.351V-2.289h-1c-.676,0-.906-.246-.906-.814V-7.218h1.9V-8.984h-1.9v-2.1H30.662v2.1H29.649v1.766h1.013Zm7.77-1.6c0-1.643.768-2.134,2.042-2.134h.568V-9.107a2.95,2.95,0,0,0-2.61,1.443V-8.984h-2.15V-.477h2.15ZM50.517-8.984H48.352V-4.3c0,1.367-.737,2.1-1.9,2.1a1.84,1.84,0,0,1-1.889-2.1V-8.984h-2.15v4.991A3.278,3.278,0,0,0,45.818-.369a3.137,3.137,0,0,0,2.534-1.182V-.477h2.165ZM52.083-4.73A4.081,4.081,0,0,0,56.291-.339,3.88,3.88,0,0,0,60.3-3.348H57.98a1.622,1.622,0,0,1-1.7,1.167c-1.2,0-2-.891-2-2.549s.8-2.564,2-2.564a1.671,1.671,0,0,1,1.7,1.182H60.3a3.8,3.8,0,0,0-4.008-3.01A4.081,4.081,0,0,0,52.083-4.73ZM62.218-3.118c0,1.95,1.09,2.641,2.718,2.641h1.351V-2.289h-1c-.676,0-.906-.246-.906-.814V-7.218h1.9V-8.984h-1.9v-2.1H62.218v2.1H61.2v1.766h1.013ZM75.869-8.984H73.7V-4.3c0,1.367-.737,2.1-1.9,2.1a1.84,1.84,0,0,1-1.889-2.1V-8.984h-2.15v4.991A3.278,3.278,0,0,0,71.17-.369,3.137,3.137,0,0,0,73.7-1.552V-.477h2.165Zm4.269,4.269c0-1.643.768-2.134,2.042-2.134h.568V-9.107a2.95,2.95,0,0,0-2.61,1.443V-8.984h-2.15V-.477h2.15Zm7.709-2.641a1.89,1.89,0,0,1,2.027,1.827H85.835A1.976,1.976,0,0,1,87.847-7.356Zm4.039,4.207H89.566a1.753,1.753,0,0,1-1.7,1.029A1.99,1.99,0,0,1,85.82-4.085h6.219a5.025,5.025,0,0,0,.061-.829,3.994,3.994,0,0,0-4.192-4.207A4.088,4.088,0,0,0,83.639-4.73,4.12,4.12,0,0,0,87.908-.339,3.954,3.954,0,0,0,91.885-3.149Zm1.228-1.612C93.114-2.1,94.833-.339,97-.339a3.215,3.215,0,0,0,2.795-1.4V-.477h2.181V-11.84H99.793V-7.8a3.491,3.491,0,0,0-2.779-1.321C94.833-9.122,93.114-7.418,93.114-4.761Zm6.7.031a2.29,2.29,0,0,1-2.257,2.5,2.325,2.325,0,0,1-2.242-2.534,2.269,2.269,0,0,1,2.242-2.472A2.29,2.29,0,0,1,99.809-4.73Zm11.67-6.465h-3.747V-.477h3.747c3.424,0,5.651-2.1,5.651-5.344C117.13-9.076,114.9-11.2,111.479-11.2Zm-1.6,8.891V-9.383h1.52a3.24,3.24,0,0,1,3.532,3.563A3.206,3.206,0,0,1,111.4-2.3Zm8.307-2.457c0,2.657,1.72,4.422,3.87,4.422a3.355,3.355,0,0,0,2.825-1.382V-.477h2.165V-8.984h-2.165v1.213a3.364,3.364,0,0,0-2.81-1.351C119.909-9.122,118.189-7.418,118.189-4.761Zm6.7.031a2.291,2.291,0,0,1-2.257,2.5,2.325,2.325,0,0,1-2.242-2.534,2.269,2.269,0,0,1,2.242-2.472A2.291,2.291,0,0,1,124.884-4.73Zm4.607,1.612c0,1.95,1.09,2.641,2.718,2.641h1.351V-2.289h-1c-.676,0-.906-.246-.906-.814V-7.218h1.9V-8.984h-1.9v-2.1h-2.165v2.1h-1.013v1.766h1.013Zm5.067-1.643c0,2.657,1.72,4.422,3.87,4.422a3.355,3.355,0,0,0,2.825-1.382V-.477h2.165V-8.984h-2.165v1.213a3.364,3.364,0,0,0-2.81-1.351C136.278-9.122,134.558-7.418,134.558-4.761Zm6.7.031A2.291,2.291,0,0,1,139-2.227a2.325,2.325,0,0,1-2.242-2.534A2.269,2.269,0,0,1,139-7.233,2.291,2.291,0,0,1,141.254-4.73Z" transform="translate(838.408 70.343)" fill="#fff"/>
      <g id="description-24px" transform="translate(825.506 180.046)">
        <path id="Path_6521" data-name="Path 6521" d="M0,0H25.288V25.288H0Z" fill="none"/>
        <path id="Path_6522" data-name="Path 6522" d="M14.537,2H6.107a2.1,2.1,0,0,0-2.1,2.107L4,20.966a2.1,2.1,0,0,0,2.1,2.107H18.752a2.114,2.114,0,0,0,2.107-2.107V8.322Zm2.107,16.859H8.215V16.752h8.429Zm0-4.215H8.215V12.537h8.429ZM13.483,9.376v-5.8l5.8,5.8Z" transform="translate(0.215 0.107)" fill="#094144"/>
      </g>
      <g id="videocam-24px" transform="translate(978.988 172.969)">
        <path id="Path_6523" data-name="Path 6523" d="M0,0H32.365V32.365H0Z" fill="none"/>
        <path id="Path_6524" data-name="Path 6524" d="M21.88,12.069V7.349A1.353,1.353,0,0,0,20.531,6H4.349A1.353,1.353,0,0,0,3,7.349V20.834a1.353,1.353,0,0,0,1.349,1.349H20.531a1.353,1.353,0,0,0,1.349-1.349v-4.72l5.394,5.394V6.674Z" transform="translate(1.046 2.091)" fill="#094144"/>
      </g>
      <g id="question_answer-24px" transform="translate(876.378 143.449)">
        <path id="Path_6527" data-name="Path 6527" d="M0,0H27.8V27.8H0Z" fill="none"/>
        <path id="Path_6528" data-name="Path 6528" d="M24.007,6.633H21.69V17.057H6.633v2.317a1.162,1.162,0,0,0,1.158,1.158H20.532l4.633,4.633V7.791A1.162,1.162,0,0,0,24.007,6.633Zm-4.633,6.95V3.158A1.162,1.162,0,0,0,18.216,2H3.158A1.162,1.162,0,0,0,2,3.158V19.374l4.633-4.633H18.216A1.162,1.162,0,0,0,19.374,13.583Z" transform="translate(0.317 0.317)" fill="#094144"/>
      </g>
      <g id="question_answer-24px-2" data-name="question_answer-24px" transform="translate(1005.941 110.818)">
        <path id="Path_6527-2" data-name="Path 6527" d="M0,0H27.8V27.8H0Z" fill="none"/>
        <path id="Path_6528-2" data-name="Path 6528" d="M24.007,6.633H21.69V17.057H6.633v2.317a1.162,1.162,0,0,0,1.158,1.158H20.532l4.633,4.633V7.791A1.162,1.162,0,0,0,24.007,6.633Zm-4.633,6.95V3.158A1.162,1.162,0,0,0,18.216,2H3.158A1.162,1.162,0,0,0,2,3.158V19.374l4.633-4.633H18.216A1.162,1.162,0,0,0,19.374,13.583Z" transform="translate(0.317 0.317)" fill="#094144"/>
      </g>
      <g id="Group_9258" data-name="Group 9258" transform="translate(747.278 287.698)">
        <path id="Path_6639" data-name="Path 6639" d="M6,0H296.26a6,6,0,0,1,6,6V41.986a6,6,0,0,1-6,6H6a6,6,0,0,1-6-6V6A6,6,0,0,1,6,0Z" transform="translate(0 0)" fill="#36b37e"/>
        <path id="Path_6726" data-name="Path 6726" d="M2.212-3.332a2.238,2.238,0,0,0,.2.98,1.77,1.77,0,0,0,.546.665,2.328,2.328,0,0,0,.805.378,3.892,3.892,0,0,0,.987.119,3.169,3.169,0,0,0,.98-.133,1.982,1.982,0,0,0,.658-.343,1.239,1.239,0,0,0,.364-.483A1.446,1.446,0,0,0,6.86-2.7,1.2,1.2,0,0,0,6.6-3.549a1.479,1.479,0,0,0-.567-.385A11.857,11.857,0,0,0,4.8-4.305Q4.088-4.48,3.052-4.76A3.737,3.737,0,0,1,1.981-5.2,2.555,2.555,0,0,1,1.3-5.81a2.139,2.139,0,0,1-.357-.714,2.864,2.864,0,0,1-.105-.77A2.6,2.6,0,0,1,1.155-8.6a2.8,2.8,0,0,1,.833-.917,3.663,3.663,0,0,1,1.176-.539,5.154,5.154,0,0,1,1.33-.175,5.23,5.23,0,0,1,1.477.2,3.642,3.642,0,0,1,1.218.609,2.983,2.983,0,0,1,.833,1A2.958,2.958,0,0,1,8.33-7.042H6.58a1.687,1.687,0,0,0-.658-1.365,2.613,2.613,0,0,0-1.5-.4,3.277,3.277,0,0,0-.63.063,2,2,0,0,0-.588.21,1.29,1.29,0,0,0-.441.4,1.078,1.078,0,0,0-.175.63,1.072,1.072,0,0,0,.329.833,2.131,2.131,0,0,0,.861.455l.441.119q.385.105.861.231l.931.245q.455.119.651.175a2.917,2.917,0,0,1,.854.42,2.693,2.693,0,0,1,.609.609,2.515,2.515,0,0,1,.364.735A2.687,2.687,0,0,1,8.61-2.9a2.828,2.828,0,0,1-.343,1.435,2.911,2.911,0,0,1-.9.973A3.925,3.925,0,0,1,6.09.063,6.094,6.094,0,0,1,4.634.238a5.992,5.992,0,0,1-1.61-.21A3.768,3.768,0,0,1,1.708-.616a3.151,3.151,0,0,1-.9-1.113,3.705,3.705,0,0,1-.35-1.6ZM16.268,0H14.7V-1.008h-.028a2.192,2.192,0,0,1-.875.875A2.375,2.375,0,0,1,12.614.2a2.657,2.657,0,0,1-2.065-.707,3.1,3.1,0,0,1-.637-2.135V-7.238h1.6V-2.8a1.963,1.963,0,0,0,.364,1.344,1.326,1.326,0,0,0,1.022.392,2.016,2.016,0,0,0,.84-.154,1.486,1.486,0,0,0,.546-.413,1.584,1.584,0,0,0,.3-.623,3.226,3.226,0,0,0,.091-.784v-4.2h1.6Zm1.68-7.238h1.5v1.4h.028a1.616,1.616,0,0,1,.273-.574,2.662,2.662,0,0,1,.49-.511,2.476,2.476,0,0,1,.637-.371,1.907,1.907,0,0,1,.714-.14,3.463,3.463,0,0,1,.385.014l.217.028v1.54q-.168-.028-.343-.049a2.878,2.878,0,0,0-.343-.021,1.834,1.834,0,0,0-.763.161,1.752,1.752,0,0,0-.623.476,2.333,2.333,0,0,0-.42.777,3.363,3.363,0,0,0-.154,1.064V0h-1.6Zm4.214,0H23.9L25.732-1.68h.028l1.764-5.558h1.652L26.586,0H24.794Zm12.95,2.982a2.574,2.574,0,0,0-.161-.728,1.94,1.94,0,0,0-.364-.609,1.8,1.8,0,0,0-.56-.42,1.65,1.65,0,0,0-.735-.161,1.918,1.918,0,0,0-.763.147,1.745,1.745,0,0,0-.588.406,2.008,2.008,0,0,0-.392.609,2.125,2.125,0,0,0-.161.756Zm-3.724,1.05a2.78,2.78,0,0,0,.119.812,2,2,0,0,0,.357.686,1.721,1.721,0,0,0,.6.469,1.986,1.986,0,0,0,.868.175,1.917,1.917,0,0,0,1.127-.3,1.779,1.779,0,0,0,.637-.9H36.61a3.009,3.009,0,0,1-.434,1.05,3.02,3.02,0,0,1-.742.777,3.2,3.2,0,0,1-.973.476A3.917,3.917,0,0,1,33.334.2a3.832,3.832,0,0,1-1.512-.28,3.126,3.126,0,0,1-1.113-.784,3.327,3.327,0,0,1-.686-1.2,4.891,4.891,0,0,1-.231-1.54,4.357,4.357,0,0,1,.245-1.463,3.745,3.745,0,0,1,.7-1.218,3.348,3.348,0,0,1,1.1-.833,3.333,3.333,0,0,1,1.456-.308,3.244,3.244,0,0,1,1.533.357,3.364,3.364,0,0,1,1.127.945A3.826,3.826,0,0,1,36.6-4.781a4.141,4.141,0,0,1,.1,1.575Zm5.74-4.032h1.75l1.89,5.4H40.8l1.834-5.4H44.3L41.482.392q-.2.49-.385.938a3.357,3.357,0,0,1-.462.791,2,2,0,0,1-.679.546,2.314,2.314,0,0,1-1.036.2,7.263,7.263,0,0,1-1.106-.084V1.442q.2.028.378.063a2,2,0,0,0,.378.035,1.3,1.3,0,0,0,.462-.07.764.764,0,0,0,.3-.2,1.261,1.261,0,0,0,.2-.315,3.081,3.081,0,0,0,.154-.42l.182-.56Zm9.436,3.906a2.238,2.238,0,0,0,.2.98,1.77,1.77,0,0,0,.546.665,2.328,2.328,0,0,0,.805.378,3.892,3.892,0,0,0,.987.119,3.169,3.169,0,0,0,.98-.133,1.982,1.982,0,0,0,.658-.343,1.239,1.239,0,0,0,.364-.483,1.446,1.446,0,0,0,.112-.553,1.2,1.2,0,0,0-.259-.847,1.479,1.479,0,0,0-.567-.385,11.857,11.857,0,0,0-1.239-.371Q48.44-4.48,47.4-4.76A3.737,3.737,0,0,1,46.333-5.2a2.555,2.555,0,0,1-.679-.609,2.139,2.139,0,0,1-.357-.714,2.864,2.864,0,0,1-.1-.77A2.6,2.6,0,0,1,45.507-8.6a2.8,2.8,0,0,1,.833-.917,3.663,3.663,0,0,1,1.176-.539,5.154,5.154,0,0,1,1.33-.175,5.23,5.23,0,0,1,1.477.2,3.642,3.642,0,0,1,1.218.609,2.983,2.983,0,0,1,.833,1,2.958,2.958,0,0,1,.308,1.379h-1.75a1.687,1.687,0,0,0-.658-1.365,2.613,2.613,0,0,0-1.5-.4,3.277,3.277,0,0,0-.63.063,2,2,0,0,0-.588.21,1.29,1.29,0,0,0-.441.4,1.078,1.078,0,0,0-.175.63,1.072,1.072,0,0,0,.329.833,2.131,2.131,0,0,0,.861.455l.441.119q.385.105.861.231l.931.245q.455.119.651.175a2.917,2.917,0,0,1,.854.42,2.693,2.693,0,0,1,.609.609,2.515,2.515,0,0,1,.364.735,2.687,2.687,0,0,1,.119.784,2.828,2.828,0,0,1-.343,1.435,2.911,2.911,0,0,1-.9.973,3.925,3.925,0,0,1-1.274.553,6.094,6.094,0,0,1-1.456.175,5.992,5.992,0,0,1-1.61-.21A3.768,3.768,0,0,1,46.06-.616a3.151,3.151,0,0,1-.9-1.113,3.705,3.705,0,0,1-.35-1.6Zm12.67-.924a2.574,2.574,0,0,0-.161-.728,1.94,1.94,0,0,0-.364-.609,1.8,1.8,0,0,0-.56-.42,1.65,1.65,0,0,0-.735-.161,1.918,1.918,0,0,0-.763.147,1.745,1.745,0,0,0-.588.406,2.008,2.008,0,0,0-.392.609,2.125,2.125,0,0,0-.161.756ZM55.51-3.206a2.78,2.78,0,0,0,.119.812,2,2,0,0,0,.357.686,1.721,1.721,0,0,0,.6.469,1.986,1.986,0,0,0,.868.175,1.917,1.917,0,0,0,1.127-.3,1.779,1.779,0,0,0,.637-.9h1.512a3.009,3.009,0,0,1-.434,1.05,3.02,3.02,0,0,1-.742.777,3.2,3.2,0,0,1-.973.476A3.917,3.917,0,0,1,57.456.2a3.832,3.832,0,0,1-1.512-.28,3.126,3.126,0,0,1-1.113-.784,3.327,3.327,0,0,1-.686-1.2,4.891,4.891,0,0,1-.231-1.54,4.357,4.357,0,0,1,.245-1.463,3.745,3.745,0,0,1,.7-1.218,3.348,3.348,0,0,1,1.1-.833,3.333,3.333,0,0,1,1.456-.308,3.244,3.244,0,0,1,1.533.357,3.364,3.364,0,0,1,1.127.945,3.826,3.826,0,0,1,.651,1.351,4.141,4.141,0,0,1,.1,1.575Zm6.538-4.032H63.56v1.064l.028.028a2.676,2.676,0,0,1,.952-.945,2.537,2.537,0,0,1,1.3-.343,2.705,2.705,0,0,1,1.876.616A2.358,2.358,0,0,1,68.4-4.97V0h-1.6V-4.55a1.967,1.967,0,0,0-.364-1.239,1.322,1.322,0,0,0-1.05-.385,1.734,1.734,0,0,0-.728.147,1.579,1.579,0,0,0-.546.406,1.909,1.909,0,0,0-.35.609,2.174,2.174,0,0,0-.126.742V0h-1.6Zm9.24,4.914a1.2,1.2,0,0,0,.532.98,2.094,2.094,0,0,0,1.106.28,4.271,4.271,0,0,0,.511-.035,2.224,2.224,0,0,0,.539-.133,1.014,1.014,0,0,0,.413-.287.689.689,0,0,0,.147-.5.705.705,0,0,0-.224-.5,1.552,1.552,0,0,0-.539-.315,5.223,5.223,0,0,0-.749-.2q-.42-.084-.854-.182a8.015,8.015,0,0,1-.861-.238,2.779,2.779,0,0,1-.742-.378,1.747,1.747,0,0,1-.525-.609,1.946,1.946,0,0,1-.2-.917,1.646,1.646,0,0,1,.287-.987,2.2,2.2,0,0,1,.728-.644,3.17,3.17,0,0,1,.98-.343,5.757,5.757,0,0,1,1.029-.1,4.708,4.708,0,0,1,1.071.119,2.91,2.91,0,0,1,.924.385,2.261,2.261,0,0,1,.686.693,2.4,2.4,0,0,1,.343,1.029H74.228a.994.994,0,0,0-.525-.77,2.179,2.179,0,0,0-.945-.2,3.382,3.382,0,0,0-.4.028,1.845,1.845,0,0,0-.434.105.913.913,0,0,0-.343.224.535.535,0,0,0-.14.385.609.609,0,0,0,.2.476,1.607,1.607,0,0,0,.532.3,5.223,5.223,0,0,0,.749.2q.42.084.868.182t.854.238a2.754,2.754,0,0,1,.749.378,1.837,1.837,0,0,1,.532.6,1.817,1.817,0,0,1,.2.9,1.947,1.947,0,0,1-.294,1.092,2.325,2.325,0,0,1-.763.728A3.471,3.471,0,0,1,74.032.07,5.278,5.278,0,0,1,72.9.2,4.935,4.935,0,0,1,71.631.042a2.953,2.953,0,0,1-1.008-.469,2.266,2.266,0,0,1-.672-.784,2.494,2.494,0,0,1-.259-1.113ZM83.706,0H82.138V-1.008H82.11a2.192,2.192,0,0,1-.875.875A2.375,2.375,0,0,1,80.052.2a2.657,2.657,0,0,1-2.065-.707,3.1,3.1,0,0,1-.637-2.135V-7.238h1.6V-2.8a1.963,1.963,0,0,0,.364,1.344,1.326,1.326,0,0,0,1.022.392,2.016,2.016,0,0,0,.84-.154,1.486,1.486,0,0,0,.546-.413,1.584,1.584,0,0,0,.3-.623,3.226,3.226,0,0,0,.091-.784v-4.2h1.6Zm1.68-7.238H86.9V-6.23h.042a4.1,4.1,0,0,1,.392-.49A2.139,2.139,0,0,1,87.8-7.1a2.372,2.372,0,0,1,.6-.245,2.954,2.954,0,0,1,.77-.091,2.622,2.622,0,0,1,1.225.294,1.663,1.663,0,0,1,.805.91,3.222,3.222,0,0,1,.938-.882,2.529,2.529,0,0,1,1.33-.322,2.615,2.615,0,0,1,1.785.56A2.39,2.39,0,0,1,95.886-5V0h-1.6V-4.228q0-.434-.028-.791a1.615,1.615,0,0,0-.161-.616.916.916,0,0,0-.4-.4,1.577,1.577,0,0,0-.728-.14,1.352,1.352,0,0,0-1.176.5,2.41,2.41,0,0,0-.364,1.428V0h-1.6V-4.648a1.97,1.97,0,0,0-.273-1.141,1.148,1.148,0,0,0-1-.385,1.465,1.465,0,0,0-.6.126,1.483,1.483,0,0,0-.5.364,1.822,1.822,0,0,0-.35.588,2.235,2.235,0,0,0-.133.8V0h-1.6ZM100.73-10h8.092v1.512h-3.178V0h-1.75V-8.484H100.73Zm12.446,5.74a2.574,2.574,0,0,0-.161-.728,1.94,1.94,0,0,0-.364-.609,1.8,1.8,0,0,0-.56-.42,1.65,1.65,0,0,0-.735-.161,1.918,1.918,0,0,0-.763.147,1.745,1.745,0,0,0-.588.406,2.008,2.008,0,0,0-.392.609,2.125,2.125,0,0,0-.161.756Zm-3.724,1.05a2.78,2.78,0,0,0,.119.812,2,2,0,0,0,.357.686,1.721,1.721,0,0,0,.6.469,1.986,1.986,0,0,0,.868.175,1.917,1.917,0,0,0,1.127-.3,1.779,1.779,0,0,0,.637-.9h1.512a3.009,3.009,0,0,1-.434,1.05,3.02,3.02,0,0,1-.742.777,3.2,3.2,0,0,1-.973.476A3.917,3.917,0,0,1,111.4.2a3.832,3.832,0,0,1-1.512-.28,3.126,3.126,0,0,1-1.113-.784,3.327,3.327,0,0,1-.686-1.2,4.891,4.891,0,0,1-.231-1.54,4.357,4.357,0,0,1,.245-1.463,3.745,3.745,0,0,1,.7-1.218,3.348,3.348,0,0,1,1.1-.833,3.333,3.333,0,0,1,1.456-.308,3.244,3.244,0,0,1,1.533.357,3.364,3.364,0,0,1,1.127.945,3.826,3.826,0,0,1,.651,1.351,4.141,4.141,0,0,1,.1,1.575Zm8.484-.6-2.506-3.43h1.932l1.512,2.226,1.582-2.226H122.3L119.84-3.892,122.612,0h-1.918L118.86-2.674,117.082,0h-1.876Zm4.844-3.43h1.2v-2.17h1.6v2.17h1.442v1.19H125.58v3.864a3.854,3.854,0,0,0,.021.434.749.749,0,0,0,.1.308.468.468,0,0,0,.231.189,1.137,1.137,0,0,0,.42.063q.168,0,.336-.007a1.669,1.669,0,0,0,.336-.049V-.014L126.5.042a4.689,4.689,0,0,1-.518.028,3.533,3.533,0,0,1-1.015-.119,1.355,1.355,0,0,1-.6-.35,1.208,1.208,0,0,1-.294-.581,4.372,4.372,0,0,1-.091-.8v-4.27h-1.2ZM134.96-10h1.862l3.85,10H138.8l-.938-2.646h-3.99L132.93,0h-1.806Zm-.616,6.02H137.4l-1.5-4.3h-.042ZM141.4-7.238h1.512v1.064l.028.028a2.676,2.676,0,0,1,.952-.945,2.537,2.537,0,0,1,1.3-.343,2.705,2.705,0,0,1,1.876.616,2.358,2.358,0,0,1,.686,1.848V0h-1.6V-4.55a1.966,1.966,0,0,0-.364-1.239,1.322,1.322,0,0,0-1.05-.385,1.734,1.734,0,0,0-.728.147,1.579,1.579,0,0,0-.546.406,1.908,1.908,0,0,0-.35.609A2.174,2.174,0,0,0,143-4.27V0h-1.6ZM155.5-1.61a.847.847,0,0,0,.077.42.325.325,0,0,0,.3.126h.168a1.046,1.046,0,0,0,.224-.028V.014q-.084.028-.217.063t-.273.063q-.14.028-.28.042T155.26.2a1.539,1.539,0,0,1-.812-.2.976.976,0,0,1-.42-.686,2.823,2.823,0,0,1-1.169.672,4.6,4.6,0,0,1-1.337.21,3.279,3.279,0,0,1-.938-.133,2.461,2.461,0,0,1-.791-.392,1.879,1.879,0,0,1-.546-.658,2.027,2.027,0,0,1-.2-.931,2.15,2.15,0,0,1,.245-1.092,1.815,1.815,0,0,1,.644-.658,2.908,2.908,0,0,1,.9-.343q.5-.105,1-.161a8.19,8.19,0,0,1,.826-.119,3.876,3.876,0,0,0,.693-.119,1.061,1.061,0,0,0,.476-.259A.713.713,0,0,0,154-5.194a.817.817,0,0,0-.147-.5.987.987,0,0,0-.364-.3,1.573,1.573,0,0,0-.483-.14,3.871,3.871,0,0,0-.5-.035,2,2,0,0,0-1.106.28,1.092,1.092,0,0,0-.49.868h-1.6a2.4,2.4,0,0,1,.336-1.162,2.321,2.321,0,0,1,.749-.742,3.064,3.064,0,0,1,1.029-.392,6.126,6.126,0,0,1,1.176-.112,4.954,4.954,0,0,1,1.05.112,2.982,2.982,0,0,1,.931.364,2.016,2.016,0,0,1,.665.651,1.786,1.786,0,0,1,.252.973Zm-1.6-2.016a1.937,1.937,0,0,1-.9.287q-.532.049-1.064.147a3.411,3.411,0,0,0-.49.119,1.476,1.476,0,0,0-.42.21.922.922,0,0,0-.287.35,1.2,1.2,0,0,0-.1.525.67.67,0,0,0,.154.448,1.119,1.119,0,0,0,.371.287,1.718,1.718,0,0,0,.476.147,2.955,2.955,0,0,0,.469.042,2.6,2.6,0,0,0,.574-.07,1.909,1.909,0,0,0,.581-.238,1.529,1.529,0,0,0,.455-.427,1.08,1.08,0,0,0,.182-.637Zm3.36-6.37h1.6V0h-1.6ZM159.8-7.238h1.75l1.89,5.4h.028l1.834-5.4h1.666L164.15.392q-.2.49-.385.938a3.356,3.356,0,0,1-.462.791,2,2,0,0,1-.679.546,2.314,2.314,0,0,1-1.036.2,7.263,7.263,0,0,1-1.106-.084V1.442q.2.028.378.063a2,2,0,0,0,.378.035,1.3,1.3,0,0,0,.462-.07.764.764,0,0,0,.3-.2,1.261,1.261,0,0,0,.2-.315,3.083,3.083,0,0,0,.154-.42l.182-.56Zm7.336,0h1.2v-2.17h1.6v2.17h1.442v1.19h-1.442v3.864a3.856,3.856,0,0,0,.021.434.749.749,0,0,0,.1.308.468.468,0,0,0,.231.189,1.137,1.137,0,0,0,.42.063q.168,0,.336-.007a1.669,1.669,0,0,0,.336-.049V-.014l-.518.056a4.689,4.689,0,0,1-.518.028,3.533,3.533,0,0,1-1.015-.119,1.355,1.355,0,0,1-.6-.35,1.208,1.208,0,0,1-.294-.581,4.373,4.373,0,0,1-.091-.8v-4.27h-1.2ZM172.564-10h1.6v1.512h-1.6Zm0,2.758h1.6V0h-1.6Zm8.218,2.422a1.5,1.5,0,0,0-.539-1.015,1.759,1.759,0,0,0-1.113-.343,2.3,2.3,0,0,0-.658.105,1.561,1.561,0,0,0-.644.392,2.2,2.2,0,0,0-.49.8,3.8,3.8,0,0,0-.2,1.337,3.915,3.915,0,0,0,.1.9,2.45,2.45,0,0,0,.336.8,1.82,1.82,0,0,0,.6.567,1.693,1.693,0,0,0,.882.217,1.606,1.606,0,0,0,1.155-.434,2.017,2.017,0,0,0,.567-1.218h1.6a3.506,3.506,0,0,1-1.071,2.163A3.268,3.268,0,0,1,179.06.2a3.7,3.7,0,0,1-1.505-.287,3.19,3.19,0,0,1-1.1-.784,3.33,3.33,0,0,1-.679-1.183,4.622,4.622,0,0,1-.231-1.484,5.07,5.07,0,0,1,.224-1.526,3.5,3.5,0,0,1,.672-1.239,3.144,3.144,0,0,1,1.113-.826,3.756,3.756,0,0,1,1.561-.3,4.362,4.362,0,0,1,1.2.161,3.153,3.153,0,0,1,1.008.483,2.571,2.571,0,0,1,.721.812,2.78,2.78,0,0,1,.336,1.162Zm4.1,2.492a1.2,1.2,0,0,0,.532.98,2.094,2.094,0,0,0,1.106.28,4.271,4.271,0,0,0,.511-.035,2.224,2.224,0,0,0,.539-.133,1.014,1.014,0,0,0,.413-.287.689.689,0,0,0,.147-.5.7.7,0,0,0-.224-.5,1.552,1.552,0,0,0-.539-.315,5.223,5.223,0,0,0-.749-.2q-.42-.084-.854-.182a8.016,8.016,0,0,1-.861-.238,2.778,2.778,0,0,1-.742-.378,1.747,1.747,0,0,1-.525-.609,1.946,1.946,0,0,1-.2-.917,1.646,1.646,0,0,1,.287-.987,2.2,2.2,0,0,1,.728-.644,3.17,3.17,0,0,1,.98-.343,5.757,5.757,0,0,1,1.029-.1,4.708,4.708,0,0,1,1.071.119,2.91,2.91,0,0,1,.924.385,2.261,2.261,0,0,1,.686.693,2.4,2.4,0,0,1,.343,1.029h-1.666a.994.994,0,0,0-.525-.77,2.179,2.179,0,0,0-.945-.2,3.381,3.381,0,0,0-.4.028,1.845,1.845,0,0,0-.434.105.913.913,0,0,0-.343.224.535.535,0,0,0-.14.385.609.609,0,0,0,.2.476,1.606,1.606,0,0,0,.532.3,5.222,5.222,0,0,0,.749.2q.42.084.868.182t.854.238a2.754,2.754,0,0,1,.749.378,1.837,1.837,0,0,1,.532.6,1.817,1.817,0,0,1,.2.9,1.947,1.947,0,0,1-.294,1.092,2.325,2.325,0,0,1-.763.728,3.47,3.47,0,0,1-1.043.406A5.277,5.277,0,0,1,186.494.2a4.936,4.936,0,0,1-1.267-.154,2.953,2.953,0,0,1-1.008-.469,2.266,2.266,0,0,1-.672-.784,2.494,2.494,0,0,1-.259-1.113ZM196.21-3.332a2.238,2.238,0,0,0,.2.98,1.77,1.77,0,0,0,.546.665,2.328,2.328,0,0,0,.805.378,3.892,3.892,0,0,0,.987.119,3.169,3.169,0,0,0,.98-.133,1.982,1.982,0,0,0,.658-.343,1.239,1.239,0,0,0,.364-.483,1.446,1.446,0,0,0,.112-.553,1.2,1.2,0,0,0-.259-.847,1.479,1.479,0,0,0-.567-.385,11.857,11.857,0,0,0-1.239-.371q-.707-.175-1.743-.455a3.737,3.737,0,0,1-1.071-.441,2.555,2.555,0,0,1-.679-.609,2.138,2.138,0,0,1-.357-.714,2.864,2.864,0,0,1-.105-.77,2.6,2.6,0,0,1,.315-1.309,2.8,2.8,0,0,1,.833-.917,3.663,3.663,0,0,1,1.176-.539,5.154,5.154,0,0,1,1.33-.175,5.23,5.23,0,0,1,1.477.2,3.642,3.642,0,0,1,1.218.609,2.983,2.983,0,0,1,.833,1,2.958,2.958,0,0,1,.308,1.379h-1.75a1.687,1.687,0,0,0-.658-1.365,2.613,2.613,0,0,0-1.5-.4,3.277,3.277,0,0,0-.63.063,2,2,0,0,0-.588.21,1.29,1.29,0,0,0-.441.4,1.078,1.078,0,0,0-.175.63,1.072,1.072,0,0,0,.329.833,2.131,2.131,0,0,0,.861.455l.441.119q.385.105.861.231l.931.245q.455.119.651.175a2.917,2.917,0,0,1,.854.42,2.693,2.693,0,0,1,.609.609,2.515,2.515,0,0,1,.364.735,2.687,2.687,0,0,1,.119.784,2.828,2.828,0,0,1-.343,1.435,2.911,2.911,0,0,1-.9.973,3.925,3.925,0,0,1-1.274.553,6.094,6.094,0,0,1-1.456.175,5.991,5.991,0,0,1-1.61-.21,3.769,3.769,0,0,1-1.316-.644,3.151,3.151,0,0,1-.9-1.113,3.705,3.705,0,0,1-.35-1.6ZM207.228.2a3.942,3.942,0,0,1-1.547-.287,3.3,3.3,0,0,1-1.148-.791,3.383,3.383,0,0,1-.714-1.2,4.635,4.635,0,0,1-.245-1.54,4.59,4.59,0,0,1,.245-1.526,3.383,3.383,0,0,1,.714-1.2,3.3,3.3,0,0,1,1.148-.791,3.942,3.942,0,0,1,1.547-.287,3.942,3.942,0,0,1,1.547.287,3.3,3.3,0,0,1,1.148.791,3.383,3.383,0,0,1,.714,1.2,4.59,4.59,0,0,1,.245,1.526,4.635,4.635,0,0,1-.245,1.54,3.383,3.383,0,0,1-.714,1.2,3.3,3.3,0,0,1-1.148.791A3.942,3.942,0,0,1,207.228.2Zm0-1.26a1.831,1.831,0,0,0,.924-.224,1.947,1.947,0,0,0,.644-.588,2.566,2.566,0,0,0,.371-.819,3.664,3.664,0,0,0,.119-.931,3.692,3.692,0,0,0-.119-.924,2.477,2.477,0,0,0-.371-.819,1.978,1.978,0,0,0-.644-.581,1.831,1.831,0,0,0-.924-.224,1.831,1.831,0,0,0-.924.224,1.978,1.978,0,0,0-.644.581,2.477,2.477,0,0,0-.371.819,3.692,3.692,0,0,0-.119.924,3.664,3.664,0,0,0,.119.931,2.566,2.566,0,0,0,.371.819,1.947,1.947,0,0,0,.644.588A1.831,1.831,0,0,0,207.228-1.064Zm4.27-6.174h1.19v-.6a3.087,3.087,0,0,1,.168-1.113,1.581,1.581,0,0,1,.448-.658,1.475,1.475,0,0,1,.637-.308A3.544,3.544,0,0,1,214.69-10a4.57,4.57,0,0,1,1.12.1v1.246a2.285,2.285,0,0,0-.329-.063,3.52,3.52,0,0,0-.413-.021.974.974,0,0,0-.553.154.675.675,0,0,0-.231.6v.742h1.358v1.19h-1.358V0h-1.6V-6.048H211.5Zm4.4,0h1.2v-2.17h1.6v2.17h1.442v1.19h-1.442v3.864a3.856,3.856,0,0,0,.021.434.749.749,0,0,0,.1.308.468.468,0,0,0,.231.189,1.137,1.137,0,0,0,.42.063q.168,0,.336-.007a1.669,1.669,0,0,0,.336-.049V-.014l-.518.056A4.689,4.689,0,0,1,219.1.07a3.533,3.533,0,0,1-1.015-.119,1.355,1.355,0,0,1-.6-.35,1.208,1.208,0,0,1-.294-.581,4.373,4.373,0,0,1-.091-.8v-4.27h-1.2Zm4.732,0h1.694l1.414,5.4h.028l1.358-5.4h1.61l1.3,5.4h.028l1.47-5.4h1.624L228.886,0h-1.638L225.9-5.376h-.028L224.546,0h-1.68ZM238.238-1.61a.847.847,0,0,0,.077.42.325.325,0,0,0,.3.126h.168a1.046,1.046,0,0,0,.224-.028V.014q-.084.028-.217.063t-.273.063q-.14.028-.28.042T238,.2a1.539,1.539,0,0,1-.812-.2.976.976,0,0,1-.42-.686,2.823,2.823,0,0,1-1.169.672,4.6,4.6,0,0,1-1.337.21,3.279,3.279,0,0,1-.938-.133,2.461,2.461,0,0,1-.791-.392,1.879,1.879,0,0,1-.546-.658,2.027,2.027,0,0,1-.2-.931,2.15,2.15,0,0,1,.245-1.092,1.815,1.815,0,0,1,.644-.658,2.908,2.908,0,0,1,.9-.343q.5-.105,1-.161a8.19,8.19,0,0,1,.826-.119,3.876,3.876,0,0,0,.693-.119,1.061,1.061,0,0,0,.476-.259.713.713,0,0,0,.175-.525.817.817,0,0,0-.147-.5.987.987,0,0,0-.364-.3,1.573,1.573,0,0,0-.483-.14,3.871,3.871,0,0,0-.5-.035,2,2,0,0,0-1.106.28,1.092,1.092,0,0,0-.49.868h-1.6a2.4,2.4,0,0,1,.336-1.162,2.321,2.321,0,0,1,.749-.742,3.064,3.064,0,0,1,1.029-.392,6.126,6.126,0,0,1,1.176-.112,4.954,4.954,0,0,1,1.05.112,2.982,2.982,0,0,1,.931.364,2.016,2.016,0,0,1,.665.651,1.786,1.786,0,0,1,.252.973Zm-1.6-2.016a1.937,1.937,0,0,1-.9.287q-.532.049-1.064.147a3.411,3.411,0,0,0-.49.119,1.476,1.476,0,0,0-.42.21.922.922,0,0,0-.287.35,1.2,1.2,0,0,0-.1.525.67.67,0,0,0,.154.448,1.119,1.119,0,0,0,.371.287,1.718,1.718,0,0,0,.476.147,2.955,2.955,0,0,0,.469.042,2.6,2.6,0,0,0,.574-.07,1.909,1.909,0,0,0,.581-.238,1.529,1.529,0,0,0,.455-.427,1.08,1.08,0,0,0,.182-.637Zm3.318-3.612h1.5v1.4h.028a1.616,1.616,0,0,1,.273-.574,2.662,2.662,0,0,1,.49-.511,2.476,2.476,0,0,1,.637-.371,1.907,1.907,0,0,1,.714-.14,3.463,3.463,0,0,1,.385.014l.217.028v1.54q-.168-.028-.343-.049a2.878,2.878,0,0,0-.343-.021,1.834,1.834,0,0,0-.763.161,1.752,1.752,0,0,0-.623.476,2.333,2.333,0,0,0-.42.777,3.363,3.363,0,0,0-.154,1.064V0h-1.6Zm9.646,2.982a2.573,2.573,0,0,0-.161-.728,1.94,1.94,0,0,0-.364-.609,1.8,1.8,0,0,0-.56-.42,1.65,1.65,0,0,0-.735-.161,1.918,1.918,0,0,0-.763.147,1.745,1.745,0,0,0-.588.406,2.008,2.008,0,0,0-.392.609,2.125,2.125,0,0,0-.161.756Zm-3.724,1.05a2.78,2.78,0,0,0,.119.812,2,2,0,0,0,.357.686,1.721,1.721,0,0,0,.6.469,1.986,1.986,0,0,0,.868.175,1.917,1.917,0,0,0,1.127-.3,1.779,1.779,0,0,0,.637-.9H251.1a3.009,3.009,0,0,1-.434,1.05,3.02,3.02,0,0,1-.742.777,3.2,3.2,0,0,1-.973.476A3.917,3.917,0,0,1,247.828.2a3.832,3.832,0,0,1-1.512-.28A3.126,3.126,0,0,1,245.2-.868a3.327,3.327,0,0,1-.686-1.2,4.891,4.891,0,0,1-.231-1.54,4.357,4.357,0,0,1,.245-1.463,3.745,3.745,0,0,1,.7-1.218,3.348,3.348,0,0,1,1.1-.833,3.333,3.333,0,0,1,1.456-.308,3.244,3.244,0,0,1,1.533.357,3.364,3.364,0,0,1,1.127.945,3.826,3.826,0,0,1,.651,1.351,4.141,4.141,0,0,1,.105,1.575Z" transform="translate(24.953 29.356)" fill="#fff"/>
      </g>
      <path id="Path_6203" data-name="Path 6203" d="M0,0H12.187l.971,3.609-.971,3.736H0L.858,3.609Z" transform="translate(859.112 272.325) rotate(90)" fill="#094144"/>
      <path id="Path_6531" data-name="Path 6531" d="M0,0H12.187l.971,3.609-.971,3.736H0L.858,3.609Z" transform="translate(890.618 272.325) rotate(90)" fill="#094144"/>
      <path id="Path_6532" data-name="Path 6532" d="M0,0H12.187l.971,3.609-.971,3.736H0L.858,3.609Z" transform="translate(922.741 255.05) rotate(90)" fill="#094144"/>
      <path id="Path_6537" data-name="Path 6537" d="M0,0H12.187l.971,3.609-.971,3.736H0L.858,3.609Z" transform="translate(913.659 342.789) rotate(90)" fill="#fff"/>
      <path id="Path_6540" data-name="Path 6540" d="M0,0H12.187l.971,3.609-.971,3.736H0L.858,3.609Z" transform="translate(913.659 358.415) rotate(90)" fill="#fff"/>
      <path id="Path_6533" data-name="Path 6533" d="M0,0H12.187l.971,3.609-.971,3.736H0L.858,3.609Z" transform="translate(950.428 272.325) rotate(90)" fill="#094144"/>
      <path id="Path_6534" data-name="Path 6534" d="M0,0H12.187l.971,3.609-.971,3.736H0L.858,3.609Z" transform="translate(976.39 272.325) rotate(90)" fill="#094144"/>
      <g transform="matrix(1, 0, 0, 1, 543.73, -292.66)" filter="url(#Path_6611)">
        <path id="Path_6611-2" data-name="Path 6611" d="M28.792,0A28.792,28.792,0,1,1,0,28.792,28.792,28.792,0,0,1,28.792,0Z" transform="translate(339.37 743.35)" fill="#36b37e"/>
      </g>
      <path id="Path_6612" data-name="Path 6612" d="M4.791-2.363,2.211-9.82H.2L3.636-.442H5.92L9.359-9.82h-2ZM10-4.191c0,2.324,1.5,3.87,3.386,3.87A2.936,2.936,0,0,0,15.863-1.53V-.442h1.894V-7.886H15.863v1.061A2.944,2.944,0,0,0,13.4-8.007C11.509-8.007,10-6.515,10-4.191Zm5.858.027a2,2,0,0,1-1.975,2.19,2.034,2.034,0,0,1-1.962-2.217,1.985,1.985,0,0,1,1.962-2.163A2,2,0,0,1,15.863-4.164ZM19.6-.442h1.881v-9.943H19.6ZM30.36-7.886H28.466v4.1c0,1.2-.645,1.841-1.666,1.841a1.61,1.61,0,0,1-1.653-1.841v-4.1H23.266v4.367A2.868,2.868,0,0,0,26.249-.348a2.745,2.745,0,0,0,2.217-1.035v.941H30.36Zm1.37,3.695c0,2.324,1.5,3.87,3.386,3.87A2.936,2.936,0,0,0,37.589-1.53V-.442h1.895V-7.886H37.589v1.061A2.944,2.944,0,0,0,35.13-8.007C33.236-8.007,31.731-6.515,31.731-4.191Zm5.858.027a2,2,0,0,1-1.975,2.19,2.034,2.034,0,0,1-1.962-2.217,1.985,1.985,0,0,1,1.962-2.163A2,2,0,0,1,37.589-4.164ZM43.205-6.8v-3.587H41.324V-.442h1.881V-1.5A2.931,2.931,0,0,0,45.664-.321c1.908,0,3.4-1.545,3.4-3.87s-1.491-3.816-3.4-3.816A2.9,2.9,0,0,0,43.205-6.8Zm3.937,2.607a2.036,2.036,0,0,1-1.975,2.217,2.01,2.01,0,0,1-1.962-2.19,2.01,2.01,0,0,1,1.962-2.19A1.988,1.988,0,0,1,47.142-4.191ZM50.434-.442h1.881v-9.943H50.434Zm6.933-6.019a1.654,1.654,0,0,1,1.774,1.6H55.607A1.729,1.729,0,0,1,57.367-6.461ZM60.9-2.78H58.872a1.534,1.534,0,0,1-1.491.9A1.742,1.742,0,0,1,55.593-3.6h5.442a4.4,4.4,0,0,0,.054-.726,3.5,3.5,0,0,0-3.668-3.682,3.577,3.577,0,0,0-3.735,3.843A3.6,3.6,0,0,0,57.421-.321,3.46,3.46,0,0,0,60.9-2.78ZM65.657-.442h1.881V-7.886H65.657Zm.954-8.33a1.111,1.111,0,0,0,1.156-1.1,1.111,1.111,0,0,0-1.156-1.1,1.1,1.1,0,0,0-1.156,1.1A1.1,1.1,0,0,0,66.611-8.772Zm7.995,8.33h1.881V-4.809a2.863,2.863,0,0,0-2.969-3.184,2.78,2.78,0,0,0-2.244,1.035v-.927H69.392V-.442h1.881V-4.554a1.616,1.616,0,0,1,1.68-1.841,1.61,1.61,0,0,1,1.653,1.841Zm9.446-2.123C84-5.292,79.873-4.446,79.873-5.8c0-.43.363-.712,1.061-.712a1.109,1.109,0,0,1,1.25.967h1.8c-.107-1.478-1.2-2.459-3-2.459-1.841,0-2.943.994-2.943,2.23,0,2.728,4.206,1.881,4.206,3.211,0,.43-.4.766-1.142.766a1.235,1.235,0,0,1-1.344-.994H77.871c.081,1.384,1.384,2.472,3.252,2.472C82.936-.321,84.051-1.289,84.051-2.565ZM85.6-.442h1.881V-7.886H85.6Zm.954-8.33a1.111,1.111,0,0,0,1.156-1.1,1.111,1.111,0,0,0-1.156-1.1,1.1,1.1,0,0,0-1.156,1.1A1.1,1.1,0,0,0,86.55-8.772Zm2.3,4.582c0,2.324,1.5,3.87,3.4,3.87a2.936,2.936,0,0,0,2.459-1.223V-.388a1.741,1.741,0,0,1-1.841,1.975A1.75,1.75,0,0,1,91.038.472H89.17c.188,1.706,1.653,2.754,3.749,2.754A3.4,3.4,0,0,0,96.6-.388v-7.5H94.706v1.061a2.912,2.912,0,0,0-2.459-1.182C90.353-8.007,88.848-6.515,88.848-4.191Zm5.858.027a2,2,0,0,1-1.975,2.19,2.034,2.034,0,0,1-1.962-2.217,1.985,1.985,0,0,1,1.962-2.163A2,2,0,0,1,94.706-4.164ZM98.441-.442h1.881V-4.554A1.616,1.616,0,0,1,102-6.394a1.61,1.61,0,0,1,1.653,1.841V-.442h1.881V-4.809c0-2.056-1.223-3.184-2.9-3.184a2.86,2.86,0,0,0-2.311,1.035v-3.426H98.441Zm9.177-2.311c0,1.706.954,2.311,2.378,2.311h1.182V-2.028h-.873c-.591,0-.793-.215-.793-.712v-3.6h1.666V-7.886h-1.666V-9.726h-1.895v1.841h-.887v1.545h.887Zm10.7.188c-.054-2.728-4.179-1.881-4.179-3.238,0-.43.363-.712,1.061-.712a1.109,1.109,0,0,1,1.25.967h1.8c-.107-1.478-1.2-2.459-3-2.459-1.841,0-2.943.994-2.943,2.23,0,2.728,4.206,1.881,4.206,3.211,0,.43-.4.766-1.142.766a1.235,1.235,0,0,1-1.344-.994h-1.894c.081,1.384,1.384,2.472,3.252,2.472C117.2-.321,118.313-1.289,118.313-2.565Z" transform="translate(845.192 549.999)" fill="#fff"/>
      <g id="wallpaper-24px" transform="translate(898.697 466.283)">
        <path id="Path_6525" data-name="Path 6525" d="M0,0H26.386V26.386H0Z" fill="none"/>
        <path id="Path_6526" data-name="Path 6526" d="M4.2,4.2h7.7V2H4.2A2.205,2.205,0,0,0,2,4.2v7.7H4.2Zm6.6,9.895-4.4,5.5H19.591l-3.3-4.4-2.232,2.979Zm7.7-4.947A1.649,1.649,0,1,0,16.842,10.8,1.647,1.647,0,0,0,18.491,9.146ZM21.789,2h-7.7V4.2h7.7v7.7h2.2V4.2A2.205,2.205,0,0,0,21.789,2Zm0,19.789h-7.7v2.2h7.7a2.205,2.205,0,0,0,2.2-2.2v-7.7h-2.2ZM4.2,14.094H2v7.7a2.205,2.205,0,0,0,2.2,2.2h7.7v-2.2H4.2Z" transform="translate(0.199 0.199)" fill="#fff"/>
      </g>
      <g id="Group_9278" data-name="Group 9278" transform="translate(832.92 362.943)">
        <g id="Group_9273" data-name="Group 9273" transform="translate(0 0)">
          <g id="Group_6994" data-name="Group 6994" transform="translate(0 0)">
            <path id="Path_6638" data-name="Path 6638" d="M8,0H139.295a8,8,0,0,1,8,8V146.81a8,8,0,0,1-8,8H8a8,8,0,0,1-8-8V8A8,8,0,0,1,8,0Z" fill="#fff"/>
          </g>
          <path id="Path_5811" data-name="Path 5811" d="M2.444,0H57.85a2.559,2.559,0,0,1,2.444,2.66V20.394a2.559,2.559,0,0,1-2.444,2.66H2.444A2.559,2.559,0,0,1,0,20.394V2.66A2.559,2.559,0,0,1,2.444,0Z" transform="translate(12.297 122.139)" fill="#edf5fe"/>
          <path id="Path_6431" data-name="Path 6431" d="M8.161-4.335V-10H6.982v5.661a2.512,2.512,0,0,1-.59,1.806,2.273,2.273,0,0,1-1.719.614,2.515,2.515,0,0,1-1.825-.614,2.4,2.4,0,0,1-.633-1.806V-10H1.036v5.661A3.207,3.207,0,0,0,2-1.747a4.02,4.02,0,0,0,2.675.813,3.631,3.631,0,0,0,2.582-.85A3.336,3.336,0,0,0,8.161-4.335ZM10.52-3.156H9.465a2.322,2.322,0,0,0,.248,1.012,1.867,1.867,0,0,0,.6.67,2.5,2.5,0,0,0,.857.366A4.515,4.515,0,0,0,12.183-1a5.214,5.214,0,0,0,.974-.093,2.646,2.646,0,0,0,.881-.329,1.892,1.892,0,0,0,.633-.621,1.788,1.788,0,0,0,.242-.968,1.513,1.513,0,0,0-.18-.77,1.607,1.607,0,0,0-.472-.515,2.53,2.53,0,0,0-.67-.329,7.923,7.923,0,0,0-.776-.211q-.372-.087-.745-.168a4.3,4.3,0,0,1-.67-.2,1.536,1.536,0,0,1-.49-.3.594.594,0,0,1-.192-.453.626.626,0,0,1,.124-.4.888.888,0,0,1,.323-.248,1.609,1.609,0,0,1,.441-.13,3.14,3.14,0,0,1,.478-.037,2.4,2.4,0,0,1,.515.056,1.579,1.579,0,0,1,.466.18,1.057,1.057,0,0,1,.348.329,1.068,1.068,0,0,1,.161.515h1.055a2.357,2.357,0,0,0-.248-.974,1.67,1.67,0,0,0-.565-.621A2.326,2.326,0,0,0,13-7.606,5.067,5.067,0,0,0,12-7.7a3.544,3.544,0,0,0-.85.106,2.565,2.565,0,0,0-.77.323,1.776,1.776,0,0,0-.559.565,1.538,1.538,0,0,0-.217.832,1.4,1.4,0,0,0,.31.968,2.1,2.1,0,0,0,.776.54,5.249,5.249,0,0,0,1.012.3q.546.106,1.012.236a2.641,2.641,0,0,1,.776.341.7.7,0,0,1,.31.621.778.778,0,0,1-.149.49.944.944,0,0,1-.379.292,1.911,1.911,0,0,1-.5.137,3.863,3.863,0,0,1-.521.037,3.127,3.127,0,0,1-.627-.062,1.759,1.759,0,0,1-.546-.2,1.123,1.123,0,0,1-.391-.385A1.188,1.188,0,0,1,10.52-3.156Zm11.247,2A1.492,1.492,0,0,1,21.01-1a.908.908,0,0,1-.652-.23,1,1,0,0,1-.242-.751,2.524,2.524,0,0,1-1.012.751A3.344,3.344,0,0,1,17.856-1a3.342,3.342,0,0,1-.826-.1,1.919,1.919,0,0,1-.677-.31,1.489,1.489,0,0,1-.453-.552,1.859,1.859,0,0,1-.168-.826,1.885,1.885,0,0,1,.186-.894,1.624,1.624,0,0,1,.49-.565,2.247,2.247,0,0,1,.7-.329q.391-.112.8-.186.434-.087.826-.13a4.6,4.6,0,0,0,.689-.124,1.148,1.148,0,0,0,.472-.236.576.576,0,0,0,.174-.453,1.053,1.053,0,0,0-.13-.559.894.894,0,0,0-.335-.323,1.363,1.363,0,0,0-.459-.149,3.469,3.469,0,0,0-.5-.037,2.231,2.231,0,0,0-1.117.254,1.08,1.08,0,0,0-.484.962H15.982a2.279,2.279,0,0,1,.248-1.006,1.882,1.882,0,0,1,.6-.664,2.5,2.5,0,0,1,.85-.366A4.491,4.491,0,0,1,18.7-7.7a6.007,6.007,0,0,1,.863.062,2.255,2.255,0,0,1,.776.254,1.488,1.488,0,0,1,.559.54,1.728,1.728,0,0,1,.211.906v3.3a2.469,2.469,0,0,0,.043.546q.043.174.292.174a1.045,1.045,0,0,0,.323-.062Zm-1.713-3.29a1.313,1.313,0,0,1-.521.217q-.323.068-.677.112t-.714.1a2.624,2.624,0,0,0-.646.18,1.174,1.174,0,0,0-.466.354.991.991,0,0,0-.18.627.858.858,0,0,0,.106.441.88.88,0,0,0,.273.292,1.146,1.146,0,0,0,.391.161,2.17,2.17,0,0,0,.472.05,2.5,2.5,0,0,0,.894-.143,1.88,1.88,0,0,0,.608-.36,1.42,1.42,0,0,0,.348-.472,1.193,1.193,0,0,0,.112-.478ZM22.785-10v8.863H23.84v-.857h.025a1.7,1.7,0,0,0,.428.478,2.256,2.256,0,0,0,.54.3,2.931,2.931,0,0,0,.577.161,3.172,3.172,0,0,0,.528.05,2.98,2.98,0,0,0,1.285-.261,2.575,2.575,0,0,0,.919-.714,3.04,3.04,0,0,0,.546-1.061,4.528,4.528,0,0,0,.18-1.291,4.387,4.387,0,0,0-.186-1.291,3.262,3.262,0,0,0-.552-1.074,2.638,2.638,0,0,0-.919-.739,2.9,2.9,0,0,0-1.3-.273,3.058,3.058,0,0,0-1.229.242,1.58,1.58,0,0,0-.819.776H23.84V-10ZM27.75-4.4a4.222,4.222,0,0,1-.1.919,2.43,2.43,0,0,1-.323.794,1.7,1.7,0,0,1-.59.559,1.8,1.8,0,0,1-.912.211,1.959,1.959,0,0,1-.931-.2,1.807,1.807,0,0,1-.627-.54,2.258,2.258,0,0,1-.354-.776,3.7,3.7,0,0,1-.112-.912,3.722,3.722,0,0,1,.106-.881,2.31,2.31,0,0,1,.341-.776,1.816,1.816,0,0,1,.608-.552,1.812,1.812,0,0,1,.906-.211,1.885,1.885,0,0,1,.888.2,1.764,1.764,0,0,1,.621.534,2.362,2.362,0,0,1,.36.763A3.281,3.281,0,0,1,27.75-4.4ZM31.226-8.7V-10H30.171V-8.7ZM30.171-7.551v6.418h1.055V-7.551ZM32.927-10v8.863h1.055V-10ZM36.738-8.7V-10H35.682V-8.7ZM35.682-7.551v6.418h1.055V-7.551Zm4.159,0V-9.475H38.786v1.924H37.693v.931h1.092v4.084a2.439,2.439,0,0,0,.087.72.875.875,0,0,0,.267.422,1.03,1.03,0,0,0,.472.2,3.789,3.789,0,0,0,.7.056h.807v-.931h-.484a3.519,3.519,0,0,1-.4-.019.521.521,0,0,1-.242-.081.307.307,0,0,1-.118-.174,1.152,1.152,0,0,1-.031-.3V-6.619H41.12v-.931ZM44.806-.276a6.711,6.711,0,0,1-.366.794,2.172,2.172,0,0,1-.4.528,1.348,1.348,0,0,1-.484.3,1.862,1.862,0,0,1-.614.093,2.815,2.815,0,0,1-.372-.025,1.758,1.758,0,0,1-.36-.087V.357a1.772,1.772,0,0,0,.317.106,1.335,1.335,0,0,0,.3.043.905.905,0,0,0,.54-.155A.949.949,0,0,0,43.7-.09l.434-1.08L41.591-7.551h1.192L44.657-2.3h.025l1.8-5.251H47.6Z" transform="translate(18.387 139.232)" fill="#0b5fff"/>
          <path id="Path_5811-2" data-name="Path 5811" d="M3.163,0h71.7a2.945,2.945,0,0,1,3.163,2.66V20.394a2.945,2.945,0,0,1-3.163,2.66H3.163A2.945,2.945,0,0,1,0,20.394V2.66A2.945,2.945,0,0,1,3.163,0Z" transform="translate(12.299 66.544)" fill="#edf5fe"/>
          <path id="Path_6429" data-name="Path 6429" d="M1.711-5.591a5.11,5.11,0,0,1,.174-1.322,3.59,3.59,0,0,1,.546-1.173,2.792,2.792,0,0,1,.956-.838,2.875,2.875,0,0,1,1.39-.317,2.875,2.875,0,0,1,1.39.317,2.792,2.792,0,0,1,.956.838A3.59,3.59,0,0,1,7.67-6.913a5.11,5.11,0,0,1,.174,1.322A5.11,5.11,0,0,1,7.67-4.269,3.59,3.59,0,0,1,7.124-3.1a2.792,2.792,0,0,1-.956.838,2.875,2.875,0,0,1-1.39.317,2.875,2.875,0,0,1-1.39-.317A2.792,2.792,0,0,1,2.431-3.1a3.59,3.59,0,0,1-.546-1.173A5.11,5.11,0,0,1,1.711-5.591Zm-1.179,0A5.712,5.712,0,0,0,.8-3.847a4.4,4.4,0,0,0,.8,1.483A3.842,3.842,0,0,0,2.928-1.34a4.255,4.255,0,0,0,1.85.379,4.255,4.255,0,0,0,1.85-.379A3.842,3.842,0,0,0,7.955-2.364a4.395,4.395,0,0,0,.8-1.483,5.712,5.712,0,0,0,.267-1.744,5.712,5.712,0,0,0-.267-1.744,4.4,4.4,0,0,0-.8-1.483,3.908,3.908,0,0,0-1.328-1.03,4.2,4.2,0,0,0-1.85-.385,4.2,4.2,0,0,0-1.85.385A3.908,3.908,0,0,0,1.6-8.819,4.4,4.4,0,0,0,.8-7.335,5.712,5.712,0,0,0,.532-5.591Zm9.757-1.986V-1.16h1.055V-4.784a2.6,2.6,0,0,1,.118-.8,1.818,1.818,0,0,1,.354-.639,1.571,1.571,0,0,1,.59-.422,2.15,2.15,0,0,1,.838-.149,1.292,1.292,0,0,1,.956.348,1.275,1.275,0,0,1,.348.943V-1.16H15.6V-5.38a3.971,3.971,0,0,0-.106-.95,1.8,1.8,0,0,0-.366-.739,1.735,1.735,0,0,0-.683-.484,2.785,2.785,0,0,0-1.055-.174A2.222,2.222,0,0,0,11.307-6.56h-.025V-7.577Zm6.939-2.445V-1.16h1.055v-.857h.025a1.7,1.7,0,0,0,.428.478,2.256,2.256,0,0,0,.54.3,2.931,2.931,0,0,0,.577.161,3.172,3.172,0,0,0,.528.05,2.98,2.98,0,0,0,1.285-.261A2.575,2.575,0,0,0,22.585-2a3.04,3.04,0,0,0,.546-1.061,4.528,4.528,0,0,0,.18-1.291,4.387,4.387,0,0,0-.186-1.291,3.262,3.262,0,0,0-.552-1.074,2.638,2.638,0,0,0-.919-.739,2.9,2.9,0,0,0-1.3-.273,3.058,3.058,0,0,0-1.229.242,1.58,1.58,0,0,0-.819.776h-.025v-3.314Zm4.965,5.6a4.222,4.222,0,0,1-.1.919,2.43,2.43,0,0,1-.323.794,1.7,1.7,0,0,1-.59.559,1.8,1.8,0,0,1-.912.211,1.959,1.959,0,0,1-.931-.2,1.807,1.807,0,0,1-.627-.54,2.258,2.258,0,0,1-.354-.776,3.7,3.7,0,0,1-.112-.912,3.722,3.722,0,0,1,.106-.881,2.31,2.31,0,0,1,.341-.776,1.816,1.816,0,0,1,.608-.552,1.812,1.812,0,0,1,.906-.211,1.885,1.885,0,0,1,.888.2,1.764,1.764,0,0,1,.621.534,2.362,2.362,0,0,1,.36.763A3.282,3.282,0,0,1,22.194-4.424Zm3.128.062A3.193,3.193,0,0,1,25.477-5.4a2.237,2.237,0,0,1,.428-.763,1.824,1.824,0,0,1,.639-.472,1.9,1.9,0,0,1,.776-.161,1.9,1.9,0,0,1,.776.161,1.824,1.824,0,0,1,.639.472,2.237,2.237,0,0,1,.428.763,3.193,3.193,0,0,1,.155,1.037,3.193,3.193,0,0,1-.155,1.037,2.169,2.169,0,0,1-.428.757A1.858,1.858,0,0,1,28.1-2.1a1.9,1.9,0,0,1-.776.161,1.9,1.9,0,0,1-.776-.161,1.858,1.858,0,0,1-.639-.466,2.169,2.169,0,0,1-.428-.757A3.193,3.193,0,0,1,25.322-4.362Zm-1.117,0a4.216,4.216,0,0,0,.2,1.316A3,3,0,0,0,25-1.985a2.741,2.741,0,0,0,.981.708,3.325,3.325,0,0,0,1.341.254,3.314,3.314,0,0,0,1.347-.254,2.754,2.754,0,0,0,.974-.708,3,3,0,0,0,.6-1.061,4.216,4.216,0,0,0,.2-1.316,4.274,4.274,0,0,0-.2-1.322,3,3,0,0,0-.6-1.068,2.821,2.821,0,0,0-.974-.714,3.246,3.246,0,0,0-1.347-.261,3.256,3.256,0,0,0-1.341.261A2.807,2.807,0,0,0,25-6.752a3,3,0,0,0-.6,1.068A4.274,4.274,0,0,0,24.2-4.362ZM37.363-1.184a1.492,1.492,0,0,1-.757.161.908.908,0,0,1-.652-.23A1,1,0,0,1,35.712-2a2.524,2.524,0,0,1-1.012.751,3.344,3.344,0,0,1-1.248.23,3.342,3.342,0,0,1-.826-.1,1.919,1.919,0,0,1-.677-.31,1.489,1.489,0,0,1-.453-.552,1.859,1.859,0,0,1-.168-.826,1.885,1.885,0,0,1,.186-.894,1.625,1.625,0,0,1,.49-.565,2.247,2.247,0,0,1,.7-.329q.391-.112.8-.186.434-.087.826-.13a4.6,4.6,0,0,0,.689-.124,1.148,1.148,0,0,0,.472-.236.576.576,0,0,0,.174-.453,1.053,1.053,0,0,0-.13-.559.894.894,0,0,0-.335-.323,1.363,1.363,0,0,0-.459-.149,3.469,3.469,0,0,0-.5-.037,2.231,2.231,0,0,0-1.117.254,1.08,1.08,0,0,0-.484.962H31.578a2.279,2.279,0,0,1,.248-1.006,1.882,1.882,0,0,1,.6-.664,2.5,2.5,0,0,1,.85-.366A4.491,4.491,0,0,1,34.3-7.726a6.007,6.007,0,0,1,.863.062,2.255,2.255,0,0,1,.776.254,1.488,1.488,0,0,1,.559.54,1.728,1.728,0,0,1,.211.906v3.3a2.469,2.469,0,0,0,.043.546q.043.174.292.174A1.045,1.045,0,0,0,37.363-2ZM35.65-4.474a1.313,1.313,0,0,1-.521.217q-.323.068-.677.112t-.714.1a2.624,2.624,0,0,0-.646.18,1.174,1.174,0,0,0-.466.354.991.991,0,0,0-.18.627.858.858,0,0,0,.106.441.879.879,0,0,0,.273.292,1.146,1.146,0,0,0,.391.161,2.17,2.17,0,0,0,.472.05,2.5,2.5,0,0,0,.894-.143,1.88,1.88,0,0,0,.608-.36,1.42,1.42,0,0,0,.348-.472,1.193,1.193,0,0,0,.112-.478Zm2.657-3.1V-1.16h1.055V-4.015a4.388,4.388,0,0,1,.124-1.1,2.106,2.106,0,0,1,.4-.813,1.7,1.7,0,0,1,.72-.509,2.984,2.984,0,0,1,1.08-.174V-7.726a2.371,2.371,0,0,0-1.415.348,2.858,2.858,0,0,0-.943,1.154H39.3V-7.577Zm4.717,3.265a4.222,4.222,0,0,1,.1-.919,2.43,2.43,0,0,1,.323-.794,1.68,1.68,0,0,1,.6-.559,1.812,1.812,0,0,1,.906-.211,1.959,1.959,0,0,1,.931.2,1.807,1.807,0,0,1,.627.54,2.258,2.258,0,0,1,.354.776,3.7,3.7,0,0,1,.112.912,3.722,3.722,0,0,1-.106.881,2.31,2.31,0,0,1-.341.776,1.816,1.816,0,0,1-.608.552,1.812,1.812,0,0,1-.906.211,1.885,1.885,0,0,1-.888-.2,1.764,1.764,0,0,1-.621-.534,2.362,2.362,0,0,1-.36-.763A3.282,3.282,0,0,1,43.024-4.313ZM47.989-1.16v-8.863H46.934v3.3h-.025a1.7,1.7,0,0,0-.428-.478,2.433,2.433,0,0,0-.54-.31,2.71,2.71,0,0,0-.571-.168,3.125,3.125,0,0,0-.534-.05,2.921,2.921,0,0,0-1.285.267,2.638,2.638,0,0,0-.919.72,3.04,3.04,0,0,0-.546,1.061,4.528,4.528,0,0,0-.18,1.291A4.387,4.387,0,0,0,42.093-3.1a3.191,3.191,0,0,0,.552,1.068,2.67,2.67,0,0,0,.919.732,2.9,2.9,0,0,0,1.3.273,3.128,3.128,0,0,0,1.229-.236,1.553,1.553,0,0,0,.819-.77h.025v.869Zm2.743-7.572v-1.291H49.678v1.291ZM49.678-7.577V-1.16h1.055V-7.577Zm2.694,0V-1.16h1.055V-4.784a2.6,2.6,0,0,1,.118-.8,1.818,1.818,0,0,1,.354-.639,1.571,1.571,0,0,1,.59-.422,2.15,2.15,0,0,1,.838-.149,1.292,1.292,0,0,1,.956.348,1.275,1.275,0,0,1,.348.943V-1.16h1.055V-5.38a3.971,3.971,0,0,0-.106-.95,1.8,1.8,0,0,0-.366-.739,1.735,1.735,0,0,0-.683-.484,2.785,2.785,0,0,0-1.055-.174A2.222,2.222,0,0,0,53.389-6.56h-.025V-7.577ZM64.81-1.706V-7.577h-.993v.919H63.8a1.878,1.878,0,0,0-.794-.8,2.369,2.369,0,0,0-1.117-.267,2.858,2.858,0,0,0-1.4.317,2.722,2.722,0,0,0-.919.807,3.2,3.2,0,0,0-.5,1.092,4.876,4.876,0,0,0-.149,1.173,4.25,4.25,0,0,0,.18,1.248,2.987,2.987,0,0,0,.54,1.03,2.624,2.624,0,0,0,.894.7,2.827,2.827,0,0,0,1.254.261,2.565,2.565,0,0,0,1.173-.279,1.774,1.774,0,0,0,.826-.875h.025v.422a4.268,4.268,0,0,1-.106.981,2.049,2.049,0,0,1-.341.763,1.655,1.655,0,0,1-.6.5,1.957,1.957,0,0,1-.881.18,2.846,2.846,0,0,1-.546-.056,1.985,1.985,0,0,1-.528-.18,1.313,1.313,0,0,1-.41-.323.781.781,0,0,1-.18-.484H59.174a1.659,1.659,0,0,0,.273.881,1.966,1.966,0,0,0,.627.583,2.8,2.8,0,0,0,.844.323,4.366,4.366,0,0,0,.912.1A2.933,2.933,0,0,0,64.09.653,3.38,3.38,0,0,0,64.81-1.706Zm-2.954-.31a1.611,1.611,0,0,1-.869-.217,1.677,1.677,0,0,1-.559-.571,2.472,2.472,0,0,1-.3-.788,4.421,4.421,0,0,1-.087-.869,3.621,3.621,0,0,1,.106-.881,2.184,2.184,0,0,1,.335-.745,1.69,1.69,0,0,1,.59-.515,1.821,1.821,0,0,1,.869-.192,1.676,1.676,0,0,1,.844.2,1.644,1.644,0,0,1,.565.528,2.32,2.32,0,0,1,.317.739,3.517,3.517,0,0,1,.1.832,3.878,3.878,0,0,1-.106.894,2.61,2.61,0,0,1-.329.8,1.731,1.731,0,0,1-.59.571A1.71,1.71,0,0,1,61.855-2.016Z" transform="translate(18.445 83.664)" fill="#0b5fff"/>
          <path id="Path_5811-3" data-name="Path 5811" d="M4.421,0h100.22c2.442,0,4.421,1.191,4.421,2.66V20.394c0,1.469-1.98,2.66-4.421,2.66H4.421C1.98,23.054,0,21.863,0,20.394V2.66C0,1.191,1.98,0,4.421,0Z" transform="translate(12.297 38.382)" fill="#edf5fe"/>
          <path id="Path_6428" data-name="Path 6428" d="M2.486-4.807l1.5-4.134h.025L5.49-4.807Zm.881-5.2L-.084-1.145h1.2l.993-2.669H5.862L6.83-1.145h1.3L4.67-10.009Zm5.5,2.445V1.3H9.921V-2h.025a1.7,1.7,0,0,0,.428.478,2.256,2.256,0,0,0,.54.3,2.931,2.931,0,0,0,.577.161,3.172,3.172,0,0,0,.528.05A2.98,2.98,0,0,0,13.3-1.27a2.575,2.575,0,0,0,.919-.714,3.039,3.039,0,0,0,.546-1.061,4.528,4.528,0,0,0,.18-1.291,4.387,4.387,0,0,0-.186-1.291A3.262,3.262,0,0,0,14.21-6.7a2.638,2.638,0,0,0-.919-.739,2.9,2.9,0,0,0-1.3-.273,3.058,3.058,0,0,0-1.229.242,1.58,1.58,0,0,0-.819.776H9.921v-.869ZM13.832-4.41a4.222,4.222,0,0,1-.1.919,2.43,2.43,0,0,1-.323.794,1.7,1.7,0,0,1-.59.559,1.8,1.8,0,0,1-.912.211,1.959,1.959,0,0,1-.931-.2,1.807,1.807,0,0,1-.627-.54A2.258,2.258,0,0,1,10-3.448a3.7,3.7,0,0,1-.112-.912,3.721,3.721,0,0,1,.106-.881,2.31,2.31,0,0,1,.341-.776,1.816,1.816,0,0,1,.608-.552,1.812,1.812,0,0,1,.906-.211,1.885,1.885,0,0,1,.888.2,1.764,1.764,0,0,1,.621.534,2.362,2.362,0,0,1,.36.763A3.282,3.282,0,0,1,13.832-4.41Zm2.4-3.153V1.3h1.055V-2h.025a1.7,1.7,0,0,0,.428.478,2.256,2.256,0,0,0,.54.3,2.931,2.931,0,0,0,.577.161,3.172,3.172,0,0,0,.528.05,2.98,2.98,0,0,0,1.285-.261,2.575,2.575,0,0,0,.919-.714,3.04,3.04,0,0,0,.546-1.061,4.528,4.528,0,0,0,.18-1.291,4.387,4.387,0,0,0-.186-1.291A3.262,3.262,0,0,0,21.572-6.7a2.638,2.638,0,0,0-.919-.739,2.9,2.9,0,0,0-1.3-.273,3.058,3.058,0,0,0-1.229.242,1.58,1.58,0,0,0-.819.776h-.025v-.869ZM21.193-4.41a4.222,4.222,0,0,1-.1.919,2.43,2.43,0,0,1-.323.794,1.7,1.7,0,0,1-.59.559,1.8,1.8,0,0,1-.912.211,1.959,1.959,0,0,1-.931-.2,1.807,1.807,0,0,1-.627-.54,2.258,2.258,0,0,1-.354-.776,3.7,3.7,0,0,1-.112-.912,3.722,3.722,0,0,1,.106-.881,2.31,2.31,0,0,1,.341-.776A1.816,1.816,0,0,1,18.3-6.57a1.812,1.812,0,0,1,.906-.211,1.885,1.885,0,0,1,.888.2,1.764,1.764,0,0,1,.621.534,2.362,2.362,0,0,1,.36.763A3.282,3.282,0,0,1,21.193-4.41ZM27.04-7.563V1.3h1.055V-2h.025a1.7,1.7,0,0,0,.428.478,2.256,2.256,0,0,0,.54.3,2.93,2.93,0,0,0,.577.161,3.172,3.172,0,0,0,.528.05,2.98,2.98,0,0,0,1.285-.261,2.575,2.575,0,0,0,.919-.714,3.04,3.04,0,0,0,.546-1.061,4.527,4.527,0,0,0,.18-1.291,4.387,4.387,0,0,0-.186-1.291A3.262,3.262,0,0,0,32.384-6.7a2.638,2.638,0,0,0-.919-.739,2.9,2.9,0,0,0-1.3-.273,3.058,3.058,0,0,0-1.229.242,1.58,1.58,0,0,0-.819.776h-.025v-.869ZM32.005-4.41a4.222,4.222,0,0,1-.1.919,2.43,2.43,0,0,1-.323.794,1.7,1.7,0,0,1-.59.559,1.8,1.8,0,0,1-.912.211,1.959,1.959,0,0,1-.931-.2,1.807,1.807,0,0,1-.627-.54,2.258,2.258,0,0,1-.354-.776,3.7,3.7,0,0,1-.112-.912,3.721,3.721,0,0,1,.106-.881,2.31,2.31,0,0,1,.341-.776,1.816,1.816,0,0,1,.608-.552,1.812,1.812,0,0,1,.906-.211,1.885,1.885,0,0,1,.888.2,1.764,1.764,0,0,1,.621.534,2.362,2.362,0,0,1,.36.763A3.281,3.281,0,0,1,32.005-4.41Zm6.815-.559H35.133a2.2,2.2,0,0,1,.161-.7,1.871,1.871,0,0,1,.372-.577,1.706,1.706,0,0,1,.565-.391,1.837,1.837,0,0,1,.739-.143,1.805,1.805,0,0,1,.726.143,1.827,1.827,0,0,1,.571.385,1.809,1.809,0,0,1,.385.577A2.159,2.159,0,0,1,38.82-4.969Zm1.018,1.788H38.8a1.5,1.5,0,0,1-.565.943,1.826,1.826,0,0,1-1.1.31,2.186,2.186,0,0,1-.906-.174,1.776,1.776,0,0,1-.633-.466,1.813,1.813,0,0,1-.36-.67,2.547,2.547,0,0,1-.1-.8h4.8a5.11,5.11,0,0,0-.106-1.229,3.558,3.558,0,0,0-.472-1.192,2.811,2.811,0,0,0-.906-.9,2.633,2.633,0,0,0-1.421-.354,2.918,2.918,0,0,0-1.21.248,2.845,2.845,0,0,0-.956.7,3.2,3.2,0,0,0-.627,1.055,3.862,3.862,0,0,0-.223,1.341,5.145,5.145,0,0,0,.217,1.353,2.953,2.953,0,0,0,.577,1.068,2.631,2.631,0,0,0,.95.7,3.3,3.3,0,0,0,1.334.248,2.913,2.913,0,0,0,1.812-.546A2.565,2.565,0,0,0,39.838-3.181Zm1.154-4.382v6.418h1.055V-4a4.388,4.388,0,0,1,.124-1.1,2.106,2.106,0,0,1,.4-.813,1.7,1.7,0,0,1,.72-.509,2.984,2.984,0,0,1,1.08-.174V-7.712a2.371,2.371,0,0,0-1.415.348,2.858,2.858,0,0,0-.943,1.154h-.025V-7.563Zm4.605.931v5.487h1.055V-6.632h1.241v-.931H46.653v-.894a.657.657,0,0,1,.211-.571,1.023,1.023,0,0,1,.6-.149,2.613,2.613,0,0,1,.3.019,1.308,1.308,0,0,1,.3.068v-.919a1.82,1.82,0,0,0-.341-.074,2.7,2.7,0,0,0-.341-.025,1.929,1.929,0,0,0-1.322.4A1.5,1.5,0,0,0,45.6-8.519v.956h-1.08v.931Zm4.01,2.284a3.193,3.193,0,0,1,.155-1.037,2.237,2.237,0,0,1,.428-.763,1.824,1.824,0,0,1,.639-.472,1.9,1.9,0,0,1,.776-.161,1.9,1.9,0,0,1,.776.161,1.824,1.824,0,0,1,.639.472,2.237,2.237,0,0,1,.428.763A3.193,3.193,0,0,1,53.6-4.348a3.193,3.193,0,0,1-.155,1.037,2.169,2.169,0,0,1-.428.757,1.858,1.858,0,0,1-.639.466,1.9,1.9,0,0,1-.776.161,1.9,1.9,0,0,1-.776-.161,1.858,1.858,0,0,1-.639-.466,2.169,2.169,0,0,1-.428-.757A3.193,3.193,0,0,1,49.608-4.348Zm-1.117,0a4.216,4.216,0,0,0,.2,1.316,3,3,0,0,0,.6,1.061,2.741,2.741,0,0,0,.981.708,3.325,3.325,0,0,0,1.341.254,3.314,3.314,0,0,0,1.347-.254,2.754,2.754,0,0,0,.974-.708,3,3,0,0,0,.6-1.061,4.216,4.216,0,0,0,.2-1.316,4.274,4.274,0,0,0-.2-1.322,3,3,0,0,0-.6-1.068,2.821,2.821,0,0,0-.974-.714,3.246,3.246,0,0,0-1.347-.261,3.257,3.257,0,0,0-1.341.261,2.807,2.807,0,0,0-.981.714,3,3,0,0,0-.6,1.068A4.275,4.275,0,0,0,48.49-4.348Zm7.436-3.215v6.418h1.055V-4a4.388,4.388,0,0,1,.124-1.1,2.106,2.106,0,0,1,.4-.813,1.7,1.7,0,0,1,.72-.509,2.984,2.984,0,0,1,1.08-.174V-7.712a2.371,2.371,0,0,0-1.415.348,2.858,2.858,0,0,0-.943,1.154h-.025V-7.563Zm4.171,0v6.418h1.055v-4a1.532,1.532,0,0,1,.093-.466,1.792,1.792,0,0,1,.3-.54,1.786,1.786,0,0,1,.534-.447,1.576,1.576,0,0,1,.788-.186,1.419,1.419,0,0,1,.59.106.9.9,0,0,1,.366.3,1.212,1.212,0,0,1,.192.453,2.727,2.727,0,0,1,.056.571v4.208h1.055v-4a1.611,1.611,0,0,1,.447-1.192A1.661,1.661,0,0,1,66.8-6.781a1.5,1.5,0,0,1,.627.112.929.929,0,0,1,.379.3,1.141,1.141,0,0,1,.186.453,2.985,2.985,0,0,1,.05.559v4.208H69.1v-4.7a2.109,2.109,0,0,0-.155-.85,1.491,1.491,0,0,0-.434-.577,1.815,1.815,0,0,0-.67-.329,3.36,3.36,0,0,0-.875-.106,2.4,2.4,0,0,0-1.161.286,2.241,2.241,0,0,0-.85.807,1.391,1.391,0,0,0-.683-.844,2.332,2.332,0,0,0-1.08-.248A2.334,2.334,0,0,0,61.115-6.62H61.09v-.943ZM76.371-1.17a1.492,1.492,0,0,1-.757.161.908.908,0,0,1-.652-.23,1,1,0,0,1-.242-.751,2.524,2.524,0,0,1-1.012.751,3.344,3.344,0,0,1-1.248.23,3.342,3.342,0,0,1-.826-.1,1.919,1.919,0,0,1-.677-.31,1.489,1.489,0,0,1-.453-.552,1.859,1.859,0,0,1-.168-.826,1.885,1.885,0,0,1,.186-.894,1.625,1.625,0,0,1,.49-.565,2.247,2.247,0,0,1,.7-.329q.391-.112.8-.186.434-.087.826-.13a4.6,4.6,0,0,0,.689-.124A1.148,1.148,0,0,0,74.5-5.26a.576.576,0,0,0,.174-.453,1.053,1.053,0,0,0-.13-.559.894.894,0,0,0-.335-.323,1.363,1.363,0,0,0-.459-.149,3.469,3.469,0,0,0-.5-.037,2.231,2.231,0,0,0-1.117.254,1.08,1.08,0,0,0-.484.962H70.587a2.279,2.279,0,0,1,.248-1.006,1.882,1.882,0,0,1,.6-.664,2.5,2.5,0,0,1,.85-.366,4.491,4.491,0,0,1,1.024-.112,6.007,6.007,0,0,1,.863.062,2.255,2.255,0,0,1,.776.254,1.488,1.488,0,0,1,.559.54,1.728,1.728,0,0,1,.211.906v3.3a2.47,2.47,0,0,0,.043.546q.043.174.292.174a1.045,1.045,0,0,0,.323-.062ZM74.658-4.46a1.313,1.313,0,0,1-.521.217q-.323.068-.677.112t-.714.1a2.624,2.624,0,0,0-.646.18,1.174,1.174,0,0,0-.466.354.991.991,0,0,0-.18.627.858.858,0,0,0,.106.441.88.88,0,0,0,.273.292,1.146,1.146,0,0,0,.391.161,2.17,2.17,0,0,0,.472.05,2.5,2.5,0,0,0,.894-.143,1.88,1.88,0,0,0,.608-.36,1.42,1.42,0,0,0,.348-.472,1.193,1.193,0,0,0,.112-.478Zm2.694-3.1v6.418h1.055V-4.77a2.6,2.6,0,0,1,.118-.8,1.818,1.818,0,0,1,.354-.639,1.571,1.571,0,0,1,.59-.422,2.15,2.15,0,0,1,.838-.149,1.292,1.292,0,0,1,.956.348,1.275,1.275,0,0,1,.348.943v4.345h1.055V-5.366a3.971,3.971,0,0,0-.106-.95,1.8,1.8,0,0,0-.366-.739,1.735,1.735,0,0,0-.683-.484,2.785,2.785,0,0,0-1.055-.174A2.222,2.222,0,0,0,78.37-6.545h-.025V-7.563ZM88.611-5.5H89.7a2.536,2.536,0,0,0-.3-.987,2.2,2.2,0,0,0-.6-.689,2.494,2.494,0,0,0-.844-.4,3.879,3.879,0,0,0-1.024-.13,3.107,3.107,0,0,0-1.328.267,2.651,2.651,0,0,0-.95.732,3.115,3.115,0,0,0-.565,1.092,4.709,4.709,0,0,0-.186,1.347A4.324,4.324,0,0,0,84.1-2.952a2.9,2.9,0,0,0,.571,1.037,2.516,2.516,0,0,0,.943.67,3.343,3.343,0,0,0,1.3.236,2.788,2.788,0,0,0,1.943-.646,2.956,2.956,0,0,0,.888-1.837h-1.08a1.85,1.85,0,0,1-.54,1.154,1.727,1.727,0,0,1-1.223.41,1.747,1.747,0,0,1-.857-.2,1.667,1.667,0,0,1-.583-.528,2.329,2.329,0,0,1-.329-.751,3.569,3.569,0,0,1-.106-.869,4.365,4.365,0,0,1,.1-.937,2.35,2.35,0,0,1,.329-.8,1.7,1.7,0,0,1,.614-.559,1.967,1.967,0,0,1,.956-.211,1.6,1.6,0,0,1,1.068.335A1.608,1.608,0,0,1,88.611-5.5Zm6.765.534H91.69a2.2,2.2,0,0,1,.161-.7,1.871,1.871,0,0,1,.372-.577,1.706,1.706,0,0,1,.565-.391,1.837,1.837,0,0,1,.739-.143,1.805,1.805,0,0,1,.726.143,1.827,1.827,0,0,1,.571.385,1.808,1.808,0,0,1,.385.577A2.16,2.16,0,0,1,95.377-4.969Zm1.018,1.788H95.352a1.5,1.5,0,0,1-.565.943,1.826,1.826,0,0,1-1.1.31,2.186,2.186,0,0,1-.906-.174,1.776,1.776,0,0,1-.633-.466,1.814,1.814,0,0,1-.36-.67,2.547,2.547,0,0,1-.1-.8h4.8a5.11,5.11,0,0,0-.106-1.229,3.557,3.557,0,0,0-.472-1.192,2.811,2.811,0,0,0-.906-.9,2.633,2.633,0,0,0-1.421-.354,2.918,2.918,0,0,0-1.21.248,2.845,2.845,0,0,0-.956.7A3.2,3.2,0,0,0,90.8-5.714a3.862,3.862,0,0,0-.223,1.341A5.144,5.144,0,0,0,90.79-3.02a2.953,2.953,0,0,0,.577,1.068,2.631,2.631,0,0,0,.95.7,3.3,3.3,0,0,0,1.334.248,2.913,2.913,0,0,0,1.812-.546A2.565,2.565,0,0,0,96.395-3.181Z" transform="translate(18.513 55.488)" fill="#0b5fff"/>
          <path id="Path_5811-4" data-name="Path 5811" d="M1.654,0H39.134c.913,0,1.654,1.191,1.654,2.66V20.394c0,1.469-.74,2.66-1.654,2.66H1.654C.74,23.054,0,21.863,0,20.394V2.66C0,1.191.74,0,1.654,0Z" transform="translate(12.299 94.506)" fill="#edf5fe"/>
          <path id="Path_6430" data-name="Path 6430" d="M2.271-6.185V-9H4.63a5.759,5.759,0,0,1,.726.043,1.611,1.611,0,0,1,.6.192,1.059,1.059,0,0,1,.41.422,1.564,1.564,0,0,1,.149.745,1.28,1.28,0,0,1-.441,1.061,2.325,2.325,0,0,1-1.446.354ZM1.092-10v8.863H5.375A2.9,2.9,0,0,0,6.535-1.35a2.575,2.575,0,0,0,.844-.571,2.364,2.364,0,0,0,.515-.813,2.645,2.645,0,0,0,.174-.943,2.229,2.229,0,0,0-.434-1.39A2.04,2.04,0,0,0,6.38-5.813v-.025A2.012,2.012,0,0,0,7.355-6.6,2.162,2.162,0,0,0,7.7-7.824a2,2,0,0,0-.3-1.13,2.309,2.309,0,0,0-.739-.72,1.517,1.517,0,0,0-.478-.186,4.974,4.974,0,0,0-.6-.093q-.323-.031-.652-.037T4.307-10Zm1.179,7.87V-5.192H4.965a3.728,3.728,0,0,1,.72.068,1.794,1.794,0,0,1,.614.236,1.252,1.252,0,0,1,.428.453,1.448,1.448,0,0,1,.161.72,1.539,1.539,0,0,1-.441,1.167,1.7,1.7,0,0,1-1.223.422Zm12.463.993V-7.551H13.679v3.625a2.6,2.6,0,0,1-.118.8,1.818,1.818,0,0,1-.354.639,1.571,1.571,0,0,1-.59.422,2.15,2.15,0,0,1-.838.149,1.292,1.292,0,0,1-.956-.348,1.275,1.275,0,0,1-.348-.943V-7.551H9.422V-3.33a3.972,3.972,0,0,0,.106.95,1.8,1.8,0,0,0,.366.739,1.682,1.682,0,0,0,.683.478A2.878,2.878,0,0,0,11.631-1a2.566,2.566,0,0,0,1.229-.279,2.156,2.156,0,0,0,.857-.875h.025v1.018Zm7.125-.546V-7.551h-.993v.919h-.012a1.878,1.878,0,0,0-.794-.8A2.369,2.369,0,0,0,18.943-7.7a2.858,2.858,0,0,0-1.4.317,2.722,2.722,0,0,0-.919.807,3.2,3.2,0,0,0-.5,1.092,4.876,4.876,0,0,0-.149,1.173,4.25,4.25,0,0,0,.18,1.248,2.987,2.987,0,0,0,.54,1.03,2.624,2.624,0,0,0,.894.7,2.827,2.827,0,0,0,1.254.261,2.565,2.565,0,0,0,1.173-.279,1.774,1.774,0,0,0,.826-.875h.025V-1.8a4.267,4.267,0,0,1-.106.981,2.049,2.049,0,0,1-.341.763,1.654,1.654,0,0,1-.6.5,1.957,1.957,0,0,1-.881.18A2.846,2.846,0,0,1,18.4.562a1.985,1.985,0,0,1-.528-.18,1.313,1.313,0,0,1-.41-.323.781.781,0,0,1-.18-.484H16.224A1.659,1.659,0,0,0,16.5.456a1.966,1.966,0,0,0,.627.583,2.8,2.8,0,0,0,.844.323,4.366,4.366,0,0,0,.912.1A2.933,2.933,0,0,0,21.14.68,3.38,3.38,0,0,0,21.86-1.679Zm-2.954-.31a1.611,1.611,0,0,1-.869-.217,1.676,1.676,0,0,1-.559-.571,2.472,2.472,0,0,1-.3-.788,4.421,4.421,0,0,1-.087-.869,3.621,3.621,0,0,1,.106-.881,2.185,2.185,0,0,1,.335-.745,1.69,1.69,0,0,1,.59-.515,1.821,1.821,0,0,1,.869-.192,1.676,1.676,0,0,1,.844.2,1.644,1.644,0,0,1,.565.528,2.32,2.32,0,0,1,.317.739,3.518,3.518,0,0,1,.1.832,3.878,3.878,0,0,1-.106.894,2.61,2.61,0,0,1-.329.8,1.731,1.731,0,0,1-.59.571A1.71,1.71,0,0,1,18.906-1.989Zm5.189-1.167H23.039a2.322,2.322,0,0,0,.248,1.012,1.867,1.867,0,0,0,.6.67,2.5,2.5,0,0,0,.857.366A4.515,4.515,0,0,0,25.758-1a5.214,5.214,0,0,0,.974-.093,2.646,2.646,0,0,0,.881-.329,1.892,1.892,0,0,0,.633-.621,1.788,1.788,0,0,0,.242-.968,1.513,1.513,0,0,0-.18-.77,1.607,1.607,0,0,0-.472-.515,2.53,2.53,0,0,0-.67-.329,7.923,7.923,0,0,0-.776-.211q-.372-.087-.745-.168a4.3,4.3,0,0,1-.67-.2,1.536,1.536,0,0,1-.49-.3.594.594,0,0,1-.192-.453.626.626,0,0,1,.124-.4A.888.888,0,0,1,24.74-6.6a1.609,1.609,0,0,1,.441-.13,3.14,3.14,0,0,1,.478-.037,2.4,2.4,0,0,1,.515.056,1.579,1.579,0,0,1,.466.18,1.057,1.057,0,0,1,.348.329,1.068,1.068,0,0,1,.161.515H28.2a2.357,2.357,0,0,0-.248-.974,1.67,1.67,0,0,0-.565-.621,2.326,2.326,0,0,0-.813-.323A5.067,5.067,0,0,0,25.572-7.7a3.544,3.544,0,0,0-.85.106,2.565,2.565,0,0,0-.77.323,1.776,1.776,0,0,0-.559.565,1.538,1.538,0,0,0-.217.832,1.4,1.4,0,0,0,.31.968,2.094,2.094,0,0,0,.776.54,5.249,5.249,0,0,0,1.012.3q.546.106,1.012.236a2.641,2.641,0,0,1,.776.341.7.7,0,0,1,.31.621.778.778,0,0,1-.149.49.944.944,0,0,1-.379.292,1.911,1.911,0,0,1-.5.137,3.863,3.863,0,0,1-.521.037,3.127,3.127,0,0,1-.627-.062,1.759,1.759,0,0,1-.546-.2,1.123,1.123,0,0,1-.391-.385A1.188,1.188,0,0,1,24.094-3.156Z" transform="translate(18.382 111.599)" fill="#0b5fff"/>
        </g>
        <path id="Path_6727" data-name="Path 6727" d="M.352-6.435H2.4V0h1.54V-6.435H5.984V-7.678H.352ZM12.991-3.047A3.011,3.011,0,0,0,9.856-6.193,3.011,3.011,0,0,0,6.721-3.047,2.983,2.983,0,0,0,9.812.1,3.047,3.047,0,0,0,12.991-3.047Zm-4.708,0a1.586,1.586,0,0,1,1.551-1.8,1.6,1.6,0,0,1,1.573,1.8,1.622,1.622,0,0,1-1.595,1.8C8.987-1.243,8.283-1.837,8.283-3.047Zm7.381-2.167v-.88h-1.54v9h1.54V-.869A2.488,2.488,0,0,0,17.677.1,2.887,2.887,0,0,0,20.46-3.069a2.847,2.847,0,0,0-2.783-3.124A2.434,2.434,0,0,0,15.664-5.214Zm3.223,2.145A1.667,1.667,0,0,1,17.27-1.254a1.645,1.645,0,0,1-1.606-1.793A1.645,1.645,0,0,1,17.27-4.84,1.627,1.627,0,0,1,18.887-3.069Zm4.906-3.366h2.046V0h1.54V-6.435h2.046V-7.678H23.793Zm8.294,3.4c0-1.177.55-1.529,1.463-1.529h.407V-6.182a2.114,2.114,0,0,0-1.87,1.034v-.946h-1.54V0h1.54Zm5.522-1.892a1.354,1.354,0,0,1,1.452,1.309H36.168A1.415,1.415,0,0,1,37.609-4.928ZM40.5-1.914H38.841a1.256,1.256,0,0,1-1.221.737,1.426,1.426,0,0,1-1.463-1.408h4.455a3.6,3.6,0,0,0,.044-.594,2.861,2.861,0,0,0-3-3.014,2.928,2.928,0,0,0-3.058,3.146A2.951,2.951,0,0,0,37.653.1,2.832,2.832,0,0,0,40.5-1.914ZM46.046,0h1.54V-3.575a2.344,2.344,0,0,0-2.431-2.607,2.276,2.276,0,0,0-1.837.847v-.759h-1.54V0h1.54V-3.366a1.323,1.323,0,0,1,1.375-1.507,1.318,1.318,0,0,1,1.353,1.507Zm2.607-3.069A2.893,2.893,0,0,0,51.436.1a2.3,2.3,0,0,0,2-1V0H55V-8.14H53.438v2.893a2.5,2.5,0,0,0-1.991-.946A2.855,2.855,0,0,0,48.653-3.069Zm4.8.022a1.641,1.641,0,0,1-1.617,1.793,1.665,1.665,0,0,1-1.606-1.815A1.625,1.625,0,0,1,51.832-4.84,1.641,1.641,0,0,1,53.449-3.047ZM56.507,0h1.54V-6.094h-1.54Zm.781-6.82a.91.91,0,0,0,.946-.9.91.91,0,0,0-.946-.9.9.9,0,0,0-.946.9A.9.9,0,0,0,57.288-6.82ZM63.833,0h1.54V-3.575a2.344,2.344,0,0,0-2.431-2.607,2.276,2.276,0,0,0-1.837.847v-.759h-1.54V0H61.1V-3.366A1.323,1.323,0,0,1,62.48-4.873a1.318,1.318,0,0,1,1.353,1.507ZM66.44-3.069A2.893,2.893,0,0,0,69.223.1a2.4,2.4,0,0,0,2.013-1V.044a1.574,1.574,0,0,1-3,.7H66.7C66.858,2.145,68.057,3,69.773,3A2.785,2.785,0,0,0,72.787.044V-6.094H71.236v.869a2.384,2.384,0,0,0-2.013-.968A2.854,2.854,0,0,0,66.44-3.069Zm4.8.022a1.641,1.641,0,0,1-1.617,1.793,1.665,1.665,0,0,1-1.606-1.815A1.625,1.625,0,0,1,69.619-4.84,1.641,1.641,0,0,1,71.236-3.047Zm5.918,1.155C77.154-.5,77.935,0,79.1,0h.968V-1.3h-.715c-.484,0-.649-.176-.649-.583V-4.829h1.364V-6.094H78.705V-7.6H77.154v1.507h-.726v1.265h.726Zm9.911-1.155A3.011,3.011,0,0,0,83.93-6.193a3.011,3.011,0,0,0-3.135,3.146A2.983,2.983,0,0,0,83.886.1,3.047,3.047,0,0,0,87.065-3.047Zm-4.708,0a1.586,1.586,0,0,1,1.551-1.8,1.6,1.6,0,0,1,1.573,1.8,1.622,1.622,0,0,1-1.6,1.8C83.061-1.243,82.357-1.837,82.357-3.047Zm7.381-2.167v-.88H88.2v9h1.54V-.869A2.488,2.488,0,0,0,91.751.1a2.887,2.887,0,0,0,2.783-3.168,2.847,2.847,0,0,0-2.783-3.124A2.434,2.434,0,0,0,89.738-5.214Zm3.223,2.145a1.667,1.667,0,0,1-1.617,1.815,1.645,1.645,0,0,1-1.606-1.793A1.645,1.645,0,0,1,91.344-4.84,1.627,1.627,0,0,1,92.961-3.069ZM95.656,0H97.2V-6.094h-1.54Zm.781-6.82a.91.91,0,0,0,.946-.9.91.91,0,0,0-.946-.9.9.9,0,0,0-.946.9A.9.9,0,0,0,96.437-6.82Zm1.881,3.773A2.923,2.923,0,0,0,101.332.1,2.78,2.78,0,0,0,104.2-2.057h-1.661a1.162,1.162,0,0,1-1.221.836c-.858,0-1.43-.638-1.43-1.826s.572-1.837,1.43-1.837a1.2,1.2,0,0,1,1.221.847H104.2a2.719,2.719,0,0,0-2.871-2.156A2.923,2.923,0,0,0,98.318-3.047Zm11.748,1.309c-.044-2.233-3.421-1.54-3.421-2.651,0-.352.3-.583.869-.583a.908.908,0,0,1,1.023.792h1.474a2.183,2.183,0,0,0-2.453-2.013c-1.507,0-2.409.814-2.409,1.826,0,2.233,3.443,1.54,3.443,2.629,0,.352-.33.627-.935.627a1.011,1.011,0,0,1-1.1-.814h-1.551A2.4,2.4,0,0,0,107.668.1C109.153.1,110.066-.693,110.066-1.738Z" transform="translate(11.639 23.713)" fill="#375674"/>
      </g>
      <g id="Group_9279" data-name="Group 9279" transform="translate(962.554 350.569)">
        <g transform="matrix(1, 0, 0, 1, -418.83, -643.23)" filter="url(#Rectangle_4178)">
          <rect id="Rectangle_4178-2" data-name="Rectangle 4178" width="35.32" height="35.32" rx="17.66" transform="translate(418.83 643.23)" fill="#36b37e"/>
        </g>
        <g id="description-24px-2" data-name="description-24px" transform="translate(9.904 10.091)">
          <path id="Path_6521-2" data-name="Path 6521" d="M0,0H15.511V15.511H0Z" fill="none"/>
          <path id="Path_6522-2" data-name="Path 6522" d="M10.463,2H5.293A1.291,1.291,0,0,0,4.006,3.293L4,13.633a1.291,1.291,0,0,0,1.286,1.293h7.762a1.3,1.3,0,0,0,1.293-1.293V5.878Zm1.293,10.341H6.585V11.048h5.17Zm0-2.585H6.585V8.463h5.17ZM9.817,6.524V2.969l3.555,3.555Z" transform="translate(-1.415 -0.707)" fill="#fff"/>
        </g>
      </g>
      <path id="whatsapp_7_" data-name="whatsapp (7)" d="M24.5,4.146A14.139,14.139,0,0,0,2.255,21.2L.25,28.526l7.494-1.966A14.12,14.12,0,0,0,14.5,28.281H14.5a14.142,14.142,0,0,0,10-24.136Zm-10,21.748h0a11.734,11.734,0,0,1-5.98-1.638L8.091,24,3.644,25.168l1.187-4.336-.279-.445A11.749,11.749,0,1,1,14.5,25.894Zm6.445-8.8c-.353-.177-2.09-1.031-2.414-1.149s-.559-.177-.794.177-.912,1.149-1.118,1.385-.412.265-.765.088a9.647,9.647,0,0,1-2.84-1.753A10.654,10.654,0,0,1,11.052,13.4c-.206-.354,0-.527.155-.721a9.991,9.991,0,0,0,.883-1.208.65.65,0,0,0-.03-.619c-.088-.177-.794-1.915-1.089-2.623-.287-.688-.578-.6-.795-.606s-.441-.012-.677-.012a1.3,1.3,0,0,0-.942.442A3.961,3.961,0,0,0,7.322,11a6.871,6.871,0,0,0,1.442,3.654A15.744,15.744,0,0,0,14.8,19.982a20.217,20.217,0,0,0,2.014.744,4.842,4.842,0,0,0,2.225.14,3.639,3.639,0,0,0,2.384-1.679,2.951,2.951,0,0,0,.206-1.68C21.537,17.36,21.3,17.271,20.949,17.095Zm0,0" transform="translate(744.407 184.957)" fill="#094144" fill-rule="evenodd"/>
      <path id="Path_6177" data-name="Path 6177" d="M21.49,0H3.069A2.952,2.952,0,0,0,0,2.819V19.734a2.952,2.952,0,0,0,3.069,2.819H21.49a2.952,2.952,0,0,0,3.069-2.819V2.819A2.952,2.952,0,0,0,21.49,0ZM15.556,4.134a.821.821,0,0,1,1.636,0V14.179a.821.821,0,0,1-1.636,0Zm-4.1-.38a.821.821,0,0,1,1.636,0v10.9a.821.821,0,0,1-1.636,0Zm-4.093.38A.821.821,0,0,1,9,4.134V14.179a.821.821,0,0,1-1.636,0Zm-4.093,1.5a.787.787,0,0,1,.818-.752.788.788,0,0,1,.819.752V12.4a.787.787,0,0,1-.819.752.786.786,0,0,1-.818-.752ZM21,17.106c-.131.1-3.16,2.437-8.722,2.437s-8.593-2.336-8.72-2.437a.71.71,0,0,1-.089-1.06.87.87,0,0,1,1.152-.083,13.3,13.3,0,0,0,7.656,2.076,13.168,13.168,0,0,0,7.655-2.074.866.866,0,0,1,1.152.081A.712.712,0,0,1,21,17.106Zm.281-4.706a.821.821,0,0,1-1.636,0V5.638a.821.821,0,0,1,1.636,0Z" transform="translate(783.042 136.474)" fill="#094144"/>
      <path id="Path_6594" data-name="Path 6594" d="M9.475,25.789V14.024h4.3l.643-4.582H9.475V6.5c0-1.331.4-2.235,2.468-2.235h2.644V.175C14.138.125,12.56,0,10.727,0,6.919,0,4.3,2.135,4.3,6.064V9.442H0v4.582H4.3V25.789Z" transform="translate(942.903 126.715)" fill="#094144"/>
      <g id="Group_7920" data-name="Group 7920" transform="translate(905.148 202.925)">
        <path id="Path_5258" data-name="Path 5258" d="M2112.222,73.938v15.54H2099.37Z" transform="translate(-2099.37 -68.361)" fill="#03363d"/>
        <path id="Path_5259" data-name="Path 5259" d="M2112.222,71.668a6.426,6.426,0,1,1-12.852,0Zm2.139,21.114a6.426,6.426,0,0,1,12.852,0Z" transform="translate(-2099.37 -71.668)" fill="#03363d"/>
        <path id="Path_5260" data-name="Path 5260" d="M2105.47,87.208V71.668h12.852Z" transform="translate(-2090.482 -71.668)" fill="#03363d"/>
      </g>
    </g>
    <g id="Group_9312" data-name="Group 9312" transform="translate(-2434.777 -320)">
      <g id="Group_9210" data-name="Group 9210" transform="translate(3693.778 534.424)">
        <path id="Path_6048" data-name="Path 6048" d="M231.982,324.643h26.959a1.947,1.947,0,0,0,1.927-1.956V302.9a1.948,1.948,0,0,0-1.927-1.957H231.982a1.947,1.947,0,0,0-1.926,1.957v19.788A1.929,1.929,0,0,0,231.982,324.643Z" transform="translate(-230.056 -300.943)" fill="#094144"/>
        <path id="Path_6049" data-name="Path 6049" d="M253.248,323.44l-10.842-8.994-.078-.481,11.178-8.3.026,17.375Z" transform="translate(-226.923 -299.737)" fill="#094144" opacity="0.1"/>
        <path id="Path_6050" data-name="Path 6050" d="M253.355,324.342a1.99,1.99,0,0,0,2.1-1.885V303.362c0-1.051-.931-1.239-2.1-1.239s-2.1.216-2.1,1.239v20.98Z" transform="translate(-224.647 -300.641)" fill="#fff"/>
        <path id="Path_6051" data-name="Path 6051" d="M240.289,324.041l20.579-20.212-1.083.429L245.459,314.31l-15.4-11.007V322.18a1.9,1.9,0,0,0,1.936,1.86Z" transform="translate(-230.056 -300.341)" fill="#094144"/>
        <path id="Path_6052" data-name="Path 6052" d="M245.511,315.756,260.045,304.7a2.1,2.1,0,0,0,.467-2.822,1.934,1.934,0,0,0-2.748-.432l-12.28,9.357-12.364-9.472a1.858,1.858,0,0,0-2.692.461,2.066,2.066,0,0,0,.439,2.822Z" transform="translate(-230.056 -300.942)" fill="#fff"/>
      </g>
    </g>
  </g>
</svg>
