<svg id="blog_2_" data-name="blog (2)" xmlns="http://www.w3.org/2000/svg" width="24" height="24" viewBox="0 0 24 24">
  <path id="Path_4740" data-name="Path 4740" d="M24,12A12,12,0,1,1,12,0,12,12,0,0,1,24,12Zm0,0" fill="#1e47ff"/>
  <g id="Group_6744" data-name="Group 6744" transform="translate(5.908 6.184)">
    <path id="Path_4741" data-name="Path 4741" d="M87.491,84.031H78.5a1.415,1.415,0,0,0-1.413,1.413V93.06a1.874,1.874,0,0,0,1.872,1.872h5.184a.5.5,0,1,0,0-.991H78.958a.882.882,0,0,1-.881-.881V86.88h9.836v4.184a.5.5,0,1,0,.991,0v-5.62A1.415,1.415,0,0,0,87.491,84.031Zm-1.858.991a.422.422,0,1,1-.422.422A.423.423,0,0,1,85.633,85.022Zm2.257.422a.422.422,0,1,1-.422-.422A.423.423,0,0,1,87.89,85.444Zm-9.813,0a.423.423,0,0,1,.422-.422h5.785a1.41,1.41,0,0,0,.008.867H78.077Zm0,0" transform="translate(-77.086 -84.031)" fill="#fff"/>
    <path id="Path_4742" data-name="Path 4742" d="M268.656,258.363a.5.5,0,0,0-.207-.124l-1.806-.549a.5.5,0,0,0-.621.606l.513,1.852a.5.5,0,0,0,.127.218l2.509,2.513a1.413,1.413,0,0,0,2-2Zm-1.439.537.825.251,1.664,1.667-.6.6-1.654-1.657Zm3.251,3.279a.423.423,0,0,1-.6,0l-.063-.063.6-.6.063.063A.423.423,0,0,1,270.468,262.179Zm0,0" transform="translate(-259.764 -251.934)" fill="#fff"/>
  </g>
</svg>
