<svg xmlns="http://www.w3.org/2000/svg" xmlns:xlink="http://www.w3.org/1999/xlink" width="94" height="94" viewBox="0 0 94 94">
  <defs>
    <filter id="Ellipse_186" x="0" y="0" width="94" height="94" filterUnits="userSpaceOnUse">
      <feOffset dy="3" input="SourceAlpha"/>
      <feGaussianBlur stdDeviation="3" result="blur"/>
      <feFlood flood-color="#9f9f9f" flood-opacity="0.161"/>
      <feComposite operator="in" in2="blur"/>
      <feComposite in="SourceGraphic"/>
    </filter>
  </defs>
  <g id="Chatbot" transform="translate(9 6)">
    <g id="Group_7065" data-name="Group 7065" transform="translate(-523 -998)">
      <g id="Group_7064" data-name="Group 7064" transform="translate(317 -3)">
        <g transform="matrix(1, 0, 0, 1, 197, 995)" filter="url(#Ellipse_186)">
          <circle id="Ellipse_186-2" data-name="Ellipse 186" cx="38" cy="38" r="38" transform="translate(9 6)" fill="#79e2f2"/>
        </g>
      </g>
      <g id="chatbot_1_" data-name="chatbot (1)" transform="translate(534.988 1011)">
        <g id="Group_7041" data-name="Group 7041" transform="translate(1.012)">
          <g id="Group_7040" data-name="Group 7040" transform="translate(0)">
            <path id="Path_8342" data-name="Path 8342" d="M163.557,329.67a2.2,2.2,0,1,0,0-4.4h-8.825a2.2,2.2,0,0,0,0,4.4Zm-9.567-2.2a.744.744,0,0,1,.743-.743h8.825a.743.743,0,1,1,0,1.486h-8.825a.744.744,0,0,1-.743-.743Z" transform="translate(-137.827 -293.7)" fill="#0052cc"/>
            <path id="Path_8343" data-name="Path 8343" d="M259.915,208a3.64,3.64,0,1,0,3.64-3.64A3.644,3.644,0,0,0,259.915,208Zm3.64-2.184A2.184,2.184,0,1,1,261.371,208,2.186,2.186,0,0,1,263.555,205.814Z" transform="translate(-234.785 -184.522)" fill="#0052cc"/>
            <path id="Path_8344" data-name="Path 8344" d="M110.011,204.358a3.64,3.64,0,1,0,3.64,3.64A3.644,3.644,0,0,0,110.011,204.358Zm0,5.824A2.184,2.184,0,1,1,112.195,208,2.186,2.186,0,0,1,110.011,210.182Z" transform="translate(-96.144 -184.522)" fill="#0052cc"/>
            <path id="Path_8345" data-name="Path 8345" d="M183.043,431.019a.728.728,0,0,0,.728-.728V426.7a.728.728,0,0,0-.728-.728H175.86a.728.728,0,0,0-.728.728v3.591a.728.728,0,0,0,.728.728Zm-6.455-3.591h5.727v2.135h-5.727Z" transform="translate(-158.231 -384.625)" fill="#0052cc"/>
            <path id="Path_8346" data-name="Path 8346" d="M49.785,9.284a.728.728,0,0,0,.728-.728V2.689A2.692,2.692,0,0,0,47.824,0h-20.2a2.692,2.692,0,0,0-2.689,2.689V13.923H16.457a.728.728,0,1,0,0,1.456h8.479v.253a2.672,2.672,0,0,0,.3,1.233H11.545a3.674,3.674,0,0,0-3.67,3.67v5.883a3.674,3.674,0,0,0,3.67,3.67H33.116a3.674,3.674,0,0,0,3.67-3.67V20.534a3.651,3.651,0,0,0-.745-2.214h2.231V34.262a3.2,3.2,0,0,1-3.193,3.193H9.583A3.2,3.2,0,0,1,6.39,34.262V18.573a3.2,3.2,0,0,1,3.193-3.194h3.473a.728.728,0,1,0,0-1.456H9.583a4.655,4.655,0,0,0-4.649,4.65v1.233H3.7A2.692,2.692,0,0,0,1.012,22.5v7.844A2.692,2.692,0,0,0,3.7,33.028H4.934v1.234a4.655,4.655,0,0,0,4.649,4.649h4.6A6.6,6.6,0,0,0,11.7,44.067v.577a.728.728,0,0,0,1.456,0v-.577a5.161,5.161,0,0,1,5.155-5.155h7.844a5.161,5.161,0,0,1,5.155,5.155v4.175H29.236V47.008a.728.728,0,0,0-1.456,0v1.233H16.685V47.008a.728.728,0,0,0-1.456,0v1.233H13.155v-.2a.728.728,0,1,0-1.456,0v.927a.728.728,0,0,0,.728.728h19.61a.728.728,0,0,0,.728-.728v-4.9a6.6,6.6,0,0,0-2.479-5.155h4.791a4.655,4.655,0,0,0,4.649-4.649V33.028H40.96a2.692,2.692,0,0,0,2.689-2.689V22.5a2.692,2.692,0,0,0-2.562-2.686l1.881-1.489h4.856a2.692,2.692,0,0,0,2.689-2.689v-3.67a.728.728,0,0,0-1.456,0v3.67a1.234,1.234,0,0,1-1.233,1.233H42.715a.728.728,0,0,0-.452.157L39.727,19.03V17.593A.728.728,0,0,0,39,16.865H27.625a1.234,1.234,0,0,1-1.233-1.233V2.689a1.234,1.234,0,0,1,1.233-1.233h20.2a1.234,1.234,0,0,1,1.233,1.233V8.556A.728.728,0,0,0,49.785,9.284ZM3.7,31.572a1.234,1.234,0,0,1-1.233-1.233V22.5A1.234,1.234,0,0,1,3.7,21.262H4.934v10.31H3.7ZM42.193,22.5v7.844a1.234,1.234,0,0,1-1.233,1.233H39.727V21.262H40.96A1.235,1.235,0,0,1,42.193,22.5ZM35.33,20.534v5.883a2.216,2.216,0,0,1-2.214,2.214H11.545a2.216,2.216,0,0,1-2.214-2.214V20.534a2.216,2.216,0,0,1,2.214-2.214H33.116A2.216,2.216,0,0,1,35.33,20.534Z" transform="translate(-1.012)" fill="#0052cc"/>
            <path id="Path_8347" data-name="Path 8347" d="M299.928,87.6a.728.728,0,0,0-.728-.728H281.551a.728.728,0,1,0,0,1.456H299.2A.728.728,0,0,0,299.928,87.6Z" transform="translate(-253.663 -78.442)" fill="#0052cc"/>
            <path id="Path_8348" data-name="Path 8348" d="M299.2,56.61H281.551a.728.728,0,1,0,0,1.456H299.2a.728.728,0,0,0,0-1.456Z" transform="translate(-253.663 -51.115)" fill="#0052cc"/>
            <path id="Path_8349" data-name="Path 8349" d="M281.551,117.138a.728.728,0,1,0,0,1.456h10.786a.728.728,0,0,0,0-1.456Z" transform="translate(-253.663 -105.768)" fill="#0052cc"/>
          </g>
        </g>
      </g>
    </g>
  </g>
</svg>
