<svg xmlns="http://www.w3.org/2000/svg" width="212.694" height="135.752" viewBox="0 0 212.694 135.752"><g transform="translate(-591.981 -129.573)"><ellipse cx="93.272" cy="5.182" rx="93.272" ry="5.182" transform="matrix(0.998, -0.07, 0.07, 0.998, 605.786, 254.987)" fill="#79e2f2"/><ellipse cx="93.5" cy="5" rx="93.5" ry="5" transform="translate(605 247)" fill="#253858"/><g transform="translate(591.981 150.105)"><g transform="translate(4.391 7.68)"><path d="M821.5,545.626c.943-4.975,4.338-6.451,4.338-6.451l-.58-6.186-1.17.633s-2.382,4.784-2.459,4.981-.6,4.3-.6,4.3Z" transform="translate(-815.09 -531.579)" fill="#350f40"/><path d="M813.272,551.437l-.207.1c-.085.045-.191.1-.321.156-.062.032-.132.064-.207.1-.129.054-.28.131-.46.214-1.9.859-4.289,2.308-7.3,2.715a28.17,28.17,0,0,1,9.984-25.606c.006,0-.585,1.889-.585,1.889C810.99,534.888,809.194,543.288,813.272,551.437Z" transform="translate(-804.558 -529.1)" fill="#350f40"/><path d="M823.284,551.9a5.484,5.484,0,0,1-1.873.165,27.59,27.59,0,0,1-2.112-11.078,20.59,20.59,0,0,1,4.872-11.894.038.038,0,0,0,.015-.014l.092,1.259C821.1,534.219,819.6,543.843,823.284,551.9Z" transform="translate(-813.971 -529.076)" fill="#e05c68"/></g><g transform="translate(16.807)"><path d="M899.688,540.761l-6.21-.252-.116.026a37.261,37.261,0,0,0-1.469-4.2c-.034-.08-.069-.16-.1-.244a45.349,45.349,0,0,0-5.383-9.508c-6.594-8.823-15.38-13.134-26.107-12.815-7.885.238-13.377,2.39-16.328,6.4-4.538,6.166-5-3.466-5-3.466,4.1-5.606,11.193-8.6,21.079-8.893,12.774-.381,23.632,4.962,31.4,15.456a50.955,50.955,0,0,1,5.95,10.525c.032.069.063.142.089.211A57.954,57.954,0,0,1,899.688,540.761Z" transform="translate(-838.978 -507.789)" fill="#e05c68"/></g><g transform="translate(17.197 0.855)"><path d="M897.336,540.781l-4.561.982a43.2,43.2,0,0,0-1.528-4.167c-.033-.079-.069-.159-.1-.243a45.1,45.1,0,0,0-5.214-9.478c-6.4-8.787-14.959-13.056-25.434-12.691-7.7.275-13.07,2.446-15.969,6.472-4.457,6.181-4.472-2.5-4.472-2.5,4.026-5.62,10.965-8.639,20.623-8.976,12.469-.437,23.046,4.855,30.585,15.308,2.438,3.383,3.364,7.084,4.56,9.859.03.069.061.138.087.21A21.955,21.955,0,0,1,897.336,540.781Z" transform="translate(-840.059 -510.154)" fill="#350f40"/></g><g transform="translate(0 30.713)"><path d="M821.565,604.6c.138,6.559-3.163,11.911-8.291,12.02-.987.021-4.745.276-4.745.276-3.775-1.452-5.419-6.61-5.532-11.9-.086-4.027,2.461-9.6,4.811-11.8,0,0,2.24-.233,4.22-.275C817.157,592.811,821.426,598.041,821.565,604.6Z" transform="translate(-799.172 -592.916)" fill="#4c1e45"/><ellipse cx="9.285" cy="11.879" rx="9.285" ry="11.879" transform="translate(0 0.431) rotate(-1.218)" fill="#350f2e"/><ellipse cx="7.86" cy="10.056" rx="7.86" ry="10.056" transform="translate(1.464 2.223) rotate(-1.218)" fill="#4c0f45"/></g><g transform="translate(16.068 50.979)"><ellipse cx="1.348" cy="0.87" rx="1.348" ry="0.87" transform="translate(0.941 2.208) rotate(-3.615)" fill="#350f2e"/><ellipse cx="1.348" cy="0.87" rx="1.348" ry="0.87" transform="translate(0 0.17) rotate(-3.615)" fill="#350f2e"/><path d="M838.063,653.614l-.94-2.038,2.662-.362.941,2.038Z" transform="translate(-837.054 -650.446)" fill="#350f2e"/></g><g transform="translate(18.015 53.743)"><path d="M857.186,682.8l-.542-.455c-3.37-2.548-4.727-4.7-6.665-8.847l-7.654-16.387.789-.369,7.654,16.387c1.873,4.013,3.18,6.085,6.419,8.538l.559.47Z" transform="translate(-842.326 -656.738)" fill="#4c1e45"/></g><circle cx="2.504" cy="2.504" r="2.504" transform="translate(29.363 76.223)" fill="#4c1e45"/></g><g transform="translate(685.054 129.573)"><path d="M1120.7,548.932l-1.019,2.156-.305.649-6.34,13.426-.276.588-2.773,5.87-.271.575-3.353,7.106-.3.631-2.225,4.716-.266.558-1.705,3.621-.27.575-1.8,3.814-.27.575-1.721,3.64-.3.635-1.8,3.819-.27.57-2.869,6.079-.279.592-1.528,3.231-.276.583-1.92,4.071-.266.566-1.755,3.718-.288.61-2,4.228-7.716.406-.24.013-.884.048a3.656,3.656,0,0,1-3.754-2.448c-.052-.126-.1-.253-.138-.388a7.013,7.013,0,0,1-.187-3.039l1.363-13.288.2-1.969,6.193-60.379.074-.723,1.014-9.893a3.873,3.873,0,0,1,1.094-2.334c.091-.092.187-.178.287-.266a3.9,3.9,0,0,1,2.595-.9l.3.026s.009,0,.013,0l3.58.3,5.117,2.761,1.159.627,2.085,1.128,1.146.62h0Z" transform="translate(-1071.247 -530.973)" fill="#c1c9e0"/><path d="M1198.154,557.8v.1c0,.218,0,.44,0,.657q-.007,1.686-.056,3.366c0,.235-.009.474-.021.71-.039,1.4-.1,2.808-.179,4.206-.013.227-.026.453-.044.68-.086,1.42-.191,2.839-.322,4.258-.017.227-.039.453-.061.68-.335,3.54-.793,7.067-1.394,10.581-.034.213-.069.431-.113.649-.174,1.036-.37,2.073-.575,3.109-.366,1.838-.767,3.771-1.2,5.748-.048.222-.1.448-.148.671-.413,1.9-.854,3.827-1.308,5.744l-.144.614c-.213.9-.431,1.776-.644,2.652-.052.206-.1.41-.152.61-.492,1.969-.989,3.884-1.485,5.7v0c-.052.207-.109.4-.161.6-.482,1.741-.949,3.383-1.406,4.882-.066.206-.126.4-.187.605-1.454,4.672-2.744,7.78-3.523,7.78l-17.753.583-.684.021-1.816.083-.631.026a.036.036,0,0,1-.022,0L1131,624.545a.574.574,0,0,1-.088,0l-3.684.169h-.2c-14.688.627-29.366,1.308-44.059,1.868.566-.113,1.4-2.186,2.373-5.386.061-.2.122-.4.183-.605.384-1.308.792-2.774,1.206-4.359.048-.187.1-.374.148-.566.4-1.555.818-3.209,1.233-4.925.052-.206.1-.41.148-.62.279-1.154.558-2.33.836-3.511.048-.218.1-.431.148-.649.714-3.091,1.415-6.231,2.059-9.175.052-.24.1-.482.152-.719.7-3.2,1.32-6.135,1.821-8.5,2.19-10.416,2.754-21.085,2.77-31.771,0-1.855,0-4.106-.065-6.484-.013-.683-.035-1.377-.061-2.077-.292-7.786-1.228-16.116-4.176-16.26l6.2.266.532.026.3.013,4.037.174.78.03,3.919.17c0,.013.009,0,.009,0l1.023.048,22.13.958h.017l3.627.152h.009l17.414.749,2.808.126s0,0,.013,0l7.355.313.239.009h.009l2.791.122h.014c.008,0,.008,0,.013,0l.344.013h0s0,0,.009,0h0c3.061.1,24.6.845,28.678,1.023h.013c1.812.283,2.823,3.492,3.4,7.607.03.2.057.406.083.61.118.949.218,1.938.3,2.943.017.207.03.413.048.62.1,1.411.165,2.844.207,4.241,0,.207.013.413.017.62C1198.149,554.012,1198.158,556.093,1198.154,557.8Z" transform="translate(-1078.741 -530.975)" fill="#253858"/><circle cx="1.407" cy="1.407" r="1.407" transform="translate(21.911 58.442)" fill="#fff"/><circle cx="1.407" cy="1.407" r="1.407" transform="translate(20.504 63.82)" fill="#fff"/><line x2="30.911" y2="1.308" transform="translate(55.259 7.638)" stroke-width="5.189" stroke="#fff" stroke-linecap="round" stroke-linejoin="round" fill="none"/><circle cx="1.407" cy="1.407" r="1.407" transform="translate(19.097 69.198)" fill="#fff"/><path d="M1210.96,705.464c2.129,6.628-7.887,30.823-7.887,30.823l22.934-1.637,7.427-26.493Z" transform="translate(-1155.507 -642.506)" fill="#c1c9e0" opacity="0.36"/><g transform="translate(6.811 0.258)" opacity="0.53"><g transform="translate(8.315 0)" opacity="0.53"><path d="M1217.024,543.863c-13.917,1.637-26.741,8.817-39.16,15.773-2.709,1.52-5.508,3.091-8.226,4.544-11.609,6.2-20.435,9.2-27.6,9.2a20.677,20.677,0,0,1-9.955-2.393c-5.2-2.782-7.685-11.009-10.32-19.712-2.225-7.353-4.533-14.965-8.6-19.59l.57.026.318.013c3.919,4.751,6.18,12.192,8.352,19.38,2.595,8.581,5.051,16.686,10.011,19.341,8.461,4.524,19.5,2.484,36.887-6.812,2.717-1.45,5.513-3.013,8.222-4.537,12.48-6.987,25.365-14.2,39.417-15.843C1216.972,543.453,1217,543.658,1217.024,543.863Z" transform="translate(-1113.165 -531.686)" fill="#fff"/></g><g transform="translate(13.532 0.213)" opacity="0.53"><path d="M1221.773,536.1c-2.616,2.7-10.332,5.257-21.9,4.981-8.727-.225-12.807,4.269-17.547,9.456-1.558,1.7-3.156,3.454-5,5.119-4.682,4.23-16.511,11.184-25.9,11.184a15.351,15.351,0,0,1-3.839-.45c-4.113-1.051-6.874-3.905-8.212-8.48-4.528-15.477-10.534-23.994-11.756-25.634l.826.032h.006c1.712,2.391,7.3,10.858,11.567,25.44,1.271,4.343,3.872,7.047,7.737,8.042,9.449,2.422,23.84-5.833,29.1-10.583,1.826-1.646,3.417-3.392,4.962-5.076,4.647-5.087,9.075-9.906,18.076-9.676,10.833.257,18.169-1.959,21-4.418h.007l.387.019A4.2,4.2,0,0,1,1221.773,536.1Z" transform="translate(-1127.622 -532.277)" fill="#fff"/></g><g transform="translate(70.899 11.334)" opacity="0.53"><path d="M1309.767,563.354l-.074-.253-.283.03c-.631.069-15.541,1.7-20.436,6.865-2.1,2.214-2.909,4.345-1.964,5.175a1.368,1.368,0,0,0,.95.319c1.633,0,4.529-1.825,8.243-5.245,2.94-2.7,6.989-3.891,9.955-4.769C1308.592,564.765,1310.059,564.333,1309.767,563.354Zm-3.81,1.529c-2.857.839-7.172,2.109-10.22,4.921-5.37,4.93-7.756,5.366-8.262,4.913a.664.664,0,0,1-.174-.515c0-.757.62-2.148,2.181-3.787,4.2-4.446,16.647-6.24,19.442-6.6a14.267,14.267,0,0,1-2.967,1.067Z" transform="translate(-1286.62 -563.101)" fill="#fff"/></g><g transform="translate(10.584 16.04)" opacity="0.53"><path d="M1221.412,595.8c-.013.227-.026.454-.043.682-1.533-.712-3.284-1.708-5.177-2.791-4.333-2.472-9.249-5.275-13.638-5.826-6.632-.826-14.374,4.162-23.331,9.94-3.548,2.288-7.216,4.655-11.025,6.782a46.419,46.419,0,0,1-21.826,5.664c-7.59,0-14.39-2.214-17.8-7.2-4-5.847-5.97-13.087-7.868-20.1-.326-1.2-.649-2.389-.976-3.541v-.009c-.069-.393-.137-.79-.218-1.184-.013-.689-.035-1.385-.061-2.083.666,2.1,1.276,4.353,1.9,6.668,1.886,6.954,3.845,14.144,7.78,19.9,6.4,9.359,26.074,8.4,38.729,1.341,3.787-2.114,7.446-4.475,10.986-6.76,9.067-5.853,16.9-10.909,23.8-10.044,4.529.563,9.511,3.406,13.9,5.912C1218.29,594.161,1219.953,595.108,1221.412,595.8Z" transform="translate(-1119.447 -576.141)" fill="#fff"/></g><g transform="translate(93.377 15.129)" opacity="0.53"><path d="M1368.289,589.262c0,.236-.009.476-.021.712a69.3,69.3,0,0,1-5.883-3.747c-.789-.537-1.637-1.109-2.539-1.716a14.184,14.184,0,0,0-9-2.4c-1,.039-1.594.057-1.842-.349-.231-.375.021-.9.5-1.633,2.207-3.337,11.666-5.508,18.507-6.507.017.207.03.413.048.625-7.849,1.135-16.134,3.406-17.984,6.214-.513.773-.5.964-.487.992a4.812,4.812,0,0,0,1.228.035,14.832,14.832,0,0,1,9.419,2.515c.91.606,1.75,1.183,2.547,1.721C1364.989,587.218,1366.783,588.437,1368.289,589.262Z" transform="translate(-1348.917 -573.62)" fill="#fff"/></g><g transform="translate(101.937 19.978)" opacity="0.53"><path d="M1383.514,593.817c0,.218,0,.441,0,.66a24.579,24.579,0,0,1-6.5-3.354,16.152,16.152,0,0,0-3.462-1.943c-.283-.1-1.023-.341-.9-.847.24-1.013,5.778-1.389,10.777-1.245,0,.207.013.413.017.62-4.888-.149-9.241.288-10.059.725a2.126,2.126,0,0,0,.384.153,17.037,17.037,0,0,1,3.623,2.026,24.4,24.4,0,0,0,6.116,3.206Z" transform="translate(-1372.641 -587.058)" fill="#fff"/></g><g transform="translate(8.683 30.687)" opacity="0.53"><path d="M1217.686,626.707c-.017.227-.039.454-.061.681a28.379,28.379,0,0,1-5.178-3.861c-3.856-3.332-8.225-7.1-14.718-5.939-9.7,1.747-18.28,9.639-26.588,17.271-9.475,8.72-18.442,16.961-29.014,16.961-.187,0-.37,0-.558,0-17.126-.472-25.449-10.295-27.382-13.112,0,0,.08-.7.149-.992,1.05,1.73,9.04,12.981,27.255,13.474,10.534.3,19.547-8,29.083-16.769,8.37-7.707,17.031-15.668,26.928-17.446,6.828-1.227,11.326,2.659,15.293,6.091A29.714,29.714,0,0,0,1217.686,626.707Z" transform="translate(-1114.186 -616.741)" fill="#fff"/></g><g transform="translate(9.831 31.309)" opacity="0.53"><path d="M1160.366,640.784l-.027.1-.08.069c-5.958,5.1-12,7.667-18.009,7.667a20.964,20.964,0,0,1-3.477-.288c-7.771-1.289-16.341-8.424-21.41-17.1,0-.007.111-1.133.111-1.133,4.982,8.937,13.622,16.328,21.413,17.626,6.707,1.108,13.515-1.126,20.243-6.659-.315.107-.682.238-1.043.363-3.417,1.227-10.535,3.762-19.011,2.241-9.55-1.715-18.43-14.767-20.971-22.7,0,0,.02-1.252.02-1.872,0-.213,0-.425-.007-.638,1.592,7.541,10.81,22.752,21.078,24.592,8.306,1.489,15.293-1.008,18.659-2.209,1.538-.551,2.053-.739,2.368-.488A.434.434,0,0,1,1160.366,640.784Z" transform="translate(-1117.364 -618.46)" fill="#fff"/></g><g transform="translate(70.195 34.915)" opacity="0.53"><path d="M1322.18,638.157c-.989-2.511-7.769-9.7-13.869-9.7h-.092c-11.757.144-22.317,15.026-23.427,18.515-.126.419-.253,1,.138,1.249a.608.608,0,0,0,.322.087,2.346,2.346,0,0,0,1.219-.589,26.161,26.161,0,0,0,3.462-3.551c5.13-5.865,12.872-14.729,30.011-5.233,1.084.594,1.768.738,2.147.441C1322.38,639.152,1322.414,638.738,1322.18,638.157Zm-.492.764c-.009,0-.275.131-1.411-.5-17.614-9.756-25.574-.651-30.839,5.37a26.264,26.264,0,0,1-3.366,3.467,2.47,2.47,0,0,1-.766.445c-.043-.323.362-1.611,2.016-4.07,3.6-5.363,12.061-14.468,20.9-14.577h.087c5.386,0,11.567,6.166,13.033,8.821a2.207,2.207,0,0,1,.349.956A.8.8,0,0,1,1321.687,638.921Z" transform="translate(-1284.667 -628.458)" fill="#fff"/></g><g transform="translate(85.775 37.858)" opacity="0.53"><path d="M1343.438,639.917c-5.9-4.7-12.657-2.174-15.29-.869l-.3-.529c5.724-2.837,11.7-2.485,16,.942Z" transform="translate(-1327.849 -636.616)" fill="#fff"/></g><g transform="translate(18.574 0.412)" opacity="0.53"><path d="M1170.31,534c-1.117.118-2.421.288-3.818.463a109.642,109.642,0,0,1-13.555,1.152c-4.661,0-8.921-.657-11.341-2.779l1.1.05c4.975,3.367,16.163,1.928,23.713.958h.02Z" transform="translate(-1141.596 -532.831)" fill="#fff"/></g><g transform="translate(17.01 0.788)" opacity="0.53"><path d="M1200.379,535.981c-7.1.538-13.542,4.869-19.795,9.062-6.566,4.407-12.773,8.568-19.607,8.618h-.114c-11.823,0-21.392-13.793-23.547-18.837a.664.664,0,0,1,.288-.832.758.758,0,0,1,.929.087l.247.238c2.661,2.528,5.677,5.395,14.612,5.845,7.3.369,15.38-1.277,23.947-3.023,2.9-.588,5.878-1.2,8.874-1.727l3.009.125c-3.945.626-7.9,1.433-11.743,2.216-8.607,1.752-16.739,3.411-24.121,3.036-9.194-.47-12.311-3.423-15.053-6.033l-.247-.231a.069.069,0,0,0-.094-.012.06.06,0,0,0-.027.081c2.113,4.937,11.442,18.443,22.925,18.443h.114c6.614-.05,12.738-4.155,19.219-8.5,5.39-3.617,10.913-7.322,16.919-8.687h.007Z" transform="translate(-1137.265 -533.872)" fill="#fff"/></g><g transform="translate(2.772 57.988)" opacity="0.53"><path d="M1131.079,710.306c-3.414,2.9-12.006,6.109-21.1,6.109a31.55,31.55,0,0,1-12.175-2.272c.052-.207.1-.413.148-.62,13.055,5.568,28.731-.319,32.681-3.677.826-.7,1.224-1.341,1.054-1.708-.453-1.026-4.607-2.419-9.005-3.9-7.773-2.6-17.726-5.948-20.287-10.629,0,0,.207-1.04.258-1.215,1.8,4.8,12.64,8.709,20.256,11.255,5.639,1.891,8.852,3.018,9.4,4.245C1132.507,708.345,1132.455,709.136,1131.079,710.306Z" transform="translate(-1097.802 -692.4)" fill="#fff"/></g><g transform="translate(3.757 65.017)" opacity="0.53"><path d="M1124.248,722.772c-2.06,1.126-6.679,2.227-11.8,2.227a26.227,26.227,0,0,1-11.922-2.548c.048-.218.1-.432.148-.651,8,4.305,19.639,2.4,23.231.428.64-.344.762-.581.753-.638,0-.031-.122-.162-.566-.275-3.443-.856-16.53-4.721-21.359-8.716.052-.24.1-.482.153-.72,4.036,3.611,16.233,7.554,21.372,8.834.653.162,1.01.432,1.062.795C1125.385,721.923,1125.032,722.338,1124.248,722.772Z" transform="translate(-1100.529 -711.88)" fill="#fff"/></g><g transform="translate(1.391 47.128)" opacity="0.53"><path d="M1203.313,667.121c-.034.214-.069.432-.114.651a30.664,30.664,0,0,0-15.393-4.86c-5.169-.148-9.488,1.227-12.506,3.969-6.845,6.227-13.337,6.572-17.226,6.777-.775.043-1.45.083-2.025.148-2.569.332-3.766,1.69-8.779,7.411-1.7,1.935-3.806,4.338-6.549,7.358-8.156,9-18.69,13.454-31.937,13.454a74.038,74.038,0,0,1-14.81-1.616c.048-.188.1-.376.148-.568,20.188,4.1,35.285.271,46.11-11.65,2.735-3.018,4.851-5.419,6.541-7.354,5.151-5.865,6.375-7.262,9.188-7.616.6-.083,1.284-.114,2.081-.157,4.037-.218,10.129-.546,16.812-6.616,3.14-2.856,7.608-4.292,12.972-4.135A31.26,31.26,0,0,1,1203.313,667.121Z" transform="translate(-1093.975 -662.305)" fill="#fff"/></g><g transform="translate(0 56.768)" opacity="0.53"><path d="M1198.962,693.734c-.047.223-.1.45-.148.673-9.106-6.122-17.34-6.275-26.994-.651a47.921,47.921,0,0,0-6.128,4.917c-10.216,8.982-28.052,24.649-61.594,24.649a118.832,118.832,0,0,1-13.977-.856c.061-.2.122-.4.183-.607,42.36,4.982,63.462-13.572,74.928-23.647a48.292,48.292,0,0,1,6.236-4.991C1181.3,687.492,1189.7,687.589,1198.962,693.734Z" transform="translate(-1090.122 -689.022)" fill="#fff"/></g><g transform="translate(38.845 65.233)" opacity="0.53"><path d="M1266.318,715.164q-.069.308-.144.616c-9.3-3.432-20.461-6.122-31.666,9.463-8.717,12.127-24.029,14.941-31.844,15.576a.631.631,0,0,1-.092,0c-1.759.145-3.131.17-3.945.17h-.218c-.392,0-.614-.013-.631-.013l.03-.625c.244.013,24.355.93,36.147-15.463C1245.413,708.954,1256.817,711.662,1266.318,715.164Z" transform="translate(-1197.779 -712.485)" fill="#fff"/></g><g transform="translate(71.153 69.292)" opacity="0.53"><path d="M1322.765,725.631c-.052.206-.1.413-.152.611-.026-.009-.052-.013-.079-.022-10.368-2.878-18.558-5.153-34.675,16.009l-.54-.363c16.387-21.524,24.781-19.2,35.406-16.249Z" transform="translate(-1287.32 -723.737)" fill="#fff"/></g><g transform="translate(71.294 76.633)" opacity="0.53"><path d="M1321.38,744.966v0c-.052.207-.109.406-.161.6-12.336-3.328-20.532,3.773-26.606,9.026-2.508,2.166-4.668,4.035-6.65,4.778l-.248-.585c1.868-.694,3.988-2.528,6.44-4.651C1300.352,748.776,1308.712,741.543,1321.38,744.966Z" transform="translate(-1287.715 -744.08)" fill="#fff"/></g><g transform="translate(79.246 82.901)" opacity="0.53"><path d="M1333.9,761.573c-.065.206-.126.405-.187.607-6.806-.751-11.814,2.528-16.269,5.45a35.449,35.449,0,0,1-5.008,2.939c-.018.009-.035.013-.052.021h-.008l-2.622.109.183-.026c2.2-.328,4.5-1.829,7.128-3.555C1321.418,764.258,1326.765,760.756,1333.9,761.573Z" transform="translate(-1309.752 -761.452)" fill="#fff"/></g></g><path d="M1202.541,714.018l-10.271,47.508h-35.464a2.143,2.143,0,0,1-2.123-2.435h0a2.143,2.143,0,0,1,2.143-1.851l17.764.105c3.416,0,6.436-2.735,7.216-6.534l7.609-36.8c.985-4.771-1.279-9.245-5.358-9.723-.174-.021.839.052-2.2.092a1.816,1.816,0,0,1-1.835-1.937h0a1.819,1.819,0,0,1,1.815-1.7h3.7C1193.184,700.75,1203.922,706.322,1202.541,714.018Z" transform="translate(-1124.564 -639.493)" fill="#9aa6c8"/><path d="M1248.927,711.577l-8.934,42.7a9.042,9.042,0,0,1-8.862,7.245h-15.67a9.034,9.034,0,0,0,8.855-7.245l8.935-42.708a9.033,9.033,0,0,0-8.855-10.827h15.672a9.038,9.038,0,0,1,8.859,10.83Z" transform="translate(-1163.426 -639.493)" fill="#c1c9e0"/><g transform="translate(0.275 0.902)" opacity="0.39"><path d="M1082.231,592.582c-4.807,22.16-8.277,31.534-10.09,33.172-.052-.126-.1-.253-.138-.388,1.463-1.515,4.812-9.672,9.846-32.868,5.208-24,5.125-51.623-.1-58.759.092-.092.187-.178.287-.266C1087.335,540.668,1087.465,568.469,1082.231,592.582Z" transform="translate(-1072.004 -533.474)" fill="#fff"/></g><g transform="translate(1.45 13.394)" opacity="0.39"><path d="M1081.052,608.195c-1.637,7.55-4.124,17.81-5.792,22.974l.2-1.968c1.381-4.712,3.327-12.406,5.213-21.089,2.887-13.307,3.3-33.875.98-39.291l.074-.723C1084.552,572.958,1083.816,595.463,1081.052,608.195Z" transform="translate(-1075.26 -568.098)" fill="#fff"/></g></g></g></svg>