<svg xmlns="http://www.w3.org/2000/svg" width="24" height="24" viewBox="0 0 24 24">
  <g id="Customer_Experience_Icon" data-name="Customer Experience Icon" transform="translate(-780 -242)">
    <circle id="Ellipse_1" data-name="Ellipse 1" cx="12" cy="12" r="12" transform="translate(780 242)" fill="#2d3bff"/>
    <g id="experience" transform="translate(784 246)">
      <path id="Path_1" data-name="Path 1" d="M104.858,104.94v-1.107a1.457,1.457,0,0,0-1.455-1.455h-.754v-.693a.23.23,0,0,0,0-.039,1.454,1.454,0,0,0,.617-1.189V99.229a1.15,1.15,0,0,0-1.149-1.149H101.5a1.15,1.15,0,0,0-1.149,1.149v1.228a1.454,1.454,0,0,0,.617,1.189.23.23,0,0,0,0,.039v.693h-.754a1.457,1.457,0,0,0-1.455,1.455v1.107s.387,1.7,3.051,1.7S104.858,104.94,104.858,104.94Zm-4.051-5.711a.694.694,0,0,1,.693-.693h.614a.694.694,0,0,1,.693.693v.364a1.03,1.03,0,0,1-.444-.184.228.228,0,0,0-.21-.037,5.046,5.046,0,0,1-1.345.238Zm0,.837a5.523,5.523,0,0,0,1.377-.227,1.6,1.6,0,0,0,.622.215v.4a1,1,0,0,1-2,0Zm.614,1.793a1.449,1.449,0,0,0,.772,0v.517h-.772Zm-2.211,3.467c0-.007,0,.353,0-.021s0-1.473,0-1.473a1,1,0,0,1,1-1H103.4a1,1,0,0,1,1,1v1.473c0,.007,0,.021,0,.021a13.975,13.975,0,0,1-2.6.957A8.738,8.738,0,0,1,99.211,105.326Z" transform="translate(-94.03 -95.03)" fill="#fff"/>
      <path id="Path_2" data-name="Path 2" d="M13.382,3.7a1.148,1.148,0,0,0-1.5-1.5A6.05,6.05,0,0,0,10.117.64a4.6,4.6,0,0,0-4.68,0A6.049,6.049,0,0,0,3.676,2.206a1.148,1.148,0,0,0-1.5,1.5A5.188,5.188,0,0,0,0,7.777a4.652,4.652,0,0,0,.64,2.34,6.049,6.049,0,0,0,1.566,1.761,1.148,1.148,0,0,0,1.5,1.5,5.189,5.189,0,0,0,4.076,2.173,5.189,5.189,0,0,0,4.076-2.173,1.148,1.148,0,0,0,1.5-1.5,6.049,6.049,0,0,0,1.566-1.761,4.652,4.652,0,0,0,.64-2.34A5.188,5.188,0,0,0,13.382,3.7Zm-1.093,7.469a1.148,1.148,0,0,0-1.119,1.408,9.63,9.63,0,0,1-6.785,0,1.148,1.148,0,0,0-1.4-1.374,9.626,9.626,0,0,1-.014-6.82,1.148,1.148,0,0,0,1.374-1.4,9.622,9.622,0,0,1,6.855,0,1.148,1.148,0,0,0,1.374,1.4,9.626,9.626,0,0,1-.014,6.82,1.147,1.147,0,0,0-.277-.034Zm.723-7.9a.693.693,0,1,1-.693-.693A.694.694,0,0,1,13.012,3.266ZM7.777.456A4.745,4.745,0,0,1,11.5,2.462a1.156,1.156,0,0,0-.1.116,10.067,10.067,0,0,0-7.247,0,1.157,1.157,0,0,0-.1-.116A4.745,4.745,0,0,1,7.777.456ZM3.235,2.573a.693.693,0,1,1-.693.693.694.694,0,0,1,.693-.693Zm-2.78,5.2a4.735,4.735,0,0,1,1.972-3.7,1.158,1.158,0,0,0,.134.114A10.072,10.072,0,0,0,2.577,11.4a1.163,1.163,0,0,0-.116.1A4.745,4.745,0,0,1,.456,7.777Zm2.117,4.542a.693.693,0,1,1,.693.693.694.694,0,0,1-.693-.693Zm5.2,2.78a4.735,4.735,0,0,1-3.7-1.972,1.157,1.157,0,0,0,.114-.134,10.077,10.077,0,0,0,7.165,0,1.159,1.159,0,0,0,.114.134A4.735,4.735,0,0,1,7.777,15.1Zm4.511-2.087a.693.693,0,1,1,.693-.693A.694.694,0,0,1,12.288,13.012Zm.8-1.512a1.159,1.159,0,0,0-.116-.1,10.072,10.072,0,0,0,.016-7.206,1.155,1.155,0,0,0,.134-.114,4.735,4.735,0,0,1,1.972,3.7A4.745,4.745,0,0,1,13.093,11.5Z" fill="#fff"/>
    </g>
  </g>
</svg>
