<svg id="Component_6_1" data-name="Component 6 – 1" xmlns="http://www.w3.org/2000/svg" width="29" height="34" viewBox="0 0 29 34">
  <g id="thumb_up-icon" transform="translate(0 14)">
    <path id="Path_7088" data-name="Path 7088" d="M0,0H20V20H0ZM0,0H20V20H0Z" fill="none"/>
    <path id="Path_7089" data-name="Path 7089" d="M10.95,1.968,6.4,6.365a1.559,1.559,0,0,0-.476,1.119v7.928A1.62,1.62,0,0,0,7.568,17h7.389a1.656,1.656,0,0,0,1.511-.96L19.143,10a2.393,2.393,0,0,0-2.266-3.317H12.239l.78-3.635a1.171,1.171,0,0,0-.337-1.087,1.251,1.251,0,0,0-1.732.008ZM2.642,17a1.62,1.62,0,0,0,1.642-1.587V9.064A1.62,1.62,0,0,0,2.642,7.476,1.62,1.62,0,0,0,1,9.064v6.349A1.62,1.62,0,0,0,2.642,17Z" fill="#fff"/>
  </g>
  <g id="thumb_up-icon-2" data-name="thumb_up-icon" transform="translate(29 20) rotate(180)">
    <path id="Path_7088-2" data-name="Path 7088" d="M0,0H20V20H0ZM0,0H20V20H0Z" fill="rgba(0,0,0,0)"/>
    <path id="Path_7089-2" data-name="Path 7089" d="M10.95,1.968,6.4,6.365a1.559,1.559,0,0,0-.476,1.119v7.928A1.62,1.62,0,0,0,7.568,17h7.389a1.656,1.656,0,0,0,1.511-.96L19.143,10a2.393,2.393,0,0,0-2.266-3.317H12.239l.78-3.635a1.171,1.171,0,0,0-.337-1.087,1.251,1.251,0,0,0-1.732.008ZM2.642,17a1.62,1.62,0,0,0,1.642-1.587V9.064A1.62,1.62,0,0,0,2.642,7.476,1.62,1.62,0,0,0,1,9.064v6.349A1.62,1.62,0,0,0,2.642,17Z" fill="#fff"/>
  </g>
</svg>
