<svg id="cx_platform" data-name="cx platform" xmlns="http://www.w3.org/2000/svg" width="24" height="24" viewBox="0 0 24 24">
  <g id="Group_6804" data-name="Group 6804" transform="translate(-493 -81)">
    <g id="growth_1_" data-name="growth (1)" transform="translate(493 81)">
      <path id="Path_4737" data-name="Path 4737" d="M24,12A12,12,0,1,1,12,0,12,12,0,0,1,24,12Zm0,0" fill="#223cff"/>
    </g>
  </g>
  <g id="Page-1" transform="translate(5 5)">
    <g id="_036---Browser-Survey" data-name="036---Browser-Survey">
      <path id="Shape" d="M12.268,0H1.115A1.117,1.117,0,0,0,0,1.115V12.268a1.117,1.117,0,0,0,1.115,1.115H12.268a1.117,1.117,0,0,0,1.115-1.115V1.115A1.117,1.117,0,0,0,12.268,0ZM1.115.446H12.268a.67.67,0,0,1,.669.669V2.677H.446V1.115A.67.67,0,0,1,1.115.446ZM12.268,12.937H1.115a.67.67,0,0,1-.669-.669V3.123H12.937v9.145A.67.67,0,0,1,12.268,12.937Z" fill="#fff"/>
      <path id="Shape-2" data-name="Shape" d="M4.669,5.338A.669.669,0,1,0,4,4.669.669.669,0,0,0,4.669,5.338Zm0-.892a.223.223,0,1,1-.223.223A.223.223,0,0,1,4.669,4.446Z" transform="translate(-3.108 -3.108)" fill="#fff"/>
      <path id="Shape-3" data-name="Shape" d="M12.669,5.338A.669.669,0,1,0,12,4.669.669.669,0,0,0,12.669,5.338Zm0-.892a.223.223,0,1,1-.223.223A.223.223,0,0,1,12.669,4.446Z" transform="translate(-9.323 -3.108)" fill="#fff"/>
      <path id="Shape-4" data-name="Shape" d="M20.669,5.338A.669.669,0,1,0,20,4.669.669.669,0,0,0,20.669,5.338Zm0-.892a.223.223,0,1,1-.223.223A.223.223,0,0,1,20.669,4.446Z" transform="translate(-15.539 -3.108)" fill="#fff"/>
      <path id="Shape-5" data-name="Shape" d="M11.007,17a2.007,2.007,0,1,0,2.007,2.007A2.007,2.007,0,0,0,11.007,17Zm0,3.569a1.561,1.561,0,1,1,1.561-1.561A1.561,1.561,0,0,1,11.007,20.569Z" transform="translate(-6.993 -13.208)" fill="#fff"/>
      <path id="Shape-6" data-name="Shape" d="M11.007,37a2.007,2.007,0,1,0,2.007,2.007A2.007,2.007,0,0,0,11.007,37Zm0,3.569a1.561,1.561,0,1,1,1.561-1.561A1.561,1.561,0,0,1,11.007,40.569Z" transform="translate(-6.993 -28.747)" fill="#fff"/>
      <ellipse id="Oval" cx="0.5" rx="0.5" transform="translate(3 5)" fill="#fff"/>
      <circle id="Oval-2" data-name="Oval" transform="translate(5 5)" fill="#fff"/>
      <path id="Shape-7" data-name="Shape" d="M16.289,26.8a.224.224,0,0,0-.293.118.225.225,0,0,1-.048.071.222.222,0,0,1-.071.048.223.223,0,0,1-.293-.119.223.223,0,1,0-.411.174.67.67,0,0,0,1.233,0A.223.223,0,0,0,16.289,26.8Z" transform="translate(-11.776 -20.805)" fill="#fff"/>
      <ellipse id="Oval-3" data-name="Oval" cx="0.5" rx="0.5" transform="translate(3 10)" fill="#fff"/>
      <circle id="Oval-4" data-name="Oval" transform="translate(5 10)" fill="#fff"/>
      <path id="Shape-8" data-name="Shape" d="M16.264,47.2a.663.663,0,0,0-.213-.144.674.674,0,0,0-.521,0,.662.662,0,0,0-.213.143.671.671,0,0,0-.143.212.223.223,0,1,0,.411.174.225.225,0,0,1,.048-.071.222.222,0,0,1,.071-.048.223.223,0,0,1,.293.119.223.223,0,0,0,.411-.174A.67.67,0,0,0,16.264,47.2Z" transform="translate(-11.776 -36.518)" fill="#fff"/>
      <path id="Shape-9" data-name="Shape" d="M36.346,19.784a.223.223,0,0,0-.223.223V20.9a.223.223,0,0,1-.223.223h-2.23a.223.223,0,0,1-.223-.223v-2.23a.223.223,0,0,1,.223-.223H35.9a.223.223,0,0,0,0-.446h-2.23a.67.67,0,0,0-.669.669V20.9a.67.67,0,0,0,.669.669H35.9a.67.67,0,0,0,.669-.669v-.892A.223.223,0,0,0,36.346,19.784Z" transform="translate(-25.639 -13.985)" fill="#fff"/>
      <path id="Shape-10" data-name="Shape" d="M35.9,38h-2.23a.67.67,0,0,0-.669.669V40.9a.67.67,0,0,0,.669.669H35.9a.67.67,0,0,0,.669-.669v-2.23A.67.67,0,0,0,35.9,38Zm.223,2.9a.223.223,0,0,1-.223.223h-2.23a.223.223,0,0,1-.223-.223v-2.23a.223.223,0,0,1,.223-.223H35.9a.223.223,0,0,1,.223.223Z" transform="translate(-25.639 -29.524)" fill="#fff"/>
      <path id="Shape-11" data-name="Shape" d="M39.975,18.075,37.9,20.148l-.511-.511a.223.223,0,0,0-.315.315l.669.669a.223.223,0,0,0,.315,0l2.23-2.23a.223.223,0,0,0-.315-.315Z" transform="translate(-28.757 -13.995)" fill="#fff"/>
    </g>
  </g>
</svg>
