<svg xmlns="http://www.w3.org/2000/svg" xmlns:xlink="http://www.w3.org/1999/xlink" width="272.374" height="314.946" viewBox="0 0 272.374 314.946">
  <defs>
    <filter id="Path" x="0" y="20.065" width="272.374" height="294.881" filterUnits="userSpaceOnUse">
      <feOffset dy="38" input="SourceAlpha"/>
      <feGaussianBlur stdDeviation="25.5" result="blur"/>
      <feFlood flood-color="#0f263b" flood-opacity="0.447"/>
      <feComposite operator="in" in2="blur"/>
      <feComposite in="SourceGraphic"/>
    </filter>
  </defs>
  <g id="Group_7901" data-name="Group 7901" transform="translate(-270.416 -4793.856)">
    <rect id="Rectangle_3685" data-name="Rectangle 3685" width="256.415" height="253.851" rx="126.926" transform="matrix(1, 0.017, -0.017, 1, 280.527, 4793.856)" fill="#fff" opacity="0.709"/>
    <rect id="Rectangle_3686" data-name="Rectangle 3686" width="176.008" height="173.444" rx="86.722" transform="matrix(1, 0.017, -0.017, 1, 320.124, 4834.856)" fill="#35b37f"/>
    <g transform="matrix(1, 0, 0, 1, 270.42, 4793.86)" filter="url(#Path)">
      <path id="Path-2" data-name="Path" d="M65.3.579l50.023,10.438a5.065,5.065,0,0,1,4.051,4.944V82.65q-2.817,20.188-14.076,31.7Q94.436,125.46,67.454,139.8l-.547.29a15.446,15.446,0,0,1-14.44,0l-1.09-.579q-26.549-14.162-37.3-25.157Q2.933,102.957.059,83.066L0,82.65V15.96a5.063,5.063,0,0,1,3.925-4.916l.126-.028L54.074.579A27.487,27.487,0,0,1,65.3.579Z" transform="translate(76.5 58.57)" fill="#fff"/>
    </g>
    <g id="Component_17" data-name="Component 17" transform="translate(363.648 4883.551)">
      <g id="Group_2962" data-name="Group 2962">
        <path id="Fill-214" d="M94.884,34.684a1.442,1.442,0,1,1,1.441,1.437,1.44,1.44,0,0,1-1.441-1.437" transform="translate(-11.919 -5.583)" fill="#02193b" fill-rule="evenodd"/>
        <g id="Group-252" transform="translate(83.33 31.831)">
          <path id="Fill-250" d="M.14,1.974A1.442,1.442,0,1,1,1.582,3.413,1.44,1.44,0,0,1,.14,1.974" transform="translate(-0.14 -0.537)" fill="#2684ff" fill-rule="evenodd"/>
        </g>
        <path id="Fill-275" d="M95.984,36.881a.961.961,0,1,1,.962.959.961.961,0,0,1-.962-.959" transform="translate(-12.058 -5.919)" fill="#02193b" fill-rule="evenodd"/>
        <path id="Fill-457" d="M95.626,41.683A1.274,1.274,0,1,1,96.9,42.954a1.272,1.272,0,0,1-1.273-1.271" transform="translate(-12.013 -6.483)" fill="#2684ff" fill-rule="evenodd"/>
        <path id="Fill-459" d="M96.129,43.653a.984.984,0,1,1,.984.981.982.982,0,0,1-.984-.981" transform="translate(-12.076 -6.767)" fill="#2684ff" fill-rule="evenodd"/>
        <path id="Fill-505" d="M96.228,45.322a.748.748,0,1,1,.747.745.747.747,0,0,1-.747-.745" transform="translate(-12.088 -7.006)" fill="#2684ff" fill-rule="evenodd"/>
        <path id="Fill-1" d="M74.892,52.3a2.434,2.434,0,1,1,2.436,2.427A2.431,2.431,0,0,1,74.892,52.3" transform="translate(-9.408 -7.671)" fill="#02193b" fill-rule="evenodd"/>
        <path id="Fill-3" d="M47.091,70.329a3.674,3.674,0,1,1,3.672,3.663,3.668,3.668,0,0,1-3.672-3.663" transform="translate(-5.916 -9.781)" fill="#2684ff" fill-rule="evenodd"/>
        <path id="Fill-5" d="M63.964,68.186a3.6,3.6,0,1,1,3.6,3.593,3.6,3.6,0,0,1-3.6-3.593" transform="translate(-8.035 -9.521)" fill="#2684ff" fill-rule="evenodd"/>
        <path id="Fill-7" d="M74.8,10.782a3.8,3.8,0,1,1,3.8,3.791,3.8,3.8,0,0,1-3.8-3.791" transform="translate(-9.397 -2.285)" fill="#2684ff" fill-rule="evenodd"/>
        <path id="Fill-9" d="M84.169,62.152A2.454,2.454,0,1,1,86.623,64.6a2.45,2.45,0,0,1-2.454-2.447" transform="translate(-10.573 -8.907)" fill="#2684ff" fill-rule="evenodd"/>
        <path id="Fill-11" d="M68.538,11.3a2.572,2.572,0,1,1,2.572,2.565A2.568,2.568,0,0,1,68.538,11.3" transform="translate(-8.61 -2.504)" fill="#2684ff" fill-rule="evenodd"/>
        <path id="Fill-13" d="M62.63,9.716a1.924,1.924,0,1,1,1.924,1.919A1.923,1.923,0,0,1,62.63,9.716" transform="translate(-7.868 -2.386)" fill="#2684ff" fill-rule="evenodd"/>
        <path id="Fill-15" d="M78.442,49.243a2.431,2.431,0,1,1,2.431,2.426,2.428,2.428,0,0,1-2.431-2.426" transform="translate(-9.854 -7.288)" fill="#2684ff" fill-rule="evenodd"/>
        <path id="Fill-17" d="M61.511,60.664a2.4,2.4,0,1,1,2.4,2.4,2.4,2.4,0,0,1-2.4-2.4" transform="translate(-7.727 -8.726)" fill="#2684ff" fill-rule="evenodd"/>
        <path id="Fill-19" d="M37.894,54.227a2.288,2.288,0,1,1,2.288,2.281,2.284,2.284,0,0,1-2.288-2.281" transform="translate(-4.76 -7.932)" fill="#2684ff" fill-rule="evenodd"/>
        <path id="Fill-21" d="M57.408,62.019A1.788,1.788,0,1,1,59.2,63.8a1.784,1.784,0,0,1-1.788-1.783" transform="translate(-7.212 -8.973)" fill="#02193b" fill-rule="evenodd"/>
        <path id="Fill-23" d="M89.6,83.789a1.788,1.788,0,1,1,1.788,1.783A1.786,1.786,0,0,1,89.6,83.789" transform="translate(-11.256 -11.708)" fill="#2684ff" fill-rule="evenodd"/>
        <path id="Fill-25" d="M31.356,66.414a1.788,1.788,0,1,1,1.79,1.783,1.786,1.786,0,0,1-1.79-1.783" transform="translate(-3.939 -9.525)" fill="#2684ff" fill-rule="evenodd"/>
        <path id="Fill-27" d="M27.024,22.539a1.635,1.635,0,1,1,1.635,1.63,1.631,1.631,0,0,1-1.635-1.63" transform="translate(-3.395 -4.033)" fill="#2684ff" fill-rule="evenodd"/>
        <path id="Fill-29" d="M14.39,21.935a1.352,1.352,0,1,1,1.352,1.348,1.351,1.351,0,0,1-1.352-1.348" transform="translate(-1.808 -3.993)" fill="#2684ff" fill-rule="evenodd"/>
        <path id="Fill-31" d="M81.417,37.212a1.7,1.7,0,1,1,1.7,1.7,1.7,1.7,0,0,1-1.7-1.7" transform="translate(-10.228 -5.868)" fill="#2684ff" fill-rule="evenodd"/>
        <path id="Fill-33" d="M10.155,36.09a1.4,1.4,0,1,1,1.4,1.395,1.4,1.4,0,0,1-1.4-1.395" transform="translate(-1.276 -5.765)" fill="#2684ff" fill-rule="evenodd"/>
        <path id="Fill-35" d="M13.853,41.815a1.4,1.4,0,1,1,1.4,1.393,1.4,1.4,0,0,1-1.4-1.393" transform="translate(-1.741 -6.484)" fill="#02193b" fill-rule="evenodd"/>
        <path id="Fill-37" d="M54.162,8.477a1.432,1.432,0,1,1,1.433,1.429,1.43,1.43,0,0,1-1.433-1.429" transform="translate(-6.804 -2.292)" fill="#2684ff" fill-rule="evenodd"/>
        <path id="Fill-39" d="M15.5,27.353a1.456,1.456,0,1,1,1.455,1.452A1.454,1.454,0,0,1,15.5,27.353" transform="translate(-1.947 -4.66)" fill="#2684ff" fill-rule="evenodd"/>
        <path id="Fill-41" d="M69.144,57.052a2.042,2.042,0,1,1,2.042,2.037,2.039,2.039,0,0,1-2.042-2.037" transform="translate(-8.686 -8.318)" fill="#2684ff" fill-rule="evenodd"/>
        <path id="Fill-43" d="M91.648,81.838a2.043,2.043,0,1,1,2.044,2.036,2.039,2.039,0,0,1-2.044-2.036" transform="translate(-11.513 -11.431)" fill="#2684ff" fill-rule="evenodd"/>
        <path id="Fill-45" d="M79.488,88.759a2.063,2.063,0,1,1,2.062,2.056,2.058,2.058,0,0,1-2.062-2.056" transform="translate(-9.985 -12.298)" fill="#2684ff" fill-rule="evenodd"/>
        <path id="Fill-47" d="M35.1,28.325a1.6,1.6,0,1,1,1.6,1.6,1.6,1.6,0,0,1-1.6-1.6" transform="translate(-4.409 -4.764)" fill="#2684ff" fill-rule="evenodd"/>
        <path id="Fill-49" d="M57.718,16.584a2.907,2.907,0,1,1,2.908,2.9,2.9,2.9,0,0,1-2.908-2.9" transform="translate(-7.251 -3.126)" fill="#02193b" fill-rule="evenodd"/>
        <path id="Fill-51" d="M83.93,73.132A3.18,3.18,0,1,1,87.11,76.3a3.175,3.175,0,0,1-3.18-3.171" transform="translate(-10.543 -10.195)" fill="#02193b" fill-rule="evenodd"/>
        <path id="Fill-53" d="M71.064,7.3a2.929,2.929,0,1,1,2.929,2.919A2.925,2.925,0,0,1,71.064,7.3" transform="translate(-8.927 -1.957)" fill="#02193b" fill-rule="evenodd"/>
        <path id="Fill-55" d="M37.214,47.323A2.883,2.883,0,1,1,40.1,50.2a2.878,2.878,0,0,1-2.883-2.874" transform="translate(-4.675 -6.99)" fill="#02193b" fill-rule="evenodd"/>
        <path id="Fill-57" d="M70.595,60.6a2.895,2.895,0,1,1,2.9,2.887,2.891,2.891,0,0,1-2.9-2.887" transform="translate(-8.868 -8.656)" fill="#02193b" fill-rule="evenodd"/>
        <path id="Fill-59" d="M88.513,23.673A2.883,2.883,0,1,1,91.4,26.547a2.878,2.878,0,0,1-2.883-2.874" transform="translate(-11.119 -4.019)" fill="#02193b" fill-rule="evenodd"/>
        <path id="Fill-61" d="M78.968,79.15a2.094,2.094,0,1,1,2.093,2.087,2.091,2.091,0,0,1-2.093-2.087" transform="translate(-9.92 -11.087)" fill="#2684ff" fill-rule="evenodd"/>
        <path id="Fill-63" d="M20.078,53.254a1.331,1.331,0,1,1,1.33,1.327,1.329,1.329,0,0,1-1.33-1.327" transform="translate(-2.522 -7.929)" fill="#2684ff" fill-rule="evenodd"/>
        <path id="Fill-65" d="M17.95,49.216a.915.915,0,1,1,.914.911.913.913,0,0,1-.914-.911" transform="translate(-2.255 -7.474)" fill="#02193b" fill-rule="evenodd"/>
        <path id="Fill-67" d="M14.757,52.918a1.3,1.3,0,1,1,1.3,1.3,1.3,1.3,0,0,1-1.3-1.3" transform="translate(-1.854 -7.891)" fill="#2684ff" fill-rule="evenodd"/>
        <path id="Fill-69" d="M30.028,61.116A2.094,2.094,0,1,1,32.121,63.2a2.09,2.09,0,0,1-2.093-2.087" transform="translate(-3.772 -8.822)" fill="#02193b" fill-rule="evenodd"/>
        <path id="Fill-71" d="M55.485,3.789A2.113,2.113,0,1,1,57.6,5.9a2.11,2.11,0,0,1-2.113-2.106" transform="translate(-6.97 -1.618)" fill="#02193b" fill-rule="evenodd"/>
        <path id="Fill-73" d="M74.989,68.354a2.429,2.429,0,1,1,2.43,2.423,2.426,2.426,0,0,1-2.43-2.423" transform="translate(-9.42 -9.689)" fill="#02193b" fill-rule="evenodd"/>
        <path id="Fill-75" d="M47.921,16.908a2.037,2.037,0,1,1,2.036,2.03,2.033,2.033,0,0,1-2.036-2.03" transform="translate(-6.02 -3.275)" fill="#02193b" fill-rule="evenodd"/>
        <path id="Fill-77" d="M51.679,72.665a2.584,2.584,0,1,1,2.585,2.577,2.58,2.58,0,0,1-2.585-2.577" transform="translate(-6.492 -10.211)" fill="#02193b" fill-rule="evenodd"/>
        <path id="Fill-79" d="M90.3,79.18A1.923,1.923,0,1,1,92.223,81.1,1.919,1.919,0,0,1,90.3,79.18" transform="translate(-11.344 -11.112)" fill="#02193b" fill-rule="evenodd"/>
        <path id="Fill-81" d="M36.215,25.522A1.282,1.282,0,1,1,37.5,26.8a1.281,1.281,0,0,1-1.282-1.278" transform="translate(-4.55 -4.452)" fill="#02193b" fill-rule="evenodd"/>
        <path id="Fill-83" d="M12.683,49.154a1.282,1.282,0,1,1,1.282,1.28,1.28,1.28,0,0,1-1.282-1.28" transform="translate(-1.593 -7.421)" fill="#2684ff" fill-rule="evenodd"/>
        <path id="Fill-85" d="M56.422,12.559a1.282,1.282,0,1,1,1.282,1.28,1.28,1.28,0,0,1-1.282-1.28" transform="translate(-7.088 -2.824)" fill="#02193b" fill-rule="evenodd"/>
        <path id="Fill-87" d="M79.151,71.913a1.305,1.305,0,1,1,1.306,1.3,1.3,1.3,0,0,1-1.306-1.3" transform="translate(-9.943 -10.277)" fill="#02193b" fill-rule="evenodd"/>
        <path id="Fill-89" d="M85.251,14.527A1.646,1.646,0,1,1,86.9,16.167a1.643,1.643,0,0,1-1.646-1.641" transform="translate(-10.709 -3.025)" fill="#02193b" fill-rule="evenodd"/>
        <path id="Fill-91" d="M53.138,3.515a1.441,1.441,0,1,1,1.44,1.436,1.44,1.44,0,0,1-1.44-1.436" transform="translate(-6.675 -1.668)" fill="#02193b" fill-rule="evenodd"/>
        <path id="Fill-93" d="M63.26,73.638a1.283,1.283,0,1,1,1.282,1.278,1.28,1.28,0,0,1-1.282-1.278" transform="translate(-7.947 -10.496)" fill="#02193b" fill-rule="evenodd"/>
        <path id="Fill-95" d="M41.342,21.929a1.609,1.609,0,1,1,1.609,1.606,1.607,1.607,0,0,1-1.609-1.606" transform="translate(-5.194 -3.96)" fill="#02193b" fill-rule="evenodd"/>
        <path id="Fill-97" d="M88.833,85.324A1.283,1.283,0,1,1,90.116,86.6a1.28,1.28,0,0,1-1.283-1.278" transform="translate(-11.159 -11.964)" fill="#02193b" fill-rule="evenodd"/>
        <path id="Fill-99" d="M55.075,18.835a1.47,1.47,0,1,1,1.47,1.465,1.467,1.467,0,0,1-1.47-1.465" transform="translate(-6.919 -3.589)" fill="#02193b" fill-rule="evenodd"/>
        <path id="Fill-101" d="M71.932,65.934a1.447,1.447,0,1,1,1.446,1.443,1.445,1.445,0,0,1-1.446-1.443" transform="translate(-9.036 -9.508)" fill="#02193b" fill-rule="evenodd"/>
        <path id="Fill-103" d="M44.487,60.127a1.282,1.282,0,1,1,1.282,1.28,1.28,1.28,0,0,1-1.282-1.28" transform="translate(-5.589 -8.799)" fill="#02193b" fill-rule="evenodd"/>
        <path id="Fill-105" d="M13.986,16.117a1.283,1.283,0,1,1,1.283,1.28,1.28,1.28,0,0,1-1.283-1.28" transform="translate(-1.757 -3.271)" fill="#02193b" fill-rule="evenodd"/>
        <path id="Fill-107" d="M5.08,51.987a1.282,1.282,0,1,1,1.282,1.28,1.28,1.28,0,0,1-1.282-1.28" transform="translate(-0.638 -7.776)" fill="#2684ff" fill-rule="evenodd"/>
        <path id="Fill-109" d="M.12,58.832A1.283,1.283,0,1,1,1.4,60.112,1.28,1.28,0,0,1,.12,58.832" transform="translate(-0.015 -8.636)" fill="#02193b" fill-rule="evenodd"/>
        <path id="Fill-111" d="M40.876,63.4a1.282,1.282,0,1,1,1.282,1.278A1.281,1.281,0,0,1,40.876,63.4" transform="translate(-5.135 -9.21)" fill="#02193b" fill-rule="evenodd"/>
        <path id="Fill-113" d="M75.884,26.957a1.283,1.283,0,1,1,1.282,1.278,1.281,1.281,0,0,1-1.282-1.278" transform="translate(-9.533 -4.632)" fill="#02193b" fill-rule="evenodd"/>
        <path id="Fill-115" d="M22.444,58.242a1.282,1.282,0,1,1,1.282,1.278,1.279,1.279,0,0,1-1.282-1.278" transform="translate(-2.82 -8.562)" fill="#02193b" fill-rule="evenodd"/>
        <path id="Fill-117" d="M32.1,22.48a1.479,1.479,0,1,1,1.479,1.474A1.477,1.477,0,0,1,32.1,22.48" transform="translate(-4.033 -4.045)" fill="#02193b" fill-rule="evenodd"/>
        <path id="Fill-119" d="M7.636,18.044a1.029,1.029,0,1,1,1.028,1.025,1.028,1.028,0,0,1-1.028-1.025" transform="translate(-0.96 -3.544)" fill="#b3d4ff" fill-rule="evenodd"/>
        <path id="Fill-121" d="M46.23,11.069a1.479,1.479,0,1,1,1.479,1.475,1.478,1.478,0,0,1-1.479-1.475" transform="translate(-5.807 -2.612)" fill="#2684ff" fill-rule="evenodd"/>
        <path id="Fill-123" d="M73.628,53.288a1.282,1.282,0,1,1,1.282,1.278,1.281,1.281,0,0,1-1.282-1.278" transform="translate(-9.249 -7.94)" fill="#2684ff" fill-rule="evenodd"/>
        <path id="Fill-125" d="M42.259,17.4a1.283,1.283,0,1,1,1.282,1.28,1.28,1.28,0,0,1-1.282-1.28" transform="translate(-5.309 -3.432)" fill="#02193b" fill-rule="evenodd"/>
        <path id="Fill-127" d="M77.275,64.006a1.458,1.458,0,1,1,1.458,1.454,1.456,1.456,0,0,1-1.458-1.454" transform="translate(-9.707 -9.264)" fill="#02193b" fill-rule="evenodd"/>
        <path id="Fill-129" d="M85.733,54.463a1.6,1.6,0,1,1,1.6,1.6,1.6,1.6,0,0,1-1.6-1.6" transform="translate(-10.77 -8.047)" fill="#02193b" fill-rule="evenodd"/>
        <path id="Fill-131" d="M66.86,57.783a1.282,1.282,0,1,1,1.282,1.278,1.281,1.281,0,0,1-1.282-1.278" transform="translate(-8.399 -8.504)" fill="#02193b" fill-rule="evenodd"/>
        <path id="Fill-133" d="M60.919,11.744A1.461,1.461,0,1,1,62.38,13.2a1.459,1.459,0,0,1-1.461-1.458" transform="translate(-7.653 -2.699)" fill="#02193b" fill-rule="evenodd"/>
        <path id="Fill-135" d="M79.749,38.072a1.273,1.273,0,1,1,1.272,1.268,1.27,1.27,0,0,1-1.272-1.268" transform="translate(-10.018 -6.03)" fill="#b3d4ff" fill-rule="evenodd"/>
        <path id="Fill-137" d="M81.846,74.47a1.283,1.283,0,1,1,1.282,1.278,1.28,1.28,0,0,1-1.282-1.278" transform="translate(-10.282 -10.601)" fill="#02193b" fill-rule="evenodd"/>
        <path id="Fill-139" d="M43.615,53.971a2.18,2.18,0,1,1,2.18,2.172,2.177,2.177,0,0,1-2.18-2.172" transform="translate(-5.479 -7.913)" fill="#02193b" fill-rule="evenodd"/>
        <path id="Fill-141" d="M10.287,62.256a1.219,1.219,0,1,1,1.218,1.216,1.217,1.217,0,0,1-1.218-1.216" transform="translate(-1.293 -9.074)" fill="#02193b" fill-rule="evenodd"/>
        <path id="Fill-143" d="M20.294,68a1.461,1.461,0,1,1,1.461,1.457A1.459,1.459,0,0,1,20.294,68" transform="translate(-2.55 -9.766)" fill="#02193b" fill-rule="evenodd"/>
        <path id="Fill-145" d="M19.229,17.988a2.18,2.18,0,1,1,2.18,2.174,2.177,2.177,0,0,1-2.18-2.174" transform="translate(-2.416 -3.393)" fill="#02193b" fill-rule="evenodd"/>
        <path id="Fill-147" d="M47.023,56.229a1.923,1.923,0,1,1,1.922,1.918,1.919,1.919,0,0,1-1.922-1.918" transform="translate(-5.907 -8.229)" fill="#02193b" fill-rule="evenodd"/>
        <path id="Fill-149" d="M50.235,57.285a1.507,1.507,0,1,1,1.506,1.5,1.5,1.5,0,0,1-1.506-1.5" transform="translate(-6.311 -8.414)" fill="#02193b" fill-rule="evenodd"/>
        <path id="Fill-151" d="M40.438,27.834a2.151,2.151,0,1,1,2.151,2.144,2.148,2.148,0,0,1-2.151-2.144" transform="translate(-5.08 -4.634)" fill="#2684ff" fill-rule="evenodd"/>
        <g id="Group-155" transform="translate(51.751)">
          <path id="Fill-153" d="M1.122,3.545A2.433,2.433,0,1,1,3.555,5.97,2.429,2.429,0,0,1,1.122,3.545" transform="translate(-1.122 -1.119)" fill="#2684ff" fill-rule="evenodd"/>
        </g>
        <path id="Fill-156" d="M63.866,2.962a1.282,1.282,0,1,1,1.282,1.28,1.279,1.279,0,0,1-1.282-1.28" transform="translate(-8.023 -1.618)" fill="#02193b" fill-rule="evenodd"/>
        <path id="Fill-158" d="M88.8,28.218a3.6,3.6,0,1,1,3.6,3.593,3.6,3.6,0,0,1-3.6-3.593" transform="translate(-11.155 -4.5)" fill="#2684ff" fill-rule="evenodd"/>
        <path id="Fill-160" d="M90.7,45.116a3.11,3.11,0,1,1,3.11,3.1,3.1,3.1,0,0,1-3.11-3.1" transform="translate(-11.394 -6.684)" fill="#02193b" fill-rule="evenodd"/>
        <path id="Fill-162" d="M91.8,48.7a2.4,2.4,0,1,1,2.4,2.4,2.4,2.4,0,0,1-2.4-2.4" transform="translate(-11.532 -7.223)" fill="#2684ff" fill-rule="evenodd"/>
        <path id="Fill-164" d="M89.485,49.654a1.5,1.5,0,1,1,1.5,1.5,1.5,1.5,0,0,1-1.5-1.5" transform="translate(-11.241 -7.456)" fill="#02193b" fill-rule="evenodd"/>
        <path id="Fill-166" d="M92.476,51.947A1.558,1.558,0,1,1,94.033,53.5a1.555,1.555,0,0,1-1.557-1.552" transform="translate(-11.617 -7.737)" fill="#02193b" fill-rule="evenodd"/>
        <path id="Fill-168" d="M77.941,21.782A2.424,2.424,0,1,1,80.367,24.2a2.421,2.421,0,0,1-2.426-2.417" transform="translate(-9.791 -3.839)" fill="#2684ff" fill-rule="evenodd"/>
        <path id="Fill-170" d="M37.415,8.842a2.424,2.424,0,1,1,2.426,2.417,2.421,2.421,0,0,1-2.426-2.417" transform="translate(-4.7 -2.214)" fill="#2684ff" fill-rule="evenodd"/>
        <path id="Fill-172" d="M40.257,68.7a1.6,1.6,0,1,1,1.6,1.6,1.6,1.6,0,0,1-1.6-1.6" transform="translate(-5.057 -9.836)" fill="#2684ff" fill-rule="evenodd"/>
        <path id="Fill-174" d="M89.094,54.97a2.375,2.375,0,1,1,2.375,2.368,2.371,2.371,0,0,1-2.375-2.368" transform="translate(-11.192 -8.014)" fill="#b3d4ff" fill-rule="evenodd"/>
        <path id="Fill-176" d="M86.021,34.986a2.213,2.213,0,1,1,2.213,2.206,2.21,2.21,0,0,1-2.213-2.206" transform="translate(-10.806 -5.524)" fill="#b3d4ff" fill-rule="evenodd"/>
        <path id="Fill-178" d="M63.4,62.487a2.182,2.182,0,1,1,2.182,2.175A2.178,2.178,0,0,1,63.4,62.487" transform="translate(-7.965 -8.983)" fill="#b3d4ff" fill-rule="evenodd"/>
        <path id="Fill-180" d="M15.337,58.634a1.5,1.5,0,1,1,1.5,1.495,1.5,1.5,0,0,1-1.5-1.495" transform="translate(-1.927 -8.584)" fill="#b3d4ff" fill-rule="evenodd"/>
        <path id="Fill-182" d="M84.043,50.654A2.162,2.162,0,1,1,86.2,52.809a2.159,2.159,0,0,1-2.162-2.156" transform="translate(-10.558 -7.499)" fill="#b3d4ff" fill-rule="evenodd"/>
        <path id="Fill-184" d="M69.528,71.21a2.391,2.391,0,1,1,2.39,2.385,2.387,2.387,0,0,1-2.39-2.385" transform="translate(-8.734 -10.052)" fill="#b3d4ff" fill-rule="evenodd"/>
        <path id="Fill-186" d="M80.658,26.151a2.162,2.162,0,1,1,2.162,2.156,2.159,2.159,0,0,1-2.162-2.156" transform="translate(-10.132 -4.421)" fill="#b3d4ff" fill-rule="evenodd"/>
        <path id="Fill-188" d="M21.138,23.716A2.162,2.162,0,1,1,23.3,25.871a2.159,2.159,0,0,1-2.162-2.156" transform="translate(-2.656 -4.115)" fill="#b3d4ff" fill-rule="evenodd"/>
        <path id="Fill-190" d="M20.143,37.26a2.227,2.227,0,1,1,2.227,2.22,2.224,2.224,0,0,1-2.227-2.22" transform="translate(-2.531 -5.808)" fill="#b3d4ff" fill-rule="evenodd"/>
        <path id="Fill-192" d="M38.148,20.277a2.161,2.161,0,1,1,2.162,2.156,2.159,2.159,0,0,1-2.162-2.156" transform="translate(-4.792 -3.683)" fill="#b3d4ff" fill-rule="evenodd"/>
        <path id="Fill-194" d="M40.09,59.4a1.749,1.749,0,1,1,1.749,1.745A1.747,1.747,0,0,1,40.09,59.4" transform="translate(-5.036 -8.649)" fill="#b3d4ff" fill-rule="evenodd"/>
        <path id="Fill-196" d="M82.742,57.492A2.162,2.162,0,1,1,84.9,59.648a2.159,2.159,0,0,1-2.162-2.156" transform="translate(-10.394 -8.358)" fill="#b3d4ff" fill-rule="evenodd"/>
        <path id="Fill-198" d="M80.075,60.582a2.162,2.162,0,1,1,2.162,2.156,2.159,2.159,0,0,1-2.162-2.156" transform="translate(-10.059 -8.746)" fill="#b3d4ff" fill-rule="evenodd"/>
        <path id="Fill-200" d="M61.788,70.55a2.161,2.161,0,1,1,2.161,2.156,2.159,2.159,0,0,1-2.161-2.156" transform="translate(-7.762 -9.998)" fill="#b3d4ff" fill-rule="evenodd"/>
        <path id="Fill-202" d="M49.912,13.62a2.162,2.162,0,1,1,2.162,2.156,2.159,2.159,0,0,1-2.162-2.156" transform="translate(-6.27 -2.847)" fill="#b3d4ff" fill-rule="evenodd"/>
        <path id="Fill-204" d="M64.942,58.586a1.552,1.552,0,1,1,1.553,1.547,1.549,1.549,0,0,1-1.553-1.547" transform="translate(-8.158 -8.572)" fill="#b3d4ff" fill-rule="evenodd"/>
        <path id="Fill-206" d="M7.827,43.575A1.529,1.529,0,1,1,9.357,45.1a1.526,1.526,0,0,1-1.53-1.524" transform="translate(-0.983 -6.689)" fill="#2684ff" fill-rule="evenodd"/>
        <path id="Fill-208" d="M42.738,13.749a1.442,1.442,0,1,1,1.441,1.437,1.439,1.439,0,0,1-1.441-1.437" transform="translate(-5.369 -2.953)" fill="#b3d4ff" fill-rule="evenodd"/>
        <path id="Fill-210" d="M31.334,40.479a1.443,1.443,0,1,1,1.443,1.437,1.439,1.439,0,0,1-1.443-1.437" transform="translate(-3.936 -6.311)" fill="#b3d4ff" fill-rule="evenodd"/>
        <path id="Fill-212" d="M41.655,49.557a1.479,1.479,0,1,1,1.479,1.474,1.476,1.476,0,0,1-1.479-1.474" transform="translate(-5.233 -7.447)" fill="#2684ff" fill-rule="evenodd"/>
        <path id="Fill-216" d="M85.07,30.032a2.141,2.141,0,1,1,2.142,2.134,2.139,2.139,0,0,1-2.142-2.134" transform="translate(-10.687 -4.911)" fill="#b3d4ff" fill-rule="evenodd"/>
        <path id="Fill-218" d="M51.612,18.628A2.179,2.179,0,1,1,53.791,20.8a2.174,2.174,0,0,1-2.179-2.172" transform="translate(-6.484 -3.474)" fill="#b3d4ff" fill-rule="evenodd"/>
        <path id="Fill-220" d="M45.058,63.654A1.442,1.442,0,1,1,46.5,65.091a1.439,1.439,0,0,1-1.441-1.437" transform="translate(-5.66 -9.222)" fill="#b3d4ff" fill-rule="evenodd"/>
        <path id="Fill-222" d="M43.114,6.779A1.484,1.484,0,1,1,44.6,8.258a1.483,1.483,0,0,1-1.485-1.479" transform="translate(-5.416 -2.072)" fill="#b3d4ff" fill-rule="evenodd"/>
        <path id="Fill-224" d="M72.436,14.18a1.442,1.442,0,1,1,1.441,1.438,1.44,1.44,0,0,1-1.441-1.438" transform="translate(-9.1 -3.007)" fill="#b3d4ff" fill-rule="evenodd"/>
        <path id="Fill-226" d="M55.488,58.875a1.468,1.468,0,1,1,1.468,1.464,1.466,1.466,0,0,1-1.468-1.464" transform="translate(-6.971 -8.618)" fill="#2684ff" fill-rule="evenodd"/>
        <path id="Fill-228" d="M31.787,15.161a1.784,1.784,0,1,1,1.784,1.779,1.782,1.782,0,0,1-1.784-1.779" transform="translate(-3.993 -3.088)" fill="#b3d4ff" fill-rule="evenodd"/>
        <path id="Fill-230" d="M28.533,56.571a1.659,1.659,0,1,1,1.659,1.654,1.655,1.655,0,0,1-1.659-1.654" transform="translate(-3.585 -8.305)" fill="#b3d4ff" fill-rule="evenodd"/>
        <path id="Fill-232" d="M50.769,6.764a1.584,1.584,0,1,1,1.584,1.58,1.582,1.582,0,0,1-1.584-1.58" transform="translate(-6.378 -2.058)" fill="#b3d4ff" fill-rule="evenodd"/>
        <path id="Fill-234" d="M79.719,40.494a1.442,1.442,0,1,1,1.441,1.437,1.439,1.439,0,0,1-1.441-1.437" transform="translate(-10.014 -6.313)" fill="#b3d4ff" fill-rule="evenodd"/>
        <path id="Fill-236" d="M26.65,37.883a1.628,1.628,0,0,1,3.256,0,1.628,1.628,0,0,1-3.256,0" transform="translate(-3.348 -5.961)" fill="#2684ff" fill-rule="evenodd"/>
        <path id="Fill-238" d="M68.6,4.176a1.443,1.443,0,1,1,1.443,1.437A1.439,1.439,0,0,1,68.6,4.176" transform="translate(-8.618 -1.751)" fill="#b3d4ff" fill-rule="evenodd"/>
        <path id="Fill-240" d="M65.529,17.648a1.5,1.5,0,1,1,1.5,1.493,1.5,1.5,0,0,1-1.5-1.493" transform="translate(-8.232 -3.436)" fill="#b3d4ff" fill-rule="evenodd"/>
        <path id="Fill-242" d="M84.856,67.5a1.452,1.452,0,1,1,1.451,1.447A1.45,1.45,0,0,1,84.856,67.5" transform="translate(-10.66 -9.705)" fill="#2684ff" fill-rule="evenodd"/>
        <path id="Fill-244" d="M37.489,65.079a1.451,1.451,0,1,1,1.45,1.447,1.448,1.448,0,0,1-1.45-1.447" transform="translate(-4.71 -9.4)" fill="#b3d4ff" fill-rule="evenodd"/>
        <path id="Fill-246" d="M57.622,17.927A1.475,1.475,0,1,1,59.1,19.4a1.473,1.473,0,0,1-1.475-1.471" transform="translate(-7.239 -3.474)" fill="#b3d4ff" fill-rule="evenodd"/>
        <path id="Fill-248" d="M90.984,35.453a1.443,1.443,0,1,1,1.441,1.438,1.44,1.44,0,0,1-1.441-1.438" transform="translate(-11.43 -5.68)" fill="#2684ff" fill-rule="evenodd"/>
        <path id="Fill-253" d="M53.828,67.651a.984.984,0,1,1,.983.981.983.983,0,0,1-.983-.981" transform="translate(-6.762 -9.781)" fill="#b3d4ff" fill-rule="evenodd"/>
        <path id="Fill-255" d="M48.142,65.551a.979.979,0,1,1,.979.976.978.978,0,0,1-.979-.976" transform="translate(-6.048 -9.518)" fill="#b3d4ff" fill-rule="evenodd"/>
        <path id="Fill-257" d="M33.63,27.087a.962.962,0,1,1,.963.959.961.961,0,0,1-.963-.959" transform="translate(-4.225 -4.689)" fill="#b3d4ff" fill-rule="evenodd"/>
        <path id="Fill-259" d="M26.462,66.469a.962.962,0,1,1,.962.959.962.962,0,0,1-.962-.959" transform="translate(-3.324 -9.636)" fill="#b3d4ff" fill-rule="evenodd"/>
        <path id="Fill-261" d="M72.688,19.806a1.509,1.509,0,1,1,1.509,1.5,1.507,1.507,0,0,1-1.509-1.5" transform="translate(-9.131 -3.706)" fill="#02193b" fill-rule="evenodd"/>
        <path id="Fill-263" d="M63.155,66.857a1.053,1.053,0,1,1,1.052,1.05,1.051,1.051,0,0,1-1.052-1.05" transform="translate(-7.934 -9.673)" fill="#b3d4ff" fill-rule="evenodd"/>
        <path id="Fill-265" d="M52.758,57.649a1.065,1.065,0,1,1,1.065,1.062,1.063,1.063,0,0,1-1.065-1.062" transform="translate(-6.628 -8.515)" fill="#b3d4ff" fill-rule="evenodd"/>
        <path id="Fill-267" d="M90.989,76.244a.962.962,0,1,1,.963.959.962.962,0,0,1-.963-.959" transform="translate(-11.43 -10.863)" fill="#b3d4ff" fill-rule="evenodd"/>
        <path id="Fill-269" d="M38.228,50.951A1.374,1.374,0,1,1,39.6,52.322a1.373,1.373,0,0,1-1.374-1.371" transform="translate(-4.802 -7.635)" fill="#b3d4ff" fill-rule="evenodd"/>
        <path id="Fill-271" d="M43.938,50.885a.962.962,0,1,1,.962.959.961.961,0,0,1-.962-.959" transform="translate(-5.52 -7.678)" fill="#2684ff" fill-rule="evenodd"/>
        <path id="Fill-273" d="M76.3,14.948a1.737,1.737,0,1,1,1.736,1.731A1.734,1.734,0,0,1,76.3,14.948" transform="translate(-9.585 -3.067)" fill="#b3d4ff" fill-rule="evenodd"/>
        <path id="Fill-277" d="M65.588,74.6a1.137,1.137,0,1,1,1.138,1.133A1.137,1.137,0,0,1,65.588,74.6" transform="translate(-8.239 -10.635)" fill="#b3d4ff" fill-rule="evenodd"/>
        <path id="Fill-279" d="M31.466,70.7A1.137,1.137,0,1,1,32.6,71.832,1.136,1.136,0,0,1,31.466,70.7" transform="translate(-3.953 -10.145)" fill="#b3d4ff" fill-rule="evenodd"/>
        <path id="Fill-281" d="M80.127,75.618a1.249,1.249,0,1,1,1.249,1.246,1.247,1.247,0,0,1-1.249-1.246" transform="translate(-10.066 -10.749)" fill="#b3d4ff" fill-rule="evenodd"/>
        <path id="Fill-283" d="M86.59,38.078A1.23,1.23,0,1,1,87.82,39.3a1.229,1.229,0,0,1-1.23-1.226" transform="translate(-10.878 -6.036)" fill="#b3d4ff" fill-rule="evenodd"/>
        <path id="Fill-285" d="M33.533,49.773A1.072,1.072,0,1,1,34.6,50.841a1.07,1.07,0,0,1-1.072-1.069" transform="translate(-4.213 -7.525)" fill="#b3d4ff" fill-rule="evenodd"/>
        <path id="Fill-287" d="M43.127,70.558A1.648,1.648,0,1,1,44.774,72.2a1.644,1.644,0,0,1-1.647-1.642" transform="translate(-5.418 -10.063)" fill="#b3d4ff" fill-rule="evenodd"/>
        <path id="Fill-289" d="M10.456,55.433A1.072,1.072,0,1,1,11.528,56.5a1.071,1.071,0,0,1-1.072-1.069" transform="translate(-1.314 -8.236)" fill="#b3d4ff" fill-rule="evenodd"/>
        <path id="Fill-291" d="M28.511,31.36a.962.962,0,1,1,.962.959.962.962,0,0,1-.962-.959" transform="translate(-3.582 -5.225)" fill="#2684ff" fill-rule="evenodd"/>
        <path id="Fill-293" d="M15.647,35.374a.962.962,0,1,1,.962.959.962.962,0,0,1-.962-.959" transform="translate(-1.966 -5.73)" fill="#b3d4ff" fill-rule="evenodd"/>
        <path id="Fill-295" d="M4.025,34.083A1.146,1.146,0,1,1,5.17,35.225a1.143,1.143,0,0,1-1.145-1.142" transform="translate(-0.506 -5.545)" fill="#02193b" fill-rule="evenodd"/>
        <path id="Fill-297" d="M25.252,34.026a1.092,1.092,0,1,1,1.092,1.088,1.09,1.09,0,0,1-1.092-1.088" transform="translate(-3.172 -5.544)" fill="#02193b" fill-rule="evenodd"/>
        <path id="Fill-299" d="M12.522,31.745a.962.962,0,1,1,.963.959.961.961,0,0,1-.963-.959" transform="translate(-1.573 -5.274)" fill="#b3d4ff" fill-rule="evenodd"/>
        <path id="Fill-301" d="M28.892,18.988a1.343,1.343,0,1,1,1.343,1.339,1.341,1.341,0,0,1-1.343-1.339" transform="translate(-3.63 -3.624)" fill="#b3d4ff" fill-rule="evenodd"/>
        <path id="Fill-303" d="M76.668,49.453a.962.962,0,1,1,.962.959.962.962,0,0,1-.962-.959" transform="translate(-9.631 -7.498)" fill="#b3d4ff" fill-rule="evenodd"/>
        <path id="Fill-305" d="M71.48,4.47a.962.962,0,1,1,.963.959.961.961,0,0,1-.963-.959" transform="translate(-8.979 -1.848)" fill="#b3d4ff" fill-rule="evenodd"/>
        <path id="Fill-307" d="M83.459,22.348a.962.962,0,1,1,.963.959.962.962,0,0,1-.963-.959" transform="translate(-10.484 -4.093)" fill="#b3d4ff" fill-rule="evenodd"/>
        <path id="Fill-309" d="M54.448,58.021a.961.961,0,1,1,.962.959.961.961,0,0,1-.962-.959" transform="translate(-6.84 -8.575)" fill="#b3d4ff" fill-rule="evenodd"/>
        <path id="Fill-311" d="M45.588,5.546a1.1,1.1,0,1,1,1.1,1.1,1.1,1.1,0,0,1-1.1-1.1" transform="translate(-5.727 -1.965)" fill="#b3d4ff" fill-rule="evenodd"/>
        <path id="Fill-313" d="M79.573,36.117a1.213,1.213,0,1,1,1.213,1.209,1.211,1.211,0,0,1-1.213-1.209" transform="translate(-9.996 -5.792)" fill="#b3d4ff" fill-rule="evenodd"/>
        <path id="Fill-315" d="M76.947,28.758a1.433,1.433,0,1,1,1.433,1.429,1.429,1.429,0,0,1-1.433-1.429" transform="translate(-9.666 -4.84)" fill="#b3d4ff" fill-rule="evenodd"/>
        <path id="Fill-317" d="M57.279,70.557a.962.962,0,1,1,.963.959.962.962,0,0,1-.963-.959" transform="translate(-7.196 -10.149)" fill="#b3d4ff" fill-rule="evenodd"/>
        <path id="Fill-319" d="M83.366,48.585a1,1,0,1,1,1,1,1,1,0,0,1-1-1" transform="translate(-10.473 -7.384)" fill="#b3d4ff" fill-rule="evenodd"/>
        <path id="Fill-321" d="M86.673,81.7a1,1,0,1,1,1,1,1,1,0,0,1-1-1" transform="translate(-10.888 -11.544)" fill="#b3d4ff" fill-rule="evenodd"/>
        <path id="Fill-323" d="M35.377,68.071a.962.962,0,1,1,.963.959.962.962,0,0,1-.963-.959" transform="translate(-4.444 -9.837)" fill="#b3d4ff" fill-rule="evenodd"/>
        <path id="Fill-325" d="M75.741,82.935a.962.962,0,1,1,.963.959.961.961,0,0,1-.963-.959" transform="translate(-9.515 -11.704)" fill="#b3d4ff" fill-rule="evenodd"/>
        <path id="Fill-327" d="M77.494,48.007a1.044,1.044,0,1,1,1.045,1.041,1.043,1.043,0,0,1-1.045-1.041" transform="translate(-9.735 -7.306)" fill="#b3d4ff" fill-rule="evenodd"/>
        <path id="Fill-329" d="M29.374,29.314a1.463,1.463,0,1,1,1.462,1.46,1.462,1.462,0,0,1-1.462-1.46" transform="translate(-3.69 -4.906)" fill="#b3d4ff" fill-rule="evenodd"/>
        <path id="Fill-331" d="M79.034,33.481a1.6,1.6,0,1,1,1.6,1.6,1.6,1.6,0,0,1-1.6-1.6" transform="translate(-9.928 -5.412)" fill="#2684ff" fill-rule="evenodd"/>
        <path id="Fill-333" d="M48.583,61.5a1.6,1.6,0,1,1,1.6,1.6,1.6,1.6,0,0,1-1.6-1.6" transform="translate(-6.103 -8.931)" fill="#2684ff" fill-rule="evenodd"/>
        <path id="Fill-335" d="M19,43.724a1.6,1.6,0,1,1,1.6,1.6,1.6,1.6,0,0,1-1.6-1.6" transform="translate(-2.387 -6.698)" fill="#02193b" fill-rule="evenodd"/>
        <path id="Fill-337" d="M66.019,3.673A1.48,1.48,0,1,1,67.5,5.148a1.478,1.478,0,0,1-1.481-1.475" transform="translate(-8.293 -1.683)" fill="#02193b" fill-rule="evenodd"/>
        <path id="Fill-339" d="M50.752,3.906a1.3,1.3,0,1,1,1.3,1.294,1.3,1.3,0,0,1-1.3-1.294" transform="translate(-6.376 -1.735)" fill="#02193b" fill-rule="evenodd"/>
        <path id="Fill-341" d="M46.849,5.769A2.433,2.433,0,1,1,49.283,8.2a2.429,2.429,0,0,1-2.434-2.427" transform="translate(-5.885 -1.826)" fill="#2684ff" fill-rule="evenodd"/>
        <path id="Fill-343" d="M44.119,20.466a2.9,2.9,0,1,1,2.9,2.89,2.9,2.9,0,0,1-2.9-2.89" transform="translate(-5.542 -3.614)" fill="#02193b" fill-rule="evenodd"/>
        <path id="Fill-345" d="M42.657,25.878A1.744,1.744,0,1,1,44.4,27.616a1.741,1.741,0,0,1-1.743-1.738" transform="translate(-5.359 -4.439)" fill="#2684ff" fill-rule="evenodd"/>
        <path id="Fill-347" d="M14.713,64.834a1.465,1.465,0,1,1,1.465,1.461,1.463,1.463,0,0,1-1.465-1.461" transform="translate(-1.849 -9.367)" fill="#2684ff" fill-rule="evenodd"/>
        <path id="Fill-349" d="M35.861,14.911a2,2,0,1,1,2,1.992,2,2,0,0,1-2-1.992" transform="translate(-4.505 -3.029)" fill="#02193b" fill-rule="evenodd"/>
        <path id="Fill-351" d="M31.631,10a2,2,0,1,1,2,1.992,2,2,0,0,1-2-1.992" transform="translate(-3.974 -2.412)" fill="#02193b" fill-rule="evenodd"/>
        <path id="Fill-353" d="M19.314,30.906a2,2,0,1,1,2,1.992,2,2,0,0,1-2-1.992" transform="translate(-2.426 -5.039)" fill="#02193b" fill-rule="evenodd"/>
        <path id="Fill-355" d="M9.353,26.277A1.678,1.678,0,1,1,11.03,27.95a1.676,1.676,0,0,1-1.677-1.673" transform="translate(-1.175 -4.497)" fill="#02193b" fill-rule="evenodd"/>
        <path id="Fill-357" d="M71.56,55.344a1.694,1.694,0,1,1,1.694,1.69,1.692,1.692,0,0,1-1.694-1.69" transform="translate(-8.99 -8.146)" fill="#2684ff" fill-rule="evenodd"/>
        <path id="Fill-359" d="M45.481,71.989a1.532,1.532,0,1,1,1.532,1.527,1.529,1.529,0,0,1-1.532-1.527" transform="translate(-5.714 -10.258)" fill="#02193b" fill-rule="evenodd"/>
        <path id="Fill-361" d="M82.783,40.362a1.824,1.824,0,1,1,1.824,1.819,1.822,1.822,0,0,1-1.824-1.819" transform="translate(-10.399 -6.248)" fill="#02193b" fill-rule="evenodd"/>
        <path id="Fill-363" d="M25.678,44.522a1.616,1.616,0,1,1,1.616,1.611,1.614,1.614,0,0,1-1.616-1.611" transform="translate(-3.226 -6.797)" fill="#2684ff" fill-rule="evenodd"/>
        <path id="Fill-365" d="M29.452,48.4a2.32,2.32,0,1,1,2.32,2.313,2.317,2.317,0,0,1-2.32-2.313" transform="translate(-3.7 -7.195)" fill="#b3d4ff" fill-rule="evenodd"/>
        <path id="Fill-367" d="M32.985,44.2a1.527,1.527,0,1,1,1.527,1.523A1.524,1.524,0,0,1,32.985,44.2" transform="translate(-4.144 -6.768)" fill="#02193b" fill-rule="evenodd"/>
        <path id="Fill-369" d="M77.884,85.419a2.643,2.643,0,1,1,2.643,2.635,2.639,2.639,0,0,1-2.643-2.635" transform="translate(-9.784 -11.806)" fill="#02193b" fill-rule="evenodd"/>
        <path id="Fill-371" d="M85.733,84.488a1.6,1.6,0,1,1,1.6,1.6,1.6,1.6,0,0,1-1.6-1.6" transform="translate(-10.77 -11.819)" fill="#2684ff" fill-rule="evenodd"/>
        <path id="Fill-373" d="M25.867,69.859a1.6,1.6,0,1,1,1.6,1.6,1.6,1.6,0,0,1-1.6-1.6" transform="translate(-3.25 -9.981)" fill="#02193b" fill-rule="evenodd"/>
        <path id="Fill-375" d="M33.892,34.883a3.8,3.8,0,1,1,3.8,3.791,3.8,3.8,0,0,1-3.8-3.791" transform="translate(-4.258 -5.312)" fill="#2684ff" fill-rule="evenodd"/>
        <path id="Fill-377" d="M32.422,57.109a3.8,3.8,0,1,1,3.8,3.791,3.8,3.8,0,0,1-3.8-3.791" transform="translate(-4.073 -8.104)" fill="#2684ff" fill-rule="evenodd"/>
        <path id="Fill-379" d="M36.206,39.394a2.572,2.572,0,1,1,2.572,2.566,2.569,2.569,0,0,1-2.572-2.566" transform="translate(-4.548 -6.033)" fill="#2684ff" fill-rule="evenodd"/>
        <path id="Fill-381" d="M38.557,42.611a1.7,1.7,0,1,1,1.7,1.7,1.7,1.7,0,0,1-1.7-1.7" transform="translate(-4.844 -6.546)" fill="#2684ff" fill-rule="evenodd"/>
        <path id="Fill-383" d="M70.773,73.969a2.172,2.172,0,1,1,2.172,2.165,2.168,2.168,0,0,1-2.172-2.165" transform="translate(-8.891 -10.426)" fill="#2684ff" fill-rule="evenodd"/>
        <path id="Fill-385" d="M85.4,24.4a2.275,2.275,0,1,1,2.273,2.268A2.27,2.27,0,0,1,85.4,24.4" transform="translate(-10.728 -4.187)" fill="#2684ff" fill-rule="evenodd"/>
        <path id="Fill-387" d="M81.493,33.711a2.252,2.252,0,1,1,2.252,2.246,2.249,2.249,0,0,1-2.252-2.246" transform="translate(-10.237 -5.359)" fill="#02193b" fill-rule="evenodd"/>
        <path id="Fill-389" d="M0,27.657a1.092,1.092,0,1,1,1.09,1.088A1.09,1.09,0,0,1,0,27.657" transform="translate(0 -4.744)" fill="#b3d4ff" fill-rule="evenodd"/>
        <path id="Fill-391" d="M79.573,67.152a2.242,2.242,0,1,1,2.241,2.234,2.237,2.237,0,0,1-2.241-2.234" transform="translate(-9.996 -9.561)" fill="#2684ff" fill-rule="evenodd"/>
        <path id="Fill-393" d="M56.583,73.282a2.443,2.443,0,1,1,2.443,2.435,2.439,2.439,0,0,1-2.443-2.435" transform="translate(-7.108 -10.306)" fill="#2684ff" fill-rule="evenodd"/>
        <path id="Fill-395" d="M84.054,43.7a2.266,2.266,0,1,1,2.265,2.258A2.261,2.261,0,0,1,84.054,43.7" transform="translate(-10.559 -6.613)" fill="#2684ff" fill-rule="evenodd"/>
        <path id="Fill-397" d="M68.38,17.188a2.347,2.347,0,1,1,2.347,2.34,2.343,2.343,0,0,1-2.347-2.34" transform="translate(-8.59 -3.272)" fill="#02193b" fill-rule="evenodd"/>
        <path id="Fill-399" d="M75.92,73.321a2.169,2.169,0,1,1,2.169,2.163,2.164,2.164,0,0,1-2.169-2.163" transform="translate(-9.537 -10.346)" fill="#2684ff" fill-rule="evenodd"/>
        <path id="Fill-401" d="M88.176,57.909a2.132,2.132,0,1,1,2.132,2.126,2.129,2.129,0,0,1-2.132-2.126" transform="translate(-11.077 -8.414)" fill="#02193b" fill-rule="evenodd"/>
        <path id="Fill-403" d="M52.563,64.341a2.3,2.3,0,1,1,2.3,2.295,2.3,2.3,0,0,1-2.3-2.295" transform="translate(-6.603 -9.201)" fill="#2684ff" fill-rule="evenodd"/>
        <path id="Fill-405" d="M81.731,82.883a2.163,2.163,0,1,1,2.163,2.157,2.159,2.159,0,0,1-2.163-2.157" transform="translate(-10.267 -11.547)" fill="#02193b" fill-rule="evenodd"/>
        <path id="Fill-407" d="M57.408,66.947a1.507,1.507,0,1,1,1.506,1.5,1.5,1.5,0,0,1-1.506-1.5" transform="translate(-7.212 -9.628)" fill="#02193b" fill-rule="evenodd"/>
        <path id="Fill-409" d="M78.442,54.374a2.223,2.223,0,1,1,2.223,2.217,2.219,2.219,0,0,1-2.223-2.217" transform="translate(-9.854 -7.958)" fill="#02193b" fill-rule="evenodd"/>
        <path id="Fill-411" d="M73.34,23.707a2.225,2.225,0,1,1,2.224,2.219,2.222,2.222,0,0,1-2.224-2.219" transform="translate(-9.213 -4.106)" fill="#02193b" fill-rule="evenodd"/>
        <path id="Fill-413" d="M76.93,58.319a2.17,2.17,0,1,1,2.17,2.164,2.167,2.167,0,0,1-2.17-2.164" transform="translate(-9.664 -8.461)" fill="#2684ff" fill-rule="evenodd"/>
        <path id="Fill-415" d="M92.788,32.519a2.264,2.264,0,1,1,2.262,2.257,2.259,2.259,0,0,1-2.262-2.257" transform="translate(-11.656 -5.208)" fill="#02193b" fill-rule="evenodd"/>
        <path id="Fill-417" d="M79.269,16.938a2.289,2.289,0,1,1,2.289,2.282,2.286,2.286,0,0,1-2.289-2.282" transform="translate(-9.958 -3.248)" fill="#02193b" fill-rule="evenodd"/>
        <path id="Fill-419" d="M22.373,48.054a1.458,1.458,0,1,1,1.458,1.454,1.456,1.456,0,0,1-1.458-1.454" transform="translate(-2.811 -7.26)" fill="#2684ff" fill-rule="evenodd"/>
        <path id="Fill-421" d="M72.331,17.214a2.161,2.161,0,1,1,2.161,2.156,2.158,2.158,0,0,1-2.161-2.156" transform="translate(-9.086 -3.298)" fill="#2684ff" fill-rule="evenodd"/>
        <path id="Fill-423" d="M78.442,46.071a1.615,1.615,0,1,1,1.616,1.611,1.614,1.614,0,0,1-1.616-1.611" transform="translate(-9.854 -6.991)" fill="#2684ff" fill-rule="evenodd"/>
        <path id="Fill-425" d="M44.965,24.167a1.47,1.47,0,1,1,1.47,1.465,1.467,1.467,0,0,1-1.47-1.465" transform="translate(-5.649 -4.258)" fill="#2684ff" fill-rule="evenodd"/>
        <path id="Fill-427" d="M78.177,30.954A1.622,1.622,0,1,1,79.8,32.571a1.619,1.619,0,0,1-1.622-1.617" transform="translate(-9.821 -5.092)" fill="#2684ff" fill-rule="evenodd"/>
        <path id="Fill-429" d="M90.827,39.715a1.442,1.442,0,1,1,1.441,1.437,1.439,1.439,0,0,1-1.441-1.437" transform="translate(-11.41 -6.215)" fill="#2684ff" fill-rule="evenodd"/>
        <path id="Fill-431" d="M63.381,19.01A1.491,1.491,0,1,1,64.871,20.5a1.488,1.488,0,0,1-1.491-1.488" transform="translate(-7.962 -3.608)" fill="#02193b" fill-rule="evenodd"/>
        <path id="Fill-433" d="M25.348,28.344a1.465,1.465,0,1,1,1.465,1.461,1.464,1.464,0,0,1-1.465-1.461" transform="translate(-3.184 -4.783)" fill="#2684ff" fill-rule="evenodd"/>
        <path id="Fill-435" d="M88.338,32.895a1.568,1.568,0,1,1,1.567,1.564,1.566,1.566,0,0,1-1.567-1.564" transform="translate(-11.097 -5.342)" fill="#02193b" fill-rule="evenodd"/>
        <path id="Fill-437" d="M19.9,62.8a1.442,1.442,0,1,1,1.441,1.437A1.44,1.44,0,0,1,19.9,62.8" transform="translate(-2.5 -9.115)" fill="#2684ff" fill-rule="evenodd"/>
        <path id="Fill-439" d="M60.051,74.684a1.45,1.45,0,1,1,1.45,1.445,1.448,1.448,0,0,1-1.45-1.445" transform="translate(-7.544 -10.607)" fill="#2684ff" fill-rule="evenodd"/>
        <path id="Fill-441" d="M85.387,86.6a1.553,1.553,0,1,1,1.553,1.549A1.551,1.551,0,0,1,85.387,86.6" transform="translate(-10.726 -12.091)" fill="#2684ff" fill-rule="evenodd"/>
        <path id="Fill-443" d="M72.085,76.329a1.442,1.442,0,1,1,1.441,1.438,1.44,1.44,0,0,1-1.441-1.438" transform="translate(-9.055 -10.814)" fill="#2684ff" fill-rule="evenodd"/>
        <path id="Fill-445" d="M85.995,69.622A1.481,1.481,0,1,1,87.475,71.1a1.478,1.478,0,0,1-1.481-1.476" transform="translate(-10.803 -9.967)" fill="#2684ff" fill-rule="evenodd"/>
        <path id="Fill-447" d="M26.486,14.45a1.442,1.442,0,1,1,1.441,1.437,1.439,1.439,0,0,1-1.441-1.437" transform="translate(-3.327 -3.041)" fill="#b3d4ff" fill-rule="evenodd"/>
        <path id="Fill-449" d="M76.738,84.511a1.442,1.442,0,1,1,1.441,1.437,1.44,1.44,0,0,1-1.441-1.437" transform="translate(-9.64 -11.842)" fill="#2684ff" fill-rule="evenodd"/>
        <path id="Fill-451" d="M89.831,76.323A1.481,1.481,0,1,1,91.312,77.8a1.479,1.479,0,0,1-1.481-1.478" transform="translate(-11.285 -10.809)" fill="#2684ff" fill-rule="evenodd"/>
        <path id="Fill-453" d="M24.794,52.9a1.419,1.419,0,1,1,1.419,1.415A1.416,1.416,0,0,1,24.794,52.9" transform="translate(-3.115 -7.874)" fill="#02193b" fill-rule="evenodd"/>
        <path id="Fill-455" d="M73.105,78.358a1.068,1.068,0,1,1,1.069,1.066,1.066,1.066,0,0,1-1.069-1.066" transform="translate(-9.184 -11.116)" fill="#2684ff" fill-rule="evenodd"/>
        <path id="Fill-461" d="M4.806,26.322a.966.966,0,1,1,.967.963.965.965,0,0,1-.967-.963" transform="translate(-0.604 -4.592)" fill="#2684ff" fill-rule="evenodd"/>
        <path id="Fill-463" d="M60.917,65.277a1.059,1.059,0,1,1,1.059,1.056,1.057,1.057,0,0,1-1.059-1.056" transform="translate(-7.653 -9.474)" fill="#2684ff" fill-rule="evenodd"/>
        <path id="Fill-465" d="M62.675,74.945A1.127,1.127,0,1,1,63.8,76.068a1.125,1.125,0,0,1-1.127-1.123" transform="translate(-7.873 -10.68)" fill="#2684ff" fill-rule="evenodd"/>
        <path id="Fill-467" d="M45.363,67.021a.989.989,0,1,1,.989.986.986.986,0,0,1-.989-.986" transform="translate(-5.699 -9.702)" fill="#02193b" fill-rule="evenodd"/>
        <path id="Fill-469" d="M37.1,70.133a.989.989,0,1,1,.989.986.987.987,0,0,1-.989-.986" transform="translate(-4.66 -10.093)" fill="#2684ff" fill-rule="evenodd"/>
        <path id="Fill-471" d="M65.844,19.664a1.222,1.222,0,1,1,1.223,1.219,1.222,1.222,0,0,1-1.223-1.219" transform="translate(-8.271 -3.724)" fill="#02193b" fill-rule="evenodd"/>
        <path id="Fill-473" d="M74.646,81.09a1.006,1.006,0,1,1,1.006,1,1,1,0,0,1-1.006-1" transform="translate(-9.377 -11.467)" fill="#2684ff" fill-rule="evenodd"/>
        <path id="Fill-475" d="M82.359,44.769a.962.962,0,1,1,.962.959.961.961,0,0,1-.962-.959" transform="translate(-10.346 -6.91)" fill="#02193b" fill-rule="evenodd"/>
        <path id="Fill-477" d="M87.255,60.981A1.543,1.543,0,1,1,88.8,62.519a1.541,1.541,0,0,1-1.543-1.538" transform="translate(-10.961 -8.874)" fill="#02193b" fill-rule="evenodd"/>
        <path id="Fill-479" d="M85.064,65.309a1.013,1.013,0,1,1,1.013,1.008,1.01,1.01,0,0,1-1.013-1.008" transform="translate(-10.686 -9.484)" fill="#2684ff" fill-rule="evenodd"/>
        <path id="Fill-481" d="M89.716,74.214a1.113,1.113,0,1,1,1.113,1.111,1.112,1.112,0,0,1-1.113-1.111" transform="translate(-11.27 -10.59)" fill="#2684ff" fill-rule="evenodd"/>
        <path id="Fill-483" d="M84.624,87.936a1.113,1.113,0,1,1,1.113,1.111,1.112,1.112,0,0,1-1.113-1.111" transform="translate(-10.631 -12.313)" fill="#2684ff" fill-rule="evenodd"/>
        <path id="Fill-485" d="M58.353,58.671a.962.962,0,1,1,.962.959.961.961,0,0,1-.962-.959" transform="translate(-7.33 -8.656)" fill="#2684ff" fill-rule="evenodd"/>
        <path id="Fill-487" d="M67.93,60.944a1.123,1.123,0,1,1,1.123,1.119,1.12,1.12,0,0,1-1.123-1.119" transform="translate(-8.533 -8.922)" fill="#2684ff" fill-rule="evenodd"/>
        <path id="Fill-489" d="M61.054,67.531a.641.641,0,1,1,.642.64.64.64,0,0,1-.642-.64" transform="translate(-7.67 -9.809)" fill="#02193b" fill-rule="evenodd"/>
        <path id="Fill-491" d="M88.222,86.713a.778.778,0,1,1,.778.778.777.777,0,0,1-.778-.778" transform="translate(-11.082 -12.202)" fill="#02193b" fill-rule="evenodd"/>
        <path id="Fill-493" d="M60.242,58.441a.642.642,0,1,1,.642.64.641.641,0,0,1-.642-.64" transform="translate(-7.568 -8.667)" fill="#2684ff" fill-rule="evenodd"/>
        <path id="Fill-495" d="M69.8,62.122a.641.641,0,1,1,.642.64.64.64,0,0,1-.642-.64" transform="translate(-8.768 -9.13)" fill="#2684ff" fill-rule="evenodd"/>
        <path id="Fill-497" d="M79.17,43.707a.721.721,0,1,1,.722.719.72.72,0,0,1-.722-.719" transform="translate(-9.945 -6.807)" fill="#2684ff" fill-rule="evenodd"/>
        <path id="Fill-499" d="M84.046,89.172a.642.642,0,1,1,.642.638.639.639,0,0,1-.642-.638" transform="translate(-10.558 -12.528)" fill="#2684ff" fill-rule="evenodd"/>
        <path id="Fill-501" d="M26.464,62.3a.891.891,0,1,1,.89.887.888.888,0,0,1-.89-.887" transform="translate(-3.325 -9.122)" fill="#2684ff" fill-rule="evenodd"/>
        <path id="Fill-503" d="M86.516,47.483a.728.728,0,1,1,.728.726.727.727,0,0,1-.728-.726" transform="translate(-10.868 -7.28)" fill="#02193b" fill-rule="evenodd"/>
        <path id="Fill-507" d="M73.68,79.719a.566.566,0,1,1,.566.564.565.565,0,0,1-.566-.564" transform="translate(-9.256 -11.35)" fill="#02193b" fill-rule="evenodd"/>
        <path id="Fill-509" d="M84.86,86.959a.525.525,0,1,1,.525.524.524.524,0,0,1-.525-.524" transform="translate(-10.66 -12.264)" fill="#02193b" fill-rule="evenodd"/>
        <path id="Fill-511" d="M79.491,42.087a.568.568,0,1,1,.567.565.567.567,0,0,1-.567-.565" transform="translate(-9.986 -6.622)" fill="#2684ff" fill-rule="evenodd"/>
        <path id="Fill-513" d="M89.912,72.73a.565.565,0,1,1,.564.562.563.563,0,0,1-.564-.562" transform="translate(-11.295 -10.472)" fill="#2684ff" fill-rule="evenodd"/>
        <path id="Fill-515" d="M70.766,64.808a.755.755,0,1,1,.755.754.754.754,0,0,1-.755-.754" transform="translate(-8.89 -9.453)" fill="#2684ff" fill-rule="evenodd"/>
        <path id="Fill-517" d="M82.945,77.192a.709.709,0,1,1,.709.707.709.709,0,0,1-.709-.707" transform="translate(-10.42 -11.014)" fill="#2684ff" fill-rule="evenodd"/>
        <path id="Fill-519" d="M75.271,78.552a.621.621,0,1,1,.619.619.618.618,0,0,1-.619-.619" transform="translate(-9.456 -11.196)" fill="#2684ff" fill-rule="evenodd"/>
        <path id="Fill-521" d="M85.324,18.722a2.21,2.21,0,1,1,2.208,2.2,2.206,2.206,0,0,1-2.208-2.2" transform="translate(-10.718 -3.482)" fill="#2684ff" fill-rule="evenodd"/>
        <path id="Fill-523" d="M88.091,15.882a.966.966,0,1,1,.967.965.965.965,0,0,1-.967-.965" transform="translate(-11.066 -3.281)" fill="#02193b" fill-rule="evenodd"/>
        <path id="Fill-525" d="M89.282,17.233a.892.892,0,1,1,.891.89.89.89,0,0,1-.891-.89" transform="translate(-11.216 -3.46)" fill="#02193b" fill-rule="evenodd"/>
        <path id="Fill-527" d="M91.956,19.767a.521.521,0,1,1,.485.554.52.52,0,0,1-.485-.554" transform="translate(-11.552 -3.829)" fill="#2684ff" fill-rule="evenodd"/>
        <path id="Fill-529" d="M91.07,18.946a.648.648,0,1,1,.647.645.647.647,0,0,1-.647-.645" transform="translate(-11.44 -3.705)" fill="#2684ff" fill-rule="evenodd"/>
        <path id="Fill-531" d="M92.552,20.449a.427.427,0,1,1,.427.427.427.427,0,0,1-.427-.427" transform="translate(-11.626 -3.922)" fill="#2684ff" fill-rule="evenodd"/>
        <path id="Fill-533" d="M81.214,12.6a2.4,2.4,0,1,1,2.4,2.4,2.4,2.4,0,0,1-2.4-2.4" transform="translate(-10.202 -2.688)" fill="#2684ff" fill-rule="evenodd"/>
        <path id="Fill-535" d="M80.779,10.542A1.563,1.563,0,1,1,82.342,12.1a1.56,1.56,0,0,1-1.563-1.558" transform="translate(-10.148 -2.535)" fill="#02193b" fill-rule="evenodd"/>
        <path id="Fill-537" d="M70.565,21.364a1.529,1.529,0,1,1,1.529,1.524,1.526,1.526,0,0,1-1.529-1.524" transform="translate(-8.864 -3.899)" fill="#b3d4ff" fill-rule="evenodd"/>
        <path id="Fill-539" d="M67.92,20.295a1.443,1.443,0,1,1,1.441,1.437,1.439,1.439,0,0,1-1.441-1.437" transform="translate(-8.532 -3.775)" fill="#2684ff" fill-rule="evenodd"/>
        <path id="Fill-541" d="M69.831,21.949a.641.641,0,1,1,.642.64.64.64,0,0,1-.642-.64" transform="translate(-8.772 -4.083)" fill="#2684ff" fill-rule="evenodd"/>
        <path id="Fill-543" d="M71.521,23.136a.508.508,0,1,1,.508.508.507.507,0,0,1-.508-.508" transform="translate(-8.985 -4.249)" fill="#2684ff" fill-rule="evenodd"/>
        <path id="Fill-545" d="M72.252,23.728a.428.428,0,1,1,.429.426.429.429,0,0,1-.429-.426" transform="translate(-9.076 -4.333)" fill="#2684ff" fill-rule="evenodd"/>
        <path id="Fill-547" d="M70.755,22.395a.634.634,0,1,1,.633.633.633.633,0,0,1-.633-.633" transform="translate(-8.888 -4.14)" fill="#2684ff" fill-rule="evenodd"/>
        <path id="Fill-549" d="M89.69,42.318a1.638,1.638,0,1,1,1.637,1.633,1.635,1.635,0,0,1-1.637-1.633" transform="translate(-11.267 -6.517)" fill="#02193b" fill-rule="evenodd"/>
        <path id="Fill-551" d="M87.19,45.052a1.541,1.541,0,1,1,1.541,1.537,1.538,1.538,0,0,1-1.541-1.537" transform="translate(-10.953 -6.873)" fill="#b3d4ff" fill-rule="evenodd"/>
        <path id="Fill-553" d="M87.68,79.716a1.541,1.541,0,1,1,1.54,1.537,1.537,1.537,0,0,1-1.54-1.537" transform="translate(-11.014 -11.227)" fill="#b3d4ff" fill-rule="evenodd"/>
        <path id="Fill-555" d="M86.913,77.058a1.282,1.282,0,1,1,1.282,1.278,1.279,1.279,0,0,1-1.282-1.278" transform="translate(-10.918 -10.926)" fill="#2684ff" fill-rule="evenodd"/>
        <path id="Fill-557" d="M84.9,78.6a1.156,1.156,0,1,1,1.156,1.152A1.154,1.154,0,0,1,84.9,78.6" transform="translate(-10.665 -11.136)" fill="#2684ff" fill-rule="evenodd"/>
        <path id="Fill-559" d="M69.919,63.236a.439.439,0,1,1,.439.437.438.438,0,0,1-.439-.437" transform="translate(-8.783 -9.295)" fill="#2684ff" fill-rule="evenodd"/>
        <path id="Fill-561" d="M48.216,22.761a.962.962,0,1,1,.962.959.961.961,0,0,1-.962-.959" transform="translate(-6.057 -4.145)" fill="#2684ff" fill-rule="evenodd"/>
        <path id="Fill-563" d="M38.645,30.72a2.173,2.173,0,1,1,2.173,2.167,2.169,2.169,0,0,1-2.173-2.167" transform="translate(-4.855 -4.994)" fill="#02193b" fill-rule="evenodd"/>
        <path id="Fill-565" d="M45.807,16.119a1.848,1.848,0,1,1,1.849,1.842,1.845,1.845,0,0,1-1.849-1.842" transform="translate(-5.754 -3.2)" fill="#2684ff" fill-rule="evenodd"/>
        <path id="Fill-567" d="M50.867,20.393a1.352,1.352,0,1,1,1.352,1.348,1.35,1.35,0,0,1-1.352-1.348" transform="translate(-6.39 -3.799)" fill="#02193b" fill-rule="evenodd"/>
        <path id="Fill-569" d="M30.438,33.928a2.226,2.226,0,1,1,2.227,2.22,2.224,2.224,0,0,1-2.227-2.22" transform="translate(-3.824 -5.39)" fill="#b3d4ff" fill-rule="evenodd"/>
        <path id="Fill-571" d="M28.656,45.28a1.8,1.8,0,1,1,1.8,1.791,1.793,1.793,0,0,1-1.8-1.791" transform="translate(-3.6 -6.869)" fill="#b3d4ff" fill-rule="evenodd"/>
      </g>
    </g>
  </g>
</svg>
