<svg id="Component_22_1" data-name="Component 22 – 1" xmlns="http://www.w3.org/2000/svg" width="157" height="157" viewBox="0 0 157 157">
  <rect id="Rectangle_3918" data-name="Rectangle 3918" width="157" height="157" rx="78.5" fill="#57daa3" opacity="0.272"/>
  <g id="sale-2" transform="translate(26.999 27.654)" opacity="0.87">
    <path id="Path_4745" data-name="Path 4745" d="M117.1,42.236l0,.062a10.517,10.517,0,0,0,6,10.032l.04.019a7.071,7.071,0,0,1,3.2,3.08l.016.029a10.988,10.988,0,0,0,10.327,5.763l.066,0a7.52,7.52,0,0,1,4.446,1.156,11.272,11.272,0,0,0,11.954,0,7.52,7.52,0,0,1,4.446-1.156l.066,0a11,11,0,0,0,10.33-5.769l.01-.02a7.084,7.084,0,0,1,3.212-3.086l.032-.016a10.517,10.517,0,0,0,6-10.033l0-.058a6.729,6.729,0,0,1,1.171-4.17,10.347,10.347,0,0,0,0-11.7,6.728,6.728,0,0,1-1.172-4.168l0-.062A10.516,10.516,0,0,0,171.242,12.1l-.035-.018a7.064,7.064,0,0,1-3.2-3.069l-.02-.04a11,11,0,0,0-10.326-5.763l-.066,0a7.515,7.515,0,0,1-4.444-1.156h0a11.272,11.272,0,0,0-11.954,0,7.526,7.526,0,0,1-4.446,1.155l-.066,0a10.989,10.989,0,0,0-10.326,5.762L126.343,9a7.075,7.075,0,0,1-3.206,3.084l-.037.018a10.516,10.516,0,0,0-6,10.033l0,.058a6.724,6.724,0,0,1-1.171,4.169,10.347,10.347,0,0,0,0,11.7A6.724,6.724,0,0,1,117.1,42.236Zm1.816-13.81a10.372,10.372,0,0,0,1.807-6.434l0-.062a6.9,6.9,0,0,1,3.962-6.559l.031-.015a10.682,10.682,0,0,0,4.838-4.657l.018-.034a7.356,7.356,0,0,1,6.921-3.827l.064,0a11.114,11.114,0,0,0,6.574-1.709,7.624,7.624,0,0,1,8.087,0,11.139,11.139,0,0,0,6.573,1.71l.064,0a7.345,7.345,0,0,1,6.919,3.819l.024.045a10.68,10.68,0,0,0,4.834,4.651l.03.015a6.9,6.9,0,0,1,3.966,6.562l0,.065a10.37,10.37,0,0,0,1.808,6.433,6.7,6.7,0,0,1,0,7.58,10.381,10.381,0,0,0-1.806,6.435l0,.061a6.9,6.9,0,0,1-3.967,6.564l-.027.012a10.693,10.693,0,0,0-4.843,4.665l-.013.027a7.353,7.353,0,0,1-6.922,3.827l-.063,0a11.135,11.135,0,0,0-6.576,1.71,7.625,7.625,0,0,1-8.085,0,11.117,11.117,0,0,0-5.96-1.726q-.307,0-.616.017l-.064,0a7.348,7.348,0,0,1-6.924-3.83l-.019-.035a10.669,10.669,0,0,0-4.83-4.649l-.034-.017a6.9,6.9,0,0,1-3.966-6.562l0-.065a10.38,10.38,0,0,0-1.808-6.433,6.7,6.7,0,0,1,0-7.579Zm0,0" transform="translate(-88.24 0)" fill="#091d42"/>
    <path id="Path_4746" data-name="Path 4746" d="M205.358,94.721a1.814,1.814,0,0,0,2.5-.578l21.49-34.427a1.814,1.814,0,1,0-3.078-1.921L204.779,92.221A1.814,1.814,0,0,0,205.358,94.721Zm0,0" transform="translate(-158.13 -43.75)" fill="#091d42"/>
    <path id="Path_4747" data-name="Path 4747" d="M189.445,78.99c4.417,0,8.012-4.1,8.012-9.136s-3.594-9.135-8.012-9.135-8.011,4.1-8.011,9.135S185.027,78.99,189.445,78.99Zm0-14.643c2.417,0,4.384,2.47,4.384,5.507s-1.966,5.508-4.384,5.508-4.383-2.472-4.383-5.508S187.028,64.347,189.445,64.347Zm0,0" transform="translate(-140.291 -46.683)" fill="#091d42"/>
    <path id="Path_4748" data-name="Path 4748" d="M267.684,149.651c0,5.037,3.594,9.135,8.011,9.135s8.012-4.1,8.012-9.135-3.594-9.135-8.011-9.135S267.684,144.612,267.684,149.651Zm12.395,0c0,3.036-1.966,5.507-4.384,5.507s-4.383-2.47-4.383-5.507,1.966-5.507,4.383-5.507S280.078,146.612,280.078,149.651Zm0,0" transform="translate(-206.983 -108.385)" fill="#091d42"/>
    <path id="Path_4749" data-name="Path 4749" d="M97.2,276.421a9.163,9.163,0,0,0-12.1-3.688l-14.211,6.714a11.575,11.575,0,0,0-9.868-6.088L47.9,273a13.867,13.867,0,0,1-5.962-1.54l-1.335-.692a23.545,23.545,0,0,0-21.809.023l.083-3.024a1.814,1.814,0,0,0-1.764-1.864l-14.385-.4A1.813,1.813,0,0,0,.87,267.269L0,298.837A1.814,1.814,0,0,0,1.765,300.7l14.385.4h.05a1.816,1.816,0,0,0,1.813-1.764l.041-1.51,3.737-2a6.413,6.413,0,0,1,4.785-.523l22.315,6.263c.039.012.078.02.118.029a23.894,23.894,0,0,0,4.905.506,24.2,24.2,0,0,0,10.111-2.206,1.791,1.791,0,0,0,.225-.122l32.356-20.93A1.813,1.813,0,0,0,97.2,276.421Zm-93.523,20.7.769-27.94,10.759.3-.77,27.941Zm58.713-.476a20.561,20.561,0,0,1-12.578,1.4l-22.256-6.246a10.027,10.027,0,0,0-7.478.818l-1.91,1.022.512-18.577a19.939,19.939,0,0,1,20.257-1.081l1.335.692a17.511,17.511,0,0,0,7.532,1.945l13.118.361a7.955,7.955,0,0,1,7.562,6.34l-19.54-.538a1.814,1.814,0,0,0-.1,3.627l21.564.593h.051a1.815,1.815,0,0,0,1.812-1.764,11.576,11.576,0,0,0-.175-2.354L86.672,276l.043-.02a5.541,5.541,0,0,1,6.268.877Zm0,0" transform="translate(0 -205.032)" fill="#091d42"/>
  </g>
</svg>
