<svg id="Ebook-rafiki" xmlns="http://www.w3.org/2000/svg" width="543.186" height="404.739" viewBox="0 0 543.186 404.739">
  <g id="freepik--background-complete--inject-10">
    <rect id="Rectangle_4222" data-name="Rectangle 4222" width="543.186" height="0.272" transform="translate(0 355.678)" fill="#ebebeb"/>
    <rect id="Rectangle_4223" data-name="Rectangle 4223" width="35.981" height="0.272" transform="translate(452.778 373.158)" fill="#ebebeb"/>
    <rect id="Rectangle_4224" data-name="Rectangle 4224" width="9.441" height="0.272" transform="translate(350.388 376.113)" fill="#ebebeb"/>
    <rect id="Rectangle_4225" data-name="Rectangle 4225" width="20.847" height="0.272" transform="translate(430.844 363.076)" fill="#ebebeb"/>
    <rect id="Rectangle_4226" data-name="Rectangle 4226" width="46.92" height="0.272" transform="translate(56.991 364.902)" fill="#ebebeb"/>
    <rect id="Rectangle_4227" data-name="Rectangle 4227" width="6.877" height="0.272" transform="translate(113.591 364.902)" fill="#ebebeb"/>
    <rect id="Rectangle_4228" data-name="Rectangle 4228" width="101.771" height="0.272" transform="translate(142.825 369.486)" fill="#ebebeb"/>
    <path id="Path_7099" data-name="Path 7099" d="M254.17,362.226H44.4a6.2,6.2,0,0,1-6.192-6.2V61.149A6.2,6.2,0,0,1,44.4,55H254.17a6.2,6.2,0,0,1,6.2,6.2v294.82A6.2,6.2,0,0,1,254.17,362.226ZM44.4,55.217a5.932,5.932,0,0,0-5.921,5.932V356.023a5.932,5.932,0,0,0,5.921,5.932H254.17a5.943,5.943,0,0,0,5.932-5.932V61.149a5.942,5.942,0,0,0-5.932-5.932Z" transform="translate(3.3 -55)" fill="#ebebeb"/>
    <path id="Path_7100" data-name="Path 7100" d="M470.482,362.226H260.7a6.214,6.214,0,0,1-6.2-6.2V61.149A6.214,6.214,0,0,1,260.7,55H470.482a6.2,6.2,0,0,1,6.181,6.149V356.023A6.2,6.2,0,0,1,470.482,362.226ZM260.7,55.217a5.942,5.942,0,0,0-5.932,5.932V356.023a5.942,5.942,0,0,0,5.932,5.932H470.482a5.943,5.943,0,0,0,5.932-5.932V61.149a5.942,5.942,0,0,0-5.932-5.932Z" transform="translate(21.982 -55)" fill="#ebebeb"/>
    <path id="Path_7101" data-name="Path 7101" d="M105,149.852s-1.282-8.387,4.845-13.775,5.584-8.582,3.835-9-3.368,4.965-6.051,6.442c0,0-.087-7.67,2.64-10.494s4.172-10.1,1.575-10.234-2.879,4.345-3.411,7.474-3.433,7.6-3.433,7.6-.576-6.866-2.336-9.69,2.944-9.288,1.086-12.113-5.052,2.564-4.78,8.615,4.345,12.515,3.357,18.838c0,0-1.771-4.443-3.379-4.845s-3.259-3.335-4.28-4.432-2.423,2.683,0,6.181,8.6,12.852,7.659,20.424Z" transform="translate(8.061 -50.656)" fill="#e6e6e6"/>
    <path id="Path_7102" data-name="Path 7102" d="M108.455,142.8l2.01,12.58a6.4,6.4,0,0,1-6.323,7.4h-2.173a6.4,6.4,0,0,1-6.323-7.4l2.01-12.58Z" transform="translate(8.254 -47.417)" fill="#e6e6e6"/>
    <rect id="Rectangle_4229" data-name="Rectangle 4229" width="6.247" height="26.833" transform="translate(243.304 112.896) rotate(180)" fill="#ebebeb"/>
    <rect id="Rectangle_4230" data-name="Rectangle 4230" width="6.247" height="26.833" transform="translate(213.125 112.896) rotate(180)" fill="#ebebeb"/>
    <rect id="Rectangle_4231" data-name="Rectangle 4231" width="6.247" height="26.833" transform="matrix(-0.985, -0.17, 0.17, -0.985, 174.205, 112.885)" fill="#ebebeb"/>
    <rect id="Rectangle_4232" data-name="Rectangle 4232" width="6.247" height="23.303" transform="translate(235.569 112.896) rotate(180)" fill="#ebebeb"/>
    <rect id="Rectangle_4233" data-name="Rectangle 4233" width="6.247" height="23.303" transform="translate(221.218 112.896) rotate(180)" fill="#ebebeb"/>
    <rect id="Rectangle_4234" data-name="Rectangle 4234" width="6.247" height="23.303" transform="translate(184.998 112.896) rotate(180)" fill="#ebebeb"/>
    <rect id="Rectangle_4235" data-name="Rectangle 4235" width="6.247" height="23.303" transform="translate(199.722 112.886) rotate(-167.47)" fill="#ebebeb"/>
    <rect id="Rectangle_4236" data-name="Rectangle 4236" width="3.118" height="28.17" transform="translate(227.052 112.885) rotate(180)" fill="#ebebeb"/>
    <rect id="Rectangle_4237" data-name="Rectangle 4237" width="3.118" height="28.17" transform="translate(189.92 112.885) rotate(180)" fill="#ebebeb"/>
    <rect id="Rectangle_4238" data-name="Rectangle 4238" width="30.418" height="21" transform="translate(134.113 91.592)" fill="#ebebeb"/>
    <rect id="Rectangle_4239" data-name="Rectangle 4239" width="25.486" height="15.676" transform="translate(243.38 100.196)" fill="#ebebeb"/>
    <rect id="Rectangle_4240" data-name="Rectangle 4240" width="12.743" height="15.676" transform="translate(250.17 86.41)" fill="#ebebeb"/>
    <rect id="Rectangle_4241" data-name="Rectangle 4241" width="163.184" height="239.252" transform="translate(110.984 111.147)" fill="#f0f0f0"/>
    <rect id="Rectangle_4242" data-name="Rectangle 4242" width="151.647" height="44.183" transform="translate(116.752 118.686)" fill="#e0e0e0"/>
    <rect id="Rectangle_4243" data-name="Rectangle 4243" width="8.615" height="37.034" transform="translate(116.752 125.834)" fill="#ebebeb"/>
    <rect id="Rectangle_4244" data-name="Rectangle 4244" width="8.615" height="37.034" transform="translate(158.404 125.834)" fill="#ebebeb"/>
    <rect id="Rectangle_4245" data-name="Rectangle 4245" width="8.615" height="37.034" transform="matrix(0.985, -0.17, 0.17, 0.985, 205.815, 126.367)" fill="#ebebeb"/>
    <rect id="Rectangle_4246" data-name="Rectangle 4246" width="8.615" height="32.157" transform="translate(127.421 130.712)" fill="#ebebeb"/>
    <rect id="Rectangle_4247" data-name="Rectangle 4247" width="8.615" height="32.157" transform="translate(147.225 130.712)" fill="#ebebeb"/>
    <rect id="Rectangle_4248" data-name="Rectangle 4248" width="8.615" height="32.157" transform="translate(197.198 130.712)" fill="#ebebeb"/>
    <rect id="Rectangle_4249" data-name="Rectangle 4249" width="8.615" height="32.157" transform="translate(169.927 131.479) rotate(-12.53)" fill="#ebebeb"/>
    <rect id="Rectangle_4250" data-name="Rectangle 4250" width="4.302" height="38.87" transform="translate(139.175 123.999)" fill="#ebebeb"/>
    <rect id="Rectangle_4251" data-name="Rectangle 4251" width="4.302" height="38.87" transform="translate(190.419 123.999)" fill="#ebebeb"/>
    <rect id="Rectangle_4252" data-name="Rectangle 4252" width="151.647" height="44.183" transform="translate(268.388 214.048) rotate(180)" fill="#e0e0e0"/>
    <rect id="Rectangle_4253" data-name="Rectangle 4253" width="8.615" height="37.034" transform="translate(268.388 214.059) rotate(180)" fill="#ebebeb"/>
    <rect id="Rectangle_4254" data-name="Rectangle 4254" width="8.615" height="37.034" transform="translate(226.748 214.059) rotate(180)" fill="#ebebeb"/>
    <rect id="Rectangle_4255" data-name="Rectangle 4255" width="8.615" height="37.034" transform="matrix(-0.985, -0.17, 0.17, -0.985, 173.05, 214.048)" fill="#ebebeb"/>
    <rect id="Rectangle_4256" data-name="Rectangle 4256" width="8.615" height="32.157" transform="translate(257.72 214.048) rotate(180)" fill="#ebebeb"/>
    <rect id="Rectangle_4257" data-name="Rectangle 4257" width="8.615" height="32.157" transform="translate(237.915 214.048) rotate(180)" fill="#ebebeb"/>
    <rect id="Rectangle_4258" data-name="Rectangle 4258" width="8.615" height="32.157" transform="translate(187.942 214.048) rotate(180)" fill="#ebebeb"/>
    <rect id="Rectangle_4259" data-name="Rectangle 4259" width="8.615" height="32.157" transform="translate(208.272 214.041) rotate(-167.47)" fill="#ebebeb"/>
    <rect id="Rectangle_4260" data-name="Rectangle 4260" width="4.302" height="38.87" transform="translate(245.966 214.059) rotate(180)" fill="#ebebeb"/>
    <rect id="Rectangle_4261" data-name="Rectangle 4261" width="4.302" height="38.87" transform="translate(194.721 214.059) rotate(180)" fill="#ebebeb"/>
    <rect id="Rectangle_4262" data-name="Rectangle 4262" width="8.615" height="37.034" transform="translate(116.752 177.013)" fill="#ebebeb"/>
    <rect id="Rectangle_4263" data-name="Rectangle 4263" width="8.615" height="32.157" transform="translate(127.421 181.902)" fill="#ebebeb"/>
    <rect id="Rectangle_4264" data-name="Rectangle 4264" width="8.615" height="32.157" transform="translate(147.225 181.902)" fill="#ebebeb"/>
    <rect id="Rectangle_4265" data-name="Rectangle 4265" width="4.302" height="38.87" transform="translate(139.175 175.178)" fill="#ebebeb"/>
    <rect id="Rectangle_4266" data-name="Rectangle 4266" width="151.647" height="44.183" transform="translate(116.752 221.044)" fill="#e0e0e0"/>
    <rect id="Rectangle_4267" data-name="Rectangle 4267" width="8.615" height="37.034" transform="translate(203.793 228.203)" fill="#ebebeb"/>
    <rect id="Rectangle_4268" data-name="Rectangle 4268" width="8.615" height="37.034" transform="matrix(0.985, -0.17, 0.17, 0.985, 251.215, 228.729)" fill="#ebebeb"/>
    <rect id="Rectangle_4269" data-name="Rectangle 4269" width="8.615" height="32.157" transform="translate(172.809 233.081)" fill="#ebebeb"/>
    <rect id="Rectangle_4270" data-name="Rectangle 4270" width="8.615" height="32.157" transform="translate(192.614 233.081)" fill="#ebebeb"/>
    <rect id="Rectangle_4271" data-name="Rectangle 4271" width="8.615" height="32.157" transform="translate(242.587 233.081)" fill="#ebebeb"/>
    <rect id="Rectangle_4272" data-name="Rectangle 4272" width="8.615" height="32.157" transform="translate(215.322 233.828) rotate(-12.53)" fill="#ebebeb"/>
    <rect id="Rectangle_4273" data-name="Rectangle 4273" width="4.302" height="38.87" transform="translate(184.564 226.367)" fill="#ebebeb"/>
    <rect id="Rectangle_4274" data-name="Rectangle 4274" width="4.302" height="38.87" transform="translate(235.808 226.367)" fill="#ebebeb"/>
    <rect id="Rectangle_4275" data-name="Rectangle 4275" width="8.615" height="37.034" transform="matrix(0.985, -0.17, 0.17, 0.985, 152.1, 228.736)" fill="#ebebeb"/>
    <rect id="Rectangle_4276" data-name="Rectangle 4276" width="8.615" height="32.157" transform="translate(143.477 233.081)" fill="#ebebeb"/>
    <rect id="Rectangle_4277" data-name="Rectangle 4277" width="8.615" height="32.157" transform="translate(116.216 233.83) rotate(-12.53)" fill="#ebebeb"/>
    <rect id="Rectangle_4278" data-name="Rectangle 4278" width="4.302" height="38.87" transform="translate(136.698 226.367)" fill="#ebebeb"/>
    <rect id="Rectangle_4279" data-name="Rectangle 4279" width="28.148" height="239.871" transform="translate(110.984 351.029) rotate(180)" fill="#e0e0e0"/>
    <path id="Path_7103" data-name="Path 7103" d="M427.419,132.18l-36.1-21H363.508l-36.7,20.011V267.3H427.419Z" transform="translate(28.227 -50.148)" fill="#e0e0e0"/>
    <path id="Path_7104" data-name="Path 7104" d="M325.86,132.19l1.032-1A71.483,71.483,0,0,1,376.68,111.18h0a71.483,71.483,0,0,1,49.788,20.011l1.032,1V267.3H325.86Zm94.905,2.89a65.182,65.182,0,0,0-88.17,0V260.556h88.17Z" transform="translate(28.145 -50.148)" fill="#fafafa"/>
    <path id="Path_7105" data-name="Path 7105" d="M378.777,260.9h-5.062V215.732H330.89V210.67h42.825V164.477H330.89v-5.062h42.825V116.59h5.063v42.825H421.6v5.063H378.777V210.67H421.6v5.063H378.777Z" transform="translate(28.58 -49.68)" fill="#f0f0f0"/>
    <path id="Path_7106" data-name="Path 7106" d="M322.75,131.08l.989-.989a75.329,75.329,0,0,1,106.465,0l.989.989v139.87H322.75ZM424.4,133.894a68.583,68.583,0,0,0-94.905,0v130.3H424.4Z" transform="translate(27.877 -50.417)" fill="#f0f0f0"/>
  </g>
  <g id="freepik--Shadow--inject-10" transform="translate(60.955 380.143)">
    <ellipse id="freepik--path--inject-10" cx="210.637" cy="12.298" rx="210.637" ry="12.298" fill="#f5f5f5"/>
  </g>
  <g id="freepik--Device--inject-10" transform="translate(246.346 87.757)">
    <rect id="Rectangle_4280" data-name="Rectangle 4280" width="3.368" height="17.393" rx="0.69" transform="translate(188.355) rotate(90)" fill="#263238"/>
    <rect id="Rectangle_4281" data-name="Rectangle 4281" width="295.558" height="210.539" rx="6.63" transform="translate(210.539 1.38) rotate(90)" fill="#263238"/>
    <rect id="Rectangle_4282" data-name="Rectangle 4282" width="295.558" height="205.107" rx="6.63" transform="translate(205.107 1.38) rotate(90)" fill="#fff" opacity="0.2"/>
    <circle id="Ellipse_172" data-name="Ellipse 172" cx="1.934" cy="1.934" r="1.934" transform="translate(96.817 4.921)" fill="#fff" opacity="0.6" style="isolation: isolate"/>
    <circle id="Ellipse_173" data-name="Ellipse 173" cx="0.967" cy="0.967" r="0.967" transform="translate(106.345 5.888)" fill="#fff" opacity="0.6" style="isolation: isolate"/>
    <circle id="Ellipse_174" data-name="Ellipse 174" cx="5.932" cy="5.932" r="5.932" transform="translate(96.611 280.436)" fill="#fff"/>
    <path id="Path_7239" data-name="Path 7239" d="M0,0H263.815V193.266H0Z" transform="translate(199.175 12.808) rotate(90)" fill="#286efa"/>
    <rect id="Rectangle_4284" data-name="Rectangle 4284" width="255.602" height="193.266" transform="translate(199.175 21.01) rotate(90)" fill="#fff" opacity="0.8" style="isolation: isolate"/>
    <circle id="Ellipse_175" data-name="Ellipse 175" cx="1.825" cy="1.825" r="1.825" transform="translate(179.871 15.057)" fill="#fff" opacity="0.6" style="isolation: isolate"/>
    <circle id="Ellipse_176" data-name="Ellipse 176" cx="1.825" cy="1.825" r="1.825" transform="translate(186.172 15.057)" fill="#fff" opacity="0.6" style="isolation: isolate"/>
    <circle id="Ellipse_177" data-name="Ellipse 177" cx="1.825" cy="1.825" r="1.825" transform="translate(192.473 15.057)" fill="#fff" opacity="0.6" style="isolation: isolate"/>
    <rect id="Rectangle_4285" data-name="Rectangle 4285" width="193.266" height="11.689" transform="translate(5.91 21.021)" opacity="0.2" style="isolation: isolate"/>
    <path id="Path_7107" data-name="Path 7107" d="M409.7,163.524H349.882a2.792,2.792,0,0,1-2.792-2.792h0a2.792,2.792,0,0,1,2.792-2.792H409.7a2.792,2.792,0,0,1,2.792,2.792h0A2.792,2.792,0,0,1,409.7,163.524Z" transform="translate(-216.367 -133.866)" fill="#fff" opacity="0.6" style="isolation: isolate"/>
    <path id="Path_7108" data-name="Path 7108" d="M296.17,182.4a5.019,5.019,0,0,1,5.258-5.073,4.9,4.9,0,0,1,3.77,1.553l-.913.891a3.813,3.813,0,1,0,0,5.258l.913.891a4.91,4.91,0,0,1-3.781,1.564,5.019,5.019,0,0,1-5.247-5.084Z" transform="translate(-220.765 -132.192)" fill="#263238"/>
    <path id="Path_7109" data-name="Path 7109" d="M314.889,177.48V187.4h-1.423v-4.422h-5.693V187.4H306.35V177.48h1.423v4.269h5.693V177.48Z" transform="translate(-219.886 -132.178)" fill="#263238"/>
    <path id="Path_7110" data-name="Path 7110" d="M323.391,184.922h-5.269l-1.086,2.477H315.58l4.5-9.919h1.391l4.508,9.919h-1.488Zm-.489-1.141-2.173-4.856-2.173,4.856Z" transform="translate(-219.088 -132.178)" fill="#263238"/>
    <path id="Path_7111" data-name="Path 7111" d="M334.517,180.935c0,2.173-1.564,3.466-4.139,3.466h-2.455v3H326.51V177.48h3.867C332.952,177.48,334.517,178.784,334.517,180.935Zm-1.423,0c0-1.412-.945-2.173-2.759-2.173h-2.412v4.454H330.3C332.148,183.162,333.093,182.39,333.093,180.935Z" transform="translate(-218.144 -132.178)" fill="#263238"/>
    <path id="Path_7112" data-name="Path 7112" d="M337.6,178.708h-3.4V177.48h8.2v1.228H339V187.4h-1.4Z" transform="translate(-217.48 -132.178)" fill="#263238"/>
    <path id="Path_7113" data-name="Path 7113" d="M350.372,186.171V187.4H343.18V177.48h7v1.228h-5.584v3.053h4.976v1.206h-4.976v3.2Z" transform="translate(-216.705 -132.178)" fill="#263238"/>
    <path id="Path_7114" data-name="Path 7114" d="M358.53,187.4l-2.173-3.042h-3.074v3.02H351.86V177.46h3.867c2.586,0,4.139,1.3,4.139,3.455a3.14,3.14,0,0,1-2.173,3.14l2.357,3.324Zm0-6.518c0-1.412-.956-2.173-2.77-2.173h-2.4v4.465h2.4c1.8,0,2.77-.782,2.77-2.238Z" transform="translate(-215.955 -132.18)" fill="#263238"/>
    <path id="Path_7115" data-name="Path 7115" d="M363.12,165.89v51.092l15.665-15.655,14.862,14.862v-50.3Z" transform="translate(-214.982 -133.179)" fill="#286efa"/>
    <path id="Path_7116" data-name="Path 7116" d="M383.081,187.962c0,2.651-1.955,4.8-5.942,4.8a8.93,8.93,0,0,1-5.769-1.9l1.032-1.782a7.061,7.061,0,0,0,4.737,1.684c2.357,0,3.7-1.086,3.7-2.781s-1.2-2.738-3.889-2.738h-1.26v-1.575l3.954-4.845h-7.6V176.87h10.364V178.4l-4.063,5.128C381.484,183.768,383.081,185.539,383.081,187.962Z" transform="translate(-214.27 -132.231)" fill="#fff"/>
    <path id="Path_7117" data-name="Path 7117" d="M261.024,238.584c0,3.476-2.51,5.573-6.659,5.573h-3.944v4.834H248.14V233h6.225C258.515,233,261.024,235.173,261.024,238.584Zm-2.281,0c0-2.281-1.521-3.574-4.443-3.574h-3.878v7.159H254.3C257.222,242.169,258.743,240.865,258.743,238.584Z" transform="translate(-224.913 -127.383)" fill="#263238"/>
    <path id="Path_7118" data-name="Path 7118" d="M403.6,234.356H263.453a.543.543,0,0,1,0-1.086H403.6a.543.543,0,0,1,0,1.086Z" transform="translate(-223.638 -127.36)"/>
    <path id="Path_7119" data-name="Path 7119" d="M403.6,239.546H263.453a.543.543,0,0,1,0-1.086H403.6a.554.554,0,0,1,.543.543A.543.543,0,0,1,403.6,239.546Z" transform="translate(-223.638 -126.911)"/>
    <path id="Path_7120" data-name="Path 7120" d="M403.6,244.736H263.453a.543.543,0,0,1,0-1.086H403.6a.554.554,0,0,1,.543.543.543.543,0,0,1-.543.543Z" transform="translate(-223.638 -126.463)"/>
    <path id="Path_7121" data-name="Path 7121" d="M403.6,249.926H263.453a.543.543,0,0,1,0-1.086H403.6a.554.554,0,0,1,.543.543.543.543,0,0,1-.543.543Z" transform="translate(-223.638 -126.015)"/>
    <path id="Path_7122" data-name="Path 7122" d="M404.891,255.086H248.453a.543.543,0,0,1,0-1.086H404.891a.543.543,0,0,1,.543.543A.554.554,0,0,1,404.891,255.086Z" transform="translate(-224.933 -125.569)"/>
    <path id="Path_7123" data-name="Path 7123" d="M404.891,260.316H248.453a.543.543,0,1,1,0-1.086H404.891a.543.543,0,0,1,.543.543A.554.554,0,0,1,404.891,260.316Z" transform="translate(-224.933 -125.117)"/>
    <path id="Path_7124" data-name="Path 7124" d="M404.891,265.506H248.453a.543.543,0,1,1,0-1.086H404.891a.543.543,0,0,1,.543.543A.554.554,0,0,1,404.891,265.506Z" transform="translate(-224.933 -124.669)"/>
    <path id="Path_7125" data-name="Path 7125" d="M404.891,270.7H248.453a.543.543,0,0,1,0-1.086H404.891a.543.543,0,0,1,0,1.086Z" transform="translate(-224.933 -124.221)"/>
    <path id="Path_7126" data-name="Path 7126" d="M317.967,275.886H248.493a.543.543,0,0,1,0-1.086h69.474a.543.543,0,0,1,0,1.086Z" transform="translate(-224.93 -123.773)"/>
    <path id="Path_7127" data-name="Path 7127" d="M403.509,287.356H264.453a.543.543,0,0,1,0-1.086H403.509a.554.554,0,0,1,.543.543A.543.543,0,0,1,403.509,287.356Z" transform="translate(-223.551 -122.782)"/>
    <path id="Path_7128" data-name="Path 7128" d="M404.891,292.546H248.453a.543.543,0,0,1,0-1.086H404.891a.554.554,0,0,1,.543.543A.543.543,0,0,1,404.891,292.546Z" transform="translate(-224.933 -122.334)"/>
    <path id="Path_7129" data-name="Path 7129" d="M404.891,297.746H248.453a.543.543,0,1,1,0-1.086H404.891a.543.543,0,0,1,.543.543.554.554,0,0,1-.543.543Z" transform="translate(-224.933 -121.884)"/>
    <path id="Path_7130" data-name="Path 7130" d="M404.891,302.936H248.453a.543.543,0,0,1,0-1.086H404.891a.543.543,0,0,1,.543.543.554.554,0,0,1-.543.543Z" transform="translate(-224.933 -121.436)"/>
    <path id="Path_7131" data-name="Path 7131" d="M404.891,308.086H248.453a.543.543,0,0,1,0-1.086H404.891a.543.543,0,0,1,0,1.086Z" transform="translate(-224.933 -120.991)"/>
    <path id="Path_7132" data-name="Path 7132" d="M404.891,313.316H248.453a.543.543,0,0,1,0-1.086H404.891a.543.543,0,0,1,0,1.086Z" transform="translate(-224.933 -120.54)"/>
    <path id="Path_7133" data-name="Path 7133" d="M404.891,318.506H248.453a.543.543,0,1,1,0-1.086H404.891a.543.543,0,0,1,0,1.086Z" transform="translate(-224.933 -120.091)"/>
    <path id="Path_7134" data-name="Path 7134" d="M404.891,323.7H248.453a.543.543,0,0,1,0-1.086H404.891a.554.554,0,0,1,.543.543.543.543,0,0,1-.543.543Z" transform="translate(-224.933 -119.643)"/>
    <path id="Path_7135" data-name="Path 7135" d="M372.285,328.886H248.493a.543.543,0,0,1,0-1.086H372.34a.545.545,0,1,1-.054,1.086Z" transform="translate(-224.93 -119.195)"/>
    <path id="Path_7136" data-name="Path 7136" d="M403.509,341.366H264.453a.543.543,0,1,1,0-1.086H403.509a.543.543,0,0,1,.543.543A.554.554,0,0,1,403.509,341.366Z" transform="translate(-223.551 -118.117)"/>
    <path id="Path_7137" data-name="Path 7137" d="M404.891,346.556H248.453a.543.543,0,0,1,0-1.086H404.891a.543.543,0,0,1,0,1.086Z" transform="translate(-224.933 -117.669)"/>
    <path id="Path_7138" data-name="Path 7138" d="M404.891,351.746H248.453a.543.543,0,1,1,0-1.086H404.891a.543.543,0,0,1,0,1.086Z" transform="translate(-224.933 -117.22)"/>
    <path id="Path_7139" data-name="Path 7139" d="M361.422,356.936H248.493a.543.543,0,0,1,0-1.086H361.476a.543.543,0,0,1,0,1.086Z" transform="translate(-224.93 -116.772)"/>
    <path id="Path_7140" data-name="Path 7140" d="M388.514,372.05v.663l-2.759,6.181h-1.086l2.705-6h-3.129v1.271h-.934V372.1Z" transform="translate(-213.238 -115.373)" fill="#263238"/>
    <path id="Path_7141" data-name="Path 7141" d="M393.536,376.873c0,1.162-.847,2.1-2.586,2.1a3.911,3.911,0,0,1-2.52-.836l.456-.771a3.053,3.053,0,0,0,2.064.739c1.021,0,1.608-.467,1.608-1.217s-.511-1.2-1.684-1.2h-.554V375l1.727-2.108h-3.259v-.847h4.519v.663l-1.793,2.173C392.841,375.048,393.536,375.82,393.536,376.873Z" transform="translate(-212.796 -115.373)" fill="#263238"/>
    <rect id="Rectangle_4286" data-name="Rectangle 4286" width="4.889" height="243.912" transform="translate(194.298 32.711)" opacity="0.4" style="isolation: isolate"/>
    <rect id="Rectangle_4287" data-name="Rectangle 4287" width="4.889" height="29.223" rx="2.25" transform="translate(194.298 74.036)" fill="#fff" opacity="0.3" style="isolation: isolate"/>
    <rect id="Rectangle_4288" data-name="Rectangle 4288" width="3.726" height="28.941" rx="1.07" transform="translate(207.649 63.346)" fill="#263238"/>
    <rect id="Rectangle_4289" data-name="Rectangle 4289" width="3.726" height="28.941" rx="1.07" transform="translate(207.649 30.755)" fill="#263238"/>
    <rect id="Rectangle_4290" data-name="Rectangle 4290" width="3.726" height="28.941" rx="1.07" transform="translate(207.649 63.346)" fill="#fff" opacity="0.2"/>
    <rect id="Rectangle_4291" data-name="Rectangle 4291" width="3.726" height="28.941" rx="1.07" transform="translate(207.649 30.755)" fill="#fff" opacity="0.2"/>
  </g>
  <g id="freepik--Character--inject-10" transform="translate(91.225 193.263)">
    <path id="Path_7142" data-name="Path 7142" d="M215.812,368.979H101.645L84.263,279.136A15.915,15.915,0,0,1,99.885,260.19h81.739a15.915,15.915,0,0,1,15.622,12.9Z" transform="translate(-83.972 -230.541)" fill="#407bff"/>
    <path id="Path_7143" data-name="Path 7143" d="M134.073,368.979H101.645L84.263,279.136A15.915,15.915,0,0,1,99.885,260.19h0a15.926,15.926,0,0,1,15.622,12.9Z" transform="translate(-83.972 -230.541)" fill="#407bff"/>
    <g id="Group_9202" data-name="Group 9202" transform="translate(0 29.649)" opacity="0.2" style="isolation: isolate">
      <path id="Path_7144" data-name="Path 7144" d="M215.812,368.979H101.645L84.263,279.136A15.915,15.915,0,0,1,99.885,260.19h81.739a15.915,15.915,0,0,1,15.622,12.9Z" transform="translate(-83.972 -260.19)" fill="#fff"/>
    </g>
    <path id="Path_7145" data-name="Path 7145" d="M214.548,368.8H132.809l-18.566-95.785A15.839,15.839,0,0,0,98.61,260.2h81.739a15.828,15.828,0,0,1,15.622,12.819Z" transform="translate(-82.707 -230.54)" fill="#fff" opacity="0.2" style="isolation: isolate"/>
    <path id="Path_7146" data-name="Path 7146" d="M172.225,252.422s-4.291,16.817-16.5,14.188-12.613-18.653-12.613-18.653-1.879,4.976-1.445,7.692a8.061,8.061,0,0,1-.065-7.692s-3.259,1.727-3.259,4.465a4.541,4.541,0,0,1,2.01-5.54s-7.279,1.651-4.346-8.387,12.33-4.661,11.342,1.282a13.482,13.482,0,0,1,8.691-3.715C161.383,235.779,177.472,242.286,172.225,252.422Z" transform="translate(-79.538 -232.898)" fill="#263238"/>
    <path id="Path_7147" data-name="Path 7147" d="M172.3,271c5.356,1.727,11.7,24.411,13.352,25.193S193.9,282,193.9,282l.771-6.334,2.227-3.954s3.411,4.661,3.422,7.051-4.172,5.551-4.172,5.551-6.518,22.683-11.1,21.8-12.863-18.349-12.863-18.349Z" transform="translate(-76.353 -229.607)" fill="#e4897b"/>
    <path id="Path_7148" data-name="Path 7148" d="M229.683,340.333c-.1.163-.2.228-.315.206-3.259-.587-11.95,4.161-22.444,9.636l-2.955,1.521c-.337.185-.674.348-1.01.511-5.323,2.727-10.972,5.432-16.567,7.713-6.573,2.672-13.036,4.65-18.773,5.073-.782.065-1.532.087-2.281.087-25.638,0-17.284-42.314-17.284-42.314l30.625-2.347,3.618,6.225,1.955,3.368,4.422-1.184c2.173-.6,5.519-1.369,9.321-2.173l.88-.2c1.271-.272,2.6-.532,3.954-.8,9.995-2.032,21.467-3.987,25.714-4.009C231.585,321.626,231.052,338.323,229.683,340.333Z" transform="translate(-78.549 -225.338)" fill="#e4897b"/>
    <path id="Path_7149" data-name="Path 7149" d="M198.035,325.478l5.942,29.452s-20.456,16.621-38.023,10.136-12.07-36.437-12.07-36.437l21.543-13.569,8.593,12.015Z" transform="translate(-78.004 -225.801)" fill="#263238"/>
    <path id="Path_7150" data-name="Path 7150" d="M193.53,324.179l6.181,31.874,3.715-2.933-4.954-29.56Z" transform="translate(-74.509 -225.067)" fill="#263238"/>
    <path id="Path_7151" data-name="Path 7151" d="M203.428,353.12l-3.715,2.933-.206-1.108-.587-3.009-2.52-12.96-2.444-12.591-.272-1.423-.163-.782,4.965-.619.3,1.825,2.314,13.862,1.782,10.657Z" transform="translate(-74.51 -225.067)" fill="#fff" opacity="0.4" style="isolation: isolate"/>
    <path id="Path_7152" data-name="Path 7152" d="M227.071,339.5c-.1.163-.2.228-.315.206-3.259-.587-11.95,4.161-22.444,9.636l.543,3.259-3.715,2.933-.206-1.217a84.965,84.965,0,0,1-12.461,7.094h0l-4.682-2.39L177,355.433l2.781-25.323,4.02,5.573s9.375,2.271,14.014,2.716l1.086.1c1.271.109,2.52.174,3.672.185.826,0,1.586,0,2.325-.065C212.85,338.062,221.465,337.769,227.071,339.5Z" transform="translate(-75.937 -224.501)" opacity="0.2" style="isolation: isolate"/>
    <path id="Path_7153" data-name="Path 7153" d="M292.707,355.923l-.282,6.127h-.717l-4.954.25c-13.145.6-45.758,1.749-59.664-1.032l-63.9,1.238L177.237,337.9,265.1,351.621l27.04,4.2Z" transform="translate(-77.129 -223.829)" fill="#e4897b"/>
    <path id="Path_7154" data-name="Path 7154" d="M293.049,348.253c-.12,2.4-.206,4.563-.3,6.518-.13,2.738-.228,5.16-.337,7.485-.185,4.041-3.5,1.358-10.668.858-.174,0-.239-.576-.25-1.412,0-1.793.261-4.824.4-6.268l.087-.826a32.9,32.9,0,0,0,2.488-2.586,21.033,21.033,0,0,0,4.487-7.431C290.377,339.605,293.3,342.582,293.049,348.253Z" transform="translate(-66.912 -223.47)" fill="#263238"/>
    <path id="Path_7155" data-name="Path 7155" d="M196.355,341.774,189.163,366.9l-14.123-1.358s-40.663,10.744-29.332-47.55l30.549-2.933,8.908,23.238Z" transform="translate(-78.812 -225.801)" fill="#263238"/>
    <path id="Path_7156" data-name="Path 7156" d="M191.4,338.39l-8.126,26.9h4.8l7.116-25.53Z" transform="translate(-75.395 -223.786)" fill="#263238"/>
    <path id="Path_7157" data-name="Path 7157" d="M191.4,338.39l-8.126,26.9h4.8l7.116-25.53Z" transform="translate(-75.395 -223.786)" fill="#fff" opacity="0.4" style="isolation: isolate"/>
    <path id="Path_7158" data-name="Path 7158" d="M294.866,354.072c-.13,2.738-.228,5.16-.337,7.485-.185,4.041-3.5,1.358-10.668.858-.174,0-.239-.576-.25-1.412l-4.954.25c-6.768-3.813-16.3-8.256-21.727-10.722l27.04,4.2.087-.826a32.878,32.878,0,0,0,2.488-2.586Z" transform="translate(-69.033 -222.738)" opacity="0.2" style="isolation: isolate"/>
    <path id="Path_7159" data-name="Path 7159" d="M222.092,321.55c-1.086,0-.359,18.686.815,18.892,4.986.9,73,20.978,73,20.978l1.977-5.964S233.239,321.485,222.092,321.55Z" transform="translate(-72.088 -225.241)" fill="#e4897b"/>
    <path id="Path_7160" data-name="Path 7160" d="M289.267,360.73c-.652-.239,2.542-8.137,2.542-8.137s6.7-3.259,9.441-7.724,4.737-.793,2.944,4.6L299.761,362.8C298.49,366.629,296.024,363.152,289.267,360.73Z" transform="translate(-66.247 -223.399)" fill="#263238"/>
    <path id="Path_7161" data-name="Path 7161" d="M145.084,318.191l-.3,4.639,31.613-6.7-1.369-5.117Z" transform="translate(-78.72 -226.151)"/>
    <rect id="Rectangle_4292" data-name="Rectangle 4292" width="1.521" height="7.746" transform="translate(74.798 89.101) rotate(-10.51)" fill="#263238"/>
    <rect id="Rectangle_4293" data-name="Rectangle 4293" width="6.725" height="5.095" transform="matrix(0.976, -0.22, 0.22, 0.976, 82.876, 88.356)" fill="#fff"/>
    <rect id="Rectangle_4294" data-name="Rectangle 4294" width="1.521" height="7.746" transform="translate(93.115 84.559) rotate(-10.51)" fill="#263238"/>
    <path id="Path_7162" data-name="Path 7162" d="M175.982,315.416l-30.212,6.431s.1-16.719-2.271-25.953c-.771-3-1.738-6.355-2.966-10.255-.521-1.651-1.086-3.389-1.706-5.258s-1.184-3.585-1.869-5.53a90.423,90.423,0,0,1,12.428-3,96.028,96.028,0,0,1,13.438-1.412c5.823-.054,12.515.608,12.515.608s.945.228,1.543,6.4C177.438,283.249,177.2,294.34,175.982,315.416Z" transform="translate(-79.395 -229.655)" fill="#263238"/>
    <path id="Path_7163" data-name="Path 7163" d="M175.98,315.416l-30.212,6.431v-1.021c-.054-1.488-.1-4.345-.25-7.691-.228-5.432-.739-12.352-2-17.241-.543-2.173-1.2-4.465-1.977-7.04l-.4-1.325c-.185-.608-.369-1.238-.576-1.879-.521-1.651-1.086-3.4-1.716-5.269s-1.184-3.585-1.858-5.519a88.345,88.345,0,0,1,12.417-3,96.046,96.046,0,0,1,13.438-1.423c5.823,0,12.515.608,12.515.608s.945.239,1.554,6.4C177.436,283.248,177.2,294.34,175.98,315.416Z" transform="translate(-79.392 -229.655)" fill="#fff" opacity="0.8" style="isolation: isolate"/>
    <path id="Path_7164" data-name="Path 7164" d="M159.264,277.816c-7.387-.945-9.6-4.106-9.6-4.106,3.02-2.835,2.466-7.029,1.695-9.647a14.924,14.924,0,0,0-.9-2.423l8.876,1.662a26.275,26.275,0,0,0-.337,3.748,10.755,10.755,0,0,0,.25,2.749c.6,2.651,2.173,2.683,2.173,2.683C162.914,275.4,159.264,277.816,159.264,277.816Z" transform="translate(-78.298 -230.415)" fill="#e4897b"/>
    <path id="Path_7165" data-name="Path 7165" d="M158.929,267.05a10.755,10.755,0,0,0,.25,2.749c-3.531-.467-6.2-3.259-7.887-5.736a14.924,14.924,0,0,0-.9-2.423l8.876,1.662a26.275,26.275,0,0,0-.337,3.748Z" transform="translate(-78.235 -230.415)" opacity="0.2" style="isolation: isolate"/>
    <path id="Path_7166" data-name="Path 7166" d="M161.518,240.247c8.17,1.673,9.908,6.583,8.789,15.133-1.4,10.679-5.258,17.675-15.025,13.341C142.028,262.811,147.938,237.477,161.518,240.247Z" transform="translate(-78.456 -232.281)" fill="#e4897b"/>
    <path id="Path_7167" data-name="Path 7167" d="M163.792,252.74a17.642,17.642,0,0,0,1.684,3.878,2.292,2.292,0,0,1-2.336.489Z" transform="translate(-77.134 -231.184)" fill="#de5753"/>
    <path id="Path_7168" data-name="Path 7168" d="M156.781,246.931a.38.38,0,0,1-.3-.141.391.391,0,0,1,.054-.554,4.715,4.715,0,0,1,4.172-.587.4.4,0,0,1,.25.5.391.391,0,0,1-.5.25,3.933,3.933,0,0,0-3.422.445.435.435,0,0,1-.25.087Z" transform="translate(-77.717 -231.818)" fill="#263238"/>
    <path id="Path_7169" data-name="Path 7169" d="M168.931,248.539a.391.391,0,0,1-.272-.12,3.574,3.574,0,0,0-2.792-1.228.391.391,0,1,1-.12-.771,4.28,4.28,0,0,1,3.466,1.445.391.391,0,0,1,0,.554.413.413,0,0,1-.282.12Z" transform="translate(-76.939 -231.73)" fill="#263238"/>
    <path id="Path_7170" data-name="Path 7170" d="M149.9,252.481s5.182-5.932,5.671-11.233c0,0,17.545-3.259,14.992,13.286,0,0,4.563-14.275-9.43-17.458s-18.121,17.382-12.113,24.987C149.023,262.009,146.676,256.207,149.9,252.481Z" transform="translate(-78.584 -232.566)" fill="#263238"/>
    <path id="Path_7171" data-name="Path 7171" d="M150.985,253.394a3.661,3.661,0,0,0-3.194-4.063c-2.586-.239-4.856,4.715,1.2,7.257C149.844,256.946,150.539,256.164,150.985,253.394Z" transform="translate(-78.689 -231.479)" fill="#e4897b"/>
    <path id="Path_7172" data-name="Path 7172" d="M163.354,259.269a21.64,21.64,0,0,0-1.923,2.379l-.489-.228c-2.173-1.086-2.846-2.3-2.911-3.335a3.031,3.031,0,0,1,.282-1.456,3.194,3.194,0,0,1,.435-.739,11.341,11.341,0,0,0,3.868,3A6.453,6.453,0,0,0,163.354,259.269Z" transform="translate(-77.576 -230.912)" fill="#263238"/>
    <path id="Path_7173" data-name="Path 7173" d="M162.592,258.9l-.587.7c-2.064-1.021-3.379-2.01-3.715-2.955a3.194,3.194,0,0,1,.435-.739A11.342,11.342,0,0,0,162.592,258.9Z" transform="translate(-77.553 -230.911)" fill="#fff"/>
    <path id="Path_7174" data-name="Path 7174" d="M160.941,261.265c-2.173-1.086-2.846-2.3-2.911-3.335a8.072,8.072,0,0,1,2.173,1.684A2.9,2.9,0,0,1,160.941,261.265Z" transform="translate(-77.575 -230.736)" fill="#de5753"/>
    <path id="Path_7175" data-name="Path 7175" d="M161.491,241.226s-6.029,12.776-14.47,10.864,8.115-16.3,8.115-16.3,14.883-2.39,20.207,6.334-4.628,12.472-4.628,12.472S173.354,244.344,161.491,241.226Z" transform="translate(-78.733 -232.674)" fill="#263238"/>
    <path id="Path_7176" data-name="Path 7176" d="M152.7,251.407a.272.272,0,0,1-.065-.532c7.083-1.793,8.017-10.864,8.028-11a.272.272,0,0,1,.293-.25.282.282,0,0,1,.25.3c0,.087-.978,9.593-8.441,11.472Z" transform="translate(-78.058 -232.317)" fill="#263238"/>
    <path id="Path_7177" data-name="Path 7177" d="M159.464,251.692c0,.641-.391,1.152-.826,1.141s-.76-.565-.739-1.206.4-1.162.826-1.086A1.017,1.017,0,0,1,159.464,251.692Z" transform="translate(-77.586 -231.375)" fill="#263238"/>
    <path id="Path_7178" data-name="Path 7178" d="M158.5,250.55l1.434-.5S159.184,251.212,158.5,250.55Z" transform="translate(-77.535 -231.416)" fill="#263238"/>
    <path id="Path_7179" data-name="Path 7179" d="M166.895,251.87c0,.652-.4,1.162-.837,1.086a1.066,1.066,0,0,1-.728-1.206c.033-.652.391-1.162.826-1.141S166.916,251.218,166.895,251.87Z" transform="translate(-76.945 -231.368)" fill="#263238"/>
    <path id="Path_7180" data-name="Path 7180" d="M165.92,250.72l1.434-.5S166.6,251.382,165.92,250.72Z" transform="translate(-76.894 -231.402)" fill="#263238"/>
    <path id="Path_7181" data-name="Path 7181" d="M168.94,295.817h22.021a1.412,1.412,0,0,0,1.315-1.086l7.768-34.384a.826.826,0,0,0-.837-1.086H177.185a1.434,1.434,0,0,0-1.315,1.086L168.1,294.73a.826.826,0,0,0,.837,1.086Z" transform="translate(-76.709 -230.621)" fill="#263238"/>
    <path id="Path_7182" data-name="Path 7182" d="M168.94,295.817h22.021a1.412,1.412,0,0,0,1.315-1.086l7.768-34.384a.826.826,0,0,0-.837-1.086H177.185a1.434,1.434,0,0,0-1.315,1.086L168.1,294.73a.826.826,0,0,0,.837,1.086Z" transform="translate(-76.709 -230.621)" fill="#fff" opacity="0.2" style="isolation: isolate"/>
    <path id="Path_7183" data-name="Path 7183" d="M184.93,272.44c1.358,0,2.173,1.391,1.749,3.107s-1.8,3.1-3.15,3.1-2.173-1.391-1.76-3.1C183.116,275.547,184.539,274.135,184.93,272.44Z" transform="translate(-75.534 -229.482)" fill="#fff" opacity="0.8" style="isolation: isolate"/>
    <path id="Path_7184" data-name="Path 7184" d="M177.7,264.718h2.336a.532.532,0,0,0,.5-.4l.641-2.825a.326.326,0,0,0-.326-.4h-2.336a.543.543,0,0,0-.5.4l-.641,2.825a.315.315,0,0,0,.326.4Z" transform="translate(-75.906 -230.463)" opacity="0.2" style="isolation: isolate"/>
    <path id="Path_7185" data-name="Path 7185" d="M179.471,262.111c-.065.282.087.521.326.521a.652.652,0,0,0,.554-.521c.065-.282-.076-.521-.315-.521A.652.652,0,0,0,179.471,262.111Z" transform="translate(-75.725 -230.42)" fill="#263238"/>
    <path id="Path_7186" data-name="Path 7186" d="M178.271,262.111c-.065.282.076.521.326.521a.652.652,0,0,0,.554-.521c.065-.282-.076-.521-.326-.521A.652.652,0,0,0,178.271,262.111Z" transform="translate(-75.828 -230.42)" fill="#263238"/>
    <path id="Path_7187" data-name="Path 7187" d="M179.161,263.491c-.065.293.076.521.326.521a.641.641,0,0,0,.554-.521c.065-.282-.076-.511-.326-.511A.641.641,0,0,0,179.161,263.491Z" transform="translate(-75.751 -230.3)" fill="#263238"/>
    <path id="Path_7188" data-name="Path 7188" d="M178,263.491c-.065.293.076.521.315.521a.641.641,0,0,0,.565-.521c.065-.282-.087-.511-.326-.511a.641.641,0,0,0-.554.511Z" transform="translate(-75.852 -230.3)" fill="#263238"/>
    <path id="Path_7189" data-name="Path 7189" d="M175.882,260.366,168.1,294.75a.826.826,0,0,0,.837,1.086h.913a.826.826,0,0,1-.826-1.086l7.768-34.384a1.423,1.423,0,0,1,1.315-1.086h-.923a1.412,1.412,0,0,0-1.3,1.086Z" transform="translate(-76.709 -230.619)" opacity="0.2" style="isolation: isolate"/>
    <path id="Path_7190" data-name="Path 7190" d="M158.195,297.825a49.473,49.473,0,0,1-13.036,14.123c-.228-5.432-.739-12.352-2-17.241-.543-2.173-1.2-4.465-1.977-7.04l-.4-1.325a8.039,8.039,0,0,1,3.628-2.542,54.633,54.633,0,0,1,1.749,16.078Z" transform="translate(-79.065 -228.501)" opacity="0.2" style="isolation: isolate"/>
    <path id="Path_7191" data-name="Path 7191" d="M137.091,274.516c-2.227.532-1.086,27.616,2.531,34.036s29.028-19.381,29.028-19.381l-1.543-4.671s-22.282,14.449-22.76,14.221.489-14.123.489-14.123-.869-5.062-3.259-7.93S137.091,274.516,137.091,274.516Z" transform="translate(-79.482 -229.31)" fill="#e4897b"/>
    <path id="Path_7192" data-name="Path 7192" d="M164.63,284.216l4.226-5.986,3.259,8.539s-4.693,4.617-6.877,2Z" transform="translate(-77.005 -228.982)" fill="#e4897b"/>
    <path id="Path_7193" data-name="Path 7193" d="M174.919,276.2l1.771,6.768-4.9,3.976-3.27-8.539Z" transform="translate(-76.669 -229.158)" fill="#e4897b"/>
    <path id="Path_7194" data-name="Path 7194" d="M266.375,417.568h5.5l-1.858-18.338H262.66Z" transform="translate(-68.538 -218.531)" fill="#263238"/>
    <path id="Path_7195" data-name="Path 7195" d="M214.255,417.568h5.5l-1.858-18.338H210.54Z" transform="translate(-73.04 -218.531)" fill="#263238"/>
    <path id="Path_7196" data-name="Path 7196" d="M181.857,417.568h-5.5l1.858-18.338h7.355Z" transform="translate(-75.992 -218.531)" fill="#263238"/>
    <path id="Path_7197" data-name="Path 7197" d="M233.976,417.568H228.49l1.847-18.338h7.355Z" transform="translate(-71.489 -218.531)" fill="#263238"/>
    <path id="Path_7198" data-name="Path 7198" d="M108.377,417.568h-5.5l1.858-18.338h7.355Z" transform="translate(-82.339 -218.531)" fill="#263238"/>
    <path id="Path_7199" data-name="Path 7199" d="M160.5,417.568H155l1.858-18.338h7.355Z" transform="translate(-77.837 -218.531)" fill="#263238"/>
    <path id="Path_7200" data-name="Path 7200" d="M181.857,417.568h-5.5l1.858-18.338h7.355Z" transform="translate(-75.992 -218.531)" fill="#fff" opacity="0.1" style="isolation: isolate"/>
    <path id="Path_7201" data-name="Path 7201" d="M233.976,417.568H228.49l1.847-18.338h7.355Z" transform="translate(-71.489 -218.531)" fill="#fff" opacity="0.1" style="isolation: isolate"/>
    <path id="Path_7202" data-name="Path 7202" d="M108.377,417.568h-5.5l1.858-18.338h7.355Z" transform="translate(-82.339 -218.531)" fill="#fff" opacity="0.1" style="isolation: isolate"/>
    <path id="Path_7203" data-name="Path 7203" d="M160.5,417.568H155l1.858-18.338h7.355Z" transform="translate(-77.837 -218.531)" fill="#fff" opacity="0.1" style="isolation: isolate"/>
    <path id="Path_7204" data-name="Path 7204" d="M334.735,417.568h5.486l-1.847-18.338H331.02Z" transform="translate(-62.634 -218.531)" fill="#263238"/>
    <path id="Path_7205" data-name="Path 7205" d="M282.6,417.568h5.5l-1.858-18.338H278.9Z" transform="translate(-67.135 -218.531)" fill="#263238"/>
    <rect id="Rectangle_4295" data-name="Rectangle 4295" width="194.004" height="47.344" rx="7.38" transform="translate(13.35 137.331)" fill="#407bff"/>
    <rect id="Rectangle_4296" data-name="Rectangle 4296" width="194.004" height="47.344" rx="7.38" transform="translate(13.35 137.331)" fill="#fff" opacity="0.2" style="isolation: isolate"/>
    <rect id="Rectangle_4297" data-name="Rectangle 4297" width="119.74" height="47.344" rx="7.38" transform="translate(87.614 137.331)" fill="#fff" opacity="0.2" style="isolation: isolate"/>
    <rect id="Rectangle_4298" data-name="Rectangle 4298" width="194.004" height="47.344" rx="7.38" transform="translate(91.319 137.331)" fill="#407bff"/>
    <rect id="Rectangle_4299" data-name="Rectangle 4299" width="194.004" height="47.344" rx="7.38" transform="translate(91.319 137.331)" fill="#fff" opacity="0.2" style="isolation: isolate"/>
    <rect id="Rectangle_4300" data-name="Rectangle 4300" width="119.74" height="47.344" rx="7.38" transform="translate(165.583 137.331)" fill="#fff" opacity="0.2" style="isolation: isolate"/>
  </g>
  <g id="freepik--Plant--inject-10" transform="translate(62.115 185.685)">
    <path id="Path_7206" data-name="Path 7206" d="M88.516,389.873H88.44a.543.543,0,0,1-.467-.608c0-.1.076-1.162.163-3.009.141-2.749.369-8.506.293-16.22a3.065,3.065,0,0,0,0-.337c-.1-8.615-.565-17.089-1.369-25.215-.75-7.6-1.814-14.927-3.172-21.858a172.561,172.561,0,0,0-4.422-17.664h0c-.272-.858-.543-1.716-.826-2.564s-.467-1.4-.717-2.1c-.63-1.8-1.206-3.542-1.706-5.149-1.086-3.531-2.086-7.061-2.9-10.483-.5-2.064-.945-4.085-1.315-6.019a130.864,130.864,0,0,1-2.52-22.249c-.076-2.944,0-5.877.13-8.691a86.282,86.282,0,0,1,.956-8.919,3.3,3.3,0,0,1,.1-.587v-.282a.619.619,0,0,1,.152-.369.543.543,0,0,1,.771,0,.608.608,0,0,1,.163.543h0v.282a1.351,1.351,0,0,1-.1.608,83.654,83.654,0,0,0-.945,8.8c-.152,2.814-.2,5.725-.12,8.637A131,131,0,0,0,73.078,278.5c.369,1.923.815,3.922,1.315,5.964.8,3.4,1.782,6.909,2.879,10.418.5,1.6,1.086,3.259,1.695,5.117.25.7.489,1.4.728,2.108s.554,1.716.815,2.575h0a177.289,177.289,0,0,1,4.454,17.795c1.358,6.964,2.433,14.351,3.183,21.956.815,8.159,1.271,16.665,1.38,25.291v.391c.087,7.7-.141,13.493-.293,16.3-.076,1.869-.152,2.988-.163,3.085A.554.554,0,0,1,88.516,389.873Z" transform="translate(-56.117 -224.931)" fill="#407bff"/>
    <path id="Path_7207" data-name="Path 7207" d="M71.05,238.313h0a16,16,0,0,1,6.812-3.933" transform="translate(-55.979 -225.192)" fill="#407bff"/>
    <path id="Path_7208" data-name="Path 7208" d="M71.093,238.88a.708.708,0,0,1-.217,0,.554.554,0,0,1-.282-.717.587.587,0,0,1,.109-.174.13.13,0,0,0,0-.054h0a17,17,0,0,1,3.118-2.379,16.7,16.7,0,0,1,3.933-1.684.563.563,0,0,1,.293,1.086,15.417,15.417,0,0,0-3.672,1.575,16.458,16.458,0,0,0-2.911,2.173h0A.532.532,0,0,1,71.093,238.88Z" transform="translate(-56.023 -225.237)" fill="#407bff"/>
    <path id="Path_7209" data-name="Path 7209" d="M70.395,247.679a.554.554,0,0,1-.348-.13l-3.672-3.042a.565.565,0,0,1-.076-.771.554.554,0,0,1,.771-.076l3.672,3.053a.543.543,0,0,1,.076.771A.576.576,0,0,1,70.395,247.679Z" transform="translate(-56.4 -224.401)" fill="#407bff"/>
    <path id="Path_7210" data-name="Path 7210" d="M76.174,291.714a.587.587,0,0,1-.554-.565h0a13.569,13.569,0,0,1,.75-2.977,14.558,14.558,0,0,1,2.021-3.8,14.221,14.221,0,0,1,2.173-2.379.547.547,0,1,1,.717.826,13.481,13.481,0,0,0-2.042,2.173,13.233,13.233,0,0,0-1.847,3.542,13.871,13.871,0,0,0-.684,2.662.5.5,0,0,1-.521.521Z" transform="translate(-55.585 -221.091)" fill="#407bff"/>
    <path id="Path_7211" data-name="Path 7211" d="M79.633,300.442a.554.554,0,0,1-.5-.326,9.223,9.223,0,0,0-5.432-4.921.543.543,0,1,1,.337-1.032,10.277,10.277,0,0,1,6.095,5.508.532.532,0,0,1-.272.717.576.576,0,0,1-.228.054Z" transform="translate(-55.784 -220.031)" fill="#407bff"/>
    <path id="Path_7212" data-name="Path 7212" d="M87.047,345.554c-1.249-1.369-2.379-6.768-2.988-9.658-.152-.7-.272-1.282-.369-1.716" transform="translate(-54.888 -216.572)" fill="#407bff"/>
    <path id="Path_7213" data-name="Path 7213" d="M87.09,346.152a.565.565,0,0,1-.413-.185c-1.238-1.369-2.26-5.834-3.118-9.919-.141-.684-.261-1.271-.359-1.695a.557.557,0,1,1,1.086-.25c.109.424.228,1.021.38,1.727.554,2.64,1.706,8.137,2.857,9.408a.554.554,0,0,1-.4.913Z" transform="translate(-54.931 -216.616)" fill="#407bff"/>
    <path id="Path_7214" data-name="Path 7214" d="M73.521,283.761a.543.543,0,0,1-.554-.511c-.065-.891-1.456-21.923,10.147-30.342a.543.543,0,0,1,.76.13.532.532,0,0,1-.12.76c-11.114,8.05-9.712,29.158-9.69,29.332a.543.543,0,0,1-.511.587Z" transform="translate(-55.821 -223.6)" fill="#407bff"/>
    <path id="Path_7215" data-name="Path 7215" d="M74.359,324.113c-1.325,5.1,9.919,14.188,9.919,14.188s14.264-2.423,15.589-7.518-2.651-13.167-9.7-15S75.695,319.018,74.359,324.113Z" transform="translate(-55.703 -218.194)" fill="#407bff"/>
    <path id="Path_7216" data-name="Path 7216" d="M60.876,268.947c1.608,5.28,12.026,8.615,12.026,8.615s6.79-8.582,5.182-13.862-7.539-10.864-12.287-9.462S59.268,263.667,60.876,268.947Z" transform="translate(-56.908 -223.495)" fill="#407bff"/>
    <path id="Path_7217" data-name="Path 7217" d="M87.2,283.463a13.46,13.46,0,0,1-4.345,2.683,4.661,4.661,0,0,1-4.737-.9c-1.445-1.521-1.184-4-.4-5.953,1.554-3.867,7.6-10.581,12.569-8.952C97.5,272.7,90.246,281,87.2,283.463Z" transform="translate(-55.458 -222.107)" fill="#407bff"/>
    <path id="Path_7218" data-name="Path 7218" d="M74.4,292.324c.967,1.086,2.01,2.5,1.564,3.911a2.944,2.944,0,0,1-3.172,1.727,8.583,8.583,0,0,1-3.552-1.554c-2.564-1.608-7.811-5.008-4.715-8.539S72.347,290,74.4,292.324Z" transform="translate(-56.625 -220.669)" fill="#407bff"/>
    <path id="Path_7219" data-name="Path 7219" d="M91.589,246.7a2.531,2.531,0,0,1,2.4,1.782c.272,1.217-.706,2.336-1.662,3.15-2.379,2.01-9.571,7.463-11.439,2.586C79.117,249.612,88.3,246.473,91.589,246.7Z" transform="translate(-55.149 -224.128)" fill="#407bff"/>
    <path id="Path_7220" data-name="Path 7220" d="M77.868,232.3c1.532.076,3.031-.543,4.574-.511s3.259,1.184,3.02,2.705-1.955,1.934-3.379,2.086a27.432,27.432,0,0,1-7.246-.217,2.238,2.238,0,0,1-1.5-.674c-.663-.891.272-2.173,1.315-2.52s2.238-.315,3.172-.913Z" transform="translate(-55.801 -225.415)" fill="#407bff"/>
    <path id="Path_7221" data-name="Path 7221" d="M64.752,242.583c-1.532.12-3.053-.478-4.584-.413s-3.259,1.26-2.955,2.77,1.988,1.89,3.411,2.01a27.475,27.475,0,0,0,7.246-.337,2.173,2.173,0,0,0,1.477-.706c.641-.9-.315-2.173-1.358-2.5s-2.249-.261-3.194-.826Z" transform="translate(-57.178 -224.519)" fill="#407bff"/>
    <g id="Group_9203" data-name="Group 9203" transform="translate(0 6.373)" opacity="0.2">
      <path id="Path_7222" data-name="Path 7222" d="M74.359,324.113c-1.325,5.1,9.919,14.188,9.919,14.188s14.264-2.423,15.589-7.518-2.651-13.167-9.7-15S75.695,319.018,74.359,324.113Z" transform="translate(-55.703 -224.567)"/>
      <path id="Path_7223" data-name="Path 7223" d="M60.876,268.947c1.608,5.28,12.026,8.615,12.026,8.615s6.79-8.582,5.182-13.862-7.539-10.864-12.287-9.462S59.268,263.667,60.876,268.947Z" transform="translate(-56.908 -229.869)"/>
      <path id="Path_7224" data-name="Path 7224" d="M87.2,283.463a13.46,13.46,0,0,1-4.345,2.683,4.661,4.661,0,0,1-4.737-.9c-1.445-1.521-1.184-4-.4-5.953,1.554-3.867,7.6-10.581,12.569-8.952C97.5,272.7,90.246,281,87.2,283.463Z" transform="translate(-55.458 -228.481)"/>
      <path id="Path_7225" data-name="Path 7225" d="M74.4,292.324c.967,1.086,2.01,2.5,1.564,3.911a2.944,2.944,0,0,1-3.172,1.727,8.583,8.583,0,0,1-3.552-1.554c-2.564-1.608-7.811-5.008-4.715-8.539S72.347,290,74.4,292.324Z" transform="translate(-56.625 -227.043)"/>
      <path id="Path_7226" data-name="Path 7226" d="M91.589,246.7a2.531,2.531,0,0,1,2.4,1.782c.272,1.217-.706,2.336-1.662,3.15-2.379,2.01-9.571,7.463-11.439,2.586C79.117,249.612,88.3,246.473,91.589,246.7Z" transform="translate(-55.149 -230.502)"/>
      <path id="Path_7227" data-name="Path 7227" d="M77.868,232.3c1.532.076,3.031-.543,4.574-.511s3.259,1.184,3.02,2.705-1.955,1.934-3.379,2.086a27.432,27.432,0,0,1-7.246-.217,2.238,2.238,0,0,1-1.5-.674c-.663-.891.272-2.173,1.315-2.52s2.238-.315,3.172-.913Z" transform="translate(-55.801 -231.789)"/>
      <path id="Path_7228" data-name="Path 7228" d="M64.752,242.583c-1.532.12-3.053-.478-4.584-.413s-3.259,1.26-2.955,2.77,1.988,1.89,3.411,2.01a27.475,27.475,0,0,0,7.246-.337,2.173,2.173,0,0,0,1.477-.706c.641-.9-.315-2.173-1.358-2.5s-2.249-.261-3.194-.826Z" transform="translate(-57.178 -230.893)"/>
    </g>
    <path id="Path_7229" data-name="Path 7229" d="M70.785,240.471h0a.543.543,0,0,1-.5-.587c.206-2.988-.12-5.856-.674-6.019a.565.565,0,0,1-.38-.684.554.554,0,0,1,.684-.369c1.727.511,1.6,5.171,1.456,7.148a.543.543,0,0,1-.587.511Z" transform="translate(-56.138 -225.329)" fill="#407bff"/>
    <path id="Path_7230" data-name="Path 7230" d="M71.89,235.882c.348-2.26.674-4.639-.152-6.768s-3.259-3.8-5.432-2.977c-2.379.923-2.8,4.345-1.467,6.518s3.8,3.346,6.116,4.411l.663-.913Z" transform="translate(-56.581 -225.922)" fill="#407bff"/>
    <g id="Group_9204" data-name="Group 9204" transform="translate(7.508)" opacity="0.2">
      <path id="Path_7231" data-name="Path 7231" d="M71.89,235.882c.348-2.26.674-4.639-.152-6.768s-3.259-3.8-5.432-2.977c-2.379.923-2.8,4.345-1.467,6.518s3.8,3.346,6.116,4.411l.663-.913Z" transform="translate(-64.089 -225.922)"/>
    </g>
    <path id="Path_7232" data-name="Path 7232" d="M89.786,388.58c0,.087-.4.5,1.162.608,3.846.239,10.636.174,13.091-3.1,3.509-4.661-4.889-4.432-4.15-7.04s9.777-.228,11.494-3.922-4.9-3.14-4.65-5.052,7.214.75,9.365-3.161-3.8-1.945-2.879-3.563,8.376-8.267,5.236-9.875-10.114,5.356-12.461,6.062-3.1-6.312-6.149-4.052-.684,12.906-4.28,14.123c-2.672.913-1.315-2.846-4.639-2.781C86.4,366.917,85.343,381.714,89.786,388.58Z" transform="translate(-54.607 -214.926)" fill="#407bff"/>
    <g id="Group_9205" data-name="Group 9205" transform="translate(32.335 138.313)" opacity="0.3">
      <path id="Path_7233" data-name="Path 7233" d="M89.786,388.58c0,.087-.4.5,1.162.608,3.846.239,10.636.174,13.091-3.1,3.509-4.661-4.889-4.432-4.15-7.04s9.777-.228,11.494-3.922-4.9-3.14-4.65-5.052,7.214.75,9.365-3.161-3.8-1.945-2.879-3.563,8.376-8.267,5.236-9.875-10.114,5.356-12.461,6.062-3.1-6.312-6.149-4.052-.684,12.906-4.28,14.123c-2.672.913-1.315-2.846-4.639-2.781C86.4,366.917,85.343,381.714,89.786,388.58Z" transform="translate(-86.942 -353.239)"/>
    </g>
    <path id="Path_7234" data-name="Path 7234" d="M105.6,368.58a14.209,14.209,0,0,0-3.965-.152,19.369,19.369,0,0,1,1.934-1.771.554.554,0,1,0-.663-.88,28.667,28.667,0,0,0-3.15,3.074.445.445,0,0,0-.2.228c-.456.511-.934,1.086-1.434,1.706a23.6,23.6,0,0,1,3.552-11.287.543.543,0,0,0-.141-.76.554.554,0,0,0-.76.141,23.954,23.954,0,0,0-3.737,13.352,48.648,48.648,0,0,0-3.737,6.105h0a.511.511,0,0,0-.13.25c-.489.967-.967,2-1.434,3.074a18.273,18.273,0,0,1-.608-7.4.543.543,0,0,0-.478-.6.532.532,0,0,0-.608.467,18.37,18.37,0,0,0,1.086,9.06A58.807,58.807,0,0,0,88,393.892a.554.554,0,0,0,.435.641h.109a.543.543,0,0,0,.532-.445,55.187,55.187,0,0,1,5.062-15.079,6.649,6.649,0,0,1,6.344-1.467.567.567,0,0,0,.326-1.086,7.311,7.311,0,0,0-5.573.467,42.6,42.6,0,0,1,5.139-7.214,11.526,11.526,0,0,1,5.008-.109.551.551,0,0,0,.185-1.086Z" transform="translate(-54.516 -214.459)" opacity="0.2"/>
    <path id="Path_7235" data-name="Path 7235" d="M89.716,392.043c-2.977.185-8.17-2.357-10.277-4.954s3.618-1.2,2.944-3.259-7.6-.228-9.049-3.259,3.661-2.52,3.389-4.074-5.5-1.01-7.322-4.193,2.868-1.564,2.086-2.879-6.812-6.746-4.443-8.039,8.039,4.345,9.886,4.976,2.086-3.531,4.53-1.684,1.086,10.473,3.889,11.483c2.108.75,1.086-3.129,3.476-2.238C93.116,375.443,90.944,391.967,89.716,392.043Z" transform="translate(-56.373 -214.239)" fill="#407bff"/>
    <g id="Group_9206" data-name="Group 9206" transform="translate(10.123 146.955)" opacity="0.2">
      <path id="Path_7236" data-name="Path 7236" d="M89.716,392.043c-2.977.185-8.17-2.357-10.277-4.954s3.618-1.2,2.944-3.259-7.6-.228-9.049-3.259,3.661-2.52,3.389-4.074-5.5-1.01-7.322-4.193,2.868-1.564,2.086-2.879-6.812-6.746-4.443-8.039,8.039,4.345,9.886,4.976,2.086-3.531,4.53-1.684,1.086,10.473,3.889,11.483c2.108.75,1.086-3.129,3.476-2.238C93.116,375.443,90.944,391.967,89.716,392.043Z" transform="translate(-66.496 -361.193)"/>
    </g>
    <path id="Path_7237" data-name="Path 7237" d="M89.978,393.75a55.719,55.719,0,0,0-2.173-6.518s0,0,0-.065a16,16,0,0,0,1.01-8.213.547.547,0,1,0-1.086.13,15.85,15.85,0,0,1-.6,6.714q-1.086-2.455-2.271-4.65a.532.532,0,0,0-.152-.522,1.174,1.174,0,0,0-.239-.2c-.619-1.086-1.238-2.173-1.869-3.129a20.9,20.9,0,0,0-3.357-11.744.532.532,0,0,0-.75-.13.543.543,0,0,0-.141.76,20.641,20.641,0,0,1,3.129,9.419,55.026,55.026,0,0,0-7.4-8.93.542.542,0,0,0-.771.76,51.921,51.921,0,0,1,5.649,6.453,15.883,15.883,0,0,0-5.432-.652.565.565,0,0,0-.511.576.554.554,0,0,0,.587.511,14.9,14.9,0,0,1,5.953.9h.293a.164.164,0,0,0,.076,0c.869,1.228,1.771,2.6,2.662,4.074a6.92,6.92,0,0,0-4.606-.13.546.546,0,1,0,.326,1.043,5.953,5.953,0,0,1,5.312.869,55.971,55.971,0,0,1,5.236,12.863.543.543,0,0,0,.521.4h.141a.554.554,0,0,0,.456-.6Z" transform="translate(-55.809 -213.881)" opacity="0.2"/>
    <path id="Path_7238" data-name="Path 7238" d="M110.445,398.449c0,11.287,4.986,20.435-20.435,20.435-22.6,0-20.446-9.147-20.446-20.435S78.733,384,90.01,384,110.445,387.15,110.445,398.449Z" transform="translate(-56.113 -212.269)" fill="#263238"/>
    <rect id="Rectangle_4301" data-name="Rectangle 4301" width="45.258" height="11.2" transform="translate(11.301 171.471)" fill="#263238"/>
    <rect id="Rectangle_4302" data-name="Rectangle 4302" width="45.258" height="11.2" transform="translate(11.301 171.471)" fill="#fff" opacity="0.2" style="isolation: isolate"/>
  </g>
</svg>
