<svg xmlns="http://www.w3.org/2000/svg" width="34" height="32.202" viewBox="0 0 34 32.202">
                                              <g style="opacity:0.87;" transform="translate(0 -0.173)">
                                                <g transform="translate(0 0.173)">
                                                  <path style="fill:#091e42;" d="M2.267,31.933V24H1.7A1.7,1.7,0,0,0,0,25.7v4.533a1.7,1.7,0,0,0,1.7,1.7Z" transform="translate(0 -10.498)"/>
                                                  <rect style="fill:#091e42;" width="4.533" height="11.333" rx="2" transform="translate(26.067 11.802)"/>
                                                  <path style="fill:#091e42;" d="M56.567,24H56v7.933h.567a1.7,1.7,0,0,0,1.7-1.7V25.7A1.7,1.7,0,0,0,56.567,24Z" transform="translate(-24.267 -10.498)"/>
                                                  <path style="fill:#091e42;" d="M10.5,10.842a10.2,10.2,0,0,1,20.117,0h2.267a12.467,12.467,0,0,0-24.673,0h2.267Z" transform="translate(-3.558 -0.173)"/>
                                                  <path style="fill:#091e42;" d="M7.133,32.333H7.7v2.833a5.1,5.1,0,0,0,5.1,5.1h2.369a1.7,1.7,0,0,0,1.6,1.133h5.667a1.7,1.7,0,1,0,0-3.4H16.767a1.7,1.7,0,0,0-1.6,1.133H12.8a3.967,3.967,0,0,1-3.967-3.967V32.333H9.4A1.133,1.133,0,0,0,10.533,31.2V22.133A1.133,1.133,0,0,0,9.4,21H7.133A1.133,1.133,0,0,0,6,22.133V31.2A1.133,1.133,0,0,0,7.133,32.333Z" transform="translate(-2.6 -9.198)"/>
                                                </g>
                                              </g>
                                            </svg>