<svg xmlns="http://www.w3.org/2000/svg" xmlns:xlink="http://www.w3.org/1999/xlink" width="94" height="94" viewBox="0 0 94 94">
  <defs>
    <filter id="Ellipse_186" x="0" y="0" width="94" height="94" filterUnits="userSpaceOnUse">
      <feOffset dy="3" input="SourceAlpha"/>
      <feGaussianBlur stdDeviation="3" result="blur"/>
      <feFlood flood-color="#9f9f9f" flood-opacity="0.161"/>
      <feComposite operator="in" in2="blur"/>
      <feComposite in="SourceGraphic"/>
    </filter>
  </defs>
  <g id="Excel" transform="translate(9 6)">
    <g id="Group_7066" data-name="Group 7066" transform="translate(-523 -998)">
      <g id="Group_7064" data-name="Group 7064" transform="translate(317 -3)">
        <g transform="matrix(1, 0, 0, 1, 197, 995)" filter="url(#Ellipse_186)">
          <circle id="Ellipse_186-2" data-name="Ellipse 186" cx="38" cy="38" r="38" transform="translate(9 6)" fill="#36b37e"/>
        </g>
      </g>
    </g>
    <g id="excel-2" data-name="excel" transform="translate(18 15)">
      <path id="Path_8332" data-name="Path 8332" d="M47.225,55.626a2.212,2.212,0,1,0-2.213-2.212A2.215,2.215,0,0,0,47.225,55.626Zm0-3.057a.846.846,0,1,1-.847.846A.848.848,0,0,1,47.225,52.569Zm0,0" transform="translate(-40.913 -46.541)" fill="#fff"/>
      <path id="Path_8333" data-name="Path 8333" d="M6.393,41.667H2.431A1.065,1.065,0,0,1,1.366,40.6V2.429A1.065,1.065,0,0,1,2.431,1.366H17.5A.683.683,0,1,0,17.5,0H2.431A2.432,2.432,0,0,0,0,2.429V40.6a2.432,2.432,0,0,0,2.431,2.428H6.393a.683.683,0,1,0,0-1.366Zm0,0" fill="#fff"/>
      <path id="Path_8334" data-name="Path 8334" d="M118.5,44.372a7.592,7.592,0,0,0-5.4-12.945l-.112,0V9.9a2.681,2.681,0,0,0-.772-1.877L105.086.8A2.616,2.616,0,0,0,104.3.247l0,0h0A2.646,2.646,0,0,0,103.182,0h-2.395a.683.683,0,1,0,0,1.366h2.395a1.305,1.305,0,0,1,.149.009V7.334a2.432,2.432,0,0,0,2.43,2.429h5.857a1.263,1.263,0,0,1,.007.133V31.573a7.561,7.561,0,0,0-2.824,1.192,7.606,7.606,0,0,0-8.6-.008,7.522,7.522,0,0,0-4.3-1.33,7.594,7.594,0,0,0-5.332,13.013l.026.024h0a7.605,7.605,0,0,0,9.6.827,7.605,7.605,0,0,0,8.6-.008,7.589,7.589,0,0,0,9.589-.807A.7.7,0,0,0,118.5,44.372ZM105.762,8.4A1.065,1.065,0,0,1,104.7,7.334V2.347l5.976,6.05Zm13.58,30.628a6.2,6.2,0,0,1-1.228,3.709,3.014,3.014,0,0,0-.312-.334,3.139,3.139,0,0,0-2.134-.806h-5.112a3.136,3.136,0,0,0-2.133.805,2.99,2.99,0,0,0-.321.345,6.225,6.225,0,0,1,4.272-9.907l.015,0a6.307,6.307,0,0,1,.714-.042A6.242,6.242,0,0,1,119.342,39.025Zm-13.947-.371-.779.475a.216.216,0,0,1-.226,0l-.779-.475a.22.22,0,0,1-.1-.186V36.382a.356.356,0,0,1,.355-.355h1.285a.355.355,0,0,1,.355.355v2.086A.218.218,0,0,1,105.395,38.654Zm2.31-4.973a7.636,7.636,0,0,0-1.224,1.618,1.718,1.718,0,0,0-1.336-.638H103.86a1.723,1.723,0,0,0-1.721,1.721v2.086a1.594,1.594,0,0,0,.76,1.353l.779.475a1.578,1.578,0,0,0,1.647,0l.256-.156a7.526,7.526,0,0,0,.366,1.456h-4a3.139,3.139,0,0,0-2.13.8c-.032.029-.064.059-.091.086a2.985,2.985,0,0,0-.235.265,6.252,6.252,0,0,1-.5-.791h0v0a6.23,6.23,0,0,1,1.637-7.812,6.249,6.249,0,0,1,7.083-.459ZM96.8,38.654l-.779.475a.216.216,0,0,1-.226,0l-.78-.475a.22.22,0,0,1-.1-.186V36.382a.356.356,0,0,1,.355-.355h1.284a.356.356,0,0,1,.355.355v2.086A.219.219,0,0,1,96.8,38.654Zm-.9-5.86a6.177,6.177,0,0,1,3.2.878,7.577,7.577,0,0,0-1.224,1.609,1.717,1.717,0,0,0-1.321-.62H95.267a1.723,1.723,0,0,0-1.721,1.721v2.085a1.593,1.593,0,0,0,.76,1.353l.78.475a1.578,1.578,0,0,0,1.647,0l.24-.147a7.615,7.615,0,0,0,.364,1.446H93.354a3.137,3.137,0,0,0-2.133.8,3.023,3.023,0,0,0-.323.348,6.23,6.23,0,0,1,5-9.953Zm-4.048,10.97a1.541,1.541,0,0,1,.291-.357,1.777,1.777,0,0,1,1.21-.446H97.99A7.544,7.544,0,0,0,99.1,44.378a6.244,6.244,0,0,1-7.247-.614Zm8.769.147c-.06-.048-.118-.1-.177-.148a1.512,1.512,0,0,1,.245-.312c.012-.012.025-.025.038-.036l.009-.008a1.778,1.778,0,0,1,1.211-.446H106.6a7.652,7.652,0,0,0,1.1,1.409,6.248,6.248,0,0,1-7.084-.459Zm8.435-.15a1.545,1.545,0,0,1,.29-.354,1.775,1.775,0,0,1,1.21-.446h5.112a1.779,1.779,0,0,1,1.211.446,1.559,1.559,0,0,1,.284.345,6.225,6.225,0,0,1-8.107.01Zm0,0" transform="translate(-80.256 0)" fill="#fff"/>
      <path id="Path_8335" data-name="Path 8335" d="M334.863,382.354v2.086a1.594,1.594,0,0,0,.76,1.353l.779.475a1.578,1.578,0,0,0,1.647,0l.779-.475a1.594,1.594,0,0,0,.76-1.353v-2.086a1.723,1.723,0,0,0-1.721-1.721h-1.284A1.723,1.723,0,0,0,334.863,382.354Zm3.36,0v2.086a.22.22,0,0,1-.1.186l-.779.475a.217.217,0,0,1-.227,0l-.779-.475a.22.22,0,0,1-.1-.186v-2.086a.356.356,0,0,1,.355-.355h1.284A.355.355,0,0,1,338.224,382.354Zm0,0" transform="translate(-304.37 -345.972)" fill="#fff"/>
      <path id="Path_8336" data-name="Path 8336" d="M69.318,162.272a.683.683,0,0,0,.683-.683V145.07a.683.683,0,0,0-.683-.683H45.695a.683.683,0,0,0-.683.683v16.519a.683.683,0,0,0,1.366,0v-4.308h6.508v4.308a.683.683,0,0,0,1.366,0v-4.308h6.509v4.308a.683.683,0,0,0,1.366,0v-4.308h6.508v4.308A.683.683,0,0,0,69.318,162.272Zm-.683-14.042H62.127v-2.477h6.508Zm-7.874,0H54.252v-2.477h6.509Zm-7.874,0H46.378v-2.477h6.508v2.477ZM46.378,149.6h6.508v2.477H46.378Zm7.875,0h6.508v2.477H54.252Zm7.874,0h6.508v2.477H62.127Zm-15.749,6.319v-2.477h6.508v2.477Zm7.875,0v-2.477h6.508v2.477Zm7.874,0v-2.477h6.508v2.477Zm0,0" transform="translate(-40.913 -131.239)" fill="#fff"/>
    </g>
  </g>
</svg>
