<svg id="Component_35_2" data-name="Component 35 – 2" xmlns="http://www.w3.org/2000/svg" width="442.873" height="362.15" viewBox="0 0 442.873 362.15">
  <circle id="Ellipse_163" data-name="Ellipse 163" cx="41.618" cy="41.618" r="41.618" transform="translate(359.637 272.71)" fill="#36b37e"/>
  <circle id="Ellipse_164" data-name="Ellipse 164" cx="108.979" cy="108.979" r="108.979" transform="translate(195.999 144.191)" fill="#f2f2f2"/>
  <g id="undraw_Project_completed_re_pqqq_1_" data-name="undraw_Project_completed_re_pqqq (1)">
    <circle id="Ellipse_44" data-name="Ellipse 44" cx="10.868" cy="10.868" r="10.868" transform="translate(239.581 13.24)" fill="#286efa"/>
    <path id="Path_395" data-name="Path 395" d="M630.739,194.36a1.127,1.127,0,0,1-.678-.225l-.012-.009-2.554-1.954a1.135,1.135,0,0,1,1.381-1.8l1.654,1.269,3.909-5.1a1.135,1.135,0,0,1,1.591-.21h0l-.024.034.025-.034a1.136,1.136,0,0,1,.21,1.591l-4.6,6a1.135,1.135,0,0,1-.9.443Z" transform="translate(-381.367 -166.105)" fill="#fff"/>
    <circle id="Ellipse_44-2" data-name="Ellipse 44" cx="10.868" cy="10.868" r="10.868" transform="translate(239.581 86.714)" fill="#286efa"/>
    <path id="Path_395-2" data-name="Path 395" d="M630.739,322.36a1.127,1.127,0,0,1-.678-.225l-.012-.009-2.554-1.954a1.135,1.135,0,0,1,1.381-1.8l1.654,1.269,3.909-5.1a1.135,1.135,0,0,1,1.591-.21h0l-.024.034.025-.034a1.136,1.136,0,0,1,.21,1.591l-4.6,6a1.135,1.135,0,0,1-.9.443Z" transform="translate(-381.367 -220.632)" fill="#fff"/>
    <path id="Path_6628" data-name="Path 6628" d="M682.9,501.024a6.168,6.168,0,0,1,7.008-6.352l9.954-19.529,5.624,9.905-10.315,17.027a6.2,6.2,0,0,1-12.272-1.051Z" transform="translate(-405.156 -289.237)" fill="#ffb7b7"/>
    <path id="Path_6629" data-name="Path 6629" d="M556.155,560.833h-7.812l-3.716-30.13h11.529Z" transform="translate(-232.005 -226.073)" fill="#ffb7b7"/>
    <path id="Path_6630" data-name="Path 6630" d="M748.527,740.144H723.339v-.319a9.8,9.8,0,0,1,9.8-9.8h15.385Z" transform="translate(-422.385 -397.812)" fill="#2f2e41"/>
    <path id="Path_6631" data-name="Path 6631" d="M629.928,560.833h-7.812L618.4,530.7h11.529Z" transform="translate(-263.431 -226.073)" fill="#ffb7b7"/>
    <path id="Path_6632" data-name="Path 6632" d="M822.3,740.144H797.112v-.319a9.8,9.8,0,0,1,9.8-9.8H822.3Z" transform="translate(-453.811 -397.812)" fill="#2f2e41"/>
    <path id="Path_6633" data-name="Path 6633" d="M701.275,490.62l-3.41,5.684s5.684,0,6.82,8.525l4.547-5.684Z" transform="translate(-411.533 -295.83)" fill="#e5e5e5"/>
    <path id="Path_6634" data-name="Path 6634" d="M774.028,469.827s9.094,23.871,10.8,38.648,4.547,53.994,4.547,53.994l5.684,50.584-15.914,2.273-6.82-51.152L756.978,513.59l-3.41,50.584-2.842,46.037-14.777.568-1.137-47.742-6.252-60.814,3.41-28.986Z" transform="translate(-424.609 -286.972)" fill="#2f2e41"/>
    <circle id="Ellipse_131" data-name="Ellipse 131" cx="14.209" cy="14.209" r="14.209" transform="translate(309.635 82.319)" fill="#ffb7b7"/>
    <path id="Path_6635" data-name="Path 6635" d="M564.96,192.312l5.684,3.978,7.389,74.455L532,271.882l6.252-51.72,5.683-14.777,4.1-5.424Z" transform="translate(-226.624 -81.923)" fill="#e5e5e5"/>
    <path id="Path_6636" data-name="Path 6636" d="M790.444,398.5l1.739-51.413s3.376.26,4.513,1.965,19.893,5.115,19.893,5.115l-3.41,52.857s14.209,42.059,9.094,44.332-14.209,1.705-14.209,1.705Z" transform="translate(-450.971 -234.688)" fill="#2f2e41"/>
    <path id="Path_6637" data-name="Path 6637" d="M731.383,399.556l6.029-34.65-13.418,9.074,3.41,25.008-2.842,17.051s-10.8,47.174-7.389,48.879,7.389,0,7.389,0l6.82-47.742Z" transform="translate(-419.475 -242.277)" fill="#2f2e41"/>
    <path id="Path_6638" data-name="Path 6638" d="M720.031,378.733l-3.979,1.137L714.348,402.6,711.506,422.5l-13.641,24.439s6.82-4.547,9.662,8.525l15.022-26.154Z" transform="translate(-411.533 -248.167)" fill="#2f2e41"/>
    <path id="Path_6639" data-name="Path 6639" d="M760.2,288.786l2.679-1.073s-5.6-6.168-13.4-5.632l2.192-2.414s-5.359-2.145-10.23,3.486c-2.561,2.96-5.524,6.44-7.371,10.36H731.2l1.2,2.637-4.192,2.637,4.3-.474a14.735,14.735,0,0,0-.117,4.374,5.659,5.659,0,0,0,2.072,3.7h0s3.323-6.878,3.323-7.951v2.682s2.679-2.414,2.679-4.023l1.462,1.877.731-2.95,9.013,2.95-1.461-2.414,5.6.8-2.192-2.95,8.674,12.181S767.261,292.809,760.2,288.786Z" transform="translate(-424.458 -205.796)" fill="#2f2e41"/>
    <path id="Path_6640" data-name="Path 6640" d="M790.278,495.713a6.168,6.168,0,0,1,8.108-4.87l13.556-17.225,3.595,10.809-13.424,14.7a6.2,6.2,0,0,1-11.835-3.413Z" transform="translate(-450.865 -288.587)" fill="#ffb7b7"/>
    <path id="Path_6641" data-name="Path 6641" d="M622.649,342.226l-5.115,6.252-6.82-11.935,2.841-5.115Z" transform="translate(-260.156 -141.184)" fill="#e5e5e5"/>
    <path id="Path_6642" data-name="Path 6642" d="M820.551,361.2l4.547-2.273s3.41,4.547,3.978,8.525,3.41,9.094,3.41,11.936,7.957,29.555,7.957,29.555l-18.188,36.943s-3.979-13.641-12.5-14.777l14.209-19.893L816,397.01Z" transform="translate(-459.196 -239.731)" fill="#2f2e41"/>
    <path id="Path_6644" data-name="Path 6644" d="M408.554,327.488H199.039V279.271H408.554Z" transform="translate(-199.039 -205.798)" fill="#fff"/>
    <path id="Path_6645" data-name="Path 6645" d="M250.2,307.046a2.041,2.041,0,0,0,0,4.083H399.25a2.041,2.041,0,0,0,0-4.083Z" transform="translate(-219.965 -217.629)" fill="#286efa"/>
    <path id="Path_6646" data-name="Path 6646" d="M250.2,328.384a2.041,2.041,0,0,0-.009,4.083H344.42a2.041,2.041,0,0,0,0-4.083Z" transform="translate(-219.961 -226.719)" fill="#286efa"/>
    <path id="Path_6647" data-name="Path 6647" d="M408.554,327.488H199.039V279.271H408.554Zm-206.07-3.444H405.11V282.715H202.483Z" transform="translate(-199.039 -205.798)" fill="#e5e5e5"/>
    <path id="Path_6648" data-name="Path 6648" d="M408.554,455.488H199.039V407.271H408.554Z" transform="translate(-199.039 -260.324)" fill="#fff"/>
    <path id="Path_6649" data-name="Path 6649" d="M250.2,435.046a2.041,2.041,0,0,0,0,4.083H399.25a2.041,2.041,0,0,0,0-4.083Z" transform="translate(-219.965 -272.156)" fill="#e6e6e6"/>
    <path id="Path_6650" data-name="Path 6650" d="M250.2,456.384a2.041,2.041,0,1,0-.009,4.083H344.42a2.041,2.041,0,0,0,0-4.083Z" transform="translate(-219.961 -281.246)" fill="#e6e6e6"/>
    <path id="Path_6651" data-name="Path 6651" d="M408.554,455.488H199.039V407.271H408.554Zm-206.07-3.444H405.11V410.715H202.483Z" transform="translate(-199.039 -260.324)" fill="#e5e5e5"/>
    <path id="Path_6652" data-name="Path 6652" d="M411.554,199.488H202.039V151.271H411.554Z" transform="translate(-200.317 -151.271)" fill="#fff"/>
    <path id="Path_6653" data-name="Path 6653" d="M253.2,179.046a2.041,2.041,0,1,0,0,4.083H402.25a2.041,2.041,0,1,0,0-4.083Z" transform="translate(-221.242 -163.103)" fill="#286efa"/>
    <path id="Path_6654" data-name="Path 6654" d="M253.2,200.384a2.041,2.041,0,1,0-.009,4.083H347.42a2.041,2.041,0,0,0,0-4.083Z" transform="translate(-221.239 -172.193)" fill="#286efa"/>
    <path id="Path_6655" data-name="Path 6655" d="M411.554,199.488H202.039V151.271H411.554Zm-206.07-3.444H408.11V154.715H205.483Z" transform="translate(-200.317 -151.271)" fill="#e5e5e5"/>
    <path id="Path_6656" data-name="Path 6656" d="M938.287,717.913V676.389S954.47,705.828,938.287,717.913Z" transform="translate(-513.95 -374.965)" fill="#f1f1f1"/>
    <path id="Path_6657" data-name="Path 6657" d="M917.328,727.876l-30.589-28.081S919.369,707.782,917.328,727.876Z" transform="translate(-491.991 -384.936)" fill="#f1f1f1"/>
    <circle id="Ellipse_44-3" data-name="Ellipse 44" cx="10.868" cy="10.868" r="10.868" transform="translate(267.134 188.799)" fill="#286efa"/>
    <path id="Path_395-3" data-name="Path 395" d="M678.739,500.205a1.127,1.127,0,0,1-.678-.225l-.012-.009-2.554-1.954a1.135,1.135,0,1,1,1.381-1.8l1.654,1.269,3.909-5.1a1.135,1.135,0,0,1,1.591-.21h0l-.024.034.025-.034a1.136,1.136,0,0,1,.21,1.591l-4.6,6a1.135,1.135,0,0,1-.9.443Z" transform="translate(-401.814 -296.392)" fill="#fff"/>
  </g>
</svg>
