<svg id="Component_34_1" data-name="Component 34 – 1" xmlns="http://www.w3.org/2000/svg" width="436.485" height="375.689" viewBox="0 0 436.485 375.689">
  <g id="undraw_Celebration_re_kc9k" transform="translate(0 32.691)">
    <path id="Path_6500" data-name="Path 6500" d="M388.292,351.206c-2.336-3.026-5.637-5.827-5.846-9.562-.192-3.425,2.362-6.826,1.285-10.1-.828-2.52-3.561-4.04-6.231-4.845a24.216,24.216,0,0,0-15.562.6l.27-.191c-3.039-1.083-6.592.035-8.984,2.105a18.98,18.98,0,0,0-4.915,7.815,61.192,61.192,0,0,1-3.49,8.552,12.547,12.547,0,0,1-6.974,6.079,4.379,4.379,0,0,0,6.176,1.352,7.811,7.811,0,0,0,1.3-1.343l3.8-4.623c1.3,2.319-.644,5.52.959,7.667.826,1.107,2.336,1.528,3.738,1.829a67.607,67.607,0,0,0,33.075-1.227,3.227,3.227,0,0,0,2.176-1.388C389.485,353.02,388.906,352,388.292,351.206Z" transform="translate(-256.174 -218.951)" fill="#2f2e41"/>
    <path id="Path_6501" data-name="Path 6501" d="M461.113,393.188a5.858,5.858,0,0,0-.133.914l-23.948,13.815-5.821-3.351-6.205,8.124,9.728,6.934a4.46,4.46,0,0,0,5.351-.13l24.694-19.481a5.852,5.852,0,1,0-3.666-6.824Z" transform="translate(-297.928 -249.121)" fill="#ffb7b7"/>
    <path id="Path_6502" data-name="Path 6502" d="M425.413,416.452l-7.74,10.031a2.509,2.509,0,0,1-3.793.208l-8.762-9.1a6.967,6.967,0,1,1,8.544-11.007l10.989,6.145a2.509,2.509,0,0,1,.761,3.722Z" transform="translate(-287.109 -257.002)" fill="#6c63ff"/>
    <path id="Path_6503" data-name="Path 6503" d="M245.039,617.346h6.834l3.251-26.362H245.037Z" transform="translate(-117.387 -283.115)" fill="#ffb7b7"/>
    <path id="Path_6504" data-name="Path 6504" d="M422.76,758.1h13.46a8.578,8.578,0,0,1,8.578,8.577v.279H422.761Z" transform="translate(-296.852 -426.097)" fill="#2f2e41"/>
    <path id="Path_6505" data-name="Path 6505" d="M155.148,617.346h6.835l3.251-26.362H155.147Z" transform="translate(-74.324 -283.115)" fill="#ffb7b7"/>
    <path id="Path_6506" data-name="Path 6506" d="M332.87,758.1h13.46a8.578,8.578,0,0,1,8.578,8.577v.279H332.871Z" transform="translate(-253.79 -426.097)" fill="#2f2e41"/>
    <circle id="Ellipse_114" data-name="Ellipse 114" cx="11.812" cy="11.812" r="11.812" transform="translate(98.777 137.692) rotate(-83.735)" fill="#ffb7b7"/>
    <path id="Path_6507" data-name="Path 6507" d="M370.728,399.03l6.959,3.447s7.775,13.511,3.315,26.333c-2.165,6.225,3.932,26.069,3.932,26.069s9.447,89.885,9.477,117.627c-11.737,1.8-22.886,4.034-23.444-1.54s-6.66-71.489-6.66-71.489-8.392,73.161-15.082,74.276-20.069-.558-20.069-.558S339.778,466.03,347.025,459.34l1.115-5.575-.03-50.04,8.35-3.985Z" transform="translate(-252.01 -254.084)" fill="#2f2e41"/>
    <path id="Path_6508" data-name="Path 6508" d="M352.969,486.51a5.989,5.989,0,0,0,1.835-9L362.9,423.57l-10.573-.508-6.308,53.719a6.021,6.021,0,0,0,6.954,9.729Z" transform="translate(-259.144 -265.596)" fill="#ffb7b7"/>
    <path id="Path_6509" data-name="Path 6509" d="M366,429.119l-12.645-.8a2.509,2.509,0,0,1-2.3-3.027l2.635-12.354a6.967,6.967,0,1,1,13.9.919l1.06,12.546A2.509,2.509,0,0,1,366,429.119Z" transform="translate(-262.476 -257.63)" fill="#6c63ff"/>
    <path id="Path_6510" data-name="Path 6510" d="M395.456,342.932a9.011,9.011,0,0,0-3.677-5.085,15.061,15.061,0,0,0-19.254,1.171,9.838,9.838,0,0,0-2.974,4.766,5.845,5.845,0,0,0,1.246,5.323l.236.148a2.127,2.127,0,0,1,1.333-2.215,10.652,10.652,0,0,1,2.72-.61,10,10,0,0,0,6.777-4.782,11.291,11.291,0,0,0,6.471,6.743c1.561.61,5.849,1.45,7.335.675C397.565,348.077,395.916,345.02,395.456,342.932Z" transform="translate(-271.27 -223.37)" fill="#2f2e41"/>
    <path id="Path_438" data-name="Path 438" d="M251.4,700.549a12.615,12.615,0,0,0,12.181-2.146c4.266-3.581,5.6-9.479,6.692-14.942l3.219-16.158-6.74,4.641c-4.847,3.337-9.8,6.782-13.159,11.616s-4.82,11.433-2.124,16.664" transform="translate(-214.123 -382.602)" fill="#e6e6e6"/>
    <path id="Path_439" data-name="Path 439" d="M253.4,733.908c-.848-6.18-1.721-12.44-1.125-18.687a29.393,29.393,0,0,1,5.667-15.409,25.629,25.629,0,0,1,6.577-5.96c.657-.415,1.263.627.608,1.04a24.37,24.37,0,0,0-9.64,11.63c-2.1,5.338-2.436,11.156-2.074,16.827.219,3.429.683,6.835,1.149,10.238a.624.624,0,0,1-.421.741.606.606,0,0,1-.741-.421Z" transform="translate(-215.088 -395.274)" fill="#f2f2f2"/>
    <path id="Path_442" data-name="Path 442" d="M266.34,742.55a9.286,9.286,0,0,0,8.091,4.177c4.1-.194,7.511-3.053,10.584-5.767l9.092-8.027-6.017-.288c-4.327-.207-8.766-.4-12.887.934s-7.922,4.546-8.676,8.812" transform="translate(-221.918 -413.834)" fill="#e6e6e6"/>
    <path id="Path_443" data-name="Path 443" d="M249.943,760.5c4.084-7.226,8.821-15.257,17.285-17.824a19.289,19.289,0,0,1,7.27-.751c.772.067.579,1.256-.191,1.19a17.919,17.919,0,0,0-11.6,3.069,30.156,30.156,0,0,0-7.974,8.605c-1.321,2.011-2.5,4.107-3.686,6.2C250.666,761.661,249.561,761.178,249.943,760.5Z" transform="translate(-214.025 -418.315)" fill="#f2f2f2"/>
    <path id="Path_6511" data-name="Path 6511" d="M747.922,511.854c-7.664-10.256-21.69-12.731-28.66-7.523s-8.571,19.361-.907,29.617c7.094,9.493,19.946,12.082,27.025,8.526a.889.889,0,0,0,0,.337l.4,1.973a.9.9,0,0,0,1.437.531l3.379-2.64a.9.9,0,0,0-.167-1.523l-1.818-.865a.89.89,0,0,0-.2-.063C753.861,534.457,755.031,521.368,747.922,511.854Z" transform="translate(-436.028 -303.262)" fill="#ccc"/>
    <path id="Path_6512" data-name="Path 6512" d="M747.15,512.563a14.811,14.811,0,0,1,12.4,16.193c-.082.865,1.269.859,1.35,0a16.2,16.2,0,0,0-13.4-17.5C746.659,511.117,746.294,512.418,747.15,512.563Z" transform="translate(-452.02 -307.843)" fill="#fff"/>
    <path id="Path_6513" data-name="Path 6513" d="M771.465,152.1c6.7-10.91,3.82-24.859-3.595-29.412s-21.158-.814-27.858,10.1c-6.2,10.1-3.861,23,2.059,28.263a.888.888,0,0,0-.315.121l-1.686,1.1a.9.9,0,0,0,.037,1.531l3.7,2.165a.9.9,0,0,0,1.353-.718l.132-2.009a.884.884,0,0,0-.016-.209C752.655,165.97,765.25,162.223,771.465,152.1Z" transform="translate(-447.08 -120.791)" fill="#ccc"/>
    <path id="Path_6514" data-name="Path 6514" d="M788.761,147.591A14.811,14.811,0,0,1,778.294,165.1c-.834.243-.33,1.5.5,1.255A16.2,16.2,0,0,0,790.1,147.444C789.924,146.6,788.58,146.742,788.761,147.591Z" transform="translate(-466.969 -133.288)" fill="#fff"/>
    <path id="Path_6515" data-name="Path 6515" d="M541.891,259.7c-.56-12.791-10.759-22.733-19.452-22.352s-17.984,11.176-17.423,23.967c.519,11.839,9.683,21.214,17.536,22.26a.888.888,0,0,0-.193.276l-.781,1.855a.9.9,0,0,0,.888,1.248l4.28-.28a.9.9,0,0,0,.719-1.353l-1.016-1.738a.888.888,0,0,0-.13-.164C534.076,281.722,542.411,271.563,541.891,259.7Z" transform="translate(-336.246 -176.622)" fill="#6c63ff"/>
    <path id="Path_6516" data-name="Path 6516" d="M553.235,255.015a14.811,14.811,0,0,1,1.136,20.367c-.555.668.565,1.424,1.116.76a16.2,16.2,0,0,0-1.222-22C553.643,253.543,552.609,254.413,553.235,255.015Z" transform="translate(-359.264 -184.577)" fill="#fff"/>
    <path id="Path_6517" data-name="Path 6517" d="M607.244,427.779a21.247,21.247,0,0,1-16.618-9.844c-.5-.8-1.16-1.688-.812-2.678a1.761,1.761,0,0,1,1.824-1.219,2.307,2.307,0,0,1,.238,4.447c-2.324.991-4.668-.541-6.562-1.763-4.313-2.786-9.057-5.305-14.284-5.623-4.836-.294-10.021,1.6-12.711,5.8-.471.734.7,1.412,1.166.682,2.667-4.159,8.06-5.653,12.749-5.01a24.785,24.785,0,0,1,7.977,2.708c1.289.669,2.539,1.41,3.763,2.19a24.013,24.013,0,0,0,3.691,2.116c2.152.884,5,.815,6.505-1.221a3.707,3.707,0,0,0-2.027-5.595,3.17,3.17,0,0,0-3.713,3.771,9.246,9.246,0,0,0,1.728,3.127,22.6,22.6,0,0,0,17.084,9.466c.869.043.866-1.307,0-1.35Z" transform="translate(-361.741 -259.851)" fill="#ccc"/>
    <path id="Path_6518" data-name="Path 6518" d="M877.023,262.78c3.7-1.72,8.236-2.284,12-.686s6.327,5.695,5.11,9.32c-.552,1.644-1.808,3.26-1.318,4.92.377,1.278,1.691,2.121,2.981,2.721a11.108,11.108,0,0,1,3.635,2.116c.933,1.012,1.128,2.753-.038,3.538-.384.258-.864.381-1.237.653a1.965,1.965,0,0,0-.606,2.2,4.632,4.632,0,0,0,1.485,1.954c1.323,1.141,3.073,2.448,2.662,4.068a2.854,2.854,0,0,1-1.926,1.8,9.568,9.568,0,0,1-2.827.373l-39.053,1.23a14.8,14.8,0,0,1-3.856-.215,4.565,4.565,0,0,1-3.028-2.034,4.241,4.241,0,0,1,.667-4.382,41.541,41.541,0,0,1,3.311-3.5,5.554,5.554,0,0,0,1.773-4.2,10.739,10.739,0,0,0-1.544-3.405c-.581-1.116-.919-2.51-.166-3.537,1.061-1.446,3.609-1.316,4.815-2.663.91-1.017.735-2.481.825-3.793a9.2,9.2,0,0,1,5.512-7.519,10.852,10.852,0,0,1,9.874.672Z" transform="translate(-501.831 -187.892)" fill="#2f2e41"/>
    <path id="Path_6519" data-name="Path 6519" d="M788.859,443.476v6.387L764.225,452.9v-9.426Z" transform="translate(-366.108 -212.45)" fill="#9e616a"/>
    <path id="Path_6520" data-name="Path 6520" d="M996.854,561.142v20.593h-.26a8.016,8.016,0,0,1-8.016-8.015h0V561.141Z" transform="translate(-567.911 -331.744)" fill="#2f2e41"/>
    <path id="Path_6521" data-name="Path 6521" d="M728.968,458.77l-1.568,6.191-24.627-3.1,2.314-9.137Z" transform="translate(-336.669 -216.88)" fill="#9e616a"/>
    <path id="Path_6522" data-name="Path 6522" d="M935.966,583.141,930.911,603.1l-.252-.064a8.016,8.016,0,0,1-5.8-9.738h0l3.088-12.193Z" transform="translate(-537.266 -341.31)" fill="#2f2e41"/>
    <path id="Path_6523" data-name="Path 6523" d="M893.217,447.637l1.33,1.386s8.68,6.806,2.258,24.734l-10.5,30.262,35.21,1.373-.755,13.828s-51.061,2.84-50.615-5.575,2.331-39.573,2.331-39.573l-10.608-8.519,2.558-14.409Z" transform="translate(-507.208 -277.369)" fill="#2f2e41"/>
    <path id="Path_6524" data-name="Path 6524" d="M852.941,474l-4.079,4.182-13.676,37.594s-2.084,9.377,2.6,11.461,34.856,13.74,34.856,13.74l3.08-11.087-23.245-13.952,10.834-14.228,1.631-22.424Z" transform="translate(-494.207 -289.998)" fill="#2f2e41"/>
    <path id="Path_6525" data-name="Path 6525" d="M863.918,340.309l34.713-6.941.754,19.045-8.992,19.165,1.912,22.7-31.111,5.436.974-29.852s-8.355-11.786-3.433-23.666Z" transform="translate(-504.966 -222.628)" fill="#e4e4e4"/>
    <path id="Path_6526" data-name="Path 6526" d="M976.134,255.86a5.6,5.6,0,0,1-5.257,6.782l-33.288,38.6-7.739-9.392L965,256.86a5.627,5.627,0,0,1,11.13-1Z" transform="translate(-539.777 -183.357)" fill="#9e616a"/>
    <path id="Path_6527" data-name="Path 6527" d="M937.887,329.316a2.507,2.507,0,0,1-.829,1.918l-9.36,8.426a6.969,6.969,0,0,1-10.771-8.846L923.46,320a2.509,2.509,0,0,1,3.746-.637l9.77,8.072A2.507,2.507,0,0,1,937.887,329.316Z" transform="translate(-532.828 -215.643)" fill="#e4e4e4"/>
    <path id="Path_6528" data-name="Path 6528" d="M765.615,398.158a5.6,5.6,0,0,1,6.215-5.917l38.7-33.169,6.242,10.447-40.007,29.318a5.627,5.627,0,0,1-11.154-.681Z" transform="translate(-461.094 -234.942)" fill="#9e616a"/>
    <path id="Path_6529" data-name="Path 6529" d="M836.864,355.336a2.507,2.507,0,0,1,1.108-1.772l10.519-6.926A6.969,6.969,0,1,1,857.811,357l-8.082,9.712a2.509,2.509,0,0,1-3.8.067l-8.448-9.447A2.507,2.507,0,0,1,836.864,355.336Z" transform="translate(-495.221 -228.128)" fill="#e4e4e4"/>
    <circle id="Ellipse_115" data-name="Ellipse 115" cx="12.795" cy="12.795" r="12.795" transform="translate(360.952 83.205)" fill="#9e616a"/>
    <path id="Path_6530" data-name="Path 6530" d="M897.828,286.837a7.932,7.932,0,0,1-6.975-8.393,6.777,6.777,0,0,1-5.8,6.9c-1.853.2-3.885-.357-5.5.578-1.787,1.036-2.359,3.551-4.22,4.445-1.8.864-4.083-.314-4.971-2.1a7.963,7.963,0,0,1-.082-5.84,16.489,16.489,0,0,1,27.448-6.759,10.559,10.559,0,0,1,3.267,6.287,6.193,6.193,0,0,1-3.05,6.082Z" transform="translate(-510.992 -192.656)" fill="#2f2e41"/>
    <path id="Path_6531" data-name="Path 6531" d="M380.067,775.734H181.588a.521.521,0,1,1,0-1.042H380.067a.521.521,0,0,1,0,1.042Z" transform="translate(-181.067 -434.047)" fill="#cacaca"/>
  </g>
  <path id="Path_6499" data-name="Path 6499" d="M666.7,279.015A139.207,139.207,0,1,0,527.489,139.807,139.207,139.207,0,0,0,666.7,279.015Z" transform="translate(-377.454 -0.6)" fill="#52bd95" opacity="0.08"/>
</svg>
