<svg id="Component_37_2" data-name="Component 37 – 2" xmlns="http://www.w3.org/2000/svg" width="539.101" height="314.149" viewBox="0 0 539.101 314.149">
  <circle id="Ellipse_165" data-name="Ellipse 165" cx="41.618" cy="41.618" r="41.618" transform="translate(0 220.784)" fill="#286efa"/>
  <circle id="Ellipse_166" data-name="Ellipse 166" cx="108.979" cy="108.979" r="108.979" transform="translate(26.362 96.19)" fill="#f2f2f2"/>
  <g id="undraw_Public_discussion_re_w9up" transform="translate(26.362)">
    <path id="Path_6584" data-name="Path 6584" d="M761.431,626.447l-5.969,9.384,3.477-12.217c-7.341-7.66-17.5-13.263-17.5-13.263s-12.514,20.566-9.146,33.218,12.065,15.066,21.342,12.6,15.622-8.889,12.254-21.541A22.964,22.964,0,0,0,761.431,626.447Z" transform="translate(-406.689 -353.711)" fill="#f2f2f2"/>
    <path id="Path_6585" data-name="Path 6585" d="M762.245,636l.166.624c1.893,7.258,2.176,13.239.837,17.86-.018.068-.041.133-.059.2l-.312-.092-.3-.092c1.516-5.009.839-11.338-.81-17.669-.051-.2-.1-.412-.161-.618-.722-2.674-1.606-5.338-2.569-7.9-.073-.2-.149-.4-.226-.6-1.288-3.373-2.7-6.549-4-9.286-.091-.194-.186-.387-.279-.577-2.226-4.624-4.113-7.9-4.537-8.624-.05-.089-.08-.138-.086-.149l.271-.161,0,0,.274-.162c.006.012.106.174.279.478.656,1.135,2.4,4.225,4.406,8.378.09.188.184.381.275.575,1.061,2.22,2.185,4.718,3.254,7.369q.4,1,.774,1.976c.08.2.156.4.229.6Q761.237,632.277,762.245,636Z" transform="translate(-415.401 -352.945)" fill="#fff"/>
    <path id="Path_6586" data-name="Path 6586" d="M750.6,623.331c-.2.083-.4.167-.609.245a17.593,17.593,0,0,1-1.717.553,17.143,17.143,0,0,1-7.593.289l-.261.6a17.78,17.78,0,0,0,8.018-.27,18.26,18.26,0,0,0,1.832-.594c.2-.077.407-.161.605-.247a17.631,17.631,0,0,0,4.527-2.8l-.522-.4a17.082,17.082,0,0,1-4.28,2.624Z" transform="translate(-410.857 -358.669)" fill="#fff"/>
    <path id="Path_6587" data-name="Path 6587" d="M752.938,639.706q-.314.1-.634.189c-.064.02-.132.038-.2.056a17.235,17.235,0,0,1-15.571-3.5c-.075.215-.15.43-.221.647a17.874,17.874,0,0,0,15.956,3.471c.087-.023.173-.046.259-.072.215-.061.427-.123.637-.189a17.78,17.78,0,0,0,8.3-5.647c-.147-.156-.295-.312-.445-.467a17.117,17.117,0,0,1-8.083,5.514Z" transform="translate(-408.892 -365.125)" fill="#fff"/>
    <path id="Path_6588" data-name="Path 6588" d="M754.517,653.135c-.211.076-.424.146-.638.213-.229.071-.459.139-.69.2a17.281,17.281,0,0,1-19.208-7.753c-.072.287-.146.571-.212.856a17.914,17.914,0,0,0,19.584,7.514c.232-.062.462-.126.687-.2s.43-.134.642-.207a17.862,17.862,0,0,0,9.911-8.593c-.126-.211-.26-.417-.395-.625A17.225,17.225,0,0,1,754.517,653.135Z" transform="translate(-407.673 -370.08)" fill="#fff"/>
    <path id="Path_6589" data-name="Path 6589" d="M702.431,216.447l-5.969,9.384,3.477-12.217c-7.341-7.66-17.5-13.263-17.5-13.263s-12.514,20.566-9.146,33.217,12.065,15.066,21.342,12.6,15.622-8.889,12.254-21.54A22.965,22.965,0,0,0,702.431,216.447Z" transform="translate(-378.442 -199.518)" fill="#f2f2f2"/>
    <path id="Path_6590" data-name="Path 6590" d="M703.245,226l.166.624c1.893,7.258,2.176,13.239.837,17.86-.018.068-.041.133-.059.2l-.312-.092-.3-.092c1.516-5.009.84-11.338-.81-17.669-.051-.2-.1-.412-.161-.618-.722-2.674-1.606-5.338-2.569-7.9-.073-.2-.149-.4-.226-.6-1.288-3.373-2.7-6.549-4-9.286-.091-.194-.186-.387-.279-.577-2.226-4.624-4.113-7.9-4.537-8.624-.05-.089-.08-.137-.086-.149l.271-.161,0,0,.274-.162c.006.012.106.174.279.478.656,1.135,2.4,4.225,4.406,8.378.09.188.184.381.275.575,1.06,2.22,2.185,4.718,3.254,7.369q.4,1,.774,1.976c.08.2.156.4.229.6Q702.237,222.278,703.245,226Z" transform="translate(-387.154 -198.751)" fill="#fff"/>
    <path id="Path_6591" data-name="Path 6591" d="M691.6,213.331c-.2.083-.4.167-.609.245a17.617,17.617,0,0,1-1.717.553,17.143,17.143,0,0,1-7.593.289c-.086.2-.172.4-.261.6a17.779,17.779,0,0,0,8.018-.27,18.229,18.229,0,0,0,1.832-.594c.2-.077.407-.161.605-.247a17.628,17.628,0,0,0,4.527-2.8l-.522-.4a17.087,17.087,0,0,1-4.28,2.624Z" transform="translate(-382.61 -204.475)" fill="#fff"/>
    <path id="Path_6592" data-name="Path 6592" d="M693.938,229.706q-.315.1-.634.189c-.064.02-.132.038-.2.056a17.235,17.235,0,0,1-15.571-3.5c-.075.215-.15.43-.221.647a17.874,17.874,0,0,0,15.956,3.471c.086-.023.173-.046.258-.072.215-.061.427-.123.637-.189a17.78,17.78,0,0,0,8.3-5.647c-.147-.156-.295-.312-.445-.467A17.115,17.115,0,0,1,693.938,229.706Z" transform="translate(-380.645 -210.931)" fill="#fff"/>
    <path id="Path_6593" data-name="Path 6593" d="M695.517,243.136c-.211.076-.424.146-.638.213-.229.071-.459.139-.69.2a17.281,17.281,0,0,1-19.208-7.753c-.072.287-.146.571-.212.856a17.914,17.914,0,0,0,19.584,7.514c.232-.062.462-.126.687-.2s.43-.134.642-.207a17.862,17.862,0,0,0,9.911-8.593c-.126-.211-.26-.417-.395-.626a17.225,17.225,0,0,1-9.682,8.594Z" transform="translate(-379.426 -215.886)" fill="#fff"/>
    <path id="Path_6594" data-name="Path 6594" d="M382,648.009l-11.122.05,12.158-3.678c2.477-10.317,1.7-21.9,1.7-21.9s-24.067.588-32.89,10.26-6.154,18.294.938,24.765,15.923,8.339,24.746-1.333A22.965,22.965,0,0,0,382,648.009Z" transform="translate(-222.157 -359.521)" fill="#f2f2f2"/>
    <path id="Path_6595" data-name="Path 6595" d="M375.843,646.509l-.435.477c-5.084,5.516-9.963,8.987-14.574,10.358-.067.021-.134.038-.2.059l-.091-.312-.084-.3c5.034-1.432,9.993-5.422,14.428-10.232.144-.154.291-.31.433-.47,1.86-2.053,3.623-4.237,5.257-6.43.128-.169.256-.342.383-.515,2.142-2.907,4.053-5.808,5.651-8.384.114-.182.225-.365.335-.547,2.687-4.372,4.423-7.731,4.8-8.479.048-.09.073-.141.079-.153l.282.141h0l.285.143c-.006.012-.089.183-.251.493-.6,1.165-2.259,4.3-4.667,8.235-.109.177-.221.361-.335.542-1.295,2.092-2.788,4.388-4.44,6.721q-.621.88-1.244,1.719c-.125.175-.253.349-.381.517Q378.431,643.648,375.843,646.509Z" transform="translate(-228.949 -359.087)" fill="#fff"/>
    <path id="Path_6596" data-name="Path 6596" d="M405.942,631.743c-.177-.123-.357-.248-.535-.38a17.619,17.619,0,0,1-1.394-1.146,17.143,17.143,0,0,1-4.347-6.232l-.644.1a17.778,17.778,0,0,0,4.561,6.6,18.229,18.229,0,0,0,1.49,1.221c.176.13.355.255.535.376a17.627,17.627,0,0,0,4.8,2.294q.025-.334.051-.654A17.084,17.084,0,0,1,405.942,631.743Z" transform="translate(-247.412 -360.238)" fill="#fff"/>
    <path id="Path_6597" data-name="Path 6597" d="M394.4,641.809q-.257-.209-.5-.432c-.052-.043-.1-.09-.153-.135a17.235,17.235,0,0,1-5.47-14.993c-.221.053-.443.106-.664.164a17.874,17.874,0,0,0,5.7,15.3c.066.06.132.121.2.179.167.148.335.292.5.434a17.779,17.779,0,0,0,9.237,3.929c.051-.208.1-.416.152-.627a17.117,17.117,0,0,1-9.008-3.82Z" transform="translate(-241.89 -361.323)" fill="#fff"/>
    <path id="Path_6598" data-name="Path 6598" d="M383.247,649.892c-.178-.137-.352-.278-.524-.421s-.365-.311-.542-.473a17.281,17.281,0,0,1-3.86-20.351c-.281.094-.559.186-.835.285a17.914,17.914,0,0,0,4.264,20.538c.177.162.356.321.539.47s.346.289.522.428a17.861,17.861,0,0,0,12.586,3.694c.11-.22.21-.444.313-.67A17.225,17.225,0,0,1,383.247,649.892Z" transform="translate(-236.354 -362.47)" fill="#fff"/>
    <path id="Path_6599" data-name="Path 6599" d="M235.82,466.8h6.39l3.04-24.649h-9.431Z" transform="translate(-112.899 -169.587)" fill="#ffb6b6"/>
    <path id="Path_6600" data-name="Path 6600" d="M340.856,684.19h12.586a8.02,8.02,0,0,1,8.02,8.02v.261H340.857Z" transform="translate(-219.565 -389.061)" fill="#2f2e41"/>
    <path id="Path_6601" data-name="Path 6601" d="M138.82,466.8h6.39l3.04-24.649h-9.431Z" transform="translate(-66.46 -169.587)" fill="#ffb6b6"/>
    <path id="Path_6602" data-name="Path 6602" d="M243.856,684.19h12.586a8.02,8.02,0,0,1,8.02,8.02v.261H243.857Z" transform="translate(-173.126 -389.061)" fill="#2f2e41"/>
    <path id="Path_6603" data-name="Path 6603" d="M148.2,295.2l-4.307,3.964-4.854,47.89-3.268,38.133,9.875,1.332L169.6,321.364l17.526,64.846,11.816.309-7.842-84.647Z" transform="translate(-64.999 -99.233)" fill="#2f2e41"/>
    <circle id="Ellipse_127" data-name="Ellipse 127" cx="12.268" cy="12.268" r="12.268" transform="translate(91.744 68.899)" fill="#ffb9b9"/>
    <path id="Path_6604" data-name="Path 6604" d="M289.551,314.829s-1.463,3.165,4.388,1.9c0,0,2.194,1.266,2.194-.633,0,0,2.925,3.165,3.657,1.266s2.194.633,2.194.633l1.463-3.165,1.463,1.9h5.119s1.463-12.661-16.089-11.4-8.917,21.326-8.917,21.326.141-3.6,1.6-1.7S289.551,314.829,289.551,314.829Z" transform="translate(-191.817 -240.02)" fill="#2f2e41"/>
    <path id="Path_6605" data-name="Path 6605" d="M293.981,364.784l-17.3-1.083-15.416,4.089,2.337,39.726-4.089,28.042s22.437,13.715,47.9,2.921L305,432.115s-.083-9.74-2.127-11.646-1.881-17.627-1.881-17.627l7.595-29.21Z" transform="translate(-180.622 -257.945)" fill="#3f3d56"/>
    <path id="Path_6606" data-name="Path 6606" d="M253.062,372.8l-4.118-1.254s-6.414.214-9.748,7.51-5.42,17.721-5.42,17.721l21.18.766Z" transform="translate(-168.3 -265.407)" fill="#3f3d56"/>
    <path id="Path_6607" data-name="Path 6607" d="M356.057,468.01l-.686-43.058-9.151,1.373,2.021,40.795a5.478,5.478,0,1,0,7.815.891Z" transform="translate(-222.133 -283.416)" fill="#ffb9b9"/>
    <path id="Path_6608" data-name="Path 6608" d="M337.775,386.506l5.151-3.752s9.9,7.741,9.931,24.772l-13.808,3.349-7.807-11.229Z" transform="translate(-214.962 -269.575)" fill="#3f3d56"/>
    <path id="Path_6609" data-name="Path 6609" d="M768.568,466.755h6.391L778,442.106h-9.431Z" transform="translate(-367.953 -169.565)" fill="#9e616a"/>
    <path id="Path_6610" data-name="Path 6610" d="M873.6,684.143H886.19a8.021,8.021,0,0,1,8.02,8.02v.261H873.6Z" transform="translate(-474.619 -389.039)" fill="#2f2e41"/>
    <path id="Path_6611" data-name="Path 6611" d="M696.005,457.384l6.093,1.928,10.333-22.584-8.992-2.844Z" transform="translate(-333.214 -165.628)" fill="#9e616a"/>
    <path id="Path_6612" data-name="Path 6612" d="M800.1,672.961l12,3.8h0a8.021,8.021,0,0,1,5.228,10.066l-.079.248L797.6,680.857Z" transform="translate(-438.233 -383.686)" fill="#2f2e41"/>
    <path id="Path_6613" data-name="Path 6613" d="M819.186,472.176l-3.546,10-.1,53.995-10.057,36.968,12.345,3.445,13.637-34.858,4.374-30.617,5.764,30.8-.793,36.6H853.76l.978-56.4a123.668,123.668,0,0,0-8.164-46.382h0Z" transform="translate(-442.006 -287.56)" fill="#2f2e41"/>
    <path id="Path_6614" data-name="Path 6614" d="M706.8,195.7h20.936l8.748,8.748,2.614,36.159-31.62,5.088-10.157-34.5,5.531-14.663Z" transform="translate(-333.843 -76.43)" fill="#286efa"/>
    <path id="Path_6615" data-name="Path 6615" d="M670.686,194.545l-32.234-12.128-.839-5.013,20.329-17.2,6.766,5.075-12.264,13.428,21.823.831Z" transform="translate(-304.258 -60.252)" fill="#286efa"/>
    <circle id="Ellipse_128" data-name="Ellipse 128" cx="5.212" cy="5.212" r="5.212" transform="translate(351.38 93.525)" fill="#9e616a"/>
    <path id="Path_6616" data-name="Path 6616" d="M815.425,354.8l2.355-10.621a14.578,14.578,0,0,1,28.464,6.312l-2.355,10.621a1.96,1.96,0,0,1-2.336,1.488l-24.641-5.464a1.96,1.96,0,0,1-1.488-2.336Z" transform="translate(-446.743 -250.234)" fill="#2f2e41"/>
    <circle id="Ellipse_129" data-name="Ellipse 129" cx="10.688" cy="10.688" r="10.688" transform="translate(371.246 88.06)" fill="#9e616a"/>
    <path id="Path_6617" data-name="Path 6617" d="M813.122,346.573a11.545,11.545,0,0,1,13.755-8.762l2.124.471a11.545,11.545,0,0,1,8.761,13.755l-.047.212-4.489-1-.58-4.627-1.257,4.22-2.32-.515L828.776,348l-.634,2.129-15.067-3.341Z" transform="translate(-445.64 -252.878)" fill="#2f2e41"/>
    <path id="Path_6618" data-name="Path 6618" d="M833.717,367.7a1.929,1.929,0,0,1,.294-2.033c3.2-3.782,8.107-10.995,5.005-16.8l-.223-.417,12.145,2.693-4.044,18.234-11.464-.5a2,2,0,0,1-.345-.045A1.95,1.95,0,0,1,833.717,367.7Z" transform="translate(-455.443 -256.79)" fill="#2f2e41"/>
    <path id="Path_6619" data-name="Path 6619" d="M620.281,700.109h-511.5a.621.621,0,0,1,0-1.241h511.5a.621.621,0,0,1,0,1.241Z" transform="translate(-108.162 -396.088)" fill="#cacaca"/>
    <path id="Path_6620" data-name="Path 6620" d="M443.425,406.472h-165.4a9.561,9.561,0,0,0-9.561,9.561v39.779a9.561,9.561,0,0,0,9.561,9.561h2.428v7.187a2.2,2.2,0,0,0,3.764,1.559l8.746-8.746H443.425a9.561,9.561,0,0,0,9.561-9.561V416.033A9.561,9.561,0,0,0,443.425,406.472Z" transform="translate(-184.907 -274.66)" fill="#e6e6e6"/>
    <path id="Path_6621" data-name="Path 6621" d="M408.194,464.969H282.573a4.614,4.614,0,0,1-4.609-4.609V420.581a4.614,4.614,0,0,1,4.609-4.609h165.4a4.615,4.615,0,0,1,4.609,4.609A44.438,44.438,0,0,1,408.194,464.969Z" transform="translate(-189.455 -280.362)" fill="#fff"/>
    <rect id="Rectangle_4121" data-name="Rectangle 4121" width="76.102" height="6.255" rx="3.127" transform="translate(137.94 141.884)" fill="#286efa"/>
    <rect id="Rectangle_4122" data-name="Rectangle 4122" width="105.813" height="6.255" rx="3.127" transform="translate(123.085 156.454)" fill="#e6e6e6"/>
    <rect id="Rectangle_4123" data-name="Rectangle 4123" width="105.813" height="6.255" rx="3.127" transform="translate(123.085 171.024)" fill="#e6e6e6"/>
    <path id="Path_6622" data-name="Path 6622" d="M939.989,459.608H820.378a6.914,6.914,0,0,0-6.914,6.914v28.767a6.914,6.914,0,0,0,6.914,6.914h1.755v5.2a1.595,1.595,0,0,0,2.722,1.127l6.325-6.325H939.989a6.914,6.914,0,0,0,6.914-6.914V466.523a6.914,6.914,0,0,0-6.914-6.914Z" transform="translate(-445.827 -296.707)" fill="#e6e6e6"/>
    <path id="Path_6623" data-name="Path 6623" d="M943.212,501.918H823.6a3.409,3.409,0,0,1-3.406-3.405V469.745a3.409,3.409,0,0,1,3.405-3.405h90.845a32.209,32.209,0,0,1,32.172,32.172,3.409,3.409,0,0,1-3.406,3.405Z" transform="translate(-449.049 -300.92)" fill="#fff"/>
    <rect id="Rectangle_4124" data-name="Rectangle 4124" width="55.034" height="4.523" rx="2.262" transform="translate(406.965 169.611)" fill="#286efa"/>
    <rect id="Rectangle_4125" data-name="Rectangle 4125" width="76.52" height="4.523" rx="2.262" transform="translate(396.222 180.137)" fill="#e6e6e6"/>
    <rect id="Rectangle_4126" data-name="Rectangle 4126" width="76.52" height="4.523" rx="2.262" transform="translate(396.222 190.663)" fill="#e6e6e6"/>
    <path id="Path_6624" data-name="Path 6624" d="M560.378,265.608H679.989a6.914,6.914,0,0,1,6.914,6.914v28.767a6.914,6.914,0,0,1-6.914,6.914h-1.756v5.2a1.595,1.595,0,0,1-2.722,1.127l-6.325-6.325H560.378a6.914,6.914,0,0,1-6.914-6.914V272.523a6.914,6.914,0,0,1,6.914-6.914Z" transform="translate(-321.351 -230.759)" fill="#e6e6e6"/>
    <path id="Path_6625" data-name="Path 6625" d="M683.212,307.917H592.368A32.209,32.209,0,0,1,560.2,275.745a3.409,3.409,0,0,1,3.405-3.406H683.212a3.409,3.409,0,0,1,3.405,3.405v28.767A3.409,3.409,0,0,1,683.212,307.917Z" transform="translate(-324.574 -233.982)" fill="#fff"/>
    <rect id="Rectangle_4127" data-name="Rectangle 4127" width="55.034" height="4.523" rx="2.262" transform="translate(326.224 49.173) rotate(180)" fill="#286efa"/>
    <rect id="Rectangle_4128" data-name="Rectangle 4128" width="76.52" height="4.523" rx="2.262" transform="translate(336.967 67.001) rotate(180)" fill="#e6e6e6"/>
    <rect id="Rectangle_4129" data-name="Rectangle 4129" width="76.52" height="4.523" rx="2.262" transform="translate(336.967 77.527) rotate(180)" fill="#e6e6e6"/>
    <path id="Path_6626" data-name="Path 6626" d="M272.522,399.925a5.473,5.473,0,0,0-10.946,0c0,.053.006.105.008.158l-9.6,9.6.73-1.678-10.946-.521-1.6,11.557a5.2,5.2,0,0,0,8.747,4.427l18.921-18.133a5.47,5.47,0,0,0,4.682-5.41Z" transform="translate(-171.341 -273.892)" fill="#ffb9b9"/>
    <path id="Path_6627" data-name="Path 6627" d="M753.853,196.12l34.1,4.848,1.906,4.712-16.114,21.2-7.706-3.487,9.059-15.768-21.483,3.922Z" transform="translate(-360.794 -75.278)" fill="#286efa"/>
    <circle id="Ellipse_130" data-name="Ellipse 130" cx="5.212" cy="5.212" r="5.212" transform="translate(402.984 150.115)" fill="#9e616a"/>
  </g>
</svg>
