<svg xmlns="http://www.w3.org/2000/svg" width="225.243" height="134.123" viewBox="0 0 225.243 134.123">
  <g id="Group_9177" data-name="Group 9177" transform="translate(-753.025 -2177.441)">
    <g id="Group_9136" data-name="Group 9136" transform="translate(-241.171 181.818)">
      <g id="Group_6892" data-name="Group 6892" transform="translate(1119.34 2017.364)">
        <g id="container" transform="translate(0)">
          <path id="Path_5814" data-name="Path 5814" d="M8.1,95.991l42.561,21.658L91.606,95.991V11.3H8.1Z" transform="translate(0.197 -8.499)" fill="#fff"/>
          <path id="Path_5815" data-name="Path 5815" d="M92.53,11.6,7.3,97.476l44.177,21.873L92.53,98.338Z" transform="translate(0.135 -8.475)" fill="#f2f3f2"/>
          <path id="Path_5816" data-name="Path 5816" d="M5.5,39.732V98.024l1.508.754,42.561,21.658,1.293.646,1.293-.646L93.208,98.778l1.508-.754V8.7H5.5ZM8.3,96.408V11.5H91.915V96.408L50.862,118.065Z" transform="translate(-0.005 -8.7)" fill="#dcdedc"/>
          <path id="banner" d="M97.159,64.5H3.848L.4,72.042l3.448,7.542H97.159l3.34-7.542Z" transform="translate(-0.4 -4.376)" fill="#ff492c"/>
          <path id="Path_5817" data-name="Path 5817" d="M5.592-10.51h0a3.925,3.925,0,0,1,1.875.431h0A3.012,3.012,0,0,1,8.716-8.84h0a3.717,3.717,0,0,1,.442,1.832h0a3.506,3.506,0,0,1-.453,1.8h0a3.2,3.2,0,0,1-1.293,1.2h0a4.1,4.1,0,0,1-1.918.431H3.2q-.075,0-.075.086h0V.62h0a.174.174,0,0,1-.065.14h0a.189.189,0,0,1-.14.054H1.034A.189.189,0,0,1,.894.761h0A.189.189,0,0,1,.84.62h0V-10.316h0a.189.189,0,0,1,.054-.14h0a.189.189,0,0,1,.14-.054H5.592ZM5.247-5.4h0a1.639,1.639,0,0,0,1.2-.431h0A1.477,1.477,0,0,0,6.9-6.954h0a1.517,1.517,0,0,0-.453-1.153h0a1.616,1.616,0,0,0-1.2-.442H3.2q-.075,0-.075.086h0v2.974h0q0,.086.075.086H5.247ZM17.778-4.2h0a6.912,6.912,0,0,1,.065,1.368h0a.187.187,0,0,1-.2.2h-5q-.1,0-.065.075h0a3.591,3.591,0,0,0,.172.646h0A1.707,1.707,0,0,0,14.459-1h0a1.929,1.929,0,0,0,1.638-.84h0a.177.177,0,0,1,.14-.1h0a.179.179,0,0,1,.119.065h0L17.52-.726h0a.247.247,0,0,1,.075.151h0a.366.366,0,0,1-.054.129h0A3.477,3.477,0,0,1,16.162.577h0a4.561,4.561,0,0,1-1.843.366h0A4.211,4.211,0,0,1,11.97.319h0a3.593,3.593,0,0,1-1.39-1.767h0a5.6,5.6,0,0,1-.334-2.112h0a4.767,4.767,0,0,1,.237-1.573h0a3.589,3.589,0,0,1,1.3-1.821h0A3.665,3.665,0,0,1,14-7.633h0a3.6,3.6,0,0,1,2.6.937h0a4.065,4.065,0,0,1,1.185,2.5ZM14.007-5.661h0a1.291,1.291,0,0,0-1.336.948h0a4.707,4.707,0,0,0-.119.517h0q0,.075.086.075h2.791q.1,0,.075-.075h0q-.086-.463-.086-.453h0a1.457,1.457,0,0,0-.506-.754h0a1.53,1.53,0,0,0-.905-.259ZM23.392-7.6h0a1.647,1.647,0,0,1,.916.226h0a.2.2,0,0,1,.1.237h0L24.06-5.295h0q-.011.194-.226.119h0a1.64,1.64,0,0,0-.56-.086h0a2.673,2.673,0,0,0-.356.032h0a1.645,1.645,0,0,0-.991.431h0a1.328,1.328,0,0,0-.4,1.013h0V.62h0a.189.189,0,0,1-.054.14h0a.215.215,0,0,1-.14.054H19.448a.189.189,0,0,1-.14-.054h0a.189.189,0,0,1-.054-.14h0V-7.3h0a.215.215,0,0,1,.054-.14h0a.189.189,0,0,1,.14-.054h1.886a.215.215,0,0,1,.14.054h0a.215.215,0,0,1,.054.14h0v.614h0a.073.073,0,0,0,.032.065h0q.032.022.043-.022h0A2.077,2.077,0,0,1,23.392-7.6Zm6.788.1h0a.176.176,0,0,1,.129.054h0a.174.174,0,0,1,.065.14h0v1.53h0a.174.174,0,0,1-.065.14h0a.176.176,0,0,1-.129.054H28.607a.067.067,0,0,0-.075.075h0V.62h0a.174.174,0,0,1-.065.14h0a.176.176,0,0,1-.129.054h-1.9A.215.215,0,0,1,26.3.761h0a.19.19,0,0,1-.054-.14h0V-5.51h0q0-.075-.086-.075h-.948a.215.215,0,0,1-.14-.054h0a.189.189,0,0,1-.054-.14h0V-7.31h0a.189.189,0,0,1,.054-.14h0a.215.215,0,0,1,.14-.054h.948a.076.076,0,0,0,.086-.086h0v-.356h0a3.236,3.236,0,0,1,.312-1.562h0a1.706,1.706,0,0,1,.991-.787h0a5.577,5.577,0,0,1,1.9-.2h.614a.189.189,0,0,1,.14.054h0a.215.215,0,0,1,.054.14h0V-9h0a.189.189,0,0,1-.054.14h0a.174.174,0,0,1-.14.065h-.539a1.121,1.121,0,0,0-.776.226h0a1.172,1.172,0,0,0-.215.808h0v.172h0q0,.086.075.086H30.18ZM35.363.944h0A3.827,3.827,0,0,1,33.035.233h0A3.553,3.553,0,0,1,31.71-1.707h0a5.717,5.717,0,0,1-.226-1.649h0a6.033,6.033,0,0,1,.226-1.713h0a3.52,3.52,0,0,1,1.336-1.875h0a4.005,4.005,0,0,1,2.338-.679h0a3.748,3.748,0,0,1,2.252.668h0a3.6,3.6,0,0,1,1.336,1.875h0a5.516,5.516,0,0,1,.259,1.692h0A5.748,5.748,0,0,1,39-1.75h0A3.632,3.632,0,0,1,37.679.222h0a3.741,3.741,0,0,1-2.317.722Zm0-1.95h0a1.319,1.319,0,0,0,.905-.323h0a1.885,1.885,0,0,0,.539-.894h0a4.66,4.66,0,0,0,.129-1.131h0A4.312,4.312,0,0,0,36.807-4.5h0a1.844,1.844,0,0,0-.56-.862h0a1.361,1.361,0,0,0-.894-.3h0a1.367,1.367,0,0,0-.916.3h0a1.746,1.746,0,0,0-.528.862h0a3.761,3.761,0,0,0-.129,1.142h0A4.174,4.174,0,0,0,33.9-2.224h0a1.685,1.685,0,0,0,.539.894h0a1.375,1.375,0,0,0,.927.323ZM44.834-7.6h0a1.614,1.614,0,0,1,.916.226h0a.2.2,0,0,1,.1.237h0l-.334,1.843h0q-.022.194-.226.119h0a1.736,1.736,0,0,0-.571-.086h0a2.673,2.673,0,0,0-.356.032h0a1.634,1.634,0,0,0-.981.431h0a1.328,1.328,0,0,0-.4,1.013h0V.62h0a.174.174,0,0,1-.065.14h0a.176.176,0,0,1-.129.054h-1.9a.189.189,0,0,1-.14-.054h0A.19.19,0,0,1,40.7.62h0V-7.3h0a.215.215,0,0,1,.054-.14h0a.189.189,0,0,1,.14-.054h1.9a.176.176,0,0,1,.129.054h0a.2.2,0,0,1,.065.14h0v.614h0A.088.088,0,0,0,43-6.62h0q.032.022.054-.022h0A2.05,2.05,0,0,1,44.834-7.6Zm11.26-.022h0a2.579,2.579,0,0,1,1.972.754h0a3.03,3.03,0,0,1,.711,2.144h0V.62h0a.19.19,0,0,1-.054.14h0a.19.19,0,0,1-.14.054H56.7a.189.189,0,0,1-.14-.054h0A.189.189,0,0,1,56.5.62h0V-4.228h0a1.516,1.516,0,0,0-.345-1.045h0a1.133,1.133,0,0,0-.905-.388h0a1.186,1.186,0,0,0-.916.388h0a1.471,1.471,0,0,0-.356,1.034h0V.62h0a.189.189,0,0,1-.054.14h0a.215.215,0,0,1-.14.054H51.913a.19.19,0,0,1-.14-.054h0a.19.19,0,0,1-.054-.14h0V-4.228h0a1.511,1.511,0,0,0-.356-1.045h0a1.2,1.2,0,0,0-.927-.388h0a1.262,1.262,0,0,0-.862.3h0a1.325,1.325,0,0,0-.409.862h0V.62h0a.189.189,0,0,1-.054.14h0a.215.215,0,0,1-.14.054h-1.9a.176.176,0,0,1-.129-.054h0a.174.174,0,0,1-.065-.14h0V-7.3h0a.2.2,0,0,1,.065-.14h0a.176.176,0,0,1,.129-.054h1.9a.215.215,0,0,1,.14.054h0a.215.215,0,0,1,.054.14h0v.636h0A.073.073,0,0,0,49.2-6.6h0q.032.011.065-.043h0a2.29,2.29,0,0,1,2.047-.981h0a2.856,2.856,0,0,1,1.422.345h0a2.24,2.24,0,0,1,.927.97h0q.043.1.108,0h0a2.309,2.309,0,0,1,.97-.991h0a2.829,2.829,0,0,1,1.358-.323ZM67.731-4.2h0A6.911,6.911,0,0,1,67.8-2.827h0a.187.187,0,0,1-.2.2h-5q-.1,0-.065.075h0a3.12,3.12,0,0,0,.183.646h0A1.7,1.7,0,0,0,64.423-1h0a1.919,1.919,0,0,0,1.627-.84h0a.183.183,0,0,1,.151-.1h0a.176.176,0,0,1,.108.065h0L67.472-.726h0a.236.236,0,0,1,.086.151h0a.333.333,0,0,1-.065.129h0A3.477,3.477,0,0,1,66.114.577h0a4.561,4.561,0,0,1-1.842.366h0A4.211,4.211,0,0,1,61.923.319h0a3.534,3.534,0,0,1-1.379-1.767h0A5.447,5.447,0,0,1,60.2-3.56h0a4.577,4.577,0,0,1,.248-1.573h0a3.508,3.508,0,0,1,1.3-1.821h0a3.618,3.618,0,0,1,2.2-.679h0a3.6,3.6,0,0,1,2.6.937h0a4.065,4.065,0,0,1,1.185,2.5ZM63.97-5.661h0a1.3,1.3,0,0,0-1.347.948h0a3.591,3.591,0,0,0-.108.517h0a.067.067,0,0,0,.075.075h2.8q.1,0,.065-.075h0q-.086-.463-.086-.453h0a1.377,1.377,0,0,0-.506-.754h0a1.511,1.511,0,0,0-.894-.259ZM73.344-7.6h0a1.614,1.614,0,0,1,.916.226h0a.2.2,0,0,1,.1.237h0l-.334,1.843h0Q74-5.1,73.8-5.176h0a1.736,1.736,0,0,0-.571-.086h0a2.673,2.673,0,0,0-.356.032h0a1.6,1.6,0,0,0-.981.431h0a1.31,1.31,0,0,0-.409,1.013h0V.62h0a.189.189,0,0,1-.054.14h0a.189.189,0,0,1-.14.054H69.4a.19.19,0,0,1-.14-.054h0a.189.189,0,0,1-.054-.14h0V-7.3h0a.215.215,0,0,1,.054-.14h0a.19.19,0,0,1,.14-.054h1.886a.189.189,0,0,1,.14.054h0a.215.215,0,0,1,.054.14h0v.614h0a.073.073,0,0,0,.032.065h0q.032.022.054-.022h0A2.05,2.05,0,0,1,73.344-7.6Z" transform="translate(12.155 54.461)" fill="#252530"/>
          <path id="Path_5818" data-name="Path 5818" d="M6.933-10.271h0a.215.215,0,0,1,.054-.14h0a.176.176,0,0,1,.129-.054h1.9a.215.215,0,0,1,.14.054h0a.215.215,0,0,1,.054.14h0V.655h0a.189.189,0,0,1-.054.14h0a.215.215,0,0,1-.14.054h-1.9A.176.176,0,0,1,6.987.795h0a.189.189,0,0,1-.054-.14h0V-3.806h0q0-.075-.086-.075H3.27a.067.067,0,0,0-.075.075h0V.655h0a.189.189,0,0,1-.054.14h0A.215.215,0,0,1,3,.849H1.1A.176.176,0,0,1,.975.795h0A.174.174,0,0,1,.91.655h0V-10.271h0a.2.2,0,0,1,.065-.14h0a.176.176,0,0,1,.129-.054H3a.215.215,0,0,1,.14.054h0a.215.215,0,0,1,.054.14h0v4.342h0q0,.086.075.086H6.847a.076.076,0,0,0,.086-.086h0ZM12.148-8.4h0a1.243,1.243,0,0,1-.916-.366h0a1.207,1.207,0,0,1-.366-.905h0a1.253,1.253,0,0,1,.356-.927h0a1.253,1.253,0,0,1,.927-.356h0a1.253,1.253,0,0,1,.927.356h0a1.253,1.253,0,0,1,.356.927h0a1.207,1.207,0,0,1-.366.905h0a1.243,1.243,0,0,1-.916.366ZM11.178.849h0a.215.215,0,0,1-.14-.054h0a.189.189,0,0,1-.054-.14h0v-7.93h0a.189.189,0,0,1,.054-.14h0a.215.215,0,0,1,.14-.054h1.9a.176.176,0,0,1,.129.054h0a.174.174,0,0,1,.065.14h0V.655h0a.174.174,0,0,1-.065.14h0a.176.176,0,0,1-.129.054h-1.9Zm8.932-8.113h0a.2.2,0,0,1,.065-.14h0a.176.176,0,0,1,.129-.054h1.9a.215.215,0,0,1,.14.054h0a.215.215,0,0,1,.054.14h0V.105h0a3.515,3.515,0,0,1-1.218,3.017h0a5.1,5.1,0,0,1-3.146.916h0a10.232,10.232,0,0,1-1.261-.086h0a.178.178,0,0,1-.162-.2h0l.065-1.67h0q0-.215.226-.183h0a6.529,6.529,0,0,0,1.067.1h0a2.523,2.523,0,0,0,1.595-.442h0a1.8,1.8,0,0,0,.55-1.455h0q0-.054-.032-.065h0q-.032-.011-.065.032h0a2.33,2.33,0,0,1-1.789.657h0A3.774,3.774,0,0,1,16.3.213h0a2.822,2.822,0,0,1-1.261-1.638h0A6.494,6.494,0,0,1,14.8-3.354h0A6.007,6.007,0,0,1,15.09-5.4h0a3.163,3.163,0,0,1,1.142-1.584h0a3.065,3.065,0,0,1,1.886-.6h0a2.4,2.4,0,0,1,1.9.743h0a.061.061,0,0,0,.065.022h0a.05.05,0,0,0,.032-.054h0ZM19.982-2.05h0a5.285,5.285,0,0,0,.129-1.325h0a6.86,6.86,0,0,0-.032-.765h0a2.986,2.986,0,0,0-.108-.528h0a1.525,1.525,0,0,0-.485-.7h0a1.332,1.332,0,0,0-.84-.259h0a1.3,1.3,0,0,0-.819.259h0a1.566,1.566,0,0,0-.506.7h0a3.156,3.156,0,0,0-.226,1.315h0a3.11,3.11,0,0,0,.194,1.293h0a1.321,1.321,0,0,0,.506.7h0a1.415,1.415,0,0,0,.862.269h0a1.358,1.358,0,0,0,.862-.269h0a1.33,1.33,0,0,0,.463-.69Zm8.383-5.538h0a2.79,2.79,0,0,1,2.08.8h0a2.9,2.9,0,0,1,.787,2.144h0v5.3h0a.189.189,0,0,1-.054.14h0a.176.176,0,0,1-.129.054h-1.9a.215.215,0,0,1-.14-.054h0a.189.189,0,0,1-.054-.14h0V-4.183h0a1.508,1.508,0,0,0-.366-1.045h0a1.221,1.221,0,0,0-.959-.4h0a1.241,1.241,0,0,0-.959.4h0a1.508,1.508,0,0,0-.366,1.045h0V.655h0a.189.189,0,0,1-.054.14h0a.189.189,0,0,1-.14.054H24.227a.189.189,0,0,1-.14-.054h0a.189.189,0,0,1-.054-.14h0V-10.271h0a.215.215,0,0,1,.054-.14h0a.189.189,0,0,1,.14-.054h1.886a.189.189,0,0,1,.14.054h0a.215.215,0,0,1,.054.14h0v3.577h0a.073.073,0,0,0,.032.065h0a.03.03,0,0,0,.043-.022h0a2.277,2.277,0,0,1,1.983-.937Z" transform="translate(33.645 38.264)" fill="#252530"/>
          <path id="Path_5819" data-name="Path 5819" d="M2.373.542h0A.142.142,0,0,1,2.222.435h0L.261-6.86.25-6.9h0q0-.1.119-.1H1.424a.142.142,0,0,1,.151.108h0L2.8-1.979h0q.011.032.032.032h0q.022,0,.032-.032h0L4.043-6.892h0A.135.135,0,0,1,4.183-7H5.217a.142.142,0,0,1,.151.108h0l1.25,4.924h0q.011.032.032.032h0q.022,0,.032-.032h0L7.889-6.892h0A.142.142,0,0,1,8.04-7h1q.151,0,.119.14h0L7.3.435h0a.142.142,0,0,1-.151.108h-1A.142.142,0,0,1,5.993.435h0L4.732-4.7h0A.069.069,0,0,0,4.7-4.748h0q-.022,0-.032.043h0L3.461.435h0a.135.135,0,0,1-.14.108H2.373Zm7.984,0h0A.134.134,0,0,1,10.26.5h0a.116.116,0,0,1-.032-.086h0V-6.871h0a.116.116,0,0,1,.032-.086h0a.134.134,0,0,1,.1-.043h.991a.1.1,0,0,1,.086.043h0a.1.1,0,0,1,.043.086h0V.413h0A.1.1,0,0,1,11.434.5h0a.1.1,0,0,1-.086.043h-.991Zm7.079-7.413h0a.117.117,0,0,1,.032-.086h0a.134.134,0,0,1,.1-.043h.991a.1.1,0,0,1,.086.043h0a.1.1,0,0,1,.043.086h0V.413h0A.1.1,0,0,1,18.643.5h0a.1.1,0,0,1-.086.043H17.6a.154.154,0,0,1-.151-.086h0l-3.1-5.086h0q-.022-.032-.043-.032h0q-.022.011-.022.054h0L14.3.413h0A.1.1,0,0,1,14.257.5h0a.1.1,0,0,1-.086.043H13.18a.134.134,0,0,1-.1-.043h0a.117.117,0,0,1-.032-.086h0V-6.871h0a.116.116,0,0,1,.032-.086h0A.134.134,0,0,1,13.18-7h.959a.154.154,0,0,1,.151.086h0l3.092,5.086h0q.022.032.043.022h0q.022,0,.022-.043h0ZM25.215-7h0a.1.1,0,0,1,.086.043h0a.1.1,0,0,1,.043.086h0v.83h0a.1.1,0,0,1-.043.086h0a.1.1,0,0,1-.086.043H23.233a.048.048,0,0,0-.054.054h0V.413h0A.117.117,0,0,1,23.147.5h0a.134.134,0,0,1-.1.043h-.991A.1.1,0,0,1,21.972.5h0a.1.1,0,0,1-.043-.086h0V-5.858h0a.048.048,0,0,0-.054-.054H19.968a.134.134,0,0,1-.1-.043h0a.117.117,0,0,1-.032-.086h0v-.83h0a.117.117,0,0,1,.032-.086h0a.134.134,0,0,1,.1-.043h5.247Zm6.39.948h0a.1.1,0,0,1-.043.086h0a.1.1,0,0,1-.086.043H27.8a.048.048,0,0,0-.054.054h0v2.015h0A.048.048,0,0,0,27.8-3.8h2.467a.158.158,0,0,1,.1.032h0a.158.158,0,0,1,.032.1h0v.819h0a.158.158,0,0,1-.032.1h0a.158.158,0,0,1-.1.032H27.8a.048.048,0,0,0-.054.054h0v2.08h0a.048.048,0,0,0,.054.054h3.674a.1.1,0,0,1,.086.043h0a.1.1,0,0,1,.043.086h0V.413h0A.1.1,0,0,1,31.562.5h0a.1.1,0,0,1-.086.043H26.627A.134.134,0,0,1,26.53.5h0A.116.116,0,0,1,26.5.413h0V-6.871h0a.116.116,0,0,1,.032-.086h0a.134.134,0,0,1,.1-.043h4.849a.1.1,0,0,1,.086.043h0a.1.1,0,0,1,.043.086h0ZM37.111.542h0a.153.153,0,0,1-.151-.1h0l-1.422-3.1h0a.069.069,0,0,0-.065-.043H34.18a.048.048,0,0,0-.054.054h0V.413h0A.1.1,0,0,1,34.083.5h0A.1.1,0,0,1,34,.542h-.991a.134.134,0,0,1-.1-.043h0a.117.117,0,0,1-.032-.086h0V-6.871h0a.117.117,0,0,1,.032-.086h0a.134.134,0,0,1,.1-.043h2.963a2.44,2.44,0,0,1,1.164.269h0a1.993,1.993,0,0,1,.787.776h0A2.342,2.342,0,0,1,38.2-4.8h0a2.041,2.041,0,0,1-.388,1.261h0a1.941,1.941,0,0,1-1.056.733h0a.035.035,0,0,0-.032.022h0a.046.046,0,0,0,0,.043h0L38.242.392h0a.165.165,0,0,1,.022.065h0q0,.086-.119.086H37.111ZM34.18-5.923h0a.048.048,0,0,0-.054.054h0v2.144h0a.048.048,0,0,0,.054.054H35.8a1.159,1.159,0,0,0,.84-.312h0a1.071,1.071,0,0,0,.312-.808h0a1.107,1.107,0,0,0-.312-.819h0a1.159,1.159,0,0,0-.84-.312H34.18Z" transform="translate(30.814 71.326)" fill="#fff"/>
          <path id="Path_5820" data-name="Path 5820" d="M3.6-1.187h0a.061.061,0,0,0-.022.065h0a.073.073,0,0,0,.065.032H7.874A.176.176,0,0,1,8-1.036H8a.163.163,0,0,1,.065.129h0V.613h0A.163.163,0,0,1,8,.742H8A.176.176,0,0,1,7.874.8H.849A.189.189,0,0,1,.709.742h0A.176.176,0,0,1,.655.613h0V-.831h0a.322.322,0,0,1,.1-.237h0Q1.517-1.812,2.314-2.7h0q.8-.884,1-1.1h0q.431-.517.884-.991h0A4.5,4.5,0,0,0,5.622-7.124h0a1.174,1.174,0,0,0-.388-.905h0a1.468,1.468,0,0,0-1.013-.345h0a1.468,1.468,0,0,0-1.013.345h0a1.2,1.2,0,0,0-.4.937h0V-6.7h0a.176.176,0,0,1-.054.129h0a.176.176,0,0,1-.129.054H.784a.176.176,0,0,1-.129-.054h0A.163.163,0,0,1,.59-6.7h0v-.733h0a2.767,2.767,0,0,1,.539-1.5h0a3.108,3.108,0,0,1,1.282-.991h0a4.569,4.569,0,0,1,1.81-.345h0a4.172,4.172,0,0,1,1.929.42h0A3.073,3.073,0,0,1,7.411-8.74h0a2.852,2.852,0,0,1,.453,1.562h0a3.078,3.078,0,0,1-.334,1.347h0a7.21,7.21,0,0,1-.981,1.487h0q-.485.6-1.045,1.207h0q-.56.593-1.67,1.713h0ZM13.143.968h0A3.741,3.741,0,0,1,10.427.009h0a3.453,3.453,0,0,1-1-2.618h0V-6.736h0a3.376,3.376,0,0,1,1-2.575h0a3.741,3.741,0,0,1,2.715-.959h0a3.8,3.8,0,0,1,2.726.959h0a3.376,3.376,0,0,1,1,2.575h0v4.127h0a3.453,3.453,0,0,1-1,2.618h0a3.8,3.8,0,0,1-2.726.959Zm0-1.886h0a1.458,1.458,0,0,0,1.11-.431h0a1.581,1.581,0,0,0,.42-1.153h0V-6.8h0a1.566,1.566,0,0,0-.42-1.142h0a1.458,1.458,0,0,0-1.11-.431h0a1.444,1.444,0,0,0-1.1.431h0a1.566,1.566,0,0,0-.42,1.142h0v4.3h0a1.581,1.581,0,0,0,.42,1.153h0a1.444,1.444,0,0,0,1.1.431Zm8.1-.269h0a.047.047,0,0,0-.011.065h0q.011.032.065.032h4.235a.176.176,0,0,1,.129.054h0a.176.176,0,0,1,.054.129h0V.613h0a.176.176,0,0,1-.054.129h0A.176.176,0,0,1,25.534.8H18.5a.176.176,0,0,1-.129-.054h0a.176.176,0,0,1-.054-.129h0V-.831h0a.344.344,0,0,1,.086-.237h0q.776-.743,1.562-1.627h0q.8-.884,1-1.1h0q.442-.517.894-.991h0a4.5,4.5,0,0,0,1.422-2.338h0a1.174,1.174,0,0,0-.388-.905h0a1.509,1.509,0,0,0-1.024-.345h0a1.468,1.468,0,0,0-1.013.345h0a1.211,1.211,0,0,0-.388.937h0V-6.7h0a.176.176,0,0,1-.054.129h0a.189.189,0,0,1-.14.054H18.433a.176.176,0,0,1-.129-.054h0A.176.176,0,0,1,18.25-6.7h0v-.733h0a2.7,2.7,0,0,1,.528-1.5h0a3.1,3.1,0,0,1,1.293-.991h0a4.541,4.541,0,0,1,1.8-.345h0a4.172,4.172,0,0,1,1.929.42h0a3.06,3.06,0,0,1,1.271,1.11h0a2.9,2.9,0,0,1,.442,1.562h0a3.161,3.161,0,0,1-.323,1.347h0A7.617,7.617,0,0,1,24.2-4.344h0q-.485.6-1.045,1.207h0q-.56.593-1.67,1.713h0ZM28.6-10.1h0a.537.537,0,0,1,.237-.043h1.9a.176.176,0,0,1,.129.054h0a.176.176,0,0,1,.054.129h0V.613h0a.176.176,0,0,1-.054.129h0A.176.176,0,0,1,30.738.8H28.906a.176.176,0,0,1-.129-.054h0a.163.163,0,0,1-.065-.129h0V-7.953h0a.116.116,0,0,0-.022-.065h0a.047.047,0,0,0-.065-.011h0l-1.552.42L27.01-7.6h0q-.14,0-.14-.172h0l-.043-1.336h0a.229.229,0,0,1,.14-.226h0Z" transform="translate(34.138 92.515)" fill="#252530"/>
        </g>
      </g>
      <g id="Group_6893" data-name="Group 6893" transform="translate(1150.839 1995.624)">
        <rect id="Rectangle_3681" data-name="Rectangle 3681" width="30.59" height="28.963" rx="8" transform="translate(4.785 4.553)" fill="#fff"/>
        <path id="logo" d="M56.051,16.318a9.51,9.51,0,0,1,2.344.2l-2.344,4.493A6.458,6.458,0,0,0,55.27,33.9h.781a6.826,6.826,0,0,0,4.3-1.563l2.539,4.3a11.84,11.84,0,0,1-6.836,2.149,11.242,11.242,0,1,1-.977-22.463h.977Zm8.008,9.571,2.93,4.883L64.06,35.46l-2.735-4.688H55.661l2.93-4.883Zm-4.688-1.758a3.938,3.938,0,0,1,.586-2.149,6.739,6.739,0,0,1,1.758-1.563l.391-.2c.781-.391.977-.586.977-.977s-.586-.781-.977-.781a1.877,1.877,0,0,0-1.758,1.172l-.977-.977a5.179,5.179,0,0,1,.977-1.172,2.9,2.9,0,0,1,1.758-.391,2.727,2.727,0,0,1,1.758.586,2.411,2.411,0,0,1,.781,1.563A2.24,2.24,0,0,1,62.888,21.4l-.586.391c-.586.391-.977.586-1.172,1.172h3.516v1.367l-5.274-.2ZM56.051,48.547,74.607,38V8.7H37.3V37.8Z" transform="translate(-37.3 -8.7)" fill="#ff492c"/>
      </g>
    </g>
    <g id="Group_9176" data-name="Group 9176" transform="translate(-366.315 181.817)">
      <g id="Group_6892-2" data-name="Group 6892" transform="translate(1119.34 2017.365)">
        <g id="container-2" data-name="container" transform="translate(0)">
          <path id="Path_5814-2" data-name="Path 5814" d="M8.1,95.991l42.561,21.657L91.605,95.991V11.3H8.1Z" transform="translate(0.197 -8.499)" fill="#fff"/>
          <path id="Path_5815-2" data-name="Path 5815" d="M92.529,11.6,7.3,97.476l44.177,21.873L92.529,98.338Z" transform="translate(0.135 -8.475)" fill="#f2f3f2"/>
          <path id="Path_5816-2" data-name="Path 5816" d="M5.5,39.732V98.024l1.508.754,42.561,21.658,1.293.646,1.293-.646L93.208,98.778l1.509-.754V8.7H5.5ZM8.3,96.408V11.5H91.915V96.408L50.862,118.065Z" transform="translate(-0.005 -8.7)" fill="#dcdedc"/>
          <path id="banner-2" data-name="banner" d="M97.158,64.5H3.848L.4,72.042l3.448,7.542H97.158l3.34-7.542Z" transform="translate(-0.4 -4.376)" fill="#ff492c"/>
          <path id="Path_5817-2" data-name="Path 5817" d="M5.592-10.51h0a3.925,3.925,0,0,1,1.875.431h0A3.012,3.012,0,0,1,8.716-8.84h0a3.717,3.717,0,0,1,.442,1.832h0a3.506,3.506,0,0,1-.453,1.8h0a3.2,3.2,0,0,1-1.293,1.2h0a4.1,4.1,0,0,1-1.918.431H3.2q-.075,0-.075.086h0V.62h0a.174.174,0,0,1-.065.14h0a.189.189,0,0,1-.14.054H1.034A.189.189,0,0,1,.894.761h0A.189.189,0,0,1,.84.62h0V-10.316h0a.189.189,0,0,1,.054-.14h0a.189.189,0,0,1,.14-.054H5.592ZM5.247-5.4h0a1.639,1.639,0,0,0,1.2-.431h0A1.477,1.477,0,0,0,6.9-6.954h0a1.517,1.517,0,0,0-.453-1.153h0a1.616,1.616,0,0,0-1.2-.442H3.2q-.075,0-.075.086h0v2.974h0q0,.086.075.086H5.247ZM17.778-4.2h0a6.912,6.912,0,0,1,.065,1.368h0a.187.187,0,0,1-.2.2h-5q-.1,0-.065.075h0a3.591,3.591,0,0,0,.172.646h0A1.707,1.707,0,0,0,14.459-1h0a1.929,1.929,0,0,0,1.638-.84h0a.177.177,0,0,1,.14-.1h0a.179.179,0,0,1,.119.065h0L17.52-.726h0a.247.247,0,0,1,.075.151h0a.366.366,0,0,1-.054.129h0A3.477,3.477,0,0,1,16.162.577h0a4.561,4.561,0,0,1-1.843.366h0A4.211,4.211,0,0,1,11.97.319h0a3.593,3.593,0,0,1-1.39-1.767h0a5.6,5.6,0,0,1-.334-2.112h0a4.767,4.767,0,0,1,.237-1.573h0a3.589,3.589,0,0,1,1.3-1.821h0A3.665,3.665,0,0,1,14-7.633h0a3.6,3.6,0,0,1,2.6.937h0a4.065,4.065,0,0,1,1.185,2.5ZM14.007-5.661h0a1.291,1.291,0,0,0-1.336.948h0a4.706,4.706,0,0,0-.119.517h0q0,.075.086.075h2.791q.1,0,.075-.075h0q-.086-.463-.086-.453h0a1.457,1.457,0,0,0-.506-.754h0a1.53,1.53,0,0,0-.905-.259ZM23.392-7.6h0a1.647,1.647,0,0,1,.916.226h0a.2.2,0,0,1,.1.237h0L24.06-5.295h0q-.011.194-.226.119h0a1.64,1.64,0,0,0-.56-.086h0a2.673,2.673,0,0,0-.356.032h0a1.645,1.645,0,0,0-.991.431h0a1.328,1.328,0,0,0-.4,1.013h0V.62h0a.189.189,0,0,1-.054.14h0a.215.215,0,0,1-.14.054H19.448a.189.189,0,0,1-.14-.054h0a.189.189,0,0,1-.054-.14h0V-7.3h0a.215.215,0,0,1,.054-.14h0a.189.189,0,0,1,.14-.054h1.886a.215.215,0,0,1,.14.054h0a.215.215,0,0,1,.054.14h0v.614h0a.073.073,0,0,0,.032.065h0q.032.022.043-.022h0A2.077,2.077,0,0,1,23.392-7.6Zm6.788.1h0a.176.176,0,0,1,.129.054h0a.174.174,0,0,1,.065.14h0v1.53h0a.174.174,0,0,1-.065.14h0a.176.176,0,0,1-.129.054H28.607a.067.067,0,0,0-.075.075h0V.62h0a.174.174,0,0,1-.065.14h0a.176.176,0,0,1-.129.054h-1.9A.215.215,0,0,1,26.3.761h0a.189.189,0,0,1-.054-.14h0V-5.51h0q0-.075-.086-.075h-.948a.215.215,0,0,1-.14-.054h0a.189.189,0,0,1-.054-.14h0V-7.31h0a.189.189,0,0,1,.054-.14h0a.215.215,0,0,1,.14-.054h.948a.076.076,0,0,0,.086-.086h0v-.356h0a3.236,3.236,0,0,1,.312-1.562h0a1.706,1.706,0,0,1,.991-.787h0a5.577,5.577,0,0,1,1.9-.2h.614a.189.189,0,0,1,.14.054h0a.215.215,0,0,1,.054.14h0V-9h0a.189.189,0,0,1-.054.14h0a.174.174,0,0,1-.14.065h-.539a1.121,1.121,0,0,0-.776.226h0a1.172,1.172,0,0,0-.215.808h0v.172h0q0,.086.075.086H30.18ZM35.363.944h0A3.827,3.827,0,0,1,33.035.233h0A3.553,3.553,0,0,1,31.71-1.707h0a5.717,5.717,0,0,1-.226-1.649h0a6.033,6.033,0,0,1,.226-1.713h0a3.52,3.52,0,0,1,1.336-1.875h0a4,4,0,0,1,2.338-.679h0a3.748,3.748,0,0,1,2.252.668h0a3.6,3.6,0,0,1,1.336,1.875h0a5.516,5.516,0,0,1,.259,1.692h0A5.748,5.748,0,0,1,39-1.75h0A3.632,3.632,0,0,1,37.679.222h0a3.741,3.741,0,0,1-2.317.722Zm0-1.95h0a1.319,1.319,0,0,0,.905-.323h0a1.885,1.885,0,0,0,.539-.894h0a4.66,4.66,0,0,0,.129-1.131h0A4.313,4.313,0,0,0,36.807-4.5h0a1.844,1.844,0,0,0-.56-.862h0a1.361,1.361,0,0,0-.894-.3h0a1.367,1.367,0,0,0-.916.3h0a1.746,1.746,0,0,0-.528.862h0a3.761,3.761,0,0,0-.129,1.142h0A4.174,4.174,0,0,0,33.9-2.224h0a1.685,1.685,0,0,0,.539.894h0a1.375,1.375,0,0,0,.927.323ZM44.834-7.6h0a1.614,1.614,0,0,1,.916.226h0a.2.2,0,0,1,.1.237h0l-.334,1.843h0q-.022.194-.226.119h0a1.736,1.736,0,0,0-.571-.086h0a2.673,2.673,0,0,0-.356.032h0a1.634,1.634,0,0,0-.981.431h0a1.328,1.328,0,0,0-.4,1.013h0V.62h0a.174.174,0,0,1-.065.14h0a.176.176,0,0,1-.129.054h-1.9a.189.189,0,0,1-.14-.054h0A.189.189,0,0,1,40.7.62h0V-7.3h0a.215.215,0,0,1,.054-.14h0a.189.189,0,0,1,.14-.054h1.9a.176.176,0,0,1,.129.054h0a.2.2,0,0,1,.065.14h0v.614h0A.088.088,0,0,0,43-6.62h0q.032.022.054-.022h0A2.05,2.05,0,0,1,44.834-7.6Zm11.26-.022h0a2.579,2.579,0,0,1,1.972.754h0a3.03,3.03,0,0,1,.711,2.144h0V.62h0a.19.19,0,0,1-.054.14h0a.19.19,0,0,1-.14.054H56.7a.189.189,0,0,1-.14-.054h0A.189.189,0,0,1,56.5.62h0V-4.228h0a1.516,1.516,0,0,0-.345-1.045h0a1.133,1.133,0,0,0-.905-.388h0a1.186,1.186,0,0,0-.916.388h0a1.471,1.471,0,0,0-.356,1.034h0V.62h0a.189.189,0,0,1-.054.14h0a.215.215,0,0,1-.14.054H51.913a.19.19,0,0,1-.14-.054h0a.19.19,0,0,1-.054-.14h0V-4.228h0a1.511,1.511,0,0,0-.356-1.045h0a1.2,1.2,0,0,0-.927-.388h0a1.262,1.262,0,0,0-.862.3h0a1.325,1.325,0,0,0-.409.862h0V.62h0a.189.189,0,0,1-.054.14h0a.215.215,0,0,1-.14.054h-1.9a.176.176,0,0,1-.129-.054h0a.174.174,0,0,1-.065-.14h0V-7.3h0a.2.2,0,0,1,.065-.14h0a.176.176,0,0,1,.129-.054h1.9a.215.215,0,0,1,.14.054h0a.215.215,0,0,1,.054.14h0v.636h0A.073.073,0,0,0,49.2-6.6h0q.032.011.065-.043h0a2.29,2.29,0,0,1,2.047-.981h0a2.856,2.856,0,0,1,1.422.345h0a2.24,2.24,0,0,1,.927.97h0q.043.1.108,0h0a2.309,2.309,0,0,1,.97-.991h0a2.829,2.829,0,0,1,1.358-.323ZM67.73-4.2h0A6.911,6.911,0,0,1,67.8-2.828h0a.187.187,0,0,1-.2.2h-5q-.1,0-.065.075h0a3.12,3.12,0,0,0,.183.646h0A1.7,1.7,0,0,0,64.423-1h0a1.919,1.919,0,0,0,1.627-.84h0a.183.183,0,0,1,.151-.1h0a.176.176,0,0,1,.108.065h0L67.472-.726h0a.236.236,0,0,1,.086.151h0a.333.333,0,0,1-.065.129h0A3.477,3.477,0,0,1,66.114.577h0a4.561,4.561,0,0,1-1.843.366h0A4.211,4.211,0,0,1,61.923.319h0a3.534,3.534,0,0,1-1.379-1.767h0A5.447,5.447,0,0,1,60.2-3.56h0a4.577,4.577,0,0,1,.248-1.573h0a3.508,3.508,0,0,1,1.3-1.821h0a3.618,3.618,0,0,1,2.2-.679h0a3.6,3.6,0,0,1,2.6.937h0A4.065,4.065,0,0,1,67.73-4.2ZM63.97-5.661h0a1.3,1.3,0,0,0-1.347.948h0a3.59,3.59,0,0,0-.108.517h0a.067.067,0,0,0,.075.075h2.8q.1,0,.065-.075h0q-.086-.463-.086-.453h0a1.377,1.377,0,0,0-.506-.754h0a1.511,1.511,0,0,0-.894-.259ZM73.344-7.6h0a1.614,1.614,0,0,1,.916.226h0a.2.2,0,0,1,.1.237h0l-.334,1.843h0Q74-5.1,73.8-5.176h0a1.736,1.736,0,0,0-.571-.086h0a2.672,2.672,0,0,0-.356.032h0a1.6,1.6,0,0,0-.981.431h0a1.31,1.31,0,0,0-.409,1.013h0V.62h0a.19.19,0,0,1-.054.14h0a.189.189,0,0,1-.14.054H69.4a.19.19,0,0,1-.14-.054h0a.189.189,0,0,1-.054-.14h0V-7.3h0a.215.215,0,0,1,.054-.14h0a.19.19,0,0,1,.14-.054h1.886a.189.189,0,0,1,.14.054h0a.215.215,0,0,1,.054.14h0v.614h0a.073.073,0,0,0,.032.065h0q.032.022.054-.022h0A2.05,2.05,0,0,1,73.344-7.6Z" transform="translate(12.155 54.461)" fill="#252530"/>
          <path id="Path_5818-2" data-name="Path 5818" d="M6.933-10.271h0a.215.215,0,0,1,.054-.14h0a.176.176,0,0,1,.129-.054h1.9a.215.215,0,0,1,.14.054h0a.215.215,0,0,1,.054.14h0V.655h0a.189.189,0,0,1-.054.14h0a.215.215,0,0,1-.14.054h-1.9A.176.176,0,0,1,6.987.795h0a.189.189,0,0,1-.054-.14h0V-3.806h0q0-.075-.086-.075H3.27a.067.067,0,0,0-.075.075h0V.655h0a.189.189,0,0,1-.054.14h0A.215.215,0,0,1,3,.848H1.1A.176.176,0,0,1,.975.795h0A.174.174,0,0,1,.91.655h0V-10.271h0a.2.2,0,0,1,.065-.14h0a.176.176,0,0,1,.129-.054H3a.215.215,0,0,1,.14.054h0a.215.215,0,0,1,.054.14h0v4.342h0q0,.086.075.086H6.847a.076.076,0,0,0,.086-.086h0ZM12.148-8.4h0a1.243,1.243,0,0,1-.916-.366h0a1.207,1.207,0,0,1-.366-.905h0a1.253,1.253,0,0,1,.356-.927h0a1.253,1.253,0,0,1,.927-.356h0a1.253,1.253,0,0,1,.927.356h0a1.253,1.253,0,0,1,.356.927h0a1.207,1.207,0,0,1-.366.905h0a1.243,1.243,0,0,1-.916.366ZM11.178.848h0a.215.215,0,0,1-.14-.054h0a.189.189,0,0,1-.054-.14h0v-7.93h0a.189.189,0,0,1,.054-.14h0a.215.215,0,0,1,.14-.054h1.9a.176.176,0,0,1,.129.054h0a.174.174,0,0,1,.065.14h0V.655h0a.174.174,0,0,1-.065.14h0a.176.176,0,0,1-.129.054h-1.9Zm8.932-8.113h0a.2.2,0,0,1,.065-.14h0a.176.176,0,0,1,.129-.054h1.9a.215.215,0,0,1,.14.054h0a.215.215,0,0,1,.054.14h0V.105h0a3.515,3.515,0,0,1-1.218,3.017h0a5.1,5.1,0,0,1-3.146.916h0a10.232,10.232,0,0,1-1.261-.086h0a.178.178,0,0,1-.162-.2h0l.065-1.67h0q0-.215.226-.183h0a6.529,6.529,0,0,0,1.067.1h0a2.523,2.523,0,0,0,1.595-.442h0a1.8,1.8,0,0,0,.55-1.455h0q0-.054-.032-.065h0q-.032-.011-.065.032h0a2.33,2.33,0,0,1-1.789.657h0A3.773,3.773,0,0,1,16.3.213h0a2.822,2.822,0,0,1-1.261-1.638h0A6.494,6.494,0,0,1,14.8-3.354h0A6.007,6.007,0,0,1,15.09-5.4h0a3.163,3.163,0,0,1,1.142-1.584h0a3.065,3.065,0,0,1,1.886-.6h0a2.4,2.4,0,0,1,1.9.743h0a.061.061,0,0,0,.065.022h0a.05.05,0,0,0,.032-.054h0ZM19.982-2.05h0a5.285,5.285,0,0,0,.129-1.325h0a6.86,6.86,0,0,0-.032-.765h0a2.986,2.986,0,0,0-.108-.528h0a1.525,1.525,0,0,0-.485-.7h0a1.332,1.332,0,0,0-.84-.259h0a1.3,1.3,0,0,0-.819.259h0a1.566,1.566,0,0,0-.506.7h0a3.156,3.156,0,0,0-.226,1.315h0a3.11,3.11,0,0,0,.194,1.293h0a1.321,1.321,0,0,0,.506.7h0a1.415,1.415,0,0,0,.862.269h0a1.358,1.358,0,0,0,.862-.269h0a1.33,1.33,0,0,0,.463-.69Zm8.383-5.538h0a2.79,2.79,0,0,1,2.08.8h0a2.9,2.9,0,0,1,.787,2.144h0v5.3h0a.189.189,0,0,1-.054.14h0a.176.176,0,0,1-.129.054h-1.9a.215.215,0,0,1-.14-.054h0a.189.189,0,0,1-.054-.14h0V-4.183h0a1.508,1.508,0,0,0-.366-1.045h0a1.221,1.221,0,0,0-.959-.4h0a1.241,1.241,0,0,0-.959.4h0a1.508,1.508,0,0,0-.366,1.045h0V.655h0a.189.189,0,0,1-.054.14h0a.189.189,0,0,1-.14.054H24.227a.189.189,0,0,1-.14-.054h0a.189.189,0,0,1-.054-.14h0V-10.271h0a.215.215,0,0,1,.054-.14h0a.189.189,0,0,1,.14-.054h1.886a.189.189,0,0,1,.14.054h0a.215.215,0,0,1,.054.14h0v3.577h0a.073.073,0,0,0,.032.065h0a.03.03,0,0,0,.043-.022h0a2.277,2.277,0,0,1,1.983-.937Z" transform="translate(33.645 38.264)" fill="#252530"/>
          <path id="Path_6436" data-name="Path 6436" d="M4.544-4.854H1.976v2.7H.867V-8.531H4.921v.894H1.976v1.9H4.544ZM8.528-3.636H6.056L5.539-2.15H4.386L6.8-8.531h.995L10.207-2.15H9.05ZM6.367-4.53H8.217L7.292-7.177Zm5.671,1.494h2.9v.885H10.93V-8.531h1.109Zm4.856,0h2.9v.885H15.786V-8.531h1.109Z" transform="translate(39.791 73.439)" fill="#fff"/>
        </g>
      </g>
      <g id="Group_6893-2" data-name="Group 6893" transform="translate(1150.839 1995.624)">
        <rect id="Rectangle_3681-2" data-name="Rectangle 3681" width="30.59" height="28.963" rx="8" transform="translate(4.785 4.553)" fill="#fff"/>
        <path id="logo-2" data-name="logo" d="M56.051,16.318a9.509,9.509,0,0,1,2.344.2l-2.344,4.493A6.458,6.458,0,1,0,55.27,33.9h.781a6.826,6.826,0,0,0,4.3-1.563l2.539,4.3a11.84,11.84,0,0,1-6.836,2.149,11.242,11.242,0,1,1-.977-22.463h.977Zm8.008,9.571,2.93,4.883L64.06,35.46l-2.735-4.688H55.661l2.93-4.883Zm-4.688-1.758a3.937,3.937,0,0,1,.586-2.149,6.739,6.739,0,0,1,1.758-1.563l.391-.2c.781-.391.977-.586.977-.977s-.586-.781-.977-.781a1.877,1.877,0,0,0-1.758,1.172l-.977-.977a5.179,5.179,0,0,1,.977-1.172,2.9,2.9,0,0,1,1.758-.391,2.727,2.727,0,0,1,1.758.586,2.411,2.411,0,0,1,.781,1.563A2.24,2.24,0,0,1,62.888,21.4l-.586.391c-.586.391-.977.586-1.172,1.172h3.516v1.367l-5.274-.2ZM56.051,48.547,74.607,38V8.7H37.3V37.8Z" transform="translate(-37.3 -8.7)" fill="#ff492c"/>
      </g>
      <path id="Path_6437" data-name="Path 6437" d="M8.185-3.633H.9V-5.079l3.44-3.667A8.487,8.487,0,0,0,5.384-10.1a2.171,2.171,0,0,0,.34-1.1,1.625,1.625,0,0,0-.358-1.114,1.292,1.292,0,0,0-1.023-.405,1.393,1.393,0,0,0-1.129.493,1.953,1.953,0,0,0-.413,1.3H.684A3.487,3.487,0,0,1,1.147-12.7a3.269,3.269,0,0,1,1.311-1.26,3.985,3.985,0,0,1,1.921-.457,3.773,3.773,0,0,1,2.553.789A2.791,2.791,0,0,1,7.842-11.4,3.576,3.576,0,0,1,7.433-9.79a8.93,8.93,0,0,1-1.4,1.906L3.613-5.335H8.185Zm8.451-4.4a5.388,5.388,0,0,1-.913,3.375A3.187,3.187,0,0,1,13.05-3.487a3.209,3.209,0,0,1-2.659-1.147,5.23,5.23,0,0,1-.942-3.287V-9.878a5.317,5.317,0,0,1,.924-3.382,3.211,3.211,0,0,1,2.662-1.154,3.214,3.214,0,0,1,2.659,1.143,5.214,5.214,0,0,1,.942,3.283Zm-2.111-2.147a3.887,3.887,0,0,0-.362-1.925,1.222,1.222,0,0,0-1.129-.6,1.2,1.2,0,0,0-1.1.573,3.638,3.638,0,0,0-.376,1.793v2.586a4.081,4.081,0,0,0,.354,1.932,1.206,1.206,0,0,0,1.136.632,1.186,1.186,0,0,0,1.118-.606,3.983,3.983,0,0,0,.358-1.855ZM25.35-3.633h-7.29V-5.079L21.5-8.746A8.487,8.487,0,0,0,22.549-10.1a2.171,2.171,0,0,0,.34-1.1,1.625,1.625,0,0,0-.358-1.114,1.292,1.292,0,0,0-1.023-.405,1.393,1.393,0,0,0-1.129.493,1.953,1.953,0,0,0-.413,1.3H17.849a3.487,3.487,0,0,1,.464-1.775,3.269,3.269,0,0,1,1.311-1.26,3.985,3.985,0,0,1,1.921-.457,3.773,3.773,0,0,1,2.553.789,2.791,2.791,0,0,1,.909,2.228A3.576,3.576,0,0,1,24.6-9.79a8.93,8.93,0,0,1-1.4,1.906L20.778-5.335H25.35ZM33.8-8.03a5.388,5.388,0,0,1-.913,3.375,3.187,3.187,0,0,1-2.673,1.169,3.209,3.209,0,0,1-2.659-1.147,5.23,5.23,0,0,1-.942-3.287V-9.878a5.317,5.317,0,0,1,.924-3.382A3.211,3.211,0,0,1,30.2-14.414a3.214,3.214,0,0,1,2.659,1.143A5.214,5.214,0,0,1,33.8-9.988Zm-2.111-2.147a3.887,3.887,0,0,0-.362-1.925,1.222,1.222,0,0,0-1.129-.6,1.2,1.2,0,0,0-1.1.573,3.638,3.638,0,0,0-.376,1.793v2.586a4.081,4.081,0,0,0,.354,1.932,1.206,1.206,0,0,0,1.136.632,1.186,1.186,0,0,0,1.118-.606,3.983,3.983,0,0,0,.358-1.855Z" transform="translate(1151.698 2113.976)" fill="#252530"/>
    </g>
  </g>
</svg>
