<svg xmlns="http://www.w3.org/2000/svg" width="24" height="24" viewBox="0 0 24 24">
  <defs>
    <style>
      .cls-1 {
        fill: #223cff;
      }

      .cls-2 {
        fill: #fff;
      }
    </style>
  </defs>
  <g id="Customer_Experience_Icon" data-name="Customer Experience Icon" transform="translate(-780 -242)">
    <circle id="Ellipse_1" data-name="Ellipse 1" class="cls-1" cx="12" cy="12" r="12" transform="translate(780 242)"/>
    <g id="question" transform="translate(782.999 222.5)">
      <g id="Group_6973" data-name="Group 6973" transform="translate(0 23.5)">
        <g id="Group_6972" data-name="Group 6972" transform="translate(0 0)">
          <path id="Path_5597" data-name="Path 5597" class="cls-2" d="M.7,27.5a6.182,6.182,0,0,1,1.928-2.325A10.142,10.142,0,0,1,8.683,23.5a10.142,10.142,0,0,1,6.057,1.678A6.182,6.182,0,0,1,16.667,27.5a7.727,7.727,0,0,1,.7,3.354A6.625,6.625,0,0,1,14.19,36.9a7.46,7.46,0,0,0,.664,1.674l.644,1.059-1.22,0h-.014a5.188,5.188,0,0,1-3.586-1.559,14.2,14.2,0,0,1-2,.136,10.142,10.142,0,0,1-6.057-1.678A6.182,6.182,0,0,1,.7,34.211,8.407,8.407,0,0,1,.7,27.5ZM3.42,35.411a8.845,8.845,0,0,0,5.263,1.415,12.53,12.53,0,0,0,2.135-.174l.378-.066.25.3a3.8,3.8,0,0,0,1.683,1.16,10.456,10.456,0,0,1-.387-1.346l-.115-.532.477-.241a5.227,5.227,0,0,0,2.905-5.069A5.322,5.322,0,0,0,13.945,26.3a8.845,8.845,0,0,0-5.263-1.415A8.845,8.845,0,0,0,3.42,26.3a5.322,5.322,0,0,0-2.063,4.554A5.322,5.322,0,0,0,3.42,35.411Z" transform="translate(0 -23.5)"/>
        </g>
        <circle id="Ellipse_123" data-name="Ellipse 123" class="cls-2" cx="0.813" cy="0.813" r="0.813" transform="translate(7.801 10.572)"/>
        <path id="Path_5601" data-name="Path 5601" class="cls-2" d="M178.6,128.5a2.6,2.6,0,0,0-2.6,2.6.65.65,0,1,0,1.3,0,1.3,1.3,0,1,1,1.3,1.3.65.65,0,0,0-.65.65v1.625a.65.65,0,1,0,1.3,0v-1.058a2.6,2.6,0,0,0-.65-5.119Z" transform="translate(-169.988 -125.243)"/>
      </g>
    </g>
  </g>
</svg>
