<svg xmlns="http://www.w3.org/2000/svg" width="100" height="100" viewBox="0 0 100 100">
  <g id="Group_9160" data-name="Group 9160" transform="translate(-706.058 -3643.845)">
    <g id="Group_7875" data-name="Group 7875" transform="translate(101.376 -2.664)">
      <g id="Group_7872" data-name="Group 7872" transform="translate(120)" opacity="0.07">
        <path id="Path_5890" data-name="Path 5890" d="M270.615,389.615a50,50,0,1,0-50-50A50,50,0,0,0,270.615,389.615Z" transform="translate(264.066 3356.893)" fill="#36c5f0"/>
      </g>
    </g>
    <path id="Path_6356" data-name="Path 6356" d="M580.972,52.872a5.736,5.736,0,0,0-2.849,5.019V72.23a5.735,5.735,0,1,0,11.47,0V57.891a5.736,5.736,0,0,0-8.621-5.019ZM569.519,63.627a5.735,5.735,0,0,0,5.735-5.735V52.155h-5.735a5.735,5.735,0,0,0,0,11.47Z" transform="translate(165.029 3643.151)" fill="#e01e5a" fill-rule="evenodd"/>
    <path id="Path_6357" data-name="Path 6357" d="M578.124,38.087a5.735,5.735,0,0,0,5.735,5.735h5.735V38.087a5.735,5.735,0,1,0-11.47,0Zm11.47,14.334a5.736,5.736,0,0,0-5.735-5.735H569.521a5.736,5.736,0,1,0,0,11.472h14.339a5.736,5.736,0,0,0,5.735-5.735Z" transform="translate(165.029 3634.279)" fill="#36c5f0" fill-rule="evenodd"/>
    <path id="Path_6358" data-name="Path 6358" d="M589.306,58.181a5.736,5.736,0,0,0,5.735-5.737V38.107a5.736,5.736,0,1,0-11.47,0V52.446a5.735,5.735,0,0,0,5.735,5.737Zm12.144-11.036a5.735,5.735,0,0,0-3.541,5.3V58.18h5.735a5.735,5.735,0,1,0-2.194-11.034Z" transform="translate(173.921 3634.26)" fill="#2eb67d" fill-rule="evenodd"/>
    <path id="Path_6359" data-name="Path 6359" d="M583.57,57.872a5.736,5.736,0,0,0,5.737,5.737h14.339a5.736,5.736,0,0,0,0-11.472H589.307A5.735,5.735,0,0,0,583.57,57.872Zm11.472,14.342a5.735,5.735,0,0,0-5.735-5.735H583.57v5.735a5.736,5.736,0,0,0,11.472,0Z" transform="translate(173.92 3643.17)" fill="#ecb22e" fill-rule="evenodd"/>
  </g>
</svg>
