<svg xmlns="http://www.w3.org/2000/svg" width="100" height="100" viewBox="0 0 100 100">
  <g id="Group_7874" data-name="Group 7874" transform="translate(-604.681 -3646.508)">
    <g id="Group_7872" data-name="Group 7872" transform="translate(120)" opacity="0.076">
      <path id="Path_5890" data-name="Path 5890" d="M270.615,389.615a50,50,0,1,0-50-50A50,50,0,0,0,270.615,389.615Z" transform="translate(264.066 3356.893)" fill="#276df9"/>
    </g>
    <path id="intercom-2" d="M41.4,26.262a1.592,1.592,0,1,1-3.185,0V11.942a1.592,1.592,0,1,1,3.185,0Zm-.556,9.966c-.246.211-6.144,5.16-16.959,5.16s-16.712-4.95-16.959-5.16a1.592,1.592,0,0,1,2.069-2.421c.093.078,5.361,4.4,14.89,4.4,9.649,0,14.834-4.349,14.886-4.393a1.592,1.592,0,0,1,2.073,2.418ZM6.369,11.942a1.592,1.592,0,1,1,3.185,0v14.32a1.592,1.592,0,1,1-3.185,0V11.942ZM14.33,8.757a1.592,1.592,0,1,1,3.185,0V30.029a1.592,1.592,0,1,1-3.185,0V8.757Zm7.961-.806a1.592,1.592,0,0,1,3.185,0V31.039a1.592,1.592,0,1,1-3.185,0Zm7.961.806a1.592,1.592,0,1,1,3.185,0V30.029a1.592,1.592,0,1,1-3.185,0V8.757ZM41.8,0H5.971A5.971,5.971,0,0,0,0,5.971V41.8a5.971,5.971,0,0,0,5.971,5.971H41.8A5.971,5.971,0,0,0,47.767,41.8V5.971A5.971,5.971,0,0,0,41.8,0Z" transform="translate(630.798 3672.625)" fill="#276ef9"/>
  </g>
</svg>
