<svg xmlns="http://www.w3.org/2000/svg" width="100" height="100" viewBox="0 0 100 100">
  <g id="Group_9139" data-name="Group 9139" transform="translate(-526.013 -3761.845)">
    <g id="Group_7878" data-name="Group 7878" transform="translate(-78.669 115.336)">
      <g id="Group_7872" data-name="Group 7872" transform="translate(120)" opacity="0.103">
        <path id="Path_5890" data-name="Path 5890" d="M270.615,389.615a50,50,0,1,0-50-50A50,50,0,0,0,270.615,389.615Z" transform="translate(264.066 3356.893)" fill="#ff4a00"/>
      </g>
    </g>
    <path id="zapier" d="M37.16,29.741a17.779,17.779,0,0,1-1.142,6.276,17.824,17.824,0,0,1-6.278,1.143h-.025a17.823,17.823,0,0,1-6.276-1.142A17.781,17.781,0,0,1,22.3,29.741v-.026a17.79,17.79,0,0,1,1.14-6.275A17.766,17.766,0,0,1,29.716,22.3h.025a17.762,17.762,0,0,1,6.278,1.143,17.77,17.77,0,0,1,1.142,6.275v.026Zm21.884-4.968H41.691L53.961,12.5a29.85,29.85,0,0,0-3.212-3.8h0a29.961,29.961,0,0,0-3.8-3.209L34.682,17.767V.414A29.869,29.869,0,0,0,29.743,0h-.031a29.888,29.888,0,0,0-4.939.414V17.767L12.5,5.5A29.686,29.686,0,0,0,8.709,8.707l-.007,0A29.915,29.915,0,0,0,5.5,12.5L17.767,24.774H.414S0,28.033,0,29.718v.02a29.722,29.722,0,0,0,.414,4.944H17.767L5.5,46.954A29.94,29.94,0,0,0,12.5,53.961L24.774,41.69V59.044a30.03,30.03,0,0,0,4.933.413h.042a30,30,0,0,0,4.933-.413V41.69L46.954,53.961a29.959,29.959,0,0,0,3.8-3.21l0,0a30.017,30.017,0,0,0,3.209-3.8L41.689,34.683H59.044a29.892,29.892,0,0,0,.413-4.933v-.043a29.892,29.892,0,0,0-.413-4.933Z" transform="translate(546.284 3782.116)" fill="#ff4a00"/>
  </g>
</svg>
