<svg xmlns="http://www.w3.org/2000/svg" width="100" height="100" viewBox="0 0 100 100">
  <g id="Group_9140" data-name="Group 9140" transform="translate(-825.877 -3643.845)">
    <g id="Group_7876" data-name="Group 7876" transform="translate(221.195 -2.664)">
      <g id="Group_7872" data-name="Group 7872" transform="translate(120)" opacity="0.103">
        <path id="Path_5890" data-name="Path 5890" d="M270.615,389.615a50,50,0,1,0-50-50A50,50,0,0,0,270.615,389.615Z" transform="translate(264.066 3356.893)" fill="#ff7a59"/>
      </g>
    </g>
    <g id="Group_5937" data-name="Group 5937" transform="translate(452.38 3068.431)">
      <g id="Group_4380" data-name="Group 4380" transform="translate(397.833 599.906)">
        <g id="_--Marketing_Logos_Sprocket" data-name="--Marketing/Logos/Sprocket" transform="translate(0 0)">
          <path id="Marketing_Logos_Sprocket" data-name="Marketing/Logos/Sprocket" d="M37.287,38.357a7.124,7.124,0,1,1,7.2-7.123,7.161,7.161,0,0,1-7.2,7.123m2.155-20.838V11.182a4.873,4.873,0,0,0,2.842-4.4V6.639A4.913,4.913,0,0,0,37.36,1.766h-.147a4.913,4.913,0,0,0-4.924,4.873v.146a4.874,4.874,0,0,0,2.842,4.4v6.337a14.033,14.033,0,0,0-6.638,2.891L10.911,6.875a5.388,5.388,0,0,0,.2-1.372A5.527,5.527,0,0,0,5.561,0,5.526,5.526,0,0,0,0,5.49a5.527,5.527,0,0,0,8.283,4.767l17.3,13.315A13.741,13.741,0,0,0,25.792,39.2L20.533,44.4a4.5,4.5,0,1,0,3.26,4.306,4.412,4.412,0,0,0-.212-1.29l5.2-5.148A13.939,13.939,0,1,0,39.442,17.519" transform="translate(0 0)" fill="#ff7a59" fill-rule="evenodd"/>
        </g>
      </g>
    </g>
  </g>
</svg>
