<svg xmlns="http://www.w3.org/2000/svg" width="100" height="100" viewBox="0 0 100 100">
  <g id="Group_9161" data-name="Group 9161" transform="translate(-646.013 -3761.845)">
    <g id="Group_7879" data-name="Group 7879" transform="translate(41.331 115.336)">
      <g id="Group_7872" data-name="Group 7872" transform="translate(120)" opacity="0.103">
        <path id="Path_5890" data-name="Path 5890" d="M270.615,389.615a50,50,0,1,0-50-50A50,50,0,0,0,270.615,389.615Z" transform="translate(264.066 3356.893)" fill="#03a2e0"/>
      </g>
    </g>
    <path id="Path_6349" data-name="Path 6349" d="M401.455,37.428a11.33,11.33,0,0,1,18.124,2.379,13.794,13.794,0,0,1,5.622-1.192,13.982,13.982,0,0,1,0,27.964,13.791,13.791,0,0,1-2.738-.273,10.18,10.18,0,0,1-13.315,4.17,11.606,11.606,0,0,1-21.552-.523,10.663,10.663,0,0,1-2.21.23A10.858,10.858,0,0,1,380,49.95,12.466,12.466,0,0,1,391.5,32.52a12.516,12.516,0,0,1,9.958,4.908ZM383.962,55.855c-.034.089,0,.119.019.137l.009.01a2.56,2.56,0,0,0,.281.173l.087.049a3.94,3.94,0,0,0,1.927.449c1.323,0,2.145-.7,2.145-1.831V54.82c0-1.044-.927-1.423-1.8-1.7l-.113-.036h0c-.655-.213-1.22-.4-1.22-.825v-.024c0-.367.331-.638.844-.638a3.825,3.825,0,0,1,1.68.429s.128.083.175-.042l.269-.721a.123.123,0,0,0-.064-.149,3.749,3.749,0,0,0-1.894-.507h-.132a1.846,1.846,0,0,0-2.055,1.774V52.4c0,1.1.932,1.458,1.806,1.708l.14.044c.637.195,1.185.363,1.185.809v.022c0,.409-.356.713-.931.713a3.126,3.126,0,0,1-1.7-.489l-.129-.08c-.03-.02-.057-.038-.089-.057a.1.1,0,0,0-.174.06l-.261.722Zm19.381.137c-.02-.017-.051-.048-.019-.137l.261-.721a.113.113,0,0,1,.174-.059l.044.028c.052.033.1.066.175.109a3.137,3.137,0,0,0,1.7.488c.576,0,.932-.3.932-.713v-.022c0-.446-.549-.614-1.185-.809l-.141-.044c-.873-.249-1.806-.607-1.806-1.708v-.022a1.846,1.846,0,0,1,2.055-1.774h.133a3.759,3.759,0,0,1,1.893.506.122.122,0,0,1,.064.149c-.022.064-.243.656-.269.722-.047.125-.174.042-.174.042A3.816,3.816,0,0,0,405.5,51.6c-.513,0-.843.271-.843.638v.024c0,.43.564.612,1.22.825h0l.114.037c.869.273,1.8.653,1.8,1.7v.022c0,1.129-.821,1.831-2.144,1.831a3.942,3.942,0,0,1-1.928-.449l-.081-.046a2.857,2.857,0,0,1-.288-.176l-.009-.01Zm13.2-2.35a2.714,2.714,0,0,1-.354,1.5,1.191,1.191,0,0,1-1.075.521,1.174,1.174,0,0,1-1.07-.521,3.376,3.376,0,0,1,0-2.989,1.181,1.181,0,0,1,1.07-.517,1.2,1.2,0,0,1,1.076.517,2.692,2.692,0,0,1,.354,1.491Zm.6-2.137a2.638,2.638,0,0,1,.5.957,4.38,4.38,0,0,1,0,2.367,2.626,2.626,0,0,1-.5.957,2.371,2.371,0,0,1-.847.637,3.168,3.168,0,0,1-2.368,0,2.363,2.363,0,0,1-.846-.637,2.655,2.655,0,0,1-.5-.957,4.408,4.408,0,0,1,0-2.367,2.678,2.678,0,0,1,.5-.957,2.456,2.456,0,0,1,.848-.643,3.086,3.086,0,0,1,2.368,0,2.411,2.411,0,0,1,.847.643Zm9.571,3.99a.1.1,0,0,0-.141-.066,2.657,2.657,0,0,1-.514.145,4.013,4.013,0,0,1-.606.044,1.682,1.682,0,0,1-1.263-.472,2.1,2.1,0,0,1-.474-1.5,2.329,2.329,0,0,1,.424-1.45,1.442,1.442,0,0,1,1.224-.539,3.708,3.708,0,0,1,1.168.167s.086.038.129-.075l.093-.257.177-.5a.1.1,0,0,0-.068-.128,4.181,4.181,0,0,0-.737-.186,5.526,5.526,0,0,0-.829-.057,3.016,3.016,0,0,0-1.231.236,2.541,2.541,0,0,0-.889.644,2.729,2.729,0,0,0-.538.955,3.8,3.8,0,0,0-.179,1.185,3.161,3.161,0,0,0,.735,2.192,2.8,2.8,0,0,0,2.18.817,4.509,4.509,0,0,0,1.563-.278.1.1,0,0,0,.045-.131l-.271-.747h0Zm2.232-3.341a2.17,2.17,0,0,0-.3.879h2.665a1.843,1.843,0,0,0-.247-.879,1.165,1.165,0,0,0-1.048-.541,1.189,1.189,0,0,0-1.068.541Zm3.415.1a2.31,2.31,0,0,0-.479-.871,2.177,2.177,0,0,0-.709-.54,2.731,2.731,0,0,0-1.071-.216,2.93,2.93,0,0,0-1.233.239,2.455,2.455,0,0,0-.86.655,2.688,2.688,0,0,0-.506.966,4.171,4.171,0,0,0-.164,1.189,3.964,3.964,0,0,0,.169,1.192,2.4,2.4,0,0,0,1.481,1.567,3.736,3.736,0,0,0,1.357.219,3.914,3.914,0,0,0,1.882-.372c.04-.023.081-.063.031-.179l-.244-.682a.107.107,0,0,0-.14-.064l-.049.019-.022.009a3.568,3.568,0,0,1-1.463.248,1.528,1.528,0,0,1-1.715-1.678l3.738,0a.111.111,0,0,0,.109-.1l0-.02a3.968,3.968,0,0,0-.114-1.585Zm-33.345-.1a2.171,2.171,0,0,0-.3.879h2.665a1.843,1.843,0,0,0-.247-.879,1.165,1.165,0,0,0-1.048-.541,1.188,1.188,0,0,0-1.067.541Zm3.413.1a2.307,2.307,0,0,0-.478-.871,2.185,2.185,0,0,0-.708-.54,2.769,2.769,0,0,0-1.07-.216,2.932,2.932,0,0,0-1.234.239,2.449,2.449,0,0,0-.861.655,2.688,2.688,0,0,0-.506.966,4.211,4.211,0,0,0-.164,1.189,3.963,3.963,0,0,0,.171,1.192,2.4,2.4,0,0,0,1.481,1.567,3.728,3.728,0,0,0,1.357.219,3.922,3.922,0,0,0,1.882-.372c.04-.023.08-.063.031-.179l-.244-.682a.108.108,0,0,0-.141-.064l-.071.027a3.571,3.571,0,0,1-1.464.248,1.526,1.526,0,0,1-1.713-1.678l3.738,0a.109.109,0,0,0,.108-.1l0-.02a3.955,3.955,0,0,0-.115-1.585Zm-12.01,3a.783.783,0,0,0,.216.221h0a1.692,1.692,0,0,0,1.1.219,7.635,7.635,0,0,0,1.009-.134V53.863a7.727,7.727,0,0,0-1.013-.086,1.682,1.682,0,0,0-1.084.269.815.815,0,0,0-.333.722A.9.9,0,0,0,390.421,55.253Zm1.7-2.4c-.193-.013-.388-.019-.583-.019a3.523,3.523,0,0,0-.92.119,2.4,2.4,0,0,0-.781.361,1.734,1.734,0,0,0-.741,1.474,1.928,1.928,0,0,0,.171.85,1.529,1.529,0,0,0,.488.583,2.052,2.052,0,0,0,.762.329,4.543,4.543,0,0,0,.988.1,6.855,6.855,0,0,0,1.136-.1c.315-.055.629-.114.941-.18.125-.03.262-.068.262-.068a.115.115,0,0,0,.085-.12l0-3.409a2.082,2.082,0,0,0-.595-1.645,2.541,2.541,0,0,0-1.716-.516,6.158,6.158,0,0,0-1,.093,3.628,3.628,0,0,0-1.152.419.117.117,0,0,0-.033.149l.265.709a.094.094,0,0,0,.122.06.44.44,0,0,0,.061-.031,3.8,3.8,0,0,1,1.628-.377,1.508,1.508,0,0,1,.925.241c.2.155.307.39.307.888v.157c-.322-.046-.617-.072-.617-.072Zm30.145-2a.1.1,0,0,1,0,.079c-.036.1-.216.612-.281.783-.025.066-.064.109-.136.1a2.113,2.113,0,0,0-.411-.05,1.828,1.828,0,0,0-.5.07,1.155,1.155,0,0,0-.462.277,1.418,1.418,0,0,0-.327.549,3.237,3.237,0,0,0-.124.978v2.777a.114.114,0,0,1-.113.114h-.983a.114.114,0,0,1-.114-.114V50.856a.108.108,0,0,1,.107-.113h.958a.108.108,0,0,1,.108.114v.453a1.7,1.7,0,0,1,.632-.465,1.861,1.861,0,0,1,.963-.153,3.194,3.194,0,0,1,.626.106.1.1,0,0,1,.057.055Zm-9.217-2.5a3.26,3.26,0,0,0-.371-.087,2.816,2.816,0,0,0-.507-.038,2.143,2.143,0,0,0-1.582.565,3.074,3.074,0,0,0-.752,1.691l-.046.251h-.848a.125.125,0,0,0-.125.108l-.139.776c-.011.072.022.12.121.12h.825l-.837,4.662a5.7,5.7,0,0,1-.224.918,1.875,1.875,0,0,1-.261.531.692.692,0,0,1-.342.262,1.372,1.372,0,0,1-.439.063,1.744,1.744,0,0,1-.3-.033.85.85,0,0,1-.2-.066.1.1,0,0,0-.136.06c-.031.08-.25.683-.278.758a.112.112,0,0,0,.058.149,2.793,2.793,0,0,0,.341.1,2.305,2.305,0,0,0,.549.051,2.758,2.758,0,0,0,.917-.142,1.742,1.742,0,0,0,.69-.481,2.449,2.449,0,0,0,.485-.834,7.044,7.044,0,0,0,.329-1.251l.842-4.751h1.231a.126.126,0,0,0,.126-.109l.139-.774c.009-.074-.022-.12-.122-.12H411l0-.017,0-.019a4.93,4.93,0,0,1,.191-.8,1.1,1.1,0,0,1,.262-.4.8.8,0,0,1,.313-.193,1.308,1.308,0,0,1,.4-.057,1.548,1.548,0,0,1,.306.031,1.741,1.741,0,0,1,.192.047c.122.036.138,0,.162-.058l.285-.783a.1.1,0,0,0-.068-.13Zm-16.7.109V56.42a.108.108,0,0,1-.107.112h-.992a.108.108,0,0,1-.107-.112V48.466a.108.108,0,0,1,.107-.113h.99A.109.109,0,0,1,396.355,48.466Z" transform="translate(289.151 3756.825)" fill="#00a1e0" fill-rule="evenodd"/>
  </g>
</svg>
