<svg xmlns="http://www.w3.org/2000/svg" width="23.214" height="23.214" viewBox="0 0 23.214 23.214"><g transform="translate(-1042 -1996)"><g transform="translate(1042 1996)"><path d="M0,0H23.214V23.214H0Z" fill="none"/><path d="M10.221,4.434a.479.479,0,0,1,.484.484V6.853h5.8v5.8h1.934a.484.484,0,1,1,0,.967H16.508v5.8H14.458a4.543,4.543,0,0,0-8.473,0H3.934V17.376A4.546,4.546,0,0,0,3.944,8.9l-.01-2.051h5.8V4.918a.479.479,0,0,1,.484-.484m0-1.934A2.419,2.419,0,0,0,7.8,4.918H3.934A1.932,1.932,0,0,0,2.01,6.853v3.675h.28a2.612,2.612,0,0,1,0,5.223H2v3.675a1.94,1.94,0,0,0,1.934,1.934H7.61v-.29a2.612,2.612,0,1,1,5.223,0v.29h3.675a1.94,1.94,0,0,0,1.934-1.934V15.558a2.418,2.418,0,1,0,0-4.836V6.853a1.94,1.94,0,0,0-1.934-1.934H12.64A2.419,2.419,0,0,0,10.221,2.5Z" transform="translate(-0.066 -0.082)" fill="#4d627d"/></g><path d="M0,0H4V13l-4.959.738-3.3-8.88-.217-2.411,4.25.275Z" transform="translate(1050 2000)" fill="#4d627d"/><rect width="3" height="13" transform="translate(1061 2008) rotate(90)" fill="#4d627d"/><rect width="11" height="8" transform="translate(1059 2002) rotate(90)" fill="#4d627d"/><path d="M0,0H11l-.38,5.049L0,8Z" transform="translate(1060 2005) rotate(90)" fill="#4d627d"/><path d="M0,0,4.509,5.123V8.6l-4.163-.9Z" transform="translate(1054 2011) rotate(90)" fill="#4d627d"/></g></svg>