<svg xmlns="http://www.w3.org/2000/svg" width="50" height="50" viewBox="0 0 50 50"><g transform="translate(-1038 -3882)"><rect width="50" height="50" rx="25" transform="translate(1038 3882)" fill="#0065ff"/><g transform="translate(1054 3898)"><path d="M0,15V9A9,9,0,0,1,18,9v6" transform="translate(0 0)" fill="none" stroke="#fff" stroke-linecap="round" stroke-linejoin="round" stroke-miterlimit="10" stroke-width="2"/><path d="M16,7H15a2,2,0,0,1-2-2V2a2,2,0,0,1,2-2h3V5A2,2,0,0,1,16,7ZM3,7H2A2,2,0,0,1,0,5V0H3A2,2,0,0,1,5,2V5A2,2,0,0,1,3,7Z" transform="translate(0 11)" fill="none" stroke="#fff" stroke-linecap="round" stroke-linejoin="round" stroke-miterlimit="10" stroke-width="2"/></g></g></svg>