<svg id="Component_23_1" data-name="Component 23 – 1" xmlns="http://www.w3.org/2000/svg" width="157" height="157" viewBox="0 0 157 157">
  <circle id="Ellipse_13" data-name="Ellipse 13" cx="78.5" cy="78.5" r="78.5" fill="#ffcb7e" opacity="0.493"/>
  <g id="subject" transform="translate(28 31.5)" opacity="0.87">
    <path id="Path_4750" data-name="Path 4750" d="M93.566,31.689H64.019V8.708A8.217,8.217,0,0,0,55.812.5H8.208A8.217,8.217,0,0,0,0,8.708V36.613a8.22,8.22,0,0,0,6.566,8.043V60.071A1.642,1.642,0,0,0,9.384,61.22l15.933-16.4H37.755V67.8a8.217,8.217,0,0,0,8.208,8.208H76.457L92.39,92.41a1.642,1.642,0,0,0,2.818-1.149V75.845a8.22,8.22,0,0,0,6.566-8.043V39.9A8.217,8.217,0,0,0,93.566,31.689ZM24.623,41.538a1.64,1.64,0,0,0-1.177.492l-13.6,14V43.179a1.642,1.642,0,0,0-1.642-1.642,4.925,4.925,0,0,1-4.925-4.925V8.708A4.925,4.925,0,0,1,8.208,3.783h47.6a4.925,4.925,0,0,1,4.925,4.925V31.689H45.962a8.147,8.147,0,0,0-5.429,2.1L31.048,24.3l5.745-5.745h4.245a1.642,1.642,0,0,0,0-3.283H31.189V11.991a1.642,1.642,0,1,0-3.283,0v3.283H19.7a1.642,1.642,0,0,0,0,3.283H32.151L16.075,34.632A1.642,1.642,0,1,0,18.4,36.953l10.33-10.33,9.509,9.509a1.651,1.651,0,0,0,.349.233,8.1,8.1,0,0,0-.83,3.531v1.642ZM98.491,67.8a4.925,4.925,0,0,1-4.925,4.925,1.642,1.642,0,0,0-1.642,1.642V87.22l-13.6-14a1.64,1.64,0,0,0-1.177-.492H45.962A4.925,4.925,0,0,1,41.038,67.8V39.9a4.925,4.925,0,0,1,4.925-4.925h47.6A4.925,4.925,0,0,1,98.491,39.9Zm0,0" fill="#091d42"/>
    <path id="Path_4751" data-name="Path 4751" d="M311.984,229.053a1.607,1.607,0,0,0-1.077-2.694l-3.537-8.845a1.642,1.642,0,0,0-1.456-1.032,1.562,1.562,0,0,0-1.538.906L296.168,233.8a1.642,1.642,0,1,0,2.938,1.468l2.829-5.656h6.73l2.213,5.534a1.64,1.64,0,0,0,1.533,1.032,1.621,1.621,0,0,0,.609-.116,1.642,1.642,0,0,0,.916-2.134Zm-8.408-2.722,2.1-4.2,1.682,4.2Zm0,0" transform="translate(-235.259 -171.661)" fill="#091d42"/>
    <path id="Path_4752" data-name="Path 4752" d="M413.132,192.5H401.642a1.642,1.642,0,0,0,0,3.283h11.491a1.642,1.642,0,0,0,0-3.283Zm0,0" transform="translate(-317.924 -152.604)" fill="#091d42"/>
    <path id="Path_4753" data-name="Path 4753" d="M377.018,192.643a1.7,1.7,0,0,0-.542.345,1.718,1.718,0,0,0-.476,1.165,1.642,1.642,0,1,0,3.283,0,1.726,1.726,0,0,0-.476-1.165A1.641,1.641,0,0,0,377.018,192.643Zm0,0" transform="translate(-298.849 -152.615)" fill="#091d42"/>
    <path id="Path_4754" data-name="Path 4754" d="M217.642,35.783h11.491a1.642,1.642,0,1,0,0-3.283H217.642a1.642,1.642,0,1,0,0,3.283Zm0,0" transform="translate(-171.679 -25.434)" fill="#091d42"/>
    <path id="Path_4755" data-name="Path 4755" d="M192.475,35.3a1.624,1.624,0,0,0,1.789.345,1.91,1.91,0,0,0,.542-.345,1.624,1.624,0,0,0,.345-1.789,1.892,1.892,0,0,0-.345-.542,1.621,1.621,0,0,0-.263-.2.914.914,0,0,0-.279-.147,1,1,0,0,0-.313-.1,1.507,1.507,0,0,0-.934.1,1.7,1.7,0,0,0-.542.345,1.893,1.893,0,0,0-.345.542,1.543,1.543,0,0,0,0,1.247A1.91,1.91,0,0,0,192.475,35.3Zm0,0" transform="translate(-152.603 -25.431)" fill="#091d42"/>
  </g>
</svg>
