<svg id="Component_9_1" data-name="Component 9 – 1" xmlns="http://www.w3.org/2000/svg" xmlns:xlink="http://www.w3.org/1999/xlink" width="428.961" height="320.495" viewBox="0 0 428.961 320.495">
  <defs>
    <clipPath id="clip-path">
      <path id="Path" d="M48.774,236.054C-38.651,137.391-5.336,4.4,122.993.129s20.775,99.066,123.275,121.01,44.753,99.822,21.943,125.021S136.2,334.717,48.774,236.054Z" transform="translate(0.459 0.288)" fill="none"/>
    </clipPath>
    <linearGradient id="linear-gradient" x1="-0.81" y1="0.222" x2="1.533" y2="0.744" gradientUnits="objectBoundingBox">
      <stop offset="0" stop-color="#994574"/>
      <stop offset="1" stop-color="#43256f"/>
    </linearGradient>
    <linearGradient id="linear-gradient-2" x1="-0.543" y1="0.173" x2="1.726" y2="0.788" xlink:href="#linear-gradient"/>
    <linearGradient id="linear-gradient-3" y1="0.5" x2="1" y2="0.5" gradientUnits="objectBoundingBox">
      <stop offset="0" stop-color="#f4bea3"/>
      <stop offset="1" stop-color="#e8878e"/>
    </linearGradient>
    <linearGradient id="linear-gradient-4" y1="0.5" x2="1" y2="0.5" gradientUnits="objectBoundingBox">
      <stop offset="0" stop-color="#34b17e"/>
      <stop offset="1" stop-color="#ff57bd"/>
    </linearGradient>
    <linearGradient id="linear-gradient-5" x1="-0.034" y1="0.261" x2="0.87" y2="0.803" xlink:href="#linear-gradient-3"/>
    <linearGradient id="linear-gradient-6" y1="0.5" x2="1" y2="0.5" gradientUnits="objectBoundingBox">
      <stop offset="0" stop-color="#cb2090"/>
      <stop offset="1" stop-color="#43256f"/>
    </linearGradient>
    <linearGradient id="linear-gradient-7" x1="0.05" y1="0.011" x2="0.837" y2="0.819" xlink:href="#linear-gradient-6"/>
    <linearGradient id="linear-gradient-8" y1="0.5" x2="1" y2="0.5" gradientUnits="objectBoundingBox">
      <stop offset="0" stop-color="#1aa9e8"/>
      <stop offset="0.422" stop-color="#3d80ef"/>
      <stop offset="0.791" stop-color="#5662f4"/>
      <stop offset="1" stop-color="#5f57f6"/>
    </linearGradient>
    <linearGradient id="linear-gradient-10" y1="0.5" x2="1" y2="0.5" gradientUnits="objectBoundingBox">
      <stop offset="0" stop-color="#286efa"/>
      <stop offset="0.422" stop-color="#3d80ef"/>
      <stop offset="0.791" stop-color="#5662f4"/>
      <stop offset="1" stop-color="#5f57f6"/>
    </linearGradient>
    <linearGradient id="linear-gradient-11" y1="0.5" x2="1" y2="0.5" gradientUnits="objectBoundingBox">
      <stop offset="0" stop-color="#c7a0f6"/>
      <stop offset="1" stop-color="#ff57bd"/>
    </linearGradient>
    <linearGradient id="linear-gradient-12" y1="0.5" x2="1" y2="0.5" gradientUnits="objectBoundingBox">
      <stop offset="0" stop-color="#00e2ec"/>
      <stop offset="1" stop-color="#0090b2"/>
    </linearGradient>
    <linearGradient id="linear-gradient-13" x1="0.172" y1="0.041" x2="0.819" y2="0.863" xlink:href="#linear-gradient"/>
    <linearGradient id="linear-gradient-17" y1="0.5" x2="1" y2="0.5" gradientUnits="objectBoundingBox">
      <stop offset="0" stop-color="#fde1a7"/>
      <stop offset="1" stop-color="#f9a144"/>
    </linearGradient>
    <linearGradient id="linear-gradient-21" y1="0.5" x2="1" y2="0.5" gradientUnits="objectBoundingBox">
      <stop offset="0" stop-color="#ff57bd"/>
      <stop offset="1" stop-color="#ec9895"/>
    </linearGradient>
    <linearGradient id="linear-gradient-24" y1="0.5" x2="1" y2="0.5" gradientUnits="objectBoundingBox">
      <stop offset="0" stop-color="#c16846"/>
      <stop offset="0.265" stop-color="#d27565"/>
      <stop offset="0.531" stop-color="#de7f7b"/>
      <stop offset="0.781" stop-color="#e58589"/>
      <stop offset="1" stop-color="#e8878e"/>
    </linearGradient>
  </defs>
  <path id="Path-2" data-name="Path" d="M48.774,236.054C-38.651,137.391-5.336,4.4,122.993.129s20.775,99.066,123.275,121.01,44.753,99.822,21.943,125.021S136.2,334.717,48.774,236.054Z" transform="translate(86.374 5.069)" fill="none"/>
  <g id="Clipped" transform="translate(85.915 4.781)" clip-path="url(#clip-path)">
    <g id="Group" transform="translate(-36 -49.5)">
      <path id="Path-3" data-name="Path" d="M252.356,244.771C266.05,175.279,279.383,5.755,240.027.108S-24.739,212.536,2.234,263.067,235.825,328.658,252.356,244.771Z" transform="translate(89.096 50.169)" fill="#f4ce45"/>
      <path id="Path-4" data-name="Path" d="M.094,82.142c4.732,63.382,267.249,101.042,296.443,150.69s44.689-180.495,0-216.67S-5.619,5.631.094,82.142Z" transform="translate(32.974 0.353)" fill="#de8d8d"/>
      <path id="Path-5" data-name="Path" d="M41.276,25.344C87.512,98.706,146.8,81.229,197.2,179.535,265.291,299.486,1.651,334.1,2.121,216.855S-14.538-63.214,41.276,25.344Z" transform="translate(1.904 71.122)" fill="#ef90a4"/>
      <path id="Path-6" data-name="Path" d="M.075,80.576c3.981,81.693,77.718,126.78,121.356,123.059C258.92,191.91,264.611,39.251,243.135,15.811S-4.73-18.039.075,80.576Z" transform="translate(0 0.03)" fill="#41ce94"/>
    </g>
  </g>
  <rect id="Rectangle" width="189.783" height="229.22" rx="6.082" transform="translate(118.287 59.786)" fill="#575fcf" opacity="0.1"/>
  <rect id="Rectangle-2" data-name="Rectangle" width="189.783" height="229.22" rx="6.082" transform="translate(110.854 51.002)" fill="#fff"/>
  <rect id="Rectangle-3" data-name="Rectangle" width="189.431" height="228.869" rx="5.906" transform="translate(111.03 51.177)" fill="none" stroke="#f8f8f8" stroke-miterlimit="10" stroke-width="0.5"/>
  <rect id="Rectangle-4" data-name="Rectangle" width="189.431" height="228.869" rx="5.906" transform="translate(111.03 51.177)" fill="none"/>
  <g id="Group-2" data-name="Group" transform="translate(138.915 75.781)">
    <rect id="Rectangle-5" data-name="Rectangle" width="73.659" height="12.164" rx="6.082" transform="translate(0.322 -4.83)" fill="#e8e8e8"/>
    <rect id="Rectangle-6" data-name="Rectangle" width="46.628" height="6.758" rx="3.379" transform="translate(0.322 86.668)" fill="#e8e8e8"/>
    <rect id="Rectangle-7" data-name="Rectangle" width="46.628" height="5.406" rx="2.703" transform="translate(11.134 52.88)" fill="#e8e8e8"/>
    <rect id="Rectangle-8" data-name="Rectangle" width="33.113" height="5.406" rx="2.703" transform="translate(11.134 100.184)" fill="#e8e8e8"/>
    <rect id="Rectangle-9" data-name="Rectangle" width="60.144" height="5.406" rx="2.703" transform="translate(11.134 113.023)" fill="#e8e8e8"/>
    <rect id="Rectangle-10" data-name="Rectangle" width="60.144" height="5.406" rx="2.703" transform="translate(11.134 126.538)" fill="#e8e8e8"/>
    <rect id="Rectangle-11" data-name="Rectangle" width="60.144" height="5.406" rx="2.703" transform="translate(11.134 140.053)" fill="#e8e8e8"/>
    <rect id="Rectangle-12" data-name="Rectangle" width="46.628" height="5.406" rx="2.703" transform="translate(11.134 65.719)" fill="#e8e8e8"/>
  </g>
  <rect id="Rectangle-13" data-name="Rectangle" width="189.431" height="228.869" rx="5.906" transform="translate(111.03 50.177)" fill="none"/>
  <path id="Rectangle-14" data-name="Rectangle" d="M7.321,0h.117a7.321,7.321,0,0,1,0,14.641H7.321A7.321,7.321,0,0,1,7.321,0Z" transform="translate(137.993 238.337)" fill="#286efa"/>
  <path id="Path-7" data-name="Path" d="M3.515,3.515l.01,2.391a.371.371,0,0,1-.373.372A.378.378,0,0,1,2.776,5.9L2.767,3.512.376,3.5A.378.378,0,0,1,0,3.127a.371.371,0,0,1,.373-.373l2.391.01L2.754.373A.371.371,0,0,1,3.127,0,.378.378,0,0,1,3.5.376l.01,2.391L5.9,2.776a.378.378,0,0,1,.375.376.37.37,0,0,1-.372.372Z" transform="translate(142.236 242.26)" fill="#fff"/>
  <path id="Path-8" data-name="Path" d="M0,.527A.524.524,0,0,1,.522,0a.524.524,0,0,1,.521.527.524.524,0,0,1-.521.527A.524.524,0,0,1,0,.527Z" transform="translate(130.998 112.156)" fill="#ccc"/>
  <path id="Path-9" data-name="Path" d="M0,.527A.524.524,0,0,1,.522,0a.524.524,0,0,1,.521.527.524.524,0,0,1-.521.527A.525.525,0,0,1,0,.527Z" transform="translate(130.998 114.967)" fill="#ccc"/>
  <path id="Path-10" data-name="Path" d="M.522,0a.527.527,0,0,0,0,1.054A.524.524,0,0,0,1.043.527.524.524,0,0,0,.522,0Z" transform="translate(130.998 113.562)" fill="#ccc"/>
  <path id="Path-11" data-name="Path" d="M0,.527A.524.524,0,0,1,.521,0a.524.524,0,0,1,.521.527.524.524,0,0,1-.521.527A.524.524,0,0,1,0,.527Z" transform="translate(132.403 112.156)" fill="#ccc"/>
  <path id="Path-12" data-name="Path" d="M0,.527A.524.524,0,0,1,.521,0a.524.524,0,0,1,.521.527.524.524,0,0,1-.521.527A.524.524,0,0,1,0,.527Z" transform="translate(132.403 114.967)" fill="#ccc"/>
  <path id="Path-13" data-name="Path" d="M.521,0A.524.524,0,0,0,0,.527a.524.524,0,0,0,.521.527A.524.524,0,0,0,1.043.527.524.524,0,0,0,.521,0Z" transform="translate(132.403 113.562)" fill="#ccc"/>
  <rect id="Rectangle-15" data-name="Rectangle" width="7.379" height="7.3" rx="2.635" transform="translate(138.547 126.785)" fill="rgba(255,255,255,0.06)" stroke="#ccc" stroke-miterlimit="10" stroke-width="0.5"/>
  <path id="Path-14" data-name="Path" d="M2.635,0,1.2,1.987a.313.313,0,0,1-.457,0L0,1.21" transform="translate(140.831 129.392)" fill="none" stroke="#ccc" stroke-linecap="round" stroke-linejoin="round" stroke-miterlimit="10" stroke-width="0.703"/>
  <rect id="Rectangle-16" data-name="Rectangle" width="7.379" height="7.3" rx="2.635" transform="translate(138.547 175.089)" fill="rgba(255,255,255,0.06)" stroke="#ccc" stroke-miterlimit="10" stroke-width="0.5"/>
  <path id="Path-15" data-name="Path" d="M2.635,0,1.2,1.987a.313.313,0,0,1-.457,0L0,1.21" transform="translate(140.831 177.695)" fill="none" stroke="#ccc" stroke-linecap="round" stroke-linejoin="round" stroke-miterlimit="10" stroke-width="0.703"/>
  <rect id="Rectangle-17" data-name="Rectangle" width="7.379" height="7.3" rx="2.635" transform="translate(138.547 187.928)" fill="rgba(255,255,255,0.06)" stroke="#ccc" stroke-miterlimit="10" stroke-width="0.5"/>
  <rect id="Rectangle-18" data-name="Rectangle" width="7.379" height="7.3" rx="2.635" transform="translate(138.547 201.444)" fill="rgba(255,255,255,0.06)" stroke="#ccc" stroke-miterlimit="10" stroke-width="0.5"/>
  <rect id="Rectangle-19" data-name="Rectangle" width="7.379" height="7.3" rx="2.635" transform="translate(138.547 214.959)" fill="rgba(255,255,255,0.06)" stroke="#ccc" stroke-miterlimit="10" stroke-width="0.5"/>
  <rect id="Rectangle-20" data-name="Rectangle" width="7.379" height="7.3" rx="2.635" transform="translate(138.547 139.653)" fill="rgba(255,255,255,0.06)" stroke="#ccc" stroke-miterlimit="10" stroke-width="0.5"/>
  <path id="Path-16" data-name="Path" d="M0,3.07A3.071,3.071,0,0,1,3.071,0h34.7a3.07,3.07,0,0,1,3.07,3.07h0a3.07,3.07,0,0,1-3.07,3.07H3.071A3.071,3.071,0,0,1,0,3.07Z" transform="translate(140.426 90.464)" fill="#575fcf" opacity="0.133"/>
  <rect id="Rectangle-21" data-name="Rectangle" width="15.975" height="6.141" rx="3.071" transform="translate(140.426 90.464)" fill="#286efa"/>
  <path id="Path-17" data-name="Path" d="M1.248.725a.6.6,0,0,1-.115.256A2.312,2.312,0,0,0,.588.655,2.1,2.1,0,0,0,0,.436.639.639,0,0,1,.724.01a.592.592,0,0,1,.523.715Z" transform="translate(44.205 278.139)" fill="#fff"/>
  <path id="Path-18" data-name="Path" d="M1.261.653C.871.769.48.884.112,1a.631.631,0,0,1-.1-.478A.636.636,0,0,1,.75.01a.677.677,0,0,1,.512.643Z" transform="translate(49.114 279.188)" fill="#fff"/>
  <path id="Path-19" data-name="Path" d="M.548,1.332A.671.671,0,0,0,.781.01.671.671,0,0,0,.548,1.332Z" transform="translate(78.393 283.687)" fill="#fff"/>
  <path id="Path-20" data-name="Path" d="M1.3.449A.671.671,0,0,1,.525,1,.653.653,0,0,1,.011.222.705.705,0,0,1,.1,0L1.291.211a.7.7,0,0,1,0,.238Z" transform="translate(82.456 283.212)" fill="#fff"/>
  <path id="Path-21" data-name="Path" d="M1.32.453a.672.672,0,0,1-.772.552A.672.672,0,0,1,.011.222.7.7,0,0,1,.1,0l1.2.211A.4.4,0,0,1,1.32.453Z" transform="translate(74.898 281.88)" fill="#fff"/>
  <path id="Path-22" data-name="Path" d="M.6.284A3.52,3.52,0,0,0,0,.791C.077.617.2.331.324,0A.554.554,0,0,1,.6.284Z" transform="translate(71.876 284.216)" fill="#fff"/>
  <path id="Path-23" data-name="Path" d="M3.379,0H30.41a3.153,3.153,0,0,1,3.378,2.838V28.382l-6.758-5.677H3.379A3.153,3.153,0,0,1,0,19.868V2.838A3.153,3.153,0,0,1,3.379,0Z" transform="translate(88.306 39.657)" fill="#34b17e"/>
  <path id="Path-24" data-name="Path" d="M2.253,4.366A2.219,2.219,0,0,1,0,2.183,2.219,2.219,0,0,1,2.253,0,2.219,2.219,0,0,1,4.505,2.183,2.219,2.219,0,0,1,2.253,4.366Z" transform="translate(110.268 49.481)" fill="#fcfcf9"/>
  <path id="Path-25" data-name="Path" d="M2.253,4.366A2.219,2.219,0,0,1,0,2.183,2.219,2.219,0,0,1,2.253,0,2.219,2.219,0,0,1,4.505,2.183,2.219,2.219,0,0,1,2.253,4.366Z" transform="translate(104.073 49.481)" fill="#fcfcf9"/>
  <path id="Path-26" data-name="Path" d="M2.253,4.366A2.219,2.219,0,0,1,0,2.183,2.219,2.219,0,0,1,2.253,0,2.219,2.219,0,0,1,4.505,2.183,2.219,2.219,0,0,1,2.253,4.366Z" transform="translate(97.315 49.481)" fill="#fff"/>
  <path id="Path-27" data-name="Path" d="M4.257,0H38.316c2.341,0,4.257,1.49,4.257,3.311v29.8L34.058,26.49H4.257C1.916,26.49,0,25,0,23.179V3.311C0,1.49,1.916,0,4.257,0Z" transform="translate(271.169 37.053)" fill="#34b17e"/>
  <path id="Path-28" data-name="Path" d="M2.755,5.51A2.755,2.755,0,1,1,5.51,2.755,2.755,2.755,0,0,1,2.755,5.51Z" transform="translate(299.416 49.227)" fill="#fff"/>
  <path id="Path-29" data-name="Path" d="M2.755,5.51A2.755,2.755,0,1,1,5.51,2.755,2.755,2.755,0,0,1,2.755,5.51Z" transform="translate(291.15 49.227)" fill="#fff"/>
  <path id="Path-30" data-name="Path" d="M2.755,5.51A2.755,2.755,0,1,1,5.51,2.755,2.755,2.755,0,0,1,2.755,5.51Z" transform="translate(282.885 49.227)" fill="#fff"/>
  <path id="Path-31" data-name="Path" d="M8.662,4.331A4.331,4.331,0,1,1,4.331,0,4.331,4.331,0,0,1,8.662,4.331Z" transform="translate(117.55)" fill="#286efa"/>
  <circle id="Oval" cx="5.775" cy="5.775" r="5.775" transform="translate(417.411 102.212)" fill="#f64942"/>
  <path id="Oval-2" data-name="Oval" d="M14.437,0A14.437,14.437,0,1,1,0,14.437,14.437,14.437,0,0,1,14.437,0Z" transform="translate(324.284 291.621)" fill="#286efa"/>
  <circle id="Oval-3" data-name="Oval" cx="8.662" cy="8.662" r="8.662" transform="translate(0 160.733)" fill="#ef90a4"/>
  <text id="What_are_the_main_factors_if_you_switch_to_buy_the_footwear_of_another_brand_" data-name="What are the main factors if you 
switch to buy the footwear of another brand?" transform="translate(139.504 111.247)" fill="#707070" font-size="7" font-family="HelveticaNeue-Medium, Helvetica Neue" font-weight="500"><tspan x="0" y="0">What are the main factors if you </tspan><tspan x="0" y="9">switch to buy the footwear of another brand?</tspan></text>
  <g id="Group_9342" data-name="Group 9342" transform="translate(-612.443 -1116.157)">
    <path id="Path-32" data-name="Path" d="M0,16.571a1.058,1.058,0,0,0,1.058,1.058H24.5a1.058,1.058,0,0,0,1.058-1.058V1.058A1.058,1.058,0,0,0,24.5,0H1.058A1.058,1.058,0,0,0,0,1.058Z" transform="translate(699.988 1316.846)" fill="#523871"/>
    <path id="Path-33" data-name="Path" d="M26.212,0H1.131A1.131,1.131,0,0,0,0,1.131V17.726a1.131,1.131,0,0,0,1.131,1.131h25.08a1.131,1.131,0,0,0,1.131-1.131V1.131A1.131,1.131,0,0,0,26.212,0Z" transform="translate(699.096 1316.232)" fill="#523871"/>
    <path id="Path-34" data-name="Path" d="M23.572,15.086H0V0H23.572Z" transform="translate(700.982 1318.117)" fill="#523871"/>
    <path id="Path-35" data-name="Path" d="M8.073.812c.7,1.74,3.668,2.47,6.163,3.06,2.689.637,4.6,1,4.494,2.074C18.6,7.172,12.759,7.581,8.516,7.455S1.2,6.83.571,6.358c-.664-.5-.635-5-.478-6.006S8.073.812,8.073.812Z" transform="translate(669.843 1389.197)"/>
    <path id="Path-36" data-name="Path" d="M4.281.091a67.6,67.6,0,0,0-2.514,15.9c-.5,9.051.126,36.835.126,43.623S.258,78.474.132,86.645-.156,102.5.32,102.8c1.053.66,7.087,1.131,9.114,0,.354-.2,3.646-28.726,5.909-40.669,1.493-7.879,7.291-50.664,7.668-56.949S4.281.091,4.281.091Z" transform="translate(669.207 1287.724)" fill="url(#linear-gradient)"/>
    <path id="Path-37" data-name="Path" d="M8.586.028c.6,1.069,3.256,2.4,5.751,2.986,2.689.637,4.6,1,4.494,2.074C18.707,6.314,12.861,6.722,8.618,6.6s-7.1-.283-7.731-.754C.223,5.344-.119,1.788.038.782S8.586.028,8.586.028Z" transform="translate(699.945 1392.161)"/>
    <path id="Path-38" data-name="Path" d="M22.388,3.65c.283,3.771,2.829,49.5,3.394,57.043s3.048,42.361,2.734,43.026c-.519,1.1-8.533,2.325-9.759,1.241-.784-.694-3.316-18.338-5.327-29.9S7.019,43,4.756,34.953-1.655,13.738.7,2.047C2.871-.4,7.681-.35,12.959.633A39.167,39.167,0,0,1,22.388,3.65Z" transform="translate(681.051 1288.627)" fill="url(#linear-gradient-2)"/>
    <path id="Path-39" data-name="Path" d="M10.021,39.552c2.263-4.526,11.393-24.1,12.336-25.291s1.683-1.429,1.949-3.237c.221-1.5.1-2.538.377-3.708.377-1.6,2.652-5.883,2.074-7.134-.377-.817-1.886,1.352-2.451,2.043S22.06,5.616,21.659,5.366c-.107-1.051.031-4.587.031-4.587a15.537,15.537,0,0,0-2.271,5.28c-.566,2.263-.393,3.048-1.65,5.626S6.172,25.576.892,37.362Q.434,38.384,0,39.446a22.043,22.043,0,0,0,8.807,3.77A18.9,18.9,0,0,1,10.021,39.552Z" transform="translate(679.542 1186.369)" fill="url(#linear-gradient-3)"/>
    <path id="Path-40" data-name="Path" d="M21.416,23.185c-6.7-1.88-6.04-.862-6.771-1.189-.8-.8.19-11.711,1.8-18.226A22.04,22.04,0,0,1,7.638,0,111.618,111.618,0,0,0,.044,37.8c-.189,12.257.283,24.514.377,25.08s8.671,5.845,18.2,5.94c9.492.094,12.917-2.357,12.917-2.357s1.9-33.6,1.6-34.543S28.116,25.065,21.416,23.185Z" transform="translate(671.904 1225.815)" fill="#286efa"/>
    <path id="Path-41" data-name="Path" d="M20.044,6.7c-.292,0-.588,0-.892-.008C7.895,6.5.913,1.535.1.63A.377.377,0,1,1,.657.124C1.317.856,8.2,5.75,19.165,5.939,28.417,6.1,31.508,3.7,31.538,3.678a.377.377,0,0,1,.472.588C31.883,4.369,28.87,6.7,20.044,6.7Z" transform="translate(671.814 1285.648)" fill="#05c5da"/>
    <path id="Path-42" data-name="Path" d="M7.593,7.014a.376.376,0,0,1-.334-.2C6.08,4.567,2.05,1.433.241.729a.377.377,0,1,1,.273-.7C2.469.786,6.654,4.04,7.926,6.462a.377.377,0,0,1-.158.509A.372.372,0,0,1,7.593,7.014Z" transform="translate(691.437 1249.405)" fill="#34b17e"/>
    <path id="Path-43" data-name="Path" d="M.377,2.378a.377.377,0,0,1-.249-.661A9.975,9.975,0,0,1,9.67.805a.377.377,0,0,1-.293.7,9.318,9.318,0,0,0-8.751.785A.378.378,0,0,1,.377,2.378Z" transform="translate(675.342 1244.17)" fill="#34b17e"/>
    <path id="Path-44" data-name="Path" d="M.238,0C1.675,2.378,4.532,2.829,4.767,3.63s-1.32,2.4-1.791,2.687S.242,1.98.053,1.461A2.742,2.742,0,0,1,.238,0Z" transform="translate(696.267 1222.741)" fill="url(#linear-gradient-4)"/>
    <path id="Path-45" data-name="Path" d="M11.485,0S4.956,1.909,1.75,6.372c-1.77,2.464.427,6.8,2.75,10.2A5.421,5.421,0,0,0,3.321,18l-.3.833c-.173,1.9-2.242,8.448-3,10.4-.281.725,1.684,3.39,5.966,3.6a10.69,10.69,0,0,0,6.286-1.6l.361-8.274s.127-.518.263-1.223a9.321,9.321,0,0,0,5.63-2.729C22.87,14.543,13.913,1.956,11.485,0Z" transform="translate(681.041 1217.767)" fill="url(#linear-gradient-5)"/>
    <path id="Path-46" data-name="Path" d="M12.889,17.614c.478-.323.346-1.32-.786-2.451S9.778,13.025,10,11.831s4.119-2.447,5.95-3.8C18.955,5.8,19.93.39,18.107.045,15.606-.429,14.808,3,14.147,3c-.786,0-.384-1.833-1.51-1.7-1.633.192-2.261,2.517-3.2,3.24C8.02,5.622.507,7.933.035,13.528-.349,18.082,2.5,20.671,3.76,22.3a31.228,31.228,0,0,0,1.98,2.687,9.177,9.177,0,0,0,3.819-.8c1.7-.707,2.734-1.6,2.4-2.027s-2.8-.9-2.97-2.97c-.126-1.509.9-2.169,1.7-2.027S12.355,17.975,12.889,17.614Z" transform="translate(678.324 1211.617)" fill="url(#linear-gradient-6)"/>
    <path id="Path-47" data-name="Path" d="M.849.091c.3.009.519,2.011,1.674,2.287C3.292,2.561,5.768.845,6.884.35c.678-.3,1.886-.507,1.964-.2a13.959,13.959,0,0,0,.676,2.459c.358.856,1.179,1.642.778,3.394-.588,2.573-5.068,4.5-8.132,4.054a23.817,23.817,0,0,0-.684-3.913C.9,3.784-.021,1.631,0,1.2.032.578.346.075.849.091Z" transform="translate(691.512 1230.664)" fill="url(#linear-gradient-7)"/>
    <path id="Path-48" data-name="Path" d="M1.5,2.982a.566.566,0,0,1-.545-.414A8.713,8.713,0,0,0,.115.913a.571.571,0,0,1,.1-.792A.561.561,0,0,1,1,.209,9.413,9.413,0,0,1,2.047,2.265a.566.566,0,0,1-.394.7A.591.591,0,0,1,1.5,2.982Z" transform="translate(694.144 1223.546)" fill="#0090b2"/>
    <path id="Path-49" data-name="Path" d="M.528.431A1.057,1.057,0,0,0,.983.753a1.22,1.22,0,0,0,.594.094A1.282,1.282,0,0,0,2.523.082.151.151,0,0,1,2.8.21a2.111,2.111,0,0,1-.421.662,1.407,1.407,0,0,1-.726.4,1.677,1.677,0,0,1-.832-.05A1.543,1.543,0,0,1,.073.767l0,0A.284.284,0,1,1,.5.391.3.3,0,0,1,.528.431Z" transform="translate(698.067 1232.257)" fill="#f1d2f8"/>
    <path id="Path-50" data-name="Path" d="M5.992,6.192a10.69,10.69,0,0,0,6.286-1.6l.132-3.015a11.022,11.022,0,0,1-5.7,1.254C3.432,2.665,1.516,1.067.922,0,.566,1.094.242,2.03.026,2.588-.254,3.313,1.71,5.978,5.992,6.192Z" transform="translate(681.041 1244.41)" fill="url(#linear-gradient-8)"/>
    <path id="Path-51" data-name="Path" d="M6.932,4.373c-.19,0-.384,0-.581-.015C3.186,4.2,1.144,2.728.356,1.515A1.488,1.488,0,0,1,.051.241a.377.377,0,0,1,.7.27,1.247,1.247,0,0,0,.328.73A6.975,6.975,0,0,0,6.388,3.6a10.392,10.392,0,0,0,6.048-1.533.377.377,0,1,1,.438.614A10.887,10.887,0,0,1,6.932,4.373Z" transform="translate(680.664 1246.62)" fill="#34b17e"/>
    <path id="Path-52" data-name="Path" d="M16,39.281C14.933,36.011,13.807,14.771,11.9,0A30.941,30.941,0,0,0,0,2.561C.538,5.047,1.313,8.3,2.542,12.574c3.363,11.7,7.873,25.033,7.951,27.909.046,1.7-1.4,3.688-1.582,6.193-.123,1.68.56,4.414,1.2,4.367.817-.06.749-2.548,1.076-3.724a4.166,4.166,0,0,1,1.627-2.5s2.357.006,6.332.006C18.593,42.823,16.467,40.707,16,39.281Z" transform="translate(696.183 1271.405)" fill="url(#linear-gradient-3)"/>
    <path id="Path-53" data-name="Path" d="M11.706,1.6C7.934-2.423.706,1.789.014,7.069c-.148,1.129.88,2.452,1.634,4.4.447,1.155.728,3.148,1.512,6.77a30.941,30.941,0,0,1,11.9-2.561C14.146,8.621,13.055,3.039,11.706,1.6Z" transform="translate(693.022 1255.728)" fill="url(#linear-gradient-10)"/>
    <path id="Path-54" data-name="Path" d="M.377,3.315A.377.377,0,0,1,.215,2.6,30.741,30.741,0,0,1,12.264,0a.381.381,0,0,1,.387.367.377.377,0,0,1-.367.387A30.841,30.841,0,0,0,.54,3.279.373.373,0,0,1,.377,3.315Z" transform="translate(695.805 1271.028)" fill="#05c5da"/>
    <path id="Path-55" data-name="Path" d="M.378,7.821l-.049,0A.378.378,0,0,1,0,7.4,9.164,9.164,0,0,1,6.177.353a5.721,5.721,0,0,1,6.167,1.365.377.377,0,0,1-.55.516A5.012,5.012,0,0,0,6.409,1.072,8.376,8.376,0,0,0,.752,7.494.377.377,0,0,1,.378,7.821Z" transform="translate(692.659 1255.353)" fill="#34b17e"/>
    <path id="Path-56" data-name="Path" d="M0,2.272A6.456,6.456,0,0,0,6.042,6.454a6.44,6.44,0,0,0,4.943-2.3L6.042,0Z" transform="translate(707.139 1326.206)" fill="url(#linear-gradient-11)"/>
    <path id="Path-57" data-name="Path" d="M2.289,0,0,6.035l4.943,4.149A6.428,6.428,0,0,0,6.454,6.035,6.456,6.456,0,0,0,2.289,0Z" transform="translate(713.181 1320.171)" fill="#f4fbf9"/>
    <path id="Path-58" data-name="Path" d="M8.744.419A6.456,6.456,0,0,0,.412,8.726L6.454,6.454Z" transform="translate(706.726 1319.751)" fill="#05c5da"/>
  </g>
  <g id="Group_9343" data-name="Group 9343" transform="translate(-922.635 -1034.226)">
    <path id="Path-59" data-name="Path" d="M10.429,23.571a1.113,1.113,0,0,0,1.522.4l18.13-8.186a1.112,1.112,0,0,0,.4-1.522L22.243.551a1.112,1.112,0,0,0-1.522-.4L.552,5.742a1.112,1.112,0,0,0-.4,1.522Z" transform="translate(1212.386 1113.933)" fill="url(#linear-gradient-12)"/>
    <path id="Path-60" data-name="Path" d="M32.463,15.19,23.69.587A1.185,1.185,0,0,0,22.069.162L.587,6.116A1.185,1.185,0,0,0,.162,7.737L11.107,25.1a1.186,1.186,0,0,0,1.621.425l19.31-8.718A1.184,1.184,0,0,0,32.463,15.19Z" transform="translate(1211.391 1113.233)" fill="url(#linear-gradient-13)"/>
    <path id="Path-61" data-name="Path" d="M9.276,20.671,0,5.677,18.856,0,26.9,13.18Z" transform="translate(1214.49 1115.197)" fill="url(#linear-gradient-13)"/>
    <path id="Path-62" data-name="Path" d="M14.649,21.324C14.185,13.438,15.959,3.766,15.893.739L3,0s-.248,9.226-.132,17.211C3,26.228,4.875,52.094,4.316,56.141,3.968,58.664,1.907,60.291,0,61.493c.916.469,2.539.792,4.86-.356,2.625-1.3,5.583-2.751,7.668-2.824-.084-1.362-.169-2.637-.183-3.488C12.28,50.711,15.208,30.835,14.649,21.324Z" transform="translate(1241.474 1210.038)" fill="url(#linear-gradient-3)"/>
    <path id="Path-63" data-name="Path" d="M10.4,2.824c-2.321,1.148-3.943.826-4.86.356-.5.313-.983.6-1.426.861-1.687,1-4.39,1.4-4.1,2.442.23.823,6.6,1.2,10.02.224a30.457,30.457,0,0,0,4.376-1.942l.107,2.016s3.064.228,3.394-.134c.5-.55.329-3.792.154-6.647C15.988.073,13.03,1.525,10.4,2.824Z" transform="translate(1235.929 1268.35)" fill="#0b5fff"/>
    <path id="Path-64" data-name="Path" d="M7.109,59.629c2.742-1.357,5.846-2.88,7.939-2.823-.086-1.36-.186-2.638-.24-3.495-.164-2.632-.23-7.174.1-16.717s-1.382-16.256-1.974-21.917S12.341,3.027,12.275,0L0,1.513s.944,9.038,1.777,16.981c.787,7.5,5.562,31.559,5,35.606-.344,2.488-2.807,4.525-4.636,5.831C3.038,60.428,4.7,60.821,7.109,59.629Z" transform="translate(1264.382 1211.816)" fill="url(#linear-gradient-3)"/>
    <path id="Path-65" data-name="Path" d="M0,6.905c0,.56,6.391.776,9.807-.2a30.457,30.457,0,0,0,4.376-1.942l.107,2.016s3.283.124,3.612-.239c.5-.548.384-3.724.207-6.542-2.094-.056-5.2,1.467-7.939,2.824-2.41,1.193-4.071.8-4.965.3-.508.363-.97.672-1.321.915C2.271,5.161,0,5.819,0,6.905Z" transform="translate(1261.322 1268.62)" fill="#0b5fff"/>
    <path id="Path-66" data-name="Path" d="M35.055,0a50.624,50.624,0,0,1,6.516,15.829c1.275,6.466,1.185,10.169,1.876,15.2s4.245,16.092,4.048,16.783-1.777,1.728-4.87,1.81a21.582,21.582,0,0,0-8.161,1.251,33.5,33.5,0,0,1-14.48,1.58c-5.66-.592-10.135-2.962-12.965-3.028S.436,49.362.041,48.572s2.175-6.9,2.731-10.728A104.3,104.3,0,0,1,7.807,17.112C10.645,9.463,14.652.658,14.652.658S20.542.625,24.788.526,35.055,0,35.055,0Z" transform="translate(1237.719 1164.625)" fill="#34b17e"/>
    <path id="Path-67" data-name="Path" d="M23.613,5.071a36.572,36.572,0,0,1-3.825-.205,41.9,41.9,0,0,1-8.2-1.907A19.889,19.889,0,0,0,6.854,1.84l-.78-.017a24.284,24.284,0,0,1-5.815-.51A.395.395,0,0,1,.531.572a24.9,24.9,0,0,0,5.559.462l.782.017A20.259,20.259,0,0,1,11.821,2.2,40.675,40.675,0,0,0,19.869,4.08,32.941,32.941,0,0,0,34.183,2.519a20.446,20.446,0,0,1,7.351-1.255c.3,0,.607-.008.925-.016,2.77-.074,3.924-.9,4.212-1.15a.395.395,0,1,1,.519.6c-.433.378-1.759,1.266-4.71,1.345-.321.008-.631.012-.936.016a19.772,19.772,0,0,0-7.11,1.214A33.587,33.587,0,0,1,23.613,5.071Z" transform="translate(1237.874 1209.646)" fill="#f4fbf9"/>
    <path id="Path-68" data-name="Path" d="M24.122,4.7a47.546,47.546,0,0,1-4.954-.272,45.1,45.1,0,0,1-8.756-2.033A26.854,26.854,0,0,0,5.679,1.2a14.994,14.994,0,0,0-2.845.058,6.131,6.131,0,0,1-2.575-.1A.395.395,0,0,1,.531.418,5.681,5.681,0,0,0,2.764.471,15.589,15.589,0,0,1,5.755.414a27.186,27.186,0,0,1,4.89,1.222,44.453,44.453,0,0,0,8.606,2A33.848,33.848,0,0,0,33.588,2.5c3.6-1.2,4.6-1.168,6.118-1.122.256.008.528.016.832.019,2.881.027,4.079-.731,4.732-1.3a.395.395,0,0,1,.519.6c-.739.645-2.071,1.5-5.114,1.5h-.145c-.31,0-.588-.011-.849-.019C38.2,2.123,37.3,2.1,33.837,3.251A30.464,30.464,0,0,1,24.122,4.7Z" transform="translate(1238.624 1207.389)" fill="#f4fbf9"/>
    <path id="Path-69" data-name="Path" d="M.015,3.684C.186,3.461,4.987.133,5.343,0c.5-.183,8.283,9.98,9.369,11.115s-1.435,6.8-3.509,7.2S-.434,4.273.015,3.684Z" transform="translate(1244.932 1130.389)" fill="url(#linear-gradient-17)"/>
    <path id="Path-70" data-name="Path" d="M1.84,4.714a2.692,2.692,0,0,1-1.7-.546.395.395,0,1,1,.517-.6c.045.038,1.2.961,3.216-.349A3.857,3.857,0,0,0,5.516.38.395.395,0,0,1,6.3.408,4.589,4.589,0,0,1,4.3,3.885,4.521,4.521,0,0,1,1.84,4.714Z" transform="translate(1244.552 1130.204)" fill="#286efa"/>
    <path id="Path-71" data-name="Path" d="M20.929.054c1.053,2.172,5,9.74,4.739,15.6s-1.843,11.913-2.041,16.454-.066,7.5-.066,7.5a21.07,21.07,0,0,1-10.925,2.5c-6.382-.191-9.477-1.843-9.477-1.843a105.394,105.394,0,0,0-.987-11.715C1.546,24.834.016,22.662,0,18.483-.022,13.135,8.21,6.225,10.662,2.49,12.678-.581,20.929.054,20.929.054Z" transform="translate(1249.212 1125.015)" fill="url(#linear-gradient-17)"/>
    <path id="Path-72" data-name="Path" d="M10.57,3.3c-.234,0-.47,0-.71-.01C3.46,3.1.338,1.471.209,1.4A.395.395,0,0,1,.581.7c.03.016,3.11,1.611,9.3,1.8A20.827,20.827,0,0,0,20.59.059a.395.395,0,0,1,.417.671A21.083,21.083,0,0,1,10.57,3.3Z" transform="translate(1251.977 1164.23)" fill="#286efa"/>
    <path id="Path-73" data-name="Path" d="M1.687,1.8A45.223,45.223,0,0,0,7.956.567c4.46-.987,8.842-.928,9.971,2.172.971,2.666-.644,4.879-.378,6.746.362,2.534,7.931,4.673,8.078,9.741.142,4.859-3.85,6.614-4.936,8.737S17.443,36.527,9.93,36.009c-4.294-.3-5.478-2.83-5.479-4.591,0-2.26,2.172-4,1.135-5.627S1.227,25.241.5,23.323c-.789-2.09.987-3.8,2.32-4.837s3.307-2.123,2.863-3.653-3.159-1.916-3.06-3.455C2.74,9.583,6.034,8.252,5.488,6.441,5.077,5.075,2.723,5.355.7,4.96S1.687,1.8,1.687,1.8Z" transform="translate(1274.741 1101.599)" fill="#286efa"/>
    <path id="Path-74" data-name="Path" d="M9.28,1.946c-.255,2.287.987,8.951.987,8.951A12.431,12.431,0,0,1,2.632,14.32C.4,14.425,0,13.333,0,13.333L.922,4.184A8.8,8.8,0,0,1,5.134.5C7.957-.584,9.017.433,9.017.433Z" transform="translate(1259.875 1114.172)" fill="url(#linear-gradient-3)"/>
    <path id="Path-75" data-name="Path" d="M14.914,1.637A18.531,18.531,0,0,0,7.908,0C4.778,1.7-3.543,17.267,1.685,21.053c3.227,2.337,8.763-.047,12.442-3.224a2.381,2.381,0,0,0,.714.109,2.283,2.283,0,0,0,2.32-2.246,2.181,2.181,0,0,0-.238-.986,6.671,6.671,0,0,0,.754-1.552C18.585,10.244,18.929,3.349,14.914,1.637Z" transform="translate(1252.99 1097.896)" fill="url(#linear-gradient-3)"/>
    <path id="Path-76" data-name="Path" d="M.593,2.986a.586.586,0,0,1-.178-.028.593.593,0,0,1-.387-.743A6.622,6.622,0,0,1,1.295.163a.592.592,0,0,1,.817.859,5.764,5.764,0,0,0-.954,1.551A.592.592,0,0,1,.593,2.986Z" transform="translate(1261.076 1105.967)" fill="#0090b2"/>
    <path id="Path-77" data-name="Path" d="M.494,2.588a.487.487,0,0,1-.148-.023.494.494,0,0,1-.322-.619A5.316,5.316,0,0,1,1.143.136a.494.494,0,0,1,.68.716A4.473,4.473,0,0,0,.965,2.243.494.494,0,0,1,.494,2.588Z" transform="translate(1255.572 1103.239)" fill="#0090b2"/>
    <path id="Path-78" data-name="Path" d="M2.53,7.614a2.4,2.4,0,0,1-1.144-.281A2.7,2.7,0,0,1,.041,5.248,4.719,4.719,0,0,1,.6,2.38,4.139,4.139,0,0,1,4.012,0,2.4,2.4,0,0,1,5.156.281c1.472.787,1.824,3.009.785,4.954A4.141,4.141,0,0,1,2.53,7.614Z" transform="translate(1259.17 1103.674)" fill="#9f36ad"/>
    <path id="Path-79" data-name="Path" d="M3.42,0A3.6,3.6,0,0,0,.532,2.066a4.127,4.127,0,0,0-.5,2.5A2.129,2.129,0,0,0,1.074,6.218a1.813,1.813,0,0,0,.865.211A3.6,3.6,0,0,0,4.827,4.362C5.712,2.706,5.469.843,4.285.21A1.818,1.818,0,0,0,3.42,0Z" transform="translate(1259.762 1104.266)" fill="#9f36ad"/>
    <path id="Path-80" data-name="Path" d="M1.831,6.788a1.706,1.706,0,0,1-.812-.2c-1.183-.633-1.36-2.533-.4-4.325A3.861,3.861,0,0,1,3.624,0a1.7,1.7,0,0,1,.812.2,2.091,2.091,0,0,1,1,1.8,4.758,4.758,0,0,1-.6,2.526A3.86,3.86,0,0,1,1.831,6.788Z" transform="translate(1253.247 1100.773)" fill="#9f36ad"/>
    <path id="Path-81" data-name="Path" d="M3.022,0A3.331,3.331,0,0,0,.537,1.953C-.238,3.4-.165,5.016.7,5.476a1.121,1.121,0,0,0,.533.128A3.327,3.327,0,0,0,3.714,3.651a4.169,4.169,0,0,0,.534-2.2A1.528,1.528,0,0,0,3.555.128,1.124,1.124,0,0,0,3.022,0Z" transform="translate(1253.85 1101.365)" fill="#9f36ad"/>
    <path id="Path-82" data-name="Path" d="M6,.143C4.442,1.435.125,3.566.008,4.322-.149,5.334,2.164,5.9,2.691,5.9S3.6,4.47,5.01,2.512C5.8,1.409,6.824-.544,6,.143Z" transform="translate(1252.661 1104.458)" fill="url(#linear-gradient-21)"/>
    <path id="Path-83" data-name="Path" d="M2.459,1.921a.3.3,0,0,1-.275-.186C1.777.72,1.257.416.384.688A.3.3,0,0,1,.208.122c1.178-.366,2,.09,2.526,1.393a.3.3,0,0,1-.165.385A.3.3,0,0,1,2.459,1.921Z" transform="translate(1257.771 1104.232)" fill="#9f36ad"/>
    <path id="Path-84" data-name="Path" d="M.4.16A1.736,1.736,0,0,0,.763.829a1.707,1.707,0,0,0,.6.462,1.677,1.677,0,0,0,1.446-.1.3.3,0,1,1,.263.531l-.019.009a2.677,2.677,0,0,1-.941.22,1.927,1.927,0,0,1-.967-.212A2.19,2.19,0,0,1,.41,1.11,2.13,2.13,0,0,1,0,.24.2.2,0,0,1,.4.155Z" transform="translate(1252.988 1112.428)" fill="#954374"/>
    <path id="Path-85" data-name="Path" d="M2.736,4.219C.514,4.219.044,3.02.025,2.967a.395.395,0,1,1,.74-.274c.011.024.378.817,2.244.73a12.088,12.088,0,0,0,7.369-3.3.395.395,0,1,1,.568.549,12.713,12.713,0,0,1-7.9,3.543Q2.886,4.219,2.736,4.219Z" transform="translate(1259.48 1124.675)" fill="#286efa"/>
    <path id="Path-86" data-name="Path" d="M10.45,20.549c-.419.1-1.019-.081-.975-.937.082-1.612,2.849-4.085,2.781-6.368-.083-2.773-5.291-3.39-8.87-4.788A5.438,5.438,0,0,1,.548,1.044,2.4,2.4,0,0,1,4.275.756c.79.79,1.152,1.667,1.843,1.646.8-.025.5-1.58,1.711-1.58,1.225,0,2.285,2.259,3.127,3.192,1.439,1.6,8.994,4.087,9.378,9.51.528,7.437-6.877,13.229-7.7,13.229a1.092,1.092,0,0,1-.729-1.946,2.25,2.25,0,0,0-1.455-4.258Z" transform="translate(1256.751 1090.879)" fill="#286efa"/>
    <path id="Path-87" data-name="Path" d="M3.979,3.3A2.28,2.28,0,0,1,5.362,4.738a.291.291,0,0,0,.047-.249C4.935,2.792,2.461,1.284,1.133.474.852.3.61.155.467.054A.3.3,0,1,0,.126.538c.159.113.4.257.7.441A16.25,16.25,0,0,1,3.979,3.3Z" transform="translate(1264.69 1108.195)" fill="#9f36ad"/>
    <path id="Path-88" data-name="Path" d="M4.609.007c.8-.156,1.7,2.454,2.1,3.935S7.39,7.929,8.839,9.585c1.324,1.514,5.562,2.9,5.562,2.9s.46,2.468-.659,3.85a3.635,3.635,0,0,1-2.77,1.312A86.8,86.8,0,0,0,4.067,11.4a8.8,8.8,0,0,1-3.6-4.689A9.6,9.6,0,0,1,.053,2.9,13.742,13.742,0,0,1,.486.868S3.515,5.675,4.3,6.92c.823-.165.428-2.435.329-3.357S3.8.165,4.609.007Z" transform="translate(1217.469 1130.26)" fill="url(#linear-gradient-3)"/>
    <path id="Path-89" data-name="Path" d="M36.863.129c3.455-.6,5.483.957,6.564,3.3,1.185,2.567.938,5.743-.9,7.585S28.814,26.959,22.564,26.78c-6.976-.2-22.4-9.005-22.558-9.908s2.723-5.9,3.127-5.75,16.353,6.171,18.724,5.533S34.462.545,36.863.129Z" transform="translate(1228.014 1131.364)" fill="url(#linear-gradient-17)"/>
    <path id="Path-90" data-name="Path" d="M1.44.329c-.6.2-1.613.74-1.415,1.728A6.82,6.82,0,0,0,2.594,5.04c.592.263.2-1.306-.33-2s.943.881,1.415.724c.346-.115.461-.773.083-1.81C3.423,1.035,4.929.181,4.27.049A7.143,7.143,0,0,0,1.44.329Z" transform="translate(1234.247 1122.322)" fill="url(#linear-gradient-24)"/>
    <path id="Path-91" data-name="Path" d="M.073,1.022c.7-.7,4.18-.3,4.64-.165S6.325.035,7.016,0a10.169,10.169,0,0,1,4.048,1.053c1.377.775,8.26,8.359,8.26,8.359A4.4,4.4,0,0,1,17.5,12.573c-1.732,1.187-2.844.644-2.844.644s-2.438-4.445-3.277-4.988-2.912.37-4.619-.048c-1.61-.395-3.846-2.469-3.229-3.012.656-.577,2.223.754,2.929.987,1.044.346,3-.069,3.043-.864.049-.963-3.07-1.856-5.43-2.567C2.4,2.222-.495,1.59.073,1.022Z" transform="translate(1231.139 1121.184)" fill="url(#linear-gradient-3)"/>
  </g>
  <path id="Path-92" data-name="Path" d="M14.761,1.385,1.106,6.773,0,5.187,13.86,0Z" transform="translate(298.106 87.658)" fill="#fde1a7"/>
  <ellipse id="Oval-4" data-name="Oval" cx="1.518" cy="1.518" rx="1.518" ry="1.518" transform="translate(302.025 86.184)" fill="#34b17e"/>
  <ellipse id="Oval-5" data-name="Oval" cx="1.518" cy="1.518" rx="1.518" ry="1.518" transform="translate(296.855 88.171)" fill="#fe687e"/>
  <ellipse id="Oval-6" data-name="Oval" cx="1.366" cy="1.366" rx="1.366" ry="1.366" transform="translate(307.031 84.563)" fill="#286efa"/>
</svg>
