<svg xmlns="http://www.w3.org/2000/svg" width="97" height="105.462" viewBox="0 0 97 105.462">
  <g id="innovation" transform="translate(0.001 0.001)">
    <path id="Path_7095" data-name="Path 7095" d="M60.179,35.153l2.455,2.455a1.673,1.673,0,0,1,0,2.352l-1.983,1.983a13.158,13.158,0,0,1,1.227,3.27h2.566a1.667,1.667,0,0,1,1.665,1.665v3.476a1.667,1.667,0,0,1-1.665,1.665h-2.8A13.2,13.2,0,0,1,60.2,55.2l1.811,1.811a1.673,1.673,0,0,1,0,2.352l-2.455,2.455a1.673,1.673,0,0,1-2.352,0l-1.974-1.974a13.093,13.093,0,0,1-3.278,1.227v2.566A1.667,1.667,0,0,1,50.284,65.3H46.808a1.667,1.667,0,0,1-1.665-1.665v-2.8a13.2,13.2,0,0,1-3.184-1.45l-1.794,1.8a1.673,1.673,0,0,1-2.352,0l-2.455-2.455a1.673,1.673,0,0,1,0-2.352l1.974-1.974a13.158,13.158,0,0,1-1.227-3.27H33.54a1.672,1.672,0,0,1-1.665-1.665V46a1.667,1.667,0,0,1,1.665-1.665h2.8a13.2,13.2,0,0,1,1.45-3.184l-1.811-1.811a1.673,1.673,0,0,1,0-2.352l2.455-2.455a1.673,1.673,0,0,1,2.352,0l1.983,1.983a13.158,13.158,0,0,1,3.27-1.227V32.724A1.667,1.667,0,0,1,47.7,31.059h3.476a1.667,1.667,0,0,1,1.665,1.665v2.8a13.2,13.2,0,0,1,3.184,1.45l1.811-1.811a1.64,1.64,0,0,1,2.343-.009ZM37.874,87.6a1.949,1.949,0,0,1-.412-3.862c-1.116-6.325-4.162-9.81-7.381-13.491a41.874,41.874,0,0,1-7.158-10.23A30.9,30.9,0,0,1,19.834,46.6,31.5,31.5,0,0,1,23.61,32.261c.017-.034.034-.06.051-.094h0a27.222,27.222,0,0,1,13.277-11.6,29.4,29.4,0,0,1,13.818-1.974,31.826,31.826,0,0,1,13.191,4.24A27.224,27.224,0,0,1,75.464,35.883a28.916,28.916,0,0,1,2.18,10.144A29.337,29.337,0,0,1,75.4,57.939c-2.283,5.656-5.3,9.166-8.127,12.453-2.6,3.03-5.021,5.845-6.368,10.161a1.949,1.949,0,0,1-.18,3.828l-.652.094q-.18,1.4-.232,3.012l.215-.034a1.949,1.949,0,1,1,.532,3.862l-.669.094.026.386h0a15.5,15.5,0,0,1,.026,2.18l.112-.017a1.954,1.954,0,1,1,.481,3.879l-1.442.18a11.681,11.681,0,0,1-5.038,5.956,10.963,10.963,0,0,1-4.815,1.468,9.985,9.985,0,0,1-4.961-.97,10.463,10.463,0,0,1-4.54-4.411,1.96,1.96,0,0,1-1.056-1.5,1.888,1.888,0,0,1,.06-.764,17.8,17.8,0,0,1-.747-3.287l-.06.009a1.949,1.949,0,0,1-.532-3.862l.463-.069q.039-1.571-.026-2.987Zm-36-37.084a1.816,1.816,0,1,1-.112-3.63l7.467-.257a1.816,1.816,0,1,1,.112,3.63l-7.467.257ZM95,43.126a1.816,1.816,0,1,1,.369,3.613l-7.432.781a1.816,1.816,0,1,1-.369-3.613L95,43.126ZM81.463,12.685A1.813,1.813,0,0,1,84.476,14.7l-4.154,6.214A1.813,1.813,0,0,1,77.31,18.9l4.154-6.214Zm-32-10.917a1.811,1.811,0,0,1,3.622.086L52.893,9.32a1.811,1.811,0,0,1-3.622-.086l.189-7.467ZM11.912,13.328a1.816,1.816,0,0,1,2.472-2.661l5.467,5.1a1.816,1.816,0,0,1-2.472,2.661l-5.467-5.1Zm29.18,69.886,15.869-2.257c1.365-5.75,4.334-9.209,7.552-12.942,2.643-3.072,5.458-6.351,7.518-11.449A25.836,25.836,0,0,0,74.014,46.1a25.12,25.12,0,0,0-1.922-8.874,23.593,23.593,0,0,0-10-11.286,27.941,27.941,0,0,0-11.663-3.75A25.856,25.856,0,0,0,38.3,23.927,23.623,23.623,0,0,0,26.811,33.986a27.893,27.893,0,0,0-3.347,12.642A27.218,27.218,0,0,0,26.21,58.471a39.037,39.037,0,0,0,6.6,9.372c3.639,4.171,7.08,8.11,8.282,15.371Zm15.225,1.777L41.5,87.093c.043.944.06,1.931.043,2.978l14.633-2.077c.017-1.056.06-2.06.146-3ZM41.616,94a14.139,14.139,0,0,0,.455,2.18l14.2-1.751a11.213,11.213,0,0,0,.043-2.352h0v-.017l-.009-.146L41.616,94Zm2.472,5.87a6.238,6.238,0,0,0,1.8,1.33,6.38,6.38,0,0,0,3.15.618,7.292,7.292,0,0,0,3.21-.987,7.869,7.869,0,0,0,2.472-2.274L44.087,99.873ZM49,41.341a6.832,6.832,0,1,1-6.832,6.832A6.833,6.833,0,0,1,49,41.341Z" transform="translate(0 0)" fill="#f5b100" fill-rule="evenodd"/>
  </g>
</svg>
