<svg id="Component_39_1" data-name="Component 39 – 1" xmlns="http://www.w3.org/2000/svg" width="231.894" height="231.894" viewBox="0 0 231.894 231.894">
  <g id="Component_38_1" data-name="Component 38 – 1">
    <g id="Component_37_1" data-name="Component 37 – 1">
      <path id="Path_7031" data-name="Path 7031" d="M643.436,232.494A115.947,115.947,0,1,0,527.489,116.547,115.947,115.947,0,0,0,643.436,232.494Z" transform="translate(-527.489 -0.6)" fill="#52bd95" opacity="0.08"/>
    </g>
    <g id="Component_36_1" data-name="Component 36 – 1" transform="translate(45 45)">
      <path id="Path_7047" data-name="Path 7047" d="M598.039,141.7a70.55,70.55,0,1,0-70.55-70.55A70.55,70.55,0,0,0,598.039,141.7Z" transform="translate(-527.489 -0.6)" fill="#0052cc" opacity="0.08"/>
    </g>
  </g>
  <g id="Component_35_1" data-name="Component 35 – 1" transform="translate(72 72)">
    <path id="Path_7045" data-name="Path 7045" d="M571.931,89.484a44.442,44.442,0,1,0-44.442-44.442A44.442,44.442,0,0,0,571.931,89.484Z" transform="translate(-527.489 -0.6)" fill="#0052cc" opacity="0.08"/>
    <path id="Path_7048" data-name="Path 7048" d="M549.965,45.551a22.476,22.476,0,1,0-22.476-22.476A22.476,22.476,0,0,0,549.965,45.551Z" transform="translate(-505.489 21.4)" fill="#0052cc" opacity="0.08"/>
  </g>
</svg>
