<svg xmlns="http://www.w3.org/2000/svg" width="69.071" height="69.072" viewBox="0 0 69.071 69.072">
  <g id="analytics-24px" transform="matrix(0.875, -0.485, 0.485, 0.875, 0, 24.633)">
    <path id="Path_6641" data-name="Path 6641" d="M0,0H50.809V50.809H0Z" fill="none"/>
    <path id="Path_6642" data-name="Path 6642" d="M36.873,3H7.234A4.247,4.247,0,0,0,3,7.234V36.873a4.247,4.247,0,0,0,4.234,4.234H36.873a4.247,4.247,0,0,0,4.234-4.234V7.234A4.247,4.247,0,0,0,36.873,3ZM15.7,32.639H11.468V22.053H15.7Zm8.468,0H19.936V26.287H24.17Zm0-10.585H19.936V17.819H24.17Zm8.468,10.585H28.4V11.468h4.234Z" transform="translate(3.351 3.351)" fill="#becccb"/>
  </g>
</svg>
