<svg xmlns="http://www.w3.org/2000/svg" width="48" height="38" viewBox="0 0 48 38"><defs><style>.a{fill:#0065ff;}</style></defs><g transform="translate(0 -39.159)"><path class="a" d="M10.734,54.227c-.6-3.751-5.3-7.757-8.977-7.843a.972.972,0,0,1-.684-.256A.7.7,0,0,1,.646,45.7c-1.282-2.387-.6-4.262,1.539-5.8,2.479-1.79,6.412,0,8.378,1.62,4.958,4.092,10,11.167,9.746,17.9a28.113,28.113,0,0,1-.6,13.384c-.855,2.557-3.334,3.836-5.9,4.007s-7.865.938-10.173-.6S1.159,71.7.9,69.145c-.256-2.813-1.026-8.1,1.368-10.315C4.665,56.7,11.5,59,10.734,54.227Z" transform="translate(27.163)"/><path class="a" d="M212.694,54.227c-.6-3.751-5.3-7.757-8.977-7.843a.972.972,0,0,1-.684-.256.7.7,0,0,1-.428-.426c-1.282-2.387-.6-4.262,1.539-5.8,2.479-1.79,6.412,0,8.378,1.62,4.958,4.092,10,11.167,9.746,17.9a28.115,28.115,0,0,1-.6,13.384c-.855,2.557-3.334,3.836-5.9,4.007s-7.865.938-10.173-.6-2.479-4.518-2.736-7.075c-.256-2.813-1.026-8.1,1.368-10.315C206.625,56.7,213.549,59,212.694,54.227Z" transform="translate(-201.96)"/></g></svg>