<svg id="growth_1_" data-name="growth (1)" xmlns="http://www.w3.org/2000/svg" width="24" height="24" viewBox="0 0 24 24">
  <path id="Path_4737" data-name="Path 4737" d="M24,12A12,12,0,1,1,12,0,12,12,0,0,1,24,12Zm0,0" fill="#223cff"/>
  <g id="Group_6743" data-name="Group 6743" transform="translate(5.351 6.562)">
    <path id="Path_4738" data-name="Path 4738" d="M89.01,107.042a.522.522,0,0,0,.522-.522V104.1a1.973,1.973,0,0,0-1.971-1.971h-8.5a1.973,1.973,0,0,0-1.971,1.971v4.832a1.973,1.973,0,0,0,1.971,1.971h3.73v.886H81.135a.522.522,0,0,0,0,1.043h4.349a.522.522,0,0,0,0-1.043H83.831v-.886h3.73a1.973,1.973,0,0,0,1.971-1.971.522.522,0,1,0-1.043,0,.929.929,0,0,1-.928.928h-8.5a.929.929,0,0,1-.928-.928V104.1a.929.929,0,0,1,.928-.928h8.5a.929.929,0,0,1,.928.928v2.416A.522.522,0,0,0,89.01,107.042Zm0,0" transform="translate(-77.086 -102.133)" fill="#fff"/>
    <path id="Path_4739" data-name="Path 4739" d="M139.343,161.826a.522.522,0,0,0,.522-.522v-1.667a1.248,1.248,0,0,0-1.246-1.246h-1.691a.522.522,0,1,0,0,1.043h1.2l-1.8,1.8a.2.2,0,0,1-.287,0l-.907-.907a1.237,1.237,0,0,0-.881-.365h-.015a1.236,1.236,0,0,0-.887.386l-1.952,2.048a.522.522,0,0,0,.755.72l1.952-2.048a.2.2,0,0,1,.29,0l.907.907a1.246,1.246,0,0,0,1.763,0l1.75-1.749V161.3A.522.522,0,0,0,139.343,161.826Zm0,0" transform="translate(-129.376 -156.434)" fill="#fff"/>
  </g>
</svg>
