<svg xmlns="http://www.w3.org/2000/svg" xmlns:xlink="http://www.w3.org/1999/xlink" width="94" height="94" viewBox="0 0 94 94">
  <defs>
    <filter id="Ellipse_186" x="0" y="0" width="94" height="94" filterUnits="userSpaceOnUse">
      <feOffset dy="3" input="SourceAlpha"/>
      <feGaussianBlur stdDeviation="3" result="blur"/>
      <feFlood flood-color="#9f9f9f" flood-opacity="0.161"/>
      <feComposite operator="in" in2="blur"/>
      <feComposite in="SourceGraphic"/>
    </filter>
  </defs>
  <g id="review" transform="translate(9 6)">
    <g id="Group_7068" data-name="Group 7068" transform="translate(-523 -998)">
      <g id="Group_7064" data-name="Group 7064" transform="translate(317 -3)">
        <g transform="matrix(1, 0, 0, 1, 197, 995)" filter="url(#Ellipse_186)">
          <circle id="Ellipse_186-2" data-name="Ellipse 186" cx="38" cy="38" r="38" transform="translate(9 6)" fill="#cbf3f9"/>
        </g>
      </g>
    </g>
    <g id="testimonial" transform="translate(14 13.995)">
      <g id="Group_7045" data-name="Group 7045" transform="translate(5.104 0.005)">
        <g id="Group_7044" data-name="Group 7044" transform="translate(0 0)">
          <path id="Path_8353" data-name="Path 8353" d="M60.6,6.776h-1.72C59.142,4.86,60.2,4.764,60.688,4.72a.945.945,0,0,0,.86-.941V.95a.945.945,0,0,0-1-.944C57.562.174,54,1.683,54,7.915v4.919a1.491,1.491,0,0,0,1.489,1.489H60.6a1.491,1.491,0,0,0,1.489-1.489V8.265A1.491,1.491,0,0,0,60.6,6.776Zm-.4,5.657H55.89V7.915c0-4.349,1.934-5.564,3.767-5.906V3c-1.266.385-2.722,1.523-2.722,4.718a.945.945,0,0,0,.945.945H60.2Z" transform="translate(-54 -0.005)" fill="#091e42"/>
        </g>
      </g>
      <g id="Group_7047" data-name="Group 7047" transform="translate(14.767 0.005)">
        <g id="Group_7046" data-name="Group 7046" transform="translate(0 0)">
          <path id="Path_8354" data-name="Path 8354" d="M162.837,6.776h-1.72c.259-1.915,1.318-2.012,1.805-2.056a.945.945,0,0,0,.86-.941V.95a.945.945,0,0,0-1-.944c-2.988.168-6.549,1.677-6.549,7.909v4.919a1.491,1.491,0,0,0,1.489,1.489h5.114a1.491,1.491,0,0,0,1.489-1.489V8.265A1.491,1.491,0,0,0,162.837,6.776Zm-.4,5.657h-4.311V7.915c0-4.349,1.934-5.564,3.767-5.906V3c-1.266.385-2.722,1.523-2.722,4.718a.945.945,0,0,0,.945.945h2.322Z" transform="translate(-156.234 -0.005)" fill="#091e42"/>
        </g>
      </g>
      <g id="Group_7049" data-name="Group 7049" transform="translate(25.332 7.364)">
        <g id="Group_7048" data-name="Group 7048">
          <path id="Path_8355" data-name="Path 8355" d="M269.613,78.142a.945.945,0,1,0,.277.668A.952.952,0,0,0,269.613,78.142Z" transform="translate(-268 -77.865)" fill="#091e42"/>
        </g>
      </g>
      <g id="Group_7051" data-name="Group 7051" transform="translate(0 7.364)">
        <g id="Group_7050" data-name="Group 7050">
          <path id="Path_8356" data-name="Path 8356" d="M31.6,77.864H30.4a.945.945,0,0,0,0,1.89H31.6a14.91,14.91,0,0,1,3.076,29.5.945.945,0,0,0-.751.925v5.492L28.1,109.849a.945.945,0,0,0-.668-.277H16.8A14.913,14.913,0,0,1,3.761,87.428a.945.945,0,0,0-1.652-.919A16.8,16.8,0,0,0,16.8,111.463H27.039l7.159,7.159a.945.945,0,0,0,1.614-.668v-7.025A16.8,16.8,0,0,0,31.6,77.864Z" transform="translate(0 -77.864)" fill="#091e42"/>
        </g>
      </g>
      <g id="Group_7053" data-name="Group 7053" transform="translate(11.62 16.781)">
        <g id="Group_7052" data-name="Group 7052">
          <path id="Path_8357" data-name="Path 8357" d="M147.146,177.492H123.882a.945.945,0,0,0,0,1.89h23.264a.945.945,0,1,0,0-1.89Z" transform="translate(-122.937 -177.492)" fill="#091e42"/>
        </g>
      </g>
      <g id="Group_7055" data-name="Group 7055" transform="translate(11.62 21.822)">
        <g id="Group_7054" data-name="Group 7054">
          <path id="Path_8358" data-name="Path 8358" d="M147.146,230.825H123.882a.945.945,0,0,0,0,1.89h23.264a.945.945,0,1,0,0-1.89Z" transform="translate(-122.937 -230.825)" fill="#091e42"/>
        </g>
      </g>
      <g id="Group_7057" data-name="Group 7057" transform="translate(11.62 26.863)">
        <g id="Group_7056" data-name="Group 7056">
          <path id="Path_8359" data-name="Path 8359" d="M147.146,284.158H123.882a.945.945,0,1,0,0,1.89h23.264a.945.945,0,1,0,0-1.89Z" transform="translate(-122.937 -284.158)" fill="#091e42"/>
        </g>
      </g>
      <g id="Group_7059" data-name="Group 7059" transform="translate(22.484 31.904)">
        <g id="Group_7058" data-name="Group 7058">
          <path id="Path_8360" data-name="Path 8360" d="M251.217,337.492h-12.4a.945.945,0,0,0,0,1.89h12.4a.945.945,0,0,0,0-1.89Z" transform="translate(-237.871 -337.492)" fill="#091e42"/>
        </g>
      </g>
      <g id="Group_7061" data-name="Group 7061" transform="translate(17.15 31.904)">
        <g id="Group_7060" data-name="Group 7060">
          <path id="Path_8361" data-name="Path 8361" d="M182.406,337.491h-.015a.945.945,0,0,0,0,1.89h.015a.945.945,0,0,0,0-1.89Z" transform="translate(-181.446 -337.491)" fill="#091e42"/>
        </g>
      </g>
    </g>
  </g>
</svg>
