<svg id="undraw_creative_team_r90h" xmlns="http://www.w3.org/2000/svg" width="481.314" height="299.943" viewBox="0 0 481.314 299.943">
  <circle id="Ellipse_147" data-name="Ellipse 147" cx="108.979" cy="108.979" r="108.979" transform="translate(256.919 48.912)" fill="#f2f2f2"/>
  <circle id="Ellipse_148" data-name="Ellipse 148" cx="41.618" cy="41.618" r="41.618" transform="translate(17.508)" fill="#ff6584"/>
  <circle id="Ellipse_149" data-name="Ellipse 149" cx="108.979" cy="108.979" r="108.979" transform="translate(24.802 5.577)" fill="#f2f2f2"/>
  <ellipse id="Ellipse_150" data-name="Ellipse 150" cx="119.706" cy="6.436" rx="119.706" ry="6.436" transform="translate(8.927 216.672)" fill="#3f3d56"/>
  <ellipse id="Ellipse_151" data-name="Ellipse 151" cx="89.672" cy="4.438" rx="89.672" ry="4.438" transform="translate(14.934 218.891)" opacity="0.1"/>
  <ellipse id="Ellipse_152" data-name="Ellipse 152" cx="119.706" cy="7.079" rx="119.706" ry="7.079" transform="translate(241.902 260.864)" fill="#3f3d56"/>
  <ellipse id="Ellipse_153" data-name="Ellipse 153" cx="89.672" cy="4.882" rx="89.672" ry="4.882" transform="translate(247.909 263.305)" opacity="0.1"/>
  <ellipse id="Ellipse_154" data-name="Ellipse 154" cx="76.39" cy="3.861" rx="76.39" ry="3.861" transform="translate(95.619 247.563)" fill="#3f3d56"/>
  <ellipse id="Ellipse_155" data-name="Ellipse 155" cx="36.857" cy="1.863" rx="36.857" ry="1.863" transform="translate(0 236.69)" fill="#3f3d56"/>
  <ellipse id="Ellipse_156" data-name="Ellipse 156" cx="68.597" cy="3.468" rx="68.597" ry="3.468" transform="translate(340.26 293.008)" fill="#3f3d56"/>
  <rect id="Rectangle_4166" data-name="Rectangle 4166" width="137.297" height="81.52" transform="translate(264.213 185.78)" fill="#3f3d56"/>
  <circle id="Ellipse_157" data-name="Ellipse 157" cx="30.892" cy="30.892" r="30.892" transform="translate(277.514 196.506)" fill="#286efa"/>
  <rect id="Rectangle_4167" data-name="Rectangle 4167" width="10.297" height="10.297" transform="translate(348.736 198.651)" fill="#6c63ff"/>
  <rect id="Rectangle_4168" data-name="Rectangle 4168" width="10.297" height="10.297" transform="translate(361.608 198.651)" fill="#6c63ff" opacity="0.5"/>
  <rect id="Rectangle_4169" data-name="Rectangle 4169" width="10.297" height="10.297" transform="translate(374.479 198.651)" fill="#6c63ff" opacity="0.2"/>
  <rect id="Rectangle_4170" data-name="Rectangle 4170" width="10.297" height="10.297" transform="translate(348.736 211.523)" fill="#2f2e41"/>
  <rect id="Rectangle_4171" data-name="Rectangle 4171" width="10.297" height="10.297" transform="translate(361.608 211.523)" fill="#2f2e41" opacity="0.5"/>
  <rect id="Rectangle_4172" data-name="Rectangle 4172" width="10.297" height="10.297" transform="translate(374.479 211.523)" fill="#2f2e41" opacity="0.2"/>
  <rect id="Rectangle_4173" data-name="Rectangle 4173" width="10.297" height="10.297" transform="translate(348.736 224.395)" fill="#ff6584"/>
  <rect id="Rectangle_4174" data-name="Rectangle 4174" width="10.297" height="10.297" transform="translate(361.608 224.395)" fill="#ff6584" opacity="0.5"/>
  <rect id="Rectangle_4175" data-name="Rectangle 4175" width="10.297" height="10.297" transform="translate(374.479 224.395)" fill="#ff6584" opacity="0.2"/>
  <path id="Path_6990" data-name="Path 6990" d="M757.9,558.459v61.784c17.061,0,31.75-13.831,31.75-30.892S774.964,558.459,757.9,558.459Z" transform="translate(-449.498 -361.953)" fill="#3f3d56" opacity="0.5"/>
  <path id="Path_6991" data-name="Path 6991" d="M1009.637,546.959s18.02,8.152,11.584,17.591-25.743,27.459-26.172,31.321a17.143,17.143,0,0,1-3,7.294s-8.581-9.01-7.723-9.868,9.439-9.01,9.868-11.155,13.3-18.878,13.3-18.878l-11.584-10.3Z" transform="translate(-578.737 -355.387)" fill="#ffb9b9"/>
  <path id="Path_6992" data-name="Path 6992" d="M1009.637,546.959s18.02,8.152,11.584,17.591-25.743,27.459-26.172,31.321a17.143,17.143,0,0,1-3,7.294s-8.581-9.01-7.723-9.868,9.439-9.01,9.868-11.155,13.3-18.878,13.3-18.878l-11.584-10.3Z" transform="translate(-578.737 -355.387)" opacity="0.1"/>
  <path id="Path_6993" data-name="Path 6993" d="M990.4,580.395s12.443,5.149,11.584,13.3S1017,625.016,1017,625.016s1.716,5.578,1.287,7.294,11.155,1.287,11.155,1.287v-3.861s-9.01-15.446-9.868-19.736-6.007-21.024-6.007-21.024-1.716-15.017-10.3-15.017a16.09,16.09,0,0,0-12.872,6.436Z" transform="translate(-582.243 -370.803)" fill="#ffb9b9"/>
  <path id="Path_6994" data-name="Path 6994" d="M981.41,498.459s25.743,21.024,24.885,22.74-13.3,8.152-15.446,8.581-17.324-31.321-17.324-31.321Z" transform="translate(-572.606 -327.696)" fill="#2f2e41"/>
  <path id="Path_6995" data-name="Path 6995" d="M981.41,498.459s25.743,21.024,24.885,22.74-13.3,8.152-15.446,8.581-17.324-31.321-17.324-31.321Z" transform="translate(-572.606 -327.696)" opacity="0.1"/>
  <path id="Path_6996" data-name="Path 6996" d="M926.274,502.115s-2.574,11.584,4.291,16.3,18.449,23.169,19.736,23.169S970.037,531.72,969.179,530s-10.3-16.733-10.3-16.733l-3-15.875S929.706,496.538,926.274,502.115Z" transform="translate(-545.358 -327.062)" fill="#2f2e41"/>
  <path id="Path_6997" data-name="Path 6997" d="M991.9,420.459l3.862,24.885,6.865,17.591s10.3,10.726,4.291,11.584-9.439-11.584-9.439-11.584l-5.578-10.3Z" transform="translate(-583.099 -283.162)" fill="#ffb9b9"/>
  <path id="Path_6998" data-name="Path 6998" d="M991.9,420.459l3.862,24.885,6.865,17.591s10.3,10.726,4.291,11.584-9.439-11.584-9.439-11.584l-5.578-10.3Z" transform="translate(-583.099 -283.162)" opacity="0.1"/>
  <path id="Path_6999" data-name="Path 6999" d="M953.878,355.959s0,9.01-3,9.868,12.013,12.443,12.013,12.443-1.716-15.017,4.291-18.878Z" transform="translate(-559.447 -246.336)" fill="#ffb9b9"/>
  <path id="Path_7000" data-name="Path 7000" d="M953.878,355.959s0,9.01-3,9.868,12.013,12.443,12.013,12.443-1.716-15.017,4.291-18.878Z" transform="translate(-559.447 -246.336)" opacity="0.1"/>
  <circle id="Ellipse_158" data-name="Ellipse 158" cx="9.868" cy="9.868" r="9.868" transform="translate(391.428 97.18)" fill="#ffb9b9"/>
  <path id="Path_7001" data-name="Path 7001" d="M943.641,383.669s-9.01-11.155-10.3-10.726-10.726,9.868-11.584,12.872-2.574,24.456-1.287,28.747,1.287,15.446.858,16.3-3,3-.429,3,11.584-6.436,17.591-5.149,14.159-.429,14.588-1.287-.429-23.169,0-24.885-.858-10.3-1.287-12.013-.429-8.581-4.72-10.3l-1.829-.181-.1,4.244Z" transform="translate(-541.916 -256.026)" fill="#286efa"/>
  <path id="Path_7002" data-name="Path 7002" d="M931.4,449.959s.858,13.3,7.294,18.878,20.165,15.017,21.024,16.733,9.01,10.726,10.726,6.865a6.42,6.42,0,0,0,.344-3.8,9.462,9.462,0,0,0-4.249-6.184l-3.818-2.454-18.878-19.736-.858-10.3Z" transform="translate(-548.557 -300.005)" fill="#ffb9b9"/>
  <path id="Path_7003" data-name="Path 7003" d="M979.414,651.211s-4.934-1.073-6.65,1.931S974.48,664.3,974.48,664.3s9.868,20.595,11.584,18.02-1.287-12.013-1.287-12.013,4.291-9.439,2.574-9.868S979.414,656.36,979.414,651.211Z" transform="translate(-571.897 -414.803)" fill="#2f2e41"/>
  <path id="Path_7004" data-name="Path 7004" d="M1053.5,704.391s-2.574-1.287-3,0-3,7.723,0,8.581,32.608,1.716,31.75,0-5.578-3.861-8.581-4.72-10.726-7.294-10.726-7.294S1058.645,706.537,1053.5,704.391Z" transform="translate(-615.731 -443.313)" fill="#2f2e41"/>
  <path id="Path_7005" data-name="Path 7005" d="M965.723,317.862a2.643,2.643,0,0,0-1.146-1.5,6.064,6.064,0,0,0-.242-1.974c-.63-1.864-2.124-1.757-3.533-2.581-.611-.358-.574-.674-.892-1.261a4.679,4.679,0,0,0-1.8-1.84,6.488,6.488,0,0,0-2.928-1.242c-2.248-.153-3.971,1.961-6.12,2.64-.947.3-1.964.311-2.916.594a2.683,2.683,0,0,0-2.044,1.941c-.065.454.05.919-.016,1.373-.132.9-.923,1.533-1.453,2.275a5.6,5.6,0,0,0-.1,5.741,8.062,8.062,0,0,0,.675,1.057,6.5,6.5,0,0,0,.713,2.414,12.031,12.031,0,0,0,4.231,4.225,9.992,9.992,0,0,1-.25-1.8,1.242,1.242,0,0,1,.077-.6c.187-.392.683-.5,1.06-.711a2.68,2.68,0,0,0,1.112-2.328c.023-.9-.168-1.8-.074-2.7a1.473,1.473,0,0,1,.5-1.083,1.741,1.741,0,0,1,.95-.227,10.729,10.729,0,0,0,4.691-.853,6.953,6.953,0,0,1,1.46-.739,3.1,3.1,0,0,1,3.122,1.559c.692,1.031,1.038,2.257,1.677,3.322a3.373,3.373,0,0,0,2.978,1.888.494.494,0,0,0,.369-.164.553.553,0,0,0,.068-.314l.069-4.722a7.135,7.135,0,0,0-.238-2.4Z" transform="translate(-554.486 -218.646)" fill="#2f2e41"/>
  <path id="Path_7006" data-name="Path 7006" d="M931.062,398.959s9.439,4.291,9.01,13.3,2.574,9.868-4.72,10.726-9.01,0-9.439.858-3-19.736-1.287-21.882S931.062,398.959,931.062,398.959Z" transform="translate(-544.354 -270.887)" fill="#6c63ff"/>
  <circle id="Ellipse_159" data-name="Ellipse 159" cx="13.73" cy="13.73" r="13.73" transform="translate(183.122 27.888)" fill="#2f2e41"/>
  <path id="Path_7007" data-name="Path 7007" d="M504.058,547.959l-7.723,21.024s-6.436,5.149-2.574,6.865,11.584-1.716,11.584-1.716l6.007-15.446-.858-10.726Z" transform="translate(-297.982 -355.958)" fill="#2f2e41"/>
  <path id="Path_7008" data-name="Path 7008" d="M504.058,547.959l-7.723,21.024s-6.436,5.149-2.574,6.865,11.584-1.716,11.584-1.716l6.007-15.446-.858-10.726Z" transform="translate(-297.982 -355.958)" opacity="0.1"/>
  <path id="Path_7009" data-name="Path 7009" d="M517.026,257.459l6.436.858s3,23.6,1.716,25.314-7.723,8.581-10.3,6.865S517.026,257.459,517.026,257.459Z" transform="translate(-310.306 -190.098)" fill="#575a89"/>
  <path id="Path_7010" data-name="Path 7010" d="M359.577,357.959s-9.01,3.861-10.726,4.291-4.291,4.72-1.287,5.578,14.588-7.723,14.588-7.723Z" transform="translate(-214.426 -247.478)" fill="#a0616a"/>
  <path id="Path_7011" data-name="Path 7011" d="M526.4,564.105l4.72,17.591s.429,6.436,2.574,6.865,8.581-2.145,8.581-3-2.574-7.723-2.574-7.723,0-5.149-2.574-7.294-4.894-9.332-4.894-9.332Z" transform="translate(-317.323 -363.523)" fill="#2f2e41"/>
  <path id="Path_7012" data-name="Path 7012" d="M515.852,420.861c.867,2.021.759,16.682-.189,26.438-.459,4.741-1.116,8.324-1.956,8.744l-6.148-1.536-2.433-.609-.064-5.337-.365-29.416L497.4,388.682v-7.723l18.449,1.716,2.926,4.6.077.124S514.565,417.858,515.852,420.861Z" transform="translate(-300.766 -260.61)" fill="#2f2e41"/>
  <path id="Path_7013" data-name="Path 7013" d="M511.991,430.3c.918,1.377,2.45,9.624,3.673,17-.459,4.741-1.116,8.324-1.956,8.744l-6.148-1.536c-.094-.2-.189-.4-.287-.609-.785-1.648-1.523-3.467-2.21-5.337l-.365-29.416L497.4,388.682v-7.723l18.449,1.716,2.926,4.6-17.085-1.163,3.861,16.733,4.72,17.591S510.275,427.726,511.991,430.3Z" transform="translate(-300.766 -260.61)" opacity="0.1"/>
  <path id="Path_7014" data-name="Path 7014" d="M457.683,333.537s-6.007,13.3,2.574,31.75a375.035,375.035,0,0,1,14.159,35.182s3,14.159,7.294,23.169,3.432,9.439,3.432,9.439l6.865-3.861s-3.861-26.6-5.578-29.176-1.716-9.868-1.716-9.868l-4.72-17.591-3.861-16.733,18.878,1.287s0-24.456-8.581-29.176Z" transform="translate(-276.921 -230.35)" fill="#2f2e41"/>
  <path id="Path_7015" data-name="Path 7015" d="M463.634,212.459s0,6.865-2.145,7.294-6.436.429-7.723,2.574,9.868,30.463,9.868,30.463l11.584-7.294,3.861-19.307s-5.578-3.432-5.578-5.149v-7.723Z" transform="translate(-275.792 -164.405)" fill="#a0616a"/>
  <path id="Path_7016" data-name="Path 7016" d="M463.634,212.459s0,6.865-2.145,7.294-6.436.429-7.723,2.574,9.868,30.463,9.868,30.463l11.584-7.294,3.861-19.307s-5.578-3.432-5.578-5.149v-7.723Z" transform="translate(-275.792 -164.405)" opacity="0.1"/>
  <circle id="Ellipse_160" data-name="Ellipse 160" cx="10.297" cy="10.297" r="10.297" transform="translate(184.195 34.968)" fill="#a0616a"/>
  <path id="Path_7017" data-name="Path 7017" d="M450.214,253.915s-3.861-24.456-4.72-24.456-12.872,2.574-13.73,3-3.861,4.291-3.861,4.291l6.007,17.162s2.574,12.013,4.291,14.159,5.149,8.152,3.432,9.01-3.432,2.145-1.716,2.145,15.875-2.574,16.733-1.287,15.017-4.72,15.017-5.149S469.95,252.2,469.95,252.2l4.291-9.868-12.872-9.01Z" transform="translate(-261.085 -174.111)" fill="#575a89"/>
  <path id="Path_7018" data-name="Path 7018" d="M401.362,241.459l-4.291,2.145s-12.013,27.459-12.872,27.888-5.149,8.581-5.578,10.3-1.287,7.294-2.574,8.152a22.285,22.285,0,0,1-2.145,1.287s2.574,4.29,3.861,4.29,5.578-6.007,5.578-6.007,9.439,6.007,12.013,1.287,9.01-34.753,9.01-34.753Z" transform="translate(-230.254 -180.963)" fill="#575a89"/>
  <path id="Path_7019" data-name="Path 7019" d="M502.484,254.644s-6.007-14.588-9.439-12.872,2.574,12.013,6.436,13.73Z" transform="translate(-297.694 -181.061)" fill="#a0616a"/>
  <path id="Path_7020" data-name="Path 7020" d="M497.586,271.148l6.02-1.361,1.274,6.509s5.578,9.868,4.291,14.159-9.01,11.155-11.584,7.294-4.72-9.868-3-13.3S498.873,272.864,497.586,271.148Z" transform="translate(-298.803 -197.137)" opacity="0.1"/>
  <path id="Path_7021" data-name="Path 7021" d="M500.586,269.148l6.02-1.361,1.274,6.509s5.578,9.868,4.291,14.159-9.01,11.155-11.584,7.294-4.72-9.868-3-13.3S501.873,270.864,500.586,269.148Z" transform="translate(-300.516 -195.995)" fill="#575a89"/>
  <ellipse id="Ellipse_161" data-name="Ellipse 161" cx="4.934" cy="10.297" rx="4.934" ry="10.297" transform="translate(185.863 38.929) rotate(-64.899)" fill="#2f2e41"/>
  <circle id="Ellipse_162" data-name="Ellipse 162" cx="6.007" cy="6.007" r="6.007" transform="translate(198.997 24.027)" fill="#2f2e41"/>
  <path id="Path_7022" data-name="Path 7022" d="M502.178,157.466a6.006,6.006,0,0,1,5.362-5.971,6.007,6.007,0,1,0,0,11.942,6.007,6.007,0,0,1-5.363-5.971Z" transform="translate(-302.751 -129.577)" fill="#2f2e41"/>
  <rect id="Rectangle_4176" data-name="Rectangle 4176" width="150.168" height="104.26" transform="translate(27.805 118.848)" fill="#3f3d56"/>
  <rect id="Rectangle_4177" data-name="Rectangle 4177" width="19.736" height="19.736" transform="translate(39.818 129.145)" fill="#f2f2f2"/>
  <rect id="Rectangle_4178" data-name="Rectangle 4178" width="19.736" height="19.736" transform="translate(39.818 161.324)" fill="#286efa"/>
  <rect id="Rectangle_4179" data-name="Rectangle 4179" width="19.736" height="19.736" transform="translate(39.818 193.503)" fill="#f2f2f2"/>
  <rect id="Rectangle_4180" data-name="Rectangle 4180" width="93.963" height="1.716" transform="translate(68.994 135.366)" fill="#f2f2f2"/>
  <rect id="Rectangle_4181" data-name="Rectangle 4181" width="29.176" height="1.716" transform="translate(68.994 140.944)" fill="#f2f2f2"/>
  <rect id="Rectangle_4182" data-name="Rectangle 4182" width="93.963" height="1.716" transform="translate(68.994 167.545)" fill="#f2f2f2"/>
  <rect id="Rectangle_4183" data-name="Rectangle 4183" width="29.176" height="1.716" transform="translate(68.994 173.123)" fill="#f2f2f2"/>
  <rect id="Rectangle_4184" data-name="Rectangle 4184" width="93.963" height="1.716" transform="translate(68.994 199.724)" fill="#f2f2f2"/>
  <rect id="Rectangle_4185" data-name="Rectangle 4185" width="29.176" height="1.716" transform="translate(68.994 205.302)" fill="#f2f2f2"/>
  <path id="Path_7023" data-name="Path 7023" d="M998.04,742.985c0,8.734-5.191,11.783-11.6,11.783-.148,0-.3,0-.444-.005-.3-.006-.591-.02-.882-.041-5.781-.409-10.271-3.615-10.271-11.737,0-8.4,10.739-19.01,11.548-19.8h0l.047-.046S998.04,734.252,998.04,742.985Z" transform="translate(-573.361 -455.978)" fill="#286efa"/>
  <path id="Path_7024" data-name="Path 7024" d="M994.687,753.432l4.242-5.926-4.252,6.577-.011.68c-.3-.006-.591-.02-.882-.041l.457-8.737,0-.068.007-.012.044-.826-4.263-6.593,4.276,5.974.011.175.345-6.6-3.649-6.813,3.694,5.655.36-13.687v0L995,733.98l3.633-4.279-3.648,5.209-.1,5.911,3.393-5.673-3.407,6.543-.053,3.286,4.924-7.9-4.943,9.042Z" transform="translate(-582.027 -455.978)" fill="#3f3d56"/>
  <path id="Path_7025" data-name="Path 7025" d="M121.04,603.985c0,8.734-5.191,11.783-11.6,11.783-.148,0-.3,0-.444-.005-.3-.006-.591-.02-.882-.041-5.781-.409-10.271-3.615-10.271-11.737,0-8.4,10.739-19.01,11.548-19.8h0l.047-.046S121.04,595.252,121.04,603.985Z" transform="translate(-72.64 -376.616)" fill="#286efa"/>
  <path id="Path_7026" data-name="Path 7026" d="M117.687,614.432l4.242-5.926-4.252,6.577-.011.68c-.3-.006-.591-.02-.882-.041l.457-8.737,0-.068.007-.012.044-.826-4.263-6.593,4.276,5.974.011.175.345-6.6-3.649-6.813,3.694,5.655.36-13.687v0L118,594.98l3.633-4.279-3.648,5.209-.1,5.911,3.393-5.673-3.407,6.543-.053,3.286,4.924-7.9-4.943,9.042Z" transform="translate(-81.307 -376.616)" fill="#3f3d56"/>
</svg>
