<svg id="Component_12_1" data-name="Component 12 – 1" xmlns="http://www.w3.org/2000/svg" width="88.223" height="116.937" viewBox="0 0 88.223 116.937">
  <g id="tablet-report" transform="translate(0 37.08)">
    <path id="Path_7096" data-name="Path 7096" d="M61.093,2.353V77.5A2.435,2.435,0,0,1,58.6,79.857H2.495A2.435,2.435,0,0,1,0,77.5V2.353A2.435,2.435,0,0,1,2.495,0h56.1a2.437,2.437,0,0,1,2.5,2.353ZM10.22,55.14a.709.709,0,1,1,0-1.417H51a.709.709,0,1,1,0,1.417Zm0,6.694a.709.709,0,1,1,0-1.417H51a.709.709,0,1,1,0,1.417Zm34.7-42.291,6.168.019a5.672,5.672,0,0,1-1.84,4.127,6.142,6.142,0,0,1-.9.7l-3.425-4.842ZM18.607,14.981h1.881a.173.173,0,0,1,.179.169v6.317a.177.177,0,0,1-.179.169H18.607a.177.177,0,0,1-.179-.169V15.15a.177.177,0,0,1,.179-.169Zm-8.5-2.132h1.881a.173.173,0,0,1,.179.169v8.449a.173.173,0,0,1-.179.169H10.11a.173.173,0,0,1-.179-.169V13.018a.165.165,0,0,1,.179-.169Zm4.245-1.2h1.881a.173.173,0,0,1,.179.169v9.651a.173.173,0,0,1-.179.169H14.355a.173.173,0,0,1-.179-.169V11.816a.177.177,0,0,1,.179-.169Zm-4.135,29.6a.709.709,0,1,1,0-1.417H51a.709.709,0,1,1,0,1.417ZM10.1,34.492a.709.709,0,1,1,0-1.417h11.53a.709.709,0,1,1,0,1.417Zm14.417,0a.709.709,0,1,1,0-1.417H51a.709.709,0,1,1,0,1.417ZM10.1,28.291a.709.709,0,1,1,0-1.417h22.28a.709.709,0,1,1,0,1.417Zm34.2-9.9-.331-6.22a.23.23,0,0,1,.227-.234c.034,0,.083-.006.131-.006h.131a7.053,7.053,0,0,1,4.714,1.709,6.319,6.319,0,0,1,2.192,4.29.234.234,0,0,1-.221.24l-6.6.442a.239.239,0,0,1-.255-.208c.007,0,.007-.006.007-.013Zm.152-6.012.3,5.778,6.113-.409a5.9,5.9,0,0,0-2.019-3.776,6.586,6.586,0,0,0-4.39-1.592Zm-.9,6.9,3.308,5.4a6.939,6.939,0,0,1-3.308.838,6.438,6.438,0,0,1-6.616-6.239,6.362,6.362,0,0,1,5.651-6.168l.965,6.168ZM10.1,48.394a.709.709,0,1,1,0-1.417h11.53a.709.709,0,1,1,0,1.417Zm14.417,0a.709.709,0,1,1,0-1.417H51a.709.709,0,1,1,0,1.417Zm6.03,23.631a2.7,2.7,0,1,1-2.86,2.7,2.784,2.784,0,0,1,2.86-2.7ZM57.71,4.2V69.627H3.735V4.2Z" fill="#0b5fff" fill-rule="evenodd"/>
  </g>
  <path id="instagram-share" d="M25.578,3.317,5.172,3.024,12.7,10.433Zm-11.4,9.718L16.8,23.455l10.361-17.6ZM31.128.425a1.487,1.487,0,0,1,1.3,2.328L17.577,27.987a1.49,1.49,0,0,1-2.777-.306L11.107,13.035.448,2.546A1.487,1.487,0,0,1,1.507,0Z" transform="matrix(0.985, 0.174, -0.174, 0.985, 56.027, -0.001)" fill="#0b5fff"/>
  <g id="Group_9345" data-name="Group 9345" transform="translate(233.015 -432.322) rotate(30)">
    <path id="Path_5756" data-name="Path 5756" d="M25.239.548S8.814-3.126,0,8.544" transform="matrix(0.819, -0.574, 0.574, 0.819, 46.212, 496.618)" fill="none" stroke="#0b5fff" stroke-linecap="round" stroke-width="3"/>
    <path id="Path_5757" data-name="Path 5757" d="M.516,3.154,0,0,3.486,1.17Z" transform="translate(66.6 481.01) rotate(-21)" fill="none" stroke="#0b5fff" stroke-linecap="round" stroke-linejoin="round" stroke-width="3" fill-rule="evenodd"/>
  </g>
</svg>
