<svg xmlns="http://www.w3.org/2000/svg" width="94" height="94" viewBox="0 0 94 94">
  <g id="icon" transform="translate(-0.073 -0.003)">
    <path id="Path_7097" data-name="Path 7097" d="M201.944,11.841a2.113,2.113,0,0,0-2.053-1.239l-8.909.55.55-8.909a2.11,2.11,0,0,0-3.6-1.622l-6.5,6.5a2.11,2.11,0,0,0-.614,1.362l-.647,10.495-32.5,32.493a2.11,2.11,0,1,0,2.984,2.984l32.495-32.494,10.495-.647a2.11,2.11,0,0,0,1.362-.614l6.5-6.5A2.109,2.109,0,0,0,201.944,11.841ZM192.6,17.148l-8.111.5.5-8.111,1.992-1.991-.353,5.729a2.11,2.11,0,0,0,2.236,2.236l5.729-.352Z" transform="translate(-108.058 0)" fill="#fea82f"/>
    <path id="Path_7098" data-name="Path 7098" d="M133.895,170.222a2.11,2.11,0,0,0-1.141-4.063,7.7,7.7,0,0,0-3.418,1.971,7.853,7.853,0,1,0,13.076,7.688,2.11,2.11,0,1,0-4.063-1.142,3.55,3.55,0,0,1-.893,1.575,3.719,3.719,0,0,1-5.137,0,3.635,3.635,0,0,1,0-5.138A3.555,3.555,0,0,1,133.895,170.222Z" transform="translate(-92.933 -121.563)" fill="#fea82f"/>
    <path id="Path_7099" data-name="Path 7099" d="M110.827,126.255a2.11,2.11,0,0,0-1.445-2.611,19.337,19.337,0,1,0,13.231,13.231,2.11,2.11,0,1,0-4.056,1.164A15.118,15.118,0,1,1,108.217,127.7,2.106,2.106,0,0,0,110.827,126.255Z" transform="translate(-62.072 -90.111)" fill="#fea82f"/>
    <path id="Path_7100" data-name="Path 7100" d="M88.587,86.915a2.111,2.111,0,0,0-.865-2.856A30.822,30.822,0,1,0,100.373,96.71a2.11,2.11,0,1,0-3.721,1.99A26.6,26.6,0,1,1,85.73,87.78,2.11,2.11,0,0,0,88.587,86.915Z" transform="translate(-30.847 -59.509)" fill="#fea82f"/>
    <path id="Path_7101" data-name="Path 7101" d="M74.076,56.675a2.087,2.087,0,0,0-.609,2.888A37.666,37.666,0,1,1,62.421,48.517a2.087,2.087,0,1,0,2.279-3.5A41.84,41.84,0,1,0,76.963,57.284,2.087,2.087,0,0,0,74.076,56.675Z" transform="translate(0 -27.908)" fill="#fea82f"/>
  </g>
</svg>
