<svg id="undraw_Customer_survey_re_v9cj" xmlns="http://www.w3.org/2000/svg" width="553.943" height="271.265" viewBox="0 0 553.943 271.265">
  <path id="Path_6658" data-name="Path 6658" d="M390.115,242.214c8.044-3.954,18.128-3.52,24.709,3.148-9.356,1.909-17.83,7.6-23.92,16.06-2.339,3.273-4.646,7.2-8.243,8.009a8.054,8.054,0,0,1-6.486-1.808,28.787,28.787,0,0,1-5-5.385l-.534-.23C375.788,253.813,382.071,246.169,390.115,242.214Z" transform="translate(-221.105 -239.691)" fill="#f0f0f0"/>
  <path id="Path_6659" data-name="Path 6659" d="M414.872,248.063a30.062,30.062,0,0,0-21.042,2.658,14.7,14.7,0,0,0-3.931,2.865A10.216,10.216,0,0,0,387.545,258a22.607,22.607,0,0,1-1.461,4.641,5.23,5.23,0,0,1-3.549,2.724,11.712,11.712,0,0,1-5.367-.413c-1.955-.486-3.978-1.026-5.965-.456-.241.069-.319-.369-.079-.437,3.457-.991,6.8,1.216,10.259,1.017a5.035,5.035,0,0,0,4.18-2.329,17.441,17.441,0,0,0,1.561-4.679,11.053,11.053,0,0,1,2.163-4.415,13.815,13.815,0,0,1,3.822-3.03,30.488,30.488,0,0,1,21.886-2.982C415.237,247.7,415.113,248.121,414.872,248.063Z" transform="translate(-221.253 -242.213)" fill="#fff"/>
  <path id="Path_6660" data-name="Path 6660" d="M415.663,247.028a6.362,6.362,0,0,1,2.714-7.09c.224-.124.4.274.176.4a5.893,5.893,0,0,0-2.513,6.6A.2.2,0,1,1,415.663,247.028Z" transform="translate(-241.018 -239.77)" fill="#fff"/>
  <path id="Path_6661" data-name="Path 6661" d="M400.784,262.869A8.749,8.749,0,0,0,407.968,264c.241-.068.319.37.079.438a9.1,9.1,0,0,1-7.473-1.2C400.357,263.1,400.569,262.729,400.784,262.869Z" transform="translate(-234.365 -247.91)" fill="#fff"/>
  <path id="Path_6662" data-name="Path 6662" d="M435.377,247.191a3.465,3.465,0,0,0,1.508,2.7c.218.138.006.511-.211.374A3.88,3.88,0,0,1,435,247.282a.233.233,0,0,1,.149-.264A.2.2,0,0,1,435.377,247.191Z" transform="translate(-249.703 -242.291)" fill="#fff"/>
  <path id="Path_6663" data-name="Path 6663" d="M413.624,290.16c-.138-.081-.276-.163-.417-.243a35.609,35.609,0,0,0-5.788-2.711c-.153-.059-.309-.115-.463-.169a35.253,35.253,0,0,0-14.849-1.844,34.373,34.373,0,0,0-5.913,1.076c-2.686.735-5.547,1.78-8.207,1.452a5.9,5.9,0,0,1-.826-.151l-7.13-14.311c0-.042-.007-.082-.009-.124l-.307-.556.3-.106c.057-.021.116-.039.173-.06.039-.013.077-.026.111-.04l.036-.011c.034-.014.067-.023.1-.036q.863-.292,1.732-.57s0,0,.007,0a50.62,50.62,0,0,1,13.518-2.539c.137,0,.276-.011.416-.009a32.463,32.463,0,0,1,6.123.417,29.172,29.172,0,0,1,3.3.753,25.777,25.777,0,0,1,7.946,3.938,25.38,25.38,0,0,1,10.054,15.35C413.562,289.831,413.594,289.993,413.624,290.16Z" transform="translate(-220.691 -250.168)" fill="#f0f0f0"/>
  <path id="Path_6664" data-name="Path 6664" d="M413.642,292a33.872,33.872,0,0,0-18.18-12.583,12.839,12.839,0,0,0-4.625-.46,7.856,7.856,0,0,0-4.169,1.879,17.548,17.548,0,0,1-3.574,2.684,4.559,4.559,0,0,1-4.247-.306,14.33,14.33,0,0,1-4.071-4.081c-1.309-1.754-2.644-3.6-4.526-4.533-.228-.113-.063-.517.164-.4,3.274,1.625,4.8,5.723,7.664,7.981a4.7,4.7,0,0,0,4.546,1.062A13.505,13.505,0,0,0,386.3,280.6a8.485,8.485,0,0,1,4.017-2.014,11.841,11.841,0,0,1,4.623.252,30.652,30.652,0,0,1,9.772,4.238,36.586,36.586,0,0,1,9.25,8.676A.2.2,0,0,1,413.642,292Z" transform="translate(-220.882 -251.937)" fill="#fff"/>
  <path id="Path_6665" data-name="Path 6665" d="M419.843,280.861c.891-2.747,3.365-4.341,5.844-3.764.243.057.177.5-.066.441-2.309-.542-4.613.95-5.43,3.515-.086.27-.434.077-.348-.191Z" transform="translate(-242.962 -252.931)" fill="#fff"/>
  <path id="Path_6666" data-name="Path 6666" d="M400.539,283.543a10.863,10.863,0,0,0,5.147,5.926c.228.114.063.518-.164.4a11.309,11.309,0,0,1-5.346-6.179.2.2,0,1,1,.362-.151Z" transform="translate(-234.221 -255.213)" fill="#fff"/>
  <path id="Path_6667" data-name="Path 6667" d="M437.23,291.856a3.869,3.869,0,0,0-.2,3.21.2.2,0,1,1-.362.151,4.338,4.338,0,0,1,.211-3.551.188.188,0,0,1,.256-.107.241.241,0,0,1,.092.3Z" transform="translate(-250.321 -258.101)" fill="#fff"/>
  <path id="Path_6668" data-name="Path 6668" d="M844,393.535h-6.312l-3-28.263H844Z" transform="translate(-370.925 -129.701)" fill="#a0616a"/>
  <path id="Path_6669" data-name="Path 6669" d="M939.568,654.572H919.213v-.3c0-5.078,3.547-9.2,7.922-9.2h12.433Z" transform="translate(-464.884 -383.635)" fill="#2f2e41"/>
  <path id="Path_6670" data-name="Path 6670" d="M929.638,388.792l-6.242,1.1-6.609-27.424,8.182-1.616Z" transform="translate(-407.411 -128.129)" fill="#a0616a"/>
  <path id="Path_6671" data-name="Path 6671" d="M1029.728,649.156l-20.126,3.531-.038-.3c-.654-5.022,2.323-9.708,6.649-10.467h0l12.292-2.157Z" transform="translate(-504.994 -381.75)" fill="#2f2e41"/>
  <path id="Path_6672" data-name="Path 6672" d="M566.473,539.254H377.849V320.309H566.473Z" transform="translate(-224.307 -268.317)" fill="#fff"/>
  <path id="Path_6673" data-name="Path 6673" d="M566.473,539.254H377.849V320.309H566.473Zm-185.838-3.235H563.687V323.544H380.636Z" transform="translate(-224.307 -268.317)" fill="#f0f0f0"/>
  <rect id="Rectangle_4132" data-name="Rectangle 4132" width="120.971" height="4.957" transform="translate(192.434 146.114)" fill="#286efa"/>
  <rect id="Rectangle_4133" data-name="Rectangle 4133" width="120.971" height="4.957" transform="translate(192.434 159.002)" fill="#286efa"/>
  <rect id="Rectangle_4134" data-name="Rectangle 4134" width="120.971" height="4.957" transform="translate(192.434 171.889)" fill="#286efa"/>
  <ellipse id="Ellipse_132" data-name="Ellipse 132" cx="2.787" cy="3.235" rx="2.787" ry="3.235" transform="translate(182.304 146.084)" fill="#286efa"/>
  <rect id="Rectangle_4135" data-name="Rectangle 4135" width="120.971" height="4.957" transform="translate(192.434 90.582)" fill="#f0f0f0"/>
  <rect id="Rectangle_4136" data-name="Rectangle 4136" width="120.971" height="4.957" transform="translate(192.434 103.469)" fill="#f0f0f0"/>
  <rect id="Rectangle_4137" data-name="Rectangle 4137" width="120.971" height="4.957" transform="translate(192.434 116.357)" fill="#f0f0f0"/>
  <ellipse id="Ellipse_133" data-name="Ellipse 133" cx="2.787" cy="3.235" rx="2.787" ry="3.235" transform="translate(182.304 90.012)" fill="#f0f0f0"/>
  <rect id="Rectangle_4138" data-name="Rectangle 4138" width="120.971" height="4.957" transform="translate(192.434 202.186)" fill="#f0f0f0"/>
  <rect id="Rectangle_4139" data-name="Rectangle 4139" width="120.971" height="4.957" transform="translate(192.434 215.073)" fill="#f0f0f0"/>
  <rect id="Rectangle_4140" data-name="Rectangle 4140" width="120.971" height="4.957" transform="translate(192.434 227.961)" fill="#f0f0f0"/>
  <ellipse id="Ellipse_134" data-name="Ellipse 134" cx="2.787" cy="3.235" rx="2.787" ry="3.235" transform="translate(182.304 201.616)" fill="#e5e5e5"/>
  <path id="Path_138" data-name="Path 138" d="M809.413,465.72H699.662c-1.644,0-2.977-3.169-2.979-7.075V363.871c0-3.906,1.335-7.068,2.979-7.075H809.413c1.644,0,2.977,3.169,2.979,7.075v94.773C812.39,462.55,811.055,465.715,809.413,465.72Z" transform="translate(-365.993 -281.272)" fill="#fff"/>
  <path id="Path_138-2" data-name="Path 138" d="M809.413,465.72H699.662c-1.644,0-2.977-3.169-2.979-7.075V363.871c0-3.906,1.335-7.068,2.979-7.075H809.413c1.644,0,2.977,3.169,2.979,7.075v94.773C812.39,462.55,811.055,465.715,809.413,465.72ZM699.662,359.626c-.987,0-1.786,1.9-1.788,4.245v94.773c0,2.343.8,4.243,1.788,4.245H809.413c.987,0,1.786-1.9,1.788-4.245V363.871c0-2.343-.8-4.243-1.788-4.245Z" transform="translate(-365.993 -281.272)" fill="#e6e6e6"/>
  <rect id="Rectangle_4141" data-name="Rectangle 4141" width="29.542" height="2.577" transform="translate(373.861 152.8)" fill="#286efa"/>
  <rect id="Rectangle_4142" data-name="Rectangle 4142" width="37.179" height="2.577" transform="translate(369.909 159.497)" fill="#286efa"/>
  <path id="Path_6674" data-name="Path 6674" d="M804.668,413.876c0,7.88-3.572,15.179-9.4,19.22a17,17,0,0,1-19.036.5l0,0c-8.3-5.193-12.156-16.6-9.1-26.956s12.11-16.64,21.416-14.845S804.668,402.927,804.668,413.876Z" transform="translate(-396.835 -293.59)" fill="#cacaca"/>
  <ellipse id="Ellipse_135" data-name="Ellipse 135" cx="5.244" cy="6.087" rx="5.244" ry="6.087" transform="translate(383.398 107.027)" fill="#fff"/>
  <path id="Path_6675" data-name="Path 6675" d="M802.623,439.046a23.519,23.519,0,0,1-18.1-.081l0,0,3.907-8.951h10.487Z" transform="translate(-405.027 -307.27)" fill="#fff"/>
  <path id="Path_6676" data-name="Path 6676" d="M560.144,315.471h82.35V273.559h-1.267V314H560.144Z" transform="translate(-248.922 -97.135)" fill="#3f3d56"/>
  <ellipse id="Ellipse_136" data-name="Ellipse 136" cx="6.968" cy="8.088" rx="6.968" ry="8.088" transform="translate(385.97 175.127)" fill="#3f3d56"/>
  <path id="Path_138-3" data-name="Path 138" d="M297.413,375.72H187.662c-1.644,0-2.977-3.169-2.979-7.075V273.871c0-3.906,1.335-7.068,2.979-7.075H297.413c1.644,0,2.977,3.169,2.979,7.075v94.773C300.39,372.55,299.055,375.715,297.413,375.72Z" transform="translate(-138.465 -249.315)" fill="#fff"/>
  <path id="Path_138-4" data-name="Path 138" d="M297.413,375.72H187.662c-1.644,0-2.977-3.169-2.979-7.075V273.871c0-3.906,1.335-7.068,2.979-7.075H297.413c1.644,0,2.977,3.169,2.979,7.075v94.773C300.39,372.55,299.055,375.715,297.413,375.72ZM187.662,269.626c-.987,0-1.786,1.9-1.788,4.245v94.773c0,2.343.8,4.243,1.788,4.245H297.413c.987,0,1.786-1.9,1.788-4.245V273.871c0-2.343-.8-4.243-1.788-4.245Z" transform="translate(-138.465 -249.315)" fill="#e6e6e6"/>
  <path id="Path_6677" data-name="Path 6677" d="M317.687,307.255a25.735,25.735,0,0,0-18.724-9.9v31.634Z" transform="translate(-189.25 -260.167)" fill="#3f3d56"/>
  <path id="Path_6678" data-name="Path 6678" d="M317.687,318.813l-18.724,21.734h26.168A34.447,34.447,0,0,0,317.687,318.813Z" transform="translate(-189.25 -267.785)" fill="#e4e4e4"/>
  <path id="Path_6679" data-name="Path 6679" d="M325.158,356.038a36.711,36.711,0,0,1-.469,5.877c-.024.153-.05.305-.077.457a34.624,34.624,0,0,1-3.157,9.6c-.08.16-.162.319-.244.476v0a31.068,31.068,0,0,1-5.477,7.521c-.107.108-.213.215-.321.319a25.149,25.149,0,0,1-16.451,7.379V356.038Z" transform="translate(-189.25 -281.003)" fill="#f0f0f0"/>
  <path id="Path_6680" data-name="Path 6680" d="M279.21,387.7c.362,0,.722-.011,1.081-.027V356.037l-19.82,23.006A25.3,25.3,0,0,0,279.21,387.7Z" transform="translate(-172.145 -281.003)" fill="#cacaca"/>
  <path id="Path_6681" data-name="Path 6681" d="M272.448,303.419c-15.065,0-27.277,14.176-27.277,31.662h28.387V303.448C273.189,303.43,272.82,303.419,272.448,303.419Z" transform="translate(-165.346 -262.319)" fill="#286efa"/>
  <path id="Path_6682" data-name="Path 6682" d="M259.87,356.038l-5.735,6.657-.188.218,0,0-5,5.8-.19.221-5.4,6.272-.19.221v0l-3.11,3.608a34.163,34.163,0,0,1-8.538-23.005Z" transform="translate(-159.275 -281.003)" fill="#286efa"/>
  <path id="Path_6683" data-name="Path 6683" d="M281.048,227.471H198.7V185.559h1.267V226h81.083Z" transform="translate(-88.299 -65.888)" fill="#3f3d56"/>
  <ellipse id="Ellipse_137" data-name="Ellipse 137" cx="6.968" cy="8.088" rx="6.968" ry="8.088" transform="translate(104.063 118.374)" fill="#3f3d56"/>
  <path id="Path_6684" data-name="Path 6684" d="M999.768,431.608l-7.009,2.132.466,13.19.058,24.015a5.216,5.216,0,0,0-1.669,5.1,4.425,4.425,0,0,0,3.51,3.631,4.027,4.027,0,0,0,4.175-2.51,5.435,5.435,0,0,0-.53-5.423l2.154-24.1Z" transform="translate(-497.005 -307.836)" fill="#a0616a"/>
  <path id="Path_6685" data-name="Path 6685" d="M1000.5,427.671l-10.245-4-.024-.179a177.378,177.378,0,0,1-1.5-19.1,6.4,6.4,0,0,1,1.7-4.578,4.792,4.792,0,0,1,5.79-1.081,6.688,6.688,0,0,1,3.537,5.906Z" transform="translate(-495.776 -295.968)" fill="#e4e4e4"/>
  <path id="Path_6686" data-name="Path 6686" d="M957.078,439.6l-15.67-4.708-7.243,28.316L933.908,568.7l11.983-.087,5.009-85.38,31.924,78.893L995.7,560.33l-28.062-84.571s1.545-14.942-3.347-22.413l1.03-7.77Z" transform="translate(-471.414 -309.003)" fill="#2f2e41"/>
  <path id="Path_6687" data-name="Path 6687" d="M971.065,428.344l-1.186-.022L945.8,417.15l11.521-29.783,5.47,1.154-1-4.623,12.085-3.429,2.1,9.763,3.1,3.274a7.032,7.032,0,0,1,1.5,6.684l-7.148,24.89a3.126,3.126,0,0,1-.535,2.273A2.29,2.29,0,0,1,971.065,428.344Z" transform="translate(-476.698 -289.678)" fill="#e4e4e4"/>
  <path id="Path_6688" data-name="Path 6688" d="M932.361,417.876l-6.335-4.081L918.51,423.7l-14.256,17.4a3.984,3.984,0,0,0-4.244,2.35,5.447,5.447,0,0,0,.376,5.44,3.809,3.809,0,0,0,4.512,1.535,4.767,4.767,0,0,0,2.846-4.345l15.907-15.694Z" transform="translate(-456.104 -301.511)" fill="#a0616a"/>
  <path id="Path_6689" data-name="Path 6689" d="M948.716,415.914,943.7,404.8l.089-.149a152.492,152.492,0,0,1,10.289-15.01,4.792,4.792,0,0,1,3.955-1.945,5.438,5.438,0,0,1,4.829,3.863,7.485,7.485,0,0,1-.959,7.106Z" transform="translate(-475.763 -292.244)" fill="#e4e4e4"/>
  <ellipse id="Ellipse_138" data-name="Ellipse 138" cx="9.602" cy="11.146" rx="9.602" ry="11.146" transform="translate(478.636 66.682)" fill="#a0616a"/>
  <path id="Path_6690" data-name="Path 6690" d="M959.446,345.575c1.615-3.356,2.233-4.757,4.315-6.8,1.841-1.8,4.106-2.335,5.932-.625,4.437-2.225,9.607-.806,12.716,3.49a14.345,14.345,0,0,1,.764,15.141c-2.655,4.689-7.647,6.8-12.277,5.19s-7.8-6.555-7.8-12.165q0-.72.075-1.436C961.58,348.113,961.034,345.834,959.446,345.575Z" transform="translate(-482.763 -274.282)" fill="#2f2e41"/>
  <path id="Path_6691" data-name="Path 6691" d="M190.681,467.767a4.258,4.258,0,0,0,1.705-2.939,4.665,4.665,0,0,0-.846-3.4l4.688-54.6-7.828.6-2.168,53.767a4.722,4.722,0,0,0-.292,5.582,3.3,3.3,0,0,0,4.741.994Z" transform="translate(-138.68 -299.036)" fill="#ffb8b8"/>
  <path id="Path_6692" data-name="Path 6692" d="M185.279,397.538l2.052,18.1-.285,11.1,8.609.915,1.725-9.229.951-24.432c.149-3.823-2.274-7.129-5.549-7.571h0c-3.408-.46-6.5,2.339-6.953,6.286Z" transform="translate(-138.731 -291.774)" fill="#2f2e41"/>
  <path id="Path_6693" data-name="Path 6693" d="M143.118,398.125h5.222l2.484-23.381h-7.707Z" transform="translate(-63.6 -133.064)" fill="#ffb7b7"/>
  <path id="Path_6694" data-name="Path 6694" d="M242.221,647.62h10.285c3.619,0,6.554,3.406,6.554,7.607v.248H242.222Z" transform="translate(-164.035 -384.538)" fill="#2f2e41"/>
  <path id="Path_6695" data-name="Path 6695" d="M65.507,398.125h5.222l2.484-23.381H65.506Z" transform="translate(-29.11 -133.064)" fill="#ffb7b7"/>
  <path id="Path_6696" data-name="Path 6696" d="M164.61,647.62h10.285c3.619,0,6.554,3.406,6.554,7.607v.248H164.61Z" transform="translate(-129.545 -384.538)" fill="#2f2e41"/>
  <ellipse id="Ellipse_139" data-name="Ellipse 139" cx="11.322" cy="13.142" rx="11.322" ry="13.142" transform="translate(45.382 59.757)" fill="#ffb8b8"/>
  <path id="Path_6697" data-name="Path 6697" d="M183.39,381.378l-7.857,1.042h0a27.571,27.571,0,0,0-2.674,21.916l5.929,19.908s-8.23,19.152-8.23,36.933-15.674,81.252-15.674,81.252l22.063,2.671,9.627-67.614,13.266,67.342,15.145-2.862-8.341-88.292-5.512-29.061-.235-14.172s2.344-10.634-3.522-17.443l-7.161-11.583Z" transform="translate(-125.223 -290.001)" fill="#2f2e41"/>
  <path id="Path_6698" data-name="Path 6698" d="M264.978,432.893a4.856,4.856,0,0,0-1.534-3.449,3.539,3.539,0,0,0-3.263-.849l-42.728-33.985-3.624,9.047,43.363,30.736a3.993,3.993,0,0,0,4.467,3.265,4.5,4.5,0,0,0,3.319-4.764Z" transform="translate(-151.418 -294.699)" fill="#ffb8b8"/>
  <path id="Path_6699" data-name="Path 6699" d="M201.7,402.293l16.067,7.246L226.8,415.7l5.291-9.119-6.73-6.785L205.637,385.87c-3.086-2.179-7.1-1.218-9.19,2.2h0a8.853,8.853,0,0,0,1.542,11.064Z" transform="translate(-143.129 -291.182)" fill="#2f2e41"/>
  <path id="Path_6700" data-name="Path 6700" d="M214.005,339.8H197.367v-8.418c3.652-1.684,7.225-3.116,9.386,0,4.005,0,7.252,3.769,7.252,8.418Z" transform="translate(-144.103 -271.596)" fill="#2f2e41"/>
  <path id="Path_6701" data-name="Path 6701" d="M192.527,331.092c-9.946.051-12.731,14.472-12.731,22.636,0,4.553,1.774,6.182,4.562,6.733l.984-6.094,2.306,6.357c.783,0,1.606-.013,2.458-.031l.782-1.868,1.743,1.835c6.982.012,17.129-.712,12.626-6.93C199.225,345.4,201.2,331.047,192.527,331.092Z" transform="translate(-136.294 -272.146)" fill="#2f2e41"/>
  <path id="Path_6702" data-name="Path 6702" d="M1012.874,377.253a15.661,15.661,0,0,1-.192-5.919,85.636,85.636,0,0,1,2.462-11.128,50.677,50.677,0,0,0,1.94-11.244,19.389,19.389,0,0,0-2.574-10.882c-1.969-3.079-5.324-5.1-8.589-4.517a7.7,7.7,0,0,0-5.86,7.443,3.021,3.021,0,0,0,1.19,3.47,14.251,14.251,0,0,0,3.571,1.241,9.542,9.542,0,0,1,5.366,5.512,15.429,15.429,0,0,1,.778,8.369,62.9,62.9,0,0,1-2.365,7.868,15.578,15.578,0,0,0-.7,8.167c1.119,4.087,4.662,6.592,8.3,5.873A6.1,6.1,0,0,1,1012.874,377.253Z" transform="translate(-500.726 -272.987)" fill="#2f2e41"/>
  <path id="Path_6703" data-name="Path 6703" d="M654.888,659.6H102.056a.652.652,0,0,1,0-1.29H654.888a.652.652,0,0,1,0,1.29Z" transform="translate(-101.5 -388.334)" fill="#cacaca"/>
  <path id="Path_6704" data-name="Path 6704" d="M856.9,598.892c-1.078-10.063-6.451-19.977-14.718-23.252a53.8,53.8,0,0,1,0,32.076c-1.27,3.989-3.041,8.272-1.846,12.292a9.951,9.951,0,0,0,4.6,5.612,24.089,24.089,0,0,0,6.518,2.326l.439.421C855.42,619.1,857.975,608.954,856.9,598.892Z" transform="translate(-429.653 -358.979)" fill="#f0f0f0"/>
  <path id="Path_6705" data-name="Path 6705" d="M843.784,575.713a43.243,43.243,0,0,1,8.552,22.474,19.918,19.918,0,0,1-.168,5.384,10.442,10.442,0,0,1-2.113,4.575,20.028,20.028,0,0,0-2.729,3.792,6.922,6.922,0,0,0-.254,4.93,16.052,16.052,0,0,0,3,5.186,15.757,15.757,0,0,1,3.327,5.765c.069.276.435.136.366-.14-.992-3.969-4.311-6.224-5.894-9.8a6.99,6.99,0,0,1-.356-5.366,15.651,15.651,0,0,1,2.708-3.911,11.006,11.006,0,0,0,2.21-4.384,18.379,18.379,0,0,0,.346-5.357,43.957,43.957,0,0,0-2.438-11.773,42.106,42.106,0,0,0-6.3-11.711C843.874,575.164,843.62,575.5,843.784,575.713Z" transform="translate(-431.34 -358.862)" fill="#fff"/>
  <path id="Path_6706" data-name="Path 6706" d="M858.831,603.021a5.96,5.96,0,0,0,3.929-6.276.194.194,0,1,0-.385.022,5.514,5.514,0,0,1-3.665,5.829C858.469,602.663,858.591,603.087,858.831,603.021Z" transform="translate(-437.938 -366.401)" fill="#fff"/>
  <path id="Path_6707" data-name="Path 6707" d="M852.254,621.64a11.463,11.463,0,0,1-4.443-6.65c-.07-.276-.435-.136-.366.14a11.913,11.913,0,0,0,4.635,6.909C852.294,622.186,852.466,621.786,852.254,621.64Z" transform="translate(-432.987 -372.898)" fill="#fff"/>
  <path id="Path_6708" data-name="Path 6708" d="M849.829,587.468a2.572,2.572,0,0,1-2.769-.163c-.212-.15-.384.25-.173.4a2.881,2.881,0,0,0,3.063.188.241.241,0,0,0,.122-.282.189.189,0,0,0-.243-.142Z" transform="translate(-432.7 -363.11)" fill="#fff"/>
  <path id="Path_6709" data-name="Path 6709" d="M798.616,602.92c.13.1.26.2.39.3a39.9,39.9,0,0,1,4.92,4.458c.12.125.24.253.357.381a47.417,47.417,0,0,1,8.809,14,50.4,50.4,0,0,1,2.158,6.48c.8,3.067,1.449,6.465,3.025,8.973a7.712,7.712,0,0,0,.526.754h14.243c.032-.019.065-.034.1-.053l.569.03c-.023-.117-.049-.238-.072-.354-.013-.068-.029-.136-.042-.2-.01-.045-.02-.09-.026-.132,0-.015-.006-.03-.01-.042-.007-.041-.016-.079-.023-.117q-.214-1.013-.442-2.025s0,0,0-.008a74.187,74.187,0,0,0-4.874-14.854c-.065-.14-.13-.283-.2-.422a44.812,44.812,0,0,0-3.376-5.944q-1.042-1.533-2.213-2.938a28.408,28.408,0,0,0-6.915-6.012c-5.108-3.131-11.022-4.33-16.482-2.418C798.892,602.818,798.756,602.867,798.616,602.92Z" transform="translate(-411.292 -368.286)" fill="#f0f0f0"/>
  <path id="Path_6710" data-name="Path 6710" d="M798.54,603.586a33.484,33.484,0,0,1,18.486,11.967,17.475,17.475,0,0,1,2.658,4.417,11.3,11.3,0,0,1,.685,5.129,23.654,23.654,0,0,0-.213,4.935,6.16,6.16,0,0,0,2.354,4.114,12.335,12.335,0,0,0,5.082,2.048c1.963.437,4.008.855,5.647,2.278.2.172.417-.2.219-.367-2.851-2.476-6.671-1.957-9.789-3.705a5.911,5.911,0,0,1-3.068-4.036,18.345,18.345,0,0,1,.134-5.015,12.107,12.107,0,0,0-.509-5.044,16.391,16.391,0,0,0-2.5-4.519,35.018,35.018,0,0,0-8.053-7.7,32.264,32.264,0,0,0-11.1-4.951C798.327,603.084,798.3,603.531,798.54,603.586Z" transform="translate(-411.184 -368.742)" fill="#fff"/>
  <path id="Path_6711" data-name="Path 6711" d="M828.9,614.841a6.74,6.74,0,0,0-.118-7.757c-.164-.215-.46.071-.3.287a6.239,6.239,0,0,1,.1,7.216C828.427,614.809,828.744,615.062,828.9,614.841Z" transform="translate(-424.545 -370.118)" fill="#fff"/>
  <path id="Path_6712" data-name="Path 6712" d="M832.417,634.684a8.964,8.964,0,0,1-7-2.205c-.2-.172-.418.2-.219.367a9.32,9.32,0,0,0,7.285,2.278C832.732,635.091,832.662,634.652,832.417,634.684Z" transform="translate(-423.071 -379.146)" fill="#fff"/>
  <path id="Path_6713" data-name="Path 6713" d="M810.456,608a2.954,2.954,0,0,1-2.3,1.8c-.247.028-.176.468.069.44a3.307,3.307,0,0,0,2.543-1.99.256.256,0,0,0-.049-.311.177.177,0,0,0-.268.056Z" transform="translate(-415.465 -370.436)" fill="#fff"/>
  <path id="Path_6714" data-name="Path 6714" d="M293.394,598.892c1.078-10.063,6.451-19.977,14.718-23.252a53.8,53.8,0,0,0,0,32.076c1.27,3.989,3.041,8.272,1.846,12.292a9.951,9.951,0,0,1-4.6,5.612,24.09,24.09,0,0,1-6.518,2.326l-.439.421C294.871,619.1,292.316,608.954,293.394,598.892Z" transform="translate(-186.665 -358.979)" fill="#f0f0f0"/>
  <path id="Path_6715" data-name="Path 6715" d="M312.247,575.713a43.244,43.244,0,0,0-8.552,22.474,19.919,19.919,0,0,0,.168,5.384,10.443,10.443,0,0,0,2.113,4.575,20.022,20.022,0,0,1,2.73,3.792,6.922,6.922,0,0,1,.254,4.93,16.053,16.053,0,0,1-3,5.186,15.758,15.758,0,0,0-3.327,5.765c-.069.276-.435.136-.366-.14.992-3.969,4.311-6.224,5.894-9.8a6.99,6.99,0,0,0,.356-5.366,15.654,15.654,0,0,0-2.708-3.911,11.005,11.005,0,0,1-2.21-4.384,18.378,18.378,0,0,1-.346-5.357,43.956,43.956,0,0,1,2.438-11.773,42.106,42.106,0,0,1,6.3-11.711c.165-.214.418.123.255.335Z" transform="translate(-190.717 -358.862)" fill="#fff"/>
  <path id="Path_6716" data-name="Path 6716" d="M301.871,603.021a5.96,5.96,0,0,1-3.929-6.276.194.194,0,1,1,.385.022,5.514,5.514,0,0,0,3.665,5.829C302.233,602.663,302.111,603.087,301.871,603.021Z" transform="translate(-188.791 -366.401)" fill="#fff"/>
  <path id="Path_6717" data-name="Path 6717" d="M307.873,621.64a11.462,11.462,0,0,0,4.442-6.65c.07-.276.435-.136.366.14a11.913,11.913,0,0,1-4.635,6.909c-.214.147-.386-.253-.173-.4Z" transform="translate(-193.167 -372.898)" fill="#fff"/>
  <path id="Path_6718" data-name="Path 6718" d="M311.6,587.468a2.572,2.572,0,0,0,2.769-.163c.212-.15.384.25.173.4a2.881,2.881,0,0,1-3.063.188.241.241,0,0,1-.122-.282.189.189,0,0,1,.243-.142Z" transform="translate(-194.754 -363.11)" fill="#fff"/>
  <path id="Path_6719" data-name="Path 6719" d="M337.372,602.92c-.13.1-.26.2-.39.3a39.905,39.905,0,0,0-4.92,4.458c-.12.124-.241.253-.358.381a47.416,47.416,0,0,0-8.809,14,50.414,50.414,0,0,0-2.158,6.48c-.8,3.066-1.449,6.465-3.025,8.973a7.727,7.727,0,0,1-.526.754H302.944c-.032-.019-.065-.034-.1-.053l-.569.03c.023-.117.049-.238.072-.354.013-.068.029-.136.042-.2.01-.045.02-.09.026-.132,0-.015.007-.03.01-.042.007-.041.016-.079.023-.117q.214-1.013.442-2.025s0,0,0-.008a74.189,74.189,0,0,1,4.874-14.854c.065-.14.13-.283.2-.422a44.817,44.817,0,0,1,3.376-5.944q1.042-1.533,2.213-2.938a28.408,28.408,0,0,1,6.915-6.012c5.108-3.131,11.022-4.33,16.482-2.418C337.1,602.818,337.232,602.867,337.372,602.92Z" transform="translate(-190.724 -368.286)" fill="#f0f0f0"/>
  <path id="Path_6720" data-name="Path 6720" d="M337.393,603.586a33.484,33.484,0,0,0-18.486,11.967,17.472,17.472,0,0,0-2.658,4.417,11.294,11.294,0,0,0-.685,5.129,23.652,23.652,0,0,1,.213,4.935,6.159,6.159,0,0,1-2.354,4.114,12.333,12.333,0,0,1-5.082,2.047c-1.963.437-4.008.855-5.647,2.278-.2.173-.417-.2-.219-.367,2.851-2.476,6.671-1.957,9.789-3.7a5.91,5.91,0,0,0,3.068-4.036,18.346,18.346,0,0,0-.134-5.015,12.105,12.105,0,0,1,.509-5.044,16.392,16.392,0,0,1,2.5-4.519,35.02,35.02,0,0,1,8.053-7.7,32.262,32.262,0,0,1,11.1-4.951c.242-.056.27.39.03.446Z" transform="translate(-190.776 -368.742)" fill="#fff"/>
  <path id="Path_6721" data-name="Path 6721" d="M333.851,614.842a6.74,6.74,0,0,1,.118-7.757c.164-.215.46.071.3.287a6.239,6.239,0,0,0-.1,7.215C334.326,614.809,334.009,615.062,333.851,614.842Z" transform="translate(-204.235 -370.118)" fill="#fff"/>
  <path id="Path_6722" data-name="Path 6722" d="M325.628,634.684a8.964,8.964,0,0,0,7-2.205c.2-.172.418.2.219.367a9.32,9.32,0,0,1-7.285,2.278c-.247-.032-.177-.471.069-.44Z" transform="translate(-201.001 -379.146)" fill="#fff"/>
  <path id="Path_6723" data-name="Path 6723" d="M351.364,608a2.954,2.954,0,0,0,2.3,1.8c.247.028.177.468-.069.44a3.307,3.307,0,0,1-2.543-1.99.256.256,0,0,1,.049-.311.177.177,0,0,1,.268.057Z" transform="translate(-212.382 -370.435)" fill="#fff"/>
</svg>
