<svg xmlns="http://www.w3.org/2000/svg" xmlns:xlink="http://www.w3.org/1999/xlink" width="94" height="94" viewBox="0 0 94 94">
  <defs>
    <filter id="Ellipse_186" x="0" y="0" width="94" height="94" filterUnits="userSpaceOnUse">
      <feOffset dy="3" input="SourceAlpha"/>
      <feGaussianBlur stdDeviation="3" result="blur"/>
      <feFlood flood-color="#9f9f9f" flood-opacity="0.161"/>
      <feComposite operator="in" in2="blur"/>
      <feComposite in="SourceGraphic"/>
    </filter>
  </defs>
  <g id="Social_media" data-name="Social media" transform="translate(9 6)">
    <g id="Group_7067" data-name="Group 7067" transform="translate(-206 -1001)">
      <g transform="matrix(1, 0, 0, 1, 197, 995)" filter="url(#Ellipse_186)">
        <circle id="Ellipse_186-2" data-name="Ellipse 186" cx="38" cy="38" r="38" transform="translate(9 6)" fill="#c8ddff"/>
      </g>
    </g>
    <g id="network" transform="translate(13 13)">
      <path id="Path_8324" data-name="Path 8324" d="M72.554,104.485H61.275a.727.727,0,0,0,0,1.454H72.554a.727.727,0,0,0,0-1.454Z" transform="translate(-54.678 -94.355)" fill="#403294"/>
      <path id="Path_8325" data-name="Path 8325" d="M72.554,58.989H61.275a.727.727,0,0,0,0,1.454H72.554a.727.727,0,0,0,0-1.454Z" transform="translate(-54.678 -53.27)" fill="#403294"/>
      <path id="Path_8326" data-name="Path 8326" d="M8.6,17.2H9.956l.018.015,4.5,3.668a1.02,1.02,0,0,0,.645.293.761.761,0,0,0,.258-.046.868.868,0,0,0,.534-.741c0-.027.01-.056.017-.091l.614-3.123A8.6,8.6,0,0,0,15.873,0H13.847a.727.727,0,0,0,0,1.454h2.026a7.146,7.146,0,0,1,.308,14.286.9.9,0,0,0-.994.793l-.517,2.632-3.777-3.079-.074-.061a1.018,1.018,0,0,0-.793-.281H8.6a7.145,7.145,0,1,1,0-14.29h1.866a.727.727,0,1,0,0-1.454H8.6a8.6,8.6,0,1,0,0,17.2Z" transform="translate(0)" fill="#403294"/>
      <path id="Path_8327" data-name="Path 8327" d="M275.356,71.363c.126-.031.227-.057.311-.079l.143-.037c.051.018.135.053.217.086l.146.059a11.794,11.794,0,1,0-2.3-20.677.727.727,0,0,0,.824,1.2,10.336,10.336,0,1,1,2.02,18.129l-.138-.056a1.535,1.535,0,0,0-1.28-.109c-.075.02-.167.044-.28.072l-4.259,1.024.97-4.034.019-.081a1.276,1.276,0,0,0-.135-1.224c-.04-.065-.085-.138-.141-.24A10.353,10.353,0,0,1,272.454,54a.727.727,0,1,0-1.137-.906,11.807,11.807,0,0,0-1.121,13c.069.126.126.219.169.289-.009.041-.021.089-.032.137L269.182,71.3a1.083,1.083,0,0,0,.174,1.077.823.823,0,0,0,.609.242,1.962,1.962,0,0,0,.451-.066Z" transform="translate(-242.697 -43.928)" fill="#403294"/>
      <path id="Path_8328" data-name="Path 8328" d="M319.62,109.8h1.85a1.489,1.489,0,0,0,1.3-.761h.488a4.011,4.011,0,0,1,.5.015,1.365,1.365,0,0,1,.143.173,3.08,3.08,0,0,0,2.216.961h3.947a1.644,1.644,0,0,0,1.642-1.642v-5.3a1.644,1.644,0,0,0-1.642-1.642h-1.394a3.288,3.288,0,0,0-.129-2.233,3.175,3.175,0,0,0-1.954-1.6l-.111-.04a1.073,1.073,0,0,0-.969,0,1.285,1.285,0,0,0-.526.974,7.726,7.726,0,0,1-.784,2.132c-.518.962-.9,1.169-.979,1.172h-.446a1.489,1.489,0,0,0-1.3-.759h-1.85a1.489,1.489,0,0,0-1.489,1.486v5.576A1.49,1.49,0,0,0,319.62,109.8Zm6.73-10.567a1.6,1.6,0,0,1,.867.751,2.328,2.328,0,0,1-.133,1.79.925.925,0,0,0,.058.9.909.909,0,0,0,.8.379h2.113a.19.19,0,0,1,.188.188v5.3a.188.188,0,0,1-.188.188h-3.947a1.776,1.776,0,0,1-1.052-.377,1.763,1.763,0,0,0-1.791-.772h-.311v-4.122h.254C324.928,103.458,326.054,100.48,326.35,99.229Zm-6.764,3.5a.036.036,0,0,1,.034-.031h1.85a.036.036,0,0,1,.034.031v5.576a.038.038,0,0,1-.034.034h-1.85a.038.038,0,0,1-.034-.034Z" transform="translate(-287.287 -88.141)" fill="#403294"/>
      <path id="Path_8329" data-name="Path 8329" d="M13.232,239.018A13.229,13.229,0,0,0,5.305,262.84a.728.728,0,0,0,.154.113,13.2,13.2,0,0,0,15.555-.006.727.727,0,0,0,.136-.1,13.228,13.228,0,0,0-7.918-23.83Zm-6.7,22.915v-.507c0-1.785.961-2.371,2.579-2.86l3.018,1.77a2.036,2.036,0,0,0,1.1.381,2.037,2.037,0,0,0,1.1-.381l3.018-1.77c1.616.488,2.577,1.074,2.577,2.86v.508a11.751,11.751,0,0,1-13.4,0Zm2.108-11.555a3.329,3.329,0,0,0,1.722-1.043c.331-.337.365-.373.686-.29.265.068.49.129.687.181a5.8,5.8,0,0,0,1.5.287,5.761,5.761,0,0,0,1.492-.286c.2-.053.424-.114.69-.182.323-.083.358-.048.688.29a3.325,3.325,0,0,0,1.721,1.043v1c0,1.638-1.673,3.751-3.51,4.433a2.737,2.737,0,0,1-2.158,0c-1.839-.682-3.513-2.795-3.513-4.433v-1Zm.058-1.555a4.658,4.658,0,0,1,4.533-4.338,4.658,4.658,0,0,1,4.533,4.338,2.356,2.356,0,0,1-.624-.5,1.925,1.925,0,0,0-2.09-.68c-.271.07-.5.132-.7.186a5.073,5.073,0,0,1-1.116.236,5.129,5.129,0,0,1-1.12-.238c-.2-.053-.429-.115-.7-.185a1.924,1.924,0,0,0-2.088.68A2.358,2.358,0,0,1,8.7,248.823Zm2.831,8.307.118.047a4.166,4.166,0,0,0,3.169,0c.039-.015.078-.031.117-.046a2.311,2.311,0,0,0,.623.8l-1.971,1.156-.027.017c-.32.207-.332.207-.653,0l-.027-.017-1.971-1.156A2.3,2.3,0,0,0,11.53,257.131Zm9.817,3.65c-.32-2.751-2.7-3.387-4.471-3.858l-.341-.091c-.128-.035-.236-.207-.32-.39a6.78,6.78,0,0,0,3.061-5.059v-1.627a6.857,6.857,0,0,0-1.874-4.976,5.974,5.974,0,0,0-4.159-1.748H13.22a5.973,5.973,0,0,0-4.158,1.747,6.856,6.856,0,0,0-1.875,4.976v1.627a6.78,6.78,0,0,0,3.063,5.059c-.084.184-.19.355-.316.39l-.338.091c-1.774.472-4.157,1.108-4.479,3.858a11.779,11.779,0,1,1,16.231,0Z" transform="translate(0 -215.845)" fill="#403294"/>
      <path id="Path_8330" data-name="Path 8330" d="M297.985,321.407a9.243,9.243,0,0,0-8.864,6.637c-.022.075-.039.138-.052.191l-.034.021-3.225,1.975a.987.987,0,0,0-.569.828.967.967,0,0,0,.563.809l3.333,2.043c.086.052.156.093.214.126l.049.029.047.111.048.114a9.24,9.24,0,1,0,8.491-12.886Zm5.506,14.744a7.791,7.791,0,0,1-12.66-2.43l-.045-.106a1.342,1.342,0,0,0-.707-.834c-.051-.029-.112-.065-.186-.11l-2.64-1.619,2.54-1.556a1.151,1.151,0,0,0,.669-.84c.012-.051.028-.115.054-.2a7.785,7.785,0,1,1,12.975,7.7Z" transform="translate(-257.585 -290.246)" fill="#403294"/>
      <path id="Path_8331" data-name="Path 8331" d="M370.247,375.8a2.96,2.96,0,0,0-4.036.051,3.377,3.377,0,0,0,0,4.652l.018.018,3.512,3.391a.727.727,0,0,0,1.01,0l3.515-3.391.018-.019a3.376,3.376,0,0,0,0-4.651A2.959,2.959,0,0,0,370.247,375.8Zm3,3.684-3,2.894-3-2.894a1.91,1.91,0,0,1,.008-2.623,1.523,1.523,0,0,1,2.1.1l.034.032a1.038,1.038,0,0,0,1.706,0l.035-.033a1.522,1.522,0,0,1,2.1-.094A1.91,1.91,0,0,1,373.246,379.489Z" transform="translate(-329.867 -338.675)" fill="#403294"/>
    </g>
  </g>
</svg>
