<svg xmlns="http://www.w3.org/2000/svg" width="94" height="94" viewBox="0 0 94 94">
  <path id="data-scientist" d="M60.961,78.21c2.616,8,13.555,8.3,16.019,0C83.03,83.871,92.631,79.641,94,91.018A2.984,2.984,0,0,1,90.94,94H46.992a2.984,2.984,0,0,1-3.06-2.981C45.233,80.2,55.231,83.569,60.961,78.21ZM4.666,32.049H72.55V5.645a.721.721,0,0,0-.229-.557.684.684,0,0,0-.535-.239H5.431a.669.669,0,0,0-.535.239.623.623,0,0,0-.229.557ZM72.55,36.12H4.666V88.514a.737.737,0,0,0,.229.557.669.669,0,0,0,.535.239l27.983-.079h0a2.387,2.387,0,0,1,0,4.77H5.431a5.346,5.346,0,0,1-3.825-1.67A5.627,5.627,0,0,1,0,88.355V5.645A5.627,5.627,0,0,1,1.606,1.67,5.212,5.212,0,0,1,5.431,0H71.709a5.346,5.346,0,0,1,3.825,1.67A5.627,5.627,0,0,1,77.14,5.645V39.658a2.3,2.3,0,1,1-4.59,0ZM25.015,11.743h4.873a.285.285,0,0,1,.221.088.309.309,0,0,1,.085.23V29.767a.309.309,0,0,1-.085.23.285.285,0,0,1-.221.088H25.015A.284.284,0,0,1,24.788,30a.309.309,0,0,1-.087-.233V12.061a.309.309,0,0,1,.087-.233.284.284,0,0,1,.226-.085ZM36.13,18.469H41.01a.285.285,0,0,1,.221.088.309.309,0,0,1,.085.23V29.7a.309.309,0,0,1-.085.23.285.285,0,0,1-.221.088H36.13a.285.285,0,0,1-.221-.088.309.309,0,0,1-.085-.23V18.787a.336.336,0,0,1,.306-.318Zm22.245,0h4.873a.284.284,0,0,1,.226.085.309.309,0,0,1,.087.233V29.7a.309.309,0,0,1-.087.233.284.284,0,0,1-.226.085H58.375a.285.285,0,0,1-.221-.088.309.309,0,0,1-.085-.23V18.787A.336.336,0,0,1,58.375,18.469ZM47.252,11.743h4.873a.284.284,0,0,1,.226.085.309.309,0,0,1,.087.233V29.767a.309.309,0,0,1-.087.233.284.284,0,0,1-.226.085H47.252A.285.285,0,0,1,47.031,30a.309.309,0,0,1-.085-.23V12.061a.309.309,0,0,1,.085-.23A.285.285,0,0,1,47.252,11.743ZM13.9,14.176h4.873a.284.284,0,0,1,.229.087.309.309,0,0,1,.084.239V29.767A.309.309,0,0,1,19,30a.284.284,0,0,1-.226.085H13.9A.285.285,0,0,1,13.678,30a.309.309,0,0,1-.085-.23V14.5c-.061-.2.122-.326.306-.326ZM30.423,65.06l13.112.239a14.765,14.765,0,0,1-6.166,12.109L30.423,65.02ZM29.7,60.894l-.153-15.9V43.935l1,.08h0a17.8,17.8,0,0,1,3.626.644A17.906,17.906,0,0,1,46.832,61.22l.076,1.042H45.9l-15.192-.477h-.872l-.153-.962Zm1.851-.962,13.349.4a16.434,16.434,0,0,0-8.262-12.705,16.4,16.4,0,0,0-4.444-1.59c-.26-.048-.528-.1-.765-.119l.153,13.953ZM26.009,63.6l7.481,13.516A14.474,14.474,0,0,1,18.519,77.1,15.676,15.676,0,0,1,11.062,63.6,15.3,15.3,0,0,1,25.412,48.045Zm32.672-.064a1.892,1.892,0,0,0-.926.3.849.849,0,0,0-.321.382,1.456,1.456,0,0,0-.107.628,6.545,6.545,0,0,0,1.178,2.934l2.479,4.095A21.7,21.7,0,0,0,64.3,76.4a6.51,6.51,0,0,0,4.666,1.956,6.746,6.746,0,0,0,4.965-2.027,23.035,23.035,0,0,0,3.4-4.826l2.785-4.77c.566-1.336.765-2.155.551-2.552-.107-.223-.49-.3-1.109-.27a2.669,2.669,0,0,1-1.53-.048l1.125-3.3a21.088,21.088,0,0,1-12.714-3.729c-1.362-.9-1.767-1.932-3.121-1.829a4.543,4.543,0,0,0-2.563,1.447,6.971,6.971,0,0,0-1.476,3.013l.826,4.118a2.6,2.6,0,0,1-1.408,0Zm22.184-1.185a1.961,1.961,0,0,1,1.262,1.065c.413.875.245,2.171-.535,4.023h0l-.046.1-2.83,4.8a23.954,23.954,0,0,1-3.687,5.192,8.247,8.247,0,0,1-6.066,2.5,8.045,8.045,0,0,1-5.76-2.385,22.7,22.7,0,0,1-3.6-4.858L57.136,68.7a7.751,7.751,0,0,1-1.423-3.792,3.183,3.183,0,0,1,.252-1.4,2.628,2.628,0,0,1,.9-1.081,3.191,3.191,0,0,1,.65-.342,47.748,47.748,0,0,1-.1-6.027,10.628,10.628,0,0,1,.3-1.67A9.858,9.858,0,0,1,61.9,48.825,11.44,11.44,0,0,1,64.2,47.688c4.758-1.789,11.062-.8,14.435,2.981a10.2,10.2,0,0,1,2.425,6.313L80.9,62.333Z" transform="translate(0)" fill="#34b17e" fill-rule="evenodd"/>
</svg>
