<svg id="undraw_Data_points_re_vkpq" xmlns="http://www.w3.org/2000/svg" width="474.693" height="322.481" viewBox="0 0 474.693 322.481">
  <path id="Path_6539" data-name="Path 6539" d="M214.467,683.247a20.07,20.07,0,0,0,6.555-16.768c-.721-6.263-5.187-12.02-10.981-13.35a12.329,12.329,0,0,0-14.157,8.376c-.968-11.616-2.084-23.718-7.885-33.61-5.252-8.957-14.35-15.366-24.209-16.512A29.144,29.144,0,0,0,137.4,622.853c-6.149,8.285-7.655,20.329-3.348,29.841,3.173,7.007,9.017,12.221,15.141,16.464a92.981,92.981,0,0,0,66.836,15.566Z" transform="translate(-130.038 -363.571)" fill="#f2f2f2"/>
  <path id="Path_6540" data-name="Path 6540" d="M160.887,617.723a165.352,165.352,0,0,1,22.282,23.556,173.7,173.7,0,0,1,17.572,27.687,177.187,177.187,0,0,1,7.525,16.962c.452,1.179-1.346,1.692-1.793.526a172.961,172.961,0,0,0-14.5-29.21,168.491,168.491,0,0,0-19.449-25.579,163.427,163.427,0,0,0-12.95-12.542C158.644,618.318,159.966,616.925,160.887,617.723Z" transform="translate(-143.774 -366.487)" fill="#fff"/>
  <path id="Path_6541" data-name="Path 6541" d="M587.527,149.129H342.378a3.647,3.647,0,0,0-3.524,3.751V329.732a3.647,3.647,0,0,0,3.524,3.751H587.527a3.647,3.647,0,0,0,3.524-3.751V152.881A3.647,3.647,0,0,0,587.527,149.129Zm2.517,180.6a2.6,2.6,0,0,1-2.517,2.68H342.378a2.6,2.6,0,0,1-2.517-2.679V152.881a2.6,2.6,0,0,1,2.517-2.68H587.527a2.6,2.6,0,0,1,2.517,2.68Z" transform="translate(-232.965 -149.129)" fill="#3f3d56"/>
  <rect id="Rectangle_4119" data-name="Rectangle 4119" width="251.19" height="1.072" transform="translate(106.393 15.027)" fill="#3f3d56"/>
  <ellipse id="Ellipse_122" data-name="Ellipse 122" cx="3.02" cy="3.215" rx="3.02" ry="3.215" transform="translate(111.93 4.823)" fill="#3f3d56"/>
  <ellipse id="Ellipse_123" data-name="Ellipse 123" cx="3.02" cy="3.215" rx="3.02" ry="3.215" transform="translate(120.614 4.823)" fill="#3f3d56"/>
  <ellipse id="Ellipse_124" data-name="Ellipse 124" cx="3.02" cy="3.215" rx="3.02" ry="3.215" transform="translate(129.297 4.823)" fill="#3f3d56"/>
  <path id="Path_6542" data-name="Path 6542" d="M586.162,217.132H543.878a3.759,3.759,0,0,1,0-7.5h42.284a3.759,3.759,0,0,1,0,7.5Z" transform="translate(-333.032 -177.206)" fill="#ccc"/>
  <path id="Path_6543" data-name="Path 6543" d="M586.552,251.132H486.378a3.759,3.759,0,0,1,0-7.5H586.552a3.759,3.759,0,0,1,0,7.5Z" transform="translate(-304.477 -192.985)" fill="#ccc"/>
  <path id="Path_6544" data-name="Path 6544" d="M729.6,431.181c-10.6,0-19.2-9.151-19.2-20.439s8.6-20.439,19.2-20.439,19.2,9.151,19.2,20.439-8.6,20.426-19.2,20.439Zm0-39.468c-9.872,0-17.874,8.52-17.874,19.029s8,19.029,17.874,19.029,17.874-8.52,17.874-19.029-8.007-19.017-17.874-19.029Z" transform="translate(-417.478 -261.055)" fill="#3f3d56"/>
  <path id="Path_6545" data-name="Path 6545" d="M409.859,329.039c-10.6,0-19.2-9.151-19.2-20.439s8.6-20.439,19.2-20.439,19.2,9.151,19.2,20.439S420.457,329.026,409.859,329.039Zm0-39.468c-9.872,0-17.874,8.52-17.874,19.029s8,19.029,17.874,19.029,17.874-8.52,17.874-19.029S419.726,289.583,409.859,289.571Z" transform="translate(-258.693 -213.652)" fill="#3f3d56"/>
  <path id="Path_6546" data-name="Path 6546" d="M427.031,327.751a1.961,1.961,0,0,1-1.9-2.016V314.267a1.96,1.96,0,0,1,1.894-2.016h0a1.96,1.96,0,0,1,1.894,2.016v11.468A1.96,1.96,0,0,1,427.031,327.751Zm-4.945,0a1.844,1.844,0,0,1-1.355-.583,2.092,2.092,0,0,1-.567-1.434v-6.177a1.96,1.96,0,0,1,1.894-2.016h.027a1.96,1.96,0,0,1,1.894,2.016v6.177A1.96,1.96,0,0,1,422.086,327.751Zm-4.993,0a1.961,1.961,0,0,1-1.9-2.016V308.1a1.96,1.96,0,0,1,1.894-2.017h0a1.96,1.96,0,0,1,1.894,2.016v17.636A1.96,1.96,0,0,1,417.092,327.751Zm-4.974,0a1.838,1.838,0,0,1-1.341-.59,2.084,2.084,0,0,1-.555-1.428l0-2.649a1.9,1.9,0,1,1,3.788,0v2.649A1.96,1.96,0,0,1,412.118,327.751Z" transform="translate(-268.407 -221.969)" fill="#286efa"/>
  <path id="Path_6547" data-name="Path 6547" d="M988.4,713.039c-10.6,0-19.2-9.151-19.2-20.439s8.6-20.439,19.2-20.439,19.2,9.151,19.2,20.439S999,713.026,988.4,713.039Zm0-39.468c-9.872,0-17.874,8.52-17.874,19.029s8,19.029,17.874,19.029,17.874-8.52,17.874-19.029S998.269,673.583,988.4,673.571Z" transform="translate(-546.005 -391.862)" fill="#3f3d56"/>
  <path id="Path_6548" data-name="Path 6548" d="M1003.152,703.345l-3.743,6.093a2.247,2.247,0,0,1,.462,1.38,2.063,2.063,0,1,1-4.118,0,2.759,2.759,0,0,1,.036-.421l-2.47-1.532a1.958,1.958,0,0,1-2.442.328l-2.628,2.621v2.613a1.9,1.9,0,0,0,1.83,1.952h15.56a1.9,1.9,0,0,0,1.834-1.952v-9.69l-2.514-1.78a1.97,1.97,0,0,1-1.806.387Z" transform="translate(-555.462 -406.154)" fill="#286efa"/>
  <path id="Path_6549" data-name="Path 6549" d="M991.891,700.3a2.129,2.129,0,0,1,2.059,2.192h0v.282l2.577,1.536a1.981,1.981,0,0,1,1.3-.5,2.143,2.143,0,0,1,.447.051l3.751-6.181a2.3,2.3,0,0,1,.02-2.563,1.982,1.982,0,0,1,2.294-.778,2.177,2.177,0,0,1,1.409,2.078,2.473,2.473,0,0,1-.055.518l1.775,1.262v-3.657a1.9,1.9,0,0,0-1.834-1.952H990.077a1.9,1.9,0,0,0-1.83,1.952v10.473l1.715-1.75a2.308,2.308,0,0,1,.242-2.009,2.022,2.022,0,0,1,1.687-.937Z" transform="translate(-555.462 -401.344)" fill="#6c63ff"/>
  <path id="Path_6550" data-name="Path 6550" d="M571.927,329.039c-10.6,0-19.2-9.151-19.2-20.439s8.6-20.439,19.2-20.439,19.2,9.151,19.2,20.439S582.525,329.026,571.927,329.039Zm0-39.468c-9.872,0-17.874,8.52-17.874,19.029s8,19.029,17.874,19.029S589.8,319.11,589.8,308.6s-8.007-19.017-17.874-19.029Z" transform="translate(-339.178 -213.652)" fill="#3f3d56"/>
  <path id="Path_6551" data-name="Path 6551" d="M569.228,327.292a1.4,1.4,0,0,1-1.289-.916,1.557,1.557,0,0,1,.3-1.619l7.094-7.573a1.148,1.148,0,0,1,.843-.373h0a1.149,1.149,0,0,1,.843.372l3.29,3.5a.689.689,0,0,0,.506.223h0a.688.688,0,0,0,.506-.223l4.645-4.953a.265.265,0,0,0,0-.359l-1.5-1.6a.8.8,0,0,1-.156-.83.716.716,0,0,1,.661-.47h5.338a.74.74,0,0,1,.715.762v5.679a.764.764,0,0,1-.441.7.684.684,0,0,1-.78-.165l-1.505-1.6a.228.228,0,0,0-.337,0l-6.29,6.692a1.149,1.149,0,0,1-.843.372h0a1.149,1.149,0,0,1-.843-.372l-3.291-3.5a.7.7,0,0,0-1.012,0l-5.465,5.818A1.345,1.345,0,0,1,569.228,327.292Z" transform="translate(-346.678 -224.936)" fill="#286efa"/>
  <path id="Path_6552" data-name="Path 6552" d="M571.927,429.039c-10.6,0-19.2-9.151-19.2-20.439s8.6-20.439,19.2-20.439,19.2,9.151,19.2,20.439S582.525,429.026,571.927,429.039Z" transform="translate(-339.178 -260.061)" fill="#e6e6e6"/>
  <path id="Path_6553" data-name="Path 6553" d="M729.927,326.039c-10.6,0-19.2-9.151-19.2-20.439s8.6-20.439,19.2-20.439,19.2,9.151,19.2,20.439S740.525,326.026,729.927,326.039Z" transform="translate(-417.643 -212.26)" fill="#e6e6e6"/>
  <path id="Path_6554" data-name="Path 6554" d="M419.518,388.161a18.368,18.368,0,0,0-9.408,2.626c8.568.806,15.382,7.993,16.22,17.106s-4.538,17.57-12.8,20.129a17.55,17.55,0,0,0,2.29.638,17.879,17.879,0,0,0,3.695.38c10.6,0,19.2-9.151,19.2-20.44S430.122,388.161,419.518,388.161Z" transform="translate(-268.352 -260.061)" fill="#e6e6e6"/>
  <path id="Path_6555" data-name="Path 6555" d="M391.7,390.687a17.527,17.527,0,0,0-3.695-.386c-10.253-.011-18.709,8.548-19.216,19.451s7.115,20.308,17.32,21.374,19.4-6.584,20.89-17.384-5.24-20.945-15.3-23.055Zm1.3,38.329a17.209,17.209,0,0,1-18.522-5.835,20.008,20.008,0,0,1-2.725-20.358A17.848,17.848,0,0,1,388.01,391.71c.529,0,1.052.027,1.571.07,8.568.806,15.382,7.993,16.22,17.106S401.262,426.456,393,429.015Z" transform="translate(-247.821 -261.054)" fill="#3f3d56"/>
  <path id="Path_6556" data-name="Path 6556" d="M415.7,414.006c-1.321-6.166-7.083-10.027-12.876-8.631-.272.066-.553.147-.8.229l2.566,12,11.274-2.726C415.817,414.6,415.765,414.3,415.7,414.006Z" transform="translate(-264.336 -267.917)" fill="#286efa"/>
  <path id="Path_6557" data-name="Path 6557" d="M405.891,419.256l-11.279,2.726-2.561-12c-5.474,1.8-8.662,7.856-7.251,13.769s6.926,9.612,12.545,8.414,9.371-6.872,8.536-12.907Z" transform="translate(-255.617 -270.187)" fill="#286efa"/>
  <path id="Path_6558" data-name="Path 6558" d="M801.8,571.181c-10.6,0-19.2-9.151-19.2-20.439s8.6-20.439,19.2-20.439,19.2,9.151,19.2,20.439S812.395,571.169,801.8,571.181Zm0-39.468c-9.872,0-17.874,8.52-17.874,19.029s8,19.029,17.874,19.029,17.874-8.52,17.874-19.029S811.664,531.726,801.8,531.714Z" transform="translate(-453.334 -326.027)" fill="#3f3d56"/>
  <path id="Path_6559" data-name="Path 6559" d="M817.345,569.54a3.79,3.79,0,1,1,3.551-3.785,3.673,3.673,0,0,1-3.551,3.785Zm-8.284,0a3.675,3.675,0,0,1-3.55-3.78v-8.819a3.557,3.557,0,1,1,7.1,0v8.819A3.675,3.675,0,0,1,809.061,569.54Zm-8.281,0a3.677,3.677,0,0,1-3.553-3.783v-3.524a3.56,3.56,0,1,1,7.106,0v3.524A3.677,3.677,0,0,1,800.78,569.54Z" transform="translate(-460.599 -336.635)" fill="#286efa"/>
  <path id="Path_6560" data-name="Path 6560" d="M206.1,568.705l5.852-.707.224-24.365-8.637,1.043Z" transform="translate(-101.082 -252.293)" fill="#a0616a"/>
  <path id="Path_6561" data-name="Path 6561" d="M0,.134,18.524,0l-.052,7.607L7.105,7.69A7.269,7.269,0,0,1,0,.134Z" transform="translate(122.792 320.26) rotate(173.526)" fill="#2f2e41"/>
  <path id="Path_6562" data-name="Path 6562" d="M89.08,568.748h5.889l2.8-24.183H89.079Z" transform="translate(-44.238 -252.725)" fill="#a0616a"/>
  <path id="Path_6563" data-name="Path 6563" d="M0,0H18.509V7.613H7.151A7.393,7.393,0,0,1,0,0H0Z" transform="translate(62.087 321.844) rotate(179.997)" fill="#2f2e41"/>
  <path id="Path_6564" data-name="Path 6564" d="M258.394,533.678l3.363,11.644,18.254,42.053,4.8,39.889-11.048.511-6.725-36.821-23.057-26.593-20.175,69.551-9.127-1.023s7.686-90.007,18.254-99.212C232.935,533.678,250.228,524.984,258.394,533.678Z" transform="translate(-171.298 -325.8)" fill="#2f2e41"/>
  <ellipse id="Ellipse_125" data-name="Ellipse 125" cx="11.798" cy="12.561" rx="11.798" ry="12.561" transform="translate(60.381 132.514)" fill="#a0616a"/>
  <path id="Path_6565" data-name="Path 6565" d="M272.1,499.094s1.441-52.163-18.734-48.583S241.6,504.464,241.6,504.464s4.323,9.205,14.891-1.023S272.1,499.094,272.1,499.094Z" transform="translate(-183.802 -288.915)" fill="#286efa"/>
  <path id="Path_6566" data-name="Path 6566" d="M364.725,453.4a4.814,4.814,0,0,1-3.446,2.34,4.642,4.642,0,0,1-3.9-1.31L342.269,463.1l.791-9.459,14.229-6.781a4.64,4.64,0,0,1,6.447-.245A5.4,5.4,0,0,1,364.725,453.4Z" transform="translate(-234.661 -286.637)" fill="#a0616a"/>
  <path id="Path_6567" data-name="Path 6567" d="M264.026,456.8l24.531,4.414,21.983-11.048,3.338,7.6-24.065,16.319s-25.478,1.842-31.368-5.311c-2.209-2.682-2.461-5.124-1.914-7.128a6.6,6.6,0,0,1,7.5-4.844Z" transform="translate(-191.959 -288.838)" fill="#286efa"/>
  <path id="Path_6568" data-name="Path 6568" d="M221.117,416.112a.536.536,0,0,0,.16-.432.524.524,0,0,0-.229-.4,7.446,7.446,0,0,1-3.238-6.611,7.328,7.328,0,0,1,3.9-6.193c3.469-1.761,8.169-.391,10.733-3.774a6.664,6.664,0,0,0,1.106-5.154c-.553-3.2-2.81-5.569-5.337-7.2a18.426,18.426,0,0,0-20.523.284,21.169,21.169,0,0,0-8.822,19.729c.326,3.076,1.218,6.524-.5,9.021-1.512,2.2-4.366,2.61-6.872,3.156a25.467,25.467,0,0,0-14.213,8.238,20.026,20.026,0,0,0-4.5,16.212c1.1,5.724,5.514,10.755,10.938,11.642,4.415.722,8.974-1.274,12.217-4.545s5.292-7.689,6.585-12.241c1.534-5.4,2.14-11.225,4.91-16.039,2.711-4.71,8.552-8.086,13.131-5.633a.468.468,0,0,0,.551-.07Z" transform="translate(-150.341 -257.84)" fill="#2f2e41"/>
  <path id="Path_6569" data-name="Path 6569" d="M941.286,553.111a5.147,5.147,0,0,0,2.57-3.438,5.462,5.462,0,0,0-.826-4.305L954.4,478.391l-10.608-.149L935.9,544.473a5.46,5.46,0,0,0-.909,6.868A4.734,4.734,0,0,0,941.286,553.111Z" transform="translate(-528.605 -301.866)" fill="#ffb8b8"/>
  <path id="Path_6570" data-name="Path 6570" d="M750.433,462.891l-4.027,20.365.5,45.553h7.551l3.524-44.481,5.537-18.757Z" transform="translate(-370.675 -214.822)" fill="#ffb8b8"/>
  <path id="Path_6571" data-name="Path 6571" d="M800.007,465.742l-4.027,20.365.5,45.553h7.551l3.524-44.481,5.537-18.757Z" transform="translate(-395.294 -216.145)" fill="#ffb8b8"/>
  <path id="Path_6572" data-name="Path 6572" d="M7.5,0,19.4,0V7.978L0,7.981H0A7.75,7.75,0,0,1,7.5,0Z" transform="translate(366.104 313.486) rotate(-0.144)" fill="#2f2e41"/>
  <path id="Path_6573" data-name="Path 6573" d="M7.5,0,19.4,0V7.978L0,7.981H0A7.75,7.75,0,0,1,7.5,0Z" transform="translate(391.244 314.348) rotate(-0.144)" fill="#2f2e41"/>
  <ellipse id="Ellipse_126" data-name="Ellipse 126" cx="12.364" cy="13.163" rx="12.364" ry="13.163" transform="translate(385.768 121.873)" fill="#ffb8b8"/>
  <path id="Path_6574" data-name="Path 6574" d="M929.6,448.675c-3.762-6.284-15.572-21.187-33.146-12.632a8.043,8.043,0,0,0-4.313,7.84c.851,11.95,1.923,42.4-7.23,60.617,0,0,26.68,8.575,41.278.536,0,0-5.034-35.906,0-42.873a29.374,29.374,0,0,0,4.034-7.356A7.3,7.3,0,0,0,929.6,448.675Z" transform="translate(-504.142 -281.083)" fill="#3f3d56"/>
  <path id="Path_6575" data-name="Path 6575" d="M959.436,461.02l4.94,2.191a1.993,1.993,0,0,1,1.15,1.757l.454,11.594-11.075-1.072Z" transform="translate(-538.904 -293.874)" fill="#3f3d56"/>
  <path id="Path_6576" data-name="Path 6576" d="M879.725,564.02s-11.074,21.972-9.061,42.337l15.605,2.68,11.074-28.4-2.517,28.939,16.108.536s10.571-41.8,7.047-45.553Z" transform="translate(-496.947 -341.674)" fill="#2f2e41"/>
  <path id="Path_6577" data-name="Path 6577" d="M852.058,519.634a4.878,4.878,0,0,0,3.433-2.44,5.488,5.488,0,0,0,.447-4.369L878.4,467.739l-10.06-3.587-18.944,45.5a5.321,5.321,0,0,0-2.834,6.245,4.906,4.906,0,0,0,5.491,3.732Z" transform="translate(-485.009 -295.327)" fill="#ffb8b8"/>
  <path id="Path_6578" data-name="Path 6578" d="M899,445.9l-4.161-1.982s-3.528-2.329-6.655,2.8-6.505,16.352-6.505,16.352l13.577,4.067Z" transform="translate(-502.539 -285.691)" fill="#3f3d56"/>
  <path id="Path_6579" data-name="Path 6579" d="M909.46,391.317c.444-1.641.316-3.861-1.179-4.482a5.029,5.029,0,0,0-2.479.022,6.325,6.325,0,0,1-4.571-1.339,13.984,13.984,0,0,1-3.407-4.9l-1.371-2.736a12.241,12.241,0,0,1-.778-1.783,7.345,7.345,0,0,1,1.761-7.011,9.242,9.242,0,0,1,6.525-2.724,16.707,16.707,0,0,1,6.972,1.59,30.8,30.8,0,0,1,10.4,7.436c1.929,2.1,3.685,4.838,3.282,7.744-.314,2.262-1.863,4.074-3.34,5.734l-5.358,6.022a7.933,7.933,0,0,1-3.288,2.586,2.664,2.664,0,0,1-3.393-1.61A17.75,17.75,0,0,1,909.46,391.317Z" transform="translate(-509.348 -249.944)" fill="#2f2e41"/>
  <path id="Path_6580" data-name="Path 6580" d="M602.69,749.943H129a.537.537,0,0,1,0-1.072H602.69a.537.537,0,0,1,0,1.072Z" transform="translate(-128.5 -427.461)" fill="#3f3d56"/>
  <path id="Path_6581" data-name="Path 6581" d="M747.14,441.658H733.046a1.611,1.611,0,0,1,0-3.215H747.14a1.611,1.611,0,0,1,0,3.215Z" transform="translate(-427.976 -283.396)" fill="#286efa"/>
  <path id="Path_6582" data-name="Path 6582" d="M747.14,428.658H733.046a1.611,1.611,0,0,1,0-3.215H747.14a1.611,1.611,0,0,1,0,3.215Z" transform="translate(-427.976 -277.362)" fill="#286efa"/>
  <path id="Path_6583" data-name="Path 6583" d="M747.14,415.658H733.046a1.611,1.611,0,0,1,0-3.215H747.14a1.611,1.611,0,0,1,0,3.215Z" transform="translate(-427.976 -271.329)" fill="#286efa"/>
</svg>
