<svg xmlns="http://www.w3.org/2000/svg" xmlns:xlink="http://www.w3.org/1999/xlink" width="811.884" height="449" viewBox="0 0 811.884 449">
  <defs>
    <filter id="Rectangle_4254" x="0" y="0" width="811.884" height="449" filterUnits="userSpaceOnUse">
      <feOffset dy="10" input="SourceAlpha"/>
      <feGaussianBlur stdDeviation="12" result="blur"/>
      <feFlood flood-color="#686a6c" flood-opacity="0.078"/>
      <feComposite operator="in" in2="blur"/>
      <feComposite in="SourceGraphic"/>
    </filter>
  </defs>
  <g id="Group_9390" data-name="Group 9390" transform="translate(-177 -2417)">
    <g transform="matrix(1, 0, 0, 1, 177, 2417)" filter="url(#Rectangle_4254)">
      <g id="Rectangle_4254-2" data-name="Rectangle 4254" transform="translate(36 26)" fill="#fff" stroke="#c3c0c0" stroke-width="0.5">
        <path d="M10,0H739.884a0,0,0,0,1,0,0V377a0,0,0,0,1,0,0H10A10,10,0,0,1,0,367V10A10,10,0,0,1,10,0Z" stroke="none"/>
        <path d="M10,.25H739.384a.25.25,0,0,1,.25.25v376a.25.25,0,0,1-.25.25H10A9.75,9.75,0,0,1,.25,367V10A9.75,9.75,0,0,1,10,.25Z" fill="none"/>
      </g>
    </g>
    <g id="Group_9389" data-name="Group 9389" transform="translate(26.538 -4.402)">
      <g id="Group_9243" data-name="Group 9243" transform="translate(226.463 2503.402)">
        <rect id="Rectangle_83" data-name="Rectangle 83" width="61.707" height="61.707" rx="30.853" transform="translate(0 0)" fill="#35b37f"/>
        <g id="Group_4984" data-name="Group 4984" transform="translate(0 0)">
          <rect id="Rectangle_82" data-name="Rectangle 82" width="61.707" height="61.707" rx="20" fill="none"/>
          <path id="Path_6721" data-name="Path 6721" d="M5.474-6.018A3.706,3.706,0,0,0,6.511-3.655a3.285,3.285,0,0,0,2.431.9,3.618,3.618,0,0,0,2.5-.833,5.561,5.561,0,0,0,1.445-2.074,10.614,10.614,0,0,0,.7-2.652q.187-1.411.289-2.6l-.068-.068a5.3,5.3,0,0,1-2.142,2.125,6.218,6.218,0,0,1-2.992.731A7.878,7.878,0,0,1,5.593-8.7,6.906,6.906,0,0,1,3.23-10.319,7.21,7.21,0,0,1,1.7-12.835a9.549,9.549,0,0,1-.544-3.315A9.238,9.238,0,0,1,1.7-19.363a7.4,7.4,0,0,1,1.6-2.584,7.221,7.221,0,0,1,2.584-1.717,9.274,9.274,0,0,1,3.468-.612,8.026,8.026,0,0,1,4.148.969,6.954,6.954,0,0,1,2.567,2.652,12.16,12.16,0,0,1,1.309,3.961,30.021,30.021,0,0,1,.374,4.862,20.874,20.874,0,0,1-.459,4.318,13.011,13.011,0,0,1-1.513,3.961A8.721,8.721,0,0,1,13.005-.646,7.577,7.577,0,0,1,8.772.476,7.526,7.526,0,0,1,6.086,0,7.217,7.217,0,0,1,3.859-1.326a6.852,6.852,0,0,1-1.581-2.04A6.375,6.375,0,0,1,1.6-6.018ZM9.18-21.046a4.058,4.058,0,0,0-1.836.391,3.6,3.6,0,0,0-1.292,1.071,4.794,4.794,0,0,0-.765,1.564,6.591,6.591,0,0,0-.255,1.836A6.9,6.9,0,0,0,5.287-14.3a4.772,4.772,0,0,0,.765,1.581,3.945,3.945,0,0,0,1.292,1.105,3.787,3.787,0,0,0,1.836.425,4.206,4.206,0,0,0,1.9-.408,3.768,3.768,0,0,0,1.343-1.1,5.036,5.036,0,0,0,.8-1.6,6.494,6.494,0,0,0,.272-1.887,6.208,6.208,0,0,0-.272-1.836,4.66,4.66,0,0,0-.8-1.547,3.933,3.933,0,0,0-1.343-1.071A4.206,4.206,0,0,0,9.18-21.046Z" transform="translate(20.105 42.346)" fill="#fff"/>
        </g>
      </g>
      <path id="Path_6722" data-name="Path 6722" d="M11.526-6.6c0,1.972-.986,3.4-3.06,3.4S5.44-4.624,5.406-6.6H1.5C1.5-2.312,4.386.238,8.466.238s6.97-2.55,6.97-6.834V-23.63h-3.91Zm8.908-2.856c0,5.78,3.91,9.758,8.772,9.758a8.064,8.064,0,0,0,6.562-3.094V0h3.91V-18.734h-3.91v2.72a7.974,7.974,0,0,0-6.494-3.026C24.344-19.04,20.434-15.232,20.434-9.452Zm15.334.068c0,4.046-2.754,6.324-5.678,6.324-2.89,0-5.678-2.346-5.678-6.392s2.788-6.222,5.678-6.222C33.014-15.674,35.768-13.4,35.768-9.384Zm7.718,0c0,5.882,3.808,9.69,9.18,9.69,4.59,0,7.582-2.55,8.636-6.222H57.12a4.279,4.279,0,0,1-4.454,2.958c-3.128,0-5.2-2.312-5.2-6.426,0-4.08,2.074-6.392,5.2-6.392a4.378,4.378,0,0,1,4.454,2.958H61.3c-1.054-3.944-4.046-6.222-8.636-6.222C47.294-19.04,43.486-15.232,43.486-9.384ZM65.178,0h3.876V-8.058L75.99,0h5.236L72.59-9.35l8.636-9.384H75.854l-6.8,8.194V-25.16H65.178ZM108.8-6.7c0-8.636-12.512-5.3-12.512-10.642,0-2.278,1.734-3.366,3.978-3.3,2.448.068,3.842,1.53,3.978,3.128h4.284c-.34-4.046-3.536-6.426-8.058-6.426-4.828,0-8.126,2.584-8.126,6.732,0,8.7,12.546,5,12.546,10.71,0,2.006-1.53,3.468-4.25,3.468-2.686,0-4.046-1.564-4.216-3.5H92.276c0,4.182,3.638,6.766,8.364,6.766C105.91.238,108.8-3.162,108.8-6.7ZM113.39,0h3.876V-10.472c0-3.434,1.87-5.2,4.726-5.2,2.822,0,4.692,1.768,4.692,5.2V0h3.842V-11.05c0-5.236-3.264-7.99-7.446-7.99a7.426,7.426,0,0,0-5.814,2.482v-8.6H113.39Zm22.066,0h3.876V-18.734h-3.876Zm1.972-21.216a2.445,2.445,0,0,0,2.448-2.482,2.445,2.445,0,0,0-2.448-2.482,2.453,2.453,0,0,0-2.482,2.482A2.453,2.453,0,0,0,137.428-21.216ZM157.726,0h3.842V-11.05c0-5.236-3.3-7.99-7.684-7.99a7.207,7.207,0,0,0-5.576,2.448v-2.142h-3.876V0h3.876V-10.472c0-3.434,1.87-5.2,4.726-5.2,2.822,0,4.692,1.768,4.692,5.2Zm26.622-9.384a9.239,9.239,0,0,0-9.554-9.656,9.239,9.239,0,0,0-9.554,9.656c0,5.882,4.046,9.69,9.384,9.69A9.383,9.383,0,0,0,184.348-9.384Zm-15.164,0c0-4.25,2.618-6.29,5.542-6.29,2.89,0,5.644,2.04,5.644,6.29s-2.856,6.324-5.746,6.324C171.7-3.06,169.184-5.134,169.184-9.384ZM186.9-9.452c0,5.78,3.91,9.758,8.84,9.758a7.767,7.767,0,0,0,6.494-3.128V0h3.91V-25.16h-3.91v9.044a8.629,8.629,0,0,0-6.46-2.924C190.808-19.04,186.9-15.232,186.9-9.452Zm15.334.068c0,4.046-2.754,6.324-5.678,6.324-2.89,0-5.678-2.346-5.678-6.392s2.788-6.222,5.678-6.222C199.478-15.674,202.232-13.4,202.232-9.384Zm7.718-.068c0,5.78,3.91,9.758,8.772,9.758a8.064,8.064,0,0,0,6.562-3.094V0h3.91V-18.734h-3.91v2.72a7.974,7.974,0,0,0-6.494-3.026C213.86-19.04,209.95-15.232,209.95-9.452Zm15.334.068c0,4.046-2.754,6.324-5.678,6.324-2.89,0-5.678-2.346-5.678-6.392s2.788-6.222,5.678-6.222C222.53-15.674,225.284-13.4,225.284-9.384Z" transform="translate(310.129 2545.155)" fill="#03363d"/>
      <path id="Path_6723" data-name="Path 6723" d="M4.305-24.43.945-16.485H4.48L6.545-24.43Zm5.7,0L6.65-16.485h3.535L12.25-24.43ZM16.2,0H19.39V-24.4H16.2Zm9.31-5.25C25.515-1.4,27.44,0,30.835,0h2.87V-2.695H31.36c-1.96,0-2.66-.665-2.66-2.555V-16.555h5.005V-19.18H28.7v-4.83H25.515v4.83H23.03v2.625h2.485ZM46.9,0h3.185V-10.605c0-4.13,2.24-6.16,5.495-6.16,3.22,0,5.355,1.995,5.355,5.915V0h3.15V-11.305c0-5.495-3.4-8.225-7.665-8.225a7.217,7.217,0,0,0-6.335,3.115V-25.9H46.9ZM68.11-9.66c0,5.95,3.955,9.975,9.065,9.975A8.01,8.01,0,0,0,84.35-3.57V0h3.22V-19.18H84.35v3.5a7.96,7.96,0,0,0-7.14-3.815C72.065-19.495,68.11-15.645,68.11-9.66Zm16.24.035c0,4.515-3.01,7.14-6.51,7.14s-6.475-2.66-6.475-7.175,2.975-7.07,6.475-7.07S84.35-14.07,84.35-9.625Zm22.4,4.41c-.14-6.86-11.27-4.375-11.27-8.925,0-1.54,1.4-2.66,3.745-2.66,2.555,0,4.025,1.4,4.165,3.325h3.185c-.21-3.745-3.01-6.02-7.245-6.02-4.27,0-7.035,2.415-7.035,5.355,0,7.14,11.34,4.655,11.34,8.925,0,1.575-1.4,2.835-3.92,2.835-2.695,0-4.34-1.4-4.515-3.255H91.91c.21,3.5,3.36,5.95,7.84,5.95C103.985.315,106.75-2.065,106.75-5.215ZM120.575,0h3.185V-10.605c0-4.13,2.24-6.16,5.5-6.16,3.22,0,5.355,1.995,5.355,5.915V0h3.15V-11.305c0-5.495-3.4-8.225-7.665-8.225a7.217,7.217,0,0,0-6.335,3.115V-25.9h-3.185ZM151.13-16.8c3.29,0,6.09,2.065,6.055,5.81h-12.11C145.425-14.735,148.015-16.8,151.13-16.8Zm8.96,10.885h-3.43a5.271,5.271,0,0,1-5.39,3.535,6.029,6.029,0,0,1-6.23-6.02h15.33a17.263,17.263,0,0,0,.105-1.925,8.792,8.792,0,0,0-9.205-9.17c-5.6,0-9.485,3.815-9.485,9.87,0,6.09,4.025,9.94,9.485,9.94C156.03.315,159.11-2.415,160.09-5.915ZM164.675,0h3.185V-25.9h-3.185ZM176.47-15.645V-19.18h-3.185V9.1h3.185V-3.535a8.3,8.3,0,0,0,7.175,3.85c5.145,0,9.1-4.025,9.1-9.975,0-5.985-3.955-9.835-9.1-9.835A8.1,8.1,0,0,0,176.47-15.645ZM189.49-9.66c0,4.515-2.975,7.175-6.51,7.175-3.465,0-6.51-2.625-6.51-7.14,0-4.445,3.045-7.1,6.51-7.1C186.515-16.73,189.49-14.175,189.49-9.66ZM205.1-16.8c3.29,0,6.09,2.065,6.055,5.81h-12.11C199.4-14.735,201.985-16.8,205.1-16.8Zm8.96,10.885h-3.43a5.271,5.271,0,0,1-5.39,3.535,6.029,6.029,0,0,1-6.23-6.02h15.33a17.263,17.263,0,0,0,.105-1.925,8.792,8.792,0,0,0-9.205-9.17c-5.6,0-9.485,3.815-9.485,9.87,0,6.09,4.025,9.94,9.485,9.94C210,.315,213.08-2.415,214.06-5.915Zm3.4-3.745c0,5.95,3.955,9.975,9.1,9.975a7.878,7.878,0,0,0,7.14-3.92V0h3.22V-25.9h-3.22v10.15a8.365,8.365,0,0,0-7.1-3.745C221.41-19.495,217.455-15.645,217.455-9.66Zm16.24.035c0,4.515-3.01,7.14-6.51,7.14s-6.475-2.66-6.475-7.175,2.975-7.07,6.475-7.07S233.695-14.07,233.695-9.625ZM268.66-19.18h-3.185V-8.645c0,4.13-2.205,6.16-5.495,6.16-3.22,0-5.355-1.995-5.355-5.88V-19.18h-3.15V-7.945c0,5.495,3.465,8.225,7.875,8.225a7.051,7.051,0,0,0,6.125-3.115V0h3.185ZM287.84-5.215c-.14-6.86-11.27-4.375-11.27-8.925,0-1.54,1.4-2.66,3.745-2.66,2.555,0,4.025,1.4,4.165,3.325h3.185c-.21-3.745-3.01-6.02-7.245-6.02-4.27,0-7.035,2.415-7.035,5.355,0,7.14,11.34,4.655,11.34,8.925,0,1.575-1.4,2.835-3.92,2.835-2.7,0-4.34-1.4-4.515-3.255H273c.21,3.5,3.36,5.95,7.84,5.95C285.075.315,287.84-2.065,287.84-5.215ZM300.475-9.66c0,5.95,3.955,9.975,9.1,9.975a8.015,8.015,0,0,0,7.14-3.92V.42c0,4.095-2.555,6.265-5.95,6.265-3.15,0-5.425-1.575-6.125-3.885h-3.15c.63,4.1,4.235,6.65,9.275,6.65,5.635,0,9.17-3.745,9.17-9.03v-19.6h-3.22v3.5a7.905,7.905,0,0,0-7.14-3.815C304.43-19.495,300.475-15.645,300.475-9.66Zm16.24.035c0,4.515-3.01,7.14-6.51,7.14s-6.475-2.66-6.475-7.175,2.975-7.07,6.475-7.07S316.715-14.07,316.715-9.625Zm7.42-.035c0,5.95,3.955,9.975,9.065,9.975a8.01,8.01,0,0,0,7.175-3.885V0h3.22V-19.18h-3.22v3.5a7.96,7.96,0,0,0-7.14-3.815C328.09-19.495,324.135-15.645,324.135-9.66Zm16.24.035c0,4.515-3.01,7.14-6.51,7.14s-6.475-2.66-6.475-7.175,2.975-7.07,6.475-7.07S340.375-14.07,340.375-9.625ZM348.985,0h3.185V-19.18h-3.185Zm1.645-22.3a2.122,2.122,0,0,0,2.1-2.17,2.122,2.122,0,0,0-2.1-2.17,2.137,2.137,0,0,0-2.17,2.17A2.137,2.137,0,0,0,350.63-22.3Zm21,22.3h3.15V-11.305c0-5.495-3.4-8.225-7.84-8.225a7.085,7.085,0,0,0-6.16,3.08v-2.73H357.6V0h3.185V-10.605c0-4.13,2.24-6.16,5.495-6.16,3.22,0,5.355,1.995,5.355,5.915Zm17.71,0h3.185V-19.18H389.34Zm1.645-22.3a2.122,2.122,0,0,0,2.1-2.17,2.122,2.122,0,0,0-2.1-2.17,2.137,2.137,0,0,0-2.17,2.17A2.137,2.137,0,0,0,390.985-22.3Zm21,22.3h3.15V-11.305c0-5.495-3.4-8.225-7.84-8.225a7.085,7.085,0,0,0-6.16,3.08v-2.73H397.95V0h3.185V-10.605c0-4.13,2.24-6.16,5.495-6.16,3.22,0,5.355,1.995,5.355,5.915ZM434.14-5.215c-.14-6.86-11.27-4.375-11.27-8.925,0-1.54,1.4-2.66,3.745-2.66,2.555,0,4.025,1.4,4.165,3.325h3.185c-.21-3.745-3.01-6.02-7.245-6.02-4.27,0-7.035,2.415-7.035,5.355,0,7.14,11.34,4.655,11.34,8.925,0,1.575-1.4,2.835-3.92,2.835-2.7,0-4.34-1.4-4.515-3.255H419.3c.21,3.5,3.36,5.95,7.84,5.95C431.375.315,434.14-2.065,434.14-5.215ZM438.62,0H441.8V-19.18H438.62Zm1.645-22.3a2.122,2.122,0,0,0,2.1-2.17,2.122,2.122,0,0,0-2.1-2.17,2.137,2.137,0,0,0-2.17,2.17A2.137,2.137,0,0,0,440.265-22.3ZM446.04-9.66c0,5.95,3.955,9.975,9.1,9.975a8.015,8.015,0,0,0,7.14-3.92V.42c0,4.095-2.555,6.265-5.95,6.265-3.15,0-5.425-1.575-6.125-3.885h-3.15c.63,4.1,4.235,6.65,9.275,6.65,5.635,0,9.17-3.745,9.17-9.03v-19.6h-3.22v3.5a7.905,7.905,0,0,0-7.14-3.815C449.995-19.495,446.04-15.645,446.04-9.66Zm16.24.035c0,4.515-3.01,7.14-6.51,7.14S449.3-5.145,449.3-9.66s2.975-7.07,6.475-7.07S462.28-14.07,462.28-9.625ZM470.89,0h3.185V-10.605c0-4.13,2.24-6.16,5.495-6.16,3.22,0,5.355,1.995,5.355,5.915V0h3.15V-11.305c0-5.495-3.4-8.225-7.665-8.225a7.217,7.217,0,0,0-6.335,3.115V-25.9H470.89Zm23.1-5.25c0,3.85,1.925,5.25,5.32,5.25h2.87V-2.695h-2.345c-1.96,0-2.66-.665-2.66-2.555V-16.555h5.005V-19.18h-5.005v-4.83H493.99v4.83h-2.485v2.625h2.485Zm25.83.035c-.14-6.86-11.27-4.375-11.27-8.925,0-1.54,1.4-2.66,3.745-2.66,2.555,0,4.025,1.4,4.165,3.325h3.185c-.21-3.745-3.01-6.02-7.245-6.02-4.27,0-7.035,2.415-7.035,5.355,0,7.14,11.34,4.655,11.34,8.925,0,1.575-1.4,2.835-3.92,2.835-2.695,0-4.34-1.4-4.515-3.255h-3.29c.21,3.5,3.36,5.95,7.84,5.95C517.055.315,519.82-2.065,519.82-5.215ZM533.645,0h3.185V-19.18h-3.185Zm1.645-22.3a2.122,2.122,0,0,0,2.1-2.17,2.122,2.122,0,0,0-2.1-2.17,2.137,2.137,0,0,0-2.17,2.17A2.137,2.137,0,0,0,535.29-22.3Zm21,22.3h3.15V-11.305c0-5.495-3.4-8.225-7.84-8.225a7.085,7.085,0,0,0-6.16,3.08v-2.73h-3.185V0h3.185V-10.605c0-4.13,2.24-6.16,5.495-6.16,3.22,0,5.355,1.995,5.355,5.915Zm9.065-5.25c0,3.85,1.925,5.25,5.32,5.25h2.87V-2.695H571.2c-1.96,0-2.66-.665-2.66-2.555V-16.555h5.005V-19.18H568.54v-4.83h-3.185v4.83H562.87v2.625h2.485ZM595.6-9.625c0-6.055-4.235-9.87-9.7-9.87-5.425,0-9.7,3.815-9.7,9.87,0,6.09,4.13,9.94,9.555,9.94A9.51,9.51,0,0,0,595.6-9.625Zm-16.135,0c0-4.83,3.045-7.1,6.4-7.1,3.29,0,6.475,2.275,6.475,7.1,0,4.865-3.255,7.14-6.58,7.14S579.46-4.76,579.46-9.625ZM20.9,36.375c0-6.055-4.235-9.87-9.7-9.87-5.425,0-9.695,3.815-9.695,9.87,0,6.09,4.13,9.94,9.555,9.94A9.51,9.51,0,0,0,20.9,36.375Zm-16.135,0c0-4.83,3.045-7.1,6.4-7.1,3.29,0,6.475,2.275,6.475,7.1,0,4.865-3.255,7.14-6.58,7.14S4.76,41.24,4.76,36.375ZM42.1,26.82H38.92V37.355c0,4.13-2.2,6.16-5.495,6.16-3.22,0-5.355-1.995-5.355-5.88V26.82H24.92V38.055c0,5.495,3.465,8.225,7.875,8.225a7.051,7.051,0,0,0,6.125-3.115V46H42.1Zm8.575,8.75c0-4.445,2.31-5.81,5.355-5.81h.84V26.47a6.459,6.459,0,0,0-6.195,3.465V26.82H47.495V46H50.68Zm22.4-5.215V26.82H69.895V55.1H73.08V42.465a8.3,8.3,0,0,0,7.175,3.85c5.145,0,9.1-4.025,9.1-9.975,0-5.985-3.955-9.835-9.1-9.835A8.1,8.1,0,0,0,73.08,30.355ZM86.1,36.34c0,4.515-2.975,7.175-6.51,7.175-3.465,0-6.51-2.625-6.51-7.14,0-4.445,3.045-7.1,6.51-7.1C83.125,29.27,86.1,31.825,86.1,36.34Zm10.64-.77c0-4.445,2.31-5.81,5.355-5.81h.84V26.47a6.459,6.459,0,0,0-6.195,3.465V26.82H93.555V46H96.74Zm28.07.805c0-6.055-4.235-9.87-9.695-9.87-5.425,0-9.695,3.815-9.695,9.87,0,6.09,4.13,9.94,9.555,9.94A9.51,9.51,0,0,0,124.81,36.375Zm-16.135,0c0-4.83,3.045-7.1,6.4-7.1,3.29,0,6.475,2.275,6.475,7.1,0,4.865-3.255,7.14-6.58,7.14S108.675,41.24,108.675,36.375Zm19.145-.035c0,5.95,3.955,9.975,9.1,9.975a7.878,7.878,0,0,0,7.14-3.92V46h3.22V20.1h-3.22V30.25a8.365,8.365,0,0,0-7.1-3.745C131.775,26.505,127.82,30.355,127.82,36.34Zm16.24.035c0,4.515-3.01,7.14-6.51,7.14s-6.475-2.66-6.475-7.175,2.975-7.07,6.475-7.07S144.06,31.93,144.06,36.375Zm25.62-9.555H166.5V37.355c0,4.13-2.205,6.16-5.5,6.16-3.22,0-5.355-1.995-5.355-5.88V26.82H152.5V38.055c0,5.495,3.465,8.225,7.875,8.225a7.051,7.051,0,0,0,6.125-3.115V46h3.185Zm4.2,9.555c0,6.09,3.885,9.94,9.345,9.94,4.76,0,7.875-2.66,8.855-6.475h-3.43c-.7,2.415-2.59,3.78-5.425,3.78-3.5,0-6.09-2.485-6.09-7.245,0-4.69,2.59-7.175,6.09-7.175a5.225,5.225,0,0,1,5.425,3.78h3.43c-.98-4.025-4.1-6.475-8.855-6.475C177.765,26.505,173.88,30.355,173.88,36.375Zm23.135,4.375c0,3.85,1.925,5.25,5.32,5.25h2.87V43.305H202.86c-1.96,0-2.66-.665-2.66-2.555V29.445h5.005V26.82H200.2V21.99h-3.185v4.83H194.53v2.625h2.485Zm29.54-11.55c3.29,0,6.09,2.065,6.055,5.81H220.5C220.85,31.265,223.44,29.2,226.555,29.2Zm8.96,10.885h-3.43a5.271,5.271,0,0,1-5.39,3.535,6.029,6.029,0,0,1-6.23-6.02h15.33a17.263,17.263,0,0,0,.105-1.925,8.792,8.792,0,0,0-9.205-9.17c-5.6,0-9.485,3.815-9.485,9.87,0,6.09,4.025,9.94,9.485,9.94C231.455,46.315,234.535,43.585,235.515,40.085ZM250.11,46h3.6l-6.195-9.695,6.16-9.485h-3.325l-4.34,7.1-4.55-7.1h-3.6l6.195,9.66L237.86,46h3.325l4.375-7.14Zm9.94-15.645V26.82h-3.185V55.1h3.185V42.465a8.3,8.3,0,0,0,7.175,3.85c5.145,0,9.1-4.025,9.1-9.975,0-5.985-3.955-9.835-9.1-9.835A8.1,8.1,0,0,0,260.05,30.355Zm13.02,5.985c0,4.515-2.975,7.175-6.51,7.175-3.465,0-6.51-2.625-6.51-7.14,0-4.445,3.045-7.1,6.51-7.1C270.1,29.27,273.07,31.825,273.07,36.34Zm15.61-7.14c3.29,0,6.09,2.065,6.055,5.81h-12.11C282.975,31.265,285.565,29.2,288.68,29.2Zm8.96,10.885h-3.43a5.271,5.271,0,0,1-5.39,3.535,6.029,6.029,0,0,1-6.23-6.02h15.33a17.263,17.263,0,0,0,.105-1.925,8.792,8.792,0,0,0-9.205-9.17c-5.6,0-9.485,3.815-9.485,9.87,0,6.09,4.025,9.94,9.485,9.94C293.58,46.315,296.66,43.585,297.64,40.085Zm7.77-4.515c0-4.445,2.31-5.81,5.355-5.81h.84V26.47a6.459,6.459,0,0,0-6.2,3.465V26.82h-3.185V46h3.185ZM315.28,46h3.185V26.82H315.28Zm1.645-22.3a2.17,2.17,0,1,0-2.17-2.17A2.122,2.122,0,0,0,316.925,23.7Zm15.12,5.5c3.29,0,6.09,2.065,6.055,5.81H325.99C326.34,31.265,328.93,29.2,332.045,29.2Zm8.96,10.885h-3.43a5.271,5.271,0,0,1-5.39,3.535,6.029,6.029,0,0,1-6.23-6.02h15.33a17.263,17.263,0,0,0,.105-1.925,8.792,8.792,0,0,0-9.205-9.17c-5.6,0-9.485,3.815-9.485,9.87,0,6.09,4.025,9.94,9.485,9.94C336.945,46.315,340.025,43.585,341.005,40.085ZM359.625,46h3.15V34.695c0-5.495-3.4-8.225-7.84-8.225a7.085,7.085,0,0,0-6.16,3.08V26.82H345.59V46h3.185V35.4c0-4.13,2.24-6.16,5.495-6.16,3.22,0,5.355,1.995,5.355,5.915Zm7.175-9.625c0,6.09,3.885,9.94,9.345,9.94,4.76,0,7.875-2.66,8.855-6.475h-3.43c-.7,2.415-2.59,3.78-5.425,3.78-3.5,0-6.09-2.485-6.09-7.245,0-4.69,2.59-7.175,6.09-7.175a5.225,5.225,0,0,1,5.425,3.78H385c-.98-4.025-4.095-6.475-8.855-6.475C370.685,26.505,366.8,30.355,366.8,36.375ZM397.39,29.2c3.29,0,6.09,2.065,6.055,5.81h-12.11C391.685,31.265,394.275,29.2,397.39,29.2Zm8.96,10.885h-3.43a5.271,5.271,0,0,1-5.39,3.535,6.029,6.029,0,0,1-6.23-6.02h15.33a17.263,17.263,0,0,0,.105-1.925,8.792,8.792,0,0,0-9.205-9.17c-5.6,0-9.485,3.815-9.485,9.87,0,6.09,4.025,9.94,9.485,9.94C402.29,46.315,405.37,43.585,406.35,40.085Zm5.67-.98h2.66l.385-17.5h-3.43Zm3.57,4.935a2.135,2.135,0,1,0-2.1,2.17A2.122,2.122,0,0,0,415.59,44.04Zm12.46-14.49,3.36-7.945h-3.535L425.81,29.55Zm-5.705,0,3.36-7.945H422.17l-2.065,7.945Z" transform="translate(226.462 2617.244)" fill="#03363d"/>
      <g id="Group_9244" data-name="Group 9244" transform="translate(226.463 2709.554)">
        <g id="Rectangle_4021" data-name="Rectangle 4021" transform="translate(0 -0.165)" fill="#fdfdfd" stroke="#efefef" stroke-width="1.5">
          <rect width="421.35" height="57.371" rx="5" stroke="none"/>
          <rect x="0.75" y="0.75" width="419.85" height="55.871" rx="4.25" fill="none"/>
        </g>
        <path id="Path_6724" data-name="Path 6724" d="M5.88-12.81v-8.96h4.69c3.64,0,5.18,1.68,5.18,4.515,0,2.73-1.54,4.445-5.18,4.445ZM19-17.255c0-3.99-2.695-7.14-8.435-7.14H2.695V0H5.88V-10.185h4.69C16.625-10.185,19-13.545,19-17.255Zm7.14,6.825c0-4.445,2.31-5.81,5.355-5.81h.84v-3.29a6.459,6.459,0,0,0-6.195,3.465V-19.18H22.96V0h3.185Zm28.07.805c0-6.055-4.235-9.87-9.695-9.87-5.425,0-9.695,3.815-9.695,9.87,0,6.09,4.13,9.94,9.555,9.94A9.51,9.51,0,0,0,54.215-9.625Zm-16.135,0c0-4.83,3.045-7.1,6.4-7.1,3.29,0,6.475,2.275,6.475,7.1,0,4.865-3.255,7.14-6.58,7.14S38.08-4.76,38.08-9.625ZM57.225-9.66c0,5.95,3.955,9.975,9.1,9.975a7.878,7.878,0,0,0,7.14-3.92V0h3.22V-25.9h-3.22v10.15a8.365,8.365,0,0,0-7.105-3.745C61.18-19.495,57.225-15.645,57.225-9.66Zm16.24.035c0,4.515-3.01,7.14-6.51,7.14S60.48-5.145,60.48-9.66s2.975-7.07,6.475-7.07S73.465-14.07,73.465-9.625Zm25.62-9.555H95.9V-8.645c0,4.13-2.2,6.16-5.495,6.16-3.22,0-5.355-1.995-5.355-5.88V-19.18H81.9V-7.945C81.9-2.45,85.365.28,89.775.28A7.051,7.051,0,0,0,95.9-2.835V0h3.185Zm4.2,9.555c0,6.09,3.885,9.94,9.345,9.94,4.76,0,7.875-2.66,8.855-6.475h-3.43c-.7,2.415-2.59,3.78-5.425,3.78-3.5,0-6.09-2.485-6.09-7.245,0-4.69,2.59-7.175,6.09-7.175a5.225,5.225,0,0,1,5.425,3.78h3.43c-.98-4.025-4.1-6.475-8.855-6.475C107.17-19.495,103.285-15.645,103.285-9.625ZM126.42-5.25c0,3.85,1.925,5.25,5.32,5.25h2.87V-2.695h-2.345c-1.96,0-2.66-.665-2.66-2.555V-16.555h5.005V-19.18H129.6v-4.83H126.42v4.83h-2.485v2.625h2.485Zm34.51-19.18H147.805V0H160.93V-2.625h-9.94v-8.4h8.89V-13.65h-8.89v-8.155h9.94ZM175.77,0h3.6L173.18-9.7l6.16-9.485h-3.325l-4.34,7.1-4.55-7.1h-3.6l6.195,9.66L163.52,0h3.325l4.375-7.14Zm9.94-15.645V-19.18h-3.185V9.1h3.185V-3.535a8.3,8.3,0,0,0,7.175,3.85c5.145,0,9.1-4.025,9.1-9.975,0-5.985-3.955-9.835-9.1-9.835A8.1,8.1,0,0,0,185.71-15.645ZM198.73-9.66c0,4.515-2.975,7.175-6.51,7.175-3.465,0-6.51-2.625-6.51-7.14,0-4.445,3.045-7.1,6.51-7.1C195.755-16.73,198.73-14.175,198.73-9.66Zm15.61-7.14c3.29,0,6.09,2.065,6.055,5.81h-12.11C208.635-14.735,211.225-16.8,214.34-16.8ZM223.3-5.915h-3.43a5.271,5.271,0,0,1-5.39,3.535,6.029,6.029,0,0,1-6.23-6.02h15.33a17.263,17.263,0,0,0,.105-1.925,8.792,8.792,0,0,0-9.205-9.17c-5.6,0-9.485,3.815-9.485,9.87,0,6.09,4.025,9.94,9.485,9.94C219.24.315,222.32-2.415,223.3-5.915Zm7.77-4.515c0-4.445,2.31-5.81,5.355-5.81h.84v-3.29a6.459,6.459,0,0,0-6.195,3.465V-19.18h-3.185V0h3.185ZM240.94,0h3.185V-19.18H240.94Zm1.645-22.3a2.122,2.122,0,0,0,2.1-2.17,2.122,2.122,0,0,0-2.1-2.17,2.137,2.137,0,0,0-2.17,2.17A2.137,2.137,0,0,0,242.585-22.3Zm15.12,5.5c3.29,0,6.09,2.065,6.055,5.81H251.65C252-14.735,254.59-16.8,257.7-16.8Zm8.96,10.885h-3.43a5.271,5.271,0,0,1-5.39,3.535,6.029,6.029,0,0,1-6.23-6.02h15.33a17.271,17.271,0,0,0,.1-1.925,8.792,8.792,0,0,0-9.2-9.17c-5.6,0-9.485,3.815-9.485,9.87,0,6.09,4.025,9.94,9.485,9.94C262.6.315,265.685-2.415,266.665-5.915ZM285.285,0h3.15V-11.305c0-5.495-3.4-8.225-7.84-8.225a7.085,7.085,0,0,0-6.16,3.08v-2.73H271.25V0h3.185V-10.605c0-4.13,2.24-6.16,5.495-6.16,3.22,0,5.355,1.995,5.355,5.915Zm7.175-9.625c0,6.09,3.885,9.94,9.345,9.94,4.76,0,7.875-2.66,8.855-6.475h-3.43c-.7,2.415-2.59,3.78-5.425,3.78-3.5,0-6.09-2.485-6.09-7.245,0-4.69,2.59-7.175,6.09-7.175a5.225,5.225,0,0,1,5.425,3.78h3.43c-.98-4.025-4.095-6.475-8.855-6.475C296.345-19.495,292.46-15.645,292.46-9.625ZM323.05-16.8c3.29,0,6.09,2.065,6.055,5.81H317C317.345-14.735,319.935-16.8,323.05-16.8Zm8.96,10.885h-3.43a5.271,5.271,0,0,1-5.39,3.535,6.029,6.029,0,0,1-6.23-6.02h15.33a17.263,17.263,0,0,0,.105-1.925,8.792,8.792,0,0,0-9.205-9.17c-5.6,0-9.485,3.815-9.485,9.87,0,6.09,4.025,9.94,9.485,9.94C327.95.315,331.03-2.415,332.01-5.915Z" transform="translate(19.124 40.834)" fill="#42526e"/>
        <path id="Path_4268" data-name="Path 4268" d="M28.782,5.956a1.806,1.806,0,0,0-2.556,0L17.36,14.8,8.494,5.938A1.808,1.808,0,0,0,5.938,8.494L14.8,17.36,5.938,26.226a1.808,1.808,0,0,0,2.556,2.556l8.866-8.866,8.866,8.866a1.808,1.808,0,1,0,2.556-2.556L19.916,17.36l8.866-8.866A1.817,1.817,0,0,0,28.782,5.956Z" transform="translate(372.658 12.302)" fill="#42526e"/>
      </g>
      <g id="Group_9245" data-name="Group 9245" transform="translate(662.929 2709.389)">
        <g id="Group_8587" data-name="Group 8587" transform="translate(0 0)">
          <g id="Rectangle_3988" data-name="Rectangle 3988" transform="translate(0 0)" fill="#f2f3f3" stroke="#dfe1e5" stroke-width="1.5">
            <rect width="222.797" height="57.371" rx="5" stroke="none"/>
            <rect x="0.75" y="0.75" width="221.297" height="55.871" rx="4.25" fill="none"/>
          </g>
          <text id="_" data-name="|" transform="translate(21.514 30.952)" fill="#42526e" font-size="20" font-family="HelveticaNeue, Helvetica Neue"><tspan x="0" y="0">|</tspan></text>
          <g id="Group_8537" data-name="Group 8537" transform="translate(0 0)">
            <rect id="Rectangle_4007" data-name="Rectangle 4007" width="222.797" height="57.371" rx="5" fill="#0052cc"/>
            <path id="Path_3731" data-name="Path 3731" d="M18.733,2A16.733,16.733,0,1,0,35.467,18.733,16.739,16.739,0,0,0,18.733,2Zm6.693,18.407h-5.02v5.02a1.673,1.673,0,0,1-3.347,0v-5.02H12.04a1.673,1.673,0,1,1,0-3.347h5.02V12.04a1.673,1.673,0,0,1,3.347,0v5.02h5.02a1.673,1.673,0,1,1,0,3.347Z" transform="translate(172.703 9.952)" fill="#fff"/>
          </g>
        </g>
        <path id="Path_6725" data-name="Path 6725" d="M5.427-7.965l3.267-8.991h.054l3.213,8.991ZM7.344-19.278-.162,0H2.457l2.16-5.805h8.154L14.877,0h2.835L10.179-19.278ZM20.9-6.858a9.183,9.183,0,0,1,.216-2,5.286,5.286,0,0,1,.7-1.728,3.655,3.655,0,0,1,1.3-1.215,3.941,3.941,0,0,1,1.971-.459,4.26,4.26,0,0,1,2.025.445,3.931,3.931,0,0,1,1.363,1.175,4.911,4.911,0,0,1,.77,1.687,8.044,8.044,0,0,1,.243,1.984,8.094,8.094,0,0,1-.229,1.917,5.024,5.024,0,0,1-.743,1.688,3.95,3.95,0,0,1-1.323,1.2,3.941,3.941,0,0,1-1.971.459,4.1,4.1,0,0,1-1.931-.432,3.837,3.837,0,0,1-1.35-1.161,5.137,5.137,0,0,1-.783-1.661A7.138,7.138,0,0,1,20.9-6.858ZM31.7,0V-19.278H29.4V-12.1h-.054a3.7,3.7,0,0,0-.932-1.039,5.292,5.292,0,0,0-1.174-.675A5.9,5.9,0,0,0,26-14.175a6.8,6.8,0,0,0-1.161-.108,6.354,6.354,0,0,0-2.795.581,5.737,5.737,0,0,0-2,1.566A6.611,6.611,0,0,0,18.86-9.828a9.848,9.848,0,0,0-.392,2.808,9.542,9.542,0,0,0,.405,2.808,6.941,6.941,0,0,0,1.2,2.322,5.807,5.807,0,0,0,2,1.593A6.3,6.3,0,0,0,24.894.3a6.8,6.8,0,0,0,2.673-.513A3.378,3.378,0,0,0,29.349-1.89H29.4V0Zm5.211-6.858a9.183,9.183,0,0,1,.216-2,5.286,5.286,0,0,1,.7-1.728,3.655,3.655,0,0,1,1.3-1.215,3.941,3.941,0,0,1,1.971-.459,4.26,4.26,0,0,1,2.025.445,3.93,3.93,0,0,1,1.363,1.175,4.911,4.911,0,0,1,.77,1.687,8.044,8.044,0,0,1,.243,1.984,8.094,8.094,0,0,1-.229,1.917,5.024,5.024,0,0,1-.743,1.688A3.95,3.95,0,0,1,43.2-2.16a3.941,3.941,0,0,1-1.971.459A4.1,4.1,0,0,1,39.3-2.133a3.837,3.837,0,0,1-1.35-1.161,5.137,5.137,0,0,1-.783-1.661A7.137,7.137,0,0,1,36.909-6.858ZM47.709,0V-19.278H45.414V-12.1H45.36a3.7,3.7,0,0,0-.931-1.039,5.292,5.292,0,0,0-1.175-.675,5.9,5.9,0,0,0-1.242-.364,6.8,6.8,0,0,0-1.161-.108,6.354,6.354,0,0,0-2.795.581,5.737,5.737,0,0,0-2,1.566A6.611,6.611,0,0,0,34.87-9.828a9.848,9.848,0,0,0-.391,2.808,9.542,9.542,0,0,0,.4,2.808,6.941,6.941,0,0,0,1.2,2.322,5.807,5.807,0,0,0,2,1.593A6.3,6.3,0,0,0,40.9.3a6.8,6.8,0,0,0,2.673-.513A3.378,3.378,0,0,0,45.36-1.89h.054V0ZM63.5-17.118V0h2.565V-17.118h6.426v-2.16H57.078v2.16ZM83.619-.054A3.246,3.246,0,0,1,81.972.3a1.975,1.975,0,0,1-1.417-.5,2.171,2.171,0,0,1-.527-1.634A5.491,5.491,0,0,1,77.827-.2a7.273,7.273,0,0,1-2.714.5,7.269,7.269,0,0,1-1.8-.216,4.175,4.175,0,0,1-1.472-.675,3.239,3.239,0,0,1-.985-1.2,4.042,4.042,0,0,1-.365-1.8,4.1,4.1,0,0,1,.4-1.944,3.533,3.533,0,0,1,1.066-1.228,4.887,4.887,0,0,1,1.512-.716q.851-.243,1.742-.4.945-.189,1.8-.284a10,10,0,0,0,1.5-.27,2.5,2.5,0,0,0,1.026-.513,1.252,1.252,0,0,0,.378-.986,2.291,2.291,0,0,0-.283-1.215,1.944,1.944,0,0,0-.729-.7,2.964,2.964,0,0,0-1-.324,7.544,7.544,0,0,0-1.093-.081,4.853,4.853,0,0,0-2.43.553,2.349,2.349,0,0,0-1.053,2.092H71.037a4.957,4.957,0,0,1,.54-2.187,4.094,4.094,0,0,1,1.3-1.444,5.438,5.438,0,0,1,1.85-.8,9.768,9.768,0,0,1,2.228-.243,13.066,13.066,0,0,1,1.876.135,4.9,4.9,0,0,1,1.688.554,3.235,3.235,0,0,1,1.215,1.174,3.759,3.759,0,0,1,.459,1.971v7.182a5.371,5.371,0,0,0,.094,1.188q.094.378.634.378a2.273,2.273,0,0,0,.7-.135ZM79.893-7.209a2.857,2.857,0,0,1-1.134.472q-.7.148-1.472.243t-1.552.216a5.708,5.708,0,0,0-1.4.392,2.554,2.554,0,0,0-1.012.769,2.155,2.155,0,0,0-.392,1.363,1.866,1.866,0,0,0,.229.958,1.913,1.913,0,0,0,.594.635,2.492,2.492,0,0,0,.85.351,4.719,4.719,0,0,0,1.026.108,5.437,5.437,0,0,0,1.944-.311,4.089,4.089,0,0,0,1.323-.783A3.089,3.089,0,0,0,79.65-3.82a2.6,2.6,0,0,0,.243-1.04Zm17.9,6.021V-13.959h-2.16v2h-.027A4.085,4.085,0,0,0,93.879-13.7a5.152,5.152,0,0,0-2.43-.581,6.217,6.217,0,0,0-3.051.689,5.92,5.92,0,0,0-2,1.755,6.958,6.958,0,0,0-1.08,2.376A10.6,10.6,0,0,0,85-6.912,9.244,9.244,0,0,0,85.388-4.2a6.5,6.5,0,0,0,1.174,2.241A5.707,5.707,0,0,0,88.506-.432a6.149,6.149,0,0,0,2.727.567,5.578,5.578,0,0,0,2.551-.607,3.858,3.858,0,0,0,1.8-1.9h.054v.918A9.282,9.282,0,0,1,95.4.675a4.457,4.457,0,0,1-.743,1.66,3.6,3.6,0,0,1-1.3,1.08,4.256,4.256,0,0,1-1.917.392,6.19,6.19,0,0,1-1.188-.122,4.317,4.317,0,0,1-1.147-.391,2.856,2.856,0,0,1-.891-.7,1.7,1.7,0,0,1-.392-1.053H85.536a3.608,3.608,0,0,0,.594,1.917,4.277,4.277,0,0,0,1.363,1.269,6.08,6.08,0,0,0,1.836.7,9.5,9.5,0,0,0,1.985.216q3.348,0,4.914-1.7A7.351,7.351,0,0,0,97.794-1.188Zm-6.426-.675a3.5,3.5,0,0,1-1.89-.473,3.646,3.646,0,0,1-1.215-1.242,5.376,5.376,0,0,1-.648-1.714,9.615,9.615,0,0,1-.189-1.89A7.876,7.876,0,0,1,87.656-9.1a4.751,4.751,0,0,1,.729-1.62,3.675,3.675,0,0,1,1.282-1.12,3.961,3.961,0,0,1,1.89-.418,3.646,3.646,0,0,1,1.836.432,3.576,3.576,0,0,1,1.229,1.148,5.047,5.047,0,0,1,.688,1.607,7.651,7.651,0,0,1,.216,1.809A8.434,8.434,0,0,1,95.3-5.319a5.677,5.677,0,0,1-.715,1.741A3.765,3.765,0,0,1,93.3-2.336,3.72,3.72,0,0,1,91.368-1.863Z" transform="translate(19.124 38.583)" fill="#fff"/>
      </g>
    </g>
  </g>
</svg>
