<svg xmlns="http://www.w3.org/2000/svg" width="30.02" height="30.02" viewBox="0 0 30.02 30.02"><path d="M0,15.01A15.01,15.01,0,1,1,15.01,30.02,15.01,15.01,0,0,1,0,15.01Z" transform="translate(0 0)" fill="#0065ff"/><path d="M7.048,3.191l.031.519-.524-.064A8.529,8.529,0,0,1,1.563,1.19L.87.5.692,1.01a3.056,3.056,0,0,0,.65,3.134c.419.445.325.508-.4.244a1.237,1.237,0,0,0-.493-.116A3.794,3.794,0,0,0,.829,5.689,3.387,3.387,0,0,0,2.265,7.045l.514.244L2.171,7.3c-.587,0-.608.011-.545.233A3.17,3.17,0,0,0,3.587,9.268l.65.222-.566.339a5.9,5.9,0,0,1-2.811.783A3.106,3.106,0,0,0,0,10.7a7.979,7.979,0,0,0,2.024.932,8.859,8.859,0,0,0,6.88-.783A9.207,9.207,0,0,0,12.4,6.738a10.921,10.921,0,0,0,.713-3.176c0-.487.031-.551.619-1.133a6.914,6.914,0,0,0,.734-.815c.1-.2.094-.2-.44-.021-.891.318-1.017.275-.577-.2A3.08,3.08,0,0,0,14.158.258c0-.032-.157.021-.336.116a5.851,5.851,0,0,1-.923.36l-.566.18L11.819.565A4.269,4.269,0,0,0,10.928.1,3.583,3.583,0,0,0,9.093.141,3.031,3.031,0,0,0,7.048,3.191Z" transform="translate(7.513 9.013)" fill="#fff"/></svg>