<svg xmlns="http://www.w3.org/2000/svg" width="24" height="24" viewBox="0 0 24 24">
  <g id="Group_5" data-name="Group 5" transform="translate(-1264 -382)">
    <g id="whatsapp_1_" data-name="whatsapp (1)" transform="translate(1269.6 387.562)">
      <path id="Path_1" data-name="Path 1" d="M11.431,1.868a6.379,6.379,0,0,0-8.219-.679.251.251,0,1,0,.293.409A5.875,5.875,0,1,1,4.1,11.532a.252.252,0,0,0-.187-.022l-2.8.757.763-2.724a.251.251,0,0,0-.025-.2,5.878,5.878,0,0,1,.29-6.385.251.251,0,0,0-.409-.293,6.381,6.381,0,0,0-.369,6.839L.509,12.557a.251.251,0,0,0,.308.311l3.13-.846A6.379,6.379,0,0,0,11.431,1.868Zm0,0" transform="translate(-0.499)" fill="#fff"/>
      <path id="Path_2" data-name="Path 2" d="M51.725,48.421a.252.252,0,0,0,.349-.07,5.372,5.372,0,1,0-9.108-.265l.162.277-.492,1.755a.251.251,0,0,0,.308.311l1.811-.49.266.146a5.377,5.377,0,0,0,5.559-.242.251.251,0,0,0-.279-.418,4.874,4.874,0,0,1-5.038.219l-.355-.2a.252.252,0,0,0-.187-.022l-1.482.4.4-1.432a.252.252,0,0,0-.025-.2l-.217-.369a4.869,4.869,0,1,1,8.256.24A.251.251,0,0,0,51.725,48.421Zm0,0" transform="translate(-41.181 -38.994)" fill="#fff"/>
      <path id="Path_3" data-name="Path 3" d="M124.822,135.458l.017-.019a.681.681,0,0,0,.081-.754c-.129-.3-.467-1.074-.5-1.147a.58.58,0,0,0-.551-.333,3.174,3.174,0,0,0-.367,0H123.5c-.039.006-.944.152-1.1,1.51a3.243,3.243,0,0,0,.859,2.21,6.316,6.316,0,0,0,2.33,1.98,4.347,4.347,0,0,0,1.838.532h.063a1.658,1.658,0,0,0,1.327-.579,1.269,1.269,0,0,0,.263-.578,3.537,3.537,0,0,0,.021-.36.58.58,0,0,0-.306-.567c-.07-.035-.79-.392-1.085-.535a.6.6,0,0,0-.756.134l0,0a1.6,1.6,0,0,0-.178.221c-.066.088-.2.265-.254.323a2.6,2.6,0,0,1-1.074-.6,4.059,4.059,0,0,1-.939-1.061.049.049,0,0,1,0-.019C124.583,135.737,124.724,135.574,124.822,135.458Zm.308,1.845a5.586,5.586,0,0,0,.814.533c.15.076.607.308.889.059a3.307,3.307,0,0,0,.336-.411c.043-.057.095-.127.115-.151s.024-.024.034-.035c.045-.049.066-.072.167-.023.3.147,1.059.522,1.086.535a.147.147,0,0,1,.022.1c-.006.208-.014.284-.015.3a.038.038,0,0,0,0,.008.8.8,0,0,1-.173.351,1.2,1.2,0,0,1-.932.371,3.759,3.759,0,0,1-1.658-.477,5.785,5.785,0,0,1-2.158-1.837,2.836,2.836,0,0,1-.759-1.848c.1-.911.6-1.054.671-1.069.024,0,.1,0,.293,0a.147.147,0,0,1,.1.027c.012.028.367.838.5,1.148.066.155.026.2.006.222l-.009.01-.014.017c-.145.17-.248.286-.3.344a.52.52,0,0,0-.073.619A4.539,4.539,0,0,0,125.131,137.3Zm0,0" transform="translate(-119.32 -129.853)" fill="#fff"/>
      <path id="Path_4" data-name="Path 4" d="M73.837,71.855a.251.251,0,1,0-.169-.438h0a.251.251,0,0,0,.169.437Zm0,0" transform="translate(-71.747 -69.558)" fill="#fff"/>
      <path id="Path_5" data-name="Path 5" d="M389.9,387.681h0a.251.251,0,1,0,.355-.017A.251.251,0,0,0,389.9,387.681Zm0,0" transform="translate(-380.04 -377.851)" fill="#fff"/>
    </g>
    <g id="Group_4" data-name="Group 4">
      <circle id="Ellipse_1" data-name="Ellipse 1" cx="12" cy="12" r="12" transform="translate(1264 382)" fill="#223cff"/>
    </g>
    <g id="whatsapp_1_2" data-name="whatsapp (1)" transform="translate(1269.6 387.562)">
      <path id="Path_1-2" data-name="Path 1" d="M11.431,1.868a6.379,6.379,0,0,0-8.219-.679.251.251,0,1,0,.293.409A5.875,5.875,0,1,1,4.1,11.532a.252.252,0,0,0-.187-.022l-2.8.757.763-2.724a.251.251,0,0,0-.025-.2,5.878,5.878,0,0,1,.29-6.385.251.251,0,0,0-.409-.293,6.381,6.381,0,0,0-.369,6.839L.509,12.557a.251.251,0,0,0,.308.311l3.13-.846A6.379,6.379,0,0,0,11.431,1.868Zm0,0" transform="translate(-0.499)" fill="#fff"/>
      <path id="Path_2-2" data-name="Path 2" d="M51.725,48.421a.252.252,0,0,0,.349-.07,5.372,5.372,0,1,0-9.108-.265l.162.277-.492,1.755a.251.251,0,0,0,.308.311l1.811-.49.266.146a5.377,5.377,0,0,0,5.559-.242.251.251,0,0,0-.279-.418,4.874,4.874,0,0,1-5.038.219l-.355-.2a.252.252,0,0,0-.187-.022l-1.482.4.4-1.432a.252.252,0,0,0-.025-.2l-.217-.369a4.869,4.869,0,1,1,8.256.24A.251.251,0,0,0,51.725,48.421Zm0,0" transform="translate(-41.181 -38.994)" fill="#fff"/>
      <path id="Path_3-2" data-name="Path 3" d="M124.822,135.458l.017-.019a.681.681,0,0,0,.081-.754c-.129-.3-.467-1.074-.5-1.147a.58.58,0,0,0-.551-.333,3.174,3.174,0,0,0-.367,0H123.5c-.039.006-.944.152-1.1,1.51a3.243,3.243,0,0,0,.859,2.21,6.316,6.316,0,0,0,2.33,1.98,4.347,4.347,0,0,0,1.838.532h.063a1.658,1.658,0,0,0,1.327-.579,1.269,1.269,0,0,0,.263-.578,3.537,3.537,0,0,0,.021-.36.58.58,0,0,0-.306-.567c-.07-.035-.79-.392-1.085-.535a.6.6,0,0,0-.756.134l0,0a1.6,1.6,0,0,0-.178.221c-.066.088-.2.265-.254.323a2.6,2.6,0,0,1-1.074-.6,4.059,4.059,0,0,1-.939-1.061.049.049,0,0,1,0-.019C124.583,135.737,124.724,135.574,124.822,135.458Zm.308,1.845a5.586,5.586,0,0,0,.814.533c.15.076.607.308.889.059a3.307,3.307,0,0,0,.336-.411c.043-.057.095-.127.115-.151s.024-.024.034-.035c.045-.049.066-.072.167-.023.3.147,1.059.522,1.086.535a.147.147,0,0,1,.022.1c-.006.208-.014.284-.015.3a.038.038,0,0,0,0,.008.8.8,0,0,1-.173.351,1.2,1.2,0,0,1-.932.371,3.759,3.759,0,0,1-1.658-.477,5.785,5.785,0,0,1-2.158-1.837,2.836,2.836,0,0,1-.759-1.848c.1-.911.6-1.054.671-1.069.024,0,.1,0,.293,0a.147.147,0,0,1,.1.027c.012.028.367.838.5,1.148.066.155.026.2.006.222l-.009.01-.014.017c-.145.17-.248.286-.3.344a.52.52,0,0,0-.073.619A4.539,4.539,0,0,0,125.131,137.3Zm0,0" transform="translate(-119.32 -129.853)" fill="#fff"/>
      <path id="Path_4-2" data-name="Path 4" d="M73.837,71.855a.251.251,0,1,0-.169-.438h0a.251.251,0,0,0,.169.437Zm0,0" transform="translate(-71.747 -69.558)" fill="#fff"/>
      <path id="Path_5-2" data-name="Path 5" d="M389.9,387.681h0a.251.251,0,1,0,.355-.017A.251.251,0,0,0,389.9,387.681Zm0,0" transform="translate(-380.04 -377.851)" fill="#fff"/>
    </g>
  </g>
</svg>
