<?xml version="1.0" encoding="UTF-8"?> <svg xmlns="http://www.w3.org/2000/svg" xmlns:xlink="http://www.w3.org/1999/xlink" width="80" height="80" viewBox="0 0 80 80"><defs><linearGradient id="linear-gradient" x1="-0.042" y1="0.07" x2="0.977" y2="0.915" gradientUnits="objectBoundingBox"><stop offset="0" stop-color="#5243aa"></stop><stop offset="1" stop-color="#0052cc"></stop></linearGradient></defs><g id="Group_4383" data-name="Group 4383" transform="translate(-321 -125)"><circle id="Ellipse_1" data-name="Ellipse 1" cx="40" cy="40" r="40" transform="translate(321 125)" fill="url(#linear-gradient)"></circle><g id="Group_4382" data-name="Group 4382" transform="translate(207 68)"><g id="Group_4377" data-name="Group 4377" transform="translate(139.773 82.773)"><g id="Group_4376" data-name="Group 4376"><path id="Path_1610" data-name="Path 1610" d="M105.093,91a14.093,14.093,0,1,0,14.093,14.093A14.109,14.109,0,0,0,105.093,91Zm-1.281,25.553a11.438,11.438,0,0,1-2.562-.588v-7.028h2.562Zm-1.636-10.178,2.917-5.1,2.917,5.1Zm6.761,9.59a11.441,11.441,0,0,1-2.562.588v-7.616h2.562Zm2.562-1.288v-7.361L105.093,96.1l-6.406,11.211v7.361a11.531,11.531,0,1,1,12.812,0Z" transform="translate(-91 -91)" fill="#fff"></path></g></g><g id="Group_4379" data-name="Group 4379" transform="translate(132 75)"><g id="Group_4378" data-name="Group 4378"><path id="Path_1611" data-name="Path 1611" d="M43.732,26.245V17.488l-3.41-.991a19.09,19.09,0,0,0-1.609-3.883L40.424,9.5,34.232,3.308,31.119,5.019A19.1,19.1,0,0,0,27.236,3.41L26.245,0H17.488L16.5,3.41a19.093,19.093,0,0,0-3.883,1.609L9.5,3.308,3.308,9.5l1.711,3.113A19.1,19.1,0,0,0,3.41,16.5L0,17.488v8.757l3.41.991a19.094,19.094,0,0,0,1.609,3.883L3.308,34.232,9.5,40.424l3.113-1.711A19.1,19.1,0,0,0,16.5,40.323l.991,3.409h8.757l.991-3.41a19.1,19.1,0,0,0,3.884-1.609l3.113,1.711,6.192-6.192-1.711-3.113a19.09,19.09,0,0,0,1.609-3.883Zm-5.525-1.063-.178.716a16.534,16.534,0,0,1-1.884,4.546l-.38.632,1.486,2.7L33.78,37.252l-2.7-1.486-.632.38A16.541,16.541,0,0,1,25.9,38.03l-.715.178-.861,2.962h-4.91l-.861-2.962-.715-.178a16.542,16.542,0,0,1-4.546-1.884l-.632-.38-2.7,1.486L6.48,33.78l1.486-2.7-.38-.632A16.545,16.545,0,0,1,5.7,25.9l-.178-.715-2.962-.861v-4.91l2.962-.861.178-.715a16.545,16.545,0,0,1,1.884-4.546l.38-.632-1.486-2.7L9.952,6.48l2.7,1.486.632-.38A16.54,16.54,0,0,1,17.835,5.7l.715-.178.861-2.962h4.91l.861,2.962L25.9,5.7a16.543,16.543,0,0,1,4.546,1.884l.632.38,2.7-1.486,3.472,3.472-1.486,2.7.38.632a16.538,16.538,0,0,1,1.884,4.546l.178.715,2.962.861v4.91Z" fill="#fff"></path></g></g></g></g></svg> 