<?xml version="1.0" encoding="UTF-8"?> <svg xmlns="http://www.w3.org/2000/svg" xmlns:xlink="http://www.w3.org/1999/xlink" width="100" height="100" viewBox="0 0 100 100"><defs><linearGradient id="linear-gradient" x1="0.039" y1="-0.056" x2="0.976" y2="1.05" gradientUnits="objectBoundingBox"><stop offset="0" stop-color="#8777d9"></stop><stop offset="1" stop-color="#20194a"></stop></linearGradient></defs><g id="Group_4385" data-name="Group 4385" transform="translate(-254 -288)"><circle id="Ellipse_44" data-name="Ellipse 44" cx="50" cy="50" r="50" transform="translate(254 288)" fill="url(#linear-gradient)"></circle><g id="translate_1_" data-name="translate (1)" transform="translate(279 313)"><path id="Path_1125" data-name="Path 1125" d="M321.478,301.927c-.144-.48-.736-.7-1.344-.7a1.3,1.3,0,0,0-1.328.7l-3.087,10.061a.929.929,0,0,0-.032.16c0,.512.752.864,1.312.864.352,0,.624-.112.7-.416l.607-2.128h3.663l.608,2.128c.08.3.352.416.7.416.56,0,1.312-.367,1.312-.864a.7.7,0,0,0-.032-.16Zm-2.735,6.909,1.391-4.91,1.392,4.91Zm0,0" transform="translate(-284.261 -271.236)" fill="#fff"></path><path id="Path_1126" data-name="Path 1126" d="M45.478,20.793h-15.3V14.257l4.973-3.552a1.493,1.493,0,0,0,0-2.43L30.117,4.681A5.5,5.5,0,0,0,24.685,0H5.492A5.5,5.5,0,0,0,0,5.492V24.685a5.5,5.5,0,0,0,5.492,5.492h15.3v6.535L15.82,40.264a1.493,1.493,0,0,0,0,2.43l5.033,3.595a5.5,5.5,0,0,0,5.432,4.681H45.478a5.5,5.5,0,0,0,5.492-5.492V26.285A5.5,5.5,0,0,0,45.478,20.793ZM5.492,27.19a2.508,2.508,0,0,1-2.505-2.505V5.492A2.508,2.508,0,0,1,5.492,2.987H24.685A2.508,2.508,0,0,1,27.19,5.492a1.493,1.493,0,0,0,.625,1.215l3.9,2.784-3.9,2.784a1.494,1.494,0,0,0-.625,1.215v7.3h-.905a5.5,5.5,0,0,0-5.492,5.492v.906ZM47.983,45.478a2.508,2.508,0,0,1-2.505,2.505H26.285a2.508,2.508,0,0,1-2.505-2.505,1.492,1.492,0,0,0-.625-1.215l-3.9-2.784,3.9-2.784a1.494,1.494,0,0,0,.625-1.215v-11.2a2.508,2.508,0,0,1,2.505-2.505H45.478a2.508,2.508,0,0,1,2.505,2.505Zm0,0" fill="#fff"></path><path id="Path_1127" data-name="Path 1127" d="M107.038,96.927a.842.842,0,0,0,0-1.685h-3.746V93.2a.842.842,0,1,0-1.684,0v2.045H97.861a.842.842,0,0,0,0,1.685h1.161a8.032,8.032,0,0,0,2.106,4.63,6.339,6.339,0,0,1-3.266.9.842.842,0,0,0,0,1.684,8.01,8.01,0,0,0,4.588-1.439,8.012,8.012,0,0,0,4.588,1.439.842.842,0,0,0,0-1.684,6.332,6.332,0,0,1-3.266-.9,8.032,8.032,0,0,0,2.106-4.63Zm-4.588,3.578a6.36,6.36,0,0,1-1.73-3.578h3.461A6.358,6.358,0,0,1,102.449,100.5Zm0,0" transform="translate(-87.361 -83.161)" fill="#fff"></path></g></g></svg> 