<?xml version="1.0" encoding="UTF-8"?> <svg xmlns="http://www.w3.org/2000/svg" id="Layer_1" data-name="Layer 1" viewBox="0 0 42.64 38.83"><defs><style>.cls-1{fill:#02193b;}.cls-1,.cls-2,.cls-3{fill-rule:evenodd;}.cls-2{fill:#2684ff;}.cls-3{fill:#b3d4ff;}</style></defs><title>survey-sensum-01</title><g id="Group_2962" data-name="Group 2962"><path id="Fill-214" class="cls-1" d="M41,14.39a.71.71,0,1,1,1.42,0,.7.7,0,0,1-.71.71h0a.71.71,0,0,1-.71-.71" transform="translate(0)"></path><g id="Group-252"><path id="Fill-250" class="cls-2" d="M41.21,16.45a.71.71,0,0,1,.71-.71.73.73,0,0,1,.72.71.71.71,0,0,1-.72.71h0a.71.71,0,0,1-.71-.71h0" transform="translate(0)"></path></g><path id="Fill-275" class="cls-1" d="M41.5,15.32a.48.48,0,0,1,.48-.48.48.48,0,0,1,0,.95h0a.48.48,0,0,1-.48-.47" transform="translate(0)"></path><path id="Fill-457" class="cls-2" d="M41.35,17.41a.63.63,0,1,1,1.26,0A.63.63,0,0,1,42,18h0a.63.63,0,0,1-.63-.63h0" transform="translate(0)"></path><path id="Fill-459" class="cls-2" d="M41.57,18.24a.48.48,0,0,1,.48-.49.49.49,0,0,1,.49.49.48.48,0,0,1-.48.49h0a.49.49,0,0,1-.48-.49h0" transform="translate(0)"></path><path id="Fill-505" class="cls-2" d="M41.61,19a.37.37,0,1,1,.37.37h0a.38.38,0,0,1-.37-.37h0" transform="translate(0)"></path><path id="Fill-1" class="cls-1" d="M32.39,22.07a1.2,1.2,0,1,1,1.2,1.2h0a1.2,1.2,0,0,1-1.2-1.2" transform="translate(0)"></path><path id="Fill-3" class="cls-2" d="M20.36,29.94a1.82,1.82,0,1,1,1.83,1.81h0a1.81,1.81,0,0,1-1.82-1.81" transform="translate(0)"></path><path id="Fill-5" class="cls-2" d="M27.66,29a1.78,1.78,0,1,1,1.79,1.78h0A1.78,1.78,0,0,1,27.66,29h0" transform="translate(0)"></path><path id="Fill-7" class="cls-2" d="M32.34,4.2a1.89,1.89,0,1,1,1.89,1.88h0A1.89,1.89,0,0,1,32.34,4.2" transform="translate(0)"></path><path id="Fill-9" class="cls-2" d="M36.4,26.33a1.21,1.21,0,1,1,1.21,1.21h0a1.21,1.21,0,0,1-1.21-1.21" transform="translate(0)"></path><path id="Fill-11" class="cls-2" d="M29.64,4.35a1.27,1.27,0,1,1,1.27,1.27h0a1.27,1.27,0,0,1-1.27-1.27h0" transform="translate(0)"></path><path id="Fill-13" class="cls-2" d="M27.08,3.62a1,1,0,1,1,1,1h0a1,1,0,0,1-1-1" transform="translate(0)"></path><path id="Fill-15" class="cls-2" d="M33.92,20.75a1.2,1.2,0,1,1,1.2,1.2h0a1.2,1.2,0,0,1-1.2-1.2" transform="translate(0)"></path><path id="Fill-17" class="cls-2" d="M26.6,25.69a1.2,1.2,0,0,1,1.18-1.2A1.19,1.19,0,0,1,29,25.68a1.17,1.17,0,0,1-1.18,1.19h0a1.18,1.18,0,0,1-1.19-1.18" transform="translate(0)"></path><path id="Fill-19" class="cls-2" d="M16.39,22.9A1.13,1.13,0,1,1,17.52,24h0a1.12,1.12,0,0,1-1.13-1.13h0" transform="translate(0)"></path><path id="Fill-21" class="cls-1" d="M24.82,26.23a.89.89,0,1,1,.89.89h0a.9.9,0,0,1-.89-.88h0" transform="translate(0)"></path><path id="Fill-23" class="cls-2" d="M38.74,35.65a.89.89,0,0,1,.89-.89.89.89,0,0,1,0,1.77h0a.89.89,0,0,1-.89-.88h0" transform="translate(0)"></path><path id="Fill-25" class="cls-2" d="M13.56,28.13a.89.89,0,0,1,1.77,0,.9.9,0,0,1-.89.89h0a.89.89,0,0,1-.88-.88h0" transform="translate(0)"></path><path id="Fill-27" class="cls-2" d="M11.69,9.15a.8.8,0,0,1,.8-.81.81.81,0,0,1,0,1.62h0a.8.8,0,0,1-.8-.81h0" transform="translate(0)"></path><path id="Fill-29" class="cls-2" d="M6.22,8.87a.67.67,0,1,1,.67.67h0a.67.67,0,0,1-.67-.67h0" transform="translate(0)"></path><path id="Fill-31" class="cls-2" d="M35.21,15.5a.84.84,0,0,1,1.68,0,.84.84,0,0,1-.84.85h0a.83.83,0,0,1-.84-.84h0" transform="translate(0)"></path><path id="Fill-33" class="cls-2" d="M4.39,15a.71.71,0,0,1,.69-.7.7.7,0,0,1,0,1.39h0A.69.69,0,0,1,4.39,15h0" transform="translate(0)"></path><path id="Fill-35" class="cls-1" d="M6,17.47a.69.69,0,0,1,1.38,0,.68.68,0,0,1-.69.69h0A.69.69,0,0,1,6,17.47" transform="translate(0)"></path><path id="Fill-37" class="cls-2" d="M23.42,3.06a.71.71,0,1,1,.71.71.71.71,0,0,1-.71-.71h0" transform="translate(0)"></path><path id="Fill-39" class="cls-2" d="M6.7,11.22a.72.72,0,1,1,.72.72h0a.72.72,0,0,1-.72-.72h0" transform="translate(0)"></path><path id="Fill-41" class="cls-2" d="M29.9,24.1a1,1,0,1,1,1,1h0a1,1,0,0,1-1-1h0" transform="translate(0)"></path><path id="Fill-43" class="cls-2" d="M39.63,34.82a1,1,0,0,1,2,0,1,1,0,0,1-1,1h0a1,1,0,0,1-1-1h0" transform="translate(0)"></path><path id="Fill-45" class="cls-2" d="M34.37,37.81a1,1,0,1,1,1,1h0a1,1,0,0,1-1-1h0" transform="translate(0)"></path><path id="Fill-47" class="cls-2" d="M15.18,11.65a.79.79,0,0,1,.79-.79.79.79,0,1,1,0,1.58h0a.79.79,0,0,1-.79-.79h0" transform="translate(0)"></path><path id="Fill-49" class="cls-1" d="M25,6.66A1.44,1.44,0,1,1,26.4,8.09h0A1.43,1.43,0,0,1,25,6.66" transform="translate(0)"></path><path id="Fill-51" class="cls-1" d="M36.29,31.13a1.58,1.58,0,1,1,1.58,1.57h0a1.58,1.58,0,0,1-1.57-1.57" transform="translate(0)"></path><path id="Fill-53" class="cls-1" d="M30.73,2.64a1.44,1.44,0,0,1,1.44-1.45,1.47,1.47,0,0,1,1.46,1.45,1.46,1.46,0,0,1-1.45,1.45h0a1.45,1.45,0,0,1-1.45-1.45" transform="translate(0)"></path><path id="Fill-55" class="cls-1" d="M16.09,20a1.43,1.43,0,1,1,1.43,1.42h0A1.43,1.43,0,0,1,16.09,20h0" transform="translate(0)"></path><path id="Fill-57" class="cls-1" d="M30.53,25.69a1.43,1.43,0,1,1,2.86,0A1.44,1.44,0,0,1,32,27.12h0a1.43,1.43,0,0,1-1.43-1.43h0" transform="translate(0)"></path><path id="Fill-59" class="cls-1" d="M38.27,9.72a1.43,1.43,0,1,1,1.44,1.42h0a1.43,1.43,0,0,1-1.43-1.42h0" transform="translate(0)"></path><path id="Fill-61" class="cls-2" d="M34.15,33.67a1,1,0,0,1,1-1.05,1,1,0,1,1,0,2.07h0a1,1,0,0,1-1-1" transform="translate(0)"></path><path id="Fill-63" class="cls-2" d="M8.68,22.42a.66.66,0,1,1,.66.65h0a.66.66,0,0,1-.66-.65h0" transform="translate(0)"></path><path id="Fill-65" class="cls-1" d="M7.76,20.64a.45.45,0,0,1,.45-.45.45.45,0,1,1,0,.9h0a.45.45,0,0,1-.45-.45" transform="translate(0)"></path><path id="Fill-67" class="cls-2" d="M6.38,22.27a.65.65,0,1,1,.65.64H7a.64.64,0,0,1-.64-.64" transform="translate(0)"></path><path id="Fill-69" class="cls-1" d="M13,25.86a1,1,0,1,1,2.06,0,1,1,0,0,1-1,1h0a1,1,0,0,1-1-1" transform="translate(0)"></path><path id="Fill-71" class="cls-1" d="M24,1.07a1,1,0,0,1,1-1,1,1,0,0,1,1,1,1,1,0,0,1-1,1h0a1,1,0,0,1-1.05-1" transform="translate(0)"></path><path id="Fill-73" class="cls-1" d="M32.43,29a1.2,1.2,0,1,1,1.2,1.2h0a1.19,1.19,0,0,1-1.2-1.2" transform="translate(0)"></path><path id="Fill-75" class="cls-1" d="M20.72,6.74a1,1,0,1,1,1,1h0a1,1,0,0,1-1-1" transform="translate(0)"></path><path id="Fill-77" class="cls-1" d="M22.35,30.89a1.28,1.28,0,1,1,1.28,1.27h0a1.27,1.27,0,0,1-1.28-1.27h0" transform="translate(0)"></path><path id="Fill-79" class="cls-1" d="M39.05,33.66a1,1,0,1,1,1,1h0a.94.94,0,0,1-1-1h0" transform="translate(0)"></path><path id="Fill-81" class="cls-1" d="M15.66,10.42a.64.64,0,1,1,1.27,0,.63.63,0,0,1-.63.63h0a.63.63,0,0,1-.63-.63" transform="translate(0)"></path><path id="Fill-83" class="cls-2" d="M5.48,20.64A.64.64,0,0,1,6.12,20a.64.64,0,0,1,.63.64.63.63,0,0,1-.63.63h0a.64.64,0,0,1-.64-.63h0" transform="translate(0)"></path><path id="Fill-85" class="cls-1" d="M24.4,4.81A.63.63,0,0,1,25,4.18a.64.64,0,0,1,.64.63.64.64,0,0,1-.64.64h0a.63.63,0,0,1-.63-.63h0" transform="translate(0)"></path><path id="Fill-87" class="cls-1" d="M34.23,30.48a.65.65,0,1,1,.65.64h0a.63.63,0,0,1-.64-.64h0" transform="translate(0)"></path><path id="Fill-89" class="cls-1" d="M36.86,5.69a.82.82,0,0,1,.82-.81.81.81,0,1,1,0,1.62h0a.82.82,0,0,1-.82-.81h0" transform="translate(0)"></path><path id="Fill-91" class="cls-1" d="M23,.91a.71.71,0,1,1,1.42,0,.7.7,0,0,1-.71.71h0A.71.71,0,0,1,23,.91" transform="translate(0)"></path><path id="Fill-93" class="cls-1" d="M27.35,31.23a.64.64,0,0,1,.64-.64.63.63,0,0,1,.63.63.64.64,0,0,1-.63.64h0a.64.64,0,0,1-.64-.63h0" transform="translate(0)"></path><path id="Fill-95" class="cls-1" d="M17.88,8.89a.79.79,0,0,1,.79-.81.8.8,0,1,1,0,1.6h0a.79.79,0,0,1-.8-.79h0" transform="translate(0)"></path><path id="Fill-97" class="cls-1" d="M38.41,36.28a.64.64,0,1,1,1.27,0,.63.63,0,0,1-.63.63h0a.64.64,0,0,1-.64-.63h0" transform="translate(0)"></path><path id="Fill-99" class="cls-1" d="M23.81,7.54a.73.73,0,1,1,.73.73h0a.74.74,0,0,1-.73-.73h0" transform="translate(0)"></path><path id="Fill-101" class="cls-1" d="M31.11,27.9a.7.7,0,0,1,.71-.71.71.71,0,0,1,.72.71.72.72,0,0,1-.72.72h0a.71.71,0,0,1-.71-.72" transform="translate(0)"></path><path id="Fill-103" class="cls-1" d="M19.24,25.38a.63.63,0,1,1,.63.64h0a.64.64,0,0,1-.63-.64h0" transform="translate(0)"></path><path id="Fill-105" class="cls-1" d="M6.05,6.35a.63.63,0,0,1,.63-.63.64.64,0,0,1,.64.63A.64.64,0,0,1,6.68,7a.63.63,0,0,1-.63-.63h0" transform="translate(0)"></path><path id="Fill-107" class="cls-2" d="M2.2,21.86a.63.63,0,0,1,.63-.63.64.64,0,1,1,0,1.27h0a.64.64,0,0,1-.63-.64h0" transform="translate(0)"></path><path id="Fill-109" class="cls-1" d="M.05,24.82a.63.63,0,0,1,.64-.63.63.63,0,0,1,.63.63.64.64,0,0,1-.63.64h0a.64.64,0,0,1-.64-.63h0" transform="translate(0)"></path><path id="Fill-111" class="cls-1" d="M17.68,26.8a.63.63,0,1,1,.63.63h0a.63.63,0,0,1-.63-.63" transform="translate(0)"></path><path id="Fill-113" class="cls-1" d="M32.81,11a.64.64,0,0,1,.64-.63.63.63,0,0,1,0,1.26h0a.64.64,0,0,1-.64-.63" transform="translate(0)"></path><path id="Fill-115" class="cls-1" d="M9.7,24.57a.64.64,0,0,1,.64-.63.63.63,0,0,1,.63.63.64.64,0,0,1-.63.64h0a.65.65,0,0,1-.64-.64h0" transform="translate(0)"></path><path id="Fill-117" class="cls-1" d="M13.88,9.12a.73.73,0,1,1,.73.73h0a.73.73,0,0,1-.73-.73h0" transform="translate(0)"></path><path id="Fill-119" class="cls-3" d="M3.3,7.17a.51.51,0,1,1,.51.51h0a.51.51,0,0,1-.51-.51" transform="translate(0)"></path><path id="Fill-121" class="cls-2" d="M20,4.18a.73.73,0,1,1,.73.73h0A.73.73,0,0,1,20,4.18" transform="translate(0)"></path><path id="Fill-123" class="cls-2" d="M31.84,22.43a.64.64,0,0,1,.63-.64.64.64,0,1,1,0,1.27h0a.63.63,0,0,1-.63-.63" transform="translate(0)"></path><path id="Fill-125" class="cls-1" d="M18.27,6.91a.64.64,0,0,1,.64-.64.64.64,0,0,1,0,1.27h0a.64.64,0,0,1-.64-.63h0" transform="translate(0)"></path><path id="Fill-127" class="cls-1" d="M33.42,27.07a.71.71,0,0,1,.71-.72.73.73,0,0,1,.73.72.72.72,0,0,1-1.44,0h0" transform="translate(0)"></path><path id="Fill-129" class="cls-1" d="M37.07,23a.8.8,0,1,1,.79.79.8.8,0,0,1-.79-.79h0" transform="translate(0)"></path><path id="Fill-131" class="cls-1" d="M28.91,24.37a.64.64,0,1,1,1.27,0,.63.63,0,0,1-.63.63h0a.63.63,0,0,1-.63-.63" transform="translate(0)"></path><path id="Fill-133" class="cls-1" d="M26.34,4.47a.72.72,0,0,1,.72-.72.73.73,0,0,1,.73.72.72.72,0,0,1-.72.72h0a.73.73,0,0,1-.73-.72h0" transform="translate(0)"></path><path id="Fill-135" class="cls-3" d="M34.48,15.85a.64.64,0,0,1,.63-.64.63.63,0,0,1,0,1.26h0a.64.64,0,0,1-.63-.62" transform="translate(0)"></path><path id="Fill-137" class="cls-1" d="M35.39,31.59a.64.64,0,1,1,.64.63h0a.64.64,0,0,1-.64-.63h0" transform="translate(0)"></path><path id="Fill-139" class="cls-1" d="M18.86,22.78a1.08,1.08,0,1,1,1.08,1.07h0a1.07,1.07,0,0,1-1.08-1.07" transform="translate(0)"></path><path id="Fill-141" class="cls-1" d="M4.45,26.3a.6.6,0,1,1,.6.6h0a.6.6,0,0,1-.6-.6" transform="translate(0)"></path><path id="Fill-143" class="cls-1" d="M8.77,28.8a.73.73,0,1,1,.73.72h0a.73.73,0,0,1-.73-.72" transform="translate(0)"></path><path id="Fill-145" class="cls-1" d="M8.31,7.22A1.08,1.08,0,1,1,9.4,8.29h0A1.09,1.09,0,0,1,8.31,7.22" transform="translate(0)"></path><path id="Fill-147" class="cls-1" d="M20.33,23.74a1,1,0,0,1,1-1,1,1,0,0,1,0,1.91h0a1,1,0,0,1-1-1h0" transform="translate(0)"></path><path id="Fill-149" class="cls-1" d="M21.72,24.17a.75.75,0,1,1,1.49,0,.74.74,0,0,1-.74.74h0a.75.75,0,0,1-.75-.74h0" transform="translate(0)"></path><path id="Fill-151" class="cls-2" d="M17.49,11.47a1.06,1.06,0,1,1,1.06,1.06h0a1.05,1.05,0,0,1-1.06-1.06h0" transform="translate(0)"></path><g id="Group-155"><path id="Fill-153" class="cls-2" d="M25.59,1.2a1.2,1.2,0,1,1,1.2,1.2,1.2,1.2,0,0,1-1.2-1.2h0" transform="translate(0)"></path></g><path id="Fill-156" class="cls-1" d="M27.62.66A.63.63,0,0,1,28.25,0a.64.64,0,0,1,.64.63.64.64,0,0,1-.64.64h0a.64.64,0,0,1-.63-.64h0" transform="translate(0)"></path><path id="Fill-158" class="cls-2" d="M38.4,11.73a1.78,1.78,0,1,1,1.79,1.77h0a1.77,1.77,0,0,1-1.78-1.77" transform="translate(0)"></path><path id="Fill-160" class="cls-1" d="M39.22,19a1.54,1.54,0,1,1,1.54,1.53h0A1.54,1.54,0,0,1,39.22,19h0" transform="translate(0)"></path><path id="Fill-162" class="cls-2" d="M39.69,20.51a1.19,1.19,0,1,1,1.2,1.19h0a1.2,1.2,0,0,1-1.19-1.19" transform="translate(0)"></path><path id="Fill-164" class="cls-1" d="M38.69,20.87a.75.75,0,0,1,.75-.74.74.74,0,1,1,0,1.48h0a.75.75,0,0,1-.75-.74" transform="translate(0)"></path><path id="Fill-166" class="cls-1" d="M40,21.86a.77.77,0,1,1,.77.77h0a.76.76,0,0,1-.77-.77" transform="translate(0)"></path><path id="Fill-168" class="cls-2" d="M33.7,8.87a1.2,1.2,0,0,1,2.4,0,1.19,1.19,0,0,1-1.2,1.2h0a1.2,1.2,0,0,1-1.2-1.2" transform="translate(0)"></path><path id="Fill-170" class="cls-2" d="M16.18,3.28a1.2,1.2,0,1,1,1.2,1.2,1.2,1.2,0,0,1-1.2-1.2h0" transform="translate(0)"></path><path id="Fill-172" class="cls-2" d="M17.41,29.11a.79.79,0,1,1,.79.79h0a.79.79,0,0,1-.79-.79h0" transform="translate(0)"></path><path id="Fill-174" class="cls-3" d="M38.53,23.22A1.17,1.17,0,0,1,39.7,22a1.18,1.18,0,1,1,0,2.35h0a1.17,1.17,0,0,1-1.17-1.17h0" transform="translate(0)"></path><path id="Fill-176" class="cls-3" d="M37.2,14.57a1.09,1.09,0,0,1,1.09-1.1,1.11,1.11,0,0,1,1.1,1.09,1.09,1.09,0,0,1-1.09,1.1h0a1.09,1.09,0,0,1-1.09-1.09" transform="translate(0)"></path><path id="Fill-178" class="cls-3" d="M27.41,26.46a1.08,1.08,0,0,1,2.16,0,1.09,1.09,0,0,1-1.07,1.09h0a1.09,1.09,0,0,1-1.08-1.08h0" transform="translate(0)"></path><path id="Fill-180" class="cls-3" d="M6.63,24.75a.74.74,0,0,1,1.48,0,.73.73,0,0,1-.73.74h0a.74.74,0,0,1-.74-.74" transform="translate(0)"></path><path id="Fill-182" class="cls-3" d="M36.34,21.34a1.07,1.07,0,1,1,1.07,1.07h0a1.07,1.07,0,0,1-1.07-1.07" transform="translate(0)"></path><path id="Fill-184" class="cls-3" d="M30.06,30.24a1.19,1.19,0,1,1,1.19,1.18h0a1.19,1.19,0,0,1-1.19-1.18" transform="translate(0)"></path><path id="Fill-186" class="cls-3" d="M34.88,10.75A1.07,1.07,0,1,1,36,11.81h0a1.06,1.06,0,0,1-1.07-1.06" transform="translate(0)"></path><path id="Fill-188" class="cls-3" d="M9.14,9.69a1.07,1.07,0,1,1,1.07,1.07h0A1.07,1.07,0,0,1,9.14,9.69" transform="translate(0)"></path><path id="Fill-190" class="cls-3" d="M8.71,15.56a1.1,1.1,0,1,1,1.1,1.1h0a1.1,1.1,0,0,1-1.1-1.1" transform="translate(0)"></path><path id="Fill-192" class="cls-3" d="M16.5,8.21a1.07,1.07,0,1,1,1.07,1.06h0A1.06,1.06,0,0,1,16.5,8.21" transform="translate(0)"></path><path id="Fill-194" class="cls-3" d="M17.34,25.1a.86.86,0,0,1,.86-.87.87.87,0,1,1,0,1.73h0a.85.85,0,0,1-.86-.86h0" transform="translate(0)"></path><path id="Fill-196" class="cls-3" d="M35.78,24.3a1.07,1.07,0,1,1,1.07,1.06h0a1.06,1.06,0,0,1-1.07-1.06" transform="translate(0)"></path><path id="Fill-198" class="cls-3" d="M34.63,25.64a1.06,1.06,0,0,1,1.06-1.08,1.07,1.07,0,0,1,1.07,1.07A1.06,1.06,0,0,1,35.7,26.7h0a1.07,1.07,0,0,1-1.06-1.06" transform="translate(0)"></path><path id="Fill-200" class="cls-3" d="M26.72,30A1.07,1.07,0,1,1,27.79,31h0A1.06,1.06,0,0,1,26.72,30" transform="translate(0)"></path><path id="Fill-202" class="cls-3" d="M21.58,5.33A1.07,1.07,0,1,1,22.65,6.4a1.07,1.07,0,0,1-1.07-1.07" transform="translate(0)"></path><path id="Fill-204" class="cls-3" d="M28.08,24.73a.77.77,0,1,1,.77.76h0a.76.76,0,0,1-.77-.76h0" transform="translate(0)"></path><path id="Fill-206" class="cls-2" d="M3.38,18.24a.76.76,0,1,1,.76.75h0a.76.76,0,0,1-.76-.75h0" transform="translate(0)"></path><path id="Fill-208" class="cls-3" d="M18.48,5.34a.73.73,0,0,1,.71-.72.72.72,0,0,1,0,1.43h0a.71.71,0,0,1-.71-.71h0" transform="translate(0)"></path><path id="Fill-210" class="cls-3" d="M13.55,16.9a.71.71,0,1,1,1.42,0,.7.7,0,0,1-.71.72h0a.71.71,0,0,1-.71-.71" transform="translate(0)"></path><path id="Fill-212" class="cls-2" d="M18,20.83a.73.73,0,1,1,.73.73h0a.73.73,0,0,1-.73-.73h0" transform="translate(0)"></path><path id="Fill-216" class="cls-3" d="M36.79,12.42a1.06,1.06,0,1,1,1.06,1.06h0a1.05,1.05,0,0,1-1.06-1.06" transform="translate(0)"></path><path id="Fill-218" class="cls-3" d="M22.32,7.49A1.08,1.08,0,1,1,23.4,8.56h0a1.06,1.06,0,0,1-1.07-1.07h0" transform="translate(0)"></path><path id="Fill-220" class="cls-3" d="M19.48,26.92a.73.73,0,0,1,.71-.72.72.72,0,1,1,0,1.43h0a.71.71,0,0,1-.72-.71h0" transform="translate(0)"></path><path id="Fill-222" class="cls-3" d="M18.64,2.33a.74.74,0,1,1,.74.73h0a.74.74,0,0,1-.74-.73h0" transform="translate(0)"></path><path id="Fill-224" class="cls-3" d="M31.32,5.52a.72.72,0,0,1,1.43,0,.73.73,0,0,1-.71.72h0a.72.72,0,0,1-.72-.72" transform="translate(0)"></path><path id="Fill-226" class="cls-2" d="M24,24.85a.73.73,0,0,1,1.46,0,.73.73,0,0,1-.73.73h0a.73.73,0,0,1-.73-.73h0" transform="translate(0)"></path><path id="Fill-228" class="cls-3" d="M13.75,6a.87.87,0,0,1,.88-.88.88.88,0,0,1,0,1.76h0A.87.87,0,0,1,13.75,6h0" transform="translate(0)"></path><path id="Fill-230" class="cls-3" d="M12.34,23.87a.82.82,0,0,1,.82-.82.81.81,0,0,1,.82.81.82.82,0,0,1-.82.83h0a.82.82,0,0,1-.82-.82h0" transform="translate(0)"></path><path id="Fill-232" class="cls-3" d="M22,2.33a.79.79,0,1,1,.79.78h0A.78.78,0,0,1,22,2.33h0" transform="translate(0)"></path><path id="Fill-234" class="cls-3" d="M34.47,16.9a.72.72,0,1,1,.72.71h0a.71.71,0,0,1-.71-.72" transform="translate(0)"></path><path id="Fill-236" class="cls-2" d="M11.52,15.79a.81.81,0,1,1,.81.8.81.81,0,0,1-.81-.8h0" transform="translate(0)"></path><path id="Fill-238" class="cls-3" d="M29.66,1.2a.71.71,0,0,1,.71-.71.7.7,0,0,1,.72.71.71.71,0,0,1-.71.71h0a.71.71,0,0,1-.72-.71" transform="translate(0)"></path><path id="Fill-240" class="cls-3" d="M28.34,7a.74.74,0,0,1,.73-.75.75.75,0,1,1,0,1.49h0A.74.74,0,0,1,28.34,7" transform="translate(0)"></path><path id="Fill-242" class="cls-2" d="M36.69,28.58a.71.71,0,0,1,.72-.71.7.7,0,0,1,.72.71.72.72,0,0,1-.72.72h0a.72.72,0,0,1-.72-.71h0" transform="translate(0)"></path><path id="Fill-244" class="cls-3" d="M16.21,27.54a.72.72,0,0,1,.72-.72.71.71,0,0,1,.72.71.72.72,0,0,1-.72.72h0a.71.71,0,0,1-.72-.71h0" transform="translate(0)"></path><path id="Fill-246" class="cls-3" d="M24.92,7.15a.73.73,0,1,1,.73.72h0a.72.72,0,0,1-.73-.72" transform="translate(0)"></path><path id="Fill-248" class="cls-2" d="M39.34,14.72a.72.72,0,1,1,.72.71h0a.7.7,0,0,1-.72-.71" transform="translate(0)"></path><path id="Fill-253" class="cls-3" d="M23.28,28.62a.48.48,0,0,1,.48-.49.49.49,0,0,1,.49.49.48.48,0,0,1-.49.48h0a.47.47,0,0,1-.48-.48" transform="translate(0)"></path><path id="Fill-255" class="cls-3" d="M20.82,27.71a.47.47,0,0,1,.48-.48.48.48,0,1,1,0,1h0a.48.48,0,0,1-.48-.48" transform="translate(0)"></path><path id="Fill-257" class="cls-3" d="M14.54,11.08a.48.48,0,1,1,.48.47h0a.48.48,0,0,1-.48-.47h0" transform="translate(0)"></path><path id="Fill-259" class="cls-3" d="M11.44,28.11a.48.48,0,0,1,1,0,.47.47,0,0,1-.47.48h0a.48.48,0,0,1-.48-.47" transform="translate(0)"></path><path id="Fill-261" class="cls-1" d="M31.43,8a.74.74,0,0,1,.75-.74.73.73,0,0,1,.74.74.74.74,0,0,1-.74.75h0A.76.76,0,0,1,31.43,8h0" transform="translate(0)"></path><path id="Fill-263" class="cls-3" d="M27.31,28.28a.52.52,0,0,1,1,0,.52.52,0,0,1-.52.52h0a.52.52,0,0,1-.52-.52" transform="translate(0)"></path><path id="Fill-265" class="cls-3" d="M22.81,24.3a.53.53,0,0,1,.53-.53.53.53,0,1,1,0,1.05h0a.52.52,0,0,1-.53-.52h0" transform="translate(0)"></path><path id="Fill-267" class="cls-3" d="M39.34,32.33a.48.48,0,0,1,.48-.47.47.47,0,0,1,.48.47.48.48,0,0,1-.48.48h0a.49.49,0,0,1-.48-.48" transform="translate(0)"></path><path id="Fill-269" class="cls-3" d="M16.53,21.42a.68.68,0,1,1,.68.68h0a.67.67,0,0,1-.68-.68" transform="translate(0)"></path><path id="Fill-271" class="cls-2" d="M19,21.37a.48.48,0,1,1,.48.47h0a.47.47,0,0,1-.48-.47h0" transform="translate(0)"></path><path id="Fill-273" class="cls-3" d="M33,5.88a.86.86,0,1,1,1.72,0,.86.86,0,0,1-.85.86h0A.86.86,0,0,1,33,5.88" transform="translate(0)"></path><path id="Fill-277" class="cls-3" d="M28.36,31.63a.56.56,0,0,1,.56-.56.57.57,0,0,1,.57.56.56.56,0,0,1-.56.56h0a.56.56,0,0,1-.56-.56" transform="translate(0)"></path><path id="Fill-279" class="cls-3" d="M13.61,29.94a.56.56,0,1,1,1.12,0,.57.57,0,0,1-.56.57h0a.56.56,0,0,1-.56-.57" transform="translate(0)"></path><path id="Fill-281" class="cls-3" d="M34.65,32.08a.62.62,0,1,1,1.23,0,.61.61,0,0,1-.61.62h0a.62.62,0,0,1-.62-.62" transform="translate(0)"></path><path id="Fill-283" class="cls-3" d="M37.44,15.85a.62.62,0,0,1,.61-.62.61.61,0,0,1,0,1.22h0a.61.61,0,0,1-.61-.6" transform="translate(0)"></path><path id="Fill-285" class="cls-3" d="M14.5,20.89a.53.53,0,1,1,.53.53h0a.53.53,0,0,1-.53-.53h0" transform="translate(0)"></path><path id="Fill-287" class="cls-3" d="M18.65,29.92a.82.82,0,1,1,.82.81h0a.81.81,0,0,1-.81-.81h0" transform="translate(0)"></path><path id="Fill-289" class="cls-3" d="M4.52,23.34a.53.53,0,0,1,.53-.53.53.53,0,0,1,0,1.06h0a.53.53,0,0,1-.53-.53h0" transform="translate(0)"></path><path id="Fill-291" class="cls-2" d="M12.33,12.92a.47.47,0,0,1,.47-.47.48.48,0,0,1,0,1h0a.47.47,0,0,1-.47-.48" transform="translate(0)"></path><path id="Fill-293" class="cls-3" d="M6.77,14.66a.47.47,0,0,1,.47-.48.48.48,0,0,1,.48.48.47.47,0,0,1-.48.47h0a.47.47,0,0,1-.47-.47" transform="translate(0)"></path><path id="Fill-295" class="cls-1" d="M1.74,14.11a.58.58,0,0,1,.57-.57.57.57,0,0,1,.56.57.56.56,0,0,1-.56.57h0a.56.56,0,0,1-.57-.57h0" transform="translate(0)"></path><path id="Fill-297" class="cls-1" d="M10.92,14.09a.55.55,0,0,1,.54-.55.54.54,0,0,1,0,1.08h0a.54.54,0,0,1-.54-.53h0" transform="translate(0)"></path><path id="Fill-299" class="cls-3" d="M5.41,13.09a.48.48,0,1,1,.48.48h0a.49.49,0,0,1-.48-.48h0" transform="translate(0)"></path><path id="Fill-301" class="cls-3" d="M12.49,7.6a.67.67,0,0,1,1.33,0,.66.66,0,0,1-.66.67h0a.67.67,0,0,1-.67-.66h0" transform="translate(0)"></path><path id="Fill-303" class="cls-3" d="M33.15,20.75a.48.48,0,0,1,.48-.48.48.48,0,0,1,0,.95h0a.48.48,0,0,1-.48-.47" transform="translate(0)"></path><path id="Fill-305" class="cls-3" d="M30.91,1.3a.48.48,0,1,1,.48.47h0a.47.47,0,0,1-.47-.47h0" transform="translate(0)"></path><path id="Fill-307" class="cls-3" d="M36.09,9a.48.48,0,0,1,.47-.48.48.48,0,1,1,0,.95h0A.47.47,0,0,1,36.09,9" transform="translate(0)"></path><path id="Fill-309" class="cls-3" d="M23.54,24.45A.48.48,0,0,1,24,24a.47.47,0,0,1,.47.47.48.48,0,1,1-.95,0h0" transform="translate(0)"></path><path id="Fill-311" class="cls-3" d="M19.71,1.77a.56.56,0,0,1,.55-.55.55.55,0,0,1,.54.55.54.54,0,0,1-.54.54h0a.54.54,0,0,1-.55-.54h0" transform="translate(0)"></path><path id="Fill-313" class="cls-3" d="M34.41,15a.6.6,0,1,1,.6.6h0a.6.6,0,0,1-.6-.6" transform="translate(0)"></path><path id="Fill-315" class="cls-3" d="M33.27,11.83a.71.71,0,0,1,.71-.71.71.71,0,1,1,0,1.41h0a.7.7,0,0,1-.71-.7h0" transform="translate(0)"></path><path id="Fill-317" class="cls-3" d="M24.77,29.88a.48.48,0,0,1,.95,0,.48.48,0,0,1-.47.48h0a.47.47,0,0,1-.47-.47" transform="translate(0)"></path><path id="Fill-319" class="cls-3" d="M36.05,20.38a.5.5,0,0,1,1,0,.5.5,0,0,1-.49.5h0a.49.49,0,0,1-.49-.49h0" transform="translate(0)"></path><path id="Fill-321" class="cls-3" d="M37.48,34.7a.5.5,0,1,1,1,0,.49.49,0,0,1-.49.49.48.48,0,0,1-.5-.48h0" transform="translate(0)"></path><path id="Fill-323" class="cls-3" d="M15.3,28.8a.48.48,0,1,1,.95,0,.47.47,0,0,1-.47.47h0a.47.47,0,0,1-.47-.47" transform="translate(0)"></path><path id="Fill-325" class="cls-3" d="M32.75,35.23a.48.48,0,0,1,1,0,.47.47,0,0,1-.47.48h0a.48.48,0,0,1-.48-.47" transform="translate(0)"></path><path id="Fill-327" class="cls-3" d="M33.51,20.13a.52.52,0,1,1,.52.51h0a.51.51,0,0,1-.52-.51" transform="translate(0)"></path><path id="Fill-329" class="cls-3" d="M12.7,12.07a.73.73,0,1,1,1.45,0,.72.72,0,0,1-.72.72h0a.73.73,0,0,1-.73-.72" transform="translate(0)"></path><path id="Fill-331" class="cls-2" d="M34.18,13.88a.78.78,0,0,1,.79-.79.79.79,0,0,1,0,1.58h0a.79.79,0,0,1-.79-.79h0" transform="translate(0)"></path><path id="Fill-333" class="cls-2" d="M21,26a.79.79,0,1,1,.79.79h0A.79.79,0,0,1,21,26h0" transform="translate(0)"></path><path id="Fill-335" class="cls-1" d="M8.22,18.31A.79.79,0,1,1,9,19.1H9a.79.79,0,0,1-.79-.79h0" transform="translate(0)"></path><path id="Fill-337" class="cls-1" d="M28.55,1a.73.73,0,1,1,.73.73h0A.73.73,0,0,1,28.55,1" transform="translate(0)"></path><path id="Fill-339" class="cls-1" d="M22,1.07a.63.63,0,0,1,.64-.64.64.64,0,1,1,0,1.28h0A.63.63,0,0,1,22,1.07" transform="translate(0)"></path><path id="Fill-341" class="cls-2" d="M20.26,2a1.2,1.2,0,1,1,1.2,1.2A1.2,1.2,0,0,1,20.26,2h0" transform="translate(0)"></path><path id="Fill-343" class="cls-1" d="M19.08,8.33a1.44,1.44,0,1,1,1.44,1.43h0a1.43,1.43,0,0,1-1.43-1.43" transform="translate(0)"></path><path id="Fill-345" class="cls-2" d="M18.44,10.6a.87.87,0,1,1,.87.86h0a.87.87,0,0,1-.87-.86" transform="translate(0)"></path><path id="Fill-347" class="cls-2" d="M6.36,27.44a.73.73,0,1,1,.73.72h0a.73.73,0,0,1-.73-.72h0" transform="translate(0)"></path><path id="Fill-349" class="cls-1" d="M15.51,5.87a1,1,0,1,1,1,1h0a1,1,0,0,1-1-1" transform="translate(0)"></path><path id="Fill-351" class="cls-1" d="M13.68,3.75a1,1,0,1,1,1,1h0a1,1,0,0,1-1-1" transform="translate(0)"></path><path id="Fill-353" class="cls-1" d="M8.35,12.79a1,1,0,1,1,1,1h0a1,1,0,0,1-1-1" transform="translate(0)"></path><path id="Fill-355" class="cls-1" d="M4,10.77a.83.83,0,1,1,.84.83h0A.84.84,0,0,1,4,10.77" transform="translate(0)"></path><path id="Fill-357" class="cls-2" d="M30.94,23.34a.84.84,0,1,1,.84.84h0a.85.85,0,0,1-.84-.84" transform="translate(0)"></path><path id="Fill-359" class="cls-1" d="M19.67,30.53a.76.76,0,1,1,.76.75h0a.75.75,0,0,1-.75-.75" transform="translate(0)"></path><path id="Fill-361" class="cls-1" d="M35.8,16.87a.9.9,0,1,1,.9.9.9.9,0,0,1-.9-.9h0" transform="translate(0)"></path><path id="Fill-363" class="cls-2" d="M11.1,18.66a.8.8,0,1,1,.8.8h0a.8.8,0,0,1-.8-.8" transform="translate(0)"></path><path id="Fill-365" class="cls-3" d="M12.74,20.38a1.15,1.15,0,1,1,2.29,0,1.15,1.15,0,0,1-1.14,1.15h0a1.14,1.14,0,0,1-1.14-1.14" transform="translate(0)"></path><path id="Fill-367" class="cls-1" d="M14.26,18.51a.77.77,0,0,1,.76-.76.76.76,0,0,1,.75.76.74.74,0,0,1-.75.75h0a.74.74,0,0,1-.76-.75h0" transform="translate(0)"></path><path id="Fill-369" class="cls-1" d="M33.68,36.4A1.31,1.31,0,1,1,35,37.7h0a1.31,1.31,0,0,1-1.31-1.31" transform="translate(0)"></path><path id="Fill-371" class="cls-2" d="M37.07,35.94a.8.8,0,1,1,.8.79h0a.79.79,0,0,1-.79-.79h0" transform="translate(0)"></path><path id="Fill-373" class="cls-1" d="M11.19,29.61a.78.78,0,0,1,.79-.79.79.79,0,1,1,0,1.58h0a.79.79,0,0,1-.79-.79h0" transform="translate(0)"></path><path id="Fill-375" class="cls-2" d="M14.66,14.62a1.88,1.88,0,1,1,1.88,1.88h0a1.88,1.88,0,0,1-1.88-1.88" transform="translate(0)"></path><path id="Fill-377" class="cls-2" d="M14,24.24a1.88,1.88,0,1,1,1.89,1.87h0A1.88,1.88,0,0,1,14,24.24" transform="translate(0)"></path><path id="Fill-379" class="cls-2" d="M15.66,16.5a1.27,1.27,0,0,1,2.54,0,1.27,1.27,0,0,1-1.27,1.27h0a1.27,1.27,0,0,1-1.27-1.27" transform="translate(0)"></path><path id="Fill-381" class="cls-2" d="M16.67,17.84a.85.85,0,1,1,.85.84h0a.85.85,0,0,1-.85-.84h0" transform="translate(0)"></path><path id="Fill-383" class="cls-2" d="M30.6,31.43a1.08,1.08,0,1,1,2.15,0,1.09,1.09,0,0,1-1.07,1.08h0a1.09,1.09,0,0,1-1.08-1.07h0" transform="translate(0)"></path><path id="Fill-385" class="cls-2" d="M36.93,10a1.13,1.13,0,1,1,1.13,1.12h0A1.13,1.13,0,0,1,36.93,10h0" transform="translate(0)"></path><path id="Fill-387" class="cls-1" d="M35.24,14a1.12,1.12,0,1,1,1.12,1.11h0A1.11,1.11,0,0,1,35.24,14h0" transform="translate(0)"></path><path id="Fill-389" class="cls-3" d="M0,11.33a.54.54,0,1,1,.54.54h0A.54.54,0,0,1,0,11.33" transform="translate(0)"></path><path id="Fill-391" class="cls-2" d="M34.41,28.48a1.11,1.11,0,1,1,1.12,1.1h0a1.11,1.11,0,0,1-1.11-1.1" transform="translate(0)"></path><path id="Fill-393" class="cls-2" d="M24.47,31.14a1.21,1.21,0,1,1,1.21,1.2h0a1.19,1.19,0,0,1-1.21-1.2" transform="translate(0)"></path><path id="Fill-395" class="cls-2" d="M36.35,18.34a1.11,1.11,0,0,1,1.11-1.12,1.13,1.13,0,0,1,1.13,1.12,1.12,1.12,0,0,1-1.12,1.12h0a1.12,1.12,0,0,1-1.12-1.11h0" transform="translate(0)"></path><path id="Fill-397" class="cls-1" d="M29.57,6.88A1.16,1.16,0,1,1,30.73,8h0a1.16,1.16,0,0,1-1.16-1.16h0" transform="translate(0)"></path><path id="Fill-399" class="cls-2" d="M32.83,31.14a1.07,1.07,0,1,1,1.07,1.08h0a1.07,1.07,0,0,1-1.07-1.07h0" transform="translate(0)"></path><path id="Fill-401" class="cls-1" d="M38.13,24.48a1.06,1.06,0,1,1,1.06,1.05h0a1,1,0,0,1-1-1.05h0" transform="translate(0)"></path><path id="Fill-403" class="cls-2" d="M22.73,27.27a1.14,1.14,0,0,1,2.27,0,1.12,1.12,0,0,1-1.13,1.14h0a1.12,1.12,0,0,1-1.14-1.13h0" transform="translate(0)"></path><path id="Fill-405" class="cls-1" d="M35.34,35.28a1.07,1.07,0,0,1,1.07-1.07,1.06,1.06,0,0,1,1.07,1.06,1.08,1.08,0,0,1-1.07,1.08h0a1.07,1.07,0,0,1-1.07-1.07h0" transform="translate(0)"></path><path id="Fill-407" class="cls-1" d="M24.82,28.35a.76.76,0,0,1,.75-.75.75.75,0,0,1,0,1.49h0a.75.75,0,0,1-.75-.74" transform="translate(0)"></path><path id="Fill-409" class="cls-1" d="M33.92,23a1.1,1.1,0,1,1,1.1,1.1h0a1.1,1.1,0,0,1-1.1-1.1" transform="translate(0)"></path><path id="Fill-411" class="cls-1" d="M31.71,9.69a1.1,1.1,0,0,1,2.2,0,1.1,1.1,0,0,1-1.1,1.1h0a1.1,1.1,0,0,1-1.1-1.1" transform="translate(0)"></path><path id="Fill-413" class="cls-2" d="M33.27,24.66a1.06,1.06,0,0,1,1.07-1.07,1.07,1.07,0,0,1,0,2.14h0a1.07,1.07,0,0,1-1.08-1.07" transform="translate(0)"></path><path id="Fill-415" class="cls-1" d="M40.12,13.51a1.12,1.12,0,0,1,1.12-1.12,1.1,1.1,0,0,1,1.12,1.11,1.12,1.12,0,0,1-1.12,1.12h0a1.12,1.12,0,0,1-1.12-1.11h0" transform="translate(0)"></path><path id="Fill-417" class="cls-1" d="M34.28,6.77A1.13,1.13,0,1,1,35.41,7.9h0a1.13,1.13,0,0,1-1.13-1.13" transform="translate(0)"></path><path id="Fill-419" class="cls-2" d="M9.67,20.17a.72.72,0,0,1,.72-.72.73.73,0,0,1,.73.72.72.72,0,0,1-.72.72h0a.72.72,0,0,1-.72-.72h0" transform="translate(0)"></path><path id="Fill-421" class="cls-2" d="M31.28,6.88A1.07,1.07,0,1,1,32.35,8h0a1.07,1.07,0,0,1-1.07-1.07h0" transform="translate(0)"></path><path id="Fill-423" class="cls-2" d="M33.92,19.33a.8.8,0,1,1,.8.8.8.8,0,0,1-.8-.8h0" transform="translate(0)"></path><path id="Fill-425" class="cls-2" d="M19.44,9.85a.73.73,0,1,1,.73.72h0a.73.73,0,0,1-.73-.72h0" transform="translate(0)"></path><path id="Fill-427" class="cls-2" d="M33.8,12.79a.8.8,0,1,1,.8.8.8.8,0,0,1-.8-.8h0" transform="translate(0)"></path><path id="Fill-429" class="cls-2" d="M39.28,16.57a.7.7,0,0,1,.71-.72.72.72,0,0,1,0,1.43h0a.71.71,0,0,1-.71-.71" transform="translate(0)"></path><path id="Fill-431" class="cls-1" d="M27.41,7.62a.74.74,0,1,1,.74.73h0a.73.73,0,0,1-.73-.73h0" transform="translate(0)"></path><path id="Fill-433" class="cls-2" d="M11,11.65a.73.73,0,1,1,1.45,0,.72.72,0,0,1-.72.72h0a.73.73,0,0,1-.73-.72" transform="translate(0)"></path><path id="Fill-435" class="cls-1" d="M38.2,13.62a.78.78,0,1,1,.78.77h0a.77.77,0,0,1-.77-.77h0" transform="translate(0)"></path><path id="Fill-437" class="cls-2" d="M8.6,26.55a.73.73,0,0,1,.71-.72.72.72,0,1,1,0,1.43h0a.71.71,0,0,1-.72-.71" transform="translate(0)"></path><path id="Fill-439" class="cls-2" d="M26,31.69a.72.72,0,1,1,.72.71h0a.71.71,0,0,1-.71-.71" transform="translate(0)"></path><path id="Fill-441" class="cls-2" d="M36.92,36.85a.77.77,0,1,1,.77.76h0a.76.76,0,0,1-.77-.76" transform="translate(0)"></path><path id="Fill-443" class="cls-2" d="M31.17,32.4a.72.72,0,1,1,.72.71h0a.71.71,0,0,1-.71-.71" transform="translate(0)"></path><path id="Fill-445" class="cls-2" d="M37.19,29.5a.73.73,0,1,1,1.46,0,.73.73,0,0,1-.73.73h0a.72.72,0,0,1-.73-.73h0" transform="translate(0)"></path><path id="Fill-447" class="cls-3" d="M11.45,5.64a.72.72,0,1,1,.72.71h0a.71.71,0,0,1-.72-.71h0" transform="translate(0)"></path><path id="Fill-449" class="cls-2" d="M33.18,35.94a.72.72,0,1,1,.72.71h0a.71.71,0,0,1-.72-.71" transform="translate(0)"></path><path id="Fill-451" class="cls-2" d="M38.84,32.4a.74.74,0,0,1,.74-.73.73.73,0,0,1,0,1.46h0a.74.74,0,0,1-.74-.73" transform="translate(0)"></path><path id="Fill-453" class="cls-1" d="M10.72,22.27a.7.7,0,1,1,.7.7.7.7,0,0,1-.7-.7h0" transform="translate(0)"></path><path id="Fill-455" class="cls-2" d="M31.61,33.25a.54.54,0,0,1,.53-.53.53.53,0,0,1,0,1.06.52.52,0,0,1-.53-.52h0" transform="translate(0)"></path><path id="Fill-461" class="cls-2" d="M2.08,10.75a.47.47,0,0,1,.47-.48.48.48,0,0,1,0,1h0a.47.47,0,0,1-.48-.47h0" transform="translate(0)"></path><path id="Fill-463" class="cls-2" d="M26.34,27.6a.53.53,0,1,1,.53.52h0a.52.52,0,0,1-.53-.52h0" transform="translate(0)"></path><path id="Fill-465" class="cls-2" d="M27.1,31.78a.56.56,0,1,1,.56.56h0a.56.56,0,0,1-.56-.56h0" transform="translate(0)"></path><path id="Fill-467" class="cls-1" d="M19.62,28.35a.49.49,0,1,1,.49.48h0a.48.48,0,0,1-.48-.48" transform="translate(0)"></path><path id="Fill-469" class="cls-2" d="M16,29.69a.49.49,0,1,1,1,0,.48.48,0,0,1-.49.49h0a.49.49,0,0,1-.49-.49" transform="translate(0)"></path><path id="Fill-471" class="cls-1" d="M28.47,7.88a.6.6,0,1,1,.6.6h0a.6.6,0,0,1-.6-.6" transform="translate(0)"></path><path id="Fill-473" class="cls-2" d="M32.28,34.43a.5.5,0,0,1,.5-.5.5.5,0,0,1,0,1,.5.5,0,0,1-.5-.5" transform="translate(0)"></path><path id="Fill-475" class="cls-1" d="M35.61,18.72a.47.47,0,0,1,.48-.47.46.46,0,0,1,.47.47.47.47,0,0,1-.47.48h0a.48.48,0,0,1-.48-.48" transform="translate(0)"></path><path id="Fill-477" class="cls-1" d="M37.73,25.77a.77.77,0,1,1,.77.76h0a.76.76,0,0,1-.76-.76h0" transform="translate(0)"></path><path id="Fill-479" class="cls-2" d="M36.78,27.61a.5.5,0,0,1,.5-.5.5.5,0,0,1,0,1,.5.5,0,0,1-.5-.5" transform="translate(0)"></path><path id="Fill-481" class="cls-2" d="M38.8,31.46a.54.54,0,0,1,.54-.55.56.56,0,0,1,.56.55.55.55,0,0,1-.55.55h0a.54.54,0,0,1-.55-.55" transform="translate(0)"></path><path id="Fill-483" class="cls-2" d="M36.59,37.4a.55.55,0,0,1,.55-.55.53.53,0,0,1,.55.54.54.54,0,0,1-.54.56h0a.55.55,0,0,1-.55-.55" transform="translate(0)"></path><path id="Fill-485" class="cls-2" d="M25.23,24.73a.47.47,0,0,1,.48-.47.46.46,0,0,1,.47.47.47.47,0,0,1-.47.48h0a.48.48,0,0,1-.48-.48h0" transform="translate(0)"></path><path id="Fill-487" class="cls-2" d="M29.37,25.73a.56.56,0,1,1,.56.55h0a.56.56,0,0,1-.56-.55h0" transform="translate(0)"></path><path id="Fill-489" class="cls-1" d="M26.4,28.54a.32.32,0,0,1,.63,0,.31.31,0,0,1-.31.32h0a.32.32,0,0,1-.32-.32" transform="translate(0)"></path><path id="Fill-491" class="cls-1" d="M38.15,36.85a.39.39,0,1,1,.77,0,.39.39,0,0,1-.77,0h0" transform="translate(0)"></path><path id="Fill-493" class="cls-2" d="M26.05,24.62a.32.32,0,0,1,.32-.32.32.32,0,0,1,0,.63h0a.31.31,0,0,1-.32-.31" transform="translate(0)"></path><path id="Fill-495" class="cls-2" d="M30.18,26.21a.32.32,0,1,1,.32.31h0a.32.32,0,0,1-.32-.31" transform="translate(0)"></path><path id="Fill-497" class="cls-2" d="M34.24,18.25a.34.34,0,0,1,.35-.36.36.36,0,1,1,0,.71.35.35,0,0,1-.35-.35h0" transform="translate(0)"></path><path id="Fill-499" class="cls-2" d="M36.34,37.9a.32.32,0,1,1,.32.32h0a.32.32,0,0,1-.32-.32h0" transform="translate(0)"></path><path id="Fill-501" class="cls-2" d="M11.44,26.3a.44.44,0,0,1,.44-.44.44.44,0,0,1,0,.88h0a.44.44,0,0,1-.44-.44h0" transform="translate(0)"></path><path id="Fill-503" class="cls-1" d="M37.41,19.88a.36.36,0,1,1,.36.36h0a.36.36,0,0,1-.36-.36h0" transform="translate(0)"></path><path id="Fill-507" class="cls-1" d="M31.86,33.81a.28.28,0,1,1,.28.28h0a.28.28,0,0,1-.28-.28h0" transform="translate(0)"></path><path id="Fill-509" class="cls-1" d="M36.69,36.94a.26.26,0,0,1,.26-.26.26.26,0,0,1,0,.52h0a.26.26,0,0,1-.26-.26h0" transform="translate(0)"></path><path id="Fill-511" class="cls-2" d="M34.37,17.54a.28.28,0,0,1,.28-.28.27.27,0,0,1,.28.27.28.28,0,0,1-.28.29h0a.29.29,0,0,1-.28-.28" transform="translate(0)"></path><path id="Fill-513" class="cls-2" d="M38.88,30.79a.27.27,0,0,1,.28-.28.28.28,0,0,1,.28.28.29.29,0,0,1-.28.28h0a.29.29,0,0,1-.28-.28h0" transform="translate(0)"></path><path id="Fill-515" class="cls-2" d="M30.6,27.38a.38.38,0,1,1,.37.37.38.38,0,0,1-.37-.37h0" transform="translate(0)"></path><path id="Fill-517" class="cls-2" d="M35.87,32.73a.34.34,0,0,1,.35-.35.35.35,0,0,1,.35.35.35.35,0,0,1-.35.35h0a.35.35,0,0,1-.35-.35" transform="translate(0)"></path><path id="Fill-519" class="cls-2" d="M32.55,33.31a.3.3,0,0,1,.3-.31.31.31,0,0,1,.31.31.3.3,0,0,1-.3.31h0a.31.31,0,0,1-.3-.31" transform="translate(0)"></path><path id="Fill-521" class="cls-2" d="M36.9,7.54a1.09,1.09,0,1,1,2.18,0A1.09,1.09,0,0,1,38,8.63h0A1.09,1.09,0,0,1,36.9,7.54h0" transform="translate(0)"></path><path id="Fill-523" class="cls-1" d="M38.09,6.23a.48.48,0,1,1,.48.48h0a.48.48,0,0,1-.48-.48h0" transform="translate(0)"></path><path id="Fill-525" class="cls-1" d="M38.61,6.81a.44.44,0,0,1,.44-.44.44.44,0,0,1,0,.88h0a.44.44,0,0,1-.44-.44h0" transform="translate(0)"></path><path id="Fill-527" class="cls-2" d="M39.76,7.88a.26.26,0,1,1,.24.28h0a.27.27,0,0,1-.24-.28h0" transform="translate(0)"></path><path id="Fill-529" class="cls-2" d="M39.38,7.54a.32.32,0,1,1,.64,0,.32.32,0,0,1-.32.32h0a.32.32,0,0,1-.32-.32" transform="translate(0)"></path><path id="Fill-531" class="cls-2" d="M40,8.17A.22.22,0,0,1,40.23,8a.21.21,0,0,1,.21.21.21.21,0,0,1-.21.21h0A.21.21,0,0,1,40,8.17" transform="translate(0)"></path><path id="Fill-533" class="cls-2" d="M35.12,4.9a1.19,1.19,0,0,1,2.37,0,1.17,1.17,0,0,1-1.18,1.19h0A1.18,1.18,0,0,1,35.12,4.9" transform="translate(0)"></path><path id="Fill-535" class="cls-1" d="M34.93,4a.78.78,0,1,1,.78.77h0A.77.77,0,0,1,34.93,4" transform="translate(0)"></path><path id="Fill-537" class="cls-3" d="M30.51,8.64a.76.76,0,1,1,.76.75h0a.76.76,0,0,1-.76-.75" transform="translate(0)"></path><path id="Fill-539" class="cls-2" d="M29.37,8.17a.72.72,0,0,1,1.43,0,.71.71,0,0,1-.71.72h0a.71.71,0,0,1-.71-.71" transform="translate(0)"></path><path id="Fill-541" class="cls-2" d="M30.2,8.84a.32.32,0,1,1,.31.31h0a.31.31,0,0,1-.31-.31" transform="translate(0)"></path><path id="Fill-543" class="cls-2" d="M30.93,9.34a.25.25,0,1,1,.25.25h0a.25.25,0,0,1-.25-.25" transform="translate(0)"></path><path id="Fill-545" class="cls-2" d="M31.24,9.59a.21.21,0,0,1,.21-.21.21.21,0,0,1,.22.21.21.21,0,0,1-.21.21h0a.21.21,0,0,1-.21-.21" transform="translate(0)"></path><path id="Fill-547" class="cls-2" d="M30.59,9a.32.32,0,1,1,.63,0,.31.31,0,0,1-.31.31h0A.32.32,0,0,1,30.59,9h0" transform="translate(0)"></path><path id="Fill-549" class="cls-1" d="M38.78,17.71a.82.82,0,0,1,.81-.82.81.81,0,0,1,.81.81.8.8,0,0,1-.8.81h0a.82.82,0,0,1-.81-.8" transform="translate(0)"></path><path id="Fill-551" class="cls-3" d="M37.7,18.88a.76.76,0,0,1,.76-.76.77.77,0,0,1,.77.76.76.76,0,0,1-.76.76h0a.76.76,0,0,1-.77-.76h0" transform="translate(0)"></path><path id="Fill-553" class="cls-3" d="M37.91,33.87a.77.77,0,1,1,.77.76h0a.77.77,0,0,1-.77-.76h0" transform="translate(0)"></path><path id="Fill-555" class="cls-2" d="M37.58,32.71a.64.64,0,1,1,.64.63h0a.64.64,0,0,1-.64-.63h0" transform="translate(0)"></path><path id="Fill-557" class="cls-2" d="M36.71,33.36a.58.58,0,0,1,1.15,0,.57.57,0,0,1-.57.57h0a.56.56,0,0,1-.57-.57h0" transform="translate(0)"></path><path id="Fill-559" class="cls-2" d="M30.23,26.68a.22.22,0,0,1,.22-.22.21.21,0,0,1,.22.21.22.22,0,0,1-.22.22h0a.21.21,0,0,1-.22-.21h0" transform="translate(0)"></path><path id="Fill-561" class="cls-2" d="M20.85,9.21a.48.48,0,1,1,.95,0,.48.48,0,0,1-.47.48h0a.47.47,0,0,1-.48-.47h0" transform="translate(0)"></path><path id="Fill-563" class="cls-1" d="M16.71,12.72a1.08,1.08,0,1,1,1.08,1.08,1.07,1.07,0,0,1-1.08-1.08h0" transform="translate(0)"></path><path id="Fill-565" class="cls-2" d="M19.81,6.39a.91.91,0,1,1,.91.91h0a.91.91,0,0,1-.91-.91h0" transform="translate(0)"></path><path id="Fill-567" class="cls-1" d="M22,8.21a.67.67,0,1,1,.67.66h0A.66.66,0,0,1,22,8.21h0" transform="translate(0)"></path><path id="Fill-569" class="cls-3" d="M13.16,14.11a1.1,1.1,0,1,1,1.1,1.1h0a1.1,1.1,0,0,1-1.1-1.1" transform="translate(0)"></path><path id="Fill-571" class="cls-3" d="M12.39,19a.89.89,0,1,1,.89.88h0a.88.88,0,0,1-.89-.88h0" transform="translate(0)"></path></g></svg> 