<?xml version="1.0" encoding="UTF-8"?> <svg xmlns="http://www.w3.org/2000/svg" viewBox="0 0 33.085 33.084"><defs><style>.a{fill:#782ae3;}</style></defs><path class="a" d="M16.478,13.053a1.292,1.292,0,1,1-1.292,1.292A1.292,1.292,0,0,1,16.478,13.053ZM21,14.346a1.292,1.292,0,1,0,1.292-1.292A1.292,1.292,0,0,0,21,14.346Zm-11.632,0a1.292,1.292,0,1,0,1.292-1.292A1.292,1.292,0,0,0,9.37,14.346Zm22.579,12.12a3.877,3.877,0,0,1-5.482,5.484l-7.095-7.079a1.291,1.291,0,0,1-.324-.539L17.5,19.245a1.292,1.292,0,0,1,1.582-1.621L24.3,19.069a1.293,1.293,0,0,1,.568.331Zm-10.522-3.2,4.788,4.777,1.828-1.828-4.759-4.75-2.624-.727Zm8.695,5.024-.249-.249-1.828,1.828.249.248a1.292,1.292,0,1,0,1.829-1.827Zm-12.86-1.513c-.239.01-.481.016-.719.016a15.64,15.64,0,0,1-5.946-1.15,1.294,1.294,0,0,0-.992.006L3.72,28.138l1.983-4.7a1.292,1.292,0,0,0-.225-1.362,10.958,10.958,0,0,1-2.893-7.355c0-6.693,6.262-12.139,13.958-12.139S30.5,8.03,30.5,14.724a10.639,10.639,0,0,1-1.159,4.736,1.292,1.292,0,1,0,2.317,1.145,13.2,13.2,0,0,0,1.426-5.881C33.086,6.6,25.665,0,16.543,0S0,6.6,0,14.724a13.4,13.4,0,0,0,3.014,8.442L.1,30.063a1.292,1.292,0,0,0,1.693,1.693l8.331-3.517a18.258,18.258,0,0,0,6.416,1.143c.276,0,.556-.006.832-.018a1.292,1.292,0,0,0-.113-2.582Zm0,0" transform="translate(0 0)"></path></svg> 