<?xml version="1.0" encoding="UTF-8"?> <svg xmlns="http://www.w3.org/2000/svg" xmlns:xlink="http://www.w3.org/1999/xlink" width="80" height="80" viewBox="0 0 80 80"><defs><linearGradient id="linear-gradient" x1="-0.262" y1="-0.129" x2="1.06" y2="1.065" gradientUnits="objectBoundingBox"><stop offset="0" stop-color="#abf5d1"></stop><stop offset="1" stop-color="#064"></stop></linearGradient></defs><g id="Group_4414" data-name="Group 4414" transform="translate(-1085 -917)"><circle id="Ellipse_82" data-name="Ellipse 82" cx="40" cy="40" r="40" transform="translate(1085 917)" fill="url(#linear-gradient)"></circle><g id="progress-arrows" transform="translate(1108 937)"><g id="Group_4371" data-name="Group 4371" transform="translate(3 0)"><path id="Path_1588" data-name="Path 1588" d="M28.186,15.267A12.244,12.244,0,0,0,24.192,5.9a1.934,1.934,0,1,0-2.734,2.736,8.381,8.381,0,0,1,2.861,6.629,10.555,10.555,0,0,1-3.115,7.517,9.816,9.816,0,0,1-6.627,3.08l2.409-2.411a1.933,1.933,0,0,0-2.734-2.734L7.086,27.886l7.167,7.167a1.933,1.933,0,0,0,2.734-2.734L14.4,29.736a13.8,13.8,0,0,0,9.537-4.217A14.4,14.4,0,0,0,28.186,15.267Z" transform="translate(0.814 4.981)" fill="#fff"></path><path id="Path_1589" data-name="Path 1589" d="M6.867,20.3a10.563,10.563,0,0,1,3.115-7.519A9.816,9.816,0,0,1,16.665,9.7L14.2,12.165A1.934,1.934,0,1,0,16.934,14.9L24.1,7.734,16.934.567A1.933,1.933,0,0,0,14.2,3.3l2.535,2.535a13.765,13.765,0,0,0-9.487,4.213A14.4,14.4,0,0,0,3,20.3a12.244,12.244,0,0,0,3.994,9.365,1.934,1.934,0,0,0,2.734-2.738A8.375,8.375,0,0,1,6.867,20.3Z" transform="translate(-3 0)" fill="#fff"></path></g></g></g></svg> 