<?xml version="1.0" encoding="UTF-8"?> <svg xmlns="http://www.w3.org/2000/svg" viewBox="0 0 50.329 50.329"><defs><style>.a{fill:#286efa;}</style></defs><g transform="translate(0 0)"><path class="a" d="M50.329,34.061A16.306,16.306,0,0,0,38.416,18.384a19.217,19.217,0,1,0-35.751,10.6L.071,38.364,9.449,35.77a19.146,19.146,0,0,0,8.934,2.645,16.274,16.274,0,0,0,23.955,9.653l7.92,2.191-2.191-7.92A16.21,16.21,0,0,0,50.329,34.061ZM9.915,32.582,4.3,34.135,5.853,28.52,5.5,27.966a16.263,16.263,0,1,1,4.969,4.969ZM46.029,46.029l-4.166-1.153-.556.362a13.324,13.324,0,0,1-19.873-6.932A19.254,19.254,0,0,0,38.307,21.433a13.325,13.325,0,0,1,6.932,19.874l-.362.556Zm0,0" transform="translate(0)"></path><path class="a" d="M180.5,271h2.949v2.949H180.5Zm0,0" transform="translate(-162.757 -244.361)"></path><path class="a" d="M144.347,95.9a2.919,2.919,0,0,1-.96,2.177l-3.464,3.17v3.6h2.949v-2.3l2.505-2.293A5.9,5.9,0,1,0,135.5,95.9h2.949a2.949,2.949,0,1,1,5.9,0Zm0,0" transform="translate(-122.18 -81.153)"></path></g></svg> 