<?xml version="1.0" encoding="UTF-8"?> <!-- Generator: Adobe Illustrator 21.1.0, SVG Export Plug-In . SVG Version: 6.00 Build 0) --> <svg xmlns="http://www.w3.org/2000/svg" xmlns:xlink="http://www.w3.org/1999/xlink" id="Capa_1" x="0px" y="0px" viewBox="0 0 67.6 68.5" style="enable-background:new 0 0 67.6 68.5;" xml:space="preserve"> <style type="text/css"> .st0{fill:#00A500;} </style> <g> <g> <g> <path class="st0" d="M17.8,61.7H8.7c-1.1,0-1.8-0.6-2.1-1c-0.5-0.6-0.7-1.5-0.5-2.3c2.7-12.9,14-22.3,27.1-22.6 c0.2,0,0.4,0,0.7,0c0.2,0,0.4,0,0.7,0c3.2,0.1,6.3,0.7,9.3,1.8c1.3,0.5,2.8-0.2,3.3-1.5c0.5-1.3-0.2-2.8-1.5-3.3 c-0.4-0.2-0.9-0.3-1.3-0.5c4.3-3.2,7-8.3,7-14c0-9.7-7.9-17.5-17.5-17.5S16.3,8.7,16.3,18.4c0,5.7,2.8,10.8,7,14 c-3.9,1.3-7.6,3.3-10.8,5.9C6.7,43.2,2.6,50,1,57.4c-0.5,2.3,0.1,4.7,1.6,6.6c1.5,1.8,3.7,2.9,6.1,2.9h9.1c1.4,0,2.6-1.2,2.6-2.6 C20.4,62.9,19.2,61.7,17.8,61.7z M21.5,18.4C21.5,11.6,27.1,6,33.9,6s12.4,5.6,12.4,12.4c0,6.6-5.2,12-11.8,12.4 c-0.2,0-0.4,0-0.6,0c-0.2,0-0.4,0-0.6,0C26.7,30.4,21.5,25,21.5,18.4z"></path> <path class="st0" d="M64.9,45.3c-1.1-2.5-3.6-4.1-6.3-4.1h-8c0,0,0,0,0,0c-2.9,0-5.4,1.7-6.4,4.4c-0.1,0.4-0.3,0.8-0.5,1.3H26.7 c-0.7,0-1.4,0.3-1.8,0.8l-4.4,4.6c-1,1-1,2.6,0,3.6l4.5,4.6c0.5,0.5,1.1,0.8,1.8,0.8h8.4c1.4,0,2.6-1.2,2.6-2.6 c0-1.4-1.2-2.6-2.6-2.6h-7.3l-2-2l1.9-2h17.7c1.2,0,2.2-0.8,2.5-2c0.2-0.9,0.5-1.7,0.8-2.7c0.2-0.6,0.9-1.1,1.6-1.1c0,0,0,0,0,0 h8c0.7,0,1.4,0.4,1.6,1c0.7,1.5,1.5,3.9,1.5,6.6c0,2.6-0.8,5.1-1.5,6.7c-0.3,0.6-0.9,1.1-1.6,1.1c0,0,0,0,0,0h-8.1 c-0.7,0-1.4-0.5-1.7-1.1C48.5,59.8,48.2,59,48,58c-0.3-1.4-1.7-2.2-3.1-1.9c-1.4,0.3-2.2,1.7-1.9,3.1c0.3,1.3,0.6,2.3,1,3.3 c1.1,2.6,3.6,4.3,6.4,4.3h8.1c0,0,0,0,0,0c2.8,0,5.2-1.6,6.3-4.2c0.9-2,2-5.2,1.9-8.8C66.9,50.4,65.8,47.3,64.9,45.3z"></path> <circle class="st0" cx="56.4" cy="54" r="2.6"></circle> </g> </g> </g> </svg> 