<?xml version="1.0" encoding="UTF-8"?> <svg xmlns="http://www.w3.org/2000/svg" xmlns:xlink="http://www.w3.org/1999/xlink" width="151" height="151" viewBox="0 0 151 151"><defs><linearGradient id="linear-gradient" x1="0.25" y1="-0.095" x2="0.846" y2="1.067" gradientUnits="objectBoundingBox"><stop offset="0" stop-color="#57d9a3"></stop><stop offset="1" stop-color="#064"></stop></linearGradient><filter id="Ellipse_43" x="0" y="0" width="151" height="151"><feOffset dy="7"></feOffset><feGaussianBlur stdDeviation="8.5" result="blur"></feGaussianBlur><feFlood flood-color="#bfbfbf" flood-opacity="0.161"></feFlood><feComposite operator="in" in2="blur"></feComposite><feComposite in="SourceGraphic"></feComposite></filter></defs><g id="Group_3524" data-name="Group 3524" transform="translate(-417.5 -1899.5)"><g transform="matrix(1, 0, 0, 1, 417.5, 1899.5)" filter="url(#Ellipse_43)"><circle id="Ellipse_43-2" data-name="Ellipse 43" cx="50" cy="50" r="50" transform="translate(25.5 18.5)" fill="url(#linear-gradient)"></circle></g><g id="Group_3523" data-name="Group 3523" transform="translate(468 1943)"><g id="Group_3073" data-name="Group 3073"><path id="Path_1120" data-name="Path 1120" d="M12.851,46.124H5.931a1.986,1.986,0,0,1-1.563-.743,2.042,2.042,0,0,1-.414-1.712,21.593,21.593,0,0,1,20.565-17.1c.165.006.331.01.5.01s.336,0,.5-.01a21.406,21.406,0,0,1,7.059,1.36,1.954,1.954,0,0,0,1.374-3.659q-.485-.182-.977-.343a13.29,13.29,0,1,0-15.909.007A25.415,25.415,0,0,0,.127,42.872a5.938,5.938,0,0,0,5.8,7.161h6.919a1.954,1.954,0,0,0,0-3.909ZM15.636,13.29a9.381,9.381,0,1,1,9.838,9.37c-.152,0-.3-.005-.457-.005s-.306,0-.458,0A9.393,9.393,0,0,1,15.636,13.29Z" transform="translate(0)" fill="#fff"></path><path id="Path_1121" data-name="Path 1121" d="M180.269,316.089A5.266,5.266,0,0,0,175.464,313h-6.108a5.174,5.174,0,0,0-4.889,3.3c-.1.267-.228.6-.359,1h-12.8a1.955,1.955,0,0,0-1.4.593l-3.357,3.458a1.954,1.954,0,0,0,.008,2.731l3.42,3.48a1.954,1.954,0,0,0,1.394.584h6.352a1.954,1.954,0,0,0,0-3.909h-5.532l-1.508-1.534,1.452-1.5h13.436a1.954,1.954,0,0,0,1.9-1.49,16.148,16.148,0,0,1,.643-2.013,1.281,1.281,0,0,1,1.245-.8h6.1a1.333,1.333,0,0,1,1.242.775,12.622,12.622,0,0,1,1.156,4.982,13,13,0,0,1-1.147,5.071,1.334,1.334,0,0,1-1.227.8H169.31a1.391,1.391,0,0,1-1.26-.866,12.992,12.992,0,0,1-.606-1.935,1.954,1.954,0,1,0-3.8.91,16.819,16.819,0,0,0,.794,2.515,5.272,5.272,0,0,0,4.869,3.284h6.181a5.24,5.24,0,0,0,4.806-3.147,16.918,16.918,0,0,0,1.473-6.643A16.547,16.547,0,0,0,180.269,316.089Z" transform="translate(-131.732 -282.413)" fill="#fff"></path><circle id="Ellipse_39" data-name="Ellipse 39" cx="2" cy="2" r="2" transform="translate(40 38)" fill="#fff"></circle></g></g></g></svg> 