<?xml version="1.0" encoding="UTF-8"?> <!-- Generator: Adobe Illustrator 23.0.3, SVG Export Plug-In . SVG Version: 6.00 Build 0) --> <svg xmlns="http://www.w3.org/2000/svg" xmlns:xlink="http://www.w3.org/1999/xlink" id="Layer_1" x="0px" y="0px" viewBox="0 0 182.7 38.8" style="enable-background:new 0 0 182.7 38.8;" xml:space="preserve"> <style type="text/css"> .st0{fill-rule:evenodd;clip-rule:evenodd;fill:#FFFFFF;} </style> <g id="Group_2962" transform="translate(521 -135)"> <path id="Fill-214" class="st0" d="M-480,149.4c0-0.4,0.3-0.7,0.7-0.7c0.4,0,0.7,0.3,0.7,0.7c0,0.4-0.3,0.7-0.7,0.7c0,0,0,0,0,0 C-479.7,150.1-480,149.8-480,149.4"></path> <g id="Group-252" transform="translate(-339.79 180.742)"> <path id="Fill-250" class="st0" d="M-140-29.3c0-0.4,0.3-0.7,0.7-0.7c0.4,0,0.7,0.3,0.7,0.7s-0.3,0.7-0.7,0.7c0,0,0,0,0,0 C-139.7-28.6-140-28.9-140-29.3C-140-29.3-140-29.3-140-29.3"></path> </g> <path id="Fill-275" class="st0" d="M-479.5,150.3c0-0.3,0.2-0.5,0.5-0.5c0.3,0,0.5,0.2,0.5,0.5c0,0.3-0.2,0.5-0.5,0.5l0,0 C-479.3,150.8-479.5,150.6-479.5,150.3"></path> <path id="Fill-457" class="st0" d="M-479.6,152.4c0-0.3,0.3-0.6,0.6-0.6c0.3,0,0.6,0.3,0.6,0.6c0,0.3-0.3,0.6-0.6,0.6c0,0,0,0,0,0 C-479.4,153-479.6,152.8-479.6,152.4C-479.6,152.4-479.6,152.4-479.6,152.4"></path> <path id="Fill-459" class="st0" d="M-479.4,153.2c0-0.3,0.2-0.5,0.5-0.5c0.3,0,0.5,0.2,0.5,0.5c0,0.3-0.2,0.5-0.5,0.5c0,0,0,0,0,0 C-479.2,153.7-479.4,153.5-479.4,153.2C-479.4,153.2-479.4,153.2-479.4,153.2"></path> <path id="Fill-505" class="st0" d="M-479.4,153.9c0-0.2,0.2-0.4,0.4-0.4s0.4,0.2,0.4,0.4s-0.2,0.4-0.4,0.4c0,0,0,0,0,0 C-479.2,154.3-479.4,154.2-479.4,153.9C-479.4,153.9-479.4,153.9-479.4,153.9"></path> <path id="Fill-1" class="st0" d="M-488.6,157.1c0-0.7,0.5-1.2,1.2-1.2c0.7,0,1.2,0.5,1.2,1.2c0,0.7-0.5,1.2-1.2,1.2l0,0 C-488.1,158.3-488.6,157.7-488.6,157.1"></path> <path id="Fill-3" class="st0" d="M-500.6,164.9c0-1,0.8-1.8,1.8-1.8c1,0,1.8,0.8,1.8,1.8s-0.8,1.8-1.8,1.8c0,0,0,0,0,0 C-499.8,166.8-500.6,165.9-500.6,164.9"></path> <path id="Fill-5" class="st0" d="M-493.3,164c0-1,0.8-1.8,1.8-1.8s1.8,0.8,1.8,1.8c0,1-0.8,1.8-1.8,1.8c0,0,0,0,0,0 C-492.5,165.8-493.3,165-493.3,164C-493.3,164-493.3,164-493.3,164"></path> <path id="Fill-7" class="st0" d="M-488.7,139.2c0-1,0.8-1.9,1.9-1.9c1,0,1.9,0.8,1.9,1.9c0,1-0.8,1.9-1.9,1.9c0,0,0,0,0,0 C-487.8,141.1-488.7,140.2-488.7,139.2"></path> <path id="Fill-9" class="st0" d="M-484.6,161.3c0-0.7,0.5-1.2,1.2-1.2c0.7,0,1.2,0.5,1.2,1.2s-0.5,1.2-1.2,1.2c0,0,0,0,0,0 C-484.1,162.5-484.6,162-484.6,161.3"></path> <path id="Fill-11" class="st0" d="M-491.4,139.4c0-0.7,0.6-1.3,1.3-1.3c0.7,0,1.3,0.6,1.3,1.3c0,0.7-0.6,1.3-1.3,1.3c0,0,0,0,0,0 C-490.8,140.6-491.4,140.1-491.4,139.4C-491.4,139.4-491.4,139.4-491.4,139.4"></path> <path id="Fill-13" class="st0" d="M-493.9,138.6c0-0.5,0.4-1,0.9-1c0.5,0,1,0.4,1,0.9s-0.4,1-0.9,1c0,0,0,0,0,0 C-493.5,139.6-493.9,139.1-493.9,138.6"></path> <path id="Fill-15" class="st0" d="M-487.1,155.7c0-0.7,0.5-1.2,1.2-1.2c0.7,0,1.2,0.5,1.2,1.2c0,0.7-0.5,1.2-1.2,1.2l0,0 C-486.5,156.9-487.1,156.4-487.1,155.7"></path> <path id="Fill-17" class="st0" d="M-494.4,160.7c0-0.7,0.5-1.2,1.2-1.2c0.7,0,1.2,0.5,1.2,1.2s-0.5,1.2-1.2,1.2c0,0,0,0,0,0 C-493.9,161.9-494.4,161.3-494.4,160.7"></path> <path id="Fill-19" class="st0" d="M-504.6,157.9c0-0.6,0.5-1.1,1.1-1.1c0.6,0,1.1,0.5,1.1,1.1c0,0.6-0.5,1.1-1.1,1.1c0,0,0,0,0,0 C-504.1,159-504.6,158.5-504.6,157.9C-504.6,157.9-504.6,157.9-504.6,157.9"></path> <path id="Fill-21" class="st0" d="M-496.2,161.2c0-0.5,0.4-0.9,0.9-0.9c0.5,0,0.9,0.4,0.9,0.9s-0.4,0.9-0.9,0.9c0,0,0,0,0,0 C-495.8,162.1-496.2,161.7-496.2,161.2C-496.2,161.2-496.2,161.2-496.2,161.2"></path> <path id="Fill-23" class="st0" d="M-482.3,170.6c0-0.5,0.4-0.9,0.9-0.9c0.5,0,0.9,0.4,0.9,0.9s-0.4,0.9-0.9,0.9c0,0,0,0,0,0 C-481.9,171.5-482.3,171.1-482.3,170.6L-482.3,170.6"></path> <path id="Fill-25" class="st0" d="M-507.4,163.1c0-0.5,0.4-0.9,0.9-0.9s0.9,0.4,0.9,0.9s-0.4,0.9-0.9,0.9c0,0,0,0,0,0 C-507,164-507.4,163.6-507.4,163.1C-507.4,163.1-507.4,163.1-507.4,163.1"></path> <path id="Fill-27" class="st0" d="M-509.3,144.2c0-0.4,0.4-0.8,0.8-0.8c0.4,0,0.8,0.4,0.8,0.8c0,0.4-0.4,0.8-0.8,0.8c0,0,0,0,0,0 C-509,145-509.3,144.6-509.3,144.2L-509.3,144.2"></path> <path id="Fill-29" class="st0" d="M-514.8,143.9c0-0.4,0.3-0.7,0.7-0.7c0.4,0,0.7,0.3,0.7,0.7s-0.3,0.7-0.7,0.7c0,0,0,0,0,0 C-514.5,144.5-514.8,144.2-514.8,143.9C-514.8,143.9-514.8,143.9-514.8,143.9"></path> <path id="Fill-31" class="st0" d="M-485.8,150.5c0-0.5,0.4-0.8,0.8-0.8c0.5,0,0.8,0.4,0.8,0.8c0,0.5-0.4,0.8-0.8,0.8c0,0,0,0,0,0 C-485.4,151.3-485.8,151-485.8,150.5C-485.8,150.5-485.8,150.5-485.8,150.5"></path> <path id="Fill-33" class="st0" d="M-516.6,150c0-0.4,0.3-0.7,0.7-0.7s0.7,0.3,0.7,0.7c0,0.4-0.3,0.7-0.7,0.7c0,0,0,0,0,0 C-516.3,150.7-516.6,150.4-516.6,150C-516.6,150-516.6,150-516.6,150"></path> <path id="Fill-35" class="st0" d="M-515,152.5c0-0.4,0.3-0.7,0.7-0.7c0.4,0,0.7,0.3,0.7,0.7c0,0.4-0.3,0.7-0.7,0.7c0,0,0,0,0,0 C-514.7,153.2-515,152.9-515,152.5"></path> <path id="Fill-37" class="st0" d="M-497.6,138.1c0-0.4,0.3-0.7,0.7-0.7c0.4,0,0.7,0.3,0.7,0.7c0,0.4-0.3,0.7-0.7,0.7 C-497.3,138.8-497.6,138.5-497.6,138.1C-497.6,138.1-497.6,138.1-497.6,138.1"></path> <path id="Fill-39" class="st0" d="M-514.3,146.2c0-0.4,0.3-0.7,0.7-0.7s0.7,0.3,0.7,0.7s-0.3,0.7-0.7,0.7c0,0,0,0,0,0 C-514,146.9-514.3,146.6-514.3,146.2L-514.3,146.2"></path> <path id="Fill-41" class="st0" d="M-491.1,159.1c0-0.6,0.5-1,1-1c0.6,0,1,0.5,1,1s-0.5,1-1,1c0,0,0,0,0,0 C-490.6,160.1-491.1,159.7-491.1,159.1C-491.1,159.1-491.1,159.1-491.1,159.1"></path> <path id="Fill-43" class="st0" d="M-481.4,169.8c0-0.6,0.4-1,1-1c0.6,0,1,0.4,1,1c0,0.6-0.4,1-1,1c0,0,0,0,0,0 C-480.9,170.8-481.4,170.4-481.4,169.8C-481.4,169.8-481.4,169.8-481.4,169.8"></path> <path id="Fill-45" class="st0" d="M-486.6,172.8c0-0.6,0.5-1,1-1c0.6,0,1,0.5,1,1s-0.5,1-1,1c0,0,0,0,0,0 C-486.2,173.8-486.6,173.4-486.6,172.8C-486.6,172.8-486.6,172.8-486.6,172.8"></path> <path id="Fill-47" class="st0" d="M-505.8,146.7c0-0.4,0.4-0.8,0.8-0.8c0.4,0,0.8,0.4,0.8,0.8s-0.4,0.8-0.8,0.8c0,0,0,0,0,0 C-505.5,147.4-505.8,147.1-505.8,146.7L-505.8,146.7"></path> <path id="Fill-49" class="st0" d="M-496,141.7c0-0.8,0.6-1.4,1.4-1.4c0.8,0,1.4,0.6,1.4,1.4c0,0.8-0.6,1.4-1.4,1.4c0,0,0,0,0,0 C-495.4,143.1-496,142.4-496,141.7"></path> <path id="Fill-51" class="st0" d="M-484.7,166.1c0-0.9,0.7-1.6,1.6-1.6s1.6,0.7,1.6,1.6c0,0.9-0.7,1.6-1.6,1.6c0,0,0,0,0,0 C-484,167.7-484.7,167-484.7,166.1"></path> <path id="Fill-53" class="st0" d="M-490.3,137.6c0-0.8,0.6-1.4,1.4-1.5s1.4,0.6,1.5,1.4c0,0.8-0.6,1.4-1.4,1.5c0,0,0,0,0,0 C-489.6,139.1-490.3,138.4-490.3,137.6"></path> <path id="Fill-55" class="st0" d="M-504.9,154.9c0-0.8,0.6-1.4,1.4-1.4c0.8,0,1.4,0.6,1.4,1.4c0,0.8-0.6,1.4-1.4,1.4c0,0,0,0,0,0 C-504.3,156.4-504.9,155.7-504.9,154.9C-504.9,154.9-504.9,154.9-504.9,154.9"></path> <path id="Fill-57" class="st0" d="M-490.5,160.7c0-0.8,0.6-1.4,1.4-1.4c0.8,0,1.4,0.6,1.4,1.4c0,0.8-0.6,1.4-1.4,1.4c0,0,0,0,0,0 C-489.8,162.1-490.5,161.5-490.5,160.7L-490.5,160.7"></path> <path id="Fill-59" class="st0" d="M-482.7,144.7c0-0.8,0.6-1.4,1.4-1.4s1.4,0.6,1.4,1.4c0,0.8-0.6,1.4-1.4,1.4c0,0,0,0,0,0 C-482.1,146.1-482.7,145.5-482.7,144.7C-482.7,144.7-482.7,144.7-482.7,144.7"></path> <path id="Fill-61" class="st0" d="M-486.9,168.7c0-0.6,0.5-1,1-1c0.6,0,1,0.5,1,1c0,0.6-0.5,1-1,1c0,0,0,0,0,0 C-486.4,169.7-486.8,169.2-486.9,168.7"></path> <path id="Fill-63" class="st0" d="M-512.3,157.4c0-0.4,0.3-0.7,0.7-0.7c0.4,0,0.7,0.3,0.7,0.7c0,0.4-0.3,0.7-0.7,0.7c0,0,0,0,0,0 C-512,158.1-512.3,157.8-512.3,157.4L-512.3,157.4"></path> <path id="Fill-65" class="st0" d="M-513.2,155.6c0-0.2,0.2-0.5,0.5-0.5s0.5,0.2,0.5,0.5c0,0.2-0.2,0.5-0.5,0.5c0,0,0,0,0,0 C-513,156.1-513.2,155.9-513.2,155.6"></path> <path id="Fill-67" class="st0" d="M-514.6,157.3c0-0.4,0.3-0.6,0.6-0.6c0.4,0,0.6,0.3,0.6,0.6s-0.3,0.6-0.6,0.6c0,0,0,0,0,0 C-514.3,157.9-514.6,157.6-514.6,157.3"></path> <path id="Fill-69" class="st0" d="M-508,160.9c0-0.6,0.5-1,1-1c0.6,0,1,0.5,1,1s-0.5,1-1,1c0,0,0,0,0,0 C-507.6,161.9-508,161.4-508,160.9"></path> <path id="Fill-71" class="st0" d="M-497,136.1c0-0.6,0.5-1,1-1c0.6,0,1,0.5,1,1c0,0.6-0.5,1-1,1c0,0,0,0,0,0 C-496.5,137.1-497,136.6-497,136.1"></path> <path id="Fill-73" class="st0" d="M-488.6,164c0-0.7,0.5-1.2,1.2-1.2s1.2,0.5,1.2,1.2c0,0.7-0.5,1.2-1.2,1.2l0,0 C-488,165.2-488.6,164.7-488.6,164"></path> <path id="Fill-75" class="st0" d="M-500.3,141.7c0-0.6,0.4-1,1-1c0.6,0,1,0.4,1,1c0,0.6-0.4,1-1,1c0,0,0,0,0,0 C-499.8,142.7-500.3,142.3-500.3,141.7"></path> <path id="Fill-77" class="st0" d="M-498.7,165.9c0-0.7,0.6-1.3,1.3-1.3c0.7,0,1.3,0.6,1.3,1.3c0,0.7-0.6,1.3-1.3,1.3c0,0,0,0,0,0 C-498.1,167.2-498.7,166.6-498.7,165.9C-498.7,165.9-498.7,165.9-498.7,165.9"></path> <path id="Fill-79" class="st0" d="M-482,168.7c0-0.5,0.4-1,0.9-1c0.5,0,1,0.4,1,0.9c0,0.5-0.4,1-0.9,1c0,0,0,0,0,0 C-481.5,169.6-482,169.2-482,168.7C-482,168.7-482,168.7-482,168.7"></path> <path id="Fill-81" class="st0" d="M-505.3,145.4c0-0.4,0.3-0.6,0.6-0.6c0.4,0,0.6,0.3,0.6,0.6c0,0.4-0.3,0.6-0.6,0.6c0,0,0,0,0,0 C-505.1,146.1-505.3,145.8-505.3,145.4"></path> <path id="Fill-83" class="st0" d="M-515.5,155.6c0-0.4,0.3-0.6,0.6-0.6s0.6,0.3,0.6,0.6c0,0.4-0.3,0.6-0.6,0.6c0,0,0,0,0,0 C-515.2,156.3-515.5,156-515.5,155.6C-515.5,155.6-515.5,155.6-515.5,155.6"></path> <path id="Fill-85" class="st0" d="M-496.6,139.8c0-0.4,0.3-0.6,0.6-0.6c0.4,0,0.6,0.3,0.6,0.6c0,0.4-0.3,0.6-0.6,0.6c0,0,0,0,0,0 C-496.3,140.4-496.6,140.2-496.6,139.8C-496.6,139.8-496.6,139.8-496.6,139.8"></path> <path id="Fill-87" class="st0" d="M-486.8,165.5c0-0.4,0.3-0.6,0.6-0.6c0.4,0,0.6,0.3,0.6,0.6c0,0.4-0.3,0.6-0.6,0.6c0,0,0,0,0,0 C-486.5,166.1-486.8,165.8-486.8,165.5C-486.8,165.5-486.8,165.5-486.8,165.5"></path> <path id="Fill-89" class="st0" d="M-484.1,140.7c0-0.4,0.4-0.8,0.8-0.8s0.8,0.4,0.8,0.8s-0.4,0.8-0.8,0.8c0,0,0,0,0,0 C-483.8,141.5-484.1,141.1-484.1,140.7C-484.1,140.7-484.1,140.7-484.1,140.7"></path> <path id="Fill-91" class="st0" d="M-498,135.9c0-0.4,0.3-0.7,0.7-0.7c0.4,0,0.7,0.3,0.7,0.7c0,0.4-0.3,0.7-0.7,0.7c0,0,0,0,0,0 C-497.7,136.6-498,136.3-498,135.9"></path> <path id="Fill-93" class="st0" d="M-493.6,166.2c0-0.4,0.3-0.6,0.6-0.6c0.4,0,0.6,0.3,0.6,0.6c0,0.4-0.3,0.6-0.6,0.6c0,0,0,0,0,0 C-493.4,166.9-493.6,166.6-493.6,166.2C-493.6,166.2-493.6,166.2-493.6,166.2"></path> <path id="Fill-95" class="st0" d="M-503.1,143.9c0-0.4,0.4-0.8,0.8-0.8c0.4,0,0.8,0.4,0.8,0.8s-0.4,0.8-0.8,0.8c0,0,0,0,0,0 C-502.8,144.7-503.1,144.3-503.1,143.9C-503.1,143.9-503.1,143.9-503.1,143.9"></path> <path id="Fill-97" class="st0" d="M-482.6,171.3c0-0.4,0.3-0.6,0.6-0.6s0.6,0.3,0.6,0.6c0,0.4-0.3,0.6-0.6,0.6c0,0,0,0,0,0 C-482.3,171.9-482.6,171.6-482.6,171.3C-482.6,171.3-482.6,171.3-482.6,171.3"></path> <path id="Fill-99" class="st0" d="M-497.2,142.5c0-0.4,0.3-0.7,0.7-0.7c0.4,0,0.7,0.3,0.7,0.7s-0.3,0.7-0.7,0.7c0,0,0,0,0,0 C-496.9,143.3-497.2,142.9-497.2,142.5C-497.2,142.5-497.2,142.5-497.2,142.5"></path> <path id="Fill-101" class="st0" d="M-489.9,162.9c0-0.4,0.3-0.7,0.7-0.7s0.7,0.3,0.7,0.7c0,0.4-0.3,0.7-0.7,0.7c0,0,0,0,0,0 C-489.6,163.6-489.9,163.3-489.9,162.9"></path> <path id="Fill-103" class="st0" d="M-501.8,160.4c0-0.4,0.3-0.6,0.6-0.6s0.6,0.3,0.6,0.6c0,0.4-0.3,0.6-0.6,0.6c0,0,0,0,0,0 C-501.5,161-501.8,160.7-501.8,160.4C-501.8,160.4-501.8,160.4-501.8,160.4"></path> <path id="Fill-105" class="st0" d="M-515,141.4c0-0.4,0.3-0.6,0.6-0.6s0.6,0.3,0.6,0.6c0,0.4-0.3,0.6-0.6,0.6 C-514.7,142-515,141.7-515,141.4C-515,141.4-515,141.4-515,141.4"></path> <path id="Fill-107" class="st0" d="M-518.8,156.9c0-0.4,0.3-0.6,0.6-0.6c0.4,0,0.6,0.3,0.6,0.6c0,0.4-0.3,0.6-0.6,0.6c0,0,0,0,0,0 C-518.5,157.5-518.8,157.2-518.8,156.9C-518.8,156.9-518.8,156.9-518.8,156.9"></path> <path id="Fill-109" class="st0" d="M-520.9,159.8c0-0.4,0.3-0.6,0.6-0.6s0.6,0.3,0.6,0.6c0,0.4-0.3,0.6-0.6,0.6c0,0,0,0,0,0 C-520.7,160.5-520.9,160.2-520.9,159.8C-520.9,159.8-520.9,159.8-520.9,159.8"></path> <path id="Fill-111" class="st0" d="M-503.3,161.8c0-0.4,0.3-0.6,0.6-0.6c0.4,0,0.6,0.3,0.6,0.6s-0.3,0.6-0.6,0.6c0,0,0,0,0,0 C-503,162.4-503.3,162.1-503.3,161.8"></path> <path id="Fill-113" class="st0" d="M-488.2,146c0-0.4,0.3-0.6,0.6-0.6c0.4,0,0.6,0.3,0.6,0.6c0,0.4-0.3,0.6-0.6,0.6c0,0,0,0,0,0 C-487.9,146.7-488.2,146.4-488.2,146"></path> <path id="Fill-115" class="st0" d="M-511.3,159.6c0-0.4,0.3-0.6,0.6-0.6c0.4,0,0.6,0.3,0.6,0.6c0,0.4-0.3,0.6-0.6,0.6c0,0,0,0,0,0 C-511,160.2-511.3,159.9-511.3,159.6C-511.3,159.6-511.3,159.6-511.3,159.6"></path> <path id="Fill-117" class="st0" d="M-507.1,144.1c0-0.4,0.3-0.7,0.7-0.7c0.4,0,0.7,0.3,0.7,0.7c0,0.4-0.3,0.7-0.7,0.7c0,0,0,0,0,0 C-506.8,144.8-507.1,144.5-507.1,144.1C-507.1,144.1-507.1,144.1-507.1,144.1"></path> <path id="Fill-119" class="st0" d="M-517.7,142.2c0-0.3,0.2-0.5,0.5-0.5c0.3,0,0.5,0.2,0.5,0.5c0,0.3-0.2,0.5-0.5,0.5c0,0,0,0,0,0 C-517.5,142.7-517.7,142.5-517.7,142.2"></path> <path id="Fill-121" class="st0" d="M-501,139.2c0-0.4,0.3-0.7,0.7-0.7c0.4,0,0.7,0.3,0.7,0.7c0,0.4-0.3,0.7-0.7,0.7c0,0,0,0,0,0 C-500.7,139.9-501,139.6-501,139.2"></path> <path id="Fill-123" class="st0" d="M-489.2,157.4c0-0.4,0.3-0.6,0.6-0.6c0.4,0,0.6,0.3,0.6,0.6s-0.3,0.6-0.6,0.6c0,0,0,0,0,0 C-488.9,158.1-489.2,157.8-489.2,157.4"></path> <path id="Fill-125" class="st0" d="M-502.7,141.9c0-0.4,0.3-0.6,0.6-0.6s0.6,0.3,0.6,0.6c0,0.4-0.3,0.6-0.6,0.6c0,0,0,0,0,0 C-502.4,142.5-502.7,142.3-502.7,141.9C-502.7,141.9-502.7,141.9-502.7,141.9"></path> <path id="Fill-127" class="st0" d="M-487.6,162.1c0-0.4,0.3-0.7,0.7-0.7s0.7,0.3,0.7,0.7c0,0.4-0.3,0.7-0.7,0.7 C-487.3,162.8-487.6,162.5-487.6,162.1L-487.6,162.1"></path> <path id="Fill-129" class="st0" d="M-483.9,158c0-0.4,0.4-0.8,0.8-0.8c0.4,0,0.8,0.4,0.8,0.8s-0.4,0.8-0.8,0.8 S-483.9,158.4-483.9,158L-483.9,158"></path> <path id="Fill-131" class="st0" d="M-492.1,159.4c0-0.4,0.3-0.6,0.6-0.6c0.4,0,0.6,0.3,0.6,0.6s-0.3,0.6-0.6,0.6c0,0,0,0,0,0 C-491.8,160-492.1,159.7-492.1,159.4"></path> <path id="Fill-133" class="st0" d="M-494.7,139.5c0-0.4,0.3-0.7,0.7-0.7c0.4,0,0.7,0.3,0.7,0.7c0,0.4-0.3,0.7-0.7,0.7c0,0,0,0,0,0 C-494.3,140.2-494.7,139.9-494.7,139.5C-494.7,139.5-494.7,139.5-494.7,139.5"></path> <path id="Fill-135" class="st0" d="M-486.5,150.8c0-0.3,0.3-0.6,0.6-0.6c0.3,0,0.6,0.3,0.6,0.6c0,0.3-0.3,0.6-0.6,0.6c0,0,0,0,0,0 C-486.2,151.5-486.5,151.2-486.5,150.8"></path> <path id="Fill-137" class="st0" d="M-485.6,166.6c0-0.4,0.3-0.6,0.6-0.6s0.6,0.3,0.6,0.6c0,0.4-0.3,0.6-0.6,0.6c0,0,0,0,0,0 C-485.3,167.2-485.6,166.9-485.6,166.6L-485.6,166.6"></path> <path id="Fill-139" class="st0" d="M-502.1,157.8c0-0.6,0.5-1.1,1.1-1.1c0.6,0,1.1,0.5,1.1,1.1c0,0.6-0.5,1.1-1.1,1.1c0,0,0,0,0,0 C-501.7,158.9-502.1,158.4-502.1,157.8"></path> <path id="Fill-141" class="st0" d="M-516.6,161.3c0-0.3,0.3-0.6,0.6-0.6c0.3,0,0.6,0.3,0.6,0.6c0,0.3-0.3,0.6-0.6,0.6l0,0 C-516.3,161.9-516.6,161.6-516.6,161.3"></path> <path id="Fill-143" class="st0" d="M-512.2,163.8c0-0.4,0.3-0.7,0.7-0.7c0.4,0,0.7,0.3,0.7,0.7c0,0.4-0.3,0.7-0.7,0.7c0,0,0,0,0,0 C-511.9,164.5-512.2,164.2-512.2,163.8"></path> <path id="Fill-145" class="st0" d="M-512.7,142.2c0-0.6,0.5-1.1,1.1-1.1c0.6,0,1.1,0.5,1.1,1.1c0,0.6-0.5,1.1-1.1,1.1c0,0,0,0,0,0 C-512.2,143.3-512.7,142.8-512.7,142.2"></path> <path id="Fill-147" class="st0" d="M-500.7,158.7c0-0.5,0.4-1,0.9-1c0.5,0,1,0.4,1,0.9c0,0.5-0.4,1-0.9,1c0,0,0,0,0,0 C-500.2,159.7-500.7,159.3-500.7,158.7C-500.7,158.7-500.7,158.7-500.7,158.7"></path> <path id="Fill-149" class="st0" d="M-499.3,159.2c0-0.4,0.3-0.7,0.7-0.7c0.4,0,0.7,0.3,0.7,0.7c0,0.4-0.3,0.7-0.7,0.7c0,0,0,0,0,0 C-498.9,159.9-499.3,159.6-499.3,159.2L-499.3,159.2"></path> <path id="Fill-151" class="st0" d="M-503.5,146.5c0-0.6,0.5-1.1,1.1-1.1s1.1,0.5,1.1,1.1c0,0.6-0.5,1.1-1.1,1.1c0,0,0,0,0,0 C-503,147.5-503.5,147.1-503.5,146.5L-503.5,146.5"></path> <g id="Group-155" transform="translate(-355.407 165)"> <path id="Fill-153" class="st0" d="M-140-28.8c0-0.7,0.5-1.2,1.2-1.2c0.7,0,1.2,0.5,1.2,1.2c0,0.7-0.5,1.2-1.2,1.2 C-139.5-27.6-140-28.1-140-28.8L-140-28.8"></path> </g> <path id="Fill-156" class="st0" d="M-493.4,135.7c0-0.4,0.3-0.6,0.6-0.6c0.4,0,0.6,0.3,0.6,0.6c0,0.4-0.3,0.6-0.6,0.6c0,0,0,0,0,0 C-493.1,136.3-493.4,136-493.4,135.7C-493.4,135.7-493.4,135.7-493.4,135.7"></path> <path id="Fill-158" class="st0" d="M-482.6,146.7c0-1,0.8-1.8,1.8-1.8s1.8,0.8,1.8,1.8c0,1-0.8,1.8-1.8,1.8c0,0,0,0,0,0 C-481.8,148.5-482.6,147.7-482.6,146.7"></path> <path id="Fill-160" class="st0" d="M-481.8,154c0-0.8,0.7-1.5,1.5-1.5c0.8,0,1.5,0.7,1.5,1.5c0,0.8-0.7,1.5-1.5,1.5c0,0,0,0,0,0 C-481.1,155.5-481.8,154.9-481.8,154C-481.8,154-481.8,154-481.8,154"></path> <path id="Fill-162" class="st0" d="M-481.3,155.5c0-0.7,0.5-1.2,1.2-1.2c0.7,0,1.2,0.5,1.2,1.2c0,0.7-0.5,1.2-1.2,1.2c0,0,0,0,0,0 C-480.8,156.7-481.3,156.2-481.3,155.5"></path> <path id="Fill-164" class="st0" d="M-482.3,155.9c0-0.4,0.3-0.7,0.7-0.7c0.4,0,0.7,0.3,0.7,0.7c0,0.4-0.3,0.7-0.7,0.7c0,0,0,0,0,0 C-482,156.6-482.3,156.3-482.3,155.9"></path> <path id="Fill-166" class="st0" d="M-481,156.9c0-0.4,0.3-0.8,0.8-0.8c0.4,0,0.8,0.3,0.8,0.8c0,0.4-0.3,0.8-0.8,0.8c0,0,0,0,0,0 C-480.7,157.6-481,157.3-481,156.9"></path> <path id="Fill-168" class="st0" d="M-487.3,143.9c0-0.7,0.5-1.2,1.2-1.2c0.7,0,1.2,0.5,1.2,1.2c0,0.7-0.5,1.2-1.2,1.2l0,0 C-486.8,145.1-487.3,144.5-487.3,143.9"></path> <path id="Fill-170" class="st0" d="M-504.8,138.3c0-0.7,0.5-1.2,1.2-1.2c0.7,0,1.2,0.5,1.2,1.2c0,0.7-0.5,1.2-1.2,1.2 C-504.3,139.5-504.8,138.9-504.8,138.3L-504.8,138.3"></path> <path id="Fill-172" class="st0" d="M-503.6,164.1c0-0.4,0.4-0.8,0.8-0.8c0.4,0,0.8,0.4,0.8,0.8c0,0.4-0.4,0.8-0.8,0.8c0,0,0,0,0,0 C-503.2,164.9-503.6,164.5-503.6,164.1L-503.6,164.1"></path> <path id="Fill-174" class="st0" d="M-482.5,158.2c0-0.6,0.5-1.2,1.2-1.2c0.6,0,1.2,0.5,1.2,1.2c0,0.6-0.5,1.2-1.2,1.2c0,0,0,0,0,0 C-481.9,159.4-482.5,158.9-482.5,158.2C-482.5,158.2-482.5,158.2-482.5,158.2"></path> <path id="Fill-176" class="st0" d="M-483.8,149.6c0-0.6,0.5-1.1,1.1-1.1c0.6,0,1.1,0.5,1.1,1.1c0,0.6-0.5,1.1-1.1,1.1c0,0,0,0,0,0 C-483.3,150.7-483.8,150.2-483.8,149.6"></path> <path id="Fill-178" class="st0" d="M-493.6,161.5c0-0.6,0.5-1.1,1.1-1.1c0.6,0,1.1,0.5,1.1,1.1c0,0.6-0.5,1.1-1.1,1.1c0,0,0,0,0,0 C-493.1,162.5-493.6,162.1-493.6,161.5C-493.6,161.5-493.6,161.5-493.6,161.5"></path> <path id="Fill-180" class="st0" d="M-514.4,159.8c0-0.4,0.3-0.7,0.7-0.7c0.4,0,0.7,0.3,0.7,0.7s-0.3,0.7-0.7,0.7c0,0,0,0,0,0 C-514,160.5-514.4,160.2-514.4,159.8"></path> <path id="Fill-182" class="st0" d="M-484.7,156.3c0-0.6,0.5-1.1,1.1-1.1s1.1,0.5,1.1,1.1c0,0.6-0.5,1.1-1.1,1.1c0,0,0,0,0,0 C-484.2,157.4-484.7,156.9-484.7,156.3"></path> <path id="Fill-184" class="st0" d="M-490.9,165.2c0-0.7,0.5-1.2,1.2-1.2c0.7,0,1.2,0.5,1.2,1.2s-0.5,1.2-1.2,1.2c0,0,0,0,0,0 C-490.4,166.4-490.9,165.9-490.9,165.2"></path> <path id="Fill-186" class="st0" d="M-486.1,145.7c0-0.6,0.5-1.1,1.1-1.1c0.6,0,1.1,0.5,1.1,1.1c0,0.6-0.5,1.1-1.1,1.1c0,0,0,0,0,0 C-485.6,146.8-486.1,146.3-486.1,145.7"></path> <path id="Fill-188" class="st0" d="M-511.9,144.7c0-0.6,0.5-1.1,1.1-1.1c0.6,0,1.1,0.5,1.1,1.1c0,0.6-0.5,1.1-1.1,1.1c0,0,0,0,0,0 C-511.4,145.8-511.9,145.3-511.9,144.7"></path> <path id="Fill-190" class="st0" d="M-512.3,150.6c0-0.6,0.5-1.1,1.1-1.1s1.1,0.5,1.1,1.1s-0.5,1.1-1.1,1.1c0,0,0,0,0,0 C-511.8,151.7-512.3,151.2-512.3,150.6"></path> <path id="Fill-192" class="st0" d="M-504.5,143.2c0-0.6,0.5-1.1,1.1-1.1c0.6,0,1.1,0.5,1.1,1.1c0,0.6-0.5,1.1-1.1,1.1c0,0,0,0,0,0 C-504,144.3-504.5,143.8-504.5,143.2"></path> <path id="Fill-194" class="st0" d="M-503.7,160.1c0-0.5,0.4-0.9,0.9-0.9c0.5,0,0.9,0.4,0.9,0.9c0,0.5-0.4,0.9-0.9,0.9c0,0,0,0,0,0 C-503.3,161-503.7,160.6-503.7,160.1L-503.7,160.1"></path> <path id="Fill-196" class="st0" d="M-485.2,159.3c0-0.6,0.5-1.1,1.1-1.1c0.6,0,1.1,0.5,1.1,1.1c0,0.6-0.5,1.1-1.1,1.1c0,0,0,0,0,0 C-484.7,160.4-485.2,159.9-485.2,159.3"></path> <path id="Fill-198" class="st0" d="M-486.4,160.6c0-0.6,0.5-1.1,1.1-1.1c0.6,0,1.1,0.5,1.1,1.1s-0.5,1.1-1.1,1.1c0,0,0,0,0,0 C-485.9,161.7-486.4,161.2-486.4,160.6"></path> <path id="Fill-200" class="st0" d="M-494.3,164.9c0-0.6,0.5-1.1,1.1-1.1s1.1,0.5,1.1,1.1s-0.5,1.1-1.1,1.1c0,0,0,0,0,0 C-493.8,166-494.3,165.5-494.3,164.9"></path> <path id="Fill-202" class="st0" d="M-499.4,140.3c0-0.6,0.5-1.1,1.1-1.1s1.1,0.5,1.1,1.1s-0.5,1.1-1.1,1.1 C-498.9,141.4-499.4,140.9-499.4,140.3"></path> <path id="Fill-204" class="st0" d="M-492.9,159.7c0-0.4,0.3-0.8,0.8-0.8s0.8,0.3,0.8,0.8c0,0.4-0.3,0.8-0.8,0.8c0,0,0,0,0,0 C-492.6,160.5-492.9,160.2-492.9,159.7C-492.9,159.7-492.9,159.7-492.9,159.7"></path> <path id="Fill-206" class="st0" d="M-517.6,153.2c0-0.4,0.3-0.8,0.8-0.8s0.8,0.3,0.8,0.8s-0.3,0.8-0.8,0.8c0,0,0,0,0,0 C-517.3,154-517.6,153.7-517.6,153.2C-517.6,153.2-517.6,153.2-517.6,153.2"></path> <path id="Fill-208" class="st0" d="M-502.5,140.3c0-0.4,0.3-0.7,0.7-0.7c0.4,0,0.7,0.3,0.7,0.7c0,0.4-0.3,0.7-0.7,0.7c0,0,0,0,0,0 C-502.2,141.1-502.5,140.7-502.5,140.3C-502.5,140.3-502.5,140.3-502.5,140.3"></path> <path id="Fill-210" class="st0" d="M-507.5,151.9c0-0.4,0.3-0.7,0.7-0.7c0.4,0,0.7,0.3,0.7,0.7c0,0.4-0.3,0.7-0.7,0.7c0,0,0,0,0,0 C-507.1,152.6-507.5,152.3-507.5,151.9"></path> <path id="Fill-212" class="st0" d="M-503,155.8c0-0.4,0.3-0.7,0.7-0.7c0.4,0,0.7,0.3,0.7,0.7s-0.3,0.7-0.7,0.7c0,0,0,0,0,0 C-502.7,156.6-503,156.2-503,155.8C-503,155.8-503,155.8-503,155.8"></path> <path id="Fill-216" class="st0" d="M-484.2,147.4c0-0.6,0.5-1.1,1.1-1.1c0.6,0,1.1,0.5,1.1,1.1c0,0.6-0.5,1.1-1.1,1.1c0,0,0,0,0,0 C-483.7,148.5-484.2,148-484.2,147.4"></path> <path id="Fill-218" class="st0" d="M-498.7,142.5c0-0.6,0.5-1.1,1.1-1.1c0.6,0,1.1,0.5,1.1,1.1c0,0.6-0.5,1.1-1.1,1.1c0,0,0,0,0,0 C-498.2,143.6-498.7,143.1-498.7,142.5C-498.7,142.5-498.7,142.5-498.7,142.5"></path> <path id="Fill-220" class="st0" d="M-501.5,161.9c0-0.4,0.3-0.7,0.7-0.7c0.4,0,0.7,0.3,0.7,0.7c0,0.4-0.3,0.7-0.7,0.7c0,0,0,0,0,0 C-501.2,162.6-501.5,162.3-501.5,161.9L-501.5,161.9"></path> <path id="Fill-222" class="st0" d="M-502.4,137.3c0-0.4,0.3-0.7,0.7-0.7c0.4,0,0.7,0.3,0.7,0.7c0,0.4-0.3,0.7-0.7,0.7c0,0,0,0,0,0 C-502,138.1-502.4,137.7-502.4,137.3C-502.4,137.3-502.4,137.3-502.4,137.3"></path> <path id="Fill-224" class="st0" d="M-489.7,140.5c0-0.4,0.3-0.7,0.7-0.7c0.4,0,0.7,0.3,0.7,0.7c0,0.4-0.3,0.7-0.7,0.7c0,0,0,0,0,0 C-489.4,141.2-489.7,140.9-489.7,140.5"></path> <path id="Fill-226" class="st0" d="M-497,159.9c0-0.4,0.3-0.7,0.7-0.7c0.4,0,0.7,0.3,0.7,0.7c0,0.4-0.3,0.7-0.7,0.7c0,0,0,0,0,0 C-496.7,160.6-497,160.3-497,159.9C-497,159.9-497,159.9-497,159.9"></path> <path id="Fill-228" class="st0" d="M-507.3,141c0-0.5,0.4-0.9,0.9-0.9c0.5,0,0.9,0.4,0.9,0.9c0,0.5-0.4,0.9-0.9,0.9c0,0,0,0,0,0 C-506.9,141.9-507.3,141.5-507.3,141L-507.3,141"></path> <path id="Fill-230" class="st0" d="M-508.7,158.9c0-0.5,0.4-0.8,0.8-0.8c0.5,0,0.8,0.4,0.8,0.8s-0.4,0.8-0.8,0.8c0,0,0,0,0,0 C-508.3,159.7-508.7,159.3-508.7,158.9L-508.7,158.9"></path> <path id="Fill-232" class="st0" d="M-499,137.3c0-0.4,0.3-0.8,0.8-0.8s0.8,0.3,0.8,0.8c0,0.4-0.3,0.8-0.8,0.8c0,0,0,0,0,0 C-498.7,138.1-499,137.8-499,137.3C-499,137.3-499,137.3-499,137.3"></path> <path id="Fill-234" class="st0" d="M-486.5,151.9c0-0.4,0.3-0.7,0.7-0.7c0.4,0,0.7,0.3,0.7,0.7c0,0.4-0.3,0.7-0.7,0.7c0,0,0,0,0,0 C-486.2,152.6-486.5,152.3-486.5,151.9"></path> <path id="Fill-236" class="st0" d="M-509.5,150.8c0-0.4,0.4-0.8,0.8-0.8c0.4,0,0.8,0.4,0.8,0.8c0,0.4-0.4,0.8-0.8,0.8 C-509.1,151.6-509.5,151.2-509.5,150.8L-509.5,150.8"></path> <path id="Fill-238" class="st0" d="M-491.3,136.2c0-0.4,0.3-0.7,0.7-0.7c0.4,0,0.7,0.3,0.7,0.7s-0.3,0.7-0.7,0.7c0,0,0,0,0,0 C-491,136.9-491.3,136.6-491.3,136.2"></path> <path id="Fill-240" class="st0" d="M-492.7,142c0-0.4,0.3-0.7,0.7-0.7c0.4,0,0.7,0.3,0.7,0.7s-0.3,0.7-0.7,0.7c0,0,0,0,0,0 C-492.3,142.8-492.7,142.4-492.7,142"></path> <path id="Fill-242" class="st0" d="M-484.3,163.6c0-0.4,0.3-0.7,0.7-0.7s0.7,0.3,0.7,0.7c0,0.4-0.3,0.7-0.7,0.7c0,0,0,0,0,0 C-484,164.3-484.3,164-484.3,163.6L-484.3,163.6"></path> <path id="Fill-244" class="st0" d="M-504.8,162.5c0-0.4,0.3-0.7,0.7-0.7c0.4,0,0.7,0.3,0.7,0.7c0,0.4-0.3,0.7-0.7,0.7c0,0,0,0,0,0 C-504.5,163.3-504.8,162.9-504.8,162.5C-504.8,162.5-504.8,162.5-504.8,162.5"></path> <path id="Fill-246" class="st0" d="M-496.1,142.1c0-0.4,0.3-0.7,0.7-0.7c0.4,0,0.7,0.3,0.7,0.7c0,0.4-0.3,0.7-0.7,0.7c0,0,0,0,0,0 C-495.8,142.9-496.1,142.5-496.1,142.1"></path> <path id="Fill-248" class="st0" d="M-481.7,149.7c0-0.4,0.3-0.7,0.7-0.7c0.4,0,0.7,0.3,0.7,0.7c0,0.4-0.3,0.7-0.7,0.7c0,0,0,0,0,0 C-481.3,150.4-481.7,150.1-481.7,149.7"></path> <path id="Fill-253" class="st0" d="M-497.7,163.6c0-0.3,0.2-0.5,0.5-0.5c0.3,0,0.5,0.2,0.5,0.5c0,0.3-0.2,0.5-0.5,0.5c0,0,0,0,0,0 C-497.5,164.1-497.7,163.9-497.7,163.6"></path> <path id="Fill-255" class="st0" d="M-500.2,162.7c0-0.3,0.2-0.5,0.5-0.5c0.3,0,0.5,0.2,0.5,0.5c0,0.3-0.2,0.5-0.5,0.5c0,0,0,0,0,0 C-500,163.2-500.2,163-500.2,162.7"></path> <path id="Fill-257" class="st0" d="M-506.5,146.1c0-0.3,0.2-0.5,0.5-0.5c0.3,0,0.5,0.2,0.5,0.5c0,0.3-0.2,0.5-0.5,0.5c0,0,0,0,0,0 C-506.2,146.5-506.5,146.3-506.5,146.1C-506.5,146.1-506.5,146.1-506.5,146.1"></path> <path id="Fill-259" class="st0" d="M-509.6,163.1c0-0.3,0.2-0.5,0.5-0.5c0.3,0,0.5,0.2,0.5,0.5c0,0.3-0.2,0.5-0.5,0.5c0,0,0,0,0,0 C-509.3,163.6-509.6,163.4-509.6,163.1"></path> <path id="Fill-261" class="st0" d="M-489.6,143c0-0.4,0.3-0.7,0.7-0.7c0.4,0,0.7,0.3,0.7,0.7c0,0.4-0.3,0.7-0.7,0.7c0,0,0,0,0,0 C-489.2,143.7-489.6,143.4-489.6,143C-489.6,143-489.6,143-489.6,143"></path> <path id="Fill-263" class="st0" d="M-493.7,163.3c0-0.3,0.2-0.5,0.5-0.5c0.3,0,0.5,0.2,0.5,0.5c0,0.3-0.2,0.5-0.5,0.5c0,0,0,0,0,0 C-493.5,163.8-493.7,163.6-493.7,163.3"></path> <path id="Fill-265" class="st0" d="M-498.2,159.3c0-0.3,0.2-0.5,0.5-0.5c0.3,0,0.5,0.2,0.5,0.5c0,0.3-0.2,0.5-0.5,0.5c0,0,0,0,0,0 C-498,159.8-498.2,159.6-498.2,159.3L-498.2,159.3"></path> <path id="Fill-267" class="st0" d="M-481.7,167.3c0-0.3,0.2-0.5,0.5-0.5c0.3,0,0.5,0.2,0.5,0.5c0,0.3-0.2,0.5-0.5,0.5c0,0,0,0,0,0 C-481.4,167.8-481.7,167.6-481.7,167.3"></path> <path id="Fill-269" class="st0" d="M-504.5,156.4c0-0.4,0.3-0.7,0.7-0.7s0.7,0.3,0.7,0.7c0,0.4-0.3,0.7-0.7,0.7c0,0,0,0,0,0 C-504.2,157.1-504.5,156.8-504.5,156.4"></path> <path id="Fill-271" class="st0" d="M-502,156.4c0-0.3,0.2-0.5,0.5-0.5c0.3,0,0.5,0.2,0.5,0.5c0,0.3-0.2,0.5-0.5,0.5c0,0,0,0,0,0 C-501.8,156.8-502,156.6-502,156.4L-502,156.4"></path> <path id="Fill-273" class="st0" d="M-488,140.9c0-0.5,0.4-0.9,0.9-0.9c0.5,0,0.9,0.4,0.9,0.9c0,0.5-0.4,0.9-0.9,0.9c0,0,0,0,0,0 C-487.6,141.7-488,141.3-488,140.9"></path> <path id="Fill-277" class="st0" d="M-492.6,166.6c0-0.3,0.2-0.6,0.6-0.6c0.3,0,0.6,0.2,0.6,0.6c0,0.3-0.2,0.6-0.6,0.6c0,0,0,0,0,0 C-492.4,167.2-492.6,166.9-492.6,166.6"></path> <path id="Fill-279" class="st0" d="M-507.4,164.9c0-0.3,0.3-0.6,0.6-0.6c0.3,0,0.6,0.3,0.6,0.6c0,0.3-0.3,0.6-0.6,0.6l0,0 C-507.1,165.5-507.4,165.3-507.4,164.9"></path> <path id="Fill-281" class="st0" d="M-486.4,167.1c0-0.3,0.3-0.6,0.6-0.6s0.6,0.3,0.6,0.6c0,0.3-0.3,0.6-0.6,0.6c0,0,0,0,0,0 C-486.1,167.7-486.4,167.4-486.4,167.1"></path> <path id="Fill-283" class="st0" d="M-483.6,150.8c0-0.3,0.3-0.6,0.6-0.6c0.3,0,0.6,0.3,0.6,0.6s-0.3,0.6-0.6,0.6c0,0,0,0,0,0 C-483.3,151.5-483.6,151.2-483.6,150.8"></path> <path id="Fill-285" class="st0" d="M-506.5,155.9c0-0.3,0.2-0.5,0.5-0.5c0.3,0,0.5,0.2,0.5,0.5s-0.2,0.5-0.5,0.5c0,0,0,0,0,0 C-506.3,156.4-506.5,156.2-506.5,155.9L-506.5,155.9"></path> <path id="Fill-287" class="st0" d="M-502.4,164.9c0-0.5,0.4-0.8,0.8-0.8c0.5,0,0.8,0.4,0.8,0.8c0,0.5-0.4,0.8-0.8,0.8c0,0,0,0,0,0 C-502,165.7-502.3,165.4-502.4,164.9C-502.4,164.9-502.4,164.9-502.4,164.9"></path> <path id="Fill-289" class="st0" d="M-516.5,158.3c0-0.3,0.2-0.5,0.5-0.5c0.3,0,0.5,0.2,0.5,0.5c0,0.3-0.2,0.5-0.5,0.5c0,0,0,0,0,0 C-516.2,158.9-516.5,158.6-516.5,158.3L-516.5,158.3"></path> <path id="Fill-291" class="st0" d="M-508.7,147.9c0-0.3,0.2-0.5,0.5-0.5c0.3,0,0.5,0.2,0.5,0.5c0,0.3-0.2,0.5-0.5,0.5c0,0,0,0,0,0 C-508.5,148.4-508.7,148.2-508.7,147.9"></path> <path id="Fill-293" class="st0" d="M-514.2,149.7c0-0.3,0.2-0.5,0.5-0.5s0.5,0.2,0.5,0.5c0,0.3-0.2,0.5-0.5,0.5c0,0,0,0,0,0 C-514,150.1-514.2,149.9-514.2,149.7"></path> <path id="Fill-295" class="st0" d="M-519.3,149.1c0-0.3,0.3-0.6,0.6-0.6c0.3,0,0.6,0.3,0.6,0.6s-0.3,0.6-0.6,0.6c0,0,0,0,0,0 C-519,149.7-519.3,149.4-519.3,149.1C-519.3,149.1-519.3,149.1-519.3,149.1"></path> <path id="Fill-297" class="st0" d="M-510.1,149.1c0-0.3,0.2-0.5,0.5-0.5c0.3,0,0.5,0.2,0.5,0.5s-0.2,0.5-0.5,0.5c0,0,0,0,0,0 C-509.8,149.6-510.1,149.4-510.1,149.1L-510.1,149.1"></path> <path id="Fill-299" class="st0" d="M-515.6,148.1c0-0.3,0.2-0.5,0.5-0.5s0.5,0.2,0.5,0.5c0,0.3-0.2,0.5-0.5,0.5c0,0,0,0,0,0 C-515.4,148.6-515.6,148.4-515.6,148.1C-515.6,148.1-515.6,148.1-515.6,148.1"></path> <path id="Fill-301" class="st0" d="M-508.5,142.6c0-0.4,0.3-0.7,0.7-0.7c0.4,0,0.7,0.3,0.7,0.7s-0.3,0.7-0.7,0.7c0,0,0,0,0,0 C-508.2,143.3-508.5,143-508.5,142.6L-508.5,142.6"></path> <path id="Fill-303" class="st0" d="M-487.8,155.7c0-0.3,0.2-0.5,0.5-0.5c0.3,0,0.5,0.2,0.5,0.5c0,0.3-0.2,0.5-0.5,0.5c0,0,0,0,0,0 C-487.6,156.2-487.8,156-487.8,155.7"></path> <path id="Fill-305" class="st0" d="M-490.1,136.3c0-0.3,0.2-0.5,0.5-0.5s0.5,0.2,0.5,0.5c0,0.3-0.2,0.5-0.5,0.5c0,0,0,0,0,0 C-489.9,136.8-490.1,136.6-490.1,136.3L-490.1,136.3"></path> <path id="Fill-307" class="st0" d="M-484.9,144c0-0.3,0.2-0.5,0.5-0.5c0.3,0,0.5,0.2,0.5,0.5c0,0.3-0.2,0.5-0.5,0.5c0,0,0,0,0,0 C-484.7,144.5-484.9,144.3-484.9,144"></path> <path id="Fill-309" class="st0" d="M-497.5,159.5c0-0.3,0.2-0.5,0.5-0.5c0.3,0,0.5,0.2,0.5,0.5c0,0.3-0.2,0.5-0.5,0.5 S-497.5,159.7-497.5,159.5L-497.5,159.5"></path> <path id="Fill-311" class="st0" d="M-501.3,136.8c0-0.3,0.2-0.5,0.5-0.5c0.3,0,0.5,0.2,0.5,0.5s-0.2,0.5-0.5,0.5c0,0,0,0,0,0 C-501,137.3-501.3,137.1-501.3,136.8C-501.3,136.8-501.3,136.8-501.3,136.8"></path> <path id="Fill-313" class="st0" d="M-486.6,150c0-0.3,0.3-0.6,0.6-0.6c0.3,0,0.6,0.3,0.6,0.6c0,0.3-0.3,0.6-0.6,0.6l0,0 C-486.3,150.6-486.6,150.3-486.6,150"></path> <path id="Fill-315" class="st0" d="M-487.7,146.8c0-0.4,0.3-0.7,0.7-0.7s0.7,0.3,0.7,0.7s-0.3,0.7-0.7,0.7c0,0,0,0,0,0 C-487.4,147.5-487.7,147.2-487.7,146.8C-487.7,146.8-487.7,146.8-487.7,146.8"></path> <path id="Fill-317" class="st0" d="M-496.2,164.9c0-0.3,0.2-0.5,0.5-0.5s0.5,0.2,0.5,0.5s-0.2,0.5-0.5,0.5c0,0,0,0,0,0 C-496,165.3-496.2,165.1-496.2,164.9"></path> <path id="Fill-319" class="st0" d="M-485,155.4c0-0.3,0.2-0.5,0.5-0.5c0.3,0,0.5,0.2,0.5,0.5c0,0.3-0.2,0.5-0.5,0.5c0,0,0,0,0,0 C-484.7,155.9-485,155.6-485,155.4C-485,155.4-485,155.4-485,155.4"></path> <path id="Fill-321" class="st0" d="M-483.5,169.7c0-0.3,0.2-0.5,0.5-0.5c0.3,0,0.5,0.2,0.5,0.5c0,0.3-0.2,0.5-0.5,0.5 C-483.3,170.2-483.5,170-483.5,169.7C-483.5,169.7-483.5,169.7-483.5,169.7"></path> <path id="Fill-323" class="st0" d="M-505.7,163.8c0-0.3,0.2-0.5,0.5-0.5c0.3,0,0.5,0.2,0.5,0.5c0,0.3-0.2,0.5-0.5,0.5c0,0,0,0,0,0 C-505.5,164.3-505.7,164.1-505.7,163.8"></path> <path id="Fill-325" class="st0" d="M-488.2,170.2c0-0.3,0.2-0.5,0.5-0.5c0.3,0,0.5,0.2,0.5,0.5s-0.2,0.5-0.5,0.5c0,0,0,0,0,0 C-488,170.7-488.2,170.5-488.2,170.2"></path> <path id="Fill-327" class="st0" d="M-487.5,155.1c0-0.3,0.2-0.5,0.5-0.5c0.3,0,0.5,0.2,0.5,0.5s-0.2,0.5-0.5,0.5l0,0 C-487.3,155.6-487.5,155.4-487.5,155.1"></path> <path id="Fill-329" class="st0" d="M-508.3,147.1c0-0.4,0.3-0.7,0.7-0.7c0.4,0,0.7,0.3,0.7,0.7s-0.3,0.7-0.7,0.7c0,0,0,0,0,0 C-508,147.8-508.3,147.5-508.3,147.1"></path> <path id="Fill-331" class="st0" d="M-486.8,148.9c0-0.4,0.4-0.8,0.8-0.8c0.4,0,0.8,0.4,0.8,0.8c0,0.4-0.4,0.8-0.8,0.8c0,0,0,0,0,0 C-486.5,149.7-486.8,149.3-486.8,148.9L-486.8,148.9"></path> <path id="Fill-333" class="st0" d="M-500,161c0-0.4,0.4-0.8,0.8-0.8c0.4,0,0.8,0.4,0.8,0.8s-0.4,0.8-0.8,0.8c0,0,0,0,0,0 C-499.6,161.8-500,161.4-500,161L-500,161"></path> <path id="Fill-335" class="st0" d="M-512.8,153.3c0-0.4,0.4-0.8,0.8-0.8c0.4,0,0.8,0.4,0.8,0.8s-0.4,0.8-0.8,0.8c0,0,0,0,0,0 C-512.4,154.1-512.8,153.7-512.8,153.3L-512.8,153.3"></path> <path id="Fill-337" class="st0" d="M-492.5,136c0-0.4,0.3-0.7,0.7-0.7c0.4,0,0.7,0.3,0.7,0.7c0,0.4-0.3,0.7-0.7,0.7c0,0,0,0,0,0 C-492.1,136.7-492.5,136.4-492.5,136"></path> <path id="Fill-339" class="st0" d="M-499.1,136.1c0-0.4,0.3-0.6,0.6-0.6s0.6,0.3,0.6,0.6c0,0.4-0.3,0.6-0.6,0.6c0,0,0,0,0,0 C-498.8,136.7-499.1,136.4-499.1,136.1"></path> <path id="Fill-341" class="st0" d="M-500.7,136.9c0-0.7,0.5-1.2,1.2-1.2c0.7,0,1.2,0.5,1.2,1.2s-0.5,1.2-1.2,1.2 C-500.2,138.1-500.7,137.6-500.7,136.9L-500.7,136.9"></path> <path id="Fill-343" class="st0" d="M-501.9,143.3c0-0.8,0.6-1.4,1.4-1.4c0.8,0,1.4,0.6,1.4,1.4c0,0.8-0.6,1.4-1.4,1.4c0,0,0,0,0,0 C-501.3,144.8-501.9,144.1-501.9,143.3"></path> <path id="Fill-345" class="st0" d="M-502.6,145.6c0-0.5,0.4-0.9,0.9-0.9c0.5,0,0.9,0.4,0.9,0.9c0,0.5-0.4,0.9-0.9,0.9c0,0,0,0,0,0 C-502.2,146.5-502.6,146.1-502.6,145.6"></path> <path id="Fill-347" class="st0" d="M-514.6,162.4c0-0.4,0.3-0.7,0.7-0.7c0.4,0,0.7,0.3,0.7,0.7c0,0.4-0.3,0.7-0.7,0.7c0,0,0,0,0,0 C-514.3,163.2-514.6,162.8-514.6,162.4C-514.6,162.4-514.6,162.4-514.6,162.4"></path> <path id="Fill-349" class="st0" d="M-505.5,140.9c0-0.5,0.4-1,1-1c0.5,0,1,0.4,1,1c0,0.5-0.4,1-1,1c0,0,0,0,0,0 C-505,141.9-505.5,141.4-505.5,140.9"></path> <path id="Fill-351" class="st0" d="M-507.3,138.8c0-0.5,0.4-1,1-1c0.5,0,1,0.4,1,1c0,0.5-0.4,1-1,1c0,0,0,0,0,0 C-506.9,139.7-507.3,139.3-507.3,138.8"></path> <path id="Fill-353" class="st0" d="M-512.6,147.8c0-0.5,0.4-1,1-1s1,0.4,1,1c0,0.5-0.4,1-1,1c0,0,0,0,0,0 C-512.2,148.8-512.6,148.3-512.6,147.8"></path> <path id="Fill-355" class="st0" d="M-517,145.8c0-0.5,0.4-0.8,0.8-0.8c0.5,0,0.8,0.4,0.8,0.8s-0.4,0.8-0.8,0.8c0,0,0,0,0,0 C-516.6,146.6-517,146.2-517,145.8"></path> <path id="Fill-357" class="st0" d="M-490.1,158.3c0-0.5,0.4-0.8,0.8-0.8c0.5,0,0.8,0.4,0.8,0.8c0,0.5-0.4,0.8-0.8,0.8c0,0,0,0,0,0 C-489.7,159.2-490.1,158.8-490.1,158.3"></path> <path id="Fill-359" class="st0" d="M-501.3,165.5c0-0.4,0.3-0.8,0.8-0.8c0.4,0,0.8,0.3,0.8,0.8c0,0.4-0.3,0.8-0.8,0.8c0,0,0,0,0,0 C-501,166.3-501.3,165.9-501.3,165.5"></path> <path id="Fill-361" class="st0" d="M-485.2,151.9c0-0.5,0.4-0.9,0.9-0.9c0.5,0,0.9,0.4,0.9,0.9c0,0.5-0.4,0.9-0.9,0.9 C-484.8,152.8-485.2,152.4-485.2,151.9L-485.2,151.9"></path> <path id="Fill-363" class="st0" d="M-509.9,153.7c0-0.4,0.4-0.8,0.8-0.8s0.8,0.4,0.8,0.8s-0.4,0.8-0.8,0.8l0,0 C-509.5,154.5-509.9,154.1-509.9,153.7"></path> <path id="Fill-365" class="st0" d="M-508.3,155.4c0-0.6,0.5-1.1,1.1-1.1c0.6,0,1.1,0.5,1.1,1.1c0,0.6-0.5,1.1-1.1,1.1c0,0,0,0,0,0 C-507.7,156.5-508.3,156-508.3,155.4"></path> <path id="Fill-367" class="st0" d="M-506.7,153.5c0-0.4,0.3-0.8,0.8-0.8c0.4,0,0.8,0.3,0.8,0.8c0,0.4-0.3,0.8-0.8,0.8c0,0,0,0,0,0 C-506.4,154.3-506.7,153.9-506.7,153.5L-506.7,153.5"></path> <path id="Fill-369" class="st0" d="M-487.3,171.4c0-0.7,0.6-1.3,1.3-1.3s1.3,0.6,1.3,1.3c0,0.7-0.6,1.3-1.3,1.3c0,0,0,0,0,0 C-486.7,172.7-487.3,172.1-487.3,171.4"></path> <path id="Fill-371" class="st0" d="M-483.9,170.9c0-0.4,0.4-0.8,0.8-0.8c0.4,0,0.8,0.4,0.8,0.8c0,0.4-0.4,0.8-0.8,0.8c0,0,0,0,0,0 C-483.6,171.7-483.9,171.4-483.9,170.9L-483.9,170.9"></path> <path id="Fill-373" class="st0" d="M-509.8,164.6c0-0.4,0.4-0.8,0.8-0.8s0.8,0.4,0.8,0.8s-0.4,0.8-0.8,0.8c0,0,0,0,0,0 C-509.5,165.4-509.8,165-509.8,164.6L-509.8,164.6"></path> <path id="Fill-375" class="st0" d="M-506.3,149.6c0-1,0.8-1.9,1.9-1.9c1,0,1.9,0.8,1.9,1.9c0,1-0.8,1.9-1.9,1.9c0,0,0,0,0,0 C-505.5,151.5-506.3,150.7-506.3,149.6"></path> <path id="Fill-377" class="st0" d="M-507,159.2c0-1,0.8-1.9,1.9-1.9c1,0,1.9,0.8,1.9,1.9c0,1-0.8,1.9-1.9,1.9c0,0,0,0,0,0 C-506.1,161.1-507,160.3-507,159.2"></path> <path id="Fill-379" class="st0" d="M-505.3,151.5c0-0.7,0.6-1.3,1.3-1.3c0.7,0,1.3,0.6,1.3,1.3c0,0.7-0.6,1.3-1.3,1.3c0,0,0,0,0,0 C-504.8,152.8-505.3,152.2-505.3,151.5"></path> <path id="Fill-381" class="st0" d="M-504.3,152.8c0-0.5,0.4-0.8,0.8-0.8s0.8,0.4,0.8,0.8c0,0.5-0.4,0.8-0.8,0.8c0,0,0,0,0,0 C-503.9,153.7-504.3,153.3-504.3,152.8C-504.3,152.8-504.3,152.8-504.3,152.8"></path> <path id="Fill-383" class="st0" d="M-490.4,166.4c0-0.6,0.5-1.1,1.1-1.1s1.1,0.5,1.1,1.1c0,0.6-0.5,1.1-1.1,1.1c0,0,0,0,0,0 C-489.9,167.5-490.4,167-490.4,166.4C-490.4,166.4-490.4,166.4-490.4,166.4"></path> <path id="Fill-385" class="st0" d="M-484.1,145c0-0.6,0.5-1.1,1.1-1.1c0.6,0,1.1,0.5,1.1,1.1c0,0.6-0.5,1.1-1.1,1.1c0,0,0,0,0,0 C-483.6,146.1-484.1,145.6-484.1,145C-484.1,145-484.1,145-484.1,145"></path> <path id="Fill-387" class="st0" d="M-485.8,149c0-0.6,0.5-1.1,1.1-1.1c0.6,0,1.1,0.5,1.1,1.1c0,0.6-0.5,1.1-1.1,1.1c0,0,0,0,0,0 C-485.3,150.1-485.8,149.6-485.8,149C-485.8,149-485.8,149-485.8,149"></path> <path id="Fill-389" class="st0" d="M-521,146.3c0-0.3,0.2-0.5,0.5-0.5c0.3,0,0.5,0.2,0.5,0.5c0,0.3-0.2,0.5-0.5,0.5c0,0,0,0,0,0 C-520.8,146.9-521,146.6-521,146.3"></path> <path id="Fill-391" class="st0" d="M-486.6,163.5c0-0.6,0.5-1.1,1.1-1.1c0.6,0,1.1,0.5,1.1,1.1c0,0.6-0.5,1.1-1.1,1.1c0,0,0,0,0,0 C-486.1,164.6-486.6,164.1-486.6,163.5"></path> <path id="Fill-393" class="st0" d="M-496.5,166.1c0-0.7,0.5-1.2,1.2-1.2c0.7,0,1.2,0.5,1.2,1.2c0,0.7-0.5,1.2-1.2,1.2c0,0,0,0,0,0 C-496,167.3-496.5,166.8-496.5,166.1"></path> <path id="Fill-395" class="st0" d="M-484.7,153.3c0-0.6,0.5-1.1,1.1-1.1c0.6,0,1.1,0.5,1.1,1.1c0,0.6-0.5,1.1-1.1,1.1c0,0,0,0,0,0 C-484.2,154.5-484.7,154-484.7,153.3C-484.7,153.3-484.7,153.3-484.7,153.3"></path> <path id="Fill-397" class="st0" d="M-491.4,141.9c0-0.6,0.5-1.2,1.2-1.2c0.6,0,1.2,0.5,1.2,1.2c0,0.6-0.5,1.2-1.2,1.2c0,0,0,0,0,0 C-490.9,143-491.4,142.5-491.4,141.9C-491.4,141.9-491.4,141.9-491.4,141.9"></path> <path id="Fill-399" class="st0" d="M-488.2,166.1c0-0.6,0.5-1.1,1.1-1.1c0.6,0,1.1,0.5,1.1,1.1c0,0.6-0.5,1.1-1.1,1.1c0,0,0,0,0,0 C-487.7,167.2-488.2,166.7-488.2,166.1C-488.2,166.1-488.2,166.1-488.2,166.1"></path> <path id="Fill-401" class="st0" d="M-482.9,159.5c0-0.6,0.5-1.1,1.1-1.1c0.6,0,1.1,0.5,1.1,1.1c0,0.6-0.5,1.1-1.1,1.1c0,0,0,0,0,0 C-482.4,160.5-482.9,160.1-482.9,159.5C-482.9,159.5-482.9,159.5-482.9,159.5"></path> <path id="Fill-403" class="st0" d="M-498.3,162.3c0-0.6,0.5-1.1,1.1-1.1c0.6,0,1.1,0.5,1.1,1.1s-0.5,1.1-1.1,1.1c0,0,0,0,0,0 C-497.8,163.4-498.3,162.9-498.3,162.3C-498.3,162.3-498.3,162.3-498.3,162.3"></path> <path id="Fill-405" class="st0" d="M-485.7,170.3c0-0.6,0.5-1.1,1.1-1.1c0.6,0,1.1,0.5,1.1,1.1s-0.5,1.1-1.1,1.1c0,0,0,0,0,0 C-485.2,171.3-485.7,170.9-485.7,170.3C-485.7,170.3-485.7,170.3-485.7,170.3"></path> <path id="Fill-407" class="st0" d="M-496.2,163.3c0-0.4,0.3-0.7,0.7-0.7c0.4,0,0.7,0.3,0.7,0.7c0,0.4-0.3,0.7-0.7,0.7c0,0,0,0,0,0 C-495.8,164.1-496.2,163.8-496.2,163.3"></path> <path id="Fill-409" class="st0" d="M-487.1,158c0-0.6,0.5-1.1,1.1-1.1s1.1,0.5,1.1,1.1s-0.5,1.1-1.1,1.1l0,0 C-486.6,159.1-487.1,158.6-487.1,158"></path> <path id="Fill-411" class="st0" d="M-489.3,144.7c0-0.6,0.5-1.1,1.1-1.1s1.1,0.5,1.1,1.1s-0.5,1.1-1.1,1.1l0,0 C-488.8,145.8-489.3,145.3-489.3,144.7"></path> <path id="Fill-413" class="st0" d="M-487.7,159.7c0-0.6,0.5-1.1,1.1-1.1s1.1,0.5,1.1,1.1c0,0.6-0.5,1.1-1.1,1.1c0,0,0,0,0,0 C-487.3,160.7-487.7,160.3-487.7,159.7"></path> <path id="Fill-415" class="st0" d="M-480.9,148.5c0-0.6,0.5-1.1,1.1-1.1c0.6,0,1.1,0.5,1.1,1.1c0,0.6-0.5,1.1-1.1,1.1c0,0,0,0,0,0 C-480.4,149.6-480.9,149.1-480.9,148.5C-480.9,148.5-480.9,148.5-480.9,148.5"></path> <path id="Fill-417" class="st0" d="M-486.7,141.8c0-0.6,0.5-1.1,1.1-1.1c0.6,0,1.1,0.5,1.1,1.1c0,0.6-0.5,1.1-1.1,1.1c0,0,0,0,0,0 C-486.2,142.9-486.7,142.4-486.7,141.8"></path> <path id="Fill-419" class="st0" d="M-511.3,155.2c0-0.4,0.3-0.7,0.7-0.7c0.4,0,0.7,0.3,0.7,0.7s-0.3,0.7-0.7,0.7c0,0,0,0,0,0 C-511,155.9-511.3,155.6-511.3,155.2L-511.3,155.2"></path> <path id="Fill-421" class="st0" d="M-489.7,141.9c0-0.6,0.5-1.1,1.1-1.1c0.6,0,1.1,0.5,1.1,1.1s-0.5,1.1-1.1,1.1c0,0,0,0,0,0 C-489.2,142.9-489.7,142.5-489.7,141.9L-489.7,141.9"></path> <path id="Fill-423" class="st0" d="M-487.1,154.3c0-0.4,0.4-0.8,0.8-0.8s0.8,0.4,0.8,0.8c0,0.4-0.4,0.8-0.8,0.8 S-487.1,154.8-487.1,154.3C-487.1,154.3-487.1,154.3-487.1,154.3"></path> <path id="Fill-425" class="st0" d="M-501.6,144.8c0-0.4,0.3-0.7,0.7-0.7c0.4,0,0.7,0.3,0.7,0.7c0,0.4-0.3,0.7-0.7,0.7c0,0,0,0,0,0 C-501.2,145.6-501.6,145.2-501.6,144.8C-501.6,144.8-501.6,144.8-501.6,144.8"></path> <path id="Fill-427" class="st0" d="M-487.2,147.8c0-0.4,0.4-0.8,0.8-0.8s0.8,0.4,0.8,0.8c0,0.4-0.4,0.8-0.8,0.8 C-486.8,148.6-487.2,148.2-487.2,147.8L-487.2,147.8"></path> <path id="Fill-429" class="st0" d="M-481.7,151.6c0-0.4,0.3-0.7,0.7-0.7c0.4,0,0.7,0.3,0.7,0.7c0,0.4-0.3,0.7-0.7,0.7c0,0,0,0,0,0 C-481.4,152.3-481.7,152-481.7,151.6"></path> <path id="Fill-431" class="st0" d="M-493.6,142.6c0-0.4,0.3-0.7,0.7-0.7s0.7,0.3,0.7,0.7c0,0.4-0.3,0.7-0.7,0.7c0,0,0,0,0,0 C-493.3,143.4-493.6,143-493.6,142.6C-493.6,142.6-493.6,142.6-493.6,142.6"></path> <path id="Fill-433" class="st0" d="M-510,146.7c0-0.4,0.3-0.7,0.7-0.7c0.4,0,0.7,0.3,0.7,0.7c0,0.4-0.3,0.7-0.7,0.7c0,0,0,0,0,0 C-509.7,147.4-510,147.1-510,146.7"></path> <path id="Fill-435" class="st0" d="M-482.8,148.6c0-0.4,0.3-0.8,0.8-0.8c0.4,0,0.8,0.3,0.8,0.8c0,0.4-0.3,0.8-0.8,0.8c0,0,0,0,0,0 C-482.5,149.4-482.8,149-482.8,148.6L-482.8,148.6"></path> <path id="Fill-437" class="st0" d="M-512.4,161.6c0-0.4,0.3-0.7,0.7-0.7c0.4,0,0.7,0.3,0.7,0.7c0,0.4-0.3,0.7-0.7,0.7c0,0,0,0,0,0 C-512.1,162.3-512.4,161.9-512.4,161.6"></path> <path id="Fill-439" class="st0" d="M-495,166.7c0-0.4,0.3-0.7,0.7-0.7s0.7,0.3,0.7,0.7c0,0.4-0.3,0.7-0.7,0.7c0,0,0,0,0,0 C-494.7,167.4-495,167.1-495,166.7"></path> <path id="Fill-441" class="st0" d="M-484.1,171.8c0-0.4,0.3-0.8,0.8-0.8c0.4,0,0.8,0.3,0.8,0.8c0,0.4-0.3,0.8-0.8,0.8c0,0,0,0,0,0 C-483.7,172.6-484.1,172.3-484.1,171.8"></path> <path id="Fill-443" class="st0" d="M-489.8,167.4c0-0.4,0.3-0.7,0.7-0.7c0.4,0,0.7,0.3,0.7,0.7s-0.3,0.7-0.7,0.7c0,0,0,0,0,0 C-489.5,168.1-489.8,167.8-489.8,167.4"></path> <path id="Fill-445" class="st0" d="M-483.8,164.5c0-0.4,0.3-0.7,0.7-0.7s0.7,0.3,0.7,0.7c0,0.4-0.3,0.7-0.7,0.7c0,0,0,0,0,0 C-483.5,165.2-483.8,164.9-483.8,164.5L-483.8,164.5"></path> <path id="Fill-447" class="st0" d="M-509.5,140.6c0-0.4,0.3-0.7,0.7-0.7c0.4,0,0.7,0.3,0.7,0.7c0,0.4-0.3,0.7-0.7,0.7c0,0,0,0,0,0 C-509.2,141.4-509.5,141-509.5,140.6L-509.5,140.6"></path> <path id="Fill-449" class="st0" d="M-487.8,170.9c0-0.4,0.3-0.7,0.7-0.7c0.4,0,0.7,0.3,0.7,0.7c0,0.4-0.3,0.7-0.7,0.7c0,0,0,0,0,0 C-487.5,171.6-487.8,171.3-487.8,170.9"></path> <path id="Fill-451" class="st0" d="M-482.2,167.4c0-0.4,0.3-0.7,0.7-0.7c0.4,0,0.7,0.3,0.7,0.7s-0.3,0.7-0.7,0.7c0,0,0,0,0,0 C-481.8,168.1-482.2,167.8-482.2,167.4"></path> <path id="Fill-453" class="st0" d="M-510.3,157.3c0-0.4,0.3-0.7,0.7-0.7c0.4,0,0.7,0.3,0.7,0.7s-0.3,0.7-0.7,0.7 C-510,158-510.3,157.7-510.3,157.3L-510.3,157.3"></path> <path id="Fill-455" class="st0" d="M-489.4,168.3c0-0.3,0.2-0.5,0.5-0.5c0.3,0,0.5,0.2,0.5,0.5c0,0.3-0.2,0.5-0.5,0.5 C-489.2,168.8-489.4,168.5-489.4,168.3C-489.4,168.3-489.4,168.3-489.4,168.3"></path> <path id="Fill-461" class="st0" d="M-518.9,145.7c0-0.3,0.2-0.5,0.5-0.5c0.3,0,0.5,0.2,0.5,0.5s-0.2,0.5-0.5,0.5c0,0,0,0,0,0 C-518.7,146.2-518.9,146-518.9,145.7L-518.9,145.7"></path> <path id="Fill-463" class="st0" d="M-494.7,162.6c0-0.3,0.2-0.5,0.5-0.5s0.5,0.2,0.5,0.5c0,0.3-0.2,0.5-0.5,0.5c0,0,0,0,0,0 C-494.4,163.1-494.7,162.9-494.7,162.6L-494.7,162.6"></path> <path id="Fill-465" class="st0" d="M-493.9,166.8c0-0.3,0.2-0.6,0.6-0.6c0.3,0,0.6,0.2,0.6,0.6s-0.2,0.6-0.6,0.6c0,0,0,0,0,0 C-493.6,167.3-493.9,167.1-493.9,166.8C-493.9,166.8-493.9,166.8-493.9,166.8"></path> <path id="Fill-467" class="st0" d="M-501.4,163.3c0-0.3,0.2-0.5,0.5-0.5c0.3,0,0.5,0.2,0.5,0.5c0,0.3-0.2,0.5-0.5,0.5c0,0,0,0,0,0 C-501.2,163.8-501.4,163.6-501.4,163.3"></path> <path id="Fill-469" class="st0" d="M-505,164.7c0-0.3,0.2-0.5,0.5-0.5c0.3,0,0.5,0.2,0.5,0.5c0,0.3-0.2,0.5-0.5,0.5c0,0,0,0,0,0 C-504.7,165.2-505,165-505,164.7"></path> <path id="Fill-471" class="st0" d="M-492.5,142.9c0-0.3,0.3-0.6,0.6-0.6c0.3,0,0.6,0.3,0.6,0.6s-0.3,0.6-0.6,0.6l0,0 C-492.3,143.5-492.5,143.2-492.5,142.9"></path> <path id="Fill-473" class="st0" d="M-488.7,169.4c0-0.3,0.2-0.5,0.5-0.5s0.5,0.2,0.5,0.5s-0.2,0.5-0.5,0.5 S-488.7,169.7-488.7,169.4"></path> <path id="Fill-475" class="st0" d="M-485.4,153.7c0-0.3,0.2-0.5,0.5-0.5c0.3,0,0.5,0.2,0.5,0.5c0,0.3-0.2,0.5-0.5,0.5c0,0,0,0,0,0 C-485.2,154.2-485.4,154-485.4,153.7"></path> <path id="Fill-477" class="st0" d="M-483.3,160.8c0-0.4,0.3-0.8,0.8-0.8c0.4,0,0.8,0.3,0.8,0.8c0,0.4-0.3,0.8-0.8,0.8c0,0,0,0,0,0 C-482.9,161.5-483.3,161.2-483.3,160.8L-483.3,160.8"></path> <path id="Fill-479" class="st0" d="M-484.2,162.6c0-0.3,0.2-0.5,0.5-0.5s0.5,0.2,0.5,0.5c0,0.3-0.2,0.5-0.5,0.5 S-484.2,162.9-484.2,162.6"></path> <path id="Fill-481" class="st0" d="M-482.2,166.5c0-0.3,0.2-0.6,0.5-0.6c0.3,0,0.6,0.2,0.6,0.5c0,0.3-0.2,0.6-0.5,0.6c0,0,0,0,0,0 C-482,167-482.2,166.8-482.2,166.5"></path> <path id="Fill-483" class="st0" d="M-484.4,172.4c0-0.3,0.2-0.6,0.5-0.6c0.3,0,0.6,0.2,0.6,0.5c0,0.3-0.2,0.6-0.5,0.6c0,0,0,0,0,0 C-484.2,172.9-484.4,172.7-484.4,172.4"></path> <path id="Fill-485" class="st0" d="M-495.8,159.7c0-0.3,0.2-0.5,0.5-0.5c0.3,0,0.5,0.2,0.5,0.5c0,0.3-0.2,0.5-0.5,0.5c0,0,0,0,0,0 C-495.6,160.2-495.8,160-495.8,159.7L-495.8,159.7"></path> <path id="Fill-487" class="st0" d="M-491.6,160.7c0-0.3,0.2-0.6,0.6-0.6s0.6,0.2,0.6,0.6s-0.2,0.6-0.6,0.6c0,0,0,0,0,0 C-491.4,161.3-491.6,161-491.6,160.7C-491.6,160.7-491.6,160.7-491.6,160.7"></path> <path id="Fill-489" class="st0" d="M-494.6,163.5c0-0.2,0.1-0.3,0.3-0.3c0.2,0,0.3,0.1,0.3,0.3s-0.1,0.3-0.3,0.3c0,0,0,0,0,0 C-494.5,163.9-494.6,163.7-494.6,163.5"></path> <path id="Fill-491" class="st0" d="M-482.9,171.8c0-0.2,0.2-0.4,0.4-0.4c0.2,0,0.4,0.2,0.4,0.4c0,0.2-0.2,0.4-0.4,0.4 C-482.7,172.2-482.9,172.1-482.9,171.8C-482.9,171.9-482.9,171.8-482.9,171.8"></path> <path id="Fill-493" class="st0" d="M-494.9,159.6c0-0.2,0.1-0.3,0.3-0.3c0.2,0,0.3,0.1,0.3,0.3c0,0.2-0.1,0.3-0.3,0.3c0,0,0,0,0,0 C-494.8,159.9-494.9,159.8-494.9,159.6"></path> <path id="Fill-495" class="st0" d="M-490.8,161.2c0-0.2,0.1-0.3,0.3-0.3c0.2,0,0.3,0.1,0.3,0.3c0,0.2-0.1,0.3-0.3,0.3c0,0,0,0,0,0 C-490.7,161.5-490.8,161.4-490.8,161.2"></path> <path id="Fill-497" class="st0" d="M-486.8,153.2c0-0.2,0.2-0.4,0.4-0.4s0.4,0.2,0.4,0.4c0,0.2-0.2,0.4-0.4,0.4 C-486.6,153.6-486.8,153.4-486.8,153.2L-486.8,153.2"></path> <path id="Fill-499" class="st0" d="M-484.7,172.9c0-0.2,0.1-0.3,0.3-0.3c0.2,0,0.3,0.1,0.3,0.3s-0.1,0.3-0.3,0.3c0,0,0,0,0,0 C-484.5,173.2-484.7,173.1-484.7,172.9C-484.7,172.9-484.7,172.9-484.7,172.9"></path> <path id="Fill-501" class="st0" d="M-509.6,161.3c0-0.2,0.2-0.4,0.4-0.4c0.2,0,0.4,0.2,0.4,0.4s-0.2,0.4-0.4,0.4c0,0,0,0,0,0 C-509.4,161.7-509.6,161.5-509.6,161.3C-509.6,161.3-509.6,161.3-509.6,161.3"></path> <path id="Fill-503" class="st0" d="M-483.6,154.9c0-0.2,0.2-0.4,0.4-0.4s0.4,0.2,0.4,0.4s-0.2,0.4-0.4,0.4c0,0,0,0,0,0 C-483.4,155.2-483.6,155.1-483.6,154.9C-483.6,154.9-483.6,154.9-483.6,154.9"></path> <path id="Fill-507" class="st0" d="M-489.1,168.8c0-0.2,0.1-0.3,0.3-0.3c0.2,0,0.3,0.1,0.3,0.3s-0.1,0.3-0.3,0.3c0,0,0,0,0,0 C-489,169.1-489.1,169-489.1,168.8C-489.1,168.8-489.1,168.8-489.1,168.8"></path> <path id="Fill-509" class="st0" d="M-484.3,171.9c0-0.1,0.1-0.3,0.3-0.3c0.1,0,0.3,0.1,0.3,0.3s-0.1,0.3-0.3,0.3c0,0,0,0,0,0 C-484.2,172.2-484.3,172.1-484.3,171.9C-484.3,171.9-484.3,171.9-484.3,171.9"></path> <path id="Fill-511" class="st0" d="M-486.6,152.5c0-0.2,0.1-0.3,0.3-0.3s0.3,0.1,0.3,0.3c0,0.2-0.1,0.3-0.3,0.3c0,0,0,0,0,0 C-486.5,152.8-486.6,152.7-486.6,152.5"></path> <path id="Fill-513" class="st0" d="M-482.1,165.8c0-0.2,0.1-0.3,0.3-0.3s0.3,0.1,0.3,0.3c0,0.2-0.1,0.3-0.3,0.3c0,0,0,0,0,0 C-482,166.1-482.1,165.9-482.1,165.8C-482.1,165.8-482.1,165.8-482.1,165.8"></path> <path id="Fill-515" class="st0" d="M-490.4,162.4c0-0.2,0.2-0.4,0.4-0.4s0.4,0.2,0.4,0.4c0,0.2-0.2,0.4-0.4,0.4 S-490.4,162.6-490.4,162.4L-490.4,162.4"></path> <path id="Fill-517" class="st0" d="M-485.1,167.7c0-0.2,0.2-0.4,0.3-0.4c0.2,0,0.4,0.2,0.4,0.3c0,0.2-0.2,0.4-0.4,0.4c0,0,0,0,0,0 C-485,168.1-485.1,167.9-485.1,167.7"></path> <path id="Fill-519" class="st0" d="M-488.5,168.3c0-0.2,0.1-0.3,0.3-0.3c0.2,0,0.3,0.1,0.3,0.3c0,0.2-0.1,0.3-0.3,0.3c0,0,0,0,0,0 C-488.3,168.6-488.5,168.5-488.5,168.3"></path> <path id="Fill-521" class="st0" d="M-484.1,142.5c0-0.6,0.5-1.1,1.1-1.1c0.6,0,1.1,0.5,1.1,1.1c0,0.6-0.5,1.1-1.1,1.1c0,0,0,0,0,0 C-483.6,143.6-484.1,143.1-484.1,142.5C-484.1,142.5-484.1,142.5-484.1,142.5"></path> <path id="Fill-523" class="st0" d="M-482.9,141.2c0-0.3,0.2-0.5,0.5-0.5c0.3,0,0.5,0.2,0.5,0.5s-0.2,0.5-0.5,0.5c0,0,0,0,0,0 C-482.7,141.7-482.9,141.5-482.9,141.2C-482.9,141.2-482.9,141.2-482.9,141.2"></path> <path id="Fill-525" class="st0" d="M-482.4,141.8c0-0.2,0.2-0.4,0.4-0.4c0.2,0,0.4,0.2,0.4,0.4s-0.2,0.4-0.4,0.4c0,0,0,0,0,0 C-482.2,142.3-482.4,142.1-482.4,141.8C-482.4,141.8-482.4,141.8-482.4,141.8"></path> <path id="Fill-527" class="st0" d="M-481.2,142.9c0-0.1,0.1-0.3,0.3-0.2c0.1,0,0.3,0.1,0.2,0.3c0,0.1-0.1,0.3-0.3,0.2c0,0,0,0,0,0 C-481.1,143.1-481.2,143-481.2,142.9C-481.2,142.9-481.2,142.9-481.2,142.9"></path> <path id="Fill-529" class="st0" d="M-481.6,142.5c0-0.2,0.1-0.3,0.3-0.3c0.2,0,0.3,0.1,0.3,0.3s-0.1,0.3-0.3,0.3c0,0,0,0,0,0 C-481.5,142.9-481.6,142.7-481.6,142.5"></path> <path id="Fill-531" class="st0" d="M-481,143.2c0-0.1,0.1-0.2,0.2-0.2s0.2,0.1,0.2,0.2s-0.1,0.2-0.2,0.2l0,0 C-480.9,143.4-481,143.3-481,143.2"></path> <path id="Fill-533" class="st0" d="M-485.9,139.9c0-0.7,0.5-1.2,1.2-1.2c0.7,0,1.2,0.5,1.2,1.2c0,0.7-0.5,1.2-1.2,1.2c0,0,0,0,0,0 C-485.4,141.1-485.9,140.6-485.9,139.9"></path> <path id="Fill-535" class="st0" d="M-486.1,139c0-0.4,0.3-0.8,0.8-0.8c0.4,0,0.8,0.3,0.8,0.8c0,0.4-0.3,0.8-0.8,0.8c0,0,0,0,0,0 C-485.7,139.7-486.1,139.4-486.1,139"></path> <path id="Fill-537" class="st0" d="M-490.5,143.6c0-0.4,0.3-0.8,0.8-0.8c0.4,0,0.8,0.3,0.8,0.8s-0.3,0.8-0.8,0.8c0,0,0,0,0,0 C-490.1,144.4-490.5,144.1-490.5,143.6"></path> <path id="Fill-539" class="st0" d="M-491.6,143.2c0-0.4,0.3-0.7,0.7-0.7c0.4,0,0.7,0.3,0.7,0.7c0,0.4-0.3,0.7-0.7,0.7c0,0,0,0,0,0 C-491.3,143.9-491.6,143.6-491.6,143.2"></path> <path id="Fill-541" class="st0" d="M-490.8,143.8c0-0.2,0.1-0.3,0.3-0.3s0.3,0.1,0.3,0.3c0,0.2-0.1,0.3-0.3,0.3c0,0,0,0,0,0 C-490.7,144.2-490.8,144-490.8,143.8"></path> <path id="Fill-543" class="st0" d="M-490.1,144.3c0-0.1,0.1-0.3,0.3-0.3s0.3,0.1,0.3,0.3c0,0.1-0.1,0.3-0.3,0.3l0,0 C-490,144.6-490.1,144.5-490.1,144.3"></path> <path id="Fill-545" class="st0" d="M-489.8,144.6c0-0.1,0.1-0.2,0.2-0.2c0.1,0,0.2,0.1,0.2,0.2c0,0.1-0.1,0.2-0.2,0.2c0,0,0,0,0,0 C-489.7,144.8-489.8,144.7-489.8,144.6"></path> <path id="Fill-547" class="st0" d="M-490.4,144c0-0.2,0.1-0.3,0.3-0.3s0.3,0.1,0.3,0.3s-0.1,0.3-0.3,0.3c0,0,0,0,0,0 C-490.3,144.3-490.4,144.2-490.4,144C-490.4,144-490.4,144-490.4,144"></path> <path id="Fill-549" class="st0" d="M-482.2,152.7c0-0.4,0.4-0.8,0.8-0.8c0.4,0,0.8,0.4,0.8,0.8c0,0.4-0.4,0.8-0.8,0.8c0,0,0,0,0,0 C-481.9,153.5-482.2,153.2-482.2,152.7"></path> <path id="Fill-551" class="st0" d="M-483.3,153.9c0-0.4,0.3-0.8,0.8-0.8c0.4,0,0.8,0.3,0.8,0.8c0,0.4-0.3,0.8-0.8,0.8c0,0,0,0,0,0 C-483,154.6-483.3,154.3-483.3,153.9L-483.3,153.9"></path> <path id="Fill-553" class="st0" d="M-483.1,168.9c0-0.4,0.3-0.8,0.8-0.8c0.4,0,0.8,0.3,0.8,0.8c0,0.4-0.3,0.8-0.8,0.8c0,0,0,0,0,0 C-482.7,169.6-483.1,169.3-483.1,168.9C-483.1,168.9-483.1,168.9-483.1,168.9"></path> <path id="Fill-555" class="st0" d="M-483.4,167.7c0-0.4,0.3-0.6,0.6-0.6c0.4,0,0.6,0.3,0.6,0.6c0,0.4-0.3,0.6-0.6,0.6c0,0,0,0,0,0 C-483.1,168.3-483.4,168.1-483.4,167.7L-483.4,167.7"></path> <path id="Fill-557" class="st0" d="M-484.3,168.4c0-0.3,0.3-0.6,0.6-0.6c0.3,0,0.6,0.3,0.6,0.6c0,0.3-0.3,0.6-0.6,0.6c0,0,0,0,0,0 C-484,168.9-484.3,168.7-484.3,168.4L-484.3,168.4"></path> <path id="Fill-559" class="st0" d="M-490.8,161.7c0-0.1,0.1-0.2,0.2-0.2c0.1,0,0.2,0.1,0.2,0.2s-0.1,0.2-0.2,0.2c0,0,0,0,0,0 C-490.7,161.9-490.8,161.8-490.8,161.7C-490.8,161.7-490.8,161.7-490.8,161.7"></path> <path id="Fill-561" class="st0" d="M-500.1,144.2c0-0.3,0.2-0.5,0.5-0.5s0.5,0.2,0.5,0.5c0,0.3-0.2,0.5-0.5,0.5c0,0,0,0,0,0 C-499.9,144.7-500.1,144.5-500.1,144.2C-500.1,144.2-500.1,144.2-500.1,144.2"></path> <path id="Fill-563" class="st0" d="M-504.3,147.7c0-0.6,0.5-1.1,1.1-1.1s1.1,0.5,1.1,1.1c0,0.6-0.5,1.1-1.1,1.1 C-503.8,148.8-504.3,148.3-504.3,147.7C-504.3,147.7-504.3,147.7-504.3,147.7"></path> <path id="Fill-565" class="st0" d="M-501.2,141.4c0-0.5,0.4-0.9,0.9-0.9c0.5,0,0.9,0.4,0.9,0.9c0,0.5-0.4,0.9-0.9,0.9c0,0,0,0,0,0 C-500.8,142.3-501.2,141.9-501.2,141.4C-501.2,141.4-501.2,141.4-501.2,141.4"></path> <path id="Fill-567" class="st0" d="M-499,143.2c0-0.4,0.3-0.7,0.7-0.7c0.4,0,0.7,0.3,0.7,0.7s-0.3,0.7-0.7,0.7c0,0,0,0,0,0 C-498.7,143.9-499,143.6-499,143.2L-499,143.2"></path> <path id="Fill-569" class="st0" d="M-507.8,149.1c0-0.6,0.5-1.1,1.1-1.1s1.1,0.5,1.1,1.1s-0.5,1.1-1.1,1.1c0,0,0,0,0,0 C-507.3,150.2-507.8,149.7-507.8,149.1"></path> <path id="Fill-571" class="st0" d="M-508.6,154c0-0.5,0.4-0.9,0.9-0.9c0.5,0,0.9,0.4,0.9,0.9c0,0.5-0.4,0.9-0.9,0.9c0,0,0,0,0,0 C-508.2,154.9-508.6,154.5-508.6,154C-508.6,154-508.6,154-508.6,154"></path> </g> <g id="Page-1" transform="translate(-95 68)"> <g id="homepage" transform="translate(283 -27)"> <g id="nav" transform="translate(0 0)"> <g id="logo"> <g id="text"> <path id="Path" class="st0" d="M-76.6-29.7h1.1l-5.2,13.9c-0.8,2.1-1.8,3.1-3.5,3.1c-0.4,0-0.7,0-0.9,0v-0.8h0.9 c1.2,0,2-0.8,2.6-2.4c0-0.1,0.2-0.5,0.4-1.1l-4.9-12.5h1.1l2.5,6.5c0.4,1,1,2.7,1.8,4.9c0.4-1.1,1-2.7,1.8-4.9L-76.6-29.7z M-96.5-24.2h8.7c-0.2-2.9-1.7-4.9-4.4-4.9C-94.7-29.1-96.3-27.2-96.5-24.2L-96.5-24.2z M-86.7-23.3h-9.8 c0.1,3.2,1.7,5.2,4.5,5.2c2,0.1,3.8-1.4,4-3.4h1c-0.3,2.5-2.5,4.4-5.1,4.3c-3.7,0-5.5-3-5.5-6.4c0-3.4,1.7-6.4,5.4-6.4 c3.7,0,5.4,3,5.4,6.4L-86.7-23.3z M-99-29.7h1l-5,12.2h-1l-4.9-12.2h1l2.6,6.6c0.8,2,1.4,3.6,1.8,4.6c0.3-0.7,0.9-2.3,1.8-4.7 L-99-29.7z M-109.9-29.8v0.9c-0.2,0-0.4,0-0.7,0c-2.8,0-4.4,1.8-4.4,4.7v6.8h-1v-12.2h0.9v2.9c0.6-1.9,2.4-3.1,4.4-3 C-110.4-29.9-110.1-29.9-109.9-29.8z M-119.7-29.7h1v12.2h-0.9v-2.6c-0.7,1.8-2.3,2.9-4.2,2.9c-2.8,0-4.4-1.6-4.4-4.6v-7.9h1 v7.8c0,2.5,1.3,3.8,3.5,3.8c1.1,0,2.1-0.4,2.8-1.2c0.8-1,1.3-2.3,1.2-3.6L-119.7-29.7z M-140-21.2h1c0.2,2.1,1.5,3.2,4,3.2 s3.7-0.9,3.7-2.6c0-1.4-0.9-2.1-3.1-2.5l-1.3-0.2c-2.6-0.5-3.8-1.5-3.8-3.4c0-2,1.6-3.2,4.3-3.2c3,0,4.5,1.2,4.7,3.6h-1 c-0.2-1.8-1.2-2.8-3.7-2.8c-2.1,0-3.4,0.9-3.4,2.4c0,1.5,1,2.1,3.2,2.5l1.3,0.2c2.7,0.5,3.8,1.5,3.8,3.3c0,2.3-1.9,3.5-4.7,3.5 C-138.2-17.2-139.8-18.7-140-21.2z"></path> <path id="Path-2" class="st0" d="M-8.7-29.6h3.3v12.1h-2.2v-3.7c0-2.1,0-4.1,0.1-6c-0.2,0.8-0.5,1.8-0.9,2.8l-2.5,6.9h-1.9 l-2.5-6.9c-0.4-1.1-0.7-2-0.9-2.8c0.1,1.9,0.1,3.9,0.1,6v3.7h-2.2v-12.1h3.3l2.1,5.9c0.3,1,0.7,2.1,1,3.3 c0.4-1.2,0.7-2.4,1.1-3.4L-8.7-29.6z M-30.2-22.1v-7.6h2.3v7.6c0,1.5,1.2,2.8,2.8,2.8s2.8-1.2,2.8-2.8v-7.6h2.3v7.6 c0,3.1-1.9,4.8-5.1,4.8C-28.2-17.2-30.2-19-30.2-22.1L-30.2-22.1z M-41.4-21.5h2.3c0,1.8,1.1,2.4,3,2.4c1.6,0,2.5-0.6,2.5-1.8 c0-1-0.6-1.4-2.5-1.8l-1-0.2c-2.6-0.5-3.9-1.7-3.9-3.7c0-2.1,1.7-3.4,4.5-3.4c3.3,0,4.9,1.5,4.9,3.9h-2.2c-0.1-1.4-0.8-2-2.7-2 c-1.4,0-2.2,0.6-2.2,1.5c0,1,0.6,1.4,2.4,1.8l1.1,0.2c2.8,0.6,4,1.6,4,3.6c0,2.4-1.8,3.7-4.9,3.7 C-39.5-17.2-41.4-18.7-41.4-21.5L-41.4-21.5z M-45.1-29.6h2.2v12.1h-2.6l-3.4-5.4c-1-1.6-1.7-2.8-2.2-3.6 c0.1,1.4,0.1,3.4,0.1,5.9v3.2h-2.2v-12.1h2.6l3.4,5.4c1,1.6,1.7,2.8,2.1,3.6c-0.1-1.9-0.1-3.9-0.1-5.9L-45.1-29.6z M-54.5-27.6 h-6.6v2.9h6v2h-6v3.2h6.6v2.1h-8.9v-12.1h8.9L-54.5-27.6z M-74.8-21.5h2.3c0,1.8,1.1,2.4,3,2.4c1.6,0,2.5-0.6,2.5-1.8 c0-1-0.6-1.4-2.5-1.8l-1-0.2c-2.6-0.5-3.9-1.7-3.9-3.7c0-2.1,1.7-3.4,4.5-3.4c3.3,0,4.8,1.5,4.9,3.9h-2.2c-0.1-1.4-0.8-2-2.7-2 c-1.4,0-2.2,0.6-2.2,1.5c0,1,0.6,1.4,2.4,1.8l1.1,0.2c2.8,0.6,4,1.6,4,3.6c0,2.4-1.8,3.7-4.9,3.7 C-72.9-17.2-74.8-18.7-74.8-21.5L-74.8-21.5z"></path> </g> </g> </g> </g> </g> </svg> 