<?xml version="1.0" encoding="UTF-8"?> <svg xmlns="http://www.w3.org/2000/svg" xmlns:xlink="http://www.w3.org/1999/xlink" width="80" height="80" viewBox="0 0 80 80"><defs><linearGradient id="linear-gradient" x1="1.729" y1="0.245" x2="0.059" y2="1" gradientUnits="objectBoundingBox"><stop offset="0" stop-color="#403294"></stop><stop offset="1" stop-color="#00c7e6"></stop></linearGradient></defs><g id="Group_4413" data-name="Group 4413" transform="translate(-791 -917)"><circle id="Ellipse_80" data-name="Ellipse 80" cx="40" cy="40" r="40" transform="translate(791 917)" fill="url(#linear-gradient)"></circle><g id="time-left" transform="translate(812 936.313)"><g id="Layer_2_16_" transform="translate(0 1.688)"><g id="Group_4373" data-name="Group 4373" transform="translate(0 0)"><path id="Path_1597" data-name="Path 1597" d="M254.866,423.2c-.313.078-.633.147-.95.206a1.528,1.528,0,0,0,.557,3c.378-.07.758-.153,1.132-.246a1.527,1.527,0,0,0-.738-2.964Z" transform="translate(-232.028 -388.727)" fill="#fefdff"></path><path id="Path_1598" data-name="Path 1598" d="M412.9,139.219a1.528,1.528,0,0,0,2.9-.96c-.121-.365-.255-.731-.4-1.088a1.527,1.527,0,1,0-2.837,1.134C412.689,138.6,412.8,138.912,412.9,139.219Z" transform="translate(-378.768 -125.222)" fill="#fefdff"></path><path id="Path_1599" data-name="Path 1599" d="M322.459,394.165c-.269.178-.548.35-.828.511a1.528,1.528,0,1,0,1.527,2.646c.333-.192.664-.4.985-.609a1.528,1.528,0,0,0-1.684-2.549Z" transform="translate(-294.656 -361.872)" fill="#fefdff"></path><path id="Path_1600" data-name="Path 1600" d="M430.688,208.779a1.528,1.528,0,1,0-3.053.12c.013.322.016.649.008.971a1.528,1.528,0,1,0,3.054.068C430.707,209.553,430.7,209.164,430.688,208.779Z" transform="translate(-392.703 -190.515)" fill="#fefdff"></path><path id="Path_1601" data-name="Path 1601" d="M379.867,344.375a1.527,1.527,0,0,0-2.139.305c-.194.258-.4.514-.607.76a1.528,1.528,0,0,0,.173,2.153c.037.031.074.06.112.086a1.528,1.528,0,0,0,2.042-.259c.25-.293.493-.6.725-.907A1.528,1.528,0,0,0,379.867,344.375Z" transform="translate(-345.981 -316.101)" fill="#fefdff"></path><path id="Path_1602" data-name="Path 1602" d="M416.086,279.422a1.527,1.527,0,0,0-1.915,1c-.1.308-.2.617-.319.919a1.527,1.527,0,0,0,2.855,1.088c.137-.36.264-.727.38-1.093A1.528,1.528,0,0,0,416.086,279.422Z" transform="translate(-379.954 -256.671)" fill="#fefdff"></path><path id="Path_1603" data-name="Path 1603" d="M16.174,36.381a15.774,15.774,0,0,1-3.918-1.245c-.015-.008-.028-.016-.043-.023-.293-.138-.585-.285-.868-.44l0,0a16.3,16.3,0,0,1-1.52-.95A15.941,15.941,0,0,1,9.886,7.609l.055-.038a15.968,15.968,0,0,1,17.9-.144L26.644,9.152c-.332.48-.128.83.453.777l5.184-.464a.854.854,0,0,0,.773-1.117L31.662,3.332c-.156-.562-.555-.63-.887-.15l-1.2,1.729a18.865,18.865,0,0,0-13.824-2.94q-.733.127-1.447.309l-.01,0-.055.015A18.837,18.837,0,0,0,3.8,9.3c-.022.026-.045.052-.065.08-.087.117-.173.236-.257.356-.138.2-.273.4-.4.6-.016.024-.029.049-.043.073A18.833,18.833,0,0,0,.02,21.512c0,.013,0,.026,0,.039.017.383.048.772.089,1.154,0,.025.008.048.012.073.043.385.1.77.163,1.155A18.853,18.853,0,0,0,5.6,34.157l.02.02.007.006A19.248,19.248,0,0,0,8.06,36.218a18.835,18.835,0,0,0,7.575,3.17,1.528,1.528,0,0,0,.539-3.007Z" transform="translate(0 -1.688)" fill="#fefdff"></path><path id="Path_1604" data-name="Path 1604" d="M207.223,83.2a1.236,1.236,0,0,0-1.236,1.236V96.748l11.262,5.822a1.236,1.236,0,0,0,1.135-2.2l-9.925-5.131V84.434A1.236,1.236,0,0,0,207.223,83.2Z" transform="translate(-189.161 -76.54)" fill="#fefdff"></path></g></g></g></g></svg> 