<?xml version="1.0" encoding="UTF-8"?> <svg xmlns="http://www.w3.org/2000/svg" xmlns:xlink="http://www.w3.org/1999/xlink" width="100" height="100" viewBox="0 0 100 100"><defs><linearGradient id="linear-gradient" x1="0.051" y1="0.049" x2="1.314" y2="1.241" gradientUnits="objectBoundingBox"><stop offset="0" stop-color="#4c9aff"></stop><stop offset="1" stop-color="#244faf"></stop></linearGradient></defs><g id="Group_3526" data-name="Group 3526" transform="translate(-670 -1859)"><circle id="Ellipse_44" data-name="Ellipse 44" cx="50" cy="50" r="50" transform="translate(670 1859)" fill="url(#linear-gradient)"></circle><g id="help_1_" data-name="help (1)" transform="translate(695 1884)"><path id="Path_1122" data-name="Path 1122" d="M50.329,34.061A16.306,16.306,0,0,0,38.416,18.384a19.217,19.217,0,1,0-35.751,10.6L.071,38.364,9.449,35.77a19.146,19.146,0,0,0,8.934,2.645,16.274,16.274,0,0,0,23.955,9.653l7.92,2.191-2.191-7.92A16.21,16.21,0,0,0,50.329,34.061ZM9.915,32.582,4.3,34.135,5.853,28.52,5.5,27.966a16.263,16.263,0,1,1,4.969,4.969ZM46.029,46.029l-4.166-1.153-.556.362a13.324,13.324,0,0,1-19.873-6.932A19.254,19.254,0,0,0,38.307,21.433a13.325,13.325,0,0,1,6.932,19.874l-.362.556Zm0,0" transform="translate(0)" fill="#fff"></path><path id="Path_1123" data-name="Path 1123" d="M180.5,271h2.949v2.949H180.5Zm0,0" transform="translate(-162.757 -244.361)" fill="#fff"></path><path id="Path_1124" data-name="Path 1124" d="M144.347,95.9a2.919,2.919,0,0,1-.96,2.177l-3.464,3.17v3.6h2.949v-2.3l2.505-2.293A5.9,5.9,0,1,0,135.5,95.9h2.949a2.949,2.949,0,1,1,5.9,0Zm0,0" transform="translate(-122.18 -81.153)" fill="#fff"></path></g></g></svg> 