<?xml version="1.0" encoding="UTF-8"?> <svg xmlns="http://www.w3.org/2000/svg" xmlns:xlink="http://www.w3.org/1999/xlink" width="80" height="80" viewBox="0 0 80 80"><defs><linearGradient id="linear-gradient" x1="0.029" y1="-0.062" x2="0.961" y2="1.046" gradientUnits="objectBoundingBox"><stop offset="0" stop-color="#ffab00"></stop><stop offset="1" stop-color="#de350b"></stop></linearGradient></defs><g id="Group_4434" data-name="Group 4434" transform="translate(-497 -917)"><circle id="Ellipse_79" data-name="Ellipse 79" cx="40" cy="40" r="40" transform="translate(497 917)" fill="url(#linear-gradient)"></circle><g id="tachometer" transform="translate(515 936)"><path id="Path_1590" data-name="Path 1590" d="M36.828,6.319a21.574,21.574,0,0,0-30.51,30.51,21.574,21.574,0,0,0,30.51-30.51Zm-15.255,34.3A19.045,19.045,0,1,1,40.619,21.573,19.067,19.067,0,0,1,21.573,40.619Zm0,0" fill="#fff"></path><path id="Path_1591" data-name="Path 1591" d="M76.26,59.719A16.541,16.541,0,1,0,92.8,76.26,16.56,16.56,0,0,0,76.26,59.719Zm0,30.554A14.031,14.031,0,0,1,62.3,77.524h2.972V75H62.3a13.953,13.953,0,0,1,3.2-7.706l2.1,2.1L69.387,67.6l-2.1-2.1A13.951,13.951,0,0,1,75,62.3v2.972h2.528V62.3a13.951,13.951,0,0,1,7.705,3.2l-2.1,2.1,1.788,1.787,2.1-2.1A13.953,13.953,0,0,1,90.215,75H87.243v2.528h2.972A14.031,14.031,0,0,1,76.26,90.272Zm0,0" transform="translate(-54.686 -54.686)" fill="#fff"></path><path id="Path_1592" data-name="Path 1592" d="M217.126,170.113V166H214.6v4.113a3.694,3.694,0,0,0,0,6.942v1.726h2.528v-1.726a3.694,3.694,0,0,0,0-6.942Zm-1.264,4.637a1.166,1.166,0,1,1,1.166-1.166A1.167,1.167,0,0,1,215.862,174.75Zm0,0" transform="translate(-194.288 -152.011)" fill="#fff"></path><path id="Path_1593" data-name="Path 1593" d="M215.668,348.668h6.8V351.2h-6.8Zm0,0" transform="translate(-197.493 -319.285)" fill="#fff"></path></g></g></svg> 